<svg width="30" height="31" viewBox="0 0 30 31" fill="none" xmlns="http://www.w3.org/2000/svg">
<path opacity="0.5" fill-rule="evenodd" clip-rule="evenodd" d="M14.9999 0.90625C23.284 0.90625 29.9998 7.62416 29.9998 15.9074C29.9998 24.192 23.284 30.9079 14.9999 30.9079C6.71551 30.9079 -0.00012207 24.192 -0.00012207 15.9074C-0.00012207 7.62416 6.71551 0.90625 14.9999 0.90625Z" fill="#DC662D"/>
<path fill-rule="evenodd" clip-rule="evenodd" d="M22.3763 10.9381C21.7987 10.2057 20.7323 9.90747 18.696 9.90747H11.3036C9.2206 9.90747 8.13627 10.2258 7.56085 11.0037C6.99988 11.7634 6.99988 12.8822 6.99988 14.4314V17.3847C6.99988 20.3851 7.66547 21.9064 11.3036 21.9064H18.696C20.462 21.9064 21.4406 21.6444 22.0737 20.998C22.7229 20.3355 22.9999 19.2549 22.9999 17.3847V14.4314C22.9999 12.7977 22.9565 11.6733 22.3763 10.9381ZM17.272 16.3154L13.9152 18.1854C13.8401 18.2258 13.7581 18.2473 13.6761 18.2473C13.5833 18.2473 13.4907 18.2206 13.4087 18.1672C13.2543 18.0681 13.16 17.8876 13.16 17.6981V13.97C13.16 13.7768 13.254 13.6001 13.4081 13.499C13.5623 13.4007 13.7541 13.3928 13.9139 13.4804L17.2708 15.3394C17.4416 15.4332 17.5488 15.6212 17.549 15.8249C17.5493 16.0312 17.4425 16.2183 17.272 16.3154Z" fill="white"/>
</svg>
