<svg width="30" height="31" viewBox="0 0 30 31" fill="none" xmlns="http://www.w3.org/2000/svg">
<path fill-rule="evenodd" clip-rule="evenodd" d="M14.9996 0.90625C23.2838 0.90625 29.9996 7.62416 29.9996 15.9074C29.9996 24.192 23.2838 30.9079 14.9996 30.9079C6.71533 30.9079 -0.000305176 24.192 -0.000305176 15.9074C-0.000305176 7.62416 6.71533 0.90625 14.9996 0.90625Z" fill="#DC662D"/>
<path fill-rule="evenodd" clip-rule="evenodd" d="M22.4343 9.47354C22.0566 9.09507 21.604 8.90625 21.0767 8.90625H9.9228C9.39523 8.90625 8.94284 9.09507 8.56508 9.47354C8.18742 9.85051 7.9986 10.3031 7.9986 10.8293V21.9846C7.9986 22.512 8.18742 22.9636 8.56508 23.3424C8.94284 23.7189 9.39534 23.9074 9.9228 23.9074H21.0767C21.6039 23.9074 22.0566 23.7189 22.4343 23.3424C22.8119 22.9636 23.0007 22.512 23.0007 21.9846V10.8293C23.0007 10.3031 22.8119 9.85051 22.4343 9.47354ZM13.3852 14.3113C13.9745 13.7436 14.6826 13.4576 15.5095 13.4576C16.3429 13.4576 17.0543 13.7436 17.6436 14.3113C18.2328 14.8822 18.5275 15.57 18.5275 16.378C18.5275 17.185 18.2328 17.8734 17.6436 18.4436C17.0543 19.012 16.3431 19.2985 15.5095 19.2985C14.6826 19.2985 13.9746 19.012 13.3852 18.4436C12.7958 17.8734 12.5013 17.185 12.5013 16.378C12.5013 15.57 12.7958 14.8822 13.3852 14.3113ZM21.3014 21.5839C21.3014 21.7534 21.2427 21.8939 21.1257 22.0086C21.0082 22.1219 20.8683 22.1806 20.7053 22.1806H10.2646C10.0954 22.1806 9.9537 22.1219 9.83983 22.0086C9.72573 21.8939 9.66887 21.7534 9.66887 21.5839V15.2561H11.0459C10.9157 15.6642 10.8507 16.0928 10.8507 16.5352C10.8507 17.7856 11.3064 18.8505 12.218 19.7335C13.1297 20.6147 14.2268 21.0581 15.5095 21.0581C16.356 21.0581 17.1374 20.8544 17.8537 20.4518C18.57 20.0474 19.1362 19.4987 19.5531 18.8043C19.97 18.1116 20.1783 17.3549 20.1783 16.5352C20.1783 16.0928 20.113 15.6642 19.9827 15.2561H21.3014V21.5839ZM21.3014 12.8625C21.3014 13.0507 21.2363 13.209 21.106 13.3402C20.9757 13.4707 20.8163 13.5356 20.6274 13.5356H18.9279C18.7392 13.5356 18.5796 13.4707 18.4495 13.3402C18.3192 13.209 18.2541 13.0507 18.2541 12.8625V11.2512C18.2541 11.0681 18.3192 10.9113 18.4495 10.7757C18.5796 10.6428 18.7392 10.5765 18.9279 10.5765H20.6274C20.8163 10.5765 20.9757 10.6428 21.106 10.7757C21.2363 10.9113 21.3014 11.0681 21.3014 11.2512V12.8625Z" fill="white"/>
</svg>
