<svg width="396" height="346" viewBox="0 0 396 346" fill="none" xmlns="http://www.w3.org/2000/svg"><path fill-rule="evenodd" clip-rule="evenodd" d="M370.305 269.287C439.914 6.97 80.775-53.529 10.232 77.046c-19.621 36.206-6.774 76.733 3.387 88.412 53.725 61.667-8.526 63.769-8.526 115.625 0 76.266 332.744 98.34 365.212-11.796z" fill="#F8F6FB"/><path fill-rule="evenodd" clip-rule="evenodd" d="M22.963 39.672c0-4.672 1.05-7.475 4.788-9.343 4.205-1.986 9.227-.234 11.212 3.97 3.621 7.592-.233 18.804-4.087 30.016C23.664 60.345 12.45 56.49 8.83 48.9c-1.986-4.205-.234-9.227 3.854-11.213 3.854-1.868 6.657-.817 10.278 1.986zM183.67 279.799l4.088.817.35-1.869.35-1.751.117-.351c.35-1.752 1.051-4.321 2.57-5.723 1.751-1.518 3.737-2.219 6.89-1.635 5.139 1.051 7.125 2.336 7.125 2.336l-2.336 5.723s-1.518-.818-3.154-1.168c-1.518-.35-3.036-.117-3.387 1.518l-.116.584-.468 2.103-.35 1.868 6.424 1.402-1.752 5.723-5.957-1.285-4.438 20.205-7.591-1.635 4.438-20.205-4.088-.818 1.285-5.839zM40.949 213.927c-8.993 5.489-20.79 2.686-26.279-6.307-5.606-8.993-2.803-20.789 6.19-26.278 8.993-5.49 20.79-2.687 26.279 6.307 5.606 8.876 2.803 20.672-6.19 26.278z" fill="#EDE2F9"/><path fill-rule="evenodd" clip-rule="evenodd" d="M35.343 204.817c-.467.234-.935.351-1.519.234a2.14 2.14 0 0 1-1.167-.818c-.234-.467-.35-.934-.234-1.518.117-.467.467-.934.818-1.168.467-.233.934-.35 1.518-.233a2.14 2.14 0 0 1 1.168.817c.233.467.35.934.233 1.518 0 .351-.35.818-.817 1.168zm-12.964-5.606a1.212 1.212 0 0 1-1.402.935 1.212 1.212 0 0 1-.934-1.402c.35-1.635 1.051-3.27 2.219-4.672 1.051-1.401 2.453-2.686 4.088-3.737 1.635-1.051 3.504-1.752 5.255-1.986 1.87-.35 3.621-.233 5.256.234.584.234.934.818.818 1.402-.234.584-.818.934-1.402.817-1.285-.35-2.686-.467-4.204-.117-1.519.234-3.037.818-4.439 1.752-1.401.935-2.569 1.986-3.503 3.154-.818 1.051-1.519 2.452-1.752 3.62zm4.204 1.402c.117-.818.468-1.752 1.052-2.453a7.665 7.665 0 0 1 2.219-2.102c.934-.584 1.868-.935 2.92-1.051.934-.117 1.868-.117 2.686.233.584.234 1.284-.117 1.401-.7.234-.584-.117-1.285-.7-1.402-1.169-.35-2.453-.467-3.738-.234h-.117a11.19 11.19 0 0 0-3.737 1.402c-1.168.701-2.102 1.635-2.92 2.686-.818 1.051-1.285 2.219-1.518 3.387-.117.584.35 1.168.934 1.285.818 0 1.518-.467 1.518-1.051zm4.322 1.284c0-.35.233-.817.467-1.167a3.55 3.55 0 0 1 .934-.935c.467-.233.818-.35 1.285-.467.467 0 .817 0 1.285.117.584.233 1.284 0 1.518-.584.234-.584 0-1.285-.584-1.518-.7-.234-1.518-.351-2.336-.351-.817.117-1.518.351-2.219.818-.7.467-1.285 1.051-1.635 1.635-.467.701-.7 1.401-.818 2.219-.116.584.35 1.168 1.052 1.285.35 0 .934-.468 1.05-1.052z" fill="#fff"/><path fill-rule="evenodd" clip-rule="evenodd" d="M222.445 57.658l-23.592-18.22c-1.635-1.284-1.985-3.62-.701-5.372L223.38 1.48c1.284-1.635 3.62-1.985 5.372-.7L252.344 19c1.635 1.284 1.986 3.62.701 5.372l-25.344 32.585c-1.168 1.635-3.621 1.986-5.256.701z" fill="#EDE2F9"/><path fill-rule="evenodd" clip-rule="evenodd" d="M231.088 22.036c-1.635-1.284-1.985-3.62-.701-5.372 1.285-1.635 3.621-1.986 5.373-.7 1.635 1.284 1.985 3.62.701 5.372-1.285 1.752-3.621 1.985-5.373.7z" fill="#fff"/><path fill-rule="evenodd" clip-rule="evenodd" d="M361.312 148.056l-9.46-2.803s-3.153-4.438-3.387-4.905l1.635-5.723c.117-.467.584-.701 1.051-.584.701-3.27-3.971-11.796-3.62-18.22.817-11.446 12.263-13.548 21.373-10.862 9.226 2.803 17.285 10.979 11.562 21.023-3.153 5.373-11.796 10.278-12.847 12.847.584.117.934.467.701 1.051l-1.752 6.074-5.256 2.102zm8.76-48.47c-.467-.116-.818-.7-.701-1.167l1.869-6.307c.116-.467.7-.817 1.168-.7.467.116.817.7.7 1.167l-1.868 6.307c-.117.584-.584.934-1.168.7zm9.46 36.323c-.467.351-.467.935-.117 1.402l4.088 5.139c.35.467.934.467 1.401.117.468-.351.468-.935.117-1.402l-4.088-5.139c-.35-.35-1.051-.35-1.401-.117zm6.073-7.124c-.233.467 0 1.051.467 1.285l5.957 2.92c.467.233 1.051 0 1.285-.468.233-.467 0-1.051-.468-1.284l-5.956-2.92c-.467-.234-1.051-.117-1.285.467zm1.986-9.11c0 .584.467.935.934.935l6.54.116c.584 0 .935-.467.935-.934 0-.584-.467-.934-.935-.934l-6.54-.117c-.467-.117-.934.35-.934.934zm-2.687-8.993c.234.467.818.701 1.285.467l6.073-2.686c.468-.234.701-.817.468-1.285-.234-.467-.818-.7-1.285-.467l-6.073 2.686c-.468.234-.584.701-.468 1.285zm-6.54-6.891c.35.351 1.051.351 1.402-.116l4.321-4.906c.35-.35.35-1.05-.117-1.401-.35-.35-1.051-.35-1.401.117l-4.322 4.905c-.233.467-.233 1.051.117 1.401zm-35.622 21.373c.117.468-.117 1.052-.584 1.168l-6.19 2.103c-.467.116-1.051-.117-1.168-.584-.117-.467.117-1.051.584-1.168l6.19-2.102c.467-.117.935.116 1.168.583zm-1.285-9.343c0 .584-.584.934-1.051.818l-6.54-.701c-.584-.117-.935-.584-.818-1.051 0-.584.584-.935 1.051-.818l6.541.701c.584.117.934.584.817 1.051zm3.271-8.759c-.234.467-.818.584-1.285.35l-5.606-3.387c-.467-.234-.584-.818-.351-1.285.234-.467.818-.584 1.285-.35l5.606 3.387c.467.233.584.934.351 1.285zm7.007-6.074c-.467.351-1.051.234-1.285-.233l-3.62-5.49c-.351-.467-.117-1.05.233-1.284.468-.35 1.052-.234 1.285.233l3.621 5.49c.35.35.233.934-.234 1.284zm9.227-2.336c-.467.117-1.051-.233-1.051-.817l-1.051-6.54c-.117-.468.233-1.052.817-1.052.584-.117 1.051.234 1.051.818l1.051 6.54c0 .468-.35 1.051-.817 1.051zm-10.395 50.572l9.344 2.686c1.868.584 2.686-2.219.817-2.803l-9.343-2.686c-1.869-.584-2.686 2.336-.818 2.803zm6.541 10.745l-8.293-2.453c-1.168 2.57 7.825 5.139 8.293 2.453zm-8.643-3.387c-1.869-.584-1.051-3.387.818-2.803l9.343 2.686c1.869.584 1.051 3.387-.818 2.803l-9.343-2.686zm1.051-3.738c-1.869-.583-1.051-3.387.818-2.803l9.343 2.687c1.869.584 1.051 3.387-.817 2.803l-9.344-2.687z" fill="#EDE2F9"/><path fill-rule="evenodd" clip-rule="evenodd" d="M130.179 113.835l-2.453 11.096-11.563 3.504-12.029-6.541 1.985-10.161 5.723-.817.701-6.424 12.497 1.285-.701 6.657 5.84 1.401z" fill="url(#a)"/><path fill-rule="evenodd" clip-rule="evenodd" d="M117.565 110.215c-7.825-.817-13.898-7.825-15.3-15.884-3.737-1.284-5.139-7.24-.234-7.358.468-9.927-1.518-18.57 19.388-15.416 21.257 3.27 17.402 9.694 15.884 19.387h.234c4.438.468 2.102 6.657-1.986 7.358-3.036 7.358-10.161 12.731-17.986 11.913z" fill="url(#b)"/><path fill-rule="evenodd" clip-rule="evenodd" d="M102.265 88.024c-.818-1.869.7-3.153-2.57-7.942-5.139-7.475-2.686-7.942.117-14.95 4.672-11.796 13.548-6.657 15.417-5.605 4.321 2.569 5.022-7.125 14.716-3.504 9.343 3.62 14.482 10.978 15.884 16.701 1.751 7.241-7.592 10.512-7.826 14.249 0 .7-.233 4.672-.7 5.022-.584.467-2.57-4.905-7.125-8.059-2.92-2.102-16.584 4.322-20.672-1.05-5.489-7.359-4.905-2.92-6.073 1.751-.234.818-.935 3.854-1.168 3.387z" fill="#37254D"/><path fill-rule="evenodd" clip-rule="evenodd" d="M178.882 182.51c.584 1.168 2.452 2.453 4.555 3.504l.117-1.168 1.284-9.577.117-.467c-.584 0-1.285 0-2.336.233-1.518.584-3.737-1.868-5.022-1.401-1.401.467-2.803 4.088-2.92 5.956 0 .935 3.621.818 4.205 2.92z" fill="url(#c)"/><path fill-rule="evenodd" clip-rule="evenodd" d="M201.539 169.896c-2.803-.233-5.723-.35-8.526-.584l-8.409-3.503c.35-1.168 1.051-2.336 2.102-3.387 4.789 1.168 9.577 2.335 14.483 3.503.35 1.402.467 2.687.35 3.971z" fill="#D2BEEA"/><path fill-rule="evenodd" clip-rule="evenodd" d="M201.539 169.896l-8.526-.584-8.409-3.503c.117-.468.35-.818.584-1.285 5.256 2.453 10.745 3.854 16.468 3.971-.117.467-.117.934-.117 1.401z" fill="#DCCAF1"/><path fill-rule="evenodd" clip-rule="evenodd" d="M192.897 194.773c-3.154 1.168-9.928-.583-12.264-3.036l3.387-25.227 17.402 4.204c-2.803 8.059-5.606 16.118-8.525 24.059z" fill="#C5B0DF"/><path fill-rule="evenodd" clip-rule="evenodd" d="M181.801 183.561l1.285-9.577c4.905 2.803 10.161 4.088 15.884 3.854l-3.271 9.11c-4.905.117-9.577-1.051-13.898-3.387z" fill="#EDE2F9"/><path fill-rule="evenodd" clip-rule="evenodd" d="M194.181 163.122c3.971.934 7.125 2.336 7.008 2.92-.117.701-3.504.35-7.592-.584-3.971-.934-7.124-2.336-7.007-2.92.233-.701 3.62-.35 7.591.584z" fill="#C5B0DF"/><path fill-rule="evenodd" clip-rule="evenodd" d="M197.101 164.641c.701.116 1.168.467 1.168.7 0 .234-.701.351-1.285.117-.701-.117-1.168-.467-1.168-.701 0-.233.584-.35 1.285-.116z" fill="#B39AD3"/><path fill-rule="evenodd" clip-rule="evenodd" d="M184.838 164.991c5.255 2.453 10.862 3.854 16.701 4.088 1.051 0 1.635 3.153-.584 3.036-6.19-.35-11.445-1.635-17.052-4.204-1.985-.818-.116-3.387.935-2.92z" fill="#EDE2F9"/><path fill-rule="evenodd" clip-rule="evenodd" d="M181.218 172.583c-.701 3.737-2.687 7.241-5.373 10.394-6.073-2.336-21.724-8.175-27.68-11.095-14.015-6.657-5.256-19.738 7.241-14.132 5.957 2.686 17.519 11.095 25.812 14.833z" fill="#5983B1"/><path fill-rule="evenodd" clip-rule="evenodd" d="M76.454 314.136l3.037-7.942 8.526 2.219-2.687 7.358c-.233 0-8.058-1.518-8.876-1.635z" fill="url(#d)"/><path fill-rule="evenodd" clip-rule="evenodd" d="M120.835 315.771l1.402-7.942 8.292.584-1.168 7.242c-.233.116-7.708.116-8.526.116z" fill="url(#e)"/><path fill-rule="evenodd" clip-rule="evenodd" d="M77.038 312.033c4.321 2.687 8.526.701 10.394 1.752 4.205 4.555 5.373 5.723 10.745 7.008 5.256 1.285 8.176 6.424 1.519 5.606-12.38-1.518-22.425-2.453-25.812-3.737-1.635-.935-2.803-9.227 3.154-10.629zm44.148 1.636c4.438 1.752 8.059-.818 9.927-.234 4.672 3.504 6.073 4.322 11.096 4.672 5.138.234 8.642 4.555 2.452 5.022-11.796.701-21.256 1.635-24.643.934-1.752-.584-4.205-7.942 1.168-10.394z" fill="#37254D"/><path fill-rule="evenodd" clip-rule="evenodd" d="M117.448 307.829c3.621 3.27 13.315 3.971 16.585 1.168 3.854-58.513 1.518-76.733 1.401-121.231-4.905.467-15.416 1.168-25.928.934 3.037 28.848 9.227 49.754 7.942 119.129z" fill="#715198"/><path fill-rule="evenodd" clip-rule="evenodd" d="M75.052 306.427c4.205 2.336 10.979 5.607 17.052 4.439 15.884-57.93 16.701-73.697 25.227-118.312-5.839-.584-15.183-3.737-27.33-6.19-1.985 29.549.935 50.571-14.949 120.063z" fill="#67498B"/><path fill-rule="evenodd" clip-rule="evenodd" d="M130.062 113.835c19.154 8.876 19.388 14.249 24.994 43.214.934 4.905 2.219 12.146-4.555 13.781-8.643 2.103-11.913-10.044-13.548-21.373 1.051 14.833 6.891 35.505-1.635 41.812-8.526 6.307-40.878 3.154-51.272-6.19-6.774-24.643-8.41-20.322-1.402-53.258 1.986-9.46 10.278-19.387 23.826-20.088 1.752 16.701 16.818 17.636 23.592 2.102z" fill="#5983B1"/><path fill-rule="evenodd" clip-rule="evenodd" d="M88.951 201.197c-.584 1.635-.467 4.788 1.635 7.942 3.62-.467 7.475-2.102 10.278-4.322-.584-2.335-1.518-3.971-3.387-5.489-1.518-.934-1.051-4.321-2.22-5.022-1.4-.817-5.138.467-6.656 1.635-.935.584 1.635 3.387.35 5.256z" fill="url(#f)"/><path fill-rule="evenodd" clip-rule="evenodd" d="M98.294 196.642c-3.27 1.869-7.007 2.336-10.978 1.869-2.453-6.541-7.358-26.279-8.76-33.987-3.153-17.986 10.862-18.57 13.898-2.92 1.519 7.708 4.322 26.045 5.84 35.038z" fill="#5983B1"/><path fill-rule="evenodd" clip-rule="evenodd" d="M97.477 131.938c.35 9.461-1.636 21.374-2.803 24.877-2.803 8.41 2.92 17.286 1.868 30.717-2.336-18.336-7.358-21.723-3.97-31.651 1.05-3.504 4.204-14.599 4.905-23.943z" fill="#456F9B"/><path fill-rule="evenodd" clip-rule="evenodd" d="M194.765 189.284c-1.635-.117-2.803-.584-3.971-1.051-3.27-1.285-8.292-8.059-2.102-8.176 1.285 0 2.453.117 4.555.351-.701-.468-.701-1.869.467-2.219.935-.234 3.621-.117 5.022.116l-3.971 10.979z" fill="url(#g)"/><path fill-rule="evenodd" clip-rule="evenodd" d="M255.031 134.975l2.102 10.862 11.563 3.737 12.146-5.956-1.752-10.045-5.606-.934-.467-6.19-12.497.818.35 6.423-5.839 1.285z" fill="url(#h)"/><path fill-rule="evenodd" clip-rule="evenodd" d="M267.761 131.822c7.825-.584 14.132-7.125 15.767-14.95 3.854-1.168 5.373-6.774.467-7.124-.233-9.577 1.986-17.87-19.037-15.417-21.373 2.453-17.636 8.876-16.468 18.337h-.233c-4.439.35-2.336 6.423 1.752 7.241 2.919 7.124 9.927 12.497 17.752 11.913z" fill="url(#i)"/><path fill-rule="evenodd" clip-rule="evenodd" d="M283.762 110.799c.817-1.869-.584-3.153 2.803-7.592 5.372-7.124 2.92-7.591.35-14.482-4.321-11.562-13.431-6.774-15.3-5.84-4.438 2.336-4.788-7.124-14.599-3.854-9.46 3.154-14.833 10.278-16.351 15.767-1.985 7.008 7.241 10.395 7.358 14.016 0 .7.117 4.554.467 4.905.584.467 2.686-4.672 7.358-7.592 2.92-1.868 16.468 4.672 20.673-.467 5.722-7.007 5.022-2.686 6.073 1.869.233.817.934 3.737 1.168 3.27z" fill="#37254D"/><path fill-rule="evenodd" clip-rule="evenodd" d="M302.916 330.37l-2.803-7.825-8.526 1.868 2.453 7.242c.233 0 8.058-1.285 8.876-1.285z" fill="url(#j)"/><path fill-rule="evenodd" clip-rule="evenodd" d="M258.417 330.604l-1.168-7.709-8.292.351 1.051 7.124c.234 0 7.709.117 8.409.234z" fill="url(#k)"/><path fill-rule="evenodd" clip-rule="evenodd" d="M302.332 328.268c-4.321 2.452-8.642.467-10.511 1.401-4.321 4.322-5.606 5.373-10.862 6.424-5.372 1.051-8.292 5.956-1.752 5.372 12.497-1.051 22.541-1.635 25.928-2.803 1.752-.817 3.154-8.759-2.803-10.394zm-44.031.35c-4.438 1.518-8.059-1.051-9.927-.467-4.672 3.27-6.19 4.088-11.212 4.088-5.139.117-8.76 4.204-2.57 4.788 11.796 1.051 21.14 2.219 24.527 1.752 1.752-.584 4.438-7.708-.818-10.161z" fill="#37254D"/><path fill-rule="evenodd" clip-rule="evenodd" d="M262.155 323.012c-3.737 3.037-13.431 3.504-16.584.584-2.103-56.761-3.738-74.28-2.336-117.377 4.905.584 18.336 1.285 28.848 1.402-3.855 27.913-9.227 48.235-9.928 115.391z" fill="#715198"/><path fill-rule="evenodd" clip-rule="evenodd" d="M304.551 322.895c-4.321 2.103-11.095 5.139-17.169 3.738-14.132-56.528-17.519-72.062-24.643-115.509 5.84-.35 18.22-2.92 30.366-4.905 1.168 28.848-2.336 48.936 11.446 116.676z" fill="#67498B"/><path fill-rule="evenodd" clip-rule="evenodd" d="M255.147 134.975c-14.949 8.643-18.453 13.665-19.504 27.447-1.168 14.599 1.051 35.855 3.036 49.169.818 5.49 3.154 11.68 4.205 11.913.233-5.606.233-4.788 1.401-4.321 9.227 6.54 48.586-2.92 48.703-13.898 0-7.475-4.555-8.059 6.307-11.913 10.862-3.854 7.475-23.476 2.803-39.593-2.686-8.993-9.694-19.037-23.242-20.089-2.219 16.001-17.285 16.468-23.709 1.285z" fill="#5983B1"/><path fill-rule="evenodd" clip-rule="evenodd" d="M244.169 157.282c-3.037 12.965-2.92 24.527-2.103 33.52-.116-5.139 1.519-20.789 2.103-33.52z" fill="#456F9B"/><path fill-rule="evenodd" clip-rule="evenodd" d="M233.19 176.553l8.41 1.402c3.036-.467 5.956-.935 8.993-1.402-.117-1.168-.468-2.452-1.285-3.62h-14.833c-.817 1.168-1.168 2.452-1.285 3.62z" fill="#D2BEEA"/><path fill-rule="evenodd" clip-rule="evenodd" d="M233.19 176.553l8.41 1.402 8.993-1.402c0-.467-.117-.934-.234-1.284a41.397 41.397 0 0 1-16.935 0c-.117.35-.234.817-.234 1.284z" fill="#DCCAF1"/><path fill-rule="evenodd" clip-rule="evenodd" d="M235.643 201.897c2.803 1.752 9.811 1.752 12.614 0l2.569-24.526h-17.869c.934 8.175 1.868 16.351 2.686 24.526z" fill="#C5B0DF"/><path fill-rule="evenodd" clip-rule="evenodd" d="M249.074 193.839l.935-9.344c-5.49 1.519-10.862 1.519-16.351 0l1.051 9.344c4.905 1.285 9.577 1.285 14.365 0z" fill="#EDE2F9"/><path fill-rule="evenodd" clip-rule="evenodd" d="M241.95 171.882c-4.088 0-7.475.584-7.475 1.168 0 .7 3.387 1.167 7.475 1.167 4.088 0 7.475-.584 7.475-1.167-.117-.701-3.387-1.168-7.475-1.168z" fill="#C5B0DF"/><path fill-rule="evenodd" clip-rule="evenodd" d="M238.68 172.583c-.701 0-1.285.233-1.285.467 0 .233.584.467 1.285.467.7 0 1.284-.234 1.284-.467 0-.234-.584-.467-1.284-.467z" fill="#B39AD3"/><path fill-rule="evenodd" clip-rule="evenodd" d="M250.476 175.736a42.5 42.5 0 0 1-17.169 0c-1.051-.234-2.336 2.686-.233 3.036 6.073 1.051 11.562 1.051 17.635 0 2.103-.35.935-3.27-.233-3.036z" fill="#EDE2F9"/><path fill-rule="evenodd" clip-rule="evenodd" d="M261.221 194.657c-1.519.116-2.57 0-4.088.467-3.037 1.635-4.672 2.686-9.577 3.036-1.518.117-4.205 0-5.606 0-7.125-.116-3.037-9.81-1.519-9.577 1.986-.467 5.723-.467 8.059-1.985 1.051-.701 1.518-2.57 1.752-3.504 2.57 0 1.869 3.621 3.037 4.438 2.102 1.518 5.139.934 6.89 1.051 2.22-.117 2.92 5.957 1.052 6.074z" fill="url(#l)"/><path fill-rule="evenodd" clip-rule="evenodd" d="M257.016 185.663c-.818 3.621 0 7.358 1.635 11.096 7.125.467 23.476 1.051 31.418.117 19.738-2.22 18.57-17.636 2.452-15.884-7.708.817-26.395 3.387-35.505 4.671z" fill="#5983B1"/><path fill-rule="evenodd" clip-rule="evenodd" d="M287.266 153.428c-.701 6.541 1.518 19.038 2.569 21.49 2.569 5.957-3.854 7.358-24.877 11.096 13.665-2.219 30.833-2.57 27.797-9.577-1.051-2.453-5.022-16.468-5.489-23.009z" fill="#456F9B"/><defs><linearGradient id="a" x1="116.306" y1="126.263" x2="117.881" y2="110.752" gradientUnits="userSpaceOnUse"><stop stop-color="#F98678"/><stop offset="1" stop-color="#FCA599"/></linearGradient><linearGradient id="b" x1="117.949" y1="106.569" x2="120.59" y2="80.552" gradientUnits="userSpaceOnUse"><stop stop-color="#FCADA2"/><stop offset="1" stop-color="#FEC8C1"/></linearGradient><linearGradient id="c" x1="175.353" y1="177.519" x2="188.409" y2="181.83" gradientUnits="userSpaceOnUse"><stop stop-color="#FCADA2"/><stop offset="1" stop-color="#FEC8C1"/></linearGradient><linearGradient id="d" x1="81.819" y1="312.974" x2="82.635" y2="309.247" gradientUnits="userSpaceOnUse"><stop stop-color="#FCADA2"/><stop offset="1" stop-color="#FEC8C1"/></linearGradient><linearGradient id="e" x1="125.674" y1="314.45" x2="125.824" y2="309.567" gradientUnits="userSpaceOnUse"><stop stop-color="#FCADA2"/><stop offset="1" stop-color="#FEC8C1"/></linearGradient><linearGradient id="f" x1="91.037" y1="194.772" x2="95.896" y2="207.797" gradientUnits="userSpaceOnUse"><stop stop-color="#FCADA2"/><stop offset="1" stop-color="#FEC8C1"/></linearGradient><linearGradient id="g" x1="204.056" y1="185.606" x2="191.647" y2="182.733" gradientUnits="userSpaceOnUse"><stop stop-color="#FCADA2"/><stop offset="1" stop-color="#FEC8C1"/></linearGradient><linearGradient id="h" x1="268.536" y1="147.649" x2="267.478" y2="132.066" gradientUnits="userSpaceOnUse"><stop stop-color="#F98678"/><stop offset="1" stop-color="#FCA599"/></linearGradient><linearGradient id="i" x1="267.438" y1="128.711" x2="265.668" y2="102.651" gradientUnits="userSpaceOnUse"><stop stop-color="#FCADA2"/><stop offset="1" stop-color="#FEC8C1"/></linearGradient><linearGradient id="j" x1="297.589" y1="329.166" x2="296.902" y2="325.363" gradientUnits="userSpaceOnUse"><stop stop-color="#FCADA2"/><stop offset="1" stop-color="#FEC8C1"/></linearGradient><linearGradient id="k" x1="253.714" y1="329.133" x2="253.715" y2="324.254" gradientUnits="userSpaceOnUse"><stop stop-color="#FCADA2"/><stop offset="1" stop-color="#FEC8C1"/></linearGradient><linearGradient id="l" x1="255.987" y1="189.311" x2="242.355" y2="191.993" gradientUnits="userSpaceOnUse"><stop stop-color="#FCADA2"/><stop offset="1" stop-color="#FEC8C1"/></linearGradient></defs></svg>