<svg width="74" height="63" viewBox="0 0 74 63" fill="none" xmlns="http://www.w3.org/2000/svg"><path fill-rule="evenodd" clip-rule="evenodd" d="M5.2 49.3C.5 46-3.4 37.8 6.1 32.1c5.9-3.6 8.2.4 11.5-12.6 2.6-10.3 5-18 17.6-13.4 4.6 1.7 8.4 7.5 20.1 3.6C69.5 5 73.6 14 69.2 23.5c-3.4 7.3-6.7 10.6-3.1 17.1 12.2 21.8-1.4 18.7-25.7 18.8-22.4.1-29.8-6.2-35.2-10.1z" fill="#F8F6FB"/><path fill-rule="evenodd" clip-rule="evenodd" d="M70.6 28.6c-.1 0-.2 0-.3-.1-.1-.1-.1-.2-.1-.3 0-.1 0-.2.1-.3.1-.1.2-.1.3-.1.1 0 .2 0 .3.1.1.1.1.2.1.3 0 .1 0 .2-.1.3-.1.1-.2.1-.3.1zm-1.7-2.4c-.1.1-.2.1-.3 0-.1-.1-.1-.2 0-.3.2-.3.5-.5.9-.6.3-.1.7-.2 1.1-.2.4 0 .8.1 1.2.2.4.1.7.4.9.6.1.1.1.3 0 .3-.1.1-.3.1-.3 0-.2-.2-.4-.4-.7-.5-.3-.1-.6-.2-1-.2s-.7.1-1 .2c-.4.1-.6.3-.8.5zm.6.7c.1-.1.3-.2.5-.3.2-.1.4-.1.6-.1.2 0 .4 0 .6.1.2.1.3.2.5.3.1.1.2.1.3 0 .1-.1.1-.2 0-.3-.2-.2-.4-.3-.6-.5-.2-.1-.5-.1-.8-.1-.3 0-.6.1-.8.2-.3.1-.5.3-.6.5-.1.1-.1.3 0 .3s.2 0 .3-.1zm.6.7c-.1.1-.2.1-.3 0-.1-.1-.1-.2 0-.3.1-.1.2-.2.4-.3.1-.1.3-.1.5-.1s.3 0 .5.1.3.2.4.3c.1.1.1.3 0 .3-.1.1-.3.1-.3 0l-.2-.2c-.1 0-.2-.1-.3-.1-.1 0-.2 0-.3.1-.2.1-.3.1-.4.2z" fill="#EDE2F9"/><path fill-rule="evenodd" clip-rule="evenodd" d="M40.4 55.1c-1.2 0-2.2-.5-3-1.2-.8-.8-1.3-1.8-1.3-3s.5-2.2 1.2-3c.8-.8 1.8-1.2 3-1.2s2.2.5 3 1.2c.8.8 1.3 1.8 1.3 3s-.5 2.2-1.2 3c-.8.7-1.8 1.2-3 1.2zM22.7 30.2c-.9 1-2.5 1.1-3.5.1-1-.9-1.1-2.5-.1-3.5 2.4-2.6 5.7-4.7 9.4-6.2 3.6-1.4 7.6-2.2 11.8-2.2 4.3 0 8.4.8 12 2.2 3.8 1.5 7 3.7 9.5 6.4.9 1 .8 2.6-.2 3.5-1 .9-2.6.8-3.5-.2-1.9-2.1-4.5-3.9-7.6-5.1-3-1.2-6.5-1.9-10.2-1.9-3.6 0-7.1.7-10 1.8-3.1 1.3-5.7 3.1-7.6 5.1zm6.3 7.3c1.2-1.4 2.9-2.6 4.8-3.4 1.9-.8 4.1-1.2 6.5-1.2 2.4 0 4.6.5 6.6 1.3h.1c1.9.8 3.6 2 4.7 3.4.9 1 2.5 1.2 3.5.3 1-.9 1.2-2.5.3-3.5-1.7-2-4-3.6-6.6-4.7l-.1-.1c-2.5-1.1-5.4-1.7-8.5-1.7-3 0-5.9.6-8.4 1.6-2.7 1.1-5 2.7-6.7 4.7-.9 1-.8 2.6.2 3.5 1.1.9 2.7.8 3.6-.2zm6.4 7.1c-.8 1.1-2.4 1.3-3.5.5s-1.3-2.4-.5-3.5c1-1.3 2.4-2.4 4-3.2 1.5-.7 3.2-1.1 5-1.1 1.8 0 3.5.4 5.1 1.2 1.6.8 3 1.9 4 3.3.8 1.1.6 2.7-.5 3.5-1.1.8-2.7.6-3.5-.5-.5-.7-1.3-1.3-2.1-1.7-.9-.4-1.8-.6-2.9-.6-1 0-2 .2-2.9.6-1 .2-1.7.8-2.2 1.5z" fill="#B39CCE"/><path fill-rule="evenodd" clip-rule="evenodd" d="M40.4 54.4c-1.2 0-2.2-.5-3-1.2-.8-.8-1.3-1.8-1.3-3s.5-2.2 1.2-3c.8-.8 1.8-1.2 3-1.2s2.2.5 3 1.2c.8.8 1.3 1.8 1.3 3s-.5 2.2-1.2 3c-.8.7-1.8 1.2-3 1.2zM22.7 29.5c-.9 1-2.5 1.1-3.5.1-1-.9-1.1-2.5-.1-3.5 2.4-2.6 5.7-4.7 9.4-6.2 3.6-1.4 7.6-2.2 11.8-2.2 4.3 0 8.4.8 12 2.2 3.8 1.5 7 3.7 9.5 6.4.9 1 .8 2.6-.2 3.5-1 .9-2.6.8-3.5-.2-1.9-2.1-4.5-3.9-7.6-5.1-3-1.2-6.5-1.9-10.2-1.9-3.6 0-7.1.7-10 1.8-3.1 1.3-5.7 3.1-7.6 5.1zm6.3 7.3c1.2-1.4 2.9-2.6 4.8-3.4 1.9-.8 4.1-1.2 6.5-1.2 2.4 0 4.6.5 6.6 1.3h.1c1.9.8 3.6 2 4.7 3.4.9 1 2.5 1.2 3.5.3 1-.9 1.2-2.5.3-3.5-1.7-2-4-3.6-6.6-4.7l-.1-.1c-2.5-1.1-5.4-1.7-8.5-1.7-3 0-5.9.6-8.4 1.6-2.7 1.1-5 2.7-6.7 4.7-.9 1-.8 2.6.2 3.5 1.1.9 2.7.8 3.6-.2zm6.4 7.1c-.8 1.1-2.4 1.3-3.5.5s-1.3-2.4-.5-3.5c1-1.3 2.4-2.4 4-3.2 1.5-.7 3.2-1.1 5-1.1 1.8 0 3.5.4 5.1 1.2 1.6.8 3 1.9 4 3.3.8 1.1.6 2.7-.5 3.5-1.1.8-2.7.6-3.5-.5-.5-.7-1.3-1.3-2.1-1.7-.9-.4-1.8-.6-2.9-.6-1 0-2 .2-2.9.6-1 .2-1.7.8-2.2 1.5z" fill="#C5B0DF"/><path fill-rule="evenodd" clip-rule="evenodd" d="M46.8 5.9c0-.2.4-.4.6-.7.1-.2.2-.5.3-.7 0-.1 0-.2-.1-.4-.1-.3.1-.4.2-.2.1.1.3.3.3.6l.2-.2c.3-.2.6.1.5.3.2-.1.4.3.3.4.2 0 .3.3.2.4.2.1.2.2.1.4-.3.2-.5.3-.7.4-.2.1-.5.1-.7.2-.2.2-.6.5-.8.3-.2-.2-.4-.5-.4-.8z" fill="url(#a)"/><path fill-rule="evenodd" clip-rule="evenodd" d="M38.7 7c.2.2.6.5.8.5 2.6.5 2.6.4 3.6.4.6-.4 1.7-.7 3.8-2.3.2.2.6.8.7 1.2-1.6 1.3-3 2.4-3.9 2.7-.9.3-1.6.6-3.4.5-.1 0-.6 0-1.1.3-.1-.1-.6-3.3-.5-3.3z" fill="#5983B1"/><path fill-rule="evenodd" clip-rule="evenodd" d="M44.6 27.6l.5-1.3 1.2.5-.4 1.3c-.1 0-1.2-.4-1.3-.5z" fill="url(#b)"/><path fill-rule="evenodd" clip-rule="evenodd" d="M53.1 21l-1.1-.7.7-.8 1.6 1.1-.2.2s-.9.2-1 .2z" fill="url(#c)"/><path fill-rule="evenodd" clip-rule="evenodd" d="M44.7 27.2c.5.6 1.2.4 1.4.7.4.9.5 1.1 1.2 1.5.7.4.9 1.3 0 .9-1.7-.7-3.1-1.2-3.5-1.6-.2-.2-.1-1.5.9-1.5zm8.1-6.4c.7.1 1.1-.4 1.4-.4.8.4 1 .5 1.8.4.7-.1 1.4.4.5.7-1.7.5-3 1-3.5 1-.2 0-.8-1.1-.2-1.7z" fill="#37254D"/><path fill-rule="evenodd" clip-rule="evenodd" d="M42.8 15.2l5.5.4c.2 0 .2.4 0 .4l-5.5-.4c-.3 0-.2-.4 0-.4z" fill="#8A6CAF"/><path fill-rule="evenodd" clip-rule="evenodd" d="M52.1 20.8l1.2-1.2c-1-.8-3.3-2.7-4.2-3.1-1.1-.5-2-.5-4.2-.6-1.7-.1-3.5-.3-5-.4-.6.3-1 .5-1.7.9 1.1.3 7.1 2.6 7.7 2.6 1.8-.5 1.8-.8 2.4-.5 1.2.6 2.5 1.4 3.8 2.3z" fill="#715198"/><path fill-rule="evenodd" clip-rule="evenodd" d="M39.1 15.8c2.9 1 4.7 1.5 7.6 2.5 1.6.5 2.1 1.3 1.5 3.2-.6 2.2-1.1 3.4-1.7 5.6-.6-.3-1.3-.3-1.8-.7.3-1.7.4-2.7.7-4.4.2-1.6.2-1.7-1.1-2-2-.5-3.3-.6-5.4-.9-2.1-.4-3.3-1.1-3.1-2.7 1-.3 2.3-.3 3.3-.6z" fill="#67498B"/><path fill-rule="evenodd" clip-rule="evenodd" d="M50 11.3l-1.9 4.4c-.1.2.2.4.3.1l1.9-4.5c.2 0-.2-.2-.3 0z" fill="#8A6CAF"/><path fill-rule="evenodd" clip-rule="evenodd" d="M39.4 7.8l-.2-.4.3-.9-1.1-.8-.4.9-.5.6L39 9.3l.4-1.5z" fill="url(#d)"/><path fill-rule="evenodd" clip-rule="evenodd" d="M42.6 2.9C41.9 1 40.4.5 38.5 1.6c-2.4 5.5 3.5 7.3 4.1 1.3z" fill="url(#e)"/><path fill-rule="evenodd" clip-rule="evenodd" d="M38 6.6c0 1.1.6 1.5 1.3 1.7.2-.5.2-.7 0-1 1.3 1.1 1.9 2.3 1.7 4.3-.1 1-.4 1.8-.3 3.8-1 1.4-3.2 1.8-4.8 1.1 0-2.9-3.3-7.6 2.1-9.9z" fill="#5983B1"/><path fill-rule="evenodd" clip-rule="evenodd" d="M43.3 14c.3.1.4.3.7.1.3-.2.6-.2.8-.1.7.1.6.2 1.1 1 .4.7 0 .7-.3.2-.4-.7-.9-.4-1.5-.3-.3 0-.6 0-.9-.1 0-.3 0-.5.1-.8z" fill="url(#f)"/><path fill-rule="evenodd" clip-rule="evenodd" d="M39.5 12.3c1.7.5 1.6 1 3.8 1.3.1.6 0 1.1-.2 1.5-.9-.1-2.5-.1-3.7-.7-1.8-.9-1.3-2.5.1-2.1z" fill="#5983B1"/><path fill-rule="evenodd" clip-rule="evenodd" d="M43.3 1.8C43.1.3 41.8.9 41.6.9c-.6.2-.8-.6-2.1-.4-1.2.2-1.4.3-1.7.8-.4.8 0 1.9-.1 2.3 0 .1-.4 1.4.4 2.4.2-.3.3-.9.5-1.3-.2-.1-.4-.3-.2-.7.2-.4.5 0 .6-.1.1-.2.3-.3.5-.3 1.7-.8 2.5.5 3 .2.4-.1 1-.9.8-2z" fill="#37254D"/><path fill-rule="evenodd" clip-rule="evenodd" d="M37.6 8.8c.1 2.8-.1 2.6 2.4 3.6-2.1-1.3-1.9-1-2.4-3.6z" fill="#456F9B"/><path fill-rule="evenodd" clip-rule="evenodd" d="M24.1 11.9h-3l1.3 4.7-5.2-4.7h-3c-.6 0-1.1-.5-1.1-1.1V5.1c0-.6.5-1.1 1.1-1.1h9.9c.6 0 1.1.5 1.1 1.1v5.7c0 .6-.5 1.1-1.1 1.1zm-22 6.3h-.7c-.8 0-.7.9-.4.9.1 0 .1 0 0 .1-.7.2-.5 1.2.1 1.1.1 0 .1 0 0 0-.4.1-.4 1 .3 1 .3 0 .2 0 .1.1-.3.1-.2.9.3.9H4c.9-.2 1-.6 1.4-.7.3-.1.3-2.5 0-2.5-.2 0-.4-.2-.5-.3-.3-.4-.6-.5-1-.9s-.9-.6-1.1-1.3c-.3-1-1.2-.3-.9.5.2.4.3.6.5.9.1.1 0 .2-.3.2zm65.6 4.3h5.8v8.1h-5.8v-8.1zm1.1 8.7h3.7v.6h-3.7v-.6zm1.5-9.5h.7v.3h-.7v-.3zm-2.4-.5c-.3 0-.6.3-.6.6v10.1c0 .3.3.6.6.6h5.5c.3 0 .6-.3.6-.6V21.8c0-.3-.3-.6-.6-.6h-5.5zm-7.7-7c3.5 0 6.3-2.8 6.3-6.3s-2.8-6.3-6.3-6.3-6.3 2.8-6.3 6.3c0 3.4 2.8 6.3 6.3 6.3z" fill="#EDE2F9"/><path fill-rule="evenodd" clip-rule="evenodd" d="M57.6 8.7h5.3V5.5h-5.3v3.2zm-.6.8V4.9h6.5v4.6h-2.8v.7h.5c.1 0 .2.1.2.2v.3c0 .1-.1.2-.2.2h-2.1c-.1 0-.2-.1-.2-.2v-.3c0-.1.1-.2.2-.2h.5v-.7H57z" fill="#fff"/><path fill-rule="evenodd" clip-rule="evenodd" d="M15.9 58.6l-.3-1.2-1.3.2.3 1.1c.1 0 1.2-.1 1.3-.1z" fill="url(#g)"/><path fill-rule="evenodd" clip-rule="evenodd" d="M12.4 58.2l-.3-1.2-1.2.2.3 1.1c-.1 0 1-.1 1.2-.1z" fill="url(#h)"/><path fill-rule="evenodd" clip-rule="evenodd" d="M15.9 58.3c-.7.3-1.3 0-1.6.1-.7.6-.9.8-1.7.8-.8.1-1.3.8-.3.8 1.8 0 3.3 0 3.8-.1.3-.2.6-1.3-.2-1.6z" fill="#37254D"/><path fill-rule="evenodd" clip-rule="evenodd" d="M12.3 57.9c-.6.3-1.2 0-1.5.1-.6.6-.8.7-1.6.8-.8.1-1.2.8-.3.8 1.7 0 3.1 0 3.6-.1.3-.2.6-1.3-.2-1.6z" fill="#37254D"/><path fill-rule="evenodd" clip-rule="evenodd" d="M12.5 57.1c-.5.3-1.6.6-2.1.2-1.2-8.5-1.1-11.2-1.5-17.8.7 0 1.9 0 3.5-.2-.2 4.3-.9 7.6.1 17.8z" fill="#5983B1"/><path fill-rule="evenodd" clip-rule="evenodd" d="M16.3 57.5c-.7.3-1.7.6-2.6.4-1.4-8.7-1.2-11-1.8-17.7.9 0 2.3-.3 4.1-.5-.2 4.3-.9 7.3.3 17.8z" fill="#4B75A2"/><path fill-rule="evenodd" clip-rule="evenodd" d="M9.8 29.7c-.1.1.8-.7 1-.7 1.1-.1 2.4-.1 3.5.3 2.2.8 2.9.4 1.6-1.7-.6-1 0-2 .3-3 .8-2.5-.8-4.8-3.3-4.8-1.7 0-4.6 1-3.6 4.3.5 1.5.7 2.5.4 3.2-.9 2 1 1 .1 2.4z" fill="#37254D"/><path fill-rule="evenodd" clip-rule="evenodd" d="M14.2 28.3l-.6 1.7-.9 1.2-1.5-1.3-.5-1.6 1.2-.2v-1h1.2v1l1.1.2z" fill="url(#i)"/><path fill-rule="evenodd" clip-rule="evenodd" d="M10.3 22.9c1.3-1.8 2.8-1.9 4.5-.4.9 6.5-5.5 7-4.5.4z" fill="url(#j)"/><path fill-rule="evenodd" clip-rule="evenodd" d="M9.9 23.9c1.6-1.8 4.3.6 4.2-1.4.5.6.8 1.7.7 3 .4-.7.5-1.2.4-2.1-.2-1.9-1.1-2.5-2.2-2.6-2.6-.1-3.3 1.3-3.1 3.1z" fill="#37254D"/><path fill-rule="evenodd" clip-rule="evenodd" d="M5.2 31.3c.1-.3.2-.3.1-.7-.1-.5 0-.7.2-.8.5-.3.3 0 .3.3s.1.6.1 1c0 .3.1.4.2.6.1.5.3 1.1-.2 1.3-.1-.5-.4-1.1-.7-1.7z" fill="url(#k)"/><path fill-rule="evenodd" clip-rule="evenodd" d="M4.7 33.1c.6 0 1 0 1.5-.1.1-.1 0-.4-.1-.4.1-.1.1-.4-.1-.5.1-.1.1-.5-.1-.6.2-.3 0-.6-.3-.6-.6.1-1.2.1-1.3.8-.1.7-.1 1.4.4 1.4z" fill="url(#l)"/><path fill-rule="evenodd" clip-rule="evenodd" d="M10.7 28.4c-2.7 1.4-3 1.9-4 5.7-.2-.3-.4-.7-.5-1-.4 0-1 .1-1.5.1 1.2 3.9 2 4.8 3.2 3.4.4-.5.7-1 1.3-2.3.5 1.9-.4 2.2-.4 5.3 1.5 1.4 5.6 1.3 7.3.1 0-1.2-.7-2.2-.4-3.3 1.1.4 1.3.3 1.7.3 2.3-.2 1.1-2.8.3-5-.5-1.3-1.5-3-3.5-3.3-.5.8-1 1.5-1.5 2.3-.7-.8-1.3-1.6-2-2.3z" fill="#56A9BE"/><path fill-rule="evenodd" clip-rule="evenodd" d="M13.5 33.9h-1.7c-.1 0-.3-.1-.3-.3v-3.3c0-.2.1-.3.3-.3h1.7c.1 0 .3.1.3.3v3.3c0 .2-.2.3-.3.3z" fill="#fff"/><path fill-rule="evenodd" clip-rule="evenodd" d="M13.4 30.4c.1 0 .2.1.2.2s-.1.2-.2.2-.2-.1-.2-.2.1-.2.2-.2zm-.4.1s.1 0 0 0c.1.1 0 .2 0 .2-.1-.1-.1-.1 0-.2-.1 0-.1 0 0 0z" fill="#6C528B"/><path fill-rule="evenodd" clip-rule="evenodd" d="M12.8 35.1c-.5-.1-.9-.6-1.1-.8-.3-.3-.6-.7-.4-1-.1-.2-.1-.4 0-.5-.1-.2-.1-.4.2-.6.1.3.2.4.3.6.2.6.3.6.6.8.2.1.1-.1.1-.2l-.3-.6c-.1-.1-.2-.3-.3-.5-.4-.6 0-.6.2-.3l.5.5c.3.5.2.6.7.8.2-.2.1-.3.1-.6-.1-.5 0-.7.3-.8 0 .1 0 .4.1.5.4.6.2.7.2 1.6-.1.2.3.2.3.4 0 .3-.3.6-.6.8-.2.2-.5-.1-.9-.1z" fill="url(#m)"/><path fill-rule="evenodd" clip-rule="evenodd" d="M15.4 31.1c0 1 .2 1.4.4 1.9.3.9.6 1.4-.9 1.4 2.1.3 1.8-.1 1.1-1.5-.3-.4-.5-.8-.6-1.8z" fill="#4998AC"/><path fill-rule="evenodd" clip-rule="evenodd" d="M19.2 6.6c.3-.6.6-.8 1.1-.8.6 0 1.1.5 1.1 1.1 0 1.1-1.1 2.2-2.2 3.3C18.1 9 17 7.9 17 6.8c0-.6.5-1.1 1.1-1.1.5 0 .8.3 1.1.9z" fill="#fff"/><path fill-rule="evenodd" clip-rule="evenodd" d="M66 44.6l-.3 2h-3.2v-2l.8-.1v-1h1.9v1l.8.1z" fill="url(#n)"/><path fill-rule="evenodd" clip-rule="evenodd" d="M64.2 44.3C63 44.3 62 43 62 41.2s-.7-3.4 2.2-3.2c2.9.2 2.2 1.4 2.2 3.2.1 1.8-.9 3.1-2.2 3.1z" fill="url(#o)"/><path fill-rule="evenodd" clip-rule="evenodd" d="M62.2 38.6c-.2.9-.2 1.4-.2 2.3-.6-.9-.8-1.2-.8-2.2 0-1.6-.1-2.3 1-2.2 1.1.1.4-.4 2.2-.6 1.2-.1 1.1.5 2.6.2 1-.2 1.2 1.7.1 3.3-.2.3-.2.7-.7 1.5 0-1.3-.1-2-.4-2.2-1.1.4-2.6.5-3.8-.1z" fill="#37254D"/><path fill-rule="evenodd" clip-rule="evenodd" d="M65.2 42.1c-.2 0-.5-.1-.6-.3-.1-.1-.2-.3-.2-.5H64c0 .2-.1.4-.2.5-.2.2-.4.3-.6.3-.2 0-.5-.1-.6-.3-.2-.2-.3-.4-.3-.6v-.1l-.4-.1v-.2l.4.1c0-.1.1-.2.2-.3.2-.2.4-.3.6-.3.2 0 .5.1.6.3.1.1.2.3.2.5h.4c0-.2.1-.4.2-.5.2-.2.4-.3.6-.3.2 0 .5.1.6.3.1.1.2.2.2.3l.4-.1v.2l-.4.1v.1c0 .2-.1.5-.3.6.1.2-.1.3-.4.3zm-1.5-.4c.1-.1.2-.3.2-.5s-.1-.4-.2-.5c-.1-.1-.3-.2-.5-.2s-.4.1-.5.2c-.1.1-.2.3-.2.5s.1.4.2.5c.1.1.3.2.5.2s.3-.1.5-.2zm1.1 0c.1.1.3.2.5.2s.4-.1.5-.2c.1-.1.2-.3.2-.5s-.1-.4-.2-.5c-.1-.1-.3-.2-.5-.2s-.4.1-.5.2c-.1.1-.2.3-.2.5s0 .4.2.5z" fill="#37254D"/><path fill-rule="evenodd" clip-rule="evenodd" d="M69 57.8h-8.8c-1.2-1-3.3-2.9-3-4.1 1.4-1 4.4.5 7.2.3 3.3-.2 6.2-1.1 7.1-.9.1 1.5-2.7 3.2-2.5 4.7z" fill="#67498B"/><path fill-rule="evenodd" clip-rule="evenodd" d="M67 59.4c1.7.4 1.7.8 2.9 1.6 2.2 1.5 1.1 1.5-1 1.3-1.3-.1-1.8-.7-2.8-1.6.4-.4.6-.9.9-1.3z" fill="#37254D"/><path fill-rule="evenodd" clip-rule="evenodd" d="M67.3 59.4c-.3.5-.6 1.1-1 1.6-4.2-1-5.5-1.6-9.5-4.1-1.8-1.1-.4-4.4 1.3-3.5 3.7 2.1 6 3.6 9.2 6z" fill="#715198"/><path fill-rule="evenodd" clip-rule="evenodd" d="M62.5 44.6c.4 2.3 3.1 2.3 3.4 0 1.1-.1 2.8.9 3.5 1.9.6.9 3 4.7 1.7 6.6-.4.1-1.2.3-2 .6.4-.5.9-1.8.6-2.1-.4-.4-1-.9-1.2-2.2-.3.9.3 2.9.2 3.9v.6c-.4.2-.8.5-1 .9-1.3 0-2.3 1.6-3.6 1.6-1.2 0-3.3-1.6-4.5-1.6-.6-1.1-.4-1-1-1.3-1.2-1.4 0-6 .6-6.9.9-1 2.4-1.8 3.3-2zm-2.6 5.1c-.2 1.3-.8 1.8-1.2 2.2-.4.5 1.1 3.6.9 1.7.1-1 .6-3 .3-3.9z" fill="#8A6CAF"/><path fill-rule="evenodd" clip-rule="evenodd" d="M57.1 45.3c.1-.3.2-.4.1-.8-.2-.6 0-.8.2-1 .5-.4.4 0 .4.4 0 .3.2.7.2 1.2 0 .4.2.4.3.8.2.5.5 1.3-.1 1.6-.3-.8-.7-1.5-1.1-2.2z" fill="url(#p)"/><path fill-rule="evenodd" clip-rule="evenodd" d="M56.6 47.6c.7 0 1.1 0 1.8-.2.1-.1 0-.4-.1-.5.1-.1.1-.5-.2-.6.2-.1.1-.6-.1-.7.2-.3 0-.7-.4-.7-.8.1-1.4.2-1.5 1-.1.8 0 1.7.5 1.7z" fill="url(#q)"/><path fill-rule="evenodd" clip-rule="evenodd" d="M56.6 52.8c-.1-2.4.1-2.8-.2-5.2.7 0 1.4 0 2-.3.1 2.4.7 3.1.7 4.8.1 2.4-2.3 2.7-2.5.7z" fill="#8A6CAF"/><path fill-rule="evenodd" clip-rule="evenodd" d="M67.3 59.4l-.2.3c-.9.3-1.7.6-2.6.8-1.4-.4-2.5-.8-3.6-1.3 1-.8 1.9-1.6 3-2.3 1.1.8 2.2 1.6 3.4 2.5z" fill="#67498B"/><path fill-rule="evenodd" clip-rule="evenodd" d="M61.8 59.2c-1.7.4-1.7.9-2.9 1.6-2.2 1.5-1.1 1.5 1 1.3 1.3-.1 1.8-.7 2.8-1.6-.3-.4-.6-.8-.9-1.3z" fill="#37254D"/><path fill-rule="evenodd" clip-rule="evenodd" d="M61.5 59.2c.3.5.6 1.1 1 1.6 4.2-1 5.5-1.6 9.5-4.1 1.8-1.1.4-4.4-1.3-3.5-3.7 2.1-5.9 3.6-9.2 6z" fill="#715198"/><path fill-rule="evenodd" clip-rule="evenodd" d="M66 55.6c-.2 0-.3.1-.3.3 0 .2.1.3.3.3.2 0 .3-.1.3-.3 0-.2-.2-.3-.3-.3zm-.1 1c-.2 0-.3.1-.3.3 0 .2.1.3.3.3.2 0 .3-.1.3-.3 0-.2-.1-.3-.3-.3zm-.2-.2c0 .2-.1.3-.3.3-.2 0-.3-.1-.3-.3 0-.2.1-.3.3-.3.2 0 .3.1.3.3zm1 0c0 .2-.1.3-.3.3-.2 0-.3-.1-.3-.3 0-.2.1-.3.3-.3.2 0 .3.2.3.3zm-4.7-.1h.3V56s0-.1.1-.1h.2s.1 0 .1.1v.3h.3s.1 0 .1.1v.2s0 .1-.1.1h-.3v.3s0 .1-.1.1h-.2s-.1 0-.1-.1v-.3H62s-.1 0-.1-.1l.1-.3c-.1 0-.1 0 0 0z" fill="#6C528B"/><path fill-rule="evenodd" clip-rule="evenodd" d="M69.2 56.2c.2.7-.3.6-1.1.7 0-.7-.3-.2-.3-.4 0-.5-.3-.2-.5.1-.2.4-.4.5-.6.3-.2-.2-.1-.2.1-.7.1-.3.3-.7.7-.8.2 0 .4-.1.6-.2 1.2-.7.8-2.1 1.3-3.3.9-.4 2.1-.1 1.9 1-.9 1.2-1.4 2.1-2.1 3.3z" fill="url(#r)"/><path fill-rule="evenodd" clip-rule="evenodd" d="M69.4 57.2H59.1c-.3 0-.5-.3-.7-.6l-.6-1.2c-.2-.3-.2-.6.7-.6H70c.9 0 .9.3.7.6l-.6 1.2c-.2.3-.4.6-.7.6z" fill="#B19ACE"/><path fill-rule="evenodd" clip-rule="evenodd" d="M69.4 57.2H59.1c-.3 0-.6-.3-.6-.6l-.6-6.7c0-.3.3-.6.6-.6H70c.3 0 .7.3.6.6l-.6 6.7c0 .3-.3.6-.6.6z" fill="#C5B0DF"/><path fill-rule="evenodd" clip-rule="evenodd" d="M64.3 54c.4 0 .8-.4.8-.8s-.4-.8-.8-.8-.8.4-.8.8.3.8.8.8z" fill="#EDE2F9"/><defs><linearGradient id="a" x1="47.008" y1="5.967" x2="48.044" y2="5.203" gradientUnits="userSpaceOnUse"><stop stop-color="#F7B9AD"/><stop offset="1" stop-color="#FAD4CC"/></linearGradient><linearGradient id="b" x1="45.346" y1="27.487" x2="45.546" y2="26.943" gradientUnits="userSpaceOnUse"><stop stop-color="#F7B9AD"/><stop offset="1" stop-color="#FAD4CC"/></linearGradient><linearGradient id="c" x1="53.233" y1="20.671" x2="52.948" y2="19.903" gradientUnits="userSpaceOnUse"><stop stop-color="#F7B9AD"/><stop offset="1" stop-color="#FAD4CC"/></linearGradient><linearGradient id="d" x1="38.358" y1="7.932" x2="38.902" y2="6.561" gradientUnits="userSpaceOnUse"><stop stop-color="#F18A77"/><stop offset="1" stop-color="#F6B0A2"/></linearGradient><linearGradient id="e" x1="38.949" y1="5.206" x2="40.977" y2="2.474" gradientUnits="userSpaceOnUse"><stop stop-color="#F7B9AD"/><stop offset="1" stop-color="#FAD4CC"/></linearGradient><linearGradient id="f" x1="43.265" y1="14.63" x2="45.694" y2="14.764" gradientUnits="userSpaceOnUse"><stop stop-color="#F7B9AD"/><stop offset="1" stop-color="#FAD4CC"/></linearGradient><linearGradient id="g" x1="15.178" y1="58.372" x2="15.108" y2="57.71" gradientUnits="userSpaceOnUse"><stop stop-color="#F7B9AD"/><stop offset="1" stop-color="#FAD4CC"/></linearGradient><linearGradient id="h" x1="11.642" y1="57.99" x2="11.576" y2="57.366" gradientUnits="userSpaceOnUse"><stop stop-color="#F7B9AD"/><stop offset="1" stop-color="#FAD4CC"/></linearGradient><linearGradient id="i" x1="12.477" y1="30.979" x2="12.477" y2="27.89" gradientUnits="userSpaceOnUse"><stop stop-color="#F18A77"/><stop offset="1" stop-color="#F6B0A2"/></linearGradient><linearGradient id="j" x1="12.538" y1="27.285" x2="12.537" y2="22.687" gradientUnits="userSpaceOnUse"><stop stop-color="#F7B9AD"/><stop offset="1" stop-color="#FAD4CC"/></linearGradient><linearGradient id="k" x1="5.806" y1="31.663" x2="5.634" y2="30.112" gradientUnits="userSpaceOnUse"><stop stop-color="#F7B9AD"/><stop offset="1" stop-color="#FAD4CC"/></linearGradient><linearGradient id="l" x1="4.475" y1="32.261" x2="5.989" y2="32.096" gradientUnits="userSpaceOnUse"><stop stop-color="#F7B9AD"/><stop offset="1" stop-color="#FAD4CC"/></linearGradient><linearGradient id="m" x1="13.813" y1="35.036" x2="12.499" y2="32.783" gradientUnits="userSpaceOnUse"><stop stop-color="#F7B9AD"/><stop offset="1" stop-color="#FAD4CC"/></linearGradient><linearGradient id="n" x1="64.223" y1="46.425" x2="64.224" y2="44.125" gradientUnits="userSpaceOnUse"><stop stop-color="#F18A77"/><stop offset="1" stop-color="#F6B0A2"/></linearGradient><linearGradient id="o" x1="64.247" y1="43.982" x2="64.248" y2="39.232" gradientUnits="userSpaceOnUse"><stop stop-color="#F7B9AD"/><stop offset="1" stop-color="#FAD4CC"/></linearGradient><linearGradient id="p" x1="57.846" y1="45.713" x2="57.534" y2="43.886" gradientUnits="userSpaceOnUse"><stop stop-color="#F7B9AD"/><stop offset="1" stop-color="#FAD4CC"/></linearGradient><linearGradient id="q" x1="56.32" y1="46.518" x2="58.01" y2="46.231" gradientUnits="userSpaceOnUse"><stop stop-color="#F7B9AD"/><stop offset="1" stop-color="#FAD4CC"/></linearGradient><linearGradient id="r" x1="70.302" y1="52.435" x2="67.841" y2="56.704" gradientUnits="userSpaceOnUse"><stop stop-color="#F7B9AD"/><stop offset="1" stop-color="#FAD4CC"/></linearGradient></defs></svg>