<svg width="26" height="26" viewBox="0 0 26 26" fill="none" xmlns="http://www.w3.org/2000/svg">
<path fill-rule="evenodd" clip-rule="evenodd" d="M13.0017 0C20.1805 0 26 5.81949 26 12.9983C26 20.177 20.1805 25.9965 13.0017 25.9965C5.82296 25.9965 0.00341797 20.177 0.00341797 12.9983C0.00341797 5.81949 5.82296 0 13.0017 0Z" fill="#5F6061"/>
<path fill-rule="evenodd" clip-rule="evenodd" d="M13.0017 8.66565C15.3946 8.66565 17.3344 10.6055 17.3344 12.9983C17.3344 15.3915 15.3946 17.3313 13.0017 17.3313C10.6088 17.3313 8.66892 15.3915 8.66892 12.9983C8.66892 10.6055 10.6088 8.66565 13.0017 8.66565Z" fill="white"/>
<path fill-rule="evenodd" clip-rule="evenodd" d="M25.996 25.9965H0L12.998 12.9983L25.996 25.9965Z" fill="white"/>
</svg>
