<svg width="26" height="26" viewBox="0 0 26 26" fill="none" xmlns="http://www.w3.org/2000/svg">
<path fill-rule="evenodd" clip-rule="evenodd" d="M13.0017 0C20.1805 0 26 5.81949 26 12.9983C26 20.177 20.1805 25.9965 13.0017 25.9965C5.82293 25.9965 0.00338745 20.177 0.00338745 12.9983C0.00338745 5.81949 5.82293 0 13.0017 0Z" fill="white"/>
<path fill-rule="evenodd" clip-rule="evenodd" d="M13.0017 8.66589C15.3946 8.66589 17.3344 10.6057 17.3344 12.9985C17.3344 15.3917 15.3946 17.3315 13.0017 17.3315C10.6088 17.3315 8.66892 15.3917 8.66892 12.9985C8.66892 10.6057 10.6088 8.66589 13.0017 8.66589Z" fill="#0E2D43"/>
<path fill-rule="evenodd" clip-rule="evenodd" d="M25.996 25.9963H0L12.998 12.998L25.996 25.9963Z" fill="#0E2D43"/>
</svg>
