<svg width="218" height="183" viewBox="0 0 218 183" fill="none" xmlns="http://www.w3.org/2000/svg">
<path fill-rule="evenodd" clip-rule="evenodd" d="M216.932 110.512C222.532 -6.17538 43.2666 -29.492 5.85404 35.9896C-5.35523 55.6068 1.95176 77.4917 7.7889 83.8126C38.5743 117.144 2.9208 118.283 2.91226 146.336C2.90094 181.28 211.71 219.28 216.932 110.512Z" fill="white" fill-opacity="0.01"/>
<path fill-rule="evenodd" clip-rule="evenodd" d="M216.932 110.512C222.532 -6.17538 43.2666 -29.492 5.85404 35.9896C-5.35523 55.6068 1.95176 77.4917 7.7889 83.8126C38.5743 117.144 2.9208 118.283 2.91226 146.336C2.90094 181.28 211.71 219.28 216.932 110.512Z" fill="url(#paint0_linear_1221_2)"/>
<path fill-rule="evenodd" clip-rule="evenodd" d="M144.805 35L145 21L54.108 24.0233L54 31.6829L144.805 35Z" fill="url(#paint1_linear_1221_2)"/>
<path fill-rule="evenodd" clip-rule="evenodd" d="M123.734 65.4043L124 50.4043L0.147253 53.6431L0 61.8506L123.734 65.4043Z" fill="url(#paint2_linear_1221_2)"/>
<path fill-rule="evenodd" clip-rule="evenodd" d="M111.389 95.4043L114 80.4043L20.1117 83.6435L20 91.8502L111.389 95.4043Z" fill="url(#paint3_linear_1221_2)"/>
<path fill-rule="evenodd" clip-rule="evenodd" d="M104 110.404L38 113.715L38.0426 121.667L90.6213 124.404L104 110.404Z" fill="url(#paint4_linear_1221_2)"/>
<path fill-rule="evenodd" clip-rule="evenodd" d="M155.765 35.0504L146.86 27.0947L129.135 30.5275L142.446 44.4127L155.765 35.0504Z" fill="#8B6CB0"/>
<path fill-rule="evenodd" clip-rule="evenodd" d="M171.882 18.1925C169.005 7.14006 161.539 3.99598 150.205 8.48849C133.575 36.829 164.682 50.5958 171.882 18.1925Z" fill="white"/>
<path fill-rule="evenodd" clip-rule="evenodd" d="M157.175 36.8836C151.702 33.527 150.177 31.9372 149 30.9516C149.514 26.633 151.453 18.8837 153.261 16.2754C157.079 22.0721 161.925 26.56 167.242 29.7741C171.048 26.928 173.383 18.4664 171.424 13.1946C168.16 4.41086 152.222 -0.667861 144.282 6.17924C139.429 10.364 138.084 26.0865 144.976 31.5841C147.302 33.4405 149.501 37.8481 157.175 36.8836ZM168.03 23.9125C168.347 20.4632 164.871 20.684 161.144 21.1375C162.987 23.9414 167.563 28.982 168.03 23.9125Z" fill="#8B6CB0"/>
<path fill-rule="evenodd" clip-rule="evenodd" d="M126.99 116.64C122.929 119.363 120.203 121.332 117.667 128.701C114.854 136.879 114.262 141.015 108.539 147.462C107.777 148.321 104.277 147.735 103.358 148.747C101.57 150.713 103.669 152.925 104.831 157.667C105.487 160.337 105.28 162.724 107.686 166.912C110.867 172.446 115.792 175.763 114.934 165.465C114.376 158.764 116.822 151.006 120.198 147.64C126.781 141.079 139.406 131.038 140.609 121.332C141.173 116.783 148.351 116.133 143.268 107.924C138.33 99.9515 118.361 87.6484 112.476 87.6484C101.154 94.1667 100.962 90.1456 100.457 102.253C108.456 111.79 113.962 114.433 126.99 116.64Z" fill="#805DAB"/>
<path fill-rule="evenodd" clip-rule="evenodd" d="M153.692 56.7478C155.155 46.7098 150.488 36.8272 138.121 32.5303C128.593 34.2611 115.309 40.0892 105.78 41.82C105.78 42.9018 105.78 43.9831 105.78 45.0649C104.2 55.3232 106.905 64.2666 102.068 72.1718C99.3487 76.6144 96.4278 75.1419 91.0471 82.2165C88.3843 85.7162 89.8107 89.8433 88.1721 91.2633C76.1794 101.654 73.9931 104.625 70.1218 118.034C68.2168 124.631 69.3305 125.655 62.8134 128.775C57.6784 131.233 54.7941 131.662 50.7982 139.091C46.7012 146.708 45.7853 148.459 39.0961 153.899C38.2064 154.623 34.5113 154.42 33.4403 155.27C31.3596 156.922 33.0735 159.445 33.4562 164.312C33.6711 167.052 33.0822 169.375 34.7807 173.895C37.0262 179.869 41.3519 183.936 42.1674 173.635C42.698 166.932 46.3653 159.669 50.2402 156.892C57.7949 151.478 70.3243 144.421 74.4526 138.608C76.4375 135.814 77.3962 134.08 81.4041 131.421C98.4977 120.078 102.161 115.106 105.521 107.875C110.791 96.5345 112.707 97.834 118.677 88.2566C124.647 78.6797 135.293 78.5253 137.534 67.7575C144.353 76.0297 147.671 77.6262 155.397 80.6818C157.625 82.9082 160.25 83.9057 163.031 82.9798C173.236 80.1985 173.001 73.0128 179.668 62.3695C183.032 57.0021 193.751 57.0077 188.643 51.2008C186.377 48.6243 184.073 47.4324 181.505 47.0649C174.831 46.1097 176.068 48.7932 177.038 51.6876C180.124 60.9001 165.78 59.8883 161.975 65.2665C160.079 61.5893 157.536 58.1544 153.692 56.7478Z" fill="#9879BF"/>
<path fill-rule="evenodd" clip-rule="evenodd" d="M104.548 42.7981C107.069 49.6288 121.644 55.3992 127.807 48.8588C128.373 50.4944 128.933 52.2041 129.908 53.6277C134.469 60.289 144.575 59.4007 146.772 51.1125C149.664 40.196 144.695 33.1173 130.842 30.1724C126.455 24.6495 120.305 22.5533 110.888 24.4112C100.609 22.2836 96.0119 21.7797 87.3616 25.7128C84.2295 25.368 80.4488 27.0895 78.8591 29.5496C72.4527 38.3509 77.9014 43.1975 79.2207 56.4208C79.45 58.7327 78.8163 59.3827 76.8521 60.7398C74.3392 62.4753 71.7382 63.8819 77.6532 67.1155C79.9286 68.36 82.4878 68.7856 85.8471 68.081C93.242 66.5319 85.4308 60.2406 86.1124 56.7198C87.3395 50.4249 92.1947 47.0302 91.881 41.8501C95.6616 43.5356 100.669 44.1028 104.548 42.7981Z" fill="#C6B1E0"/>
<defs>
<linearGradient id="paint0_linear_1221_2" x1="224.008" y1="220.328" x2="224.008" y2="-30.6719" gradientUnits="userSpaceOnUse">
<stop stop-color="#123853"/>
<stop offset="1" stop-color="#123853" stop-opacity="0"/>
</linearGradient>
<linearGradient id="paint1_linear_1221_2" x1="143.187" y1="27.4792" x2="60.0033" y2="26.9579" gradientUnits="userSpaceOnUse">
<stop stop-color="#C6B1E0"/>
<stop offset="1" stop-color="#C6B1E0" stop-opacity="0"/>
</linearGradient>
<linearGradient id="paint2_linear_1221_2" x1="121.529" y1="57.3463" x2="8.18303" y2="56.4428" gradientUnits="userSpaceOnUse">
<stop stop-color="#C6B1E0"/>
<stop offset="1" stop-color="#C6B1E0" stop-opacity="0"/>
</linearGradient>
<linearGradient id="paint3_linear_1221_2" x1="112.127" y1="87.3463" x2="26.2009" y2="86.8271" gradientUnits="userSpaceOnUse">
<stop stop-color="#C6B1E0"/>
<stop offset="1" stop-color="#C6B1E0" stop-opacity="0"/>
</linearGradient>
<linearGradient id="paint4_linear_1221_2" x1="102.685" y1="116.884" x2="42.3529" y2="116.609" gradientUnits="userSpaceOnUse">
<stop stop-color="#C6B1E0"/>
<stop offset="1" stop-color="#C6B1E0" stop-opacity="0"/>
</linearGradient>
</defs>
</svg>
