<svg width="40" height="36" viewBox="0 0 40 36" fill="none" xmlns="http://www.w3.org/2000/svg"><path fill-rule="evenodd" clip-rule="evenodd" d="M25.7 1.9C20.5-.4 6.3-.5 9 7.5 13.5 20.8 2.1 19.4.8 26.4c-1.8 9.4 21.1 11.5 32.3 5.3 13.2-7.2 5.3-24.2-7.4-29.8z" fill="#F8F6FB"/><path fill-rule="evenodd" clip-rule="evenodd" d="M3.8 15.7c-.9 0-1.6-.7-1.6-1.6 0-.9.7-1.6 1.6-1.6.9 0 1.6.7 1.6 1.6 0 .9-.7 1.6-1.6 1.6zm-.5.8v.8h1.1v-.8c.3-.1.5-.2.8-.3l.6.6.7-.7-.6-.6c.1-.3.2-.5.3-.8H7v-1.1h-.8c-.1-.3-.2-.5-.3-.8l.6-.6-.7-.7-.6.6c-.2-.1-.5-.3-.8-.3V11H3.3v.8c-.3.1-.5.2-.8.4l-.5-.6-.7.7.6.6c-.1.2-.3.5-.3.8H.7v1.1h.8c.1.3.2.5.3.8l-.6.6.8.6.6-.6c.2.2.4.3.7.3zM20.9 1.4l.8 2.5 2.5.7-2.5.8-.8 2.5-.8-2.5-2.5-.8 2.5-.7.8-2.5zm16.4 18.1c-.2-.2-.1-.5 0-.6.2-.2.5-.1.6 0 .2.2.3.4.4.7.1.2.1.5.1.8 0 .6-.3 1.2-.7 1.6-.4.4-1 .7-1.6.7-.6 0-1.2-.3-1.6-.7-.4-.4-.7-1-.7-1.6 0-.3.1-.6.2-.8.1-.3.3-.5.4-.7.2-.2.4-.2.6 0 .2.2.2.4 0 .6-.1.1-.2.3-.3.4-.1.2-.1.3-.1.5 0 .4.2.7.4 1 .3.3.6.4 1 .4s.7-.2 1-.4c.3-.3.4-.6.4-1 0-.2 0-.3-.1-.5.2-.1.2-.3 0-.4zm-1.4-1.2v1.8c0 .2.2.4.4.4s.4-.2.4-.4v-1.8c0-.2-.2-.4-.4-.4s-.4.2-.4.4z" fill="#EDE2F9"/><path fill-rule="evenodd" clip-rule="evenodd" d="M10.6 31.8c-.2-.2-.5-.2-.7 0-.2.2-.2.5 0 .7.5.5 1.1.9 1.8 1.2.7.3 1.5.4 2.3.4.8 0 1.7-.2 2.4-.4.7-.3 1.4-.7 1.9-1.3.2-.2.2-.5 0-.7-.2-.2-.5-.2-.7 0-.4.4-.9.8-1.5 1-.6.2-1.3.4-2 .4s-1.4-.1-2-.4c-.6-.2-1.1-.5-1.5-.9zm1.2-1.4c.2.3.6.5.9.7.4.2.8.2 1.3.2s.9-.1 1.3-.3c.4-.2.7-.4.9-.7.2-.2.5-.2.7-.1.2.2.2.5.1.7-.3.4-.8.7-1.3.9-.5.2-1.1.3-1.7.3-.6 0-1.2-.1-1.6-.3-.5-.2-1-.5-1.3-.9-.2-.2-.2-.5 0-.7.3-.1.6-.1.7.2zm1.3-1.5c-.2-.2-.5-.3-.7-.1-.2.2-.3.5-.1.7.2.3.5.5.8.6.3.1.6.2 1 .2s.7-.1 1-.2c.3-.2.6-.4.8-.6.2-.2.1-.5-.1-.7-.2-.2-.5-.1-.7.1-.1.1-.2.3-.4.3-.2.1-.4.1-.6.1-.2 0-.4 0-.6-.1-.2 0-.3-.1-.4-.3zm3.8-15.2c2.8 1.6 7.3 7.8 4.6 12.1-.1.2-.5.3-.7.1-.8-.7-2.5-2.2-3.7-2.2 1.1-3.5.3-6.9-.2-10zm-5.6 0C8.4 15.4 4 21.5 6.7 25.8c.1.2.5.3.7.1.8-.7 2.5-2.2 3.7-2.2-1.2-3.5-.3-6.9.2-10z" fill="#C5B0DF"/><path fill-rule="evenodd" clip-rule="evenodd" d="M15.5 27.7h-2.9l-.6-4.3h4.1l-.6 4.3z" fill="#634686"/><path fill-rule="evenodd" clip-rule="evenodd" d="M12.6 27.7h-1.2c-.3 0-.5-.2-.4-.5l1-3.9h.9l-.3 4.4z" fill="#6E4E93"/><path fill-rule="evenodd" clip-rule="evenodd" d="M16.7 27.7h-1.2l-.2-4.4h.9l1 3.9c0 .3-.2.5-.5.5z" fill="#583D7A"/><path fill-rule="evenodd" clip-rule="evenodd" d="M17.3 7c2.5 7.7.7 14.2.7 14.1h-7.9c-.9-4.7-.9-9.4.7-14.1h6.5z" fill="#8A6CAF"/><path fill-rule="evenodd" clip-rule="evenodd" d="M18 21.1c-.1.8-.3 1.6-.5 2.4-.1.2-.3.4-.5.4h-5.9c-.2 0-.4-.2-.5-.4-.2-.8-.4-1.6-.5-2.4H18zM14.9 1.7c1 1.8 1.8 3.6 2.4 5.4h-6.5c.6-1.8 1.4-3.6 2.4-5.4.4-.7 1.3-.7 1.7 0z" fill="#715198"/><path fill-rule="evenodd" clip-rule="evenodd" d="M14.1 19.6c-.7 0-1.3-.6-1.3-1.3 0-.7.6-1.2 1.3-1.2.7 0 1.2.6 1.2 1.2 0 .7-.5 1.3-1.2 1.3zm0-8.4c-.7 0-1.3-.6-1.3-1.2 0-.7.6-1.3 1.3-1.3.7 0 1.2.6 1.2 1.3 0 .6-.5 1.2-1.2 1.2zm0 4.2c-.7 0-1.3-.6-1.3-1.2 0-.7.6-1.3 1.3-1.3.7 0 1.2.6 1.2 1.3 0 .6-.5 1.2-1.2 1.2z" fill="#fff"/><path fill-rule="evenodd" clip-rule="evenodd" d="M30.6 10.4l-.1.8-1.1 1-1.2-1-.1-.8.5-.2v-.7H30v.8l.6.1z" fill="url(#a)"/><path fill-rule="evenodd" clip-rule="evenodd" d="M29.3 10.1c-.9 0-1.7-1-1.7-2.3 0-1.3-.5-2.5 1.7-2.4 2.2.2 1.7 1.1 1.7 2.4 0 1.3-.8 2.3-1.7 2.3z" fill="url(#b)"/><path fill-rule="evenodd" clip-rule="evenodd" d="M27.8 5.9c-.2.6-.2 1-.2 1.7-.4-.6-.6-.9-.6-1.6 0-1.2.2-1.6 1-1.5.8.1.5-.4 1.4-.5.9-.1.5.5 1.6.4.7-.1 1.3 1 .5 2.1-.2.1-.2.5-.5 1.1 0-1-.1-1.5-.3-1.7-.9.4-2 .4-2.9 0z" fill="#37254D"/><path fill-rule="evenodd" clip-rule="evenodd" d="M30.1 8.5c-.2 0-.3-.1-.5-.2-.1-.1-.2-.2-.2-.4h-.3c0 .1-.1.3-.2.4-.1.1-.3.2-.5.2s-.3-.1-.5-.2c-.1-.1-.2-.3-.2-.5v-.1l-.3-.1v-.1l.3.1c0-.1.1-.2.2-.3.1-.1.3-.2.5-.2s.3.1.5.2c.1.1.2.2.2.4h.3c0-.1.1-.3.2-.4.1-.1.3-.2.5-.2s.3.1.5.2c.1.1.1.2.2.3l.2-.1v.1l-.3.1v.1c0 .2-.1.3-.2.5-.1.1-.3.2-.4.2zm-1.2-.3c.1-.1.1-.2.1-.4s0-.3-.1-.3c-.1-.1-.2-.1-.4-.1-.1 0-.3.1-.4.1 0 0-.1.2-.1.3 0 .1.1.3.1.4 0 .1.2.1.4.1s.3 0 .4-.1zm.8 0c.1.1.2.1.4.1s.3-.1.4-.1c.1-.1.1-.2.1-.4s-.1-.3-.1-.4c-.1-.1-.2-.1-.4-.1s-.3.1-.4.1c-.1.1-.1.2-.1.4s0 .3.1.4z" fill="#37254D"/><path fill-rule="evenodd" clip-rule="evenodd" d="M31.8 31.8l-.2-.8-.9.1.2.8s.8-.1.9-.1z" fill="url(#c)"/><path fill-rule="evenodd" clip-rule="evenodd" d="M29.2 31.5l-.2-.8-.9.1.2.8c.1 0 .9-.1.9-.1z" fill="url(#d)"/><path fill-rule="evenodd" clip-rule="evenodd" d="M31.7 31.6c-.5.2-.9 0-1.1.1-.5.4-.6.5-1.2.6-.6.1-.9.6-.2.6 1.3 0 2.4 0 2.7-.1.2-.1.5-1-.2-1.2z" fill="#37254D"/><path fill-rule="evenodd" clip-rule="evenodd" d="M29.2 31.3c-.4.2-.8 0-1 .1-.5.4-.6.5-1.1.6-.5.1-.9.5-.2.5 1.2 0 2.2 0 2.6-.1.1-.1.3-.9-.3-1.1z" fill="#37254D"/><path fill-rule="evenodd" clip-rule="evenodd" d="M29.4 30.8c-.3.2-1.2.5-1.5.2-.9-6.1-.8-8-1.1-12.6.5 0 1.4 0 2.5-.1-.2 2.9-.7 5.2.1 12.5z" fill="#56A9BE"/><path fill-rule="evenodd" clip-rule="evenodd" d="M32 31c-.5.2-1.2.5-1.8.3-1-6.2-.9-7.8-1.3-12.6.6 0 1.6-.4 2.9-.5-.1 3.1-.6 5.4.2 12.8z" fill="#4998AC"/><path fill-rule="evenodd" clip-rule="evenodd" d="M23.7 11.7c.1-.2.2-.2.1-.5s0-.5.1-.6c.3-.2.2 0 .2.2s.1.4.1.7c0 .2.1.3.2.5.1.3.2.8-.1 1-.2-.5-.4-.9-.6-1.3z" fill="url(#e)"/><path fill-rule="evenodd" clip-rule="evenodd" d="M23.3 13h1.1c.1-.1 0-.3-.1-.3.1-.1.1-.3-.1-.3.1-.1.1-.3-.1-.4.1-.2 0-.4-.2-.4-.5 0-.8.1-.9.5-.1.4 0 .9.3.9z" fill="url(#f)"/><path fill-rule="evenodd" clip-rule="evenodd" d="M28.1 10.4c-1.4.5-2.5 1.1-3.1 3.8-.2-.2-.5-1-.6-1.3-.3.1-.8.1-1.2.1.6 3.1 1.8 4.3 2.8 3.4.1-.1.4-.5.7-1.1-.1.6-.3 1.6 0 3.1.9.9 3.7.9 4.9 0 .3-.2.8.2.9.1.4-1.8.6-3.3.4-4.7-.2-1.5-.8-3.2-2.5-3.4-.5 1.2-1.8 1.2-2.3 0z" fill="#5983B1"/><path fill-rule="evenodd" clip-rule="evenodd" d="M32.3 19.5c.1.2.1.9 0 1.3s-.8 1.1-.9.3v-.5c-.1.1-.2.1-.2 0V20c0-.1 0-.3.2-.5.1-.1 0-.5.1-.6.1-.1.5-.1.7 0 .1.1-.1.5.1.6z" fill="url(#g)"/><path fill-rule="evenodd" clip-rule="evenodd" d="M31.2 19.2c.4.1.8.1 1.3.1.2-.6.4-2.5.5-3.2.1-1.7-1.3-1.6-1.5-.1-.1.6-.2 2.3-.3 3.2z" fill="#5983B1"/><path fill-rule="evenodd" clip-rule="evenodd" d="M31.2 12.7c-.1 1 0 1.7.1 2 .2.9-.1 2.3.1 3.4.1-1.8.4-2.5.2-3.5-.2-.3-.4-.9-.4-1.9z" fill="#456F9B"/><path fill-rule="evenodd" clip-rule="evenodd" d="M26.5 10.4c-.6-.7-1-2.3-1-3.3 0-2.2 1.8-4.1 4-4.1s4 1.9 4 4.1c0 1-.4 2.6-1 3.3h-6zm-.4-3.1c0 1.3.7 2.9 2.1 2.9h2.6c1.4 0 2.1-1.6 2.1-2.9 0-5-6.8-5-6.8 0z" fill="#715198"/><path fill-rule="evenodd" clip-rule="evenodd" d="M26.9 10.8h5.2c.2 0 .3.1.3.3 0 .2-.1.3-.3.3h-5.2c-.2 0-.3-.1-.3-.3 0-.2.1-.3.3-.3z" fill="#594078"/><path fill-rule="evenodd" clip-rule="evenodd" d="M26.5 10.4h6c.2 0 .3.1.3.3 0 .2-.1.3-.3.3h-6c-.2 0-.3-.1-.3-.3 0-.2.1-.3.3-.3z" fill="#715198"/><defs><linearGradient id="a" x1="29.328" y1="12.025" x2="29.328" y2="10.047" gradientUnits="userSpaceOnUse"><stop stop-color="#F18A77"/><stop offset="1" stop-color="#F6B0A2"/></linearGradient><linearGradient id="b" x1="29.317" y1="9.868" x2="29.318" y2="6.339" gradientUnits="userSpaceOnUse"><stop stop-color="#F7B9AD"/><stop offset="1" stop-color="#FAD4CC"/></linearGradient><linearGradient id="c" x1="31.25" y1="31.68" x2="31.2" y2="31.21" gradientUnits="userSpaceOnUse"><stop stop-color="#F7B9AD"/><stop offset="1" stop-color="#FAD4CC"/></linearGradient><linearGradient id="d" x1="28.736" y1="31.409" x2="28.689" y2="30.965" gradientUnits="userSpaceOnUse"><stop stop-color="#F7B9AD"/><stop offset="1" stop-color="#FAD4CC"/></linearGradient><linearGradient id="e" x1="24.082" y1="11.935" x2="23.96" y2="10.832" gradientUnits="userSpaceOnUse"><stop stop-color="#F7B9AD"/><stop offset="1" stop-color="#FAD4CC"/></linearGradient><linearGradient id="f" x1="23.137" y1="12.36" x2="24.212" y2="12.242" gradientUnits="userSpaceOnUse"><stop stop-color="#F7B9AD"/><stop offset="1" stop-color="#FAD4CC"/></linearGradient><linearGradient id="g" x1="32.042" y1="18.864" x2="31.719" y2="20.636" gradientUnits="userSpaceOnUse"><stop stop-color="#F7B9AD"/><stop offset="1" stop-color="#FAD4CC"/></linearGradient></defs></svg>