<svg width="37" height="34" viewBox="0 0 37 34" fill="none" xmlns="http://www.w3.org/2000/svg"><path fill-rule="evenodd" clip-rule="evenodd" d="M17.7 2C9.5.8 1.2 2.3 3 7.5 5.8 17.6 1.8 19.1.6 25.3-1.1 33.6 20 35.4 30.4 30c13.8-7.3 2.4-25.8-12.7-28z" fill="#F8F6FB"/><path fill-rule="evenodd" clip-rule="evenodd" d="M28 3.7c.7-.5.2-1.8-1.1-1.7l-.1-.9-.5.1.1.8c-.1 0-.3 0-.4.1l-.1-.9-.5.1.1.9c-.2 0-.4.1-1.1.2V3c.4-.1.6-.1.7.1l.4 2.4c0 .2-.2.2-.6.3v.6c1-.2 1.1-.2 1.1-.2l.1.7.5-.1-.1-.7c.1 0 .3 0 .4-.1l.1.7.5-.1-.1-.7c2-.2 1.6-2.1.6-2.2zm-1.9-.9c.3 0 1.2-.3 1.3.3.1.6-.9.7-1.2.7l-.1-1zm.2 1.6c.4-.1 1.4-.3 1.5.3.1.7-1 .8-1.4.8l-.1-1.1zM13.8 2.3L19.1.7c.2-.1.4.1.5.3l.9 3c.1.2-.1.4-.3.5l-5.3 1.6c-.2.1-.4-.1-.5-.3l-.9-3.1c-.1-.1.1-.3.3-.4z" fill="#EDE2F9"/><path fill-rule="evenodd" clip-rule="evenodd" d="M17.3 1.9l1.7-.5c.1 0 .1 0 .2.1l.3 1c0 .1 0 .1-.1.2l-1.7.5c-.1 0-.1 0-.2-.1l-.3-1c-.1-.2 0-.2.1-.2zm-2.4 2.9l4.6-1.4c.1 0 .1-.1.1-.2s-.1-.2-.2-.1l-4.6 1.4c-.1 0-.1.1-.1.2s.1.1.2.1zm2.3.1c-.1 0-.2 0-.2-.1s0-.2.1-.2l2.5-.8c.1 0 .2 0 .2.1s0 .2-.1.2l-2.5.8zm-2.1.6c-.1 0-.2 0-.2-.1s0-.2.1-.2l1.2-.3c.1 0 .2 0 .2.1s0 .2-.1.2l-1.2.3z" fill="#fff"/><path d="M15.52 2.434l-.574.173.317 1.053.575-.173-.318-1.053z" fill="#D9C0F4"/><path fill-rule="evenodd" clip-rule="evenodd" d="M15.1 3.2c-.1-.2 0-.4.1-.6-.4-.1-.8 0-.9.4-.1.4 0 .8.4.9.3.1.6 0 .8-.2-.2-.2-.3-.3-.4-.5z" fill="#DCC6F4"/><path fill-rule="evenodd" clip-rule="evenodd" d="M16.5 2.8c.1.4-.1.7-.5.9h-.5c.2-.3.1-.7-.2-1l-.1-.1c.2-.3.6-.4 1-.2.1.1.2.2.3.4z" fill="#E1CFF4"/><path fill-rule="evenodd" clip-rule="evenodd" d="M33.3 12.7l3 2.9c.1.1.1.2.1.2 0 .1 0 .2-.1.2l-1.6 1.6c-.1.1-.2.1-.2.1-.1 0-.2 0-.2-.1l-3-2.9c-.1-.1-.1-.2-.1-.2 0-.1 0-.2.1-.2l1.6-1.6c.1-.1.2-.1.2-.1.1 0 .2 0 .2.1zm-.2 3.2c.4.4 1 .4 1.3 0 .4-.4.4-1 0-1.3-.4-.4-1-.4-1.3 0-.3.3-.3.9 0 1.3zm-.3-2.4l-.1-.1-.7.7.1.1c.2.2.2.5 0 .6 0 0-.1.1-.2.1l2.2 2.1c0-.1.1-.1.1-.2.2-.2.5-.2.6 0l.1.1.7-.7-.1-.1c-.2-.2-.2-.5 0-.6 0 0 .1-.1.2-.1l-2.2-2.1c0 .1-.1.1-.1.2-.2.2-.5.2-.6 0zm-30.1 10l-1.9-.7L2 19.7l2.2 2.5-1.5 1.3zm.4 1.8l1.2-2.7-1.5 1.3-1.9-.7 2.2 2.1z" fill="#EDE2F9"/><path fill-rule="evenodd" clip-rule="evenodd" d="M17 11.9c.3 0 .9-.3 1.2-.7.3-.3.6-1.4-.2-1-.1.1-.3.2-.5.3.1-.1 0-.2-.2-.2-.1 0-.4.2-.6.3-.1.1-.2.2-.3.4 0 .2-.4.3-.5.4 0 .2.2.5.4.7.2.1.5-.3.7-.2z" fill="url(#a)"/><path fill-rule="evenodd" clip-rule="evenodd" d="M16.1 11c.3.3.6.7.7 1.2-.6.5-2.2 1.7-2.8 2.1-1.5 1-2.3-.7-1-1.6.7-.4 2.2-1.1 3.1-1.7z" fill="#56A9BE"/><path fill-rule="evenodd" clip-rule="evenodd" d="M6.2 32l.3-1 1 .2-.2.8H6.2z" fill="url(#b)"/><path fill-rule="evenodd" clip-rule="evenodd" d="M9.1 31.6l.2-.9 1 .1-.2.9s-.9-.1-1-.1z" fill="url(#c)"/><path fill-rule="evenodd" clip-rule="evenodd" d="M6.2 31.7c.5.3 1 0 1.3.1.6.5.7.6 1.4.7.6.1 1 .7.3.6-1.5 0-2.7 0-3.1-.1-.3-.1-.6-1.1.1-1.3zm2.9-.3c.5.2 1 0 1.2.1.5.5.7.6 1.3.6.6.1 1 .6.2.6-1.4 0-2.5 0-2.9-.1-.2-.1-.4-1 .2-1.2z" fill="#37254D"/><path fill-rule="evenodd" clip-rule="evenodd" d="M9 30.7c.4.2 1.3.5 1.7.2 1-6.9.9-9.1 1.2-14.4-.6 0-1.6 0-2.8-.2.1 3.6.7 6.2-.1 14.4z" fill="#5983B1"/><path fill-rule="evenodd" clip-rule="evenodd" d="M5.9 31.1c.5.2 1.4.5 2.1.3 1.1-7.1 1-8.9 1.4-14.3-.7 0-1.8-.2-3.3-.4.2 3.5.8 5.9-.2 14.4z" fill="#4B75A2"/><path fill-rule="evenodd" clip-rule="evenodd" d="M11.2 8.6c.1.1-.6-.5-.8-.5-.9-.1-2-.1-2.8.2-1.8.7-2.4.4-1.3-1.4.5-.8 0-1.6-.2-2.5-.6-2 .6-3.9 2.7-3.9 1.4 0 3.7.8 2.9 3.5-.4 1.2-.6 2-.4 2.6.7 1.7-.8.9-.1 2z" fill="#37254D"/><path fill-rule="evenodd" clip-rule="evenodd" d="M7.6 7.5l.5 1.4.7.9 1.2-1 .4-1.3-.9-.2v-.8h-1v.8l-.9.2z" fill="url(#d)"/><path fill-rule="evenodd" clip-rule="evenodd" d="M10.7 3.1c-1-1.4-2.2-1.6-3.6-.3-.7 5.2 4.5 5.7 3.6.3z" fill="url(#e)"/><path fill-rule="evenodd" clip-rule="evenodd" d="M11 3.9c-1.3-1.4-3.5.5-3.4-1.1-.4.5-.7 1.4-.6 2.5-.3-.6-.4-.9-.3-1.7.1-1.5.9-2 1.8-2.1 2.2-.2 2.7 1 2.5 2.4z" fill="#37254D"/><path fill-rule="evenodd" clip-rule="evenodd" d="M10.4 7.5c2.2 1.1 2.7 2.5 3.5 5.7.3 1.3-.9 1.9-1.4 1.2-.3-.4-.6-1-.8-2.1-.4 1.5.3 1.8.3 4.3-1.2 1.1-4.5 1.1-5.9.1C5 13.8 4.6 14.3 5 10.2c.1-1.1 1-2.4 2.6-2.7l1.2 1.8c.5-.6 1.1-1.2 1.6-1.8z" fill="#56A9BE"/><path fill-rule="evenodd" clip-rule="evenodd" d="M5.5 17.8c-.2.3-.1 1 0 1.5s1 1.2 1 .4v-.6c.1.1.2.1.3 0v-.7c0-.2 0-.3-.2-.5-.2-.1 0-.5-.1-.6-.1-.1-.6-.1-.8 0-.3-.1-.1.3-.2.5z" fill="url(#f)"/><path fill-rule="evenodd" clip-rule="evenodd" d="M6.7 17.4c-.4.2-.9.2-1.3.1-.2-.8-.5-3.2-.5-4.1-.2-2.2 1.4-2.1 1.6-.2 0 .9.1 3.1.2 4.2z" fill="#56A9BE"/><path fill-rule="evenodd" clip-rule="evenodd" d="M6.8 10c.2 1.1 0 1.9-.1 2.3-.2 1 .1 2.6-.1 4-.1-2.1-.5-2.8-.2-4 .1-.5.4-1.2.4-2.3z" fill="#4998AC"/><path fill-rule="evenodd" clip-rule="evenodd" d="M18.9 12.4c-1 0-1.8-.8-1.8-1.8s.8-1.8 1.8-1.8 1.8.8 1.8 1.8-.8 1.8-1.8 1.8z" fill="#8A6CAF"/><path fill-rule="evenodd" clip-rule="evenodd" d="M19.2 10.3c0-.1.1-.1.1-.2s0-.2-.1-.2c-.1-.1-.2-.1-.3-.1h-.2c-.1 0-.1.1-.1.1l-.2-.1.2-.2c.1 0 .2-.1.3-.1.2 0 .3.1.4.2.1.1.2.2.2.4v.2h.2v.2h-.3c-.1.1-.1.1-.2.1h.5v.2h-.9c0 .1-.1.1-.1.2s0 .2.1.2c.1.1.2.1.3.1h.2c.1 0 .1-.1.1-.1l.2.1-.2.2c-.1 0-.2.1-.3.1-.2 0-.3-.1-.4-.2-.1-.1-.2-.2-.2-.4v-.2h-.2v-.2h.3c.1-.1.1-.1.2-.1h-.4v-.2h.8z" fill="#EDE2F9"/><path fill-rule="evenodd" clip-rule="evenodd" d="M30 33H16.1c-.7 0-1.4-.6-1.4-1.4v-9.5c0-.7.6-1.4 1.4-1.4H30c.7 0 1.4.6 1.4 1.4v9.5c-.1.7-.7 1.4-1.4 1.4z" fill="#7F62A2"/><path d="M31.3 28H14.7v2.5h16.6V28z" fill="#7F62A2"/><path fill-rule="evenodd" clip-rule="evenodd" d="M30 33H16.1c-.7 0-1.4-.6-1.4-1.4v-1.1h16.6v1.1c0 .7-.6 1.4-1.3 1.4z" fill="#7F62A2"/><path fill-rule="evenodd" clip-rule="evenodd" d="M28.2 33h-1.6V20.8h1.6V33zm-8.7 0h-1.6V20.8h1.6V33z" fill="#AD91D0"/><path fill-rule="evenodd" clip-rule="evenodd" d="M14.7 25.7v-3.5c0-.7.6-1.4 1.4-1.4H30c.7 0 1.4.6 1.4 1.4v3.5H14.7z" fill="#9070B9"/><path d="M31.3 23.2H14.7v2.5h16.6v-2.5z" fill="#9070B9"/><path d="M28.2 20.8h-1.6v4.9h1.6v-4.9zm-8.7 0h-1.6v4.9h1.6v-4.9z" fill="#C5B0DF"/><path fill-rule="evenodd" clip-rule="evenodd" d="M24 27.5h-1.9c-.4 0-.7-.3-.7-.7v-1.9c0-.4.3-.7.7-.7H24c.4 0 .7.3.7.7v1.9c0 .3-.3.7-.7.7z" fill="#6A5089"/><path fill-rule="evenodd" clip-rule="evenodd" d="M22.8 25.8c-.1-.1-.2-.2-.2-.4 0-.3.2-.5.5-.5s.5.2.5.5c0 .2-.1.3-.2.4l.2.8h-.8v-.8z" fill="#EDE2F9"/><path fill-rule="evenodd" clip-rule="evenodd" d="M20.2 25.7c0 .4-.2.8-.4 1.1-.3.3-.7.4-1.1.4-.4 0-.8-.2-1.1-.4-.3-.3-.4-.7-.4-1.1h.7c0 .2.1.4.2.6.1.1.4.2.6.2.2 0 .4-.1.6-.2.2-.2.2-.4.2-.6h.7zm8.7 0c0 .4-.2.8-.4 1.1-.3.3-.7.4-1.1.4-.4 0-.8-.2-1.1-.4-.3-.3-.4-.7-.4-1.1h.7c0 .2.1.4.2.6.1.1.4.2.6.2.2 0 .4-.1.6-.2.2-.2.2-.4.2-.6h.7z" fill="#6A5089"/><path fill-rule="evenodd" clip-rule="evenodd" d="M21.3 15.3s-.9-.5-1.5-1c-.5-.4-.8-.7-.3-.7.2 0 .5.1.7.2-.2-.1-.8-.5-1.3-.9-.6-.4-.7-.9-.1-.7.5.1.4 0 .9.3 0 0-.5-.3-1.2-.9-.8-.6-1.2-1.2.1-.7 2.3.8 5.3 1.8 6.8 3.3 1.4 1.4 1.8 2.6-1.3 2.7-.8 0-2-.2-2.8-.7-.7-.5-1.2-1.2 0-.9zm4-5.3l.9-.9c.3-.3.6-.5.7-.2 0 .1-.1.3-.1.4.1-.1.4-.5.8-.8.4-.3.8-.5.7-.1-.1.3 0 .2-.2.5 0 0 .3-.3.9-.7.6-.5 1.1-.8.7 0-.6 1.3-1.5 3-2.8 3.9-1.3.9-2.5 1.2-2.7-.3-.1-.4.1-1 .5-1.5.2-.6.8-.9.6-.3z" fill="#4B729B"/><path fill-rule="evenodd" clip-rule="evenodd" d="M25.3 20.8c-.4 0-.3-.6.1-.5.3 0 .5 0 .8.1.1-.2.3-.4.3-.7 0-.1.2-.2.3-.2.1 0 .2.2.2.3 0 .2-.1.4-.3.6.2 0 .4 0 .6.1.4 0 .3.6-.1.5-.3-.1-.6-.1-.9-.1-.1.2-.3.4-.5.5-.3.3-.6-.1-.4-.4.1-.1.2-.1.2-.2h-.3z" fill="#1F4063"/><path fill-rule="evenodd" clip-rule="evenodd" d="M26.9 21.7c-.4 0-.3-.6.1-.5.3 0 .5 0 .8.1.1-.2.3-.4.3-.7 0-.1.2-.2.3-.2.1 0 .2.2.2.3 0 .2-.1.4-.3.6.2 0 .4 0 .6.1.4 0 .3.6-.1.5-.3-.1-.6-.1-.9-.1-.1.2-.3.4-.5.5-.3.3-.6-.1-.4-.4.1-.1.2-.1.2-.2h-.3z" fill="#1F4063"/><path fill-rule="evenodd" clip-rule="evenodd" d="M26.7 20.2c-.2 0-.4-.3-.3-.7.1-.3.3-.5.5-.5s.4.3.3.7c0 .3-.2.6-.5.5zm1.6.9c-.2 0-.4-.3-.3-.7.1-.3.3-.5.5-.5s.4.3.3.7c-.1.4-.3.6-.5.5z" fill="#4B729B"/><path fill-rule="evenodd" clip-rule="evenodd" d="M24.6 12.9c-1.5-1.7 0-2.5 1.4-2.4 1.6.2 2.3 1.2 2.9 2.8 1.5 3.5 3.1 5.9 5.4 8.4 1.6 1.8 1.1 1.9-.9.3-1-.8-1.7-1.7-2.4-2.6-1.1.3-1.9.8-3 1.1-2.7-1.3-4-3.2-3-5.9-.1-.7-.2-1-.4-1.7z" fill="#5983B1"/><path fill-rule="evenodd" clip-rule="evenodd" d="M24.6 12.9c-.1-.1-.2-.3-.3-.4.1-.7.4-.8.8-.6.4-.6 1.3-.8 2-.3.8.6.9 2-.3 2.4.5 1.2-.5 1.6-1.9 1 0-.1.1-.2.1-.4-.1-.7-.2-1-.4-1.7z" fill="#F8F6FB"/><path fill-rule="evenodd" clip-rule="evenodd" d="M24.1 14.7c1.6.1 1.8-.5 1.1-1.4-.1.5-.3.8-1.1 1.4z" fill="#1F4063"/><path fill-rule="evenodd" clip-rule="evenodd" d="M25.2 13.4c-.3-.6-.6-1-1.4-.8-.8.3-1.5 2.1-.5 4 .3-2.7 1.4-1.2 1.9-3.2z" fill="#2A4E75"/><path fill-rule="evenodd" clip-rule="evenodd" d="M26 13.4c-.4-.1-.7-.5-.6-.9.1-.4.5-.7.9-.6.4.1.7.5.6.9-.1.4-.5.7-.9.6z" fill="#C1D6EC"/><path fill-rule="evenodd" clip-rule="evenodd" d="M26 13.2c-.3 0-.4-.3-.4-.6s.3-.4.6-.4.4.3.4.6c-.1.2-.3.4-.6.4z" fill="#1F4063"/><path fill-rule="evenodd" clip-rule="evenodd" d="M28.8 20.5s.7.7 1.3 1.2c.5.4.9.6.7.1-.1-.2-.2-.5-.3-.7.1.1.7.7 1.2 1.1.6.4 1.1.5.7-.1-.3-.4-.6-.9-1-1.3 0 0 1 .9 1.7 1.5.8.6 1.4.9.7-.3-1.3-2.1-3-4.8-4.7-5.8-1.7-1-2.9-1.1-2.3 1.9.2.8.7 1.8 1.3 2.5.5.6 1.3 1 .7-.1z" fill="#4B729B"/><path fill-rule="evenodd" clip-rule="evenodd" d="M26.3 12.8c-.1 0-.2-.2-.2-.3 0-.1.2-.2.3-.2.1 0 .2.2.2.3-.1.1-.2.2-.3.2z" fill="#fff"/><defs><linearGradient id="a" x1="16.369" y1="11.853" x2="17.825" y2="10.697" gradientUnits="userSpaceOnUse"><stop stop-color="#F7B9AD"/><stop offset="1" stop-color="#FAD4CC"/></linearGradient><linearGradient id="b" x1="6.801" y1="31.799" x2="6.857" y2="31.264" gradientUnits="userSpaceOnUse"><stop stop-color="#F7B9AD"/><stop offset="1" stop-color="#FAD4CC"/></linearGradient><linearGradient id="c" x1="9.661" y1="31.49" x2="9.714" y2="30.985" gradientUnits="userSpaceOnUse"><stop stop-color="#F7B9AD"/><stop offset="1" stop-color="#FAD4CC"/></linearGradient><linearGradient id="d" x1="8.986" y1="9.639" x2="8.985" y2="7.141" gradientUnits="userSpaceOnUse"><stop stop-color="#F18A77"/><stop offset="1" stop-color="#F6B0A2"/></linearGradient><linearGradient id="e" x1="8.936" y1="6.652" x2="8.936" y2="2.932" gradientUnits="userSpaceOnUse"><stop stop-color="#F7B9AD"/><stop offset="1" stop-color="#FAD4CC"/></linearGradient><linearGradient id="f" x1="5.765" y1="17.056" x2="6.136" y2="19.092" gradientUnits="userSpaceOnUse"><stop stop-color="#F7B9AD"/><stop offset="1" stop-color="#FAD4CC"/></linearGradient></defs></svg>