<svg width="380" height="329" viewBox="0 0 380 329" fill="none" xmlns="http://www.w3.org/2000/svg"><path fill-rule="evenodd" clip-rule="evenodd" d="M367.176 244.873C429.285 1.003 106.865-63.847 46.582 66.765c-20.094 42.929-10.96 84.944 10.96 125.132 11.874 21.008 48.409 17.354 54.803 65.763 12.787 96.818 227.43 96.818 254.831-12.787z" fill="#F8F6FB"/><path fill-rule="evenodd" clip-rule="evenodd" d="M28.314 88.686c-2.74-2.74-4.566-4.567-5.48-7.307-.913-1.827-.913-3.654-.913-6.394v-5.48c0-1.827-.913-2.74-1.827-3.653-2.74-2.74-5.48-3.654-7.307-.914-.913.913-1.827 1.827-1.827 3.654 0 1.826.914 2.74 1.827 4.566l-9.134 8.22C.913 77.726 0 74.073 0 69.506c0-3.653 2.74-8.22 6.394-11.874 3.653-3.653 7.307-5.48 10.96-5.48 3.654 0 7.307.913 10.96 4.567 1.827.913 2.74 2.74 2.74 4.567.914 1.826.914 3.653.914 6.393v5.48c0 1.827 0 2.74.913 4.567.914.914 1.827 2.74 2.74 3.654l-7.307 7.307zm6.394 9.133c-.913-.913-1.827-2.74-1.827-4.566 0-1.827.914-3.654 1.827-4.567 1.827-.914 2.74-1.827 4.567-1.827s3.654.913 4.567 1.827c.913.913 1.827 2.74 1.827 4.567 0 1.826-.914 3.653-1.827 4.567-1.827.913-2.74 1.826-4.567 1.826s-3.654-.913-4.567-1.826zm314.2 83.118c.914-3.654 1.827-6.394 3.654-9.134 1.827-1.827 3.653-3.654 5.48-4.567 2.74-.913 4.567-2.74 5.48-3.653.914-.914 1.827-2.74 2.74-4.567.914-3.654 0-6.394-3.653-7.307-1.827 0-2.74 0-4.567.913-.913.914-1.827 2.74-2.74 4.567l-13.701-2.74c.914-5.48 3.654-9.134 8.221-10.961 3.653-1.826 9.133-2.74 14.614-.913 5.48.913 10.047 3.654 12.787 7.307 2.74 3.654 3.653 7.307 1.827 12.787l-2.741 5.48c-.913 1.827-2.74 2.741-5.48 4.567l-5.48 2.74c-1.827.914-2.74 1.827-3.653 2.741-.914.913-1.827 2.74-1.827 4.566l-10.961-1.826zm-4.567 11.874c0-1.827 1.827-3.654 3.654-4.567 1.827-.914 3.653-.914 5.48-.914 1.827.914 3.654 1.827 4.567 2.74.913 1.827 1.827 3.654.913 5.481 0 1.826-1.826 3.653-3.653 4.567-1.827.913-3.654.913-5.48.913-1.827-.913-3.654-1.827-4.567-2.74-.914-1.827-.914-3.654-.914-5.48zM234.737 17.444h14.614v12.787h-14.614v17.354h-14.614V30.231h-14.614V17.444h14.614V1.004h14.614v16.44zM10.047 222.039c0-2.74.914-4.567 2.74-6.394 1.827-1.826 4.568-2.74 7.308-2.74s5.48.914 7.307 2.74c1.826 1.827 2.74 3.654 2.74 7.307v.914c0 2.74-.914 4.567-2.74 6.393-1.827 1.827-4.567 2.74-7.307 2.74s-5.48-.913-7.307-2.74c-1.827-1.826-2.74-3.653-2.74-7.307v-.913zm7.308 1.827c0 .913 0 1.826.913 2.74.913.913 1.827.913 2.74.913 1.827 0 2.74-.913 2.74-3.653v-1.827c0-.913 0-1.827-.913-2.74-.914-.913-.914-.913-2.74-.913-.914 0-1.827 0-2.74.913v4.567zm13.7 22.834c0-2.74.913-4.567 2.74-6.394 1.827-1.826 4.567-2.74 7.307-2.74s5.48.914 7.307 2.74c1.827 1.827 2.74 3.654 2.74 7.307v1.827c0 2.74-.913 4.567-2.74 6.394-1.827 1.827-4.567 2.74-7.307 2.74s-5.48-.913-7.307-2.74c-1.827-1.827-2.74-3.654-2.74-7.307V246.7zm7.307 2.74c0 .914 0 1.827.913 2.74.914.914 1.827.914 2.74.914.914-.914 2.74-1.827 2.74-3.654v-2.74c0-.913 0-1.827-.913-2.74-.913-.913-1.826-.913-2.74-.913-.913 0-1.827 0-2.74.913-.913.913-.913 1.827-.913 2.74v2.74h.913zm-16.44 4.567l-4.567-1.827 21.92-34.708 4.567 2.74-21.92 33.795z" fill="#EDE2F9"/><path fill-rule="evenodd" clip-rule="evenodd" d="M308.72 312.463H189.982c-11.874 0-21.921-10.047-21.921-21.921V100.561c0-11.874 10.047-21.92 21.921-21.92h117.825c11.873 0 21.921 10.046 21.921 21.92v190.895c0 11.874-9.134 21.007-21.008 21.007z" fill="#B19ACE"/><path fill-rule="evenodd" clip-rule="evenodd" d="M297.759 300.589H189.068c-10.96 0-20.094-9.134-20.094-20.094V105.127c0-10.96 9.134-20.094 20.094-20.094h108.691c10.961 0 20.095 9.134 20.095 20.094v175.368c-.914 11.874-9.134 20.094-20.095 20.094z" fill="#C5B0DF"/><path fill-rule="evenodd" clip-rule="evenodd" d="M190.895 100.56h104.124c3.654 0 6.394 2.74 6.394 6.394v29.228c0 3.653-2.74 6.393-6.394 6.393H190.895c-3.654 0-6.394-2.74-6.394-6.393v-29.228c0-3.654 2.74-6.394 6.394-6.394z" fill="#8A6CAF"/><path fill-rule="evenodd" clip-rule="evenodd" d="M189.068 156.277h21.008c2.74 0 4.567 1.826 4.567 4.566v21.921c0 2.741-1.827 4.567-4.567 4.567h-21.008c-2.74 0-4.567-1.826-4.567-4.567v-21.921c0-1.826 2.74-4.566 4.567-4.566zm86.77 0h21.008c2.74 0 4.567 1.826 4.567 4.566v21.921c0 2.741-1.827 4.567-4.567 4.567h-21.008c-2.74 0-4.566-1.826-4.566-4.567v-21.921c0-1.826 1.826-4.566 4.566-4.566zm-42.928 0h21.007c2.741 0 4.567 1.826 4.567 4.566v21.921c0 2.741-1.826 4.567-4.567 4.567H232.91c-2.74 0-4.567-1.826-4.567-4.567v-21.921c0-1.826 1.827-4.566 4.567-4.566zm-43.842 42.928h21.008c2.74 0 4.567 1.827 4.567 4.567v21.921c0 2.74-1.827 4.566-4.567 4.566h-21.008c-2.74 0-4.567-1.826-4.567-4.566v-21.921c0-2.74 2.74-4.567 4.567-4.567zm86.77 0h21.008c2.74 0 4.567 1.827 4.567 4.567v21.921c0 2.74-1.827 4.566-4.567 4.566h-21.008c-2.74 0-4.566-1.826-4.566-4.566v-21.921c0-2.74 1.826-4.567 4.566-4.567zm-42.928 0h21.007c2.741 0 4.567 1.827 4.567 4.567v21.921c0 2.74-1.826 4.566-4.567 4.566H232.91c-2.74 0-4.567-1.826-4.567-4.566v-21.921c0-2.74 1.827-4.567 4.567-4.567zm-43.842 42.016h21.008c2.74 0 4.567 1.826 4.567 4.567v21.92c0 2.741-1.827 4.567-4.567 4.567h-21.008c-2.74 0-4.567-1.826-4.567-4.567v-21.92c0-1.827 2.74-4.567 4.567-4.567zm86.77 0h21.008c2.74 0 4.567 1.826 4.567 4.567v21.92c0 2.741-1.827 4.567-4.567 4.567h-21.008c-2.74 0-4.566-1.826-4.566-4.567v-21.92c0-1.827 1.826-4.567 4.566-4.567zm-42.928 0h21.007c2.741 0 4.567 1.826 4.567 4.567v21.92c0 2.741-1.826 4.567-4.567 4.567H232.91c-2.74 0-4.567-1.826-4.567-4.567v-21.92c0-1.827 1.827-4.567 4.567-4.567z" fill="#fff"/><path fill-rule="evenodd" clip-rule="evenodd" d="M291.366 123.396c0 3.653-.913 5.48-1.827 7.307-1.827 1.826-3.653 2.74-6.393 2.74-2.74 0-4.567-.914-6.394-2.74-1.827-1.827-1.827-4.567-1.827-7.307v-4.567c0-3.654.914-5.48 1.827-7.307 1.827-1.827 3.654-2.74 6.394-2.74s4.566.913 6.393 2.74c1.827 1.827 1.827 4.567 1.827 7.307v4.567zm-5.48-4.567c0-1.827 0-2.74-.914-3.654 0-.913-.913-.913-1.826-.913-.914 0-1.827 0-1.827.913 0 .914-.913 1.827-.913 3.654v6.393c0 1.827 0 2.741.913 3.654 0 .913.913.913 1.827.913.913 0 1.826 0 1.826-.913s.914-1.827.914-3.654v-6.393z" fill="#EDE2F9"/><path fill-rule="evenodd" clip-rule="evenodd" d="M204.596 169.063c2.74 1.826.913 4.566-1.827 3.653l-7.307-3.653c0 1.826-.914 3.653-2.74 2.74 0 1.826-.914 2.74-2.74 2.74 0 1.827-.914 3.653-2.74 2.74-3.654-1.827-6.394-2.74-9.134-6.394-.914-1.826-1.827-3.653-5.48-5.48l5.48-8.22c1.827 1.826 4.567 2.74 6.393 2.74 1.827-.914 3.654-.914 6.394 0 1.827.913 1.827 1.827 4.567 3.653l9.134 5.481z" fill="url(#a)"/><path fill-rule="evenodd" clip-rule="evenodd" d="M147.053 129.789c13.701 10.96 11.874 15.527 31.968 25.574-.913 5.48-3.653 10.047-6.393 13.701-8.22-4.567-23.748-9.134-32.882-18.268-15.527-15.527-4.566-29.228 7.307-21.007z" fill="#5983B1"/><path fill-rule="evenodd" clip-rule="evenodd" d="M81.29 73.159l.914 10.047 11.874 10.047 14.613-10.96.914-9.134-6.394-1.827v-7.307H87.684v8.22l-6.394.914z" fill="url(#b)"/><path fill-rule="evenodd" clip-rule="evenodd" d="M95.905 70.418c10.047 0 19.181-10.96 19.181-26.487 0-14.614 5.48-29.228-19.181-27.402-24.661 1.827-19.181 11.874-19.181 27.402 0 15.527 8.22 26.487 19.18 26.487z" fill="url(#c)"/><path fill-rule="evenodd" clip-rule="evenodd" d="M112.345 22.01c1.827 7.307 1.827 10.961 1.827 19.181 8.22-10.96 14.614-42.928-2.74-36.535-7.307 2.74-6.394-3.653-17.354-4.566-8.22-.914-7.307 5.48-18.268 4.566-7.307-.913-17.354.914-4.567 23.748.914 2.74 1.827 6.394 5.48 12.787 0-10.96.914-16.44 3.654-19.18 10.047 4.566 22.835 5.48 31.968 0z" fill="#37254D"/><path fill-rule="evenodd" clip-rule="evenodd" d="M87.684 51.238c1.827 0 3.654-.913 5.48-1.827.914-.913 1.827-2.74 1.827-4.567h2.74c0 1.827.913 3.654 1.827 4.567.913.914 2.74 1.827 5.48 1.827 1.827 0 3.654-.913 5.48-1.827.914-.913 1.827-2.74 1.827-5.48v-.913l3.654-.914v-1.826l-3.654.913c0-.913-.913-1.827-1.827-2.74-.913-.914-2.74-1.827-5.48-1.827-1.827 0-3.653.913-5.48 1.827-.914.913-1.827 2.74-1.827 4.567h-2.74c0-1.827-.913-3.654-1.827-4.567-.913-.914-2.74-1.827-5.48-1.827-1.827 0-3.653.913-5.48 1.827-.914 1.827-1.827 2.74-1.827 3.653l-3.653-.913v1.827l3.653.913v.913c0 1.827.913 3.654 1.827 5.48.913 0 2.74.914 5.48.914zm12.787-2.74c-.913-.913-1.827-2.74-1.827-3.654 0-1.826.914-2.74 1.827-3.653.914-.913 2.74-1.827 3.654-1.827 1.826 0 2.74.914 3.653 1.827.914.913 1.827 2.74 1.827 3.653 0 1.827-.913 2.74-1.827 3.654 0 .913-1.827 1.827-2.74 1.827-1.827 0-3.653-.914-4.567-1.827zm-9.133 0c-.914.913-2.74 1.827-3.654 1.827-1.827 0-3.653-.914-4.567-1.827-.913-.913-1.827-2.74-1.827-4.567 0-.913.914-2.74 1.827-3.653.913-.914 2.74-1.827 3.654-1.827 1.826 0 2.74.913 3.653 1.827.913.913 1.827 2.74 1.827 3.653.913 1.827 0 3.654-.913 4.567z" fill="#37254D"/><path fill-rule="evenodd" clip-rule="evenodd" d="M67.59 317.03l2.74-10.047 10.047 1.827-1.827 9.134c-.913-.914-10.047-.914-10.96-.914z" fill="url(#d)"/><path fill-rule="evenodd" clip-rule="evenodd" d="M96.818 313.376l2.74-9.134 9.134 1.827-1.827 8.221c-.914 0-9.134-.914-10.047-.914z" fill="url(#e)"/><path fill-rule="evenodd" clip-rule="evenodd" d="M68.503 314.291c5.48 2.74 10.047 0 12.787.913 5.48 4.567 7.307 6.393 13.7 6.393 6.395.914 10.048 6.394 2.741 6.394-14.614 0-26.488 0-31.055-.913-2.74-.914-5.48-10.961 1.827-12.787zm28.315-3.655c5.48 2.74 10.047 0 11.873.913 5.481 4.567 6.394 5.48 12.788 6.394 6.393.913 10.047 6.393 2.74 6.393-13.701 0-25.575 0-29.228-.913-1.827-.913-4.567-10.047 1.827-12.787z" fill="#37254D"/><path fill-rule="evenodd" clip-rule="evenodd" d="M94.991 304.243c3.653 2.74 13.701 5.48 17.354 1.827 10.047-68.503 8.22-90.424 12.787-143.4-5.48 0-15.527 0-28.314-1.826.913 35.621 7.307 61.195-1.827 143.399z" fill="#56A9BE"/><path fill-rule="evenodd" clip-rule="evenodd" d="M64.85 307.896c5.48 1.827 13.7 5.48 21.007 2.74 10.96-70.329 10.047-88.597 14.614-142.486-7.307 0-18.267-4.567-32.881-5.48.913 34.708 7.307 61.196-2.74 145.226z" fill="#4998AC"/><path fill-rule="evenodd" clip-rule="evenodd" d="M109.605 73.16c16.441 5.48 29.228 14.614 36.535 44.755 2.74 13.701 8.22 22.835-8.22 30.142-4.567-3.654-9.134-12.787-11.874-20.094 1.826 7.307 3.653 18.267 0 34.708-10.961 10.047-42.015 10.047-55.716 0-3.653-2.74-8.22 1.826-10.047 1.826-3.654-20.094-7.307-36.534-5.48-52.975 1.826-17.354 8.22-36.535 28.314-39.275 5.48 14.614 21.008 14.614 26.488.913z" fill="#5983B1"/><path fill-rule="evenodd" clip-rule="evenodd" d="M62.11 177.285c-1.827 2.74-.914 10.047 0 14.614.913 4.567 9.133 11.874 10.047 2.74v-6.394c.913.914 2.74.914 2.74 0v-6.393c0-1.827 0-2.741-1.827-5.481-1.827-1.826 0-5.48-1.827-6.393-1.826-.914-6.393-.914-8.22 0-1.827 1.826.913 5.48-.913 7.307z" fill="url(#f)"/><path fill-rule="evenodd" clip-rule="evenodd" d="M73.984 173.631c-4.567 1.826-9.134 1.826-14.614.913-2.74-7.307-4.567-28.314-5.48-36.535-1.827-19.181 15.527-18.267 17.353-1.827.914 8.221 1.827 27.402 2.74 37.449z" fill="#5983B1"/><path fill-rule="evenodd" clip-rule="evenodd" d="M74.897 99.648c1.827 10.961 0 19.181-.913 22.834-2.74 10.048.913 25.575-.914 39.276-.913-21.008-4.566-27.402-1.826-40.189.913-3.653 3.653-10.96 3.653-21.92z" fill="#456F9B"/><defs><linearGradient id="a" x1="180.941" y1="161.17" x2="194.898" y2="173.144" gradientUnits="userSpaceOnUse"><stop stop-color="#F7B9AD"/><stop offset="1" stop-color="#FAD4CC"/></linearGradient><linearGradient id="b" x1="95.624" y1="91.993" x2="95.619" y2="69.544" gradientUnits="userSpaceOnUse"><stop stop-color="#F18A77"/><stop offset="1" stop-color="#F6B0A2"/></linearGradient><linearGradient id="c" x1="95.741" y1="67.522" x2="95.731" y2="27.471" gradientUnits="userSpaceOnUse"><stop stop-color="#F7B9AD"/><stop offset="1" stop-color="#FAD4CC"/></linearGradient><linearGradient id="d" x1="73.809" y1="315.035" x2="74.371" y2="309.697" gradientUnits="userSpaceOnUse"><stop stop-color="#F7B9AD"/><stop offset="1" stop-color="#FAD4CC"/></linearGradient><linearGradient id="e" x1="102.335" y1="311.958" x2="102.865" y2="306.923" gradientUnits="userSpaceOnUse"><stop stop-color="#F7B9AD"/><stop offset="1" stop-color="#FAD4CC"/></linearGradient><linearGradient id="f" x1="64.819" y1="169.601" x2="68.482" y2="189.712" gradientUnits="userSpaceOnUse"><stop stop-color="#F7B9AD"/><stop offset="1" stop-color="#FAD4CC"/></linearGradient></defs></svg>