<svg id="_x31_" xmlns="http://www.w3.org/2000/svg" viewBox="0 0 610.94 545.98"><style>.st0{fill:#c5b0df}.st0,.st1,.st2,.st3,.st4,.st5,.st6{fill-rule:evenodd;clip-rule:evenodd}.st1{fill:#fff}.st2{fill:#decff1}.st3{fill:#8a6caf}.st4{fill:#715198}.st5{fill:#ede2f9}.st6{fill:#37254d}.st10,.st11,.st12,.st13{fill-rule:evenodd;clip-rule:evenodd}.st7{fill:url(#SVGID_1_)}.st7,.st8,.st9{fill-rule:evenodd;clip-rule:evenodd}.st8{fill:url(#SVGID_2_)}.st9{fill:url(#SVGID_3_)}.st10{fill:url(#SVGID_4_)}.st11{fill:#56a9be}.st12{fill:#4998ac}.st13{fill:#b19ace}.st14{fill:url(#SVGID_5_)}.st14,.st15,.st16,.st17,.st18,.st19{fill-rule:evenodd;clip-rule:evenodd}.st15{fill:#af96ce}.st16{fill:#b79ed5}.st17{fill:#ddcdef}.st18{fill:#b9a2d5}.st19{fill:url(#SVGID_6_)}.st20{fill:url(#SVGID_7_)}.st20,.st21,.st22,.st23,.st24,.st25{fill-rule:evenodd;clip-rule:evenodd}.st21{fill:#5983b1}.st22{fill:url(#SVGID_8_)}.st23{fill:url(#SVGID_9_)}.st24{fill:#456f9b}.st25{fill:url(#SVGID_10_)}.st26{fill:url(#SVGID_11_)}.st26,.st27,.st28,.st29,.st30,.st31{fill-rule:evenodd;clip-rule:evenodd}.st27{fill:#4b729b}.st28{fill:#1f4063}.st29{fill:#f8f6fb}.st30{fill:#2a4e75}.st31{fill:#c1d6ec}</style><path class="st0" d="M482.08 471.96h-209c-16.5 0-30-13.5-30-30v-318c0-16.5 13.5-30 30-30h209c16.5 0 30 13.5 30 30v318c0 16.5-13.5 30-30 30z"/><path class="st1" d="M475.45 453.26H279.7c-9.9 0-18-8.1-18-18V130.67c0-9.9 8.1-18 18-18h195.75c9.9 0 18 8.1 18 18v304.59c0 9.9-8.1 18-18 18z"/><path class="st2" d="M263.84 247.79h.43v-2.58h.43v10.32h-.43v-2.58h-.43v-5.16zm211.61 205.47c9.9 0 18-8.1 18-18V238.33h-.03v-.43h-.43v-.86h.43v-.43h.03v-.86h-.03v-.43h-.43v-.43h-.43v-.43h-.43v-2.58h.86v-.43h-.43v-.43h-.43v-.43h-.43v.86h-.86v.43h.86v2.58h-.43v.43h-.43v.43h-.43v1.29h.43v1.29h-.43v.43h-.43v.43h-.86v-.86h-.43v-.43h-.43v-1.29h.43v-1.29h-.43v-.43h-.43v-.43h-.43v-2.58h.86v-.43h-.86v-.86h-.86v.43h-.43v.86h.86v.43h-.43v2.58h-.86v-3.01h-.43v-.43h-.43v-.43h-.43v-.43h-.43v-.43h-.43v-.43h-.43v-.43h-.43v-4.3h.43v-.43h-.43v-3.01h-.43v-.43h-.43v-.43h-.43v-5.16h1.29v-.86h-1.29v-1.29h-.86v1.29h-1.29v.86h1.29v5.16h-.43v.43h-.43v.43h-.43v1.72h.43v.86h-.43v.43h-.43v.43h.43v4.3h-.43v.43h-.43v.43h-.43v.43h-.43v.43h-.43v.43h-.43v.43h-.86v-.86h-.43v.86h-.86v.43h.86v2.58h-.43v.43h-.43v.43h-.43v.43h-.43v.86h.43v.43h.43v.86h-.43v.43h-.86v-.86h-.86v-1.29h.43v-.43h.43v-.43h-.43v-.43h-.43v-.43h-.43v-.43h-.43v-2.15h-.43v2.15h-.43v.43h-.43v.43h-.43v.43h-.43v.43h.43v.43h.43v.86h-.43v.43h-.43v.43h-.43v.86h-.43v.86h-.43v2.58h-.86v-1.72h-.43v-.86h-.43v-.43h-.43v-.86h-.43v-.43h-.43v-1.29h.43v-1.29h-.43v-.43h-.43v-.43h-.43v-2.15h-.86v2.15h-.43v.43h-.43v.43h-.43v1.29h.43v1.29h-.43v.43h-.43v.86h-.43v.43h-.43v.86h-.43v2.15h-.43v.86h.43v3.87h-.43v.43h-1.29v.43h-.43v.43h-.43v.43h-.43v.43h-.43v.86h-.43v.43h-.86v-6.45h.43v-.43h.43v-.43h-1.29v-.43h-.86v-.43h-.43v-7.31h.43v-.43h.43v-.86h-2.15v-.43h-.43v-5.16h-.43v-.86h-.43v-.43h-.43v-.43h-.43v-.43H450v-.43h-1.29V225h-.43v-2.15h.43v-1.29h-.43v-2.58h-.43v-.86h-.43v-.86h-.43v-.43h-.43v-.86h.43v-2.15h-.43v-.43h-.43v-.43h-.43v-.43.43h.43v-4.73h1.29v-.43h-1.72v-1.29h-.43v1.29h-1.29v.43h1.29v4.73h-.43v.86h-.43v.43h-.43v1.29h.43v.43h.43v.86h-.43v.43h-.43v.86h-.43v.43h-.43v3.01h-.86v.86h.43v3.01h-.43v.43h-.86v.43h-.86v.86h-.43v.43h-.43v.43h-.43v.86h-.43v3.01h.43v1.72h-1.29v.43h-1.29v.86h.43v.43h.43v7.31h-.86v.43h-.86v.43h-.86v.86h.86v12.9h-2.58v-.43h-1.72v-.86h-1.72v-.43h-.43v-.86h-4.3v-.86h-.86v-2.15h-.43v1.72h-.43v.43h-.43v.86h-5.16v-.86h-.43v.86h-2.58v-.43h-.86v-33.1h-.43v-15.91h.43v-2.15h.43v-.43h.43v-1.29h.43v-.43h-.43v-.43h-.43v-2.58h-1.29v.43h-.43v-.43h-.43v-.86h.43v-2.15h-.43v-1.29h.43v-.43h.43v-5.16h.43v-.43h.43v-.43h.43v-.43h.43v-1.29h.43v-2.15h.43v-.43h.43v-.43h.43v-.43h.43v-1.29h-.43v-.43h-.86v.43h-.43v.43h-.86v-.43h-.86v-.43h-3.01v.43h-.86v.43h-.86v.43h-.43v.43h-.86v-.43h-.86v-.43h-.43v.86h-.43v.43h.43v.86h.86v.86h1.29v.43h.43v.86h.43v1.72h.43v.86h.43v2.15h-.43v4.73h-.43v2.15h.43v.86h-.43v.43h-.43v-.43h-1.29v2.58h-.86v.86h.43v1.29h.43v.43h.43v3.01h.43v30.53h-.43v9.89h-3.01v-.86h-1.72v.43h-.43v.43h-1.29v-.43h-.43v1.29h-.86v1.29h-.43v.86h-.86v.43h-.86v-1.29h-.43v-2.58h-.86v.86h-4.73v-3.01h-.86v-5.16h1.29v-.86h-6.45v-.86h-9.89v-1.72h-.43v.86h-5.59v1.29h-6.45v.43h-.43v.86h1.29v4.73H364v.86h-.43v.43h.43v4.3h-8.6v.86h.43v.43h-1.72v.43h-3.01v.43h.86v2.58h-2.58v-1.29h-.86v-1.29h-.86v.86h-1.72v.86h-4.73v.43h.43v.43h-1.72v1.29h.43v1.72h-2.58v3.01h-1.72v-1.72h-1.29v-.86h.43v-18.49h.43v-.43h.43v-.43h.43v-3.01h-.43v-2.15h.43v-1.72h.43v-3.44h.43v-1.72h.43v-.43h.43V225h.86v-.43h.43v-.86h.43v-2.58h.43v-4.3h-.43v-.43h-4.3v.43h-.86v6.02h.43v.43h.43v2.58h-.86v.43h-.43v.43h-.43v.43h-.43v.43h-1.29v-.86h.43v-3.87h-.43v-.43h-.43v-.43h-1.72v.43h-.43v.43h-.43v.43h-.43v1.29h.43v.86h.43v2.15h-.86v-.43h-.43v-.43h-.43v-.43h-.43v-.43h-.43v-.43h-.86V225h-.43v-.43h-.43v-.86h-.43v-1.29h-.43v-.43h-.43v-.86h-.43v-.43h-.43v-.86h-.43v-2.15h.43v-.86h.43v-.86h-.86v-11.61h-.43v-.43h-.43v.86h-.43v11.18h-.86v1.72h.43v2.58h.43v.86h.43v1.72h.43v.86h.43v.43h.43v.86h.43v1.29h.43v.43h.43v2.15h-.43v6.88h.43v.43h.43v8.6h.86v.43h.86v12.9h-.43v1.72h-2.15v1.29h-.43v1.72h-1.72v-.43h-.43v.43h-.86v-8.17h-.86v-3.01h.43v-.86h-.86v-1.29h-.43v-.86h-.43v-.43h-1.29v-.86h-.43v-.86h-.86v.43h-.43v-.86H315v-.86h-.43v-.86h-.43v-3.01h-.43v3.01h-.43v.86h-.43v.86h-.43v.86h-.43v1.29h-.43v.43h-2.15v.43h-.86v1.72h-1.29v.86h.43v3.87h-.43v10.75h-.43v1.29h-1.29v-12.04h-.43v-3.01h.43v-.86h-1.29v-.86h.43v-.43h-.43v-.43h-.43v-.43h-2.15v-.43h-.43v-.43h-.43v-.86h-.43v-1.29h-.43v-.86h-.43v-3.01h-.43v3.01h-.43v.86h-.43v.86h-.43v1.72h-.86v.43h-2.15v.86h-.86v.43h.43v.86h-1.29v.43h.43v.86h-.43v15.91h-1.29v.43h-1.29v-6.02h.43v-2.15h-.43v-.86h.43v-.43h.86v-1.72h-.43v-.43h-.86v-4.73h-.43v-5.16h.43v-1.72h-.43v-.43h.43v-.43h.43v-.86h-.86v-.43h-.43v-.86h-.43v-.86h-.43v-.86h.43v-.43h.43v-1.72h-.43v-.43h-.43v-.86h-.43v-.86h-.43v-3.87h.43v-.43h-.43v-2.58h.43v-.43h-.43v-.86h-.86v.86h-.86v.43h.86v2.15h-.43v5.59h-.43v.43h-.43v.86h-.43v1.72h.43v2.15h-.43v.86h-.43v.43h-.86v-4.3h.43v-.86h-.43v-.43h-1.72v-.86h-.43v-.86h-.43v-.86h-.43v-.43h-.43v-.86h-.43v-.43h-.86v-.43h-.43v-.43h-.86v-.43h-.86v-.43h-.43v-.43h-.43v-.86h.86v-.43h.43v-.43h.43v-2.15h-.43v-.86h-.43v-.43h-.43v-.43h-.43v-.86h-.43V225h-.43v-.86h-.43v-4.73h.43v-.86h-.43v-.43h-.43v-2.15h1.29v-.86h-1.29v-1.29h-.43v1.29h-1.29v.86h1.29v2.15h-.43v.43h-.43v.86h.43v4.73h-.43v.86h-.43v.86h-.43v.86H272v.43h-.43v.43h-.43v.86h-.43v2.15h.43v.43h.43v.43h.86v.86H272v.43h-.43v.43h-.86v.43h-.86v.43h-.43v.43h-.86v.43h-.43v.86h-.43v.43h-.43v.86h-.43v1.29h-.43v.43h-1.72v.43h-.43v.86h.43v4.3h-.86v-.43h-.43v-.86h-.43v-.86h-.43v-.86h.43v-.43h.43v-1.72h-.43v-.86h-.43v-.43h-.43v-5.59h-.42v202.95c0 9.9 8.1 18 18 18h195.76zM261.7 230.16v-.43h.85v.43h-.85zm201.63.86v-.43h.86v1.29h-1.72v-.86h.86zm6.88.43v-.86h2.15v.86h-2.15zm5.59 2.58v.43h.43-.43v-.43zm-78.25 14.62v1.72-1.72zm1.72 1.72v.86-.86zm87.7-16.34v-.86.86zm-202.49 13.76h.43v5.16h-.43v2.58h-.43v-2.15h-.43v-5.59h.43v-2.58h.43v.43h.43v.43h-.43v1.72zm129.41-64.92h-.43v.86h-.43v.43h-.43v.43h-.43v-.86h.43v-.86h-1.72v.86h-.43v-.86h-.43v-.43h-.86v-.86h.86v-.43h3.87v.43h.43v.43h-.43v.86z"/><path class="st3" d="M300.01 454.19l-39.05-68.98h-55.08l25.28 68.98z"/><path class="st4" d="M278.66 147.81c29.54 1.47 43.05 14.51 64.9 35.69-14.96-11.49-28.53-15.58-47.46-16.52l-107.55-.09-1.03 332.53-18.57-16.55V148.81l109.71-1zm75.65 150.2l-15.76-18.05c31.85 11.16 46.11 23.12 71.1 47.34-17.22-15.03-33.69-21.7-55.34-29.29zm-28.3 29.56c39.65 45.13 14.86 107.41-43.08 110.07l18.2 21.05c82.47-3.78 85.33-96.42 24.88-131.12z"/><path class="st3" d="M300.01 454.19l-17.08-16.55h-68.84l17.07 16.55z"/><path class="st4" d="M260.6 266.38h-46.52l15.57 21.42 48.39-1.87c65.83-3.01 57.21-76.93 8.66-96.74 31.11 29.37 15.09 75.31-26.1 77.19z"/><path class="st3" d="M187.53 499.41V164.35h109.71c61.07.49 104.65 82.77 58.38 132.16 70.95 22.54 98.34 82.76 94.12 138.3-2.79 36.71-33.42 65.05-70.23 64.98l-191.98-.38zm43.63-45.22h68.85c75.5 0 85.43-109.65 9.1-129.3-5.26-.71-10.81-1.11-16.7-1.11h-61.25v130.41zm0-171.26h46.52c51.01 0 57.72-74.08 6.15-87.36-3.55-.48-7.31-.75-11.29-.75h-41.38v88.11z"/><path class="st5" d="M577.11 254.15l4.12-2.39c4.93-2.86 7.44 2.9 5.56 4.34-.52.42-.48.68.24.35 4.64-1.48 6.92 5.2 3.54 6.87-.56.28-.59.39.07.25 2.89-.65 5.51 4.58 1.32 6.95-1.63.92-1.04.69-.05.61 2.11-.06 4.24 4.41.98 6.3l-13 7.55c-5.83 1.98-8.31.03-10.87.35-2.35.3-10.69-13.84-9.04-14.98 1.05-.72 1.95-2.47 2.11-3.84.46-3.84 2.09-5.09 3.06-9.1 1.01-4.17 2.95-6.89 2.35-11.41-1.56-7.07 5.91-5.84 7.26.08.43 2.98.43 4.67-.02 7.27-.22 1.24.61 1.82 2.37.8zM235.8 93.88c-1.24.66-2.65.76-3.92.37a5.132 5.132 0 0 1-3.06-2.51 5.19 5.19 0 0 1-.39-3.94 5.112 5.112 0 0 1 2.5-3.05c1.24-.66 2.65-.75 3.92-.37a5.16 5.16 0 0 1 3.06 2.51c.67 1.26.77 2.68.39 3.94a5.182 5.182 0 0 1-2.5 3.05zm-33.28-16.67a3.015 3.015 0 0 1-3.7 2.15 3.057 3.057 0 0 1-2.16-3.71c1.1-4.19 3.33-8.35 6.5-12.07 3.01-3.53 6.89-6.69 11.44-9.13 4.62-2.47 9.48-3.94 14.16-4.46 4.94-.55 9.69-.04 13.81 1.46 1.57.57 2.39 2.32 1.82 3.89a3.018 3.018 0 0 1-3.88 1.81c-3.27-1.19-7.07-1.59-11.07-1.15-3.91.44-8.02 1.69-11.99 3.81-3.9 2.08-7.18 4.75-9.71 7.71-2.55 3.03-4.35 6.37-5.22 9.69zm10.92 4.18c.52-2.21 1.63-4.41 3.25-6.38 1.6-1.95 3.71-3.7 6.24-5.05 2.56-1.37 5.24-2.15 7.8-2.39l.13-.02c2.54-.21 4.96.11 7.04.93 1.55.61 3.3-.15 3.91-1.7.61-1.55-.16-3.31-1.71-3.93-2.95-1.17-6.32-1.63-9.78-1.34l-.19.01c-3.34.31-6.8 1.31-10.07 3.06-3.22 1.72-5.94 3.99-8.04 6.56-2.23 2.71-3.76 5.76-4.48 8.84-.38 1.63.63 3.27 2.26 3.66 1.63.39 3.26-.62 3.64-2.25zm10.94 4.05c.17-1.06.62-2.11 1.3-3.04.67-.91 1.59-1.72 2.71-2.31 1.14-.61 2.33-.92 3.48-.96 1.17-.05 2.31.18 3.29.64 1.51.72 3.31.07 4.02-1.44.71-1.51.06-3.32-1.45-4.04-1.87-.89-3.98-1.32-6.13-1.23-2.05.08-4.14.62-6.09 1.66-1.91 1.02-3.5 2.43-4.7 4.06a13.238 13.238 0 0 0-2.42 5.68c-.26 1.65.86 3.21 2.51 3.49a3.04 3.04 0 0 0 3.48-2.51z"/><path class="st0" d="M26.14 210.51c2.11-.22 3.51-.34 5.66-.88l1.22 12.64 14.06-22.17c2.57-3.69 4.16-8.13 4.35-12.95.53-13.44-9.93-24.76-23.36-25.29-13.44-.53-24.76 9.93-25.29 23.36-.54 13.43 9.98 26.66 23.36 25.29z"/><path class="st1" d="M34.53 179.62H16.99c-3.46 0-6.29 2.83-6.29 6.29s2.83 6.29 6.29 6.29h16.58l5.09 3.98-.16-5.41c1.41-1.16 2.32-2.91 2.32-4.87 0-3.45-2.83-6.28-6.29-6.28zm-14.32 8.13c-1.14 0-2.07-.93-2.07-2.07 0-1.14.93-2.07 2.07-2.07 1.14 0 2.07.93 2.07 2.07 0 1.15-.93 2.07-2.07 2.07zm5.83 0c-1.14 0-2.07-.93-2.07-2.07 0-1.14.93-2.07 2.07-2.07 1.14 0 2.07.93 2.07 2.07 0 1.15-.93 2.07-2.07 2.07zm5.83 0c-1.14 0-2.07-.93-2.07-2.07 0-1.14.93-2.07 2.07-2.07 1.14 0 2.07.93 2.07 2.07 0 1.15-.93 2.07-2.07 2.07z"/><path class="st6" d="M244.26 387.94c.34-9.09-8.51-7.22-17.44-5.78-18.66 3.02-24.04-4.55-15.63-14.94 10.58-11.34 5.1-19.01 4.19-27.41-2.19-20.26 13.98-29.34 33.75-25.59 8.31 1.58 21.94.63 10.22 25.38-5.43 11.48-10.66 16.19-3.92 33.98 6.75 17.8-11.34 18.73-11.17 14.36z"/><linearGradient id="SVGID_1_" gradientUnits="userSpaceOnUse" x1="237.885" y1="391.477" x2="239.697" y2="368.269"><stop offset="0" stop-color="#f98678"/><stop offset="1" stop-color="#fca599"/></linearGradient><path class="st7" d="M253.97 377.26l-9.34-2.42-1.26-9.56-9.3-3.41-.52 8.8-10.1 13.92 25.23 19.81z"/><linearGradient id="SVGID_2_" gradientUnits="userSpaceOnUse" x1="237.346" y1="357.49" x2="247.436" y2="329.45"><stop offset="0" stop-color="#fcada2"/><stop offset="1" stop-color="#fec8c1"/></linearGradient><path class="st8" d="M261.12 330.38c-10.46-13.5-22.56-13.42-35.48-.58-6.14 48.73 44.68 49.34 35.48.58z"/><linearGradient id="SVGID_3_" gradientUnits="userSpaceOnUse" x1="281.183" y1="505.305" x2="282.242" y2="496.447"><stop offset="0" stop-color="#fcada2"/><stop offset="1" stop-color="#fec8c1"/></linearGradient><path class="st9" d="M276.93 507.8l1.52-15.21 8.41.98-3.73 14.79c-.26.07-5.38-.55-6.2-.56z"/><path class="st0" d="M287.37 500.22c-5.5-.09-6.99-.09-11.36-3.58 1.78-10.15 7.92-41.39 11.97-52.06 9.48-24.97 28.74-14.31 20.88 7.75-3.8 10.66-16.65 35.47-21.49 47.89z"/><path class="st6" d="M277.92 502.24c1.96 4.37 7.79 5.78 8.72 7.54.86 5.76 1.09 7.51 4.71 11.15 4.48 4.51.96 8.36-3.79 4.24-8.94-7.76-14.18-12.81-16.12-15.65-.86-1.64 1.01-9.31 6.48-7.28z"/><linearGradient id="SVGID_4_" gradientUnits="userSpaceOnUse" x1="336.022" y1="495.659" x2="332.821" y2="490.395"><stop offset="0" stop-color="#fcada2"/><stop offset="1" stop-color="#fec8c1"/></linearGradient><path class="st10" d="M334.27 500.9l-8.09-11.56 9.08-4.79 6.09 12.28c-.15.23-6.37 3.54-7.08 4.07z"/><path class="st6" d="M329.84 493.52c4.54 4.54 11.65 2.38 13.37 3.87 3.25 5.75 4.31 7.31 9.53 9.89 5.26 2.6 5.03 9.28-1.69 6.85-12.64-4.58-21-8.48-24.21-10.7-1.59-1.38-3.62-9.84 3-9.91z"/><path class="st11" d="M252.68 376.88c18.92 3.43 33.51 12.78 37.56 31.84 8.15 38.37-39.11 41-66 39.22-8.48-14.2 1.39-14.19-4.62-25.72-2.08 3.5-2.28 5.93-3.52 9.03-3.56 8.87-16.34 3.45-15.75-2.12.89-8.55 2.69-15.11 5.87-24.6 3.29-9.81 8.15-22.12 22.01-26.48 6.66 4.6 13.1 11.69 19.51 16.08 2.11-8.52 3.35-10.91 4.94-17.25z"/><path class="st12" d="M229.21 397.59c-.32 8.11-1.82 11.5-3.71 14.8-4.44 7.72-5.02 10.23 6.92 10.04-16.76 4.26-13.47-3.15-8.83-11.53 1.41-2.57 4-5.81 5.62-13.31z"/><path class="st6" d="M261.03 333.65c-13.41-8.1-15.89.94-19.43 13.95-3.34-1.97-6.81 2.53-3.67 7.2-2.67 5.21-3.24 14.14-2.2 17.32 7.21 16.17-23.39 20.9-31.64 11.24-7.09-8.3 15.82-20.03 20.51-34.06 1.24-15.2-1.73-9.73.31-17.06 4.19-14.15 5.81-18.53 17.75-18.65 11.93-.13 19.64 3.23 23.79 7.17 7.06 6.7.94 16.74-5.42 12.89z"/><path class="st13" d="M307.54 424.18l-56.71 10.54c-1.88.35-4.85-.88-7.49-2.13l-12.2-6.12c-2.64-1.25-3.78-3.83 1.36-4.85l54.41-10.79c5.13-1.02 8.43-.87 9.81.3l11.02 9.43c1.38 1.17 1.68 3.27-.2 3.62z"/><linearGradient id="SVGID_5_" gradientUnits="userSpaceOnUse" x1="235.448" y1="429.2" x2="253.799" y2="428.706"><stop offset="0" stop-color="#fcada2"/><stop offset="1" stop-color="#fec8c1"/></linearGradient><path class="st14" d="M235.34 424.43c2.33.83 3.47 1.88 5.53.3 1.9-1.46 4.2-1.48 5.88-1.31 5.21.53 4.95 1.22 8.64 6.74 3.41 5.1.14 5.02-2.35 1.89-3.74-4.7-6.67-2.47-11.3-1.38-2.18.51-4.42.09-6.61-.05l.21-6.19z"/><path class="st11" d="M237.93 420.43c2.3 3.11 3.66 8.6 2.81 13.39-8.17 2.41-17.39 5.5-26.76 6.54-15.14 1.68-20.64-16.64-1.41-18.91 9.28-1.1 14.39-.05 25.36-1.02z"/><path class="st0" d="M305.01 425.52l-56.71 10.54c-1.89.35-3.02-1.05-2.88-3.03l1.54-38.73c.14-1.98 2.1-3.97 3.99-4.31l58.53-10.43c1.89-.34 3.06.95 2.88 3.03L309 421.21c-.47 2.05-2.1 3.96-3.99 4.31z"/><path class="st5" d="M279.1 411.66c-2.12.39-3.95-1.31-4.1-3.8-.14-2.49 1.46-4.83 3.58-5.22 2.12-.39 3.95 1.31 4.1 3.8.14 2.48-1.46 4.82-3.58 5.22z"/><path class="st15" d="M221.05 440.93c20.99-7.85 44.75-17.18 66.44-22.84 13.18-3.44 22.52-1.72 30 16.15 7.35 17.55 14.68 32.05 20.63 51.73.95 3.13-10.49 8.11-12.56 4.97-9.24-13.99-15.16-26.94-22.63-39.31-3.82-6.32-7.82-6.25-16.03-2.54-17.4 7.86-18.27 13.77-28.81 16.59-23.42 6.26-35.43-4.45-37.04-24.75z"/><ellipse class="st5" cx="375.77" cy="147.49" rx="21.93" ry="22.02"/><path class="st4" d="M375.8 160.98h-10.18l-5.18-8.77h20.54z"/><path class="st16" d="M386.02 143.21l5.09 8.81-5.01 8.88-10.27-17.79z"/><path class="st4" d="M370.61 134.1l-5.09 8.81 5.01 8.88L380.8 134z"/><ellipse transform="rotate(-23.035 414.897 335.666)" class="st5" cx="414.86" cy="335.65" rx="17.43" ry="17.43"/><path class="st1" d="M414.86 330.42c1.04-2.09 2.08-3.14 4.17-3.14 2.3 0 4.17 1.87 4.17 4.18 0 4.18-4.17 8.37-8.33 12.55-4.16-4.18-8.33-8.37-8.33-12.55 0-2.31 1.87-4.18 4.17-4.18 2.07 0 3.11 1.05 4.15 3.14z"/><path class="st5" d="M399.72 36.14h-27.61c-5.22 0-9.53 4.09-9.89 9.23h11.7a3.26 3.26 0 0 1 6.49 0h.45c.77 0 1.51.09 2.23.25a3.26 3.26 0 0 1 6.52.07c0 1.18-.63 2.21-1.56 2.78a9.862 9.862 0 0 1 2.72 6.81c0 .23-.01.46-.02.68h7.47l8.02 6.26-.25-8.51c2.22-1.82 3.65-4.58 3.65-7.66 0-5.45-4.46-9.91-9.92-9.91zm-4.19 12.81a3.26 3.26 0 1 1 3.26-3.26c.01 1.8-1.45 3.26-3.26 3.26z"/><path class="st17" d="M355.28 44.58h27.61c5.45 0 9.91 4.46 9.91 9.91s-4.46 9.91-9.91 9.91h-26.11l-8.02 6.27.25-8.51c-2.22-1.82-3.65-4.58-3.65-7.66.01-5.46 4.47-9.92 9.92-9.92zm22.55 12.81a3.26 3.26 0 1 0-.001-6.521 3.26 3.26 0 0 0 .001 6.521zm-9.18 0a3.26 3.26 0 1 0-.001-6.521 3.26 3.26 0 0 0 .001 6.521zm-9.18 0a3.26 3.26 0 1 0-.001-6.521 3.26 3.26 0 0 0 .001 6.521z"/><path class="st18" d="M64.87 165.82c-3.87-32.1 55.28-59.48 84.4-47.57l1.33.54-.97 1.05c-9.85 10.74-6.81 32.71 8.34 34.82 4.44.62 9.2-.89 12.12-4.38 8.07-9.67-4.64-25.58-12.9-31.19l-1.26-.85 1.29-.81c19.66-12.43 51.36-5.75 65.76 12.03 17.92 22.13 9.5 54.26-1.16 77.66-17.31 37.98-1.31 67.04 41.04 68.94 56.27 2.52 59.76 38.54 39.64 80-.86 1.78 1.84 3.07 2.7 1.3 21.07-43.4 16.33-81.67-42.21-84.29-40.23-1.8-54.88-28.68-38.45-64.71 11.19-24.56 19.51-57.64.76-80.79-15.53-19.18-50.19-26.3-70.92-11.85-.26.18-.53.38-.82.59l-.48.36-.54-.26c-31.31-15.07-94.88 14.56-90.64 49.75 0 1.77 3.22 1.78 2.97-.34zm102.88-17.48c-2.23 2.81-5.96 3.9-9.42 3.32-13.23-2.2-14.72-21.82-5.45-30.85l.55-.54.66.4c7.22 4.4 20.5 19.06 13.66 27.67zm129.62 217.6c-1.2 2.03-2.47 4.02-3.79 5.98-1.1 1.64 1.38 3.31 2.48 1.68 1.35-2.01 2.65-4.05 3.88-6.13 1.02-1.7-1.56-3.22-2.57-1.53z"/><linearGradient id="SVGID_6_" gradientUnits="userSpaceOnUse" x1="133.634" y1="488.007" x2="133.088" y2="482.828"><stop offset="0" stop-color="#fcada2"/><stop offset="1" stop-color="#fec8c1"/></linearGradient><path class="st19" d="M139.61 489.53l-2.48-9.51-10.01 1.46 2.14 8.76c.29.09 9.41-.67 10.35-.71z"/><linearGradient id="SVGID_7_" gradientUnits="userSpaceOnUse" x1="105.967" y1="485.02" x2="105.452" y2="480.138"><stop offset="0" stop-color="#fcada2"/><stop offset="1" stop-color="#fec8c1"/></linearGradient><path class="st20" d="M111.6 486.46l-2.34-8.96-9.43 1.38 2.01 8.26c.28.07 8.88-.65 9.76-.68z"/><path class="st6" d="M139.13 487.05c-5.25 2.51-9.91-.24-12.17.67-5.32 4.67-6.93 5.87-13.13 6.64-6.23.77-10.15 6.36-2.5 6.27 14.4-.17 26.01.08 30.04-1.02 2.1-.84 4.43-10.14-2.24-12.56z"/><path class="st6" d="M111.15 484.12c-4.95 2.37-9.35-.22-11.48.63-5.01 4.4-6.54 5.53-12.38 6.26-5.87.73-9.57 5.99-2.35 5.91 13.57-.16 24.52.08 28.32-.96 1.98-.8 4.18-9.56-2.11-11.84z"/><path class="st11" d="M112.82 477.86c-3.66 2.26-12.85 4.96-16.81 1.94-9.42-66.83-8.35-87.97-12-139.05 5.71.1 15.15-.26 27.16-1.47-1.07 33.45-6.59 58.85 1.65 138.58z"/><path class="st12" d="M142.18 480.92c-5.1 2.09-13.28 5.01-20.1 2.91-10.78-68.33-9.75-86.36-13.8-138.61 6.73.08 17.83-2.35 32-3.65-1.43 34.25-7.43 57.82 1.9 139.35z"/><path class="st21" d="M89.52 259.69c-15.31 11.47-17.42 27.49-18.93 45.88-1.72 20.93 14.31 20.18 16.3 6.19 1.78 16.77-3.83 16.23-3.02 29.03 11.62 11.1 43.85 10.23 56.84.75 10.67-27.43 13.9-22.42 10.38-62.79-.76-8.71-5.67-17.91-15.49-22.69-12.13-5.9-35.13-4.57-46.08 3.63z"/><linearGradient id="SVGID_8_" gradientUnits="userSpaceOnUse" x1="143.656" y1="345.398" x2="140.067" y2="365.099"><stop offset="0" stop-color="#fcada2"/><stop offset="1" stop-color="#fec8c1"/></linearGradient><path class="st22" d="M146.65 352.78c1.59 2.48 1.33 9.97.01 14.11-1.43 4.5-9.42 11.71-9.79 3.42-.08-1.68.04-3.28.27-6.03-.59 1.03-2.27 1.05-2.68-.37-.39-1.36-.32-4.53-.07-6.32.23-1.66.32-2.95 2.17-5.11 1.47-1.36.26-5.05 1.45-6.15 1.34-1.24 5.89-.57 7.92.38 1.05.47-1.12 4.24.72 6.07z"/><linearGradient id="SVGID_9_" gradientUnits="userSpaceOnUse" x1="58.6" y1="285.79" x2="49.754" y2="269.262"><stop offset="0" stop-color="#fcada2"/><stop offset="1" stop-color="#fec8c1"/></linearGradient><path class="st23" d="M52.03 283.4c-2.79-.94-7.24-6.97-8.79-11.03-1.68-4.41.08-15.03 5.54-8.77 1.1 1.26 2.33 3.51 3.86 5.82-3.52-.23-3.98-3.5-.2-3.3 3.78.2 5.35 2.75 6.26 4.31.85 1.44 1.09 2.98.99 5.83-.31 1.98 3.36 5.23 3.11 6.83-.28 1.81-4.25 4.11-6.44 4.64-1.1.26-1.75-4.04-4.33-4.33z"/><path class="st21" d="M134.52 348.82c3.95 1.75 8.29 1.83 12.83.9 2.08-7.84 4.36-30.99 4.99-39.95 1.48-20.96-13.59-19.97-15.26-1.62-.81 8.87-1.92 30.21-2.56 40.67z"/><path class="st24" d="M134.05 277.24c-1.55 10.79-.08 18.34.84 22.43 2.26 10-1.3 25.12.72 38.21.86-20.33 4.44-27.28 1.82-39.01-.91-4.11-3.62-10.85-3.38-21.63z"/><path class="st21" d="M63.87 280.16c-3.99 1.43-7.41 4.16-10.45 7.66 3.56 6.3 12.74 22.37 16.91 28.43 9.76 14.18 22.51 2.3 14.26-10.36-3.99-6.11-15.26-17.28-20.72-25.73z"/><path class="st0" d="M58.14 276.7l-23.6-37.56c-.62-.99-1.95-1.28-2.94-.65s-1.28 1.95-.65 2.94l23.6 37.56c.62.99 1.95 1.28 2.94.65.98-.63 1.27-1.94.65-2.94z"/><linearGradient id="SVGID_10_" gradientUnits="userSpaceOnUse" x1="112.654" y1="252.862" x2="111.744" y2="243.918"><stop offset="0" stop-color="#f98678"/><stop offset="1" stop-color="#fca599"/></linearGradient><path class="st25" d="M104.36 253.34l1.31-8.28 12.7-5.07c1.01 5.55 1.35 6.95 2.59 12.57-.8 5.04-14.77 5.89-16.6.78z"/><linearGradient id="SVGID_11_" gradientUnits="userSpaceOnUse" x1="113.133" y1="238.056" x2="103.819" y2="208.768"><stop offset="0" stop-color="#fcada2"/><stop offset="1" stop-color="#fec8c1"/></linearGradient><path class="st26" d="M89.59 209.66c10.82-13.59 23.13-13.35 36.09-.12.57 5.06.54 9.6.05 13.63 4.54 1.82 3.21 8.75-2.38 9.75-9.83 24.38-41.82 16.57-33.76-23.26z"/><path class="st6" d="M132.24 229.25c3.81-15.49 5.4-41.2-13.29-37.44-5.7 1.14-8.61-8.71-20.16-5.75-11.17 2.87-15.15 9.74-17.45 16.12-2.11 5.83-2.38 25.46 12.47 15.81 5.27-3.42 12.78-5.31 16.39 8.34 3 11.33 3.88 19.01 9.2 18.98 8.15-.04 10.92-8.24 12.84-16.06z"/><path class="st27" d="M464.46 22.77c.02-.02 3.03-3.44 5.82-5.89 2.2-1.92 4.28-3.31 4.49-1.47.09.78-.43 1.78-.76 2.69.58-.61 2.82-3.18 5.29-5.27 2.72-2.31 5.41-3.28 4.53-.81-.63 1.77-.07 1.27-1.45 3.27.25-.09 2-1.88 5.7-4.96 3.81-3.17 7.23-5.09 4.85-.2-4.18 8.62-9.84 19.88-18.77 26.08-8.57 5.95-16.45 8.37-18.23-2.16-.45-2.65.77-6.94 3.12-10.06 2.53-3.35 7.03-5.66 5.41-1.22z"/><path class="st28" d="M464.76 94.94c-2.41-.33-1.91-3.98.49-3.66 1.85.07 3.61.3 5.36.71.9-1.15 1.71-2.84 2.32-4.84.3-.97 1.34-1.51 2.31-1.2.97.3 1.51 1.34 1.2 2.31-.23 1.22-.69 2.86-1.72 4.29 1.25-.03 2.66.13 3.81.49 2.41.33 1.91 3.98-.49 3.66-2-.51-4.01-.85-6.14-.82-.96 1.26-2.17 2.51-3.62 3.56-1.73 1.7-4.32-.93-2.59-2.63.62-.38 1.15-.95 1.57-1.54-.78-.24-1.59-.32-2.5-.33z"/><path class="st28" d="M474.96 101.11c-2.41-.32-1.91-3.98.49-3.66 1.85.07 3.61.3 5.36.71.89-1.15 1.71-2.84 2.32-4.84.3-.97 1.34-1.51 2.31-1.2.97.3 1.51 1.34 1.2 2.32-.23 1.22-.69 2.86-1.72 4.29 1.25-.04 2.66.13 3.81.49 2.41.33 1.91 3.98-.49 3.66-2-.52-4.01-.85-6.14-.82-.96 1.26-2.18 2.51-3.62 3.56-1.73 1.7-4.32-.93-2.59-2.63.62-.38 1.15-.95 1.57-1.55-.77-.25-1.58-.32-2.5-.33z"/><path class="st27" d="M474.1 91.01c-1.59-.28-2.57-2.24-2.19-4.39.38-2.14 1.98-3.65 3.56-3.36 1.59.28 2.57 2.24 2.19 4.38-.38 2.14-1.97 3.65-3.56 3.37zm10.21 6.16c-1.59-.28-2.57-2.24-2.19-4.38.38-2.14 1.97-3.65 3.56-3.36 1.59.28 2.57 2.24 2.19 4.38-.38 2.14-1.97 3.65-3.56 3.36z"/><path class="st21" d="M459.92 41.81c-10.09-11.11-.3-17.05 9.62-15.85 10.57 1.28 15.12 8.23 19.39 18.56 9.75 23.62 20.78 39.66 36.09 56.64 10.66 11.82 7.27 12.57-6.05 2.14-6.82-5.34-11.42-11.24-16.38-17.73-7.38 1.86-12.67 5.33-20.05 7.2-18.12-9.03-26.99-21.23-19.84-39.42-.9-4.9-1.89-6.64-2.78-11.54z"/><path class="st29" d="M459.92 41.81c-.81-.89-1.49-1.75-2.06-2.58.41-4.71 2.5-5.15 5.21-4.2 2.39-3.71 8.9-5.1 13.08-1.87 5.52 4.27 5.71 13.1-1.91 15.76 3.34 7.93-3.67 10.48-12.45 6.98.23-.83.59-1.67.9-2.55-.89-4.9-1.88-6.64-2.77-11.54z"/><path class="st28" d="M456.16 53.98c10.53.49 12.34-3.02 7.56-9.21-.51 2.98-2.07 5.52-7.56 9.21z"/><path class="st30" d="M463.9 45.01c-2.14-3.99-4.21-6.84-9.37-5.14-5.16 1.7-10.28 14.22-3.61 26.49 1.83-17.62 9.57-7.48 12.98-21.35z"/><path class="st31" d="M469.05 45.44a4.98 4.98 0 0 1-4.03-5.77 4.98 4.98 0 0 1 5.77-4.03 4.98 4.98 0 0 1 4.03 5.77 4.972 4.972 0 0 1-5.77 4.03z"/><path class="st28" d="M469.36 43.7a3.21 3.21 0 1 1 1.123-6.322 3.21 3.21 0 0 1-1.123 6.322z"/><path class="st27" d="M488.06 92.58c.03.03 4.7 4.91 8.61 8.1 3.08 2.5 5.76 4.08 4.91.6-.36-1.47-1.39-3.06-2.21-4.58.87.85 4.37 4.52 7.78 7.21 3.78 2.97 7.09 3.31 4.58-.62-1.9-2.98-4.29-5.78-6.68-8.81.28.05 6.39 6 11.5 9.93 5.25 4.04 9.44 5.98 4.52-1.9-8.66-13.87-20.17-31.92-31.79-39.15-11.15-6.94-19.68-7.7-15.35 12.47 1.09 5.08 4.62 12.39 8.52 17.03 4.2 4.98 9.59 7.13 5.61-.28z"/><path class="st1" d="M471.01 41.16a1.672 1.672 0 0 1-1.36-1.95c.16-.91 1.04-1.52 1.95-1.36.91.16 1.52 1.04 1.36 1.95-.16.91-1.03 1.52-1.95 1.36z"/><path class="st11" d="M495.22 440.02c-1.12-1.14-3.6-2.63-4.09-9.7-.26-3.8 0-7.05 1.17-9.79l-3.19-8.52c-1.94-4.89-1.11-5.28 3.5-3.58l9.06 3.12c5.13-2.16 11.28-2.34 16.49-.52l8.97-3.35c4.55-1.82 5.4-1.46 3.59 3.49l-2.82 8.16c1.39 2.87 1.81 6.38 1.39 10.59-.53 5.31-1.98 7.41-2.53 8.67-.72 1.65.6 6.69 2.41 8.96"/><path class="st11" d="M494.09 438.21c-1.67 1.68-4.15 3.08-7.81 4.71 2.85-2.38 4.17-4.02 5.92-6.48-4.35.86-8.18.7-13.19-.2 4.69-.4 8.05-1.09 12.15-2.84-2.86-1.12-3.93-2.31-6.23-4.26 2.87 1.24 5.31 1.91 8.13 2.35.35 2.24.69 4.48 1.03 6.72z"/><path class="st11" d="M602.84 387.91c-3.16-10.27-19.23-9.01-28.34 6.22-3.97 6.63-2.31 14.71 1.63 20.95 2.56 4.07 6.63 13.54 5.52 19.9-1 5.76-4.54 4.09-8.12 2.78-14.9-5.45-27.8 5.19-40.15-.1-3.3-1.41-4.59-3.83-4.37-8.24.16-3.07-.23-5.78-1.18-8.05-.91-2.17-12.44-1.71-20.15-1.43-7.37.26-13.87-.09-15.6 3.73-1.27 2.8-1.37 4.12-.52 8.09 1.21 5.64 4.59 7.86 4.08 17.85-1.55 29.74 39.75 47.66 67.99 40.99 29.04-6.86 30.95-31.79 28.26-49.58-2.44-16.17-8.45-25.05-5.92-36 2.25-9.73 20.98-3.73 16.87-17.11z"/><path class="st12" d="M585.16 383.49c-1.48.8-2.95 1.8-4.37 3.03 1.81-.02 8.9.32 4.37-3.03zm-9.81 9.28c-.29.44-.58.89-.85 1.35-.81 1.35-1.38 2.76-1.75 4.2.2-.03.37-.03.48-.03 3.82.14 9.67-2.62 4.91-4.1-1.34-.4-2.23-.89-2.79-1.42zm-2.8 13.35c.3 1.66.8 3.29 1.45 4.86 5.55-5.4 2.15-4.7-1.45-4.86zm.48 31.47c-2.79-.96-5.51-1.36-8.16-1.43 2.2 2.05 2.92 5.26 3.62 6.96 4.7 11.43 2.02-2.62 4.54-5.53zm-12-1.29c-.13 3.65 1.85 12.83 4.45 15.6 2.24 2.4-1.39 2.21-5.18-.76-5.02-3.92-8.09-9.61-9.58-13.14 3.35-.66 6.78-1.4 10.31-1.7zm-12.05 2.03c-1.69.31-3.36.57-5.02.72 1.02 2.64 2.8 4.67 5.06 4.53.98-.05-.99-2.92-.04-5.25z"/><path class="st11" d="M528.03 433.09c2.14 1.22 5 1.92 9.1 2.54-3.51-1.59-5.28-2.86-7.71-4.83 4.58-.36 8.36-1.58 13.11-3.87-4.79.9-8.34 1.14-12.92.54 2.54-1.92 3.28-3.4 5.04-5.98-2.52 2.04-4.77 3.38-7.47 4.6.29 2.33.57 4.67.85 7zm31.64 49.68c10.34 4.85 6.24 20.04 15.48 14.92 2.25-1.24.48-4.9 2.41-9.62 1.06-2.59 1.26-5.11-1.66-7.49-3.49-1.96-12.05-1.27-16.23 2.19z"/><path class="st11" d="M549.34 481.28c8.92 7.14 1.36 20.94 11.54 18.13 2.48-.68 1.62-4.65 4.6-8.78 1.64-2.27 2.42-4.68.14-7.67-2.92-2.72-11.41-4.06-16.28-1.68zm-15.41 1.83c-10.86 3.56-8.63 19.13-17.18 12.93-2.09-1.51.12-4.93-1.22-9.84-.74-2.71-.62-5.23 2.56-7.23 3.69-1.53 12.11.2 15.84 4.14z"/><path class="st11" d="M543.48 480.4c-8.92 7.14-1.37 20.94-11.54 18.13-2.48-.68-1.62-4.65-4.6-8.78-1.64-2.27-2.42-4.68-.14-7.67 2.92-2.73 11.41-4.07 16.28-1.68z"/></svg>