<svg width="40" height="37" viewBox="0 0 40 37" fill="none" xmlns="http://www.w3.org/2000/svg"><path fill-rule="evenodd" clip-rule="evenodd" d="M38.4 26.8C44.5 0 16.6-7.8 9.4 8.7 3.7 21.8.9 23.5.8 27.6c-.4 10.7 34.5 12.8 37.6-.8z" fill="#F8F6FB"/><path fill-rule="evenodd" clip-rule="evenodd" d="M16.9 28.7l5.5-.8c.2 0 .3.1.4.3l.5 3.4c0 .2-.1.3-.3.4l-5.5.8c-.2 0-.3-.1-.4-.3l-.5-3.4c0-.2.1-.3.3-.4z" fill="#8A6CAF"/><path fill-rule="evenodd" clip-rule="evenodd" d="M19.1 28l.9-.1c.1 0 .2.1.2.2l.1.4c0 .1-.1.2-.2.2l-.9.1c-.1 0-.2-.1-.2-.2v-.4c0-.1 0-.2.1-.2z" fill="#B39CCE"/><path fill-rule="evenodd" clip-rule="evenodd" d="M19.8 30c-.1 0-.1-.1-.1-.1 0-.1 0-.2.1-.2l2.5-.3c.1 0 .1.1.1.1 0 .1 0 .2-.1.2l-2.5.3zm0-.6c-.1 0-.1-.1-.1-.1 0-.1 0-.2.1-.2l1.6-.2c.1 0 .1.1.1.1 0 .1 0 .2-.1.2l-1.6.2zm.1 1.1c-.1 0-.1-.1-.1-.1 0-.1 0-.2.1-.2l2-.3c.1 0 .1.1.1.1 0 .1 0 .2-.1.2l-2 .3zm-.7.8l-1.6.2c-.1 0-.2-.1-.2-.2l-.2-1.7c0-.1.1-.2.2-.2l1.6-.2c.1 0 .2.1.2.2l.2 1.7c0 .1 0 .2-.2.2z" fill="#fff"/><path fill-rule="evenodd" clip-rule="evenodd" d="M19.2 31.3l-1.6.2h-.1c0-.1.1-.4.3-.5 0-.1.1-.3 0-.5-.1 0-.1.1-.2.1l.2-.2h-.4c.1 0 .2 0 .4-.1-.1 0-.1-.1-.2-.1.1 0 .1.1.2.1v-.2l-.2-.1c-.1-.1-.1-.1.1-.1l.3.1c.1-.1.3-.1.5-.1l.2-.1c.1-.1.1-.1.1.1v.2c0 .1.1.2.1.3.1 0 .1-.1.2-.1-.1.1-.1.1-.1.2h.4c-.1.1-.2.1-.4.1.1.1.1.1.2.1-.1 0-.2 0-.2-.1 0 0 0 .2.2.4.2.1.3.3.4.4-.2-.1-.3-.1-.4-.1zm-3.5-1.8c.2.2.4.3.8.5-.3-.2-.4-.4-.6-.7.4.1.8.1 1.4 0-.5 0-.8-.1-1.3-.3.3-.1.4-.2.6-.4-.3.1-.5.2-.8.2 0 .2-.1.4-.1.7z" fill="#56A9BE"/><path fill-rule="evenodd" clip-rule="evenodd" d="M4.5 24.3c.3-1.1 2-.9 2.9.6.4.7.2 1.5-.2 2.2-.3.4-.7 1.4-.6 2.1.1.6.5.4.8.3 1.5-.6 2.9.5 4.1 0 .3-.1.5-.4.5-.9-.1-2.8 4.5-2.5 3.9.2-.1.6-.5.8-.4 1.8.2 3.1-4.1 4.9-7 4.2-3-.7-3.2-3.3-2.9-5.1.3-1.7.9-2.6.6-3.7-.2-1-2.2-.3-1.7-1.7z" fill="#56A9BE"/><path fill-rule="evenodd" clip-rule="evenodd" d="M6.3 23.8c.2.1.3.2.5.3-.2 0-1 .1-.5-.3zm1 1l.1.1c.1.1.1.3.2.4-.4 0-1-.3-.5-.4.1 0 .2-.1.2-.1zm.3 1.4c0 .2-.1.3-.1.5-.6-.6-.3-.5.1-.5zm-.1 3.2c.3-.1.6-.1.8-.1-.1.2-.2.5-.3.7-.5 1.2-.2-.3-.5-.6zm1.3-.1c0 .4-.2 1.3-.5 1.6-.2.2.1.2.5-.1.5-.4.8-1 1-1.4-.3 0-.6-.1-1-.1zm1.2.2c.2 0 .3.1.5.1-.1.2-.2.4-.5.4-.1 0 .1-.3 0-.5z" fill="#4998AC"/><path fill-rule="evenodd" clip-rule="evenodd" d="M12.3 27.6c-.1-.3-.2-.6-.3-1-.2-.5-.1-.5.4-.3.3.1.7.3 1 .4-.3.4-.7.7-1.1.9zm3.6.2c.1-.3.3-.6.4-.9.2-.5.1-.5-.3-.4-.4.1-.7.2-1.1.3.3.4.6.7 1 1zm-3.7 1.1c-.2.1-.5.2-.9.3.4-.2.5-.3.8-.5-.5 0-.9-.2-1.4-.4.5.1.9.1 1.3.1-.3-.2-.3-.4-.5-.6.3.2.5.3.8.5 0 .2-.1.4-.1.6zm-3.3 5.3c-1.1.5-.6 2.1-1.6 1.5-.2-.1 0-.5-.2-1-.1-.3-.1-.5.2-.8.3-.1 1.2 0 1.6.3z" fill="#56A9BE"/><path fill-rule="evenodd" clip-rule="evenodd" d="M10.2 34.1c-.9.7-.1 2.2-1.2 1.9-.3-.1-.2-.5-.5-.9-.2-.2-.3-.5 0-.8.3-.3 1.2-.4 1.7-.2zm4.6-3.6c.9.8 2.8-.5 2.7.6 0 .3-.7.3-1 .7-.2.2-.9.5-1.2.3-.4-.2-.7-1.1-.5-1.6zm-2.6 4c1.2 0 1.4 1.6 2.1.7.2-.2-.2-.5-.2-1 0-.3-.1-.5-.5-.6-.4-.1-1.1.4-1.4.9z" fill="#56A9BE"/><path fill-rule="evenodd" clip-rule="evenodd" d="M2 18.5c.1.4.1.6.8.6.3 0 .6-.2.6-.4s-.3-.5-.7-.7c-.4-.1-.8.1-.7.5zm1.1-.6c-.5-.3-.6-.7-.3-1 .1-.2.4-.4.6-.2.4.3.5.6.6.8.1.7-.4.7-.9.4zm1.4-.1c.7.3 1.3-.9.1-1.3-.7-.2-1 0-.7.5.4.2.3.7.6.8zm1.7.5c.2.8-.9.7-.7 1.6.1.5-.3 1.1-.8.9-.5-.2-.4-.6-.7-1.2-.6-1.1 0-1.6.9-1.6.5-.1 1.2-.3 1.3.3zm-3.1 2c-.4-.1-.8-.5-.7-.9.1-.2.5 0 .8-.1.2-.1.5-.1.5.2.2.6-.2.9-.6.8zM9.9 5l5.7-2c.2-.1.4 0 .4.2l1.2 3.5c.1.2 0 .4-.2.4l-5.7 2c-.2.1-.4 0-.4-.2L9.7 5.4c-.1-.1 0-.3.2-.4z" fill="#EDE2F9"/><path fill-rule="evenodd" clip-rule="evenodd" d="M13.3 5.7c-.1 0-.2 0-.2-.1s0-.2.1-.2l2.6-.9c.1 0 .2 0 .2.1s0 .2-.1.2l-2.6.9zm-.2-.5c-.1 0-.2 0-.2-.1s0-.2.1-.2l1.6-.6c.1 0 .2 0 .2.1s0 .2-.1.2l-1.6.6zm.4 1.1c-.1 0-.2 0-.2-.1s0-.2.1-.2l2.1-.8c.1 0 .2 0 .2.1s0 .2-.1.2l-2.1.8zm-.5 1l-1.7.6c-.1 0-.3 0-.3-.1L10.4 6c0-.1 0-.3.1-.3l1.7-.6c.1 0 .3 0 .3.1l.6 1.8c0 .1 0 .2-.1.3z" fill="#fff"/><path fill-rule="evenodd" clip-rule="evenodd" d="M13 7.3l-1.7.6c-.1-.3 0-.7.3-1-.2 0-.4-.2-.5-.4-.1-.3.1-.7.4-.8.3-.1.7.1.8.4.1.2 0 .4-.1.6.4 0 .6.3.8.6zm23.4 21.6c1.4 0 2.5-1.1 2.5-2.5S37.7 24 36.4 24c-1.4 0-2.5 1.1-2.5 2.5s1.1 2.4 2.5 2.4z" fill="#EDE2F9"/><path d="M35.1 25.9l1.3 1.6 2.5-2.9" stroke="#fff" stroke-width=".6" stroke-miterlimit="22.926" stroke-linecap="round" stroke-linejoin="round"/><path fill-rule="evenodd" clip-rule="evenodd" d="M33 34.8l-.3-1.1-1.1.2.2 1c.1 0 1.1-.1 1.2-.1z" fill="url(#a)"/><path fill-rule="evenodd" clip-rule="evenodd" d="M29.9 34.5l-.3-1-1 .2.2.9c.1 0 1-.1 1.1-.1z" fill="url(#b)"/><path fill-rule="evenodd" clip-rule="evenodd" d="M33 34.6c-.6.3-1.1 0-1.4.1-.6.5-.8.7-1.5.7-.7.1-1.1.7-.3.7 1.6 0 2.9 0 3.3-.1.4-.1.6-1.2-.1-1.4z" fill="#37254D"/><path fill-rule="evenodd" clip-rule="evenodd" d="M29.9 34.2c-.6.3-1 0-1.3.1-.6.5-.7.6-1.4.7-.7.1-1.1.7-.3.7 1.5 0 2.7 0 3.1-.1.3-.1.6-1.1-.1-1.4z" fill="#37254D"/><path fill-rule="evenodd" clip-rule="evenodd" d="M30.1 33.5c-.4.3-1.4.6-1.9.2-1-7.4-.9-9.8-1.3-15.5.6 0 1.7 0 3-.2-.2 3.8-.8 6.7.2 15.5z" fill="#5983B1"/><path fill-rule="evenodd" clip-rule="evenodd" d="M33.3 33.9c-.6.2-1.5.6-2.2.3-1.2-7.6-1.1-9.6-1.5-15.4.7 0 2-.3 3.6-.4-.3 3.8-.9 6.4.1 15.5z" fill="#4B75A2"/><path fill-rule="evenodd" clip-rule="evenodd" d="M27.7 9.7c-.1.1.7-.6.9-.6 1-.1 2.1-.1 3 .2 1.9.7 2.6.4 1.4-1.5-.5-.8 0-1.8.2-2.6.7-2.1-.7-4.1-2.9-4.2-1.5 0-4 .9-3.1 3.7.4 1.3.7 2.2.4 2.7-.8 2 .8 1.1.1 2.3z" fill="#37254D"/><path fill-rule="evenodd" clip-rule="evenodd" d="M31.5 8.5L31 10l-.8 1-1.3-1.1-.4-1.4 1-.2v-.9h1.1v1l.9.1z" fill="url(#c)"/><path fill-rule="evenodd" clip-rule="evenodd" d="M28.1 3.8c1.1-1.5 2.4-1.7 3.9-.3.8 5.6-4.8 6-3.9.3z" fill="url(#d)"/><path fill-rule="evenodd" clip-rule="evenodd" d="M27.8 4.7c1.4-1.5 3.7.6 3.6-1.2.5.5.8 1.4.6 2.6.3-.6.4-1 .3-1.8-.1-1.6-.9-2.1-1.9-2.2-2.2-.3-2.8 1-2.6 2.6z" fill="#37254D"/><path fill-rule="evenodd" clip-rule="evenodd" d="M28.5 8.5c-2.3 1.2-2.6 1.7-3.5 5-.2-.3-.3-.6-.4-.9-.3 0-.9.1-1.3 0 1.1 3.4 1.7 4.2 2.8 3 .4-.4.6-.9 1.1-2 .5 1.6-.4 1.9-.4 4.6 1.3 1.2 4.9 1.1 6.3.1 1.2-3.1 1.5-2.5 1.2-7-.1-1.2-1.1-2.6-2.8-2.9-.4.7-.9 1.3-1.3 2-.6-.5-1.1-1.3-1.7-1.9z" fill="#56A9BE"/><path fill-rule="evenodd" clip-rule="evenodd" d="M33.8 19.6c.2.3.1 1.1 0 1.6-.2.5-1 1.3-1.1.4v-.7c-.1.1-.3.1-.3 0v-.7c0-.2 0-.3.2-.6.2-.2 0-.6.2-.7.1-.1.7-.1.9 0 .1.1-.1.5.1.7z" fill="url(#e)"/><path fill-rule="evenodd" clip-rule="evenodd" d="M32.5 19.2c.4.2.9.2 1.4.1.2-.9.5-3.4.6-4.4.2-2.3-1.5-2.2-1.7-.2-.1.9-.3 3.3-.3 4.5z" fill="#56A9BE"/><path fill-rule="evenodd" clip-rule="evenodd" d="M32.4 11.2c-.2 1.2 0 2 .1 2.5.3 1.1-.1 2.8.1 4.2.1-2.3.5-3 .2-4.3-.1-.4-.4-1.2-.4-2.4z" fill="#4998AC"/><path fill-rule="evenodd" clip-rule="evenodd" d="M9.3 12.9L24 11.6c.5 0 .9.3.9.8l.8 9c0 .5-.3.9-.8.9l-14.7 1.3c-.5 0-.9-.3-.9-.8l-.8-9c-.1-.5.3-.9.8-.9z" fill="#8A6CAF"/><path fill-rule="evenodd" clip-rule="evenodd" d="M15.4 11.2l2.3-.2c.3 0 .6.2.6.5l.1 1.1c0 .3-.2.6-.5.6l-2.3.2c-.3 0-.6-.2-.6-.5l-.1-1.1c0-.3.2-.5.5-.6z" fill="#B39CCE"/><path fill-rule="evenodd" clip-rule="evenodd" d="M16.9 16.5c-.2 0-.3-.2-.4-.4 0-.2.1-.4.3-.4l6.7-.6c.2 0 .3.2.4.4 0 .2-.1.4-.3.4l-6.7.6zm-.1-1.4c-.2 0-.3-.2-.4-.4 0-.2.1-.4.3-.4l4.2-.4c.2 0 .3.2.4.4 0 .2-.1.4-.3.4l-4.2.4zm.3 2.9c-.2 0-.3-.2-.4-.4 0-.2.1-.4.3-.4l5.4-.5c.2 0 .3.2.4.4 0 .2-.1.4-.3.4l-5.4.5zm-1.9 2.1l-4.3.4c-.3 0-.6-.2-.6-.5l-.4-4.5c0-.3.2-.6.5-.6l4.3-.4c.3 0 .6.2.6.5l.4 4.5c.1.3-.2.5-.5.6z" fill="#fff"/><path fill-rule="evenodd" clip-rule="evenodd" d="M14.1 19.2s-.3-.2-.4-.2c-.5 0-1 0-1.4.2-.9.4-1.2.3-.7-.6.2-.4 0-.8-.1-1.2-.4-1 .1-1.9 1.1-2.1.7-.1 1.9.2 1.6 1.6-.1.6-.1 1.1 0 1.3.3.8-.5.5-.1 1z" fill="#37254D"/><path fill-rule="evenodd" clip-rule="evenodd" d="M12.2 18.8l.4.6.4.5.5-.6.2-.7h-.5l-.1-.4h-.4v.5l-.5.1z" fill="url(#f)"/><path fill-rule="evenodd" clip-rule="evenodd" d="M13.6 16.4c-.6-.7-1.2-.7-1.8 0-.1 2.7 2.5 2.7 1.8 0z" fill="url(#g)"/><path fill-rule="evenodd" clip-rule="evenodd" d="M13.8 16.8c-.7-.7-1.7.4-1.7-.4-.2.3-.3.7-.2 1.3-.2-.3-.2-.5-.2-.8 0-.8.3-1 .8-1.1 1-.3 1.3.3 1.3 1z" fill="#37254D"/><path fill-rule="evenodd" clip-rule="evenodd" d="M15.2 20.1l-4.3.4c.1-.7.4-1.4 1.4-1.7.2.3.5.6.8.9.2-.3.4-.6.6-1 .8.2 1.2.6 1.5 1.4z" fill="#56A9BE"/><path fill-rule="evenodd" clip-rule="evenodd" d="M22.2 11.6v.6c0 .2-.3.4-.5.2-.1.2-.4.3-.5 0-.1.2-.4.2-.5 0-.2.2-.4.1-.5-.1v-.6c0-.5 1.9-.6 2-.1z" fill="url(#h)"/><defs><linearGradient id="a" x1="32.365" y1="34.657" x2="32.304" y2="34.082" gradientUnits="userSpaceOnUse"><stop stop-color="#F7B9AD"/><stop offset="1" stop-color="#FAD4CC"/></linearGradient><linearGradient id="b" x1="29.288" y1="34.325" x2="29.231" y2="33.782" gradientUnits="userSpaceOnUse"><stop stop-color="#F7B9AD"/><stop offset="1" stop-color="#FAD4CC"/></linearGradient><linearGradient id="c" x1="30.014" y1="10.819" x2="30.015" y2="8.132" gradientUnits="userSpaceOnUse"><stop stop-color="#F18A77"/><stop offset="1" stop-color="#F6B0A2"/></linearGradient><linearGradient id="d" x1="30.068" y1="7.606" x2="30.067" y2="3.605" gradientUnits="userSpaceOnUse"><stop stop-color="#F7B9AD"/><stop offset="1" stop-color="#FAD4CC"/></linearGradient><linearGradient id="e" x1="33.479" y1="18.797" x2="33.08" y2="20.988" gradientUnits="userSpaceOnUse"><stop stop-color="#F7B9AD"/><stop offset="1" stop-color="#FAD4CC"/></linearGradient><linearGradient id="f" x1="13.037" y1="19.738" x2="12.935" y2="18.586" gradientUnits="userSpaceOnUse"><stop stop-color="#F18A77"/><stop offset="1" stop-color="#F6B0A2"/></linearGradient><linearGradient id="g" x1="12.879" y1="18.238" x2="12.725" y2="16.483" gradientUnits="userSpaceOnUse"><stop stop-color="#F7B9AD"/><stop offset="1" stop-color="#FAD4CC"/></linearGradient><linearGradient id="h" x1="21.218" y1="12.252" x2="21.2" y2="11.528" gradientUnits="userSpaceOnUse"><stop stop-color="#F7B9AD"/><stop offset="1" stop-color="#FAD4CC"/></linearGradient></defs></svg>