<svg width="16" height="17" viewBox="0 0 16 17" fill="none" xmlns="http://www.w3.org/2000/svg">
<path fill-rule="evenodd" clip-rule="evenodd" d="M12 6.65656C12 7.50517 11.8057 8.31049 11.4658 9.03487L16 13.4087V16.3028H13V14.3728H11.0001V12.4442H9.00009L8.46577 11.9285C7.71286 12.2578 6.87984 12.4442 6.00003 12.4442C2.6865 12.4442 0 9.85492 0 6.65656C0 3.46098 2.6865 0.873047 6.00003 0.873047C9.31355 0.873047 12 3.46098 12 6.65656ZM1.99996 6.65656C1.99996 8.7888 3.79098 10.5155 6.00003 10.5155C8.20897 10.5155 10.0001 8.7888 10.0001 6.65656C10.0001 4.52708 8.20897 2.80106 6.00003 2.80106C3.79098 2.80106 1.99996 4.52708 1.99996 6.65656ZM4.00005 6.65656C4.00005 5.59098 4.89451 4.72723 6.00003 4.72723C7.10553 4.72723 7.99999 5.59098 7.99999 6.65656C7.99999 7.72426 7.10553 8.58524 6.00003 8.58524C4.89451 8.58524 4.00005 7.72426 4.00005 6.65656Z" fill="white"/>
</svg>
