<svg width="308" height="53" viewBox="0 0 308 53" fill="none" xmlns="http://www.w3.org/2000/svg">
<path fill-rule="evenodd" clip-rule="evenodd" d="M72.6621 28.6322V0.0676925H82.016C85.4051 0.0676925 87.9808 0.744572 89.8787 2.03065C91.7766 3.31673 92.7255 5.27969 92.7255 7.85185C92.7255 9.13793 92.3866 10.3563 91.7088 11.3717C91.031 12.387 90.0142 13.1992 88.7264 13.673C90.4887 14.0115 91.8443 14.7561 92.7255 15.9744C93.6067 17.1928 94.0811 18.6143 94.0811 20.2388C94.0811 22.9464 93.2 25.0447 91.3699 26.4661C89.5398 27.8876 87.0318 28.5645 83.7105 28.5645H72.6621V28.6322ZM78.3558 15.9744V24.2324H83.7105C85.2017 24.2324 86.354 23.894 87.1674 23.2171C87.9808 22.5402 88.3875 21.5926 88.3875 20.3065C88.3875 18.9527 87.9808 17.8697 87.2352 17.1252C86.4218 16.3806 85.2695 15.9744 83.6428 15.9744H78.3558ZM78.3558 11.9808H82.1516C83.7105 11.9808 84.8628 11.6424 85.6762 11.0332C86.4896 10.424 86.8963 9.47637 86.8963 8.25798C86.8963 6.90422 86.4896 5.95659 85.6762 5.34739C84.8628 4.7382 83.575 4.39974 81.9482 4.39974H78.288V11.9808H78.3558ZM108.519 28.6322C108.315 28.1584 108.112 27.6168 107.976 27.0753C107.841 26.5338 107.705 25.9923 107.637 25.4508C107.027 26.4661 106.282 27.3461 105.333 28.023C104.384 28.6999 103.232 29.0383 101.876 29.0383C99.6392 29.0383 97.9447 28.4291 96.7246 27.3461C95.5046 26.1954 94.8945 24.6385 94.8945 22.6756C94.8945 20.5772 95.7079 19.0204 97.3347 17.8697C98.9614 16.719 101.266 16.1775 104.384 16.1775H107.637V14.4853C107.637 13.47 107.366 12.6577 106.824 12.1162C106.282 11.5747 105.468 11.304 104.452 11.304C103.503 11.304 102.825 11.507 102.283 11.9808C101.808 12.4547 101.537 13.0639 101.537 13.8084H96.0468L95.979 13.673C95.9112 11.9132 96.6568 10.3563 98.3514 9.00256C99.9781 7.71648 102.147 7.0396 104.858 7.0396C107.434 7.0396 109.468 7.64879 111.027 8.93487C112.586 10.2209 113.399 12.0485 113.399 14.4176V23.1494C113.399 24.1647 113.467 25.0447 113.602 25.9246C113.738 26.8046 114.009 27.6845 114.348 28.5645H108.519V28.6322ZM103.299 24.7739C104.316 24.7739 105.197 24.5032 105.943 24.0294C106.756 23.5555 107.231 22.9463 107.57 22.3371V19.3589H104.316C103.096 19.3589 102.147 19.6296 101.537 20.2388C100.927 20.848 100.588 21.5926 100.588 22.4725C100.588 23.2171 100.792 23.7586 101.266 24.1647C101.808 24.5709 102.486 24.7739 103.299 24.7739ZM122.685 2.16603H116.991V7.37804H113.873V11.3717H116.991V22.2018C116.991 24.5709 117.534 26.2631 118.618 27.3461C119.703 28.4291 121.194 28.9706 123.16 28.9706C123.77 28.9706 124.38 28.9029 124.922 28.8352C125.464 28.7675 126.006 28.5645 126.616 28.3614L126.142 24.2324C125.871 24.3001 125.6 24.3678 125.396 24.3678C125.193 24.3678 124.922 24.4355 124.583 24.4355C124.041 24.4355 123.566 24.2324 123.227 23.894C122.888 23.5555 122.685 22.9464 122.685 22.1341V11.304H126.277V7.31035H122.685V2.16603ZM136.919 19.6973L137.123 20.848H137.258L141.325 7.37804H147.493L138.885 31.7458C138.275 33.235 137.461 34.521 136.445 35.6041C135.428 36.6194 133.869 37.1609 131.768 37.1609C131.293 37.1609 130.819 37.0932 130.412 37.0255C130.005 36.9578 129.531 36.8225 128.921 36.6871L129.599 32.4904C129.734 32.4904 129.938 32.5581 130.141 32.5581C130.344 32.5581 130.548 32.5581 130.683 32.5581C131.632 32.5581 132.378 32.355 132.852 31.8812C133.395 31.4074 133.733 30.8659 134.005 30.1213L134.682 28.4968L127.159 7.31035H133.327L136.919 19.6973ZM156.915 29.0383C158.609 29.0383 160.236 28.7676 161.66 28.3614C163.083 27.8876 164.235 27.2784 165.116 26.6015L163.557 23.0817C162.608 23.6232 161.66 24.0294 160.778 24.3001C159.897 24.5709 158.813 24.7062 157.525 24.7062C155.966 24.7062 154.814 24.2324 154 23.3525C153.187 22.4725 152.78 21.2541 152.645 19.8327L152.712 19.6973H165.388V16.719C165.388 13.7407 164.642 11.4393 163.083 9.67944C161.592 7.91955 159.355 7.0396 156.508 7.0396C153.458 7.0396 151.086 8.05493 149.391 10.0856C147.629 12.1162 146.815 14.6884 146.815 17.8697V18.682C146.815 21.728 147.696 24.2324 149.459 26.1954C151.289 28.023 153.729 29.0383 156.915 29.0383ZM156.508 11.4393C157.66 11.4393 158.474 11.7778 158.948 12.5223C159.491 13.2669 159.694 14.2146 159.694 15.433V15.8391H152.712L152.645 15.7714C152.78 14.4853 153.187 13.4023 153.797 12.6577C154.475 11.7778 155.356 11.4393 156.508 11.4393ZM174.335 20.7126L174.674 22.6756H174.809L175.216 20.7126L178.741 7.37804H184.705L177.453 28.5645H171.962L164.71 7.37804H170.675L174.335 20.7126ZM192.568 19.6973H191.145V28.5645H185.383V0H191.145V15.3653H192.432L197.516 7.37804H204.159L197.177 17.0575L205.04 28.6322H198.465L192.568 19.6973ZM217.647 28.6322H223.341C223.002 27.7522 222.799 26.8723 222.595 25.9923C222.46 25.1124 222.392 24.1647 222.392 23.2171V14.4853C222.392 12.1162 221.579 10.2886 220.02 9.00256C218.461 7.71648 216.359 7.10727 213.851 7.10727C211.208 7.10727 209.039 7.78417 207.344 9.07025C205.718 10.3563 204.904 11.9132 204.972 13.7407V13.8761H210.462C210.462 13.0638 210.734 12.4547 211.208 12.0485C211.75 11.5747 212.428 11.3717 213.377 11.3717C214.462 11.3717 215.207 11.6424 215.749 12.1839C216.292 12.7254 216.563 13.5377 216.563 14.553V16.2452H213.309C210.259 16.2452 207.887 16.7867 206.26 17.9374C204.633 19.0881 203.888 20.7126 203.888 22.7433C203.888 24.7062 204.498 26.2631 205.718 27.4138C206.938 28.5645 208.632 29.106 210.869 29.106C212.225 29.106 213.377 28.7675 214.326 28.0907C215.275 27.4138 216.088 26.5338 216.631 25.5185C216.698 26.06 216.834 26.6015 216.969 27.143C217.241 27.6168 217.444 28.0907 217.647 28.6322ZM212.428 24.7739C211.615 24.7739 210.937 24.5709 210.462 24.1647C209.988 23.7586 209.785 23.1494 209.785 22.4725C209.785 21.5926 210.123 20.848 210.734 20.2388C211.344 19.6296 212.292 19.3589 213.513 19.3589H216.766V22.3371C216.495 23.014 215.953 23.5555 215.139 24.0294C214.258 24.5032 213.377 24.7739 212.428 24.7739Z" fill="#5F6061"/>
<path fill-rule="evenodd" clip-rule="evenodd" d="M232.491 28.6322H226.798V23.5556H232.491V28.6322Z" fill="#DC662D"/>
<path fill-rule="evenodd" clip-rule="evenodd" d="M259.604 28.6324H253.843L242.32 9.3412H242.184V28.6324H236.49V0.0678864H242.184L253.707 19.2914H253.843V0.0678864H259.604V28.6324Z" fill="#DC662D"/>
<path fill-rule="evenodd" clip-rule="evenodd" d="M280.074 16.0423H269.5V24.2326H282.107V28.6324H263.739V0.0678864H282.04V4.46763H269.5V11.6426H280.074V16.0423Z" fill="#DC662D"/>
<path fill-rule="evenodd" clip-rule="evenodd" d="M308 4.46763H299.798V28.6324H294.105V4.46763H286.039V0.0678864H308V4.46763Z" fill="#DC662D"/>
<path fill-rule="evenodd" clip-rule="evenodd" d="M19.0463 0.339294H38.093L28.6035 16.8553L19.0463 33.3035L9.55682 16.8553L19.0463 0.339294Z" fill="#DC662D"/>
<path fill-rule="evenodd" clip-rule="evenodd" d="M0 33.3027H19.0467H38.0934L28.6039 49.8187H9.55722L0 33.3027Z" fill="#5F6061"/>
<path fill-rule="evenodd" clip-rule="evenodd" d="M28.604 16.8544H47.6507L57.2079 33.3027L47.6507 49.8186L38.0934 33.3027L28.604 16.8544Z" fill="#5F6061"/>
<path fill-rule="evenodd" clip-rule="evenodd" d="M80.457 42.9144H77.678V49.7509H75.3734V42.9144H72.6621V41.1545H80.457V42.9144ZM81.7449 49.7509V41.1545H85.3373C86.4896 41.1545 87.3708 41.3576 87.9808 41.7637C88.5908 42.1699 88.9297 42.7791 88.9297 43.5236C88.9297 43.9298 88.7942 44.2682 88.523 44.6066C88.2519 44.9451 87.8452 45.1481 87.3708 45.3512C88.0486 45.4866 88.523 45.6896 88.8619 46.0958C89.2009 46.4342 89.3364 46.8404 89.3364 47.3142C89.3364 48.1264 89.0653 48.7356 88.4552 49.1418C87.8452 49.5479 86.9641 49.7509 85.8118 49.7509H81.7449ZM84.1172 46.1635V47.9911H85.9473C86.354 47.9911 86.6251 47.9234 86.8285 47.788C87.0318 47.6526 87.0996 47.3819 87.0996 47.1111C87.0996 46.8403 87.0318 46.5696 86.8285 46.4342C86.6251 46.2988 86.354 46.1635 85.8795 46.1635H84.1172ZM84.1172 44.6743H85.4729C85.8795 44.6743 86.2185 44.6066 86.4218 44.4713C86.6251 44.3359 86.7607 44.1328 86.7607 43.8621C86.7607 43.5236 86.6251 43.3206 86.4218 43.1852C86.2185 43.0498 85.8795 42.9821 85.4051 42.9821H84.1172V44.6743ZM90.4887 45.3512C90.4887 44.0651 90.8276 43.0498 91.5732 42.1699C92.3188 41.3576 93.2678 40.9515 94.5556 40.9515C95.8435 40.9515 96.7924 41.3576 97.538 42.1699C98.2836 42.9821 98.6225 44.0651 98.6225 45.3512V45.4866C98.6225 46.7727 98.2836 47.8557 97.538 48.6679C96.7924 49.4802 95.8435 49.8863 94.5556 49.8863C93.2678 49.8863 92.3188 49.4802 91.5732 48.6679C90.8276 47.8557 90.4887 46.7727 90.4887 45.4866V45.3512ZM92.7933 45.5543C92.7933 46.3665 92.9288 46.9757 93.2 47.4495C93.4711 47.9234 93.9456 48.1264 94.5556 48.1264C95.1656 48.1264 95.5723 47.8557 95.8435 47.3818C96.1146 46.908 96.2501 46.2988 96.2501 45.4866V45.3512C96.2501 44.6066 96.1146 43.9974 95.8435 43.4559C95.5723 42.9821 95.0979 42.7114 94.4878 42.7114C93.8778 42.7114 93.4711 42.9821 93.2 43.4559C92.9288 43.9298 92.7933 44.539 92.7933 45.2835V45.5543ZM103.638 48.1264C104.045 48.1264 104.384 47.991 104.587 47.788C104.858 47.5172 104.926 47.2465 104.926 46.8404H107.027V46.908C107.027 47.788 106.756 48.5326 106.079 49.0741C105.401 49.6833 104.587 49.954 103.571 49.954C102.283 49.954 101.334 49.5479 100.588 48.7356C99.9104 47.9234 99.5715 46.908 99.5715 45.622V45.3512C99.5715 44.0651 99.9104 43.0498 100.588 42.2376C101.266 41.4253 102.283 41.0191 103.503 41.0191C104.52 41.0191 105.401 41.2899 106.011 41.8991C106.621 42.5083 106.96 43.3206 106.96 44.2682V44.3359H104.858C104.858 43.8621 104.723 43.5236 104.52 43.2529C104.316 42.9821 103.977 42.8467 103.571 42.8467C103.028 42.8467 102.622 43.0498 102.418 43.3882C102.147 43.7944 102.012 44.2682 101.944 44.8774H104.384V46.2989H102.012V46.3665C102.079 46.908 102.215 47.3818 102.418 47.7203C102.689 47.991 103.096 48.1264 103.638 48.1264ZM119.838 42.9144H117.059V49.7509H114.755V42.9144H112.043V41.1545H119.838V42.9144ZM124.651 49.954C123.363 49.954 122.346 49.5479 121.668 48.8033C120.923 47.991 120.584 46.9757 120.584 45.7573V45.4189C120.584 44.1328 120.923 43.0498 121.601 42.2376C122.278 41.4253 123.227 41.0191 124.515 41.0191C125.667 41.0191 126.549 41.3576 127.159 42.1022C127.769 42.7791 128.108 43.7267 128.108 44.9451V46.1635H122.956V46.2312C123.024 46.8404 123.16 47.3142 123.498 47.6526C123.837 47.9911 124.312 48.1941 124.922 48.1941C125.464 48.1941 125.871 48.1264 126.277 48.0587C126.616 47.9234 127.023 47.788 127.43 47.5849L128.04 49.0064C127.701 49.2771 127.226 49.5479 126.616 49.6833C125.939 49.8186 125.329 49.8863 124.651 49.954ZM124.447 42.7791C123.973 42.7791 123.634 42.9144 123.363 43.2529C123.092 43.5913 122.956 43.9974 122.888 44.539V44.6066H125.735V44.4036C125.735 43.9297 125.6 43.5236 125.396 43.1852C125.261 42.9144 124.922 42.7791 124.447 42.7791ZM136.851 41.1545V49.7509H134.547V42.9821H132.513V44.8774C132.513 46.5696 132.242 47.788 131.768 48.6003C131.226 49.4125 130.344 49.8186 129.124 49.8186H128.785V47.9911H129.057C129.599 47.9911 129.938 47.788 130.073 47.3142C130.209 46.908 130.344 46.0958 130.344 44.8774V41.2222H136.851V41.1545ZM142.274 49.954C140.986 49.954 139.969 49.5479 139.292 48.8033C138.546 47.991 138.207 46.9757 138.207 45.7573V45.4189C138.207 44.1328 138.546 43.0498 139.224 42.2376C139.902 41.4253 140.851 41.0191 142.138 41.0191C143.291 41.0191 144.172 41.3576 144.782 42.1022C145.392 42.7791 145.731 43.7267 145.731 44.9451V46.1635H140.579V46.2312C140.647 46.8404 140.783 47.3142 141.122 47.6526C141.461 47.9911 141.935 48.1941 142.545 48.1941C143.087 48.1941 143.494 48.1264 143.901 48.0587C144.24 47.9234 144.646 47.788 145.053 47.5849L145.663 49.0064C145.324 49.2771 144.85 49.5479 144.24 49.6833C143.63 49.8186 142.952 49.8863 142.274 49.954ZM142.138 42.7791C141.664 42.7791 141.325 42.9144 141.054 43.2529C140.783 43.5913 140.647 43.9974 140.579 44.539V44.6066H143.426V44.4036C143.426 43.9297 143.291 43.5236 143.087 43.1852C142.884 42.9144 142.545 42.7791 142.138 42.7791ZM150.95 41.0191C152.17 41.0191 153.119 41.4253 153.797 42.2376C154.475 43.0498 154.814 44.1328 154.814 45.4189V45.5543C154.814 46.8404 154.475 47.9234 153.729 48.7356C152.983 49.5479 152.035 49.954 150.747 49.954C149.459 49.954 148.442 49.5479 147.764 48.7356C147.019 47.9234 146.68 46.8404 146.68 45.5543V45.4189V45.3512V45.2835V43.4559C146.68 41.696 147.019 40.41 147.629 39.6654C148.307 38.8531 149.255 38.447 150.679 38.447C151.357 38.447 151.899 38.3793 152.238 38.2439C152.577 38.1085 152.712 37.8378 152.712 37.4994H154.475V37.567C154.475 38.5824 154.204 39.2593 153.594 39.6654C152.983 40.0715 152.035 40.2746 150.814 40.2746C150.001 40.2746 149.459 40.4776 149.052 40.7484C148.645 41.0868 148.442 41.493 148.51 42.0345V42.1022C148.781 41.8314 149.12 41.5607 149.527 41.3576C150.001 41.0868 150.476 41.0191 150.95 41.0191ZM150.747 42.7791C150.137 42.7791 149.73 43.0498 149.459 43.5236C149.188 43.9974 149.052 44.6066 149.052 45.4189V45.5543C149.052 46.3665 149.188 46.9757 149.459 47.4495C149.73 47.9234 150.204 48.1264 150.814 48.1264C151.424 48.1264 151.831 47.8557 152.102 47.3818C152.373 46.908 152.509 46.2988 152.509 45.4866V45.3512C152.509 44.6066 152.373 43.9974 152.102 43.4559C151.763 43.0498 151.357 42.7791 150.747 42.7791ZM161.253 49.7509C161.185 49.5479 161.117 49.3448 161.049 49.1418C160.982 48.9387 160.914 48.7356 160.914 48.4649C160.643 48.871 160.372 49.2094 159.965 49.4802C159.558 49.7509 159.084 49.8863 158.542 49.8863C157.66 49.8863 156.915 49.6833 156.44 49.2094C155.966 48.7356 155.695 48.1264 155.695 47.3142C155.695 46.5019 156.034 45.825 156.644 45.3512C157.322 44.8774 158.27 44.6743 159.491 44.6743H160.778V43.9974C160.778 43.5913 160.643 43.2529 160.439 43.0498C160.236 42.8467 159.897 42.7114 159.491 42.7114C159.084 42.7114 158.813 42.779 158.609 42.9821C158.406 43.1852 158.338 43.3882 158.338 43.7267H156.101V43.659C156.034 42.9144 156.373 42.3052 157.05 41.7637C157.728 41.2222 158.609 40.9515 159.694 40.9515C160.711 40.9515 161.592 41.2222 162.202 41.7637C162.812 42.3052 163.151 43.0498 163.151 43.9974V47.5172C163.151 47.9234 163.151 48.3295 163.219 48.6679C163.286 49.0064 163.354 49.3448 163.49 49.7509H161.253ZM159.152 48.1941C159.558 48.1941 159.897 48.1264 160.236 47.9234C160.575 47.7203 160.778 47.5172 160.914 47.2465V46.0281H159.626C159.152 46.0281 158.745 46.1635 158.542 46.3665C158.27 46.6373 158.135 46.908 158.135 47.2465C158.135 47.5172 158.203 47.788 158.406 47.9234C158.542 48.1264 158.813 48.1941 159.152 48.1941ZM172.301 49.7509H169.997V47.0434C169.793 47.1111 169.59 47.1111 169.387 47.1111C169.183 47.1111 168.98 47.1111 168.844 47.1111C167.557 47.1111 166.608 46.8404 165.93 46.2989C165.252 45.7573 164.913 44.9451 164.913 43.7944V41.0868H167.218V43.7944C167.218 44.3359 167.353 44.742 167.624 44.9451C167.895 45.1482 168.302 45.2835 168.912 45.2835C169.116 45.2835 169.319 45.2835 169.522 45.2835C169.726 45.2835 169.929 45.2158 170.132 45.2158V41.1545H172.437V49.7509H172.301ZM177.792 49.954C176.504 49.954 175.487 49.5479 174.809 48.8033C174.064 47.991 173.725 46.9757 173.725 45.7573V45.4189C173.725 44.1328 174.064 43.0498 174.741 42.2376C175.419 41.4253 176.368 41.0191 177.656 41.0191C178.808 41.0191 179.689 41.3576 180.3 42.1022C180.91 42.7791 181.248 43.7267 181.248 44.9451V46.1635H176.097V46.2312C176.165 46.8404 176.3 47.3142 176.639 47.6526C176.978 47.9911 177.453 48.1941 178.063 48.1941C178.605 48.1941 179.012 48.1264 179.418 48.0587C179.757 47.9234 180.164 47.788 180.571 47.5849L181.181 49.0064C180.842 49.2771 180.367 49.5479 179.757 49.6833C179.079 49.8186 178.469 49.8863 177.792 49.954ZM177.588 42.7791C177.114 42.7791 176.775 42.9144 176.504 43.2529C176.233 43.5913 176.097 43.9974 176.029 44.539V44.6066H178.876V44.4036C178.876 43.9297 178.741 43.5236 178.537 43.1852C178.402 42.9144 178.063 42.7791 177.588 42.7791ZM189.992 49.7509H187.688V46.4342H184.841V49.7509H182.536V41.1545H184.841V44.6066H187.688V41.1545H189.992V49.7509ZM199.143 49.7509H196.838V46.4342H193.991V49.7509H191.687V41.1545H193.991V44.6066H196.838V41.1545H199.143V49.7509ZM208.158 41.1545V49.7509H205.853V46.7727H204.43L202.735 49.7509H200.363L202.261 46.3665C201.719 46.1635 201.312 45.825 201.041 45.4189C200.77 45.0128 200.634 44.5389 200.634 43.9974C200.634 43.1852 200.973 42.5083 201.651 41.9668C202.329 41.4253 203.21 41.1545 204.362 41.1545H208.158ZM203.006 44.0651C203.006 44.3359 203.142 44.6066 203.345 44.8097C203.549 45.0128 203.888 45.1481 204.294 45.1481H205.785V42.9144H204.294C203.888 42.9144 203.549 43.0498 203.278 43.2529C203.142 43.5236 203.006 43.7944 203.006 44.0651ZM221.443 42.9144H218.664V49.7509H216.359V42.9144H213.648V41.1545H221.443V42.9144ZM227.611 49.7509C227.543 49.5479 227.476 49.3448 227.408 49.1418C227.34 48.9387 227.272 48.7356 227.272 48.4649C227.001 48.871 226.73 49.2094 226.323 49.4802C225.917 49.7509 225.442 49.8863 224.9 49.8863C224.019 49.8863 223.273 49.6833 222.799 49.2094C222.324 48.7356 222.053 48.1264 222.053 47.3142C222.053 46.5019 222.392 45.825 223.002 45.3512C223.68 44.8774 224.629 44.6743 225.849 44.6743H227.137V43.9974C227.137 43.5913 227.001 43.2529 226.798 43.0498C226.594 42.8467 226.256 42.7114 225.849 42.7114C225.442 42.7114 225.171 42.779 224.968 42.9821C224.764 43.1852 224.697 43.3882 224.697 43.7267H222.46V43.659C222.392 42.9144 222.731 42.3052 223.409 41.7637C224.087 41.2222 224.968 40.9515 226.052 40.9515C227.069 40.9515 227.95 41.2222 228.56 41.7637C229.17 42.3052 229.509 43.0498 229.509 43.9974V47.5172C229.509 47.9234 229.509 48.3295 229.577 48.6679C229.645 49.0064 229.712 49.3448 229.848 49.7509H227.611ZM225.51 48.1941C225.917 48.1941 226.256 48.1264 226.594 47.9234C226.933 47.7203 227.137 47.5172 227.272 47.2465V46.0281H225.984C225.51 46.0281 225.103 46.1635 224.9 46.3665C224.629 46.6373 224.493 46.908 224.493 47.2465C224.493 47.5172 224.561 47.788 224.764 47.9234C224.9 48.1264 225.171 48.1941 225.51 48.1941ZM247.132 49.7509H244.828V46.4342H241.981V49.7509H239.676V41.1545H241.981V44.6066H244.828V41.1545H247.132V49.7509ZM256.147 42.9144H253.368V49.7509H251.064V42.9144H248.352V41.1545H256.147V42.9144ZM260.96 49.954C259.672 49.954 258.655 49.5479 257.977 48.8033C257.232 47.991 256.893 46.9757 256.893 45.7573V45.4189C256.893 44.1328 257.232 43.0498 257.91 42.2376C258.587 41.4253 259.536 41.0191 260.824 41.0191C261.977 41.0191 262.858 41.3576 263.468 42.1022C264.078 42.7791 264.417 43.7267 264.417 44.9451V46.1635H259.265V46.2312C259.333 46.8404 259.469 47.3142 259.807 47.6526C260.146 47.9911 260.621 48.1941 261.231 48.1941C261.773 48.1941 262.18 48.1264 262.587 48.0587C262.925 47.9234 263.332 47.788 263.739 47.5849L264.349 49.0064C264.01 49.2771 263.536 49.5479 262.925 49.6833C262.315 49.8186 261.638 49.8863 260.96 49.954ZM260.824 42.7791C260.35 42.7791 260.011 42.9144 259.74 43.2529C259.469 43.5913 259.333 43.9974 259.265 44.539V44.6066H262.112V44.4036C262.112 43.9297 261.977 43.5236 261.773 43.1852C261.638 42.9144 261.299 42.7791 260.824 42.7791ZM273.499 45.6896C273.499 46.9757 273.228 47.991 272.618 48.7356C272.008 49.4802 271.195 49.8863 270.178 49.8863C269.704 49.8863 269.297 49.8186 268.958 49.6156C268.619 49.4802 268.28 49.2094 268.077 48.871V53H265.772V41.0868H267.874L268.009 42.1022C268.28 41.696 268.551 41.4253 268.958 41.2222C269.297 41.0192 269.704 40.8838 270.178 40.8838C271.263 40.8838 272.076 41.2899 272.686 42.1022C273.296 42.9144 273.567 43.9974 273.567 45.3512V45.6896H273.499ZM271.195 45.5543C271.195 44.742 271.059 44.0651 270.788 43.5913C270.517 43.1175 270.11 42.8467 269.568 42.8467C269.229 42.8467 268.89 42.9144 268.687 43.0498C268.416 43.1852 268.212 43.3882 268.077 43.659V47.4495C268.212 47.7203 268.416 47.8557 268.687 47.9911C268.958 48.1264 269.229 48.1941 269.568 48.1941C270.11 48.1941 270.517 47.9911 270.788 47.5172C271.059 47.1111 271.195 46.5019 271.195 45.7573V45.5543ZM282.379 49.7509H280.074V46.4342H277.227V49.7509H274.923V41.1545H277.227V44.6066H280.074V41.1545H282.379V49.7509ZM287.869 49.954C286.581 49.954 285.565 49.5479 284.887 48.8033C284.141 47.991 283.802 46.9757 283.802 45.7573V45.4189C283.802 44.1328 284.141 43.0498 284.819 42.2376C285.497 41.4253 286.446 41.0191 287.734 41.0191C288.886 41.0191 289.767 41.3576 290.377 42.1022C290.987 42.7791 291.326 43.7267 291.326 44.9451V46.1635H286.175V46.2312C286.242 46.8404 286.378 47.3142 286.717 47.6526C287.056 47.9911 287.53 48.1941 288.14 48.1941C288.683 48.1941 289.089 48.1264 289.496 48.0587C289.835 47.9234 290.242 47.788 290.648 47.5849L291.258 49.0064C290.919 49.2771 290.445 49.5479 289.835 49.6833C289.225 49.8186 288.547 49.8863 287.869 49.954ZM287.734 42.7791C287.259 42.7791 286.92 42.9144 286.649 43.2529C286.378 43.5913 286.242 43.9974 286.175 44.539V44.6066H289.021V44.4036C289.021 43.9297 288.886 43.5236 288.683 43.1852C288.479 42.9144 288.14 42.7791 287.734 42.7791ZM299.867 42.9144H297.087V49.7509H294.783V42.9144H292.072V41.1545H299.867V42.9144ZM237.778 49.7509H235.474V41.1545H237.778V49.7509ZM237.778 39.1239H235.474V37.364H237.778V39.1239Z" fill="#5F6061"/>
</svg>
