<svg width="64" height="64" viewBox="0 0 64 64" fill="none" xmlns="http://www.w3.org/2000/svg">
<path fill-rule="evenodd" clip-rule="evenodd" d="M0 32.0005C0 14.3278 14.327 0 32.0001 0C49.6732 0 64 14.3278 64 32.0005C64 49.6739 49.6732 64.0024 32.0001 64.0024C14.327 64.0024 0 49.6739 0 32.0005ZM2.00008 32.0005C2.00008 48.5418 15.458 62.0005 32.0001 62.0005C48.5422 62.0005 62.0001 48.5418 62.0001 32.0005C62.0001 15.4589 48.5422 2.00049 32.0001 2.00049C15.458 2.00049 2.00008 15.4589 2.00008 32.0005ZM20 18.0011C20 17.4501 20.4477 16.9995 21 16.9995C21.5523 16.9995 22 17.4501 22 18.0011V46.0006C22 46.5529 21.5523 47.0015 21 47.0015C20.4477 47.0015 20 46.5529 20 46.0006V18.0011ZM40.0001 16.9995H31.0001C30.4477 16.9995 30 17.4501 30 18.0011V37.0005V46.0006C30 46.5529 30.4477 47.0015 31.0001 47.0015C31.5524 47.0015 32.0001 46.5529 32.0001 46.0006V37.0005H40.0001C45.5229 37.0005 50.0001 32.5227 50.0001 27.0018C50.0001 21.4784 45.5229 16.9995 40.0001 16.9995ZM40.0001 35.0007H32.0001V19.002H40.0001C44.4112 19.002 48 22.5895 48 27.0018C48 31.4128 44.4112 35.0007 40.0001 35.0007Z" fill="#5984B2"/>
</svg>
