<svg width="64" height="64" viewBox="0 0 64 64" fill="none" xmlns="http://www.w3.org/2000/svg">
<path fill-rule="evenodd" clip-rule="evenodd" d="M63 30.9979H54.4142L59.707 25.7042C60.0977 25.3129 60.0977 24.6815 59.707 24.2907C59.3164 23.9007 58.6836 23.9007 58.293 24.2907L51.586 30.9979H34.4137L47.2628 18.1478H56.7489C57.3018 18.1478 57.7491 17.7015 57.7491 17.1495C57.7491 16.5966 57.3018 16.1479 56.7489 16.1479H49.2628L55.334 10.0768C55.7246 9.68708 55.7246 9.054 55.334 8.66265C54.9434 8.27197 54.3105 8.27197 53.9199 8.66265L47.8496 14.7335V7.24848C47.8496 6.69687 47.4023 6.24824 46.8496 6.24824C46.2969 6.24824 45.8496 6.69687 45.8496 7.24848V16.7339L32.9999 29.5845V11.4118L39.707 4.70496C40.0977 4.31395 40.0977 3.68153 39.707 3.29019C39.3164 2.90011 38.6837 2.90011 38.2929 3.29019L32.9999 8.58252V0.997915C32.9999 0.446304 32.5527 -0.000988007 31.9999 -0.000988007C31.4473 -0.000988007 31 0.446304 31 0.997915V8.58252L25.7069 3.29019C25.3164 2.90011 24.6836 2.90011 24.2931 3.29019C23.9024 3.68153 23.9024 4.31395 24.2931 4.70496L31 11.4118V29.5845L18.1504 16.7339V7.24848C18.1504 6.69687 17.7031 6.24824 17.1504 6.24824C16.5977 6.24824 16.1504 6.69687 16.1504 7.24848V14.7335L10.0801 8.66265C9.68947 8.27197 9.0566 8.27197 8.666 8.66265C8.27541 9.054 8.27541 9.68708 8.666 10.0768L14.7372 16.1479H7.25099C6.69822 16.1479 6.25098 16.5966 6.25098 17.1495C6.25098 17.7015 6.69822 18.1478 7.25099 18.1478H16.7372L29.5862 30.9979H10.4141L3.70697 24.2907C3.31638 23.9007 2.68364 23.9007 2.29304 24.2907C1.90232 24.6815 1.90232 25.3129 2.29304 25.7042L7.58596 30.9979H0.999956C0.44732 30.9979 1.5974e-05 31.4459 1.5974e-05 31.9975C1.5974e-05 32.5498 0.44732 32.9964 0.999956 32.9964H7.58596L2.29304 38.2915C1.90232 38.6809 1.90232 39.3139 2.29304 39.705C2.48827 39.9013 2.74409 39.9977 2.99997 39.9977C3.25592 39.9977 3.51174 39.9013 3.70697 39.705L10.4141 32.9964H29.5857L16.7363 45.8476H7.25099C6.69822 45.8476 6.25098 46.2943 6.25098 46.8482C6.25098 47.4004 6.69822 47.8478 7.25099 47.8478H14.7363L8.666 53.9189C8.27541 54.3083 8.27541 54.9404 8.666 55.3311C8.8613 55.5274 9.11718 55.6248 9.37307 55.6248C9.62895 55.6248 9.88484 55.5274 10.0801 55.3311L16.1504 49.261V56.7472C16.1504 57.3002 16.5977 57.7468 17.1504 57.7468C17.7031 57.7468 18.1504 57.3002 18.1504 56.7472V47.2604L31 34.412V52.5849L24.2931 59.2907C23.9024 59.6808 23.9024 60.3142 24.2931 60.7042C24.6836 61.0956 25.3164 61.0956 25.7069 60.7042L31 55.4118V62.9984C31 63.5507 31.4473 63.9967 31.9999 63.9967C32.5527 63.9967 32.9999 63.5507 32.9999 62.9984V55.4118L38.2929 60.7042C38.4883 60.9012 38.7441 60.9979 39 60.9979C39.2559 60.9979 39.5118 60.9012 39.707 60.7042C40.0977 60.3142 40.0977 59.6808 39.707 59.2907L32.9999 52.5849V34.412L45.8496 47.2604V56.7472C45.8496 57.3002 46.2969 57.7468 46.8496 57.7468C47.4023 57.7468 47.8496 57.3002 47.8496 56.7472V49.261L53.9199 55.3311C54.1152 55.5274 54.3711 55.6248 54.627 55.6248C54.8827 55.6248 55.1386 55.5274 55.334 55.3311C55.7246 54.9404 55.7246 54.3083 55.334 53.9189L49.2637 47.8478H56.7489C57.3018 47.8478 57.7491 47.4004 57.7491 46.8482C57.7491 46.2943 57.3018 45.8476 56.7489 45.8476H47.2638L34.4143 32.9964H51.586L58.293 39.705C58.4883 39.9013 58.7441 39.9977 59 39.9977C59.2559 39.9977 59.5116 39.9013 59.707 39.705C60.0977 39.3139 60.0977 38.6809 59.707 38.2915L54.4142 32.9964H63C63.5527 32.9964 64.0001 32.5498 64.0001 31.9975C64.0001 31.4459 63.5527 30.9979 63 30.9979Z" fill="#56AABF"/>
</svg>
