<svg width="64" height="64" viewBox="0 0 64 64" fill="none" xmlns="http://www.w3.org/2000/svg">
<path fill-rule="evenodd" clip-rule="evenodd" d="M31.9999 0C14.3555 0 0 14.3566 0 32.0005C0 49.6463 14.3555 64.0024 31.9999 64.0024C49.6446 64.0024 64 49.6463 64 32.0005C64 14.3566 49.6446 0 31.9999 0ZM31.9999 62.0005C15.458 62.0005 2.00008 48.5424 2.00008 32.0005C2.00008 15.4596 15.458 2.00049 31.9999 2.00049C48.542 2.00049 62.0001 15.4596 62.0001 32.0005C62.0001 48.5424 48.542 62.0005 31.9999 62.0005ZM34.9961 28.023L35 28.0087V16.9995C35 15.3473 33.6543 14.0021 31.9999 14.0021C30.3457 14.0021 29 15.3473 29 16.9995V28.0008L29.0039 28.023C27.7949 28.9362 27 30.3724 27 32.0005C27 34.7576 29.2432 37.0005 31.9999 37.0005C34.7568 37.0005 37 34.7576 37 32.0005C37 30.3724 36.2051 28.9362 34.9961 28.023ZM31 16.9995C31 16.4479 31.4484 16.0012 31.9999 16.0012C32.5518 16.0012 33.0001 16.4479 33.0001 16.9995V27.1028C32.6769 27.0372 32.3428 27.0018 31.9999 27.0018C31.6573 27.0018 31.3232 27.0372 31 27.1028V16.9995ZM31.9999 35.0007C30.3457 35.0007 29 33.6557 29 32.0005C29 30.3487 30.3457 29.0017 31.9999 29.0017C33.6543 29.0017 35 30.3487 35 32.0005C35 33.6557 33.6543 35.0007 31.9999 35.0007ZM32.0302 31.0016H32.0196C31.4678 31.0016 31.0253 31.4489 31.0253 32.0005C31.0253 32.5522 31.4776 33.0021 32.0302 33.0021C32.5821 33.0021 33.0303 32.5522 33.0303 32.0005C33.0303 31.4489 32.5821 31.0016 32.0302 31.0016ZM4.00003 32.0005C4.00003 16.5621 16.5606 4.0007 31.9999 4.0007C47.4395 4.0007 60 16.5621 60 32.0005C60 36.7399 58.8095 41.2042 56.7217 45.1185C56.4074 45.7095 56.0763 46.2883 55.7217 46.8518L53.9872 45.8489L49.6866 43.3676C49.207 43.0905 49.044 42.4796 49.3203 42.0008C49.5968 41.5227 50.2071 41.3585 50.6865 41.6349L54.9873 44.1176C55.7325 42.7127 56.3487 41.2317 56.829 39.6901L54.9229 39.1785C54.3936 39.0361 54.0733 38.4875 54.2158 37.9538C54.3614 37.4177 54.9053 37.1065 55.4405 37.2475L57.3428 37.758C57.6934 36.2185 57.9063 34.6298 57.9688 33.0021H53.0001C52.4473 33.0021 52 32.5522 52 32.0005C52 31.4489 52.4473 31.0016 53.0001 31.0016H57.9746C57.913 29.3722 57.6992 27.7826 57.3496 26.244L55.4405 26.7542C54.9073 26.8986 54.3584 26.5806 54.2158 26.0483C54.0723 25.5149 54.3897 24.9665 54.9229 24.8232L56.8389 24.311C56.3594 22.7663 55.7363 21.2883 54.9921 19.8814L50.6885 22.3654C50.2079 22.6422 49.5968 22.478 49.3203 22.0005C49.0449 21.5234 49.207 20.9108 49.6846 20.6351L53.9883 18.1518C53.1309 16.7946 52.1533 15.5218 51.0664 14.3494L49.6769 15.738C49.2861 16.1287 48.6533 16.1287 48.2627 15.738C47.8712 15.3473 47.8721 14.7145 48.2627 14.3232L49.6524 12.9349C48.4805 11.8485 47.2071 10.8705 45.8496 10.0142L43.3671 14.3119C43.09 14.794 42.4785 14.9569 42 14.6792C41.5224 14.4047 41.3575 13.7931 41.6328 13.315L44.1211 9.00929C42.7139 8.26499 41.2334 7.64122 39.6895 7.1631L39.1768 9.07883C39.0343 9.61095 38.4854 9.92947 37.9522 9.78347C37.417 9.6411 37.1026 9.09471 37.2451 8.55871L37.7569 6.65055C36.2178 6.30189 34.628 6.08769 33.0001 6.02605V10.9993C33.0001 11.5535 32.5528 11.9995 31.9999 12.0022C31.4484 11.9995 31 11.5535 31 11.0019L31.001 6.02605C29.3721 6.08769 27.7813 6.30189 26.2422 6.65055L26.753 8.55871C26.8966 9.09471 26.5791 9.6411 26.0459 9.78347C25.5108 9.93081 24.9659 9.61095 24.8213 9.07883L24.3086 7.16438C22.7656 7.64122 21.2862 8.26499 19.8799 9.00929L22.3653 13.3124C22.6426 13.7931 22.4785 14.4033 22 14.6798C21.5215 14.9556 20.9112 14.794 20.6348 14.3153L18.1514 10.0129C16.7941 10.8705 15.5196 11.8485 14.3466 12.9349L15.7354 14.3232C16.1261 14.7145 16.1261 15.348 15.7354 15.738C15.3437 16.1314 14.7139 16.1287 14.3213 15.738L12.9326 14.3494C11.8468 15.5218 10.8693 16.7946 10.0117 18.1518L14.3125 20.6344C14.7929 20.9108 14.9561 21.5211 14.6798 22.0012C14.4023 22.478 13.793 22.6422 13.3145 22.3667L9.00776 19.8801C8.26363 21.2883 7.64062 22.7663 7.16122 24.311L9.07528 24.8232C9.60847 24.9665 9.92576 25.5161 9.78228 26.0483C9.63968 26.5853 9.09289 26.8986 8.55766 26.7542L6.6504 26.2452C6.30088 27.7819 6.0879 29.3722 6.02541 31.0002H10.999C11.5537 31.0002 12 31.4476 12 32.0005C11.999 32.5515 11.5537 33.0015 11 33.0015H6.03133C6.09382 34.6292 6.30673 36.2171 6.65734 37.7574L8.55766 37.2475C9.09085 37.1038 9.63968 37.4204 9.78228 37.9538C9.92684 38.4902 9.61037 39.0341 9.07528 39.1785L7.17094 39.6894C7.65136 41.2317 8.26764 42.712 9.01177 44.1169V44.1176L13.3126 41.6349C13.793 41.3572 14.4033 41.5214 14.6798 42.0008C14.9551 42.4796 14.7929 43.0905 14.3135 43.3656L10.0117 45.847V45.8482L8.27832 46.8512C7.92397 46.2869 7.59172 45.7069 7.27736 45.1165C5.19044 41.2029 4.00003 36.7386 4.00003 32.0005Z" fill="#56AABF"/>
</svg>
