<svg width="64" height="64" viewBox="0 0 64 64" fill="none" xmlns="http://www.w3.org/2000/svg">
<path fill-rule="evenodd" clip-rule="evenodd" d="M56.6494 52.4039C61.2393 46.8642 64.0001 39.7536 64.0001 31.9985C64.0001 24.244 61.2403 17.1342 56.6504 11.5946L56.751 11.493C57.1397 11.1029 57.1397 10.468 56.751 10.0793L53.9209 7.24967C53.5303 6.85745 52.8994 6.85604 52.5068 7.24967L52.4063 7.35117C46.8672 2.75872 39.756 0 31.9999 0C24.2451 0 17.1348 2.75732 11.5968 7.3491L11.4961 7.24752C11.1045 6.85604 10.4717 6.85604 10.0811 7.24752L7.25201 10.0765C6.8604 10.468 6.8604 11.1001 7.25288 11.4909L7.35258 11.5911C2.76074 17.1314 0 24.2419 0 31.9985C0 39.7536 2.76074 46.8642 7.3505 52.4039L7.25094 52.5039C6.8604 52.8948 6.8604 53.5269 7.25094 53.9191L10.0801 56.7481C10.4706 57.1381 11.1026 57.1395 11.4942 56.7481L11.5937 56.6472C17.1328 61.2383 24.2441 63.9977 31.9999 63.9977C39.756 63.9977 46.8662 61.2383 52.4053 56.6479L52.5049 56.7481C52.8974 57.1368 53.5303 57.1395 53.9199 56.7481L56.7489 53.9191C57.1405 53.5269 57.1416 52.8955 56.7489 52.5039L56.6494 52.4039ZM52.4883 53.9031L41.1592 42.5701L40.4864 41.8969L41.9014 40.4831L42.5733 41.1563L54.6279 53.2105L53.2118 54.627L52.4883 53.9031ZM31.9999 43.9978C29.7481 43.9978 27.6485 43.3663 25.8477 42.2877C26.001 41.924 25.9326 41.4887 25.6358 41.1911L22.8076 38.3615C22.5107 38.0652 22.0752 37.9964 21.7118 38.1507C20.6318 36.3504 20 34.2509 20 31.9978C20 29.7475 20.6318 27.6466 21.7118 25.8434C22.0762 25.9978 22.5097 25.9303 22.8067 25.6327L25.6367 22.8052C25.9336 22.5103 26.003 22.0736 25.8477 21.7079C27.6485 20.6293 29.7481 19.9999 31.9999 19.9999C34.2529 19.9999 36.3526 20.6293 38.1534 21.7093C38.001 22.0744 38.0693 22.5082 38.3653 22.8038L41.1924 25.6341C41.4893 25.9325 41.9248 25.9999 42.2891 25.8448C43.3682 27.6466 43.9999 29.7475 43.9999 31.9978C43.9999 34.2509 43.3682 36.3504 42.2881 38.1507C41.9248 37.9971 41.4902 38.0673 41.1943 38.3629L38.3643 41.1883C38.0674 41.488 37.999 41.922 38.1534 42.287C36.3526 43.3663 34.2519 43.9978 31.9999 43.9978ZM10.7871 54.6256L9.37209 53.2105L21.4257 41.1577L22.1006 40.4825L23.5147 41.8983L22.8408 42.5721L10.7871 54.6256ZM9.37317 10.7865L10.7881 9.36854L11.5116 10.0946L22.8408 21.4227L23.5147 22.0966L22.0995 23.5117L21.4257 22.8393L9.37317 10.7865ZM53.9043 11.5104L42.5733 22.84L41.9003 23.5117L40.4864 22.0966L41.1592 21.4241L52.4892 10.0952L53.2129 9.37062L54.6299 10.7851L53.9043 11.5104ZM43.7754 39.5318C44.1484 38.9504 44.4795 38.342 44.7647 37.7085L59.8368 43.1932C58.6943 46.0304 57.125 48.6437 55.2188 50.9741L43.7754 39.5318ZM60.5146 41.3128L45.4618 35.8337C45.8106 34.6146 46 33.3274 46 31.9978C46 30.6661 45.8106 29.3816 45.4618 28.1626L60.5146 22.6842C61.4738 25.6154 62 28.7426 62 31.9978C62 35.2523 61.4738 38.3802 60.5146 41.3128ZM59.8368 20.8024L44.7647 26.2864C44.4795 25.6529 44.1484 25.0465 43.7764 24.4665L55.2198 13.0243C57.1259 15.3539 58.6943 17.9658 59.8368 20.8024ZM39.5342 20.2217C38.9531 19.8483 38.3448 19.5187 37.71 19.2329L43.1963 4.1613C46.0312 5.30392 48.6464 6.87413 50.9765 8.78162L39.5342 20.2217ZM41.3145 3.484L35.836 18.5354C34.6172 18.1863 33.3312 17.9971 31.9991 17.9971C30.668 17.9971 29.3819 18.1863 28.1631 18.5354L22.6856 3.484C25.6182 2.52436 28.7461 1.9972 31.9999 1.9972C35.2539 1.9972 38.3819 2.52436 41.3145 3.484ZM20.8038 4.15996L26.2901 19.2329C25.6552 19.5173 25.0469 19.8469 24.4657 20.2204L13.0265 8.77881C15.3544 6.87273 17.9699 5.30392 20.8038 4.15996ZM20.2227 24.4638C19.8496 25.0458 19.5196 25.6508 19.2334 26.2864L4.16311 20.8024C5.30573 17.9652 6.87594 15.3518 8.78229 13.0215L20.2227 24.4638ZM3.48541 22.6842L18.5362 28.1626C18.1875 29.3816 17.9981 30.6661 17.9981 31.9978C17.9981 33.3288 18.1875 34.6146 18.5362 35.8351L3.48541 41.3128C2.52637 38.3802 1.99995 35.2523 1.99995 31.9978C1.99995 28.7426 2.52637 25.6154 3.48541 22.6842ZM4.16311 43.1932L19.2334 37.7092C19.5196 38.3434 19.8496 38.9519 20.2227 39.5332L8.78229 50.9734C6.87594 48.6437 5.30573 46.0304 4.16311 43.1932ZM24.4668 43.7752C25.0469 44.1486 25.6552 44.479 26.2901 44.7641L20.8038 59.8335C17.9688 58.6924 15.3535 57.1222 13.0244 55.2168L24.4668 43.7752ZM22.6856 60.5116L28.1641 45.4595C29.3819 45.8093 30.668 45.9999 31.9991 45.9999C33.3312 45.9999 34.6172 45.8093 35.836 45.4595L41.3145 60.5116C38.3819 61.4706 35.2539 61.997 31.9999 61.997C28.7471 61.997 25.6182 61.4706 22.6856 60.5116ZM43.1963 59.835L37.71 44.7641C38.3448 44.4783 38.9531 44.1466 39.5342 43.7731L50.9746 55.2168C48.6455 57.1222 46.0303 58.6924 43.1963 59.835Z" fill="#5984B2"/>
</svg>
