<svg width="17" height="16" viewBox="0 0 17 16" fill="none" xmlns="http://www.w3.org/2000/svg">
<path fill-rule="evenodd" clip-rule="evenodd" d="M13.1778 4.86659L14.9101 3.86706C15.3887 3.58888 15.5528 2.9786 15.2754 2.50012C15 2.02123 14.3887 1.8571 13.9101 2.1327L12.1777 3.1329C11.6992 3.41068 11.5351 4.02191 11.8126 4.49957C12.0879 4.97886 12.6992 5.14177 13.1778 4.86659ZM15.7501 6.99951H13.7501C13.1973 6.99951 12.75 7.44675 12.75 7.99905C12.75 8.55255 13.1973 9.00033 13.7501 9.00033H15.7501C16.3029 9.00033 16.75 8.55255 16.75 7.99905C16.75 7.44675 16.3029 6.99951 15.7501 6.99951ZM13.1778 11.1339L14.9101 12.1343C15.3887 12.411 15.5528 13.0224 15.2765 13.5003C15 13.9781 14.3887 14.1433 13.9102 13.8665L12.1778 12.8666C11.6992 12.5888 11.5362 11.9791 11.8126 11.5001C12.0889 11.0227 12.6992 10.858 13.1778 11.1339ZM7.75002 0H6.75003H3.74997C3.62007 0 3.49029 0.0259159 3.36818 0.0772159C3.24516 0.129884 3.13382 0.201248 3.041 0.294424C2.94144 0.394022 0.75 2.99966 0.75 7.99919C0.75 13.0013 2.82906 15.4214 2.91798 15.5548C2.94625 15.5977 2.98343 15.6314 3.01662 15.6696C3.0323 15.6855 3.04398 15.7038 3.06057 15.7173C3.14263 15.7995 3.23543 15.8608 3.33603 15.9038C3.35743 15.9156 3.37987 15.9224 3.4024 15.9298C3.51376 15.9699 3.62991 16 3.74813 16H3.74997H6.75003H7.75002C8.30277 16 8.75001 15.5529 8.75001 14.9983V11.001C8.75001 10.4481 8.30277 10.0003 7.75002 10.0003H6.75003V5.99933H7.75002C8.30277 5.99933 8.75001 5.55303 8.75001 4.99939V1.00048C8.75001 0.446272 8.30277 0 7.75002 0ZM6.75002 3.99938H5.74991C5.19728 3.99938 4.74992 4.4466 4.74992 4.99917V11.0008C4.74992 11.5531 5.19728 12.0003 5.74991 12.0003H6.75002V13.9992H4.32136C3.81552 13.0787 2.74996 12.0003 2.74996 7.99897C2.74996 3.99938 3.74902 2.62547 4.21984 1.99951H6.75002V3.99938Z" fill="#DC662D"/>
</svg>
