<svg width="14" height="20" viewBox="0 0 14 20" fill="none" xmlns="http://www.w3.org/2000/svg">
<path d="M13.5017 1.73812V18.1565C13.5017 18.7173 13.0466 19.1725 12.4858 19.1725H1.01595C0.455179 19.1725 0 18.7173 0 18.1565V1.73812C0 1.17735 0.455179 0.722168 1.01595 0.722168H12.4858C13.0466 0.722168 13.5017 1.17735 13.5017 1.73812ZM4.28339 6.4071C3.72262 6.4071 3.26744 5.95192 3.26744 5.39115C3.26744 4.83038 3.72262 4.3752 4.28339 4.3752H5.11295C5.67372 4.3752 6.1289 4.83038 6.1289 5.39115C6.1289 5.95192 5.67372 6.4071 5.11295 6.4071H4.28339ZM8.38879 6.4071C7.82801 6.4071 7.37283 5.95192 7.37283 5.39115C7.37283 4.83038 7.82801 4.3752 8.38879 4.3752H9.21834C9.77912 4.3752 10.2343 4.83038 10.2343 5.39115C10.2343 5.95192 9.77912 6.4071 9.21834 6.4071H8.38879ZM8.38879 15.5195C7.82801 15.5195 7.37283 15.0643 7.37283 14.5035C7.37283 13.9427 7.82801 13.4876 8.38879 13.4876H9.21834C9.77912 13.4876 10.2343 13.9427 10.2343 14.5035C10.2343 15.0643 9.77912 15.5195 9.21834 15.5195H8.38879ZM8.38879 12.482C7.82801 12.482 7.37283 12.0268 7.37283 11.4661C7.37283 10.9053 7.82801 10.4501 8.38879 10.4501H9.21834C9.77912 10.4501 10.2343 10.9053 10.2343 11.4661C10.2343 12.0268 9.77912 12.482 9.21834 12.482H8.38879ZM8.38879 9.44456C7.82801 9.44456 7.37283 8.98938 7.37283 8.4286C7.37283 7.86783 7.82801 7.41265 8.38879 7.41265H9.21834C9.77912 7.41265 10.2343 7.86783 10.2343 8.4286C10.2343 8.98938 9.77912 9.44456 9.21834 9.44456H8.38879ZM4.28339 15.5195C3.72262 15.5195 3.26744 15.0643 3.26744 14.5035C3.26744 13.9427 3.72262 13.4876 4.28339 13.4876H5.11295C5.67372 13.4876 6.1289 13.9427 6.1289 14.5035C6.1289 15.0643 5.67372 15.5195 5.11295 15.5195H4.28339ZM4.28339 12.482C3.72262 12.482 3.26744 12.0268 3.26744 11.4661C3.26744 10.9053 3.72262 10.4501 4.28339 10.4501H5.11295C5.67372 10.4501 6.1289 10.9053 6.1289 11.4661C6.1289 12.0268 5.67372 12.482 5.11295 12.482H4.28339ZM4.28339 9.44456C3.72262 9.44456 3.26744 8.98938 3.26744 8.4286C3.26744 7.86783 3.72262 7.41265 4.28339 7.41265H5.11295C5.67372 7.41265 6.1289 7.86783 6.1289 8.4286C6.1289 8.98938 5.67372 9.44456 5.11295 9.44456H4.28339ZM11.4698 17.1406V2.75407H2.0319V17.1406H11.4698Z" fill="#DC662D"/>
</svg>
