<svg width="17" height="12" viewBox="0 0 17 12" fill="none" xmlns="http://www.w3.org/2000/svg">
<g clip-path="url(#clip0_1639_40)">
<path d="M16.75 1V11C16.75 11.2652 16.6446 11.5196 16.4571 11.7071C16.2696 11.8946 16.0152 12 15.75 12H1.75C1.48478 12 1.23043 11.8946 1.04289 11.7071C0.855357 11.5196 0.75 11.2652 0.75 11V1C0.75 0.734784 0.855357 0.48043 1.04289 0.292893C1.23043 0.105357 1.48478 0 1.75 0L15.75 0C16.0152 0 16.2696 0.105357 16.4571 0.292893C16.6446 0.48043 16.75 0.734784 16.75 1ZM2.75 2V2.066L8.75 6.734L14.75 2.066V2H2.75ZM14.75 10V4.6L9.364 8.79C9.18853 8.92672 8.97245 9.00096 8.75 9.00096C8.52755 9.00096 8.31147 8.92672 8.136 8.79L2.75 4.6V10H14.75Z" fill="#DC662D"/>
</g>
<defs>
<clipPath id="clip0_1639_40">
<rect width="16" height="12" fill="white" transform="translate(0.75)"/>
</clipPath>
</defs>
</svg>
