<svg width="13" height="16" viewBox="0 0 13 16" fill="none" xmlns="http://www.w3.org/2000/svg">
<path fill-rule="evenodd" clip-rule="evenodd" d="M0 5.99931C0 2.68518 2.7488 0 6.13917 0C9.52956 0 12.2784 2.68518 12.2784 5.99931C12.2784 7.30472 11.8407 8.50235 11.1133 9.48168C11.1075 9.49288 11.1039 9.50399 11.1004 9.51485C11.096 9.52861 11.0917 9.54196 11.0833 9.55455L6.99047 15.5537C6.80065 15.8325 6.48099 16.0001 6.13917 16.0001C5.79738 16.0001 5.47772 15.8325 5.28789 15.5537L1.19507 9.55455C1.1867 9.54196 1.18238 9.52861 1.17793 9.51485C1.17442 9.50399 1.17083 9.49288 1.1651 9.48168C0.437583 8.50235 0 7.30472 0 5.99931ZM6.1391 13.1967L9.20864 8.69694C9.70629 7.99975 10.2319 7.00651 10.2319 5.99947C10.2319 3.79019 8.39927 2.00029 6.1391 2.00029C3.87882 2.00029 2.04639 3.79019 2.04639 5.99947C2.04639 6.88563 2.54155 7.76112 2.92189 8.43358C2.97377 8.52531 3.02351 8.61325 3.06957 8.69694L6.1391 13.1967ZM4.09276 5.99931C4.09276 4.89543 5.00904 4 6.13912 4C7.26921 4 8.18549 4.89543 8.18549 5.99931C8.18549 7.10403 7.26921 7.99959 6.13912 7.99959C5.00904 7.99959 4.09276 7.10403 4.09276 5.99931Z" fill="#DC662D"/>
</svg>
