<svg width="20" height="20" viewBox="0 0 20 20" fill="none" xmlns="http://www.w3.org/2000/svg">
<path fill-rule="evenodd" clip-rule="evenodd" d="M15.5348 6.08324L17.7002 4.83382C18.2985 4.4861 18.5036 3.72325 18.1568 3.12515C17.8125 2.52653 17.0485 2.32138 16.4502 2.66587L14.2847 3.91612C13.6865 4.26335 13.4815 5.02738 13.8282 5.62446C14.1724 6.22358 14.9366 6.42721 15.5348 6.08324ZM18.7501 8.74939H16.2501C15.5592 8.74939 15 9.30844 15 9.99881C15 10.6907 15.5592 11.2504 16.2501 11.2504H18.7501C19.4412 11.2504 20.0001 10.6907 20.0001 9.99881C20.0001 9.30844 19.4412 8.74939 18.7501 8.74939ZM15.5348 13.9173L17.7002 15.1679C18.2984 15.5138 18.5036 16.278 18.1581 16.8754C17.8125 17.4726 17.0485 17.6792 16.4502 17.3332L14.2847 16.0832C13.6865 15.736 13.4828 14.9739 13.8282 14.3751C14.1737 13.7783 14.9366 13.5725 15.5348 13.9173ZM8.75002 0H7.50004H3.74996C3.58758 0 3.42537 0.0323949 3.27273 0.0965199C3.11895 0.162355 2.97977 0.25156 2.86375 0.36803C2.7393 0.492528 0 3.74958 0 9.99899C0 16.2516 2.59882 19.2767 2.70997 19.4435C2.74531 19.4971 2.79179 19.5392 2.83328 19.587C2.85287 19.6069 2.86748 19.6298 2.88821 19.6466C2.99079 19.7493 3.10679 19.826 3.23254 19.8798C3.25928 19.8944 3.28733 19.903 3.3155 19.9122C3.4547 19.9623 3.59988 20 3.74766 20H3.74996H7.50004H8.75002C9.44096 20 10 19.4411 10 18.7479V13.7513C10 13.0601 9.44096 12.5003 8.75002 12.5003H7.50004V7.49916H8.75002C9.44096 7.49916 10 6.94129 10 6.24924V1.2506C10 0.55784 9.44096 0 8.75002 0ZM7.50006 4.99922H6.24994C5.55914 4.99922 4.99995 5.55825 4.99995 6.24897V13.751C4.99995 14.4414 5.55914 15.0004 6.24994 15.0004H7.50006V17.4991H4.46424C3.83195 16.3484 2.5 15.0004 2.5 9.99871C2.5 4.99922 3.74882 3.28183 4.33735 2.49939H7.50006V4.99922Z" fill="white"/>
</svg>
