<svg width="210" height="44" viewBox="0 0 210 44" fill="none" xmlns="http://www.w3.org/2000/svg">
<path fill-rule="evenodd" clip-rule="evenodd" d="M140 11L88 11L88 6L140 6L140 11Z" fill="url(#paint0_linear_1421_653)"/>
<path fill-rule="evenodd" clip-rule="evenodd" d="M201 18L88 18L88 13L201 13L201 18Z" fill="url(#paint1_linear_1421_653)"/>
<path fill-rule="evenodd" clip-rule="evenodd" d="M174 25L88 25L88 20L174 20L174 25Z" fill="url(#paint2_linear_1421_653)"/>
<path fill-rule="evenodd" clip-rule="evenodd" d="M153 32L88 32L88 27L153 27L153 32Z" fill="url(#paint3_linear_1421_653)"/>
<path fill-rule="evenodd" clip-rule="evenodd" d="M121 39L88 39L88 34L121 34L121 39Z" fill="url(#paint4_linear_1421_653)"/>
<path fill-rule="evenodd" clip-rule="evenodd" d="M88 12L17 12L17 5L88 5L88 12Z" fill="#DC662D"/>
<path fill-rule="evenodd" clip-rule="evenodd" d="M88 19L17 19L17 12L88 12L88 19Z" fill="#5856BF"/>
<path fill-rule="evenodd" clip-rule="evenodd" d="M88 26L17 26L17 19L88 19L88 26Z" fill="#56AABF"/>
<path fill-rule="evenodd" clip-rule="evenodd" d="M88 33L17 33L17 26L88 26L88 33Z" fill="#DCC02D"/>
<path fill-rule="evenodd" clip-rule="evenodd" d="M88 40L17 40L17 33L88 33L88 40Z" fill="#56BF7A"/>
<path fill-rule="evenodd" clip-rule="evenodd" d="M44 43L0 43L1.79217e-06 2L44 2L44 43Z" fill="#8B6CB0"/>
<circle cx="8" cy="8" r="8" transform="matrix(-1 0 0 1 151 0)" fill="url(#paint5_radial_1421_653)"/>
<circle cx="4" cy="4" r="4" transform="matrix(-1 0 0 1 147 4)" fill="white" fill-opacity="0.5"/>
<circle cx="8" cy="8" r="8" transform="matrix(-1 0 0 1 210 7)" fill="url(#paint6_radial_1421_653)"/>
<circle cx="4" cy="4" r="4" transform="matrix(-1 0 0 1 206 11)" fill="white" fill-opacity="0.5"/>
<circle cx="8" cy="8" r="8" transform="matrix(-1 0 0 1 184 14)" fill="url(#paint7_radial_1421_653)"/>
<circle cx="4" cy="4" r="4" transform="matrix(-1 0 0 1 180 18)" fill="white" fill-opacity="0.5"/>
<circle cx="8" cy="8" r="8" transform="matrix(-1 0 0 1 164 21)" fill="url(#paint8_radial_1421_653)"/>
<circle cx="4" cy="4" r="4" transform="matrix(-1 0 0 1 160 25)" fill="white" fill-opacity="0.5"/>
<circle cx="8" cy="8" r="8" transform="matrix(-1 0 0 1 132 28)" fill="url(#paint9_radial_1421_653)"/>
<circle cx="4" cy="4" r="4" transform="matrix(-1 0 0 1 128 32)" fill="white" fill-opacity="0.5"/>
<defs>
<linearGradient id="paint0_linear_1421_653" x1="140" y1="8.5" x2="88" y2="8.5" gradientUnits="userSpaceOnUse">
<stop stop-color="white" stop-opacity="0"/>
<stop offset="1" stop-color="white" stop-opacity="0.3"/>
</linearGradient>
<linearGradient id="paint1_linear_1421_653" x1="201" y1="15.5" x2="88" y2="15.5" gradientUnits="userSpaceOnUse">
<stop stop-color="white" stop-opacity="0"/>
<stop offset="1" stop-color="white" stop-opacity="0.3"/>
</linearGradient>
<linearGradient id="paint2_linear_1421_653" x1="174" y1="22.5" x2="88" y2="22.5" gradientUnits="userSpaceOnUse">
<stop stop-color="white" stop-opacity="0"/>
<stop offset="1" stop-color="white" stop-opacity="0.3"/>
</linearGradient>
<linearGradient id="paint3_linear_1421_653" x1="153" y1="29.5" x2="88" y2="29.5" gradientUnits="userSpaceOnUse">
<stop stop-color="white" stop-opacity="0"/>
<stop offset="1" stop-color="white" stop-opacity="0.3"/>
</linearGradient>
<linearGradient id="paint4_linear_1421_653" x1="121" y1="36.5" x2="88" y2="36.5" gradientUnits="userSpaceOnUse">
<stop stop-color="white" stop-opacity="0"/>
<stop offset="1" stop-color="white" stop-opacity="0.3"/>
</linearGradient>
<radialGradient id="paint5_radial_1421_653" cx="0" cy="0" r="1" gradientUnits="userSpaceOnUse" gradientTransform="translate(8 8) rotate(90) scale(8)">
<stop stop-color="white"/>
<stop offset="1" stop-color="white" stop-opacity="0"/>
</radialGradient>
<radialGradient id="paint6_radial_1421_653" cx="0" cy="0" r="1" gradientUnits="userSpaceOnUse" gradientTransform="translate(8 8) rotate(90) scale(8)">
<stop stop-color="white"/>
<stop offset="1" stop-color="white" stop-opacity="0"/>
</radialGradient>
<radialGradient id="paint7_radial_1421_653" cx="0" cy="0" r="1" gradientUnits="userSpaceOnUse" gradientTransform="translate(8 8) rotate(90) scale(8)">
<stop stop-color="white"/>
<stop offset="1" stop-color="white" stop-opacity="0"/>
</radialGradient>
<radialGradient id="paint8_radial_1421_653" cx="0" cy="0" r="1" gradientUnits="userSpaceOnUse" gradientTransform="translate(8 8) rotate(90) scale(8)">
<stop stop-color="white"/>
<stop offset="1" stop-color="white" stop-opacity="0"/>
</radialGradient>
<radialGradient id="paint9_radial_1421_653" cx="0" cy="0" r="1" gradientUnits="userSpaceOnUse" gradientTransform="translate(8 8) rotate(90) scale(8)">
<stop stop-color="white"/>
<stop offset="1" stop-color="white" stop-opacity="0"/>
</radialGradient>
</defs>
</svg>
