<svg width="75" height="202" viewBox="0 0 75 202" fill="none" xmlns="http://www.w3.org/2000/svg">
<path fill-rule="evenodd" clip-rule="evenodd" d="M0.000610352 0H75V182.293H0.000610352V0ZM0 202V182.293H37.502L0 202ZM37.502 182.293L37.5017 182.293H74.9998V202L37.502 182.293Z" fill="#8B6CB0"/>
<path d="M46.33 134.448V146.698L52 149.113V153.803L27.5 142.778V138.298L52 127.238V131.998L46.33 134.448ZM42.76 135.953L32.05 140.573L42.76 145.158V135.953ZM44.51 116.201V119.596H52V123.971H33.31V119.596H40.87V116.096L33.31 110.566V105.876L42.305 112.666L52 105.421V110.566L44.51 116.201ZM48.29 81.8256H56.305V85.9206H52L52 102.336H33.31V97.9606H48.29V89.0356H33.31V84.6606H48.29V81.8256ZM33.31 77.9313V73.5563H52V77.9313H33.31ZM30.23 75.7263C30.23 76.5197 29.985 77.1847 29.495 77.7213C28.9817 78.258 28.3517 78.5263 27.605 78.5263C26.8583 78.5263 26.24 78.258 25.75 77.7213C25.2367 77.1847 24.98 76.5197 24.98 75.7263C24.98 74.933 25.225 74.268 25.715 73.7313C26.1817 73.1947 26.7767 72.9263 27.5 72.9263C28.27 72.9263 28.9233 73.1947 29.46 73.7313C29.9733 74.2447 30.23 74.9097 30.23 75.7263ZM33.31 51.8583H52V55.7783H46.365V60.7133L52 64.5283V69.2183L45.77 64.8083C45.3033 66.1616 44.5917 67.1999 43.635 67.9233C42.655 68.6233 41.4533 68.9733 40.03 68.9733C37.8833 68.9733 36.2267 68.2149 35.06 66.6983C33.8933 65.1816 33.31 63.0933 33.31 60.4333V51.8583ZM36.985 60.2933C36.985 63.1166 38.0467 64.5283 40.17 64.5283C42.27 64.5283 43.32 63.1633 43.32 60.4333V55.7783H36.985V60.2933ZM27.5 46.6033V41.4233L43.88 42.2983V45.7633L27.5 46.6033ZM52.245 44.0133C52.245 44.83 51.9883 45.5067 51.475 46.0433C50.9383 46.58 50.285 46.8483 49.515 46.8483C48.745 46.8483 48.1033 46.58 47.59 46.0433C47.0767 45.5067 46.82 44.83 46.82 44.0133C46.82 43.22 47.0767 42.5667 47.59 42.0533C48.1033 41.5167 48.745 41.2483 49.515 41.2483C50.285 41.2483 50.9383 41.5167 51.475 42.0533C51.9883 42.5667 52.245 43.22 52.245 44.0133Z" fill="white"/>
</svg>
