<svg width="38" height="104" viewBox="0 0 38 104" fill="none" xmlns="http://www.w3.org/2000/svg">
<path fill-rule="evenodd" clip-rule="evenodd" d="M0.000610352 0.773438H38V93.2734H0.000610352V0.773438ZM0 103.273V93.2734H19.0008L0 103.273ZM19.0008 93.2734H37.9996V103.273L19.0008 93.2734Z" fill="#8B6CB0"/>
<path d="M25.9326 79.1114L13.3326 73.4414V71.1374L25.9326 65.4494V67.8974L14.5746 72.7754V71.8394L25.9326 76.6994V79.1114ZM23.0166 76.5014L21.1806 75.8714V69.0674L23.0166 68.4374V76.5014ZM25.9326 56.8752L21.3246 60.3492L20.1906 58.5132L25.9326 54.2292V56.8752ZM25.9326 63.7692H16.3206V61.5192H25.9326V63.7692ZM22.0806 62.1852H20.2086V58.9272H22.0806V62.1852ZM21.3966 58.2972L21.1446 60.4032L16.3206 56.8752V54.4632L21.3966 58.2972ZM25.9326 52.6423H16.3206V50.3923H24.0246V45.8023H16.3206V43.5523H25.9326L25.9326 52.6423ZM28.0746 44.2003H25.8786L25.9326 43.6783V45.8023H24.0246V42.0943H28.0746V44.2003ZM25.9326 40.0915H16.3206V37.8415H25.9326V40.0915ZM14.7366 38.9575C14.7366 39.3775 14.6046 39.7255 14.3406 40.0015C14.0766 40.2655 13.7586 40.3975 13.3866 40.3975C13.0026 40.3975 12.6846 40.2655 12.4326 40.0015C12.1686 39.7255 12.0366 39.3775 12.0366 38.9575C12.0366 38.5375 12.1626 38.1955 12.4146 37.9315C12.6546 37.6555 12.9606 37.5175 13.3326 37.5175C13.7286 37.5175 14.0646 37.6495 14.3406 37.9135C14.6046 38.1775 14.7366 38.5255 14.7366 38.9575ZM25.9326 28.6985H22.6566L23.0346 28.3745V31.2545C23.0346 32.5745 22.7586 33.6125 22.2066 34.3685C21.6426 35.1125 20.8326 35.4845 19.7766 35.4845C18.6486 35.4845 17.7906 35.0885 17.2026 34.2965C16.6146 33.4925 16.3206 32.4245 16.3206 31.0925V26.6825H25.9326V28.6985ZM25.9326 35.6105L22.2606 33.0185V30.7145L25.9326 33.1985V35.6105ZM21.9366 28.6985H17.6166L18.2106 28.3745V31.0205C18.2106 31.7165 18.3426 32.2565 18.6066 32.6405C18.8586 33.0125 19.2726 33.1985 19.8486 33.1985C20.9286 33.1985 21.4686 32.4965 21.4686 31.0925V28.3745L21.9366 28.6985ZM21.7566 23.548L13.3326 23.98V21.316L21.7566 21.766V23.548ZM26.0586 22.648C26.0586 23.068 25.9206 23.416 25.6446 23.692C25.3686 23.968 25.0386 24.106 24.6546 24.106C24.2706 24.106 23.9466 23.968 23.6826 23.692C23.4066 23.416 23.2686 23.068 23.2686 22.648C23.2686 22.228 23.4066 21.886 23.6826 21.622C23.9466 21.358 24.2706 21.226 24.6546 21.226C25.0386 21.226 25.3686 21.358 25.6446 21.622C25.9206 21.886 26.0586 22.228 26.0586 22.648Z" fill="white"/>
</svg>
