<svg width="51" height="135" viewBox="0 0 51 135" fill="none" xmlns="http://www.w3.org/2000/svg">
<path fill-rule="evenodd" clip-rule="evenodd" d="M0.000610352 0H50.0486V121.829H0.000610352V0ZM0 135V121.829H25.0254L0 135ZM25.0254 121.829H50.0483V135L25.0254 121.829Z" fill="#8B6CB0"/>
<path d="M31.112 89.512V97.912L35 99.568V102.784L18.2 95.224V92.152L35 84.568V87.832L31.112 89.512ZM28.664 90.544L21.32 93.712L28.664 96.856V90.544ZM29.864 76.9997V79.3277H35V82.3277H22.184V79.3277H27.368V76.9277L22.184 73.1357V69.9197L28.352 74.5757L35 69.6077V73.1357L29.864 76.9997ZM32.456 53.4278H37.952V56.2358H35V67.4918H22.184V64.4918H32.456V58.3718H22.184L22.184 55.3718H32.456V53.4278ZM22.184 50.7574V47.7574H35V50.7574H22.184ZM20.072 49.2454C20.072 49.7894 19.904 50.2454 19.568 50.6134C19.216 50.9814 18.784 51.1654 18.272 51.1654C17.76 51.1654 17.336 50.9814 17 50.6134C16.648 50.2454 16.472 49.7894 16.472 49.2454C16.472 48.7014 16.64 48.2454 16.976 47.8774C17.296 47.5094 17.704 47.3254 18.2 47.3254C18.728 47.3254 19.176 47.5094 19.544 47.8774C19.896 48.2294 20.072 48.6854 20.072 49.2454ZM22.184 32.8787H35V35.5667H31.136V38.9507L35 41.5667V44.7827L30.728 41.7587C30.408 42.6867 29.92 43.3987 29.264 43.8947C28.592 44.3747 27.768 44.6147 26.792 44.6147C25.32 44.6147 24.184 44.0947 23.384 43.0547C22.584 42.0147 22.184 40.5827 22.184 38.7587V32.8787ZM24.704 38.6628C24.704 40.5987 25.432 41.5667 26.888 41.5667C28.328 41.5667 29.048 40.6307 29.048 38.7587V35.5667H24.704V38.6628ZM18.2 29.2754V25.7234L29.432 26.3234V28.6994L18.2 29.2754ZM35.168 27.4994C35.168 28.0594 34.992 28.5234 34.64 28.8914C34.272 29.2594 33.824 29.4434 33.296 29.4434C32.768 29.4434 32.328 29.2594 31.976 28.8914C31.624 28.5234 31.448 28.0594 31.448 27.4994C31.448 26.9554 31.624 26.5074 31.976 26.1554C32.328 25.7874 32.768 25.6034 33.296 25.6034C33.824 25.6034 34.272 25.7874 34.64 26.1554C34.992 26.5074 35.168 26.9554 35.168 27.4994Z" fill="white"/>
</svg>
