<svg width="64" height="64" viewBox="0 0 64 64" fill="none" xmlns="http://www.w3.org/2000/svg">
<path fill-rule="evenodd" clip-rule="evenodd" d="M63.0293 42.2849L47.9756 33.2509C47.9756 33.2557 47.9756 33.2613 47.9746 33.2655C47.9844 32.8427 48 32.4268 48 31.9991C48 15.9721 40.3076 5.13347 33.1094 0.335134C32.7734 0.111957 32.3867 0 32 0C31.6133 0 31.2266 0.111957 30.8906 0.335134C23.6924 5.13347 15.9999 15.9721 15.9999 31.9991C15.9999 32.4268 16.0156 32.8427 16.0254 33.2655C16.0244 33.2613 16.0244 33.2557 16.0244 33.2509L0.970728 42.2849C0.368214 42.6452 0 43.2967 0 43.9998V49.9991C0 51.104 0.895422 51.9984 2 51.9984H19.1884C19.704 53.627 20.0928 54.6159 20.1425 54.7417C20.4473 55.5011 21.1826 55.9977 21.9999 55.9977H26.9999C26.9999 60.7827 29.585 63.999 32 63.999C34.3965 63.999 36.9609 60.8329 37.0001 56.1103C37.002 56.0728 37.0029 56.0359 37.0029 55.9977H42.0001C42.8174 55.9977 43.5527 55.5011 43.8573 54.7417C43.9072 54.6159 44.2959 53.627 44.8116 51.9984H62C63.1044 51.9984 63.9999 51.104 63.9999 49.9991V43.9998C63.9999 43.2967 63.6318 42.6452 63.0293 42.2849ZM32 1.99854C38 5.99992 46 15.9992 46 31.9991C46 36.4004 45.4609 40.5318 44.7793 43.9998H19.2207C18.5391 40.5318 18 36.4004 18 31.9991C18 15.9992 26 5.99992 32 1.99854ZM2 43.9998L16.1172 35.5284C16.3516 39.4302 16.9316 43.0137 17.5889 46.0005H2V43.9998ZM2 49.9991V47.9997H18.0586C18.2402 48.7257 18.4209 49.3962 18.5985 50.022C18.5956 50.0144 18.5939 50.0067 18.5917 49.9991H2ZM32 61.999C31 61.999 28.9999 59.999 28.9999 55.9977H34.9999C34.9999 59.999 33 61.999 32 61.999ZM42.0001 53.9991H21.9999C21.9999 53.9991 20.7461 50.8628 19.6425 46.0005H44.3574C43.2539 50.8628 42.0001 53.9991 42.0001 53.9991ZM62 49.9991H45.4083C45.4063 50.0067 45.4042 50.0144 45.4014 50.022C45.5791 49.3962 45.7598 48.7257 45.9413 47.9997H62V49.9991ZM62 46.0005H46.4111C47.0683 43.0137 47.6484 39.4302 47.8828 35.5284L62 43.9998V46.0005ZM32 29.9999C35.3135 29.9999 38 27.3121 38 23.9985C38 20.6863 35.3135 17.9992 32 17.9992C28.6865 17.9992 26 20.6863 26 23.9985C26 27.3121 28.6865 29.9999 32 29.9999ZM32 19.9985C34.2089 19.9985 36 21.7905 36 23.9985C36 26.2099 34.2089 27.9992 32 27.9992C29.7909 27.9992 28 26.2099 28 23.9985C28 21.7905 29.7909 19.9985 32 19.9985Z" fill="#5A84B2"/>
</svg>
