<svg width="32" height="32" viewBox="0 0 32 32" fill="none" xmlns="http://www.w3.org/2000/svg">
<path fill-rule="evenodd" clip-rule="evenodd" d="M0 15.9956C0 7.1753 7.17787 -0.00439453 16.0001 -0.00439453C24.8223 -0.00439453 32.0001 7.1753 32.0001 15.9956C32.0001 24.8183 24.8223 31.9962 16.0001 31.9962C7.17787 31.9962 0 24.8183 0 15.9956ZM2.00011 15.9956C2.00011 23.7157 8.28037 29.9985 16.0001 29.9985C23.7198 29.9985 30 23.7157 30 15.9956C30 8.27913 23.7198 1.99628 16.0001 1.99628C8.28037 1.99628 2.00011 8.27913 2.00011 15.9956ZM19.0001 15.9956C19.0001 17.6501 17.6544 18.996 16.0001 18.996C14.3458 18.996 13 17.6501 13 15.9956C13 14.6945 13.8389 13.5949 15.0001 13.1834V4.99728C15.0001 4.4454 15.4474 3.99817 16.0001 3.99817C16.5529 3.99817 17.0001 4.4454 17.0001 4.99728V13.1834C18.1612 13.5949 19.0001 14.6945 19.0001 15.9956ZM17.0001 15.9956C17.0001 15.4455 16.5518 14.9971 16.0001 14.9971C15.4483 14.9971 15.0001 15.4455 15.0001 15.9956C15.0001 16.5481 15.4483 16.9965 16.0001 16.9965C16.5518 16.9965 17.0001 16.5481 17.0001 15.9956ZM5.00006 14.9971C5.55293 14.9971 6.00005 15.4437 6.00005 15.9956C6.00005 16.5481 5.55293 16.9965 5.00006 16.9965H4.00008C3.44733 16.9965 3.00009 16.5481 3.00009 15.9956C3.00009 15.4437 3.44733 14.9971 4.00008 14.9971H5.00006ZM5.97278 20.6324L5.10751 21.1274C4.62892 21.4076 4.46491 22.0194 4.74117 22.4957C4.92692 22.8182 5.26281 22.9937 5.60844 22.9937C5.77836 22.9937 5.95024 22.9532 6.1075 22.8642L6.97277 22.3625C7.45125 22.0872 7.61537 21.4735 7.33901 20.9961C7.0616 20.5174 6.4492 20.3534 5.97278 20.6324ZM11.0001 22.9937H21C21.5528 22.9937 22 23.4428 22 23.9959C22 24.5508 21.5528 24.9944 21 24.9944H11.0001C10.4473 24.9944 10.0001 24.5508 10.0001 23.9959C10.0001 23.4428 10.4473 22.9937 11.0001 22.9937ZM6.97371 9.62862L6.1075 9.1312C5.62993 8.85582 5.01767 9.01983 4.74117 9.49489C4.46491 9.9754 4.62892 10.5866 5.10751 10.8632L5.97373 11.3606C6.13095 11.4544 6.30284 11.4956 6.4728 11.4956C6.81842 11.4956 7.15428 11.3182 7.34002 10.9969C7.61628 10.5182 7.4523 9.90641 6.97371 9.62862ZM11.3662 5.97102C11.6426 6.44908 11.4776 7.06274 10.999 7.33868C10.8418 7.42765 10.6699 7.47062 10.501 7.47062C10.1554 7.47062 9.81848 7.29209 9.63389 6.96953L9.13388 6.10353C8.85741 5.62728 9.02254 5.01121 9.50103 4.73709C9.97948 4.46234 10.5919 4.62632 10.8663 5.10624L11.3662 5.97102ZM22.499 4.73709C22.0215 4.46294 21.4082 4.62632 21.1338 5.10624L20.6338 5.97102C20.3574 6.44908 20.5226 7.06274 21.001 7.33868C21.1582 7.42765 21.3292 7.47062 21.499 7.47062C21.8448 7.47062 22.1817 7.29209 22.3662 6.96953L22.8662 6.10353C23.1426 5.62728 22.9777 5.01121 22.499 4.73709ZM26.0255 11.3624C25.8683 11.4544 25.6963 11.4956 25.5264 11.4956C25.1808 11.4956 24.8448 11.3195 24.6593 10.9969C24.3828 10.5194 24.5469 9.90701 25.0255 9.62862L25.8926 9.1312C26.3692 8.85582 26.9815 9.01682 27.2588 9.49489C27.5353 9.97418 27.3712 10.5866 26.8927 10.8632L26.0255 11.3624ZM28 14.9971H26.9981C26.4454 14.9971 25.9981 15.4437 25.9981 15.9956C25.9981 16.5481 26.4454 16.9965 26.9981 16.9965H28C28.5528 16.9965 29 16.5481 29 15.9956C29 15.4437 28.5528 14.9971 28 14.9971ZM26.0236 20.6324L26.8917 21.1274C27.3702 21.4064 27.5353 22.0164 27.2588 22.4957C27.0742 22.8182 26.7373 22.9937 26.3917 22.9937C26.2228 22.9937 26.0509 22.9532 25.8936 22.8642L25.0255 22.3625C24.5469 22.0884 24.382 21.4748 24.6583 20.9967C24.9327 20.5174 25.544 20.3534 26.0236 20.6324Z" fill="white"/>
</svg>
