<svg width="246" height="100" viewBox="0 0 246 100" fill="none" xmlns="http://www.w3.org/2000/svg">
<g filter="url(#filter0_d_2438_3)">
<path fill-rule="evenodd" clip-rule="evenodd" d="M-6 16.0029H226V76.0027H-6V16.0029Z" fill="#5984B2"/>
</g>
<path d="M20.756 32.8709H16.28L16.292 40.5029H15.416V32.1029H20.756V32.8709ZM24.2512 34.1429C25.0752 34.1429 25.7072 34.3509 26.1472 34.7669C26.5872 35.1749 26.8072 35.7829 26.8072 36.5909V40.5029H25.9912V39.5189C25.7992 39.8469 25.5152 40.1029 25.1392 40.2869C24.7712 40.4709 24.3312 40.5629 23.8192 40.5629C23.1152 40.5629 22.5552 40.3949 22.1392 40.0589C21.7232 39.7229 21.5152 39.2789 21.5152 38.7269C21.5152 38.1909 21.7072 37.7589 22.0912 37.4309C22.4832 37.1029 23.1032 36.9389 23.9512 36.9389H25.9552V36.5549C25.9552 36.0109 25.8032 35.5989 25.4992 35.3189C25.1952 35.0309 24.7512 34.8869 24.1672 34.8869C23.7672 34.8869 23.3832 34.9549 23.0152 35.0909C22.6472 35.2189 22.3312 35.3989 22.0672 35.6309L21.6832 34.9949C22.0032 34.7229 22.3872 34.5149 22.8352 34.3709C23.2832 34.2189 23.7552 34.1429 24.2512 34.1429ZM23.9512 39.8909C24.4312 39.8909 24.8432 39.7829 25.1872 39.5669C25.5312 39.3429 25.7872 39.0229 25.9552 38.6069V37.5749H23.9752C22.8952 37.5749 22.3552 37.9509 22.3552 38.7029C22.3552 39.0709 22.4952 39.3629 22.7752 39.5789C23.0552 39.7869 23.4472 39.8909 23.9512 39.8909ZM32.3273 34.1429C32.9193 34.1429 33.4553 34.2789 33.9353 34.5509C34.4153 34.8149 34.7913 35.1909 35.0633 35.6789C35.3353 36.1669 35.4713 36.7229 35.4713 37.3469C35.4713 37.9789 35.3353 38.5389 35.0633 39.0269C34.7913 39.5149 34.4153 39.8949 33.9353 40.1669C33.4633 40.4309 32.9273 40.5629 32.3273 40.5629C31.8153 40.5629 31.3513 40.4589 30.9353 40.2509C30.5273 40.0349 30.1913 39.7229 29.9273 39.3149V42.8309H29.0753V34.1909H29.8913V35.4389C30.1473 35.0229 30.4833 34.7029 30.8993 34.4789C31.3233 34.2549 31.7993 34.1429 32.3273 34.1429ZM32.2673 39.8069C32.7073 39.8069 33.1073 39.7069 33.4673 39.5069C33.8273 39.2989 34.1073 39.0069 34.3073 38.6309C34.5153 38.2549 34.6193 37.8269 34.6193 37.3469C34.6193 36.8669 34.5153 36.4429 34.3073 36.0749C34.1073 35.6989 33.8273 35.4069 33.4673 35.1989C33.1073 34.9909 32.7073 34.8869 32.2673 34.8869C31.8193 34.8869 31.4153 34.9909 31.0553 35.1989C30.7033 35.4069 30.4233 35.6989 30.2153 36.0749C30.0153 36.4429 29.9153 36.8669 29.9153 37.3469C29.9153 37.8269 30.0153 38.2549 30.2153 38.6309C30.4233 39.0069 30.7033 39.2989 31.0553 39.5069C31.4153 39.7069 31.8193 39.8069 32.2673 39.8069ZM39.4387 34.1429C40.2627 34.1429 40.8947 34.3509 41.3347 34.7669C41.7747 35.1749 41.9947 35.7829 41.9947 36.5909V40.5029H41.1787V39.5189C40.9867 39.8469 40.7027 40.1029 40.3267 40.2869C39.9587 40.4709 39.5187 40.5629 39.0067 40.5629C38.3027 40.5629 37.7427 40.3949 37.3267 40.0589C36.9107 39.7229 36.7027 39.2789 36.7027 38.7269C36.7027 38.1909 36.8947 37.7589 37.2787 37.4309C37.6707 37.1029 38.2907 36.9389 39.1387 36.9389H41.1427V36.5549C41.1427 36.0109 40.9907 35.5989 40.6867 35.3189C40.3827 35.0309 39.9387 34.8869 39.3547 34.8869C38.9547 34.8869 38.5707 34.9549 38.2027 35.0909C37.8347 35.2189 37.5187 35.3989 37.2547 35.6309L36.8707 34.9949C37.1907 34.7229 37.5747 34.5149 38.0227 34.3709C38.4707 34.2189 38.9427 34.1429 39.4387 34.1429ZM39.1387 39.8909C39.6187 39.8909 40.0307 39.7829 40.3747 39.5669C40.7187 39.3429 40.9747 39.0229 41.1427 38.6069V37.5749H39.1627C38.0827 37.5749 37.5427 37.9509 37.5427 38.7029C37.5427 39.0709 37.6827 39.3629 37.9627 39.5789C38.2427 39.7869 38.6347 39.8909 39.1387 39.8909ZM44.2628 34.1909H45.1148V36.9869H49.0868V34.1909H49.9388V40.5029H49.0868V37.7189H45.1148V40.5029H44.2628V34.1909ZM56.8004 34.9469H54.4124V40.5029H53.5604V34.9469H51.1724V34.1909H56.8004V34.9469ZM58.0323 34.1909H58.8843V39.2069L63.0963 34.1909H63.8523V40.5029H63.0003V35.4869L58.8003 40.5029H58.0323V34.1909ZM71.142 34.1909V40.5029H70.362V38.4149H68.382H68.142L66.678 40.5029H65.754L67.326 38.2949C66.838 38.1589 66.462 37.9269 66.198 37.5989C65.934 37.2709 65.802 36.8549 65.802 36.3509C65.802 35.6469 66.042 35.1109 66.522 34.7429C67.002 34.3749 67.658 34.1909 68.49 34.1909H71.142ZM66.666 36.3749C66.666 37.3109 67.262 37.7789 68.454 37.7789H70.362V34.9469H68.514C67.282 34.9469 66.666 35.4229 66.666 36.3749ZM79.784 37.2149C80.232 37.3189 80.576 37.4989 80.816 37.7549C81.064 38.0109 81.188 38.3229 81.188 38.6909C81.188 39.0589 81.06 39.3869 80.804 39.6749C80.556 39.9629 80.216 40.1869 79.784 40.3469C79.352 40.4989 78.876 40.5749 78.356 40.5749C77.9 40.5749 77.452 40.5109 77.012 40.3829C76.572 40.2469 76.188 40.0509 75.86 39.7949L76.148 39.1589C76.436 39.3749 76.772 39.5429 77.156 39.6629C77.54 39.7829 77.928 39.8429 78.32 39.8429C78.904 39.8429 79.38 39.7349 79.748 39.5189C80.124 39.2949 80.312 38.9949 80.312 38.6189C80.312 38.2829 80.16 38.0229 79.856 37.8389C79.552 37.6469 79.136 37.5509 78.608 37.5509H77.528V36.9269H78.56C79.032 36.9269 79.412 36.8389 79.7 36.6629C79.988 36.4789 80.132 36.2349 80.132 35.9309C80.132 35.5949 79.968 35.3309 79.64 35.1389C79.32 34.9469 78.9 34.8509 78.38 34.8509C77.7 34.8509 77.028 35.0229 76.364 35.3669L76.124 34.7069C76.876 34.3149 77.656 34.1189 78.464 34.1189C78.944 34.1189 79.376 34.1909 79.76 34.3349C80.152 34.4709 80.456 34.6669 80.672 34.9229C80.896 35.1789 81.008 35.4749 81.008 35.8109C81.008 36.1309 80.896 36.4149 80.672 36.6629C80.456 36.9109 80.16 37.0949 79.784 37.2149ZM85.2942 34.1429C86.1182 34.1429 86.7502 34.3509 87.1902 34.7669C87.6302 35.1749 87.8502 35.7829 87.8502 36.5909V40.5029H87.0342V39.5189C86.8422 39.8469 86.5582 40.1029 86.1822 40.2869C85.8142 40.4709 85.3742 40.5629 84.8622 40.5629C84.1582 40.5629 83.5982 40.3949 83.1822 40.0589C82.7662 39.7229 82.5582 39.2789 82.5582 38.7269C82.5582 38.1909 82.7502 37.7589 83.1342 37.4309C83.5262 37.1029 84.1462 36.9389 84.9942 36.9389H86.9982V36.5549C86.9982 36.0109 86.8462 35.5989 86.5422 35.3189C86.2382 35.0309 85.7942 34.8869 85.2102 34.8869C84.8102 34.8869 84.4262 34.9549 84.0582 35.0909C83.6902 35.2189 83.3742 35.3989 83.1102 35.6309L82.7262 34.9949C83.0462 34.7229 83.4302 34.5149 83.8782 34.3709C84.3262 34.2189 84.7982 34.1429 85.2942 34.1429ZM84.9942 39.8909C85.4742 39.8909 85.8862 39.7829 86.2302 39.5669C86.5742 39.3429 86.8302 39.0229 86.9982 38.6069V37.5749H85.0182C83.9382 37.5749 83.3982 37.9509 83.3982 38.7029C83.3982 39.0709 83.5382 39.3629 83.8182 39.5789C84.0982 39.7869 84.4902 39.8909 84.9942 39.8909ZM94.9662 34.1909V40.5029H94.1863V38.4149H92.2063H91.9663L90.5023 40.5029H89.5783L91.1503 38.2949C90.6623 38.1589 90.2863 37.9269 90.0223 37.5989C89.7583 37.2709 89.6263 36.8549 89.6263 36.3509C89.6263 35.6469 89.8663 35.1109 90.3463 34.7429C90.8263 34.3749 91.4823 34.1909 92.3143 34.1909H94.9662ZM90.4902 36.3749C90.4902 37.3109 91.0863 37.7789 92.2783 37.7789H94.1863V34.9469H92.3383C91.1063 34.9469 90.4902 35.4229 90.4902 36.3749ZM101.416 37.2389C102.272 37.4389 102.7 37.9549 102.7 38.7869C102.7 39.3389 102.496 39.7629 102.088 40.0589C101.68 40.3549 101.072 40.5029 100.264 40.5029H97.3956V34.1909H100.18C100.9 34.1909 101.464 34.3309 101.872 34.6109C102.28 34.8909 102.484 35.2909 102.484 35.8109C102.484 36.1549 102.388 36.4509 102.196 36.6989C102.012 36.9389 101.752 37.1189 101.416 37.2389ZM98.2236 36.9989H100.12C100.608 36.9989 100.98 36.9069 101.236 36.7229C101.5 36.5389 101.632 36.2709 101.632 35.9189C101.632 35.5669 101.5 35.3029 101.236 35.1269C100.98 34.9509 100.608 34.8629 100.12 34.8629H98.2236V36.9989ZM100.228 39.8309C100.772 39.8309 101.18 39.7429 101.452 39.5669C101.724 39.3909 101.86 39.1149 101.86 38.7389C101.86 38.3629 101.736 38.0869 101.488 37.9109C101.24 37.7269 100.848 37.6349 100.312 37.6349H98.2236V39.8309H100.228ZM109.856 34.1909V40.5029H109.004V34.9469H105.98L105.896 36.5069C105.832 37.8189 105.68 38.8269 105.44 39.5309C105.2 40.2349 104.772 40.5869 104.156 40.5869C103.988 40.5869 103.784 40.5549 103.544 40.4909L103.604 39.7589C103.748 39.7909 103.848 39.8069 103.904 39.8069C104.232 39.8069 104.48 39.6549 104.648 39.3509C104.816 39.0469 104.928 38.6709 104.984 38.2229C105.04 37.7749 105.088 37.1829 105.128 36.4469L105.236 34.1909H109.856ZM117.798 37.6109H112.518C112.566 38.2669 112.818 38.7989 113.274 39.2069C113.73 39.6069 114.306 39.8069 115.002 39.8069C115.394 39.8069 115.754 39.7389 116.082 39.6029C116.41 39.4589 116.694 39.2509 116.934 38.9789L117.414 39.5309C117.134 39.8669 116.782 40.1229 116.358 40.2989C115.942 40.4749 115.482 40.5629 114.978 40.5629C114.33 40.5629 113.754 40.4269 113.25 40.1549C112.754 39.8749 112.366 39.4909 112.086 39.0029C111.806 38.5149 111.666 37.9629 111.666 37.3469C111.666 36.7309 111.798 36.1789 112.062 35.6909C112.334 35.2029 112.702 34.8229 113.166 34.5509C113.638 34.2789 114.166 34.1429 114.75 34.1429C115.334 34.1429 115.858 34.2789 116.322 34.5509C116.786 34.8229 117.15 35.2029 117.414 35.6909C117.678 36.1709 117.81 36.7229 117.81 37.3469L117.798 37.6109ZM114.75 34.8749C114.142 34.8749 113.63 35.0709 113.214 35.4629C112.806 35.8469 112.574 36.3509 112.518 36.9749H116.994C116.938 36.3509 116.702 35.8469 116.286 35.4629C115.878 35.0709 115.366 34.8749 114.75 34.8749ZM119.696 34.1909H120.548V36.9869H124.52V34.1909H125.372V40.5029H124.52V37.7189H120.548V40.5029H119.696V34.1909ZM127.794 34.1909H128.646V36.9869H132.618V34.1909H133.47V40.5029H132.618V37.7189H128.646V40.5029H127.794V34.1909ZM138.496 40.5629C137.888 40.5629 137.34 40.4269 136.852 40.1549C136.364 39.8749 135.98 39.4909 135.7 39.0029C135.42 38.5149 135.28 37.9629 135.28 37.3469C135.28 36.7309 135.42 36.1789 135.7 35.6909C135.98 35.2029 136.364 34.8229 136.852 34.5509C137.34 34.2789 137.888 34.1429 138.496 34.1429C139.104 34.1429 139.652 34.2789 140.14 34.5509C140.628 34.8229 141.008 35.2029 141.28 35.6909C141.56 36.1789 141.7 36.7309 141.7 37.3469C141.7 37.9629 141.56 38.5149 141.28 39.0029C141.008 39.4909 140.628 39.8749 140.14 40.1549C139.652 40.4269 139.104 40.5629 138.496 40.5629ZM138.496 39.8069C138.944 39.8069 139.344 39.7069 139.696 39.5069C140.056 39.2989 140.336 39.0069 140.536 38.6309C140.736 38.2549 140.836 37.8269 140.836 37.3469C140.836 36.8669 140.736 36.4389 140.536 36.0629C140.336 35.6869 140.056 35.3989 139.696 35.1989C139.344 34.9909 138.944 34.8869 138.496 34.8869C138.048 34.8869 137.644 34.9909 137.284 35.1989C136.932 35.3989 136.652 35.6869 136.444 36.0629C136.244 36.4389 136.144 36.8669 136.144 37.3469C136.144 37.8269 136.244 38.2549 136.444 38.6309C136.652 39.0069 136.932 39.2989 137.284 39.5069C137.644 39.7069 138.048 39.8069 138.496 39.8069ZM143.521 34.1909H144.373V39.2069L148.585 34.1909H149.341V40.5029H148.489V35.4869L144.289 40.5029H143.521V34.1909ZM146.389 33.2789C145.845 33.2789 145.413 33.1429 145.093 32.8709C144.773 32.5989 144.609 32.2149 144.601 31.7189H145.213C145.221 32.0309 145.333 32.2829 145.549 32.4749C145.765 32.6589 146.045 32.7509 146.389 32.7509C146.733 32.7509 147.013 32.6589 147.229 32.4749C147.453 32.2829 147.569 32.0309 147.577 31.7189H148.189C148.181 32.2149 148.013 32.5989 147.685 32.8709C147.365 33.1429 146.933 33.2789 146.389 33.2789ZM17.852 58.5629C17.228 58.5629 16.668 58.4269 16.172 58.1549C15.684 57.8829 15.3 57.5029 15.02 57.0149C14.74 56.5189 14.6 55.9629 14.6 55.3469C14.6 54.7309 14.74 54.1789 15.02 53.6909C15.3 53.2029 15.684 52.8229 16.172 52.5509C16.668 52.2789 17.228 52.1429 17.852 52.1429C18.396 52.1429 18.88 52.2509 19.304 52.4669C19.736 52.6749 20.076 52.9829 20.324 53.3909L19.688 53.8229C19.48 53.5109 19.216 53.2789 18.896 53.1269C18.576 52.9669 18.228 52.8869 17.852 52.8869C17.396 52.8869 16.984 52.9909 16.616 53.1989C16.256 53.3989 15.972 53.6869 15.764 54.0629C15.564 54.4389 15.464 54.8669 15.464 55.3469C15.464 55.8349 15.564 56.2669 15.764 56.6429C15.972 57.0109 16.256 57.2989 16.616 57.5069C16.984 57.7069 17.396 57.8069 17.852 57.8069C18.228 57.8069 18.576 57.7309 18.896 57.5789C19.216 57.4269 19.48 57.1949 19.688 56.8829L20.324 57.3149C20.076 57.7229 19.736 58.0349 19.304 58.2509C18.872 58.4589 18.388 58.5629 17.852 58.5629ZM24.2657 55.6949H22.8257V58.5029H21.9737V52.1909H22.8257V54.9629H24.2777L26.4977 52.1909H27.4217L24.9377 55.2509L27.6017 58.5029H26.5937L24.2657 55.6949ZM31.3277 58.5629C30.7197 58.5629 30.1717 58.4269 29.6837 58.1549C29.1957 57.8749 28.8117 57.4909 28.5317 57.0029C28.2517 56.5149 28.1117 55.9629 28.1117 55.3469C28.1117 54.7309 28.2517 54.1789 28.5317 53.6909C28.8117 53.2029 29.1957 52.8229 29.6837 52.5509C30.1717 52.2789 30.7197 52.1429 31.3277 52.1429C31.9357 52.1429 32.4837 52.2789 32.9717 52.5509C33.4597 52.8229 33.8397 53.2029 34.1117 53.6909C34.3917 54.1789 34.5317 54.7309 34.5317 55.3469C34.5317 55.9629 34.3917 56.5149 34.1117 57.0029C33.8397 57.4909 33.4597 57.8749 32.9717 58.1549C32.4837 58.4269 31.9357 58.5629 31.3277 58.5629ZM31.3277 57.8069C31.7757 57.8069 32.1757 57.7069 32.5277 57.5069C32.8877 57.2989 33.1677 57.0069 33.3677 56.6309C33.5677 56.2549 33.6677 55.8269 33.6677 55.3469C33.6677 54.8669 33.5677 54.4389 33.3677 54.0629C33.1677 53.6869 32.8877 53.3989 32.5277 53.1989C32.1757 52.9909 31.7757 52.8869 31.3277 52.8869C30.8797 52.8869 30.4757 52.9909 30.1157 53.1989C29.7637 53.3989 29.4837 53.6869 29.2757 54.0629C29.0757 54.4389 28.9757 54.8669 28.9757 55.3469C28.9757 55.8269 29.0757 56.2549 29.2757 56.6309C29.4837 57.0069 29.7637 57.2989 30.1157 57.5069C30.4757 57.7069 30.8797 57.8069 31.3277 57.8069ZM39.6046 52.1429C40.1966 52.1429 40.7326 52.2789 41.2126 52.5509C41.6926 52.8149 42.0686 53.1909 42.3406 53.6789C42.6126 54.1669 42.7486 54.7229 42.7486 55.3469C42.7486 55.9789 42.6126 56.5389 42.3406 57.0269C42.0686 57.5149 41.6926 57.8949 41.2126 58.1669C40.7406 58.4309 40.2046 58.5629 39.6046 58.5629C39.0926 58.5629 38.6286 58.4589 38.2126 58.2509C37.8046 58.0349 37.4686 57.7229 37.2046 57.3149V60.8309H36.3526V52.1909H37.1686V53.4389C37.4246 53.0229 37.7606 52.7029 38.1766 52.4789C38.6006 52.2549 39.0766 52.1429 39.6046 52.1429ZM39.5446 57.8069C39.9846 57.8069 40.3846 57.7069 40.7446 57.5069C41.1046 57.2989 41.3846 57.0069 41.5846 56.6309C41.7926 56.2549 41.8966 55.8269 41.8966 55.3469C41.8966 54.8669 41.7926 54.4429 41.5846 54.0749C41.3846 53.6989 41.1046 53.4069 40.7446 53.1989C40.3846 52.9909 39.9846 52.8869 39.5446 52.8869C39.0966 52.8869 38.6926 52.9909 38.3326 53.1989C37.9806 53.4069 37.7006 53.6989 37.4926 54.0749C37.2926 54.4429 37.1926 54.8669 37.1926 55.3469C37.1926 55.8269 37.2926 56.2549 37.4926 56.6309C37.7006 57.0069 37.9806 57.2989 38.3326 57.5069C38.6926 57.7069 39.0966 57.8069 39.5446 57.8069ZM47.1832 58.5629C46.5752 58.5629 46.0272 58.4269 45.5392 58.1549C45.0512 57.8749 44.6672 57.4909 44.3872 57.0029C44.1072 56.5149 43.9672 55.9629 43.9672 55.3469C43.9672 54.7309 44.1072 54.1789 44.3872 53.6909C44.6672 53.2029 45.0512 52.8229 45.5392 52.5509C46.0272 52.2789 46.5752 52.1429 47.1832 52.1429C47.7912 52.1429 48.3392 52.2789 48.8272 52.5509C49.3152 52.8229 49.6952 53.2029 49.9672 53.6909C50.2472 54.1789 50.3872 54.7309 50.3872 55.3469C50.3872 55.9629 50.2472 56.5149 49.9672 57.0029C49.6952 57.4909 49.3152 57.8749 48.8272 58.1549C48.3392 58.4269 47.7912 58.5629 47.1832 58.5629ZM47.1832 57.8069C47.6312 57.8069 48.0312 57.7069 48.3832 57.5069C48.7432 57.2989 49.0232 57.0069 49.2232 56.6309C49.4232 56.2549 49.5232 55.8269 49.5232 55.3469C49.5232 54.8669 49.4232 54.4389 49.2232 54.0629C49.0232 53.6869 48.7432 53.3989 48.3832 53.1989C48.0312 52.9909 47.6312 52.8869 47.1832 52.8869C46.7352 52.8869 46.3312 52.9909 45.9712 53.1989C45.6192 53.3989 45.3392 53.6869 45.1312 54.0629C44.9312 54.4389 44.8312 54.8669 44.8312 55.3469C44.8312 55.8269 44.9312 56.2549 45.1312 56.6309C45.3392 57.0069 45.6192 57.2989 45.9712 57.5069C46.3312 57.7069 46.7352 57.8069 47.1832 57.8069ZM54.8481 58.5629C54.2241 58.5629 53.6641 58.4269 53.1681 58.1549C52.6801 57.8829 52.2961 57.5029 52.0161 57.0149C51.7361 56.5189 51.5961 55.9629 51.5961 55.3469C51.5961 54.7309 51.7361 54.1789 52.0161 53.6909C52.2961 53.2029 52.6801 52.8229 53.1681 52.5509C53.6641 52.2789 54.2241 52.1429 54.8481 52.1429C55.3921 52.1429 55.8761 52.2509 56.3001 52.4669C56.7321 52.6749 57.0721 52.9829 57.3201 53.3909L56.6841 53.8229C56.4761 53.5109 56.2121 53.2789 55.8921 53.1269C55.5721 52.9669 55.2241 52.8869 54.8481 52.8869C54.3921 52.8869 53.9801 52.9909 53.6121 53.1989C53.2521 53.3989 52.9681 53.6869 52.7601 54.0629C52.5601 54.4389 52.4601 54.8669 52.4601 55.3469C52.4601 55.8349 52.5601 56.2669 52.7601 56.6429C52.9681 57.0109 53.2521 57.2989 53.6121 57.5069C53.9801 57.7069 54.3921 57.8069 54.8481 57.8069C55.2241 57.8069 55.5721 57.7309 55.8921 57.5789C56.2121 57.4269 56.4761 57.1949 56.6841 56.8829L57.3201 57.3149C57.0721 57.7229 56.7321 58.0349 56.3001 58.2509C55.8681 58.4589 55.3841 58.5629 54.8481 58.5629ZM63.2926 52.9469H60.9046V58.5029H60.0526V52.9469H57.6646V52.1909H63.2926V52.9469ZM64.5245 52.1909H65.3765V57.2069L69.5885 52.1909H70.3445V58.5029H69.4925V53.4869L65.2925 58.5029H64.5245V52.1909Z" fill="white"/>
<path fill-rule="evenodd" clip-rule="evenodd" d="M180 44.9956C180 36.1753 187.178 28.9956 196 28.9956C204.822 28.9956 212 36.1753 212 44.9956C212 53.8183 204.822 60.9962 196 60.9962C187.178 60.9962 180 53.8183 180 44.9956ZM182 44.9956C182 52.7157 188.28 58.9985 196 58.9985C203.72 58.9985 210 52.7157 210 44.9956C210 37.2791 203.72 30.9963 196 30.9963C188.28 30.9963 182 37.2791 182 44.9956ZM199 44.9956C199 46.6501 197.654 47.996 196 47.996C194.346 47.996 193 46.6501 193 44.9956C193 43.6945 193.839 42.5949 195 42.1834V33.9973C195 33.4454 195.447 32.9982 196 32.9982C196.553 32.9982 197 33.4454 197 33.9973V42.1834C198.161 42.5949 199 43.6945 199 44.9956ZM197 44.9956C197 44.4455 196.552 43.9971 196 43.9971C195.448 43.9971 195 44.4455 195 44.9956C195 45.5481 195.448 45.9965 196 45.9965C196.552 45.9965 197 45.5481 197 44.9956ZM185 43.9971C185.553 43.9971 186 44.4437 186 44.9956C186 45.5481 185.553 45.9965 185 45.9965H184C183.447 45.9965 183 45.5481 183 44.9956C183 44.4437 183.447 43.9971 184 43.9971H185ZM185.973 49.6324L185.108 50.1274C184.629 50.4076 184.465 51.0194 184.741 51.4957C184.927 51.8182 185.263 51.9937 185.608 51.9937C185.778 51.9937 185.95 51.9532 186.108 51.8642L186.973 51.3625C187.451 51.0872 187.615 50.4735 187.339 49.9961C187.062 49.5174 186.449 49.3534 185.973 49.6324ZM191 51.9937H201C201.553 51.9937 202 52.4428 202 52.9959C202 53.5508 201.553 53.9944 201 53.9944H191C190.447 53.9944 190 53.5508 190 52.9959C190 52.4428 190.447 51.9937 191 51.9937ZM186.974 38.6286L186.108 38.1312C185.63 37.8558 185.018 38.0198 184.741 38.4949C184.465 38.9754 184.629 39.5866 185.108 39.8632L185.974 40.3606C186.131 40.4544 186.303 40.4956 186.473 40.4956C186.818 40.4956 187.154 40.3182 187.34 39.9969C187.616 39.5182 187.452 38.9064 186.974 38.6286ZM191.366 34.971C191.643 35.4491 191.478 36.0627 190.999 36.3387C190.842 36.4276 190.67 36.4706 190.501 36.4706C190.155 36.4706 189.818 36.2921 189.634 35.9695L189.134 35.1035C188.857 34.6273 189.023 34.0112 189.501 33.7371C189.979 33.4623 190.592 33.6263 190.866 34.1062L191.366 34.971ZM202.499 33.7371C202.022 33.4629 201.408 33.6263 201.134 34.1062L200.634 34.971C200.357 35.4491 200.523 36.0627 201.001 36.3387C201.158 36.4276 201.329 36.4706 201.499 36.4706C201.845 36.4706 202.182 36.2921 202.366 35.9695L202.866 35.1035C203.143 34.6273 202.978 34.0112 202.499 33.7371ZM206.025 40.3624C205.868 40.4544 205.696 40.4956 205.526 40.4956C205.181 40.4956 204.845 40.3195 204.659 39.9969C204.383 39.5194 204.547 38.907 205.025 38.6286L205.893 38.1312C206.369 37.8558 206.982 38.0168 207.259 38.4949C207.535 38.9742 207.371 39.5866 206.893 39.8632L206.025 40.3624ZM208 43.9971H206.998C206.445 43.9971 205.998 44.4437 205.998 44.9956C205.998 45.5481 206.445 45.9965 206.998 45.9965H208C208.553 45.9965 209 45.5481 209 44.9956C209 44.4437 208.553 43.9971 208 43.9971ZM206.024 49.6324L206.892 50.1274C207.37 50.4064 207.535 51.0164 207.259 51.4957C207.074 51.8182 206.737 51.9937 206.392 51.9937C206.223 51.9937 206.051 51.9532 205.894 51.8642L205.025 51.3625C204.547 51.0884 204.382 50.4748 204.658 49.9967C204.933 49.5174 205.544 49.3534 206.024 49.6324Z" fill="white"/>
<path fill-rule="evenodd" clip-rule="evenodd" d="M241 75.9995H226V45.999L241 75.9995Z" fill="#5984B2"/>
<path fill-rule="evenodd" clip-rule="evenodd" d="M226 45.9992V16.0005H241L226 45.9992Z" fill="#5984B2"/>
<defs>
<filter id="filter0_d_2438_3" x="-26" y="0.00292969" width="272" height="100" filterUnits="userSpaceOnUse" color-interpolation-filters="sRGB">
<feFlood flood-opacity="0" result="BackgroundImageFix"/>
<feColorMatrix in="SourceAlpha" type="matrix" values="0 0 0 0 0 0 0 0 0 0 0 0 0 0 0 0 0 0 127 0" result="hardAlpha"/>
<feOffset dy="4"/>
<feGaussianBlur stdDeviation="10"/>
<feColorMatrix type="matrix" values="0 0 0 0 0.0431373 0 0 0 0 0.152941 0 0 0 0 0.235294 0 0 0 1 0"/>
<feBlend mode="normal" in2="BackgroundImageFix" result="effect1_dropShadow_2438_3"/>
<feBlend mode="normal" in="SourceGraphic" in2="effect1_dropShadow_2438_3" result="shape"/>
</filter>
</defs>
</svg>
