<svg width="19" height="19" viewBox="0 0 19 19" fill="none" xmlns="http://www.w3.org/2000/svg">
<path fill-rule="evenodd" clip-rule="evenodd" d="M18.312 2.95035C18.8393 2.42314 18.8393 1.56837 18.312 1.04116C17.7848 0.51395 16.9301 0.51395 16.4029 1.04116L9.6766 7.76742L2.95035 1.04116C2.42314 0.51395 1.56837 0.51395 1.04116 1.04116C0.51395 1.56837 0.51395 2.42314 1.04116 2.95035L7.76742 9.6766L1.04116 16.4029C0.51395 16.9301 0.51395 17.7848 1.04116 18.312C1.56837 18.8393 2.42314 18.8393 2.95035 18.312L9.6766 11.5858L16.4029 18.312C16.9301 18.8393 17.7848 18.8393 18.312 18.312C18.8393 17.7848 18.8393 16.9301 18.312 16.4029L11.5858 9.6766L18.312 2.95035Z" fill="white"/>
</svg>
