<svg width="26" height="26" viewBox="0 0 26 26" fill="none" xmlns="http://www.w3.org/2000/svg">
<path fill-rule="evenodd" clip-rule="evenodd" d="M20.1952 7.90821L23.0102 6.28397C23.7879 5.83193 24.0545 4.84022 23.6038 4.0627C23.1561 3.28449 22.1629 3.01779 21.3852 3.46564L18.57 5.09096C17.7923 5.54235 17.5258 6.5356 17.9766 7.3118C18.424 8.09065 19.4175 8.35537 20.1952 7.90821ZM24.375 11.3742H21.1251C20.2269 11.3742 19.4999 12.101 19.4999 12.9984C19.4999 13.8979 20.2269 14.6255 21.1251 14.6255H24.375C25.2734 14.6255 26 13.8979 26 12.9984C26 12.101 25.2734 11.3742 24.375 11.3742ZM20.195 18.0925L23.01 19.7183C23.7877 20.1679 24.0543 21.1614 23.6052 21.938C23.1559 22.7144 22.1627 22.9829 21.385 22.5331L18.5698 20.9082C17.7921 20.4568 17.5273 19.466 17.9764 18.6876C18.4255 17.9118 19.4173 17.6442 20.195 18.0925ZM11.375 0H9.75005H4.87495C4.66386 0 4.45298 0.0421134 4.25455 0.125476C4.05463 0.211061 3.8737 0.327028 3.72288 0.478439C3.56109 0.640286 0 4.87445 0 12.9987C0 21.1271 3.37847 25.0598 3.52296 25.2766C3.5689 25.3462 3.62933 25.401 3.68327 25.463C3.70874 25.489 3.72772 25.5187 3.75468 25.5406C3.88803 25.6741 4.03882 25.7739 4.2023 25.8437C4.23707 25.8628 4.27353 25.8739 4.31015 25.8858C4.49111 25.951 4.67985 26 4.87195 26H4.87495H9.75005H11.375C12.2732 26 13 25.2735 13 24.3722V17.8767C13 16.9781 12.2732 16.2504 11.375 16.2504H9.75005V9.74891H11.375C12.2732 9.74891 13 9.02368 13 8.12402V1.62579C13 0.725192 12.2732 0 11.375 0ZM9.75008 6.49899H8.12492C7.22689 6.49899 6.49994 7.22572 6.49994 8.12366V17.8763C6.49994 18.7738 7.22689 19.5005 8.12492 19.5005H9.75008V22.7488H5.80352C4.98153 21.2529 3.25 19.5005 3.25 12.9983C3.25 6.49899 4.87347 4.26638 5.63855 3.24921H9.75008V6.49899Z" fill="#BDBDBD"/>
</svg>
