<svg width="246" height="100" viewBox="0 0 246 100" fill="none" xmlns="http://www.w3.org/2000/svg">
<g filter="url(#filter0_d_2438_23)">
<path fill-rule="evenodd" clip-rule="evenodd" d="M-6 16.0024H226V76.0028H-6V16.0024Z" fill="#56AABF"/>
</g>
<path fill-rule="evenodd" clip-rule="evenodd" d="M184 40.999H180V60.9979H184C185.106 60.9979 186 60.101 186 58.9984V42.9966C186 41.8891 185.106 40.999 184 40.999ZM184 57.9968C184 58.5458 183.553 58.9984 183 58.9984H182V42.9966H183C183.553 42.9966 184 43.4426 184 43.9957V57.9968ZM209.892 51.4308C209.956 51.2995 209.998 51.1555 209.999 51.0017L210.893 47.4288C210.955 47.2987 210.997 47.1571 210.998 47.0046L211.945 43.2157C212.234 41.7494 211.266 40.999 210 40.999H202V30.9949C202 29.8905 201.106 28.9961 200 28.9961H197C195.894 28.9961 195.369 29.8397 195 30.9949L192.273 40.999H192C189.791 40.999 188 42.786 188 44.9979V56.9971H188.004H188C188 59.206 189.791 60.9979 192 60.9979H205.75C207 60.9979 207.656 60.2928 208 58.9984L208.892 55.4291C208.956 55.296 208.999 55.1562 209 54.9983L209.892 51.4308ZM204.813 58.9984H192C190.895 58.9984 190 58.1003 190 56.9971V44.9979C190 43.891 190.895 42.9966 192 42.9966H192.859C193.5 42.9966 193.852 42.5203 194 41.9957L197 31.9953C197.157 31.4591 197.5 30.9949 198.203 30.9949H199C199.553 30.9949 200 31.444 200 31.9953V41.9957C200 42.547 200.447 42.9966 201 42.9966H209C209.734 42.9966 209.906 43.4487 209.75 43.9957L209.214 45.9958H208C207.447 45.9958 207 46.4442 207 46.9955C207 47.5469 207.447 47.9965 208 47.9965H208.679L208.143 49.9972H207C206.447 49.9972 206 50.445 206 50.9951C206 51.5482 206.447 51.9978 207 51.9978H207.607L207.071 53.9961H206C205.447 53.9961 205 54.4421 205 54.9934C205 55.5478 205.447 55.9968 206 55.9968H206.536L206 57.9968C205.815 58.5736 205.365 58.9984 204.813 58.9984Z" fill="white"/>
<path d="M20.396 36.1709C20.98 36.2909 21.424 36.5269 21.728 36.8789C22.032 37.2229 22.184 37.6749 22.184 38.2349C22.184 38.9629 21.924 39.5229 21.404 39.9149C20.892 40.3069 20.136 40.5029 19.136 40.5029H15.416V32.1029H18.908C19.804 32.1029 20.504 32.2869 21.008 32.6549C21.512 33.0229 21.764 33.5549 21.764 34.2509C21.764 34.7229 21.644 35.1229 21.404 35.4509C21.164 35.7709 20.828 36.0109 20.396 36.1709ZM16.292 35.9069H18.86C19.508 35.9069 20.004 35.7749 20.348 35.5109C20.7 35.2469 20.876 34.8629 20.876 34.3589C20.876 33.8549 20.7 33.4709 20.348 33.2069C20.004 32.9429 19.508 32.8109 18.86 32.8109H16.292V35.9069ZM19.136 39.7949C20.584 39.7949 21.308 39.2549 21.308 38.1749C21.308 37.1189 20.584 36.5909 19.136 36.5909H16.292V39.7949H19.136ZM26.8523 36.4229C27.6443 36.4309 28.2483 36.6069 28.6643 36.9509C29.0803 37.2949 29.2883 37.7909 29.2883 38.4389C29.2883 39.1109 29.0643 39.6269 28.6163 39.9869C28.1683 40.3469 27.5283 40.5229 26.6963 40.5149L24.2003 40.5029V34.1909H25.0523V36.3989L26.8523 36.4229ZM30.3443 34.1909H31.1963V40.5029H30.3443V34.1909ZM26.6483 39.8669C27.2323 39.8749 27.6723 39.7589 27.9683 39.5189C28.2723 39.2709 28.4243 38.9109 28.4243 38.4389C28.4243 37.9749 28.2763 37.6309 27.9803 37.4069C27.6843 37.1829 27.2403 37.0669 26.6483 37.0589L25.0523 37.0349V39.8429L26.6483 39.8669ZM36.2622 40.5629C35.6382 40.5629 35.0782 40.4269 34.5822 40.1549C34.0942 39.8829 33.7102 39.5029 33.4302 39.0149C33.1502 38.5189 33.0102 37.9629 33.0102 37.3469C33.0102 36.7309 33.1502 36.1789 33.4302 35.6909C33.7102 35.2029 34.0942 34.8229 34.5822 34.5509C35.0782 34.2789 35.6382 34.1429 36.2622 34.1429C36.8062 34.1429 37.2902 34.2509 37.7142 34.4669C38.1462 34.6749 38.4862 34.9829 38.7342 35.3909L38.0982 35.8229C37.8902 35.5109 37.6262 35.2789 37.3062 35.1269C36.9862 34.9669 36.6382 34.8869 36.2622 34.8869C35.8062 34.8869 35.3942 34.9909 35.0262 35.1989C34.6662 35.3989 34.3822 35.6869 34.1742 36.0629C33.9742 36.4389 33.8742 36.8669 33.8742 37.3469C33.8742 37.8349 33.9742 38.2669 34.1742 38.6429C34.3822 39.0109 34.6662 39.2989 35.0262 39.5069C35.3942 39.7069 35.8062 39.8069 36.2622 39.8069C36.6382 39.8069 36.9862 39.7309 37.3062 39.5789C37.6262 39.4269 37.8902 39.1949 38.0982 38.8829L38.7342 39.3149C38.4862 39.7229 38.1462 40.0349 37.7142 40.2509C37.2822 40.4589 36.7982 40.5629 36.2622 40.5629ZM42.8824 40.5629C42.2744 40.5629 41.7264 40.4269 41.2384 40.1549C40.7504 39.8749 40.3664 39.4909 40.0864 39.0029C39.8064 38.5149 39.6664 37.9629 39.6664 37.3469C39.6664 36.7309 39.8064 36.1789 40.0864 35.6909C40.3664 35.2029 40.7504 34.8229 41.2384 34.5509C41.7264 34.2789 42.2744 34.1429 42.8824 34.1429C43.4904 34.1429 44.0384 34.2789 44.5264 34.5509C45.0144 34.8229 45.3944 35.2029 45.6664 35.6909C45.9464 36.1789 46.0864 36.7309 46.0864 37.3469C46.0864 37.9629 45.9464 38.5149 45.6664 39.0029C45.3944 39.4909 45.0144 39.8749 44.5264 40.1549C44.0384 40.4269 43.4904 40.5629 42.8824 40.5629ZM42.8824 39.8069C43.3304 39.8069 43.7304 39.7069 44.0824 39.5069C44.4424 39.2989 44.7224 39.0069 44.9224 38.6309C45.1224 38.2549 45.2224 37.8269 45.2224 37.3469C45.2224 36.8669 45.1224 36.4389 44.9224 36.0629C44.7224 35.6869 44.4424 35.3989 44.0824 35.1989C43.7304 34.9909 43.3304 34.8869 42.8824 34.8869C42.4344 34.8869 42.0304 34.9909 41.6704 35.1989C41.3184 35.3989 41.0384 35.6869 40.8304 36.0629C40.6304 36.4389 40.5304 36.8669 40.5304 37.3469C40.5304 37.8269 40.6304 38.2549 40.8304 38.6309C41.0384 39.0069 41.3184 39.2989 41.6704 39.5069C42.0304 39.7069 42.4344 39.8069 42.8824 39.8069ZM52.6713 34.1909V40.5029H51.8193V37.8749C51.0913 38.1949 50.3753 38.3549 49.6713 38.3549C48.9113 38.3549 48.3193 38.1829 47.8953 37.8389C47.4713 37.4869 47.2593 36.9629 47.2593 36.2669V34.1909H48.1113V36.2189C48.1113 36.6909 48.2633 37.0509 48.5673 37.2989C48.8713 37.5389 49.2913 37.6589 49.8273 37.6589C50.4193 37.6589 51.0833 37.5029 51.8193 37.1909V34.1909H52.6713ZM57.2629 34.1429C58.0869 34.1429 58.7189 34.3509 59.1589 34.7669C59.5989 35.1749 59.8189 35.7829 59.8189 36.5909V40.5029H59.0029V39.5189C58.8109 39.8469 58.5269 40.1029 58.1509 40.2869C57.7829 40.4709 57.3429 40.5629 56.8309 40.5629C56.1269 40.5629 55.5669 40.3949 55.1509 40.0589C54.7349 39.7229 54.5269 39.2789 54.5269 38.7269C54.5269 38.1909 54.7189 37.7589 55.1029 37.4309C55.4949 37.1029 56.1149 36.9389 56.9629 36.9389H58.9669V36.5549C58.9669 36.0109 58.8149 35.5989 58.5109 35.3189C58.2069 35.0309 57.7629 34.8869 57.1789 34.8869C56.7789 34.8869 56.3949 34.9549 56.0269 35.0909C55.6589 35.2189 55.3429 35.3989 55.0789 35.6309L54.6949 34.9949C55.0149 34.7229 55.3989 34.5149 55.8469 34.3709C56.2949 34.2189 56.7669 34.1429 57.2629 34.1429ZM56.9629 39.8909C57.4429 39.8909 57.8549 39.7829 58.1989 39.5669C58.5429 39.3429 58.7989 39.0229 58.9669 38.6069V37.5749H56.9869C55.9069 37.5749 55.3669 37.9509 55.3669 38.7029C55.3669 39.0709 55.5069 39.3629 55.7869 39.5789C56.0669 39.7869 56.4589 39.8909 56.9629 39.8909ZM62.087 34.1909H62.939V39.2069L67.151 34.1909H67.907V40.5029H67.055V35.4869L62.855 40.5029H62.087V34.1909ZM64.955 33.2789C64.411 33.2789 63.979 33.1429 63.659 32.8709C63.339 32.5989 63.175 32.2149 63.167 31.7189H63.779C63.787 32.0309 63.899 32.2829 64.115 32.4749C64.331 32.6589 64.611 32.7509 64.955 32.7509C65.299 32.7509 65.579 32.6589 65.795 32.4749C66.019 32.2829 66.135 32.0309 66.143 31.7189H66.755C66.747 32.2149 66.579 32.5989 66.251 32.8709C65.931 33.1429 65.499 33.2789 64.955 33.2789ZM79.0607 34.1909V40.5029H70.3487V34.1909H71.2007V39.7589H74.2967V34.1909H75.1487V39.7589H78.2087V34.1909H79.0607ZM87.0133 37.6109H81.7333C81.7813 38.2669 82.0333 38.7989 82.4893 39.2069C82.9453 39.6069 83.5213 39.8069 84.2173 39.8069C84.6093 39.8069 84.9693 39.7389 85.2973 39.6029C85.6253 39.4589 85.9093 39.2509 86.1493 38.9789L86.6293 39.5309C86.3493 39.8669 85.9973 40.1229 85.5733 40.2989C85.1573 40.4749 84.6973 40.5629 84.1933 40.5629C83.5453 40.5629 82.9693 40.4269 82.4653 40.1549C81.9693 39.8749 81.5813 39.4909 81.3013 39.0029C81.0213 38.5149 80.8813 37.9629 80.8813 37.3469C80.8813 36.7309 81.0133 36.1789 81.2773 35.6909C81.5493 35.2029 81.9173 34.8229 82.3813 34.5509C82.8533 34.2789 83.3813 34.1429 83.9653 34.1429C84.5493 34.1429 85.0733 34.2789 85.5373 34.5509C86.0013 34.8229 86.3653 35.2029 86.6293 35.6909C86.8933 36.1709 87.0253 36.7229 87.0253 37.3469L87.0133 37.6109ZM83.9653 34.8749C83.3573 34.8749 82.8453 35.0709 82.4293 35.4629C82.0213 35.8469 81.7893 36.3509 81.7333 36.9749H86.2093C86.1533 36.3509 85.9173 35.8469 85.5013 35.4629C85.0933 35.0709 84.5813 34.8749 83.9653 34.8749ZM94.4312 37.6109H89.1512C89.1992 38.2669 89.4512 38.7989 89.9072 39.2069C90.3632 39.6069 90.9392 39.8069 91.6352 39.8069C92.0272 39.8069 92.3872 39.7389 92.7152 39.6029C93.0432 39.4589 93.3272 39.2509 93.5672 38.9789L94.0472 39.5309C93.7672 39.8669 93.4152 40.1229 92.9912 40.2989C92.5752 40.4749 92.1152 40.5629 91.6112 40.5629C90.9632 40.5629 90.3872 40.4269 89.8832 40.1549C89.3872 39.8749 88.9992 39.4909 88.7192 39.0029C88.4392 38.5149 88.2992 37.9629 88.2992 37.3469C88.2992 36.7309 88.4312 36.1789 88.6952 35.6909C88.9672 35.2029 89.3352 34.8229 89.7992 34.5509C90.2712 34.2789 90.7992 34.1429 91.3832 34.1429C91.9672 34.1429 92.4912 34.2789 92.9552 34.5509C93.4192 34.8229 93.7832 35.2029 94.0472 35.6909C94.3112 36.1709 94.4432 36.7229 94.4432 37.3469L94.4312 37.6109ZM91.3832 34.8749C90.7752 34.8749 90.2632 35.0709 89.8472 35.4629C89.4392 35.8469 89.2072 36.3509 89.1512 36.9749H93.6272C93.5712 36.3509 93.3352 35.8469 92.9192 35.4629C92.5112 35.0709 91.9992 34.8749 91.3832 34.8749ZM101.762 37.6949H100.322V40.5029H99.4698V34.1909H100.322V36.9629H101.774L103.994 34.1909H104.918L102.434 37.2509L105.098 40.5029H104.09L101.762 37.6949ZM108.497 34.1429C109.321 34.1429 109.953 34.3509 110.393 34.7669C110.833 35.1749 111.053 35.7829 111.053 36.5909V40.5029H110.237V39.5189C110.045 39.8469 109.761 40.1029 109.385 40.2869C109.017 40.4709 108.577 40.5629 108.065 40.5629C107.361 40.5629 106.801 40.3949 106.385 40.0589C105.969 39.7229 105.761 39.2789 105.761 38.7269C105.761 38.1909 105.953 37.7589 106.337 37.4309C106.729 37.1029 107.349 36.9389 108.197 36.9389H110.201V36.5549C110.201 36.0109 110.049 35.5989 109.745 35.3189C109.441 35.0309 108.997 34.8869 108.413 34.8869C108.013 34.8869 107.629 34.9549 107.261 35.0909C106.893 35.2189 106.577 35.3989 106.313 35.6309L105.929 34.9949C106.249 34.7229 106.633 34.5149 107.081 34.3709C107.529 34.2189 108.001 34.1429 108.497 34.1429ZM108.197 39.8909C108.677 39.8909 109.089 39.7829 109.433 39.5669C109.777 39.3429 110.033 39.0229 110.201 38.6069V37.5749H108.221C107.141 37.5749 106.601 37.9509 106.601 38.7029C106.601 39.0709 106.741 39.3629 107.021 39.5789C107.301 39.7869 107.693 39.8909 108.197 39.8909ZM118.085 34.1909V40.5029H117.233V37.8749C116.505 38.1949 115.789 38.3549 115.085 38.3549C114.325 38.3549 113.733 38.1829 113.309 37.8389C112.885 37.4869 112.673 36.9629 112.673 36.2669V34.1909H113.525V36.2189C113.525 36.6909 113.677 37.0509 113.981 37.2989C114.285 37.5389 114.705 37.6589 115.241 37.6589C115.833 37.6589 116.497 37.5029 117.233 37.1909V34.1909H118.085ZM126.025 37.6109H120.745C120.793 38.2669 121.045 38.7989 121.501 39.2069C121.957 39.6069 122.533 39.8069 123.229 39.8069C123.621 39.8069 123.981 39.7389 124.309 39.6029C124.637 39.4589 124.921 39.2509 125.161 38.9789L125.641 39.5309C125.361 39.8669 125.009 40.1229 124.585 40.2989C124.169 40.4749 123.709 40.5629 123.205 40.5629C122.557 40.5629 121.981 40.4269 121.477 40.1549C120.981 39.8749 120.593 39.4909 120.313 39.0029C120.033 38.5149 119.893 37.9629 119.893 37.3469C119.893 36.7309 120.025 36.1789 120.289 35.6909C120.561 35.2029 120.929 34.8229 121.393 34.5509C121.865 34.2789 122.393 34.1429 122.977 34.1429C123.561 34.1429 124.085 34.2789 124.549 34.5509C125.013 34.8229 125.377 35.2029 125.641 35.6909C125.905 36.1709 126.037 36.7229 126.037 37.3469L126.025 37.6109ZM122.977 34.8749C122.369 34.8749 121.857 35.0709 121.441 35.4629C121.033 35.8469 120.801 36.3509 120.745 36.9749H125.221C125.165 36.3509 124.929 35.8469 124.513 35.4629C124.105 35.0709 123.593 34.8749 122.977 34.8749ZM130.563 40.5629C129.939 40.5629 129.379 40.4269 128.883 40.1549C128.395 39.8829 128.011 39.5029 127.731 39.0149C127.451 38.5189 127.311 37.9629 127.311 37.3469C127.311 36.7309 127.451 36.1789 127.731 35.6909C128.011 35.2029 128.395 34.8229 128.883 34.5509C129.379 34.2789 129.939 34.1429 130.563 34.1429C131.107 34.1429 131.591 34.2509 132.015 34.4669C132.447 34.6749 132.787 34.9829 133.035 35.3909L132.399 35.8229C132.191 35.5109 131.927 35.2789 131.607 35.1269C131.287 34.9669 130.939 34.8869 130.563 34.8869C130.107 34.8869 129.695 34.9909 129.327 35.1989C128.967 35.3989 128.683 35.6869 128.475 36.0629C128.275 36.4389 128.175 36.8669 128.175 37.3469C128.175 37.8349 128.275 38.2669 128.475 38.6429C128.683 39.0109 128.967 39.2989 129.327 39.5069C129.695 39.7069 130.107 39.8069 130.563 39.8069C130.939 39.8069 131.287 39.7309 131.607 39.5789C131.927 39.4269 132.191 39.1949 132.399 38.8829L133.035 39.3149C132.787 39.7229 132.447 40.0349 132.015 40.2509C131.583 40.4589 131.099 40.5629 130.563 40.5629ZM139.007 34.9469H136.619V40.5029H135.767V34.9469H133.379V34.1909H139.007V34.9469ZM144.259 37.2389C145.115 37.4389 145.543 37.9549 145.543 38.7869C145.543 39.3389 145.339 39.7629 144.931 40.0589C144.523 40.3549 143.915 40.5029 143.107 40.5029H140.239V34.1909H143.023C143.743 34.1909 144.307 34.3309 144.715 34.6109C145.123 34.8909 145.327 35.2909 145.327 35.8109C145.327 36.1549 145.231 36.4509 145.039 36.6989C144.855 36.9389 144.595 37.1189 144.259 37.2389ZM141.067 36.9989H142.963C143.451 36.9989 143.823 36.9069 144.079 36.7229C144.343 36.5389 144.475 36.2709 144.475 35.9189C144.475 35.5669 144.343 35.3029 144.079 35.1269C143.823 34.9509 143.451 34.8629 142.963 34.8629H141.067V36.9989ZM143.071 39.8309C143.615 39.8309 144.023 39.7429 144.295 39.5669C144.567 39.3909 144.703 39.1149 144.703 38.7389C144.703 38.3629 144.579 38.0869 144.331 37.9109C144.083 37.7269 143.691 37.6349 143.155 37.6349H141.067V39.8309H143.071ZM150.144 40.5629C149.536 40.5629 148.988 40.4269 148.5 40.1549C148.012 39.8749 147.628 39.4909 147.348 39.0029C147.068 38.5149 146.928 37.9629 146.928 37.3469C146.928 36.7309 147.068 36.1789 147.348 35.6909C147.628 35.2029 148.012 34.8229 148.5 34.5509C148.988 34.2789 149.536 34.1429 150.144 34.1429C150.752 34.1429 151.3 34.2789 151.788 34.5509C152.276 34.8229 152.656 35.2029 152.928 35.6909C153.208 36.1789 153.348 36.7309 153.348 37.3469C153.348 37.9629 153.208 38.5149 152.928 39.0029C152.656 39.4909 152.276 39.8749 151.788 40.1549C151.3 40.4269 150.752 40.5629 150.144 40.5629ZM150.144 39.8069C150.592 39.8069 150.992 39.7069 151.344 39.5069C151.704 39.2989 151.984 39.0069 152.184 38.6309C152.384 38.2549 152.484 37.8269 152.484 37.3469C152.484 36.8669 152.384 36.4389 152.184 36.0629C151.984 35.6869 151.704 35.3989 151.344 35.1989C150.992 34.9909 150.592 34.8869 150.144 34.8869C149.696 34.8869 149.292 34.9909 148.932 35.1989C148.58 35.3989 148.3 35.6869 148.092 36.0629C147.892 36.4389 147.792 36.8669 147.792 37.3469C147.792 37.8269 147.892 38.2549 148.092 38.6309C148.3 39.0069 148.58 39.2989 148.932 39.5069C149.292 39.7069 149.696 39.8069 150.144 39.8069ZM20.912 50.8709H17.96V58.5029H17.084V50.8709H14.132V50.1029H20.912V50.8709ZM27.4507 54.1709C28.0347 54.2909 28.4787 54.5269 28.7827 54.8789C29.0867 55.2229 29.2387 55.6749 29.2387 56.2349C29.2387 56.9629 28.9787 57.5229 28.4587 57.9149C27.9467 58.3069 27.1907 58.5029 26.1907 58.5029H22.4707V50.1029H25.9627C26.8587 50.1029 27.5587 50.2869 28.0627 50.6549C28.5667 51.0229 28.8187 51.5549 28.8187 52.2509C28.8187 52.7229 28.6987 53.1229 28.4587 53.4509C28.2187 53.7709 27.8827 54.0109 27.4507 54.1709ZM23.3467 53.9069H25.9147C26.5627 53.9069 27.0587 53.7749 27.4027 53.5109C27.7547 53.2469 27.9307 52.8629 27.9307 52.3589C27.9307 51.8549 27.7547 51.4709 27.4027 51.2069C27.0587 50.9429 26.5627 50.8109 25.9147 50.8109H23.3467V53.9069ZM26.1907 57.7949C27.6387 57.7949 28.3627 57.2549 28.3627 56.1749C28.3627 55.1189 27.6387 54.5909 26.1907 54.5909H23.3467V57.7949H26.1907ZM34.3956 52.1909H35.2476V57.2069L39.4596 52.1909H40.2156V58.5029H39.3636V53.4869L35.1636 58.5029H34.3956V52.1909ZM45.6004 55.2149C46.0484 55.3189 46.3924 55.4989 46.6324 55.7549C46.8804 56.0109 47.0044 56.3229 47.0044 56.6909C47.0044 57.0589 46.8764 57.3869 46.6204 57.6749C46.3724 57.9629 46.0324 58.1869 45.6004 58.3469C45.1684 58.4989 44.6924 58.5749 44.1724 58.5749C43.7164 58.5749 43.2684 58.5109 42.8284 58.3829C42.3884 58.2469 42.0044 58.0509 41.6764 57.7949L41.9644 57.1589C42.2524 57.3749 42.5884 57.5429 42.9724 57.6629C43.3564 57.7829 43.7444 57.8429 44.1364 57.8429C44.7204 57.8429 45.1964 57.7349 45.5644 57.5189C45.9404 57.2949 46.1284 56.9949 46.1284 56.6189C46.1284 56.2829 45.9764 56.0229 45.6724 55.8389C45.3684 55.6469 44.9524 55.5509 44.4244 55.5509H43.3444V54.9269H44.3764C44.8484 54.9269 45.2284 54.8389 45.5164 54.6629C45.8044 54.4789 45.9484 54.2349 45.9484 53.9309C45.9484 53.5949 45.7844 53.3309 45.4564 53.1389C45.1364 52.9469 44.7164 52.8509 44.1964 52.8509C43.5164 52.8509 42.8444 53.0229 42.1804 53.3669L41.9404 52.7069C42.6924 52.3149 43.4724 52.1189 44.2804 52.1189C44.7604 52.1189 45.1924 52.1909 45.5764 52.3349C45.9684 52.4709 46.2724 52.6669 46.4884 52.9229C46.7124 53.1789 46.8244 53.4749 46.8244 53.8109C46.8244 54.1309 46.7124 54.4149 46.4884 54.6629C46.2724 54.9109 45.9764 55.0949 45.6004 55.2149ZM51.5426 58.5629C50.9346 58.5629 50.3866 58.4269 49.8986 58.1549C49.4106 57.8749 49.0266 57.4909 48.7466 57.0029C48.4666 56.5149 48.3266 55.9629 48.3266 55.3469C48.3266 54.7309 48.4666 54.1789 48.7466 53.6909C49.0266 53.2029 49.4106 52.8229 49.8986 52.5509C50.3866 52.2789 50.9346 52.1429 51.5426 52.1429C52.1506 52.1429 52.6986 52.2789 53.1866 52.5509C53.6746 52.8229 54.0546 53.2029 54.3266 53.6909C54.6066 54.1789 54.7466 54.7309 54.7466 55.3469C54.7466 55.9629 54.6066 56.5149 54.3266 57.0029C54.0546 57.4909 53.6746 57.8749 53.1866 58.1549C52.6986 58.4269 52.1506 58.5629 51.5426 58.5629ZM51.5426 57.8069C51.9906 57.8069 52.3906 57.7069 52.7426 57.5069C53.1026 57.2989 53.3826 57.0069 53.5826 56.6309C53.7826 56.2549 53.8826 55.8269 53.8826 55.3469C53.8826 54.8669 53.7826 54.4389 53.5826 54.0629C53.3826 53.6869 53.1026 53.3989 52.7426 53.1989C52.3906 52.9909 51.9906 52.8869 51.5426 52.8869C51.0946 52.8869 50.6906 52.9909 50.3306 53.1989C49.9786 53.3989 49.6986 53.6869 49.4906 54.0629C49.2906 54.4389 49.1906 54.8669 49.1906 55.3469C49.1906 55.8269 49.2906 56.2549 49.4906 56.6309C49.6986 57.0069 49.9786 57.2989 50.3306 57.5069C50.6906 57.7069 51.0946 57.8069 51.5426 57.8069ZM59.6275 52.3469C60.2115 52.3469 60.7315 52.4789 61.1875 52.7429C61.6515 52.9989 62.0115 53.3629 62.2675 53.8349C62.5235 54.2989 62.6515 54.8309 62.6515 55.4309C62.6515 56.0469 62.5155 56.5949 62.2435 57.0749C61.9795 57.5469 61.6075 57.9149 61.1275 58.1789C60.6475 58.4429 60.0955 58.5749 59.4715 58.5749C58.4235 58.5749 57.6115 58.2069 57.0355 57.4709C56.4595 56.7349 56.1715 55.7189 56.1715 54.4229C56.1715 53.0709 56.4275 52.0349 56.9395 51.3149C57.4595 50.5949 58.2675 50.1069 59.3635 49.8509L62.1955 49.2029L62.3395 49.9829L59.6755 50.5949C58.7715 50.7949 58.1075 51.1509 57.6835 51.6629C57.2595 52.1669 57.0275 52.9149 56.9875 53.9069C57.2435 53.4189 57.5995 53.0389 58.0555 52.7669C58.5115 52.4869 59.0355 52.3469 59.6275 52.3469ZM59.4955 57.8669C59.9355 57.8669 60.3275 57.7669 60.6715 57.5669C61.0235 57.3589 61.2955 57.0709 61.4875 56.7029C61.6875 56.3349 61.7875 55.9189 61.7875 55.4549C61.7875 54.9909 61.6915 54.5829 61.4995 54.2309C61.3075 53.8789 61.0355 53.6069 60.6835 53.4149C60.3395 53.2149 59.9435 53.1149 59.4955 53.1149C59.0475 53.1149 58.6475 53.2149 58.2955 53.4149C57.9515 53.6069 57.6795 53.8789 57.4795 54.2309C57.2875 54.5829 57.1915 54.9909 57.1915 55.4549C57.1915 55.9189 57.2875 56.3349 57.4795 56.7029C57.6795 57.0709 57.9555 57.3589 58.3075 57.5669C58.6595 57.7669 59.0555 57.8669 59.4955 57.8669ZM67.7296 52.1429C68.3216 52.1429 68.8576 52.2789 69.3376 52.5509C69.8176 52.8149 70.1936 53.1909 70.4656 53.6789C70.7376 54.1669 70.8736 54.7229 70.8736 55.3469C70.8736 55.9789 70.7376 56.5389 70.4656 57.0269C70.1936 57.5149 69.8176 57.8949 69.3376 58.1669C68.8656 58.4309 68.3296 58.5629 67.7296 58.5629C67.2176 58.5629 66.7536 58.4589 66.3376 58.2509C65.9296 58.0349 65.5936 57.7229 65.3296 57.3149V60.8309H64.4776V52.1909H65.2936V53.4389C65.5496 53.0229 65.8856 52.7029 66.3016 52.4789C66.7256 52.2549 67.2016 52.1429 67.7296 52.1429ZM67.6696 57.8069C68.1096 57.8069 68.5096 57.7069 68.8696 57.5069C69.2296 57.2989 69.5096 57.0069 69.7096 56.6309C69.9176 56.2549 70.0216 55.8269 70.0216 55.3469C70.0216 54.8669 69.9176 54.4429 69.7096 54.0749C69.5096 53.6989 69.2296 53.4069 68.8696 53.1989C68.5096 52.9909 68.1096 52.8869 67.6696 52.8869C67.2216 52.8869 66.8176 52.9909 66.4576 53.1989C66.1056 53.4069 65.8256 53.6989 65.6176 54.0749C65.4176 54.4429 65.3176 54.8669 65.3176 55.3469C65.3176 55.8269 65.4176 56.2549 65.6176 56.6309C65.8256 57.0069 66.1056 57.2989 66.4576 57.5069C66.8176 57.7069 67.2216 57.8069 67.6696 57.8069ZM74.841 52.1429C75.665 52.1429 76.297 52.3509 76.737 52.7669C77.177 53.1749 77.397 53.7829 77.397 54.5909V58.5029H76.581V57.5189C76.389 57.8469 76.105 58.1029 75.729 58.2869C75.361 58.4709 74.921 58.5629 74.409 58.5629C73.705 58.5629 73.145 58.3949 72.729 58.0589C72.313 57.7229 72.105 57.2789 72.105 56.7269C72.105 56.1909 72.297 55.7589 72.681 55.4309C73.073 55.1029 73.693 54.9389 74.541 54.9389H76.545V54.5549C76.545 54.0109 76.393 53.5989 76.089 53.3189C75.785 53.0309 75.341 52.8869 74.757 52.8869C74.357 52.8869 73.973 52.9549 73.605 53.0909C73.237 53.2189 72.921 53.3989 72.657 53.6309L72.273 52.9949C72.593 52.7229 72.977 52.5149 73.425 52.3709C73.873 52.2189 74.345 52.1429 74.841 52.1429ZM74.541 57.8909C75.021 57.8909 75.433 57.7829 75.777 57.5669C76.121 57.3429 76.377 57.0229 76.545 56.6069V55.5749H74.565C73.485 55.5749 72.945 55.9509 72.945 56.7029C72.945 57.0709 73.085 57.3629 73.365 57.5789C73.645 57.7869 74.037 57.8909 74.541 57.8909ZM85.1971 55.6949H83.8291V58.5029H82.9771V55.6949H81.6091L79.6771 58.5029H78.6571L80.9251 55.2509L78.8371 52.1909H79.7611L81.6091 54.9629H82.9771V52.1909H83.8291V54.9629H85.1971L87.0571 52.1909H87.9811L85.8931 55.2629L88.1611 58.5029H87.1411L85.1971 55.6949ZM94.8765 55.6109H89.5965C89.6445 56.2669 89.8965 56.7989 90.3525 57.2069C90.8085 57.6069 91.3845 57.8069 92.0805 57.8069C92.4725 57.8069 92.8325 57.7389 93.1605 57.6029C93.4885 57.4589 93.7725 57.2509 94.0125 56.9789L94.4925 57.5309C94.2125 57.8669 93.8605 58.1229 93.4365 58.2989C93.0205 58.4749 92.5605 58.5629 92.0565 58.5629C91.4085 58.5629 90.8325 58.4269 90.3285 58.1549C89.8325 57.8749 89.4445 57.4909 89.1645 57.0029C88.8845 56.5149 88.7445 55.9629 88.7445 55.3469C88.7445 54.7309 88.8765 54.1789 89.1405 53.6909C89.4125 53.2029 89.7805 52.8229 90.2445 52.5509C90.7165 52.2789 91.2445 52.1429 91.8285 52.1429C92.4125 52.1429 92.9365 52.2789 93.4005 52.5509C93.8645 52.8229 94.2285 53.2029 94.4925 53.6909C94.7565 54.1709 94.8885 54.7229 94.8885 55.3469L94.8765 55.6109ZM91.8285 52.8749C91.2205 52.8749 90.7085 53.0709 90.2925 53.4629C89.8845 53.8469 89.6525 54.3509 89.5965 54.9749H94.0725C94.0165 54.3509 93.7805 53.8469 93.3645 53.4629C92.9565 53.0709 92.4445 52.8749 91.8285 52.8749ZM96.7745 52.1909H97.6265V54.9869H101.599V52.1909H102.451V58.5029H101.599V55.7189H97.6265V58.5029H96.7745V52.1909ZM104.872 52.1909H105.724V57.2069L109.936 52.1909H110.692V58.5029H109.84V53.4869L105.64 58.5029H104.872V52.1909ZM117.982 52.1909V58.5029H117.202V56.4149H115.222H114.982L113.518 58.5029H112.594L114.166 56.2949C113.678 56.1589 113.302 55.9269 113.038 55.5989C112.774 55.2709 112.642 54.8549 112.642 54.3509C112.642 53.6469 112.882 53.1109 113.362 52.7429C113.842 52.3749 114.498 52.1909 115.33 52.1909H117.982ZM113.506 54.3749C113.506 55.3109 114.102 55.7789 115.294 55.7789H117.202V52.9469H115.354C114.122 52.9469 113.506 53.4229 113.506 54.3749Z" fill="white"/>
<path fill-rule="evenodd" clip-rule="evenodd" d="M241 76.0007H226V45.999L241 76.0007Z" fill="#56AABF"/>
<path fill-rule="evenodd" clip-rule="evenodd" d="M226 45.9987V16H241L226 45.9987Z" fill="#56AABF"/>
<defs>
<filter id="filter0_d_2438_23" x="-26" y="0.00244141" width="272" height="100" filterUnits="userSpaceOnUse" color-interpolation-filters="sRGB">
<feFlood flood-opacity="0" result="BackgroundImageFix"/>
<feColorMatrix in="SourceAlpha" type="matrix" values="0 0 0 0 0 0 0 0 0 0 0 0 0 0 0 0 0 0 127 0" result="hardAlpha"/>
<feOffset dy="4"/>
<feGaussianBlur stdDeviation="10"/>
<feColorMatrix type="matrix" values="0 0 0 0 0.0431373 0 0 0 0 0.152941 0 0 0 0 0.235294 0 0 0 1 0"/>
<feBlend mode="normal" in2="BackgroundImageFix" result="effect1_dropShadow_2438_23"/>
<feBlend mode="normal" in="SourceGraphic" in2="effect1_dropShadow_2438_23" result="shape"/>
</filter>
</defs>
</svg>
