<svg width="32" height="32" viewBox="0 0 32 32" fill="none" xmlns="http://www.w3.org/2000/svg">
<path fill-rule="evenodd" clip-rule="evenodd" d="M4.00004 11.999H0V31.9979H4.00004C5.10555 31.9979 6.00001 31.101 6.00001 29.9984V13.9966C6.00001 12.8891 5.10555 11.999 4.00004 11.999ZM4.00004 28.9968C4.00004 29.5458 3.55271 29.9984 3.00006 29.9984H1.99997V13.9966H3.00006C3.55271 13.9966 4.00004 14.4426 4.00004 14.9957V28.9968ZM29.8916 22.4308C29.956 22.2995 29.998 22.1555 29.999 22.0017L30.8926 18.4288C30.9551 18.2987 30.9971 18.1571 30.998 18.0046L31.9453 14.2157C32.2343 12.7494 31.2656 11.999 30 11.999H22V1.99494C22 0.890519 21.1055 -0.00390625 20 -0.00390625H17C15.8945 -0.00390625 15.3691 0.839699 15 1.99494L12.2725 11.999H12C9.79101 11.999 7.99999 13.786 7.99999 15.9979V27.9971H8.00387H7.99999C7.99999 30.206 9.79101 31.9979 12 31.9979H25.75C27 31.9979 27.6564 31.2928 28 29.9984L28.8916 26.4291C28.9561 26.296 28.999 26.1562 29 25.9983L29.8916 22.4308ZM24.8125 29.9984H12C10.8955 29.9984 10.0001 29.1003 10.0001 27.9971V15.9979C10.0001 14.891 10.8955 13.9966 12 13.9966H12.8594C13.5 13.9966 13.8516 13.5203 14 12.9957L17 2.99528C17.1572 2.45911 17.5 1.99494 18.2031 1.99494H19.0001C19.5527 1.99494 20 2.44399 20 2.99528V12.9957C20 13.547 20.4473 13.9966 21 13.9966H29C29.7344 13.9966 29.9063 14.4487 29.7499 14.9957L29.2139 16.9958H28C27.4473 16.9958 27 17.4442 27 17.9955C27 18.5469 27.4473 18.9965 28 18.9965H28.6786L28.1426 20.9972H27C26.4473 20.9972 26 21.445 26 21.9951C26 22.5482 26.4473 22.9978 27 22.9978H27.6074L27.0713 24.9961H26C25.4473 24.9961 25 25.4421 25 25.9934C25 26.5478 25.4473 26.9968 26 26.9968H26.5361L26 28.9968C25.8146 29.5736 25.3651 29.9984 24.8125 29.9984Z" fill="white"/>
</svg>
