<svg width="463" height="445" viewBox="0 0 463 445" fill="none" xmlns="http://www.w3.org/2000/svg">
<path fill-rule="evenodd" clip-rule="evenodd" d="M375.255 427.593C195.22 473.565 74.6946 423.738 30.1323 333.674C-19.1307 234.113 -17.8145 53.2318 109.103 44.3006C233.953 35.5573 409.946 -86.472 449.244 116.597C472.183 247.557 474.627 402.115 375.255 427.593Z" fill="#123853"/>
<path fill-rule="evenodd" clip-rule="evenodd" d="M203.963 273.693C204.715 275.386 203.963 277.36 202.271 278.112C200.579 278.864 198.604 278.112 197.852 276.42C194.656 269.463 191.929 260.72 191.835 251.036C191.741 241.259 194.468 230.729 202.177 220.294C203.305 218.79 205.373 218.508 206.783 219.636C208.288 220.764 208.57 222.832 207.442 224.242C200.673 233.362 198.322 242.575 198.416 251.036C198.604 259.497 201.143 267.395 203.963 273.693Z" fill="#8A6CAF"/>
<path fill-rule="evenodd" clip-rule="evenodd" d="M272.123 277.454C270.807 278.77 270.807 280.838 272.123 282.154C273.439 283.47 275.507 283.47 276.823 282.154C282.182 276.701 287.823 269.462 291.301 260.437C294.78 251.318 295.908 240.506 292.336 228.003C291.865 226.216 289.985 225.276 288.199 225.746C286.413 226.216 285.473 228.097 285.943 229.883C289.139 240.882 288.105 250.284 285.096 258.181C282.088 266.078 277.011 272.565 272.123 277.454Z" fill="#8A6CAF"/>
<path fill-rule="evenodd" clip-rule="evenodd" d="M194.092 229.79C191.647 230.636 189.015 229.414 188.169 227.063C187.323 224.619 188.545 221.987 190.895 221.14C210.92 213.713 228.406 210.235 245.705 211.175C263.097 212.115 280.02 217.474 298.634 228.003C300.891 229.226 301.643 232.046 300.421 234.302C299.198 236.559 296.378 237.311 294.122 236.089C276.729 226.311 261.123 221.328 245.235 220.482C229.347 219.542 212.894 222.833 194.092 229.79Z" fill="#67498B"/>
<path d="M244.389 307.068H238.936V320.982H244.389V307.068Z" fill="#67498B"/>
<path fill-rule="evenodd" clip-rule="evenodd" d="M309.446 358.306L316.685 332.922L330.787 337.152L319.881 361.126C319.411 361.22 310.856 358.494 309.446 358.306Z" fill="url(#paint0_linear_365_496)"/>
<path fill-rule="evenodd" clip-rule="evenodd" d="M312.36 347.4C316.309 354.639 326.556 356.331 328.437 359.246C330.693 369.023 331.351 372.031 338.026 377.86C346.393 385.005 340.846 392.15 332.103 385.663C315.651 373.442 305.967 365.45 302.207 360.844C300.421 358.117 302.677 344.58 312.36 347.4Z" fill="#37254D"/>
<path fill-rule="evenodd" clip-rule="evenodd" d="M253.038 334.238C251.91 334.238 251.064 333.391 251.064 332.263C251.064 331.135 251.91 330.289 253.038 330.289H259.995C261.123 330.289 261.969 331.135 261.969 332.263V342.981C261.969 344.109 261.123 344.955 259.995 344.955C258.867 344.955 258.021 344.109 258.021 342.981V334.238H253.038Z" fill="#8A6CAF"/>
<path fill-rule="evenodd" clip-rule="evenodd" d="M247.491 340.349C242.979 340.349 239.406 336.682 239.406 332.264C239.406 327.751 243.073 324.179 247.491 324.179C252.004 324.179 255.576 327.845 255.576 332.264C255.576 336.682 252.004 340.349 247.491 340.349Z" fill="#67498B"/>
<path fill-rule="evenodd" clip-rule="evenodd" d="M225.586 404.936C205.655 405.03 189.579 397.415 181.494 391.398C175.007 386.509 175.383 380.775 184.032 375.98C198.416 367.989 217.219 362.912 229.065 362.912H254.26C266.106 362.912 284.908 368.083 299.293 375.98C307.848 380.775 308.318 386.415 301.831 391.398C293.746 397.509 277.763 405.124 257.739 404.936H225.586Z" fill="#67498B"/>
<path fill-rule="evenodd" clip-rule="evenodd" d="M241.662 377.86C251.816 377.86 259.995 380.963 259.995 384.723C259.995 388.484 251.816 391.586 241.662 391.586C231.509 391.586 223.33 388.484 223.33 384.723C223.33 380.963 231.509 377.86 241.662 377.86Z" fill="#4D346B"/>
<path fill-rule="evenodd" clip-rule="evenodd" d="M149.529 143.109C154.23 142.733 158.931 143.861 163.537 145.929C162.879 153.92 161.093 174.227 159.777 182.218C156.58 200.927 138.248 194.91 140.692 178.458C141.82 170.467 147.931 154.108 149.529 143.109Z" fill="#4D346B"/>
<path fill-rule="evenodd" clip-rule="evenodd" d="M241.662 385.945C236.774 385.945 232.825 381.996 232.825 377.107V317.879H250.5V377.107C250.5 381.902 246.551 385.945 241.662 385.945Z" fill="#8A6CAF"/>
<path fill-rule="evenodd" clip-rule="evenodd" d="M275.037 208.26C286.131 207.978 290.173 214.747 292.806 220.952C297.224 231.012 282.652 225.183 276.541 220.294C269.114 214.371 262.721 215.123 262.627 214.935C261.593 213.243 263.567 208.166 264.978 206.192C265.73 205.252 263.944 208.636 275.037 208.26Z" fill="url(#paint1_linear_365_496)"/>
<path fill-rule="evenodd" clip-rule="evenodd" d="M264.978 218.695C267.516 214.465 268.644 209.482 268.832 204.123C261.029 201.021 234.141 191.807 225.962 189.363C206.783 183.722 201.895 204.687 218.629 210.14C226.714 212.678 250.876 216.721 264.978 218.695Z" fill="#56A9BE"/>
<path fill-rule="evenodd" clip-rule="evenodd" d="M86.0703 375.228L89.1727 363.194L101.77 365.075L99.0441 376.168C98.7621 376.168 87.2924 375.228 86.0703 375.228Z" fill="url(#paint2_linear_365_496)"/>
<path fill-rule="evenodd" clip-rule="evenodd" d="M121.513 371.28L124.428 359.998L136.367 361.784L133.829 372.22C133.453 372.22 122.547 371.374 121.513 371.28Z" fill="url(#paint3_linear_365_496)"/>
<path fill-rule="evenodd" clip-rule="evenodd" d="M86.7284 372.031C93.4033 375.228 99.2321 371.749 102.147 372.877C108.821 378.8 110.89 380.304 118.693 381.245C126.59 382.185 131.479 389.236 121.889 389.142C103.745 388.954 88.9847 389.236 83.908 387.825C81.1816 386.885 78.2672 375.134 86.7284 372.031Z" fill="#37254D"/>
<path fill-rule="evenodd" clip-rule="evenodd" d="M122.077 368.365C128.282 371.374 133.923 368.083 136.555 369.117C142.854 374.664 144.829 376.074 152.162 377.014C159.589 377.955 164.289 384.63 155.17 384.442C138.06 384.253 124.146 384.536 119.351 383.219C116.907 382.279 114.086 371.186 122.077 368.365Z" fill="#37254D"/>
<path fill-rule="evenodd" clip-rule="evenodd" d="M118.599 361.878C123.112 364.417 134.393 367.331 139.282 364.041C150.845 290.052 149.529 266.737 154.042 210.235C146.991 210.329 135.427 209.953 120.667 208.637C121.889 245.584 128.752 273.694 118.599 361.878Z" fill="#C5B0DF"/>
<path fill-rule="evenodd" clip-rule="evenodd" d="M85.9763 364.699C91.8051 367.049 101.112 370.339 108.916 367.989C121.231 290.616 120.009 270.215 124.616 211.081C116.907 211.175 104.309 208.449 88.1386 206.944C89.7368 245.678 96.5998 272.378 85.9763 364.699Z" fill="#AF96CE"/>
<path fill-rule="evenodd" clip-rule="evenodd" d="M148.871 126.751C149.717 127.597 134.299 114.529 132.325 114.905C122.547 116.879 111.642 119.041 103.557 124.776C86.6343 136.716 79.8654 134.836 86.6343 113.965C89.6427 104.657 82.6858 96.9483 77.7971 89.1452C65.8574 70.2485 73.9425 47.4973 95.1895 41.3865C109.104 37.3439 135.803 39.6942 134.393 69.6845C133.735 83.1284 133.453 92.2477 137.402 97.1364C149.905 112.743 141.726 115.845 148.871 126.751Z" fill="#4D346B"/>
<path fill-rule="evenodd" clip-rule="evenodd" d="M101.394 113.119L111.36 129.289L126.872 138.032L130.727 123.46L129.316 110.956L122.171 109.546L119.163 100.709L108.821 103.341L108.633 111.238L101.394 113.119Z" fill="url(#paint4_linear_365_496)"/>
<path fill-rule="evenodd" clip-rule="evenodd" d="M123.206 62.4451C108.821 50.4114 95.7536 52.2917 84.9421 69.026C90.959 125.058 145.957 115.751 123.206 62.4451Z" fill="url(#paint5_linear_365_496)"/>
<path fill-rule="evenodd" clip-rule="evenodd" d="M128.564 70.0601C111.172 58.7785 93.8734 84.6322 90.6769 67.1457C87.8565 73.5386 87.2924 83.504 91.523 94.1275C86.6343 88.9568 85.1301 85.3843 83.6259 77.2051C80.8995 61.2229 87.1984 54.2659 96.7878 50.9754C117.941 43.8304 126.684 54.5479 128.564 70.0601Z" fill="#4D346B"/>
<path fill-rule="evenodd" clip-rule="evenodd" d="M129.316 110.862C173.221 116.597 137.025 170.561 156.956 209.2C144.076 221.422 103.463 220.858 89.1727 210.328C83.7199 202.149 90.3948 185.979 85.9762 171.407C86.0702 182.406 84.0019 188.611 81.5576 193.312C77.327 201.491 63.507 198.107 64.1651 184.005C65.3873 156.177 70.8401 117.255 105.061 112.178C109.103 120.17 114.65 124.964 124.992 132.297C125.086 123.366 126.026 116.315 129.316 110.862Z" fill="#67498B"/>
<path fill-rule="evenodd" clip-rule="evenodd" d="M117.847 158.433C120.949 158.245 127.06 153.168 129.786 149.502C132.701 145.459 133.641 134.083 126.402 139.066C124.898 140.1 123.676 141.228 121.513 143.109C121.983 141.981 120.949 140.476 119.539 141.04C118.129 141.605 115.496 143.673 114.18 144.989C112.958 146.211 111.924 147.151 111.266 150.066C111.078 152.134 107.129 153.544 107.035 155.236C106.847 157.117 110.326 160.595 112.394 161.723C113.334 162.287 115.12 158.057 117.847 158.433Z" fill="url(#paint6_linear_365_496)"/>
<path fill-rule="evenodd" clip-rule="evenodd" d="M147.085 107.007L149.435 106.067C150.563 104.939 151.221 104.563 151.504 103.434C152.914 99.0158 161.751 91.2127 165.417 97.1355C167.392 101.272 161.469 104.751 157.614 106.443C155.452 107.383 153.29 108.135 151.598 105.879C150.375 106.913 149.999 107.571 149.623 109.075C148.777 109.451 148.025 109.827 147.179 110.203C145.487 117.442 140.128 128.63 135.615 133.895C138.154 126.562 140.692 119.323 143.23 111.99C136.555 115.092 127.906 119.041 121.325 122.143C129.598 115.562 134.675 112.554 144.641 108.135C145.675 103.246 146.803 99.8619 148.777 95.4433C145.769 92.7169 144.923 85.3839 149.341 83.9737C151.88 83.1275 155.076 84.9138 155.358 90.2726C155.17 91.4007 154.606 93.281 155.076 94.2211C149.341 95.3493 147.179 103.528 147.085 107.007ZM150.375 85.3839C148.401 85.7599 147.837 88.1103 147.931 89.8965C148.119 91.4007 149.153 94.7852 151.409 94.3151C153.478 93.8451 153.948 91.4007 153.854 89.3324C153.666 87.4522 152.632 84.9138 150.375 85.3839ZM160.341 103.528C162.785 101.93 165.135 99.6739 164.007 97.6996C162.597 95.3493 158.555 97.2296 156.956 98.5457C155.358 99.7679 151.974 103.152 153.196 105.315C154.136 107.101 158.743 104.563 160.341 103.528Z" fill="#C5B0DF"/>
<path fill-rule="evenodd" clip-rule="evenodd" d="M170.4 95.2561C170.306 92.3417 166.452 86.8889 162.785 83.4104C156.298 77.2055 142.384 79.6498 148.965 85.1026C155.64 90.6494 155.358 90.8374 157.426 95.2561C152.256 98.1705 150.563 100.709 151.127 102.401C151.503 103.529 159.965 102.307 160.905 102.589C163.255 102.871 164.665 107.29 166.546 107.572C168.708 107.854 172.656 104.093 173.973 101.743C174.537 100.521 169.836 98.3585 170.4 95.2561Z" fill="url(#paint7_linear_365_496)"/>
<path fill-rule="evenodd" clip-rule="evenodd" d="M106.941 150.63C110.984 153.262 114.086 157.305 116.531 162.005C110.89 168.116 90.959 187.389 84.7541 193.03C70.088 206.286 58.9944 189.551 71.5922 177.612C77.7031 171.877 98.574 158.527 106.941 150.63Z" fill="#67498B"/>
<path fill-rule="evenodd" clip-rule="evenodd" d="M92.8392 141.322C93.0272 157.775 82.7797 164.262 101.958 155.894C73.0964 173.945 90.7709 159.373 92.8392 141.322Z" fill="#4D346B"/>
<path fill-rule="evenodd" clip-rule="evenodd" d="M167.298 168.962C161.469 173.287 154.23 182.124 150.187 188.141C145.675 194.91 147.649 201.397 150.845 212.396C159.307 241.916 177.545 302.367 213.176 307.067C251.816 312.144 266.858 309.794 311.89 299.64C317.343 298.7 314.429 291.461 311.608 292.213C306.438 293.624 305.027 282.342 304.275 277.359C271.277 274.445 242.602 271.53 209.604 268.616C209.322 268.428 209.04 268.24 208.852 268.052C196.254 237.874 179.896 199.14 167.298 168.962Z" fill="#8A6CAF"/>
<path fill-rule="evenodd" clip-rule="evenodd" d="M177.921 177.424C172.468 181.466 167.016 185.603 161.563 189.646C155.452 194.252 155.922 199.987 158.837 210.329C166.828 238.062 183.938 295.129 217.501 299.547C253.884 304.342 268.926 301.992 311.326 292.402C310.292 285.445 309.352 278.488 308.318 271.437C277.293 268.711 245.329 266.078 214.304 263.352C214.022 263.164 213.834 262.976 213.552 262.882C201.613 234.396 189.767 205.91 177.921 177.424Z" fill="#67498B"/>
<path fill-rule="evenodd" clip-rule="evenodd" d="M194.186 176.296C191.083 166.706 182.622 171.971 173.785 176.766C155.358 186.919 171.152 181.937 152.35 181.937C161.375 154.861 150.093 145.177 145.957 136.716C136.085 116.315 149.529 100.803 171.622 97.3246C180.93 95.8203 194.562 93.9401 191.835 119.982C190.425 133.99 186.759 140.947 200.484 157.023C214.21 173.193 195.596 180.902 194.186 176.296Z" fill="#37254D"/>
<path fill-rule="evenodd" clip-rule="evenodd" d="M202.459 161.347L189.673 162.475L184.69 152.98L173.691 152.886L176.511 162.287L171.152 180.62L204.997 191.807L209.51 175.167L202.459 161.347Z" fill="url(#paint8_linear_365_496)"/>
<path fill-rule="evenodd" clip-rule="evenodd" d="M190.143 109.828C174.161 99.6748 161.563 104.281 152.82 122.52C164.759 175.732 218.065 157.305 190.143 109.828Z" fill="url(#paint9_linear_365_496)"/>
<path fill-rule="evenodd" clip-rule="evenodd" d="M191.365 113.212C174.349 109.734 175.101 120.169 176.323 135.117C172.092 134.271 170.118 140.288 175.195 144.049C174.349 150.536 177.075 160.031 179.426 162.945C193.057 177.141 218.723 219.259 169.46 230.635C120.197 242.105 138.53 204.123 145.487 195.098C155.546 182.218 159.401 153.544 159.213 143.203C154.794 126.844 153.76 133.707 153.102 125.246C152.162 108.888 152.256 103.717 164.665 99.1103C177.075 94.5037 186.194 96.1959 192.023 98.8283C201.801 103.247 199.45 114.905 191.365 113.212Z" fill="#37254D"/>
<path fill-rule="evenodd" clip-rule="evenodd" d="M359.273 374.287L351 354.826L365.854 350.596L371.025 370.527C370.555 370.809 360.401 373.723 359.273 374.287Z" fill="url(#paint10_linear_365_496)"/>
<path fill-rule="evenodd" clip-rule="evenodd" d="M354.854 364.416C362.563 370.245 372.623 365.638 375.537 367.518C381.554 375.416 383.434 377.484 391.708 380.304C400.075 383.125 401.015 393.09 390.579 390.834C370.837 386.603 357.675 382.467 352.41 379.834C349.778 378.048 345.077 365.826 354.854 364.416Z" fill="#37254D"/>
<path fill-rule="evenodd" clip-rule="evenodd" d="M255.388 241.071C278.704 242.105 309.446 242.481 330.881 243.516C357.205 244.832 351.188 262.788 348.743 285.822C345.735 314.12 337.838 327.282 330.975 343.828C328.343 350.127 311.514 344.768 313.112 337.811C318.565 313.744 322.138 289.864 317.813 265.515C283.968 257.806 272.217 257.242 236.586 254.515C248.055 249.344 243.731 246.242 255.388 241.071Z" fill="#5983B1"/>
<path fill-rule="evenodd" clip-rule="evenodd" d="M242.508 235.806C263.097 238.72 295.72 245.113 322.044 255.736C334.36 260.719 336.992 262.882 340.658 274.163C350.624 305.376 357.487 321.076 368.58 350.69C372.247 360.373 351.846 364.792 348.838 356.989C337.65 327.563 312.548 313.179 309.916 285.445C309.54 281.496 309.446 281.214 306.814 281.402C265.26 289.675 230.475 291.932 219.099 276.889C230.569 264.95 231.039 247.745 242.508 235.806Z" fill="#4B75A2"/>
<path fill-rule="evenodd" clip-rule="evenodd" d="M248.995 230.165C261.311 239.661 232.261 289.112 208.758 278.864C186.665 269.275 172.374 234.114 166.64 213.431C163.913 203.654 160.059 173.381 179.331 168.681C185.724 167.082 188.639 175.356 206.971 174.322C203.211 169.809 202.553 165.108 201.707 161.348C214.963 161.818 222.672 177.236 225.868 190.962C229.065 204.312 234.705 219.26 248.995 230.165Z" fill="#56A9BE"/>
<path fill-rule="evenodd" clip-rule="evenodd" d="M203.963 297.103C204.715 298.795 203.963 300.769 202.271 301.521C200.579 302.273 198.604 301.521 197.852 299.829C194.656 292.872 191.929 284.129 191.835 274.445C191.741 264.668 194.468 254.138 202.177 243.703C203.305 242.199 205.373 241.917 206.783 243.045C208.288 244.173 208.57 246.241 207.442 247.652C200.673 256.771 198.322 265.984 198.416 274.445C198.604 283.001 201.143 290.804 203.963 297.103Z" fill="#8A6CAF"/>
<path fill-rule="evenodd" clip-rule="evenodd" d="M272.029 300.863C270.712 302.179 270.712 304.247 272.029 305.563C273.345 306.88 275.413 306.88 276.729 305.563C282.088 300.111 287.729 292.872 291.207 283.846C294.686 274.727 295.814 263.915 292.242 251.412C291.771 249.625 289.891 248.685 288.105 249.155C286.319 249.625 285.379 251.506 285.849 253.292C289.045 264.292 288.011 273.693 285.003 281.59C281.994 289.487 276.917 295.974 272.029 300.863Z" fill="#8A6CAF"/>
<path fill-rule="evenodd" clip-rule="evenodd" d="M194.092 253.293C191.647 254.139 189.015 252.917 188.169 250.566C187.323 248.122 188.545 245.489 190.895 244.643C210.92 237.216 228.406 233.738 245.705 234.678C263.097 235.618 280.02 240.977 298.634 251.506C300.891 252.728 301.643 255.549 300.421 257.805C299.198 260.062 296.378 260.814 294.122 259.591C276.729 249.814 261.123 244.831 245.235 243.985C229.253 242.951 212.894 246.336 194.092 253.293Z" fill="#67498B"/>
<path fill-rule="evenodd" clip-rule="evenodd" d="M236.868 162.099C239.594 160.313 242.602 152.604 243.073 147.809C243.637 142.639 238.654 131.827 234.611 140.006C233.765 141.699 233.107 144.425 232.167 147.339C235.834 146.117 235.363 142.451 231.415 143.767C227.466 145.083 226.526 148.28 225.962 150.16C225.492 151.946 225.68 153.638 226.62 156.647C227.56 158.715 224.552 163.228 225.304 164.826C226.15 166.706 231.039 168.022 233.483 167.928C234.705 167.928 234.141 163.228 236.868 162.099Z" fill="url(#paint11_linear_365_496)"/>
<path fill-rule="evenodd" clip-rule="evenodd" d="M223.048 161.912C227.748 162.288 232.355 164.45 236.586 167.271C234.611 174.98 225.398 206.004 222.672 213.713C216.373 231.67 197.1 221.799 202.271 205.91C204.809 198.201 219.663 172.442 223.048 161.912Z" fill="#4998AC"/>
<path fill-rule="evenodd" clip-rule="evenodd" d="M195.596 226.029C188.263 217.755 176.511 203.747 172.751 195.286C165.041 177.894 186.288 167.928 195.126 182.124C198.886 188.141 204.997 201.115 209.98 211.833C212.8 217.755 219.287 214.465 221.92 215.311C216.655 234.49 202.365 233.644 195.596 226.029Z" fill="#4998AC"/>
<path fill-rule="evenodd" clip-rule="evenodd" d="M228.406 156.74L238.56 124.306C238.936 123.084 240.252 122.332 241.474 122.802C242.696 123.178 243.449 124.494 242.979 125.716L232.825 158.151C232.449 159.373 231.133 160.125 229.911 159.655C228.688 159.279 228.03 157.963 228.406 156.74Z" fill="#C5B0DF"/>
<path fill-rule="evenodd" clip-rule="evenodd" d="M318.941 184.756C317.531 180.431 315.275 176.013 311.984 171.594C311.044 170.278 309.258 169.996 307.942 171.03C306.626 171.97 306.344 173.756 307.378 175.073C309.446 177.799 311.044 180.619 312.172 183.346C314.429 184.004 316.685 184.474 318.941 184.756Z" fill="#8A6CAF"/>
<path fill-rule="evenodd" clip-rule="evenodd" d="M319.223 179.962C321.292 180.714 323.642 179.68 324.394 177.517C325.146 175.449 324.112 173.099 321.95 172.346C308.6 167.458 296.566 164.449 284.908 163.697C287.541 167.082 290.361 170.184 293.464 172.817C301.643 174.227 310.104 176.577 319.223 179.962Z" fill="#67498B"/>
<path fill-rule="evenodd" clip-rule="evenodd" d="M358.239 104.187C354.196 103.811 350.06 104.845 346.017 106.632C346.581 113.589 348.085 131.451 349.308 138.408C352.128 154.766 368.11 149.502 366.042 135.118C364.914 128.161 359.555 113.777 358.239 104.187Z" fill="#4D346B"/>
<path fill-rule="evenodd" clip-rule="evenodd" d="M276.353 149.501C282.558 147.339 288.387 145.459 291.301 144.613C308.13 139.63 312.36 158.057 297.694 162.757C295.25 163.509 291.113 164.45 286.225 165.484C282.464 160.783 279.174 155.424 276.353 149.501Z" fill="#56A9BE"/>
<path fill-rule="evenodd" clip-rule="evenodd" d="M355.042 173.193C354.76 169.902 354.572 166.424 354.29 162.851C357.017 162.851 360.589 162.851 364.82 162.663C361.905 166.612 358.615 170.184 355.042 173.193Z" fill="#C5B0DF"/>
<path fill-rule="evenodd" clip-rule="evenodd" d="M358.709 89.8969C357.957 90.649 371.401 79.1794 373.187 79.5554C374.127 79.7435 375.161 79.9315 376.195 80.1195C374.221 74.2907 371.777 68.8379 368.862 63.9492C368.862 64.0432 368.768 64.0432 368.768 64.1372C357.863 77.6752 365.008 80.3075 358.709 89.8969Z" fill="#4D346B"/>
<path fill-rule="evenodd" clip-rule="evenodd" d="M380.238 98.4516L377.982 99.7678L374.597 86.982L375.537 78.4268C377.794 84.7256 379.392 91.4006 380.238 98.4516Z" fill="url(#paint12_linear_365_496)"/>
<path fill-rule="evenodd" clip-rule="evenodd" d="M374.785 76.1709C338.12 81.9997 368.956 128.536 351.752 162.005C354.008 164.167 357.299 165.86 361.247 167.176C373.281 153.45 380.99 133.049 380.99 110.298C380.896 97.982 378.734 86.4184 374.785 76.1709Z" fill="#67498B"/>
<path fill-rule="evenodd" clip-rule="evenodd" d="M380.802 114.998C378.734 113.4 376.666 111.426 375.443 109.733C372.905 106.161 372.059 96.2895 378.358 100.614C379.11 101.084 379.768 101.648 380.614 102.306C380.802 104.939 380.896 107.571 380.896 110.203C380.896 111.802 380.896 113.4 380.802 114.998Z" fill="url(#paint13_linear_365_496)"/>
<path fill-rule="evenodd" clip-rule="evenodd" d="M360.307 72.5987L358.333 71.7526C357.299 70.8124 356.829 70.4364 356.453 69.4022C355.23 65.5477 347.427 58.6847 344.325 63.8554C342.633 67.522 347.803 70.4364 351.188 72.0346C353.068 72.8807 354.948 73.5388 356.453 71.4705C357.487 72.4107 357.863 72.9747 358.239 74.1969C358.991 74.573 359.649 74.855 360.401 75.2311C361.811 81.624 366.606 91.3073 370.461 96.008C368.204 89.6151 366.042 83.2222 363.786 76.8293C367.828 78.7095 372.717 80.9659 377.23 83.0342C377.042 82.3761 376.854 81.624 376.572 80.9659C372.435 78.1455 368.486 76.0772 362.564 73.4448C361.717 69.2142 360.683 66.2058 358.897 62.3512C361.529 60.0009 362.281 53.608 358.333 52.2918C356.077 51.5397 353.35 53.1379 353.068 57.8386C353.162 58.7787 353.726 60.471 353.35 61.3171C358.333 62.4452 360.213 69.5903 360.307 72.5987ZM357.487 53.702C359.273 54.078 359.743 56.0523 359.555 57.6506C359.461 58.9667 358.521 61.9752 356.547 61.5051C354.76 61.1291 354.29 58.8727 354.478 57.1805C354.572 55.4882 355.513 53.3259 357.487 53.702ZM348.744 69.5903C346.581 68.1801 344.513 66.2058 345.547 64.5135C346.769 62.4452 350.248 64.1375 351.752 65.2656C353.162 66.2998 356.077 69.3082 355.042 71.1885C354.102 72.6927 350.154 70.5304 348.744 69.5903Z" fill="#C5B0DF"/>
<path fill-rule="evenodd" clip-rule="evenodd" d="M339.906 62.351C340 59.8126 343.385 55.0179 346.581 52.0095C349.402 49.2831 353.82 48.437 356.829 48.9071C357.863 49.9412 358.897 50.9753 359.931 52.0095C359.743 52.4796 359.273 52.9496 358.709 53.4197C352.88 58.3084 353.068 58.4024 351.282 62.2569C355.795 64.7953 357.299 67.0516 356.829 68.4618C356.453 69.496 349.12 68.3678 348.273 68.6499C346.205 68.9319 344.983 72.7864 343.385 72.9745C341.505 73.2565 338.026 69.966 336.898 67.8977C336.334 66.8636 340.376 64.9833 339.906 62.351Z" fill="url(#paint14_linear_365_496)"/>
<path fill-rule="evenodd" clip-rule="evenodd" d="M342.633 126.75C347.709 130.511 354.102 138.22 357.581 143.578C361.529 149.501 359.837 155.142 357.017 164.731C356.265 167.458 355.324 170.466 354.384 173.757C345.735 180.996 335.394 185.226 324.394 185.226C322.326 185.226 320.257 185.038 318.283 184.756C326.65 165.013 335.394 144.236 342.633 126.75Z" fill="#8A6CAF"/>
<path fill-rule="evenodd" clip-rule="evenodd" d="M333.419 134.177C338.214 137.749 342.915 141.322 347.709 144.894C353.068 148.937 352.692 153.92 350.06 162.945C348.65 167.834 346.957 173.756 344.795 180.149C338.496 183.346 331.633 185.132 324.488 185.132C320.446 185.132 316.591 184.568 312.83 183.534L333.419 134.177Z" fill="#67498B"/>
<path fill-rule="evenodd" clip-rule="evenodd" d="M319.129 133.237C321.762 124.776 329.283 129.382 336.992 133.707C353.068 142.544 339.342 138.22 355.701 138.22C347.803 114.622 357.675 106.067 361.341 98.7341C369.991 80.9656 358.145 67.3337 338.872 64.2312C330.787 62.915 318.847 61.3168 321.198 84.068C322.42 96.3838 325.616 102.401 313.583 116.409C301.643 130.417 317.907 137.28 319.129 133.237Z" fill="#37254D"/>
<path fill-rule="evenodd" clip-rule="evenodd" d="M311.89 120.075L323.078 121.109L327.403 112.742H336.992L334.642 120.921L339.248 136.998L309.728 146.775L305.685 132.203L311.89 120.075Z" fill="url(#paint15_linear_365_496)"/>
<path fill-rule="evenodd" clip-rule="evenodd" d="M322.608 75.043C336.616 66.1117 347.615 70.1543 355.23 86.1366C344.889 132.673 298.258 116.597 322.608 75.043Z" fill="url(#paint16_linear_365_496)"/>
<path fill-rule="evenodd" clip-rule="evenodd" d="M321.668 78.0508C336.616 75.0424 335.864 84.1617 334.83 97.1355C338.496 96.3834 340.188 101.648 335.864 104.939C336.616 110.579 334.172 118.947 332.197 121.485C320.258 133.895 297.788 170.654 340.846 180.713C341.505 180.901 342.069 180.995 342.727 181.089C352.316 176.765 360.683 169.15 367.17 159.184C365.478 155.142 363.316 151.569 361.811 149.595C353.068 138.313 349.684 113.306 349.872 104.187C353.726 89.8965 354.666 95.8193 355.136 88.4863C355.983 74.1962 355.889 69.6836 344.983 65.641C334.077 61.5985 326.18 63.1027 321.104 65.359C312.454 69.3076 314.523 79.461 321.668 78.0508Z" fill="#37254D"/>
<path fill-rule="evenodd" clip-rule="evenodd" d="M337.274 183.252C339.906 176.954 341.881 170.843 343.291 165.672C345.641 157.117 349.12 130.605 332.197 126.468C326.65 125.058 324.018 132.297 308.036 131.357C311.326 127.409 311.89 123.272 312.642 119.981C301.079 120.357 294.31 133.801 291.489 145.929C290.079 151.758 288.199 157.869 285.096 163.792C295.25 176.954 309.164 185.133 324.582 185.133C328.813 185.133 333.137 184.475 337.274 183.252Z" fill="#56A9BE"/>
<path fill-rule="evenodd" clip-rule="evenodd" d="M281.806 120.827C279.456 119.229 276.823 112.46 276.353 108.323C275.883 103.811 280.208 94.3153 283.686 101.554C284.438 102.965 285.002 105.409 285.849 107.947C282.652 106.819 283.028 103.717 286.507 104.845C289.985 105.973 290.831 108.793 291.301 110.486C291.771 112.084 291.583 113.494 290.737 116.126C289.985 117.913 292.524 121.861 291.959 123.271C291.207 124.87 286.977 125.998 284.814 125.998C283.686 125.904 284.156 121.767 281.806 120.827Z" fill="url(#paint17_linear_365_496)"/>
<path fill-rule="evenodd" clip-rule="evenodd" d="M293.84 120.545C289.797 120.921 285.755 122.707 281.994 125.246C283.78 132.015 291.771 159.184 294.122 165.859C299.669 181.56 316.497 172.91 311.984 158.996C309.822 152.321 296.848 129.852 293.84 120.545Z" fill="#4998AC"/>
<path fill-rule="evenodd" clip-rule="evenodd" d="M317.907 176.671C324.394 169.432 334.642 157.21 337.932 149.783C344.701 134.553 326.086 125.904 318.377 138.22C315.087 143.484 309.728 154.86 305.403 164.261C302.959 169.432 297.224 166.518 294.968 167.364C296.566 173.099 299.01 176.765 301.925 178.833C302.959 179.398 303.899 179.962 304.933 180.432C309.54 182.124 314.711 180.244 317.907 176.671Z" fill="#4998AC"/>
<path fill-rule="evenodd" clip-rule="evenodd" d="M289.233 116.127L280.302 87.7346C279.926 86.7005 278.798 86.0424 277.763 86.4184C276.729 86.7945 276.071 87.9226 276.447 88.9568L285.379 117.349C285.755 118.383 286.883 119.041 287.917 118.665C288.951 118.383 289.515 117.161 289.233 116.127Z" fill="#C5B0DF"/>
<path fill-rule="evenodd" clip-rule="evenodd" d="M324.488 193.687C288.951 193.687 260.089 156.364 260.089 110.204C260.089 64.137 288.951 26.7197 324.488 26.7197C360.025 26.7197 388.887 64.043 388.887 110.204C388.887 156.364 360.025 193.687 324.488 193.687ZM324.488 185.132C355.701 185.132 380.99 151.569 380.99 110.204C380.99 68.8377 355.701 35.2749 324.488 35.2749C293.276 35.2749 267.986 68.8377 267.986 110.204C267.986 151.569 293.276 185.132 324.488 185.132Z" fill="#C5B0DF"/>
<path d="M324.488 185.133C355.693 185.133 380.99 151.586 380.99 110.204C380.99 68.8221 355.693 35.2754 324.488 35.2754C293.283 35.2754 267.986 68.8221 267.986 110.204C267.986 151.586 293.283 185.133 324.488 185.133Z" fill="url(#paint18_linear_365_496)"/>
<defs>
<linearGradient id="paint0_linear_365_496" x1="317.721" y1="354.612" x2="321.694" y2="341.708" gradientUnits="userSpaceOnUse">
<stop stop-color="#F7B9AD"/>
<stop offset="1" stop-color="#FAD4CC"/>
</linearGradient>
<linearGradient id="paint1_linear_365_496" x1="262.554" y1="211.2" x2="285.441" y2="217.756" gradientUnits="userSpaceOnUse">
<stop stop-color="#F7B9AD"/>
<stop offset="1" stop-color="#FAD4CC"/>
</linearGradient>
<linearGradient id="paint2_linear_365_496" x1="93.6387" y1="373.263" x2="94.3288" y2="366.72" gradientUnits="userSpaceOnUse">
<stop stop-color="#F7B9AD"/>
<stop offset="1" stop-color="#FAD4CC"/>
</linearGradient>
<linearGradient id="paint3_linear_365_496" x1="128.588" y1="369.489" x2="129.238" y2="363.321" gradientUnits="userSpaceOnUse">
<stop stop-color="#F7B9AD"/>
<stop offset="1" stop-color="#FAD4CC"/>
</linearGradient>
<linearGradient id="paint4_linear_365_496" x1="121.629" y1="136.656" x2="115.436" y2="112.499" gradientUnits="userSpaceOnUse">
<stop stop-color="#F18A77"/>
<stop offset="1" stop-color="#F6B0A2"/>
</linearGradient>
<linearGradient id="paint5_linear_365_496" x1="113.309" y1="101.329" x2="104.752" y2="67.8831" gradientUnits="userSpaceOnUse">
<stop stop-color="#F7B9AD"/>
<stop offset="1" stop-color="#FAD4CC"/>
</linearGradient>
<linearGradient id="paint6_linear_365_496" x1="111.054" y1="159.125" x2="124.393" y2="144.654" gradientUnits="userSpaceOnUse">
<stop stop-color="#F7B9AD"/>
<stop offset="1" stop-color="#FAD4CC"/>
</linearGradient>
<linearGradient id="paint7_linear_365_496" x1="168.986" y1="104.977" x2="153.487" y2="89.4769" gradientUnits="userSpaceOnUse">
<stop stop-color="#F7B9AD"/>
<stop offset="1" stop-color="#FAD4CC"/>
</linearGradient>
<linearGradient id="paint8_linear_365_496" x1="191.503" y1="182.522" x2="184.939" y2="156.239" gradientUnits="userSpaceOnUse">
<stop stop-color="#F18A77"/>
<stop offset="1" stop-color="#F6B0A2"/>
</linearGradient>
<linearGradient id="paint9_linear_365_496" x1="175.503" y1="151.567" x2="175.54" y2="110.5" gradientUnits="userSpaceOnUse">
<stop stop-color="#F7B9AD"/>
<stop offset="1" stop-color="#FAD4CC"/>
</linearGradient>
<linearGradient id="paint10_linear_365_496" x1="363.581" y1="367.587" x2="360.104" y2="357.724" gradientUnits="userSpaceOnUse">
<stop stop-color="#F7B9AD"/>
<stop offset="1" stop-color="#FAD4CC"/>
</linearGradient>
<linearGradient id="paint11_linear_365_496" x1="230.207" y1="167.867" x2="235.131" y2="146.673" gradientUnits="userSpaceOnUse">
<stop stop-color="#F7B9AD"/>
<stop offset="1" stop-color="#FAD4CC"/>
</linearGradient>
<linearGradient id="paint12_linear_365_496" x1="375.797" y1="96.6985" x2="381.418" y2="74.7694" gradientUnits="userSpaceOnUse">
<stop stop-color="#F18A77"/>
<stop offset="1" stop-color="#F6B0A2"/>
</linearGradient>
<linearGradient id="paint13_linear_365_496" x1="391.645" y1="120.884" x2="379.113" y2="107.289" gradientUnits="userSpaceOnUse">
<stop stop-color="#F7B9AD"/>
<stop offset="1" stop-color="#FAD4CC"/>
</linearGradient>
<linearGradient id="paint14_linear_365_496" x1="341.13" y1="70.8614" x2="354.198" y2="57.7935" gradientUnits="userSpaceOnUse">
<stop stop-color="#F7B9AD"/>
<stop offset="1" stop-color="#FAD4CC"/>
</linearGradient>
<linearGradient id="paint15_linear_365_496" x1="321.474" y1="138.636" x2="327.214" y2="115.653" gradientUnits="userSpaceOnUse">
<stop stop-color="#F18A77"/>
<stop offset="1" stop-color="#F6B0A2"/>
</linearGradient>
<linearGradient id="paint16_linear_365_496" x1="335.465" y1="111.568" x2="335.432" y2="75.6584" gradientUnits="userSpaceOnUse">
<stop stop-color="#F7B9AD"/>
<stop offset="1" stop-color="#FAD4CC"/>
</linearGradient>
<linearGradient id="paint17_linear_365_496" x1="287.631" y1="125.821" x2="283.326" y2="107.288" gradientUnits="userSpaceOnUse">
<stop stop-color="#F7B9AD"/>
<stop offset="1" stop-color="#FAD4CC"/>
</linearGradient>
<linearGradient id="paint18_linear_365_496" x1="324.464" y1="183.808" x2="324.467" y2="37.0551" gradientUnits="userSpaceOnUse">
<stop stop-color="#FBF9FC" stop-opacity="0.698"/>
<stop offset="1" stop-color="#FBF9FC" stop-opacity="0.698"/>
</linearGradient>
</defs>
</svg>
