<svg width="463" height="445" viewBox="0 0 463 445" fill="none" xmlns="http://www.w3.org/2000/svg">
<path fill-rule="evenodd" clip-rule="evenodd" d="M375.255 427.593C195.22 473.565 74.6946 423.738 30.1323 333.674C-19.1307 234.113 -17.8145 53.2318 109.103 44.3006C233.953 35.5573 409.946 -86.472 449.244 116.597C472.183 247.557 474.627 402.115 375.255 427.593Z" fill="#123853"/>
<path fill-rule="evenodd" clip-rule="evenodd" d="M269.584 180.714C251.816 180.714 231.039 176.577 213.364 176.577C220.603 158.151 212.8 145.083 213.27 122.52C232.073 124.118 252.286 127.502 271.088 129.194C272.217 145.553 275.977 167.27 269.584 180.714Z" fill="#456F9B"/>
<path fill-rule="evenodd" clip-rule="evenodd" d="M288.575 139.443C291.019 139.725 296.472 136.81 299.104 134.366C301.925 131.64 304.463 123.084 298.164 125.811C296.848 126.375 295.72 127.033 293.746 128.161C294.31 127.315 293.746 126.093 292.524 126.281C291.395 126.469 289.045 127.691 287.823 128.537C286.695 129.289 285.755 129.853 284.814 132.016C284.344 133.614 281.148 133.99 280.772 135.306C280.302 136.716 282.464 139.913 283.874 141.041C284.532 141.699 286.507 138.691 288.575 139.443Z" fill="url(#paint0_linear_365_495)"/>
<path fill-rule="evenodd" clip-rule="evenodd" d="M283.122 129.665C285.284 132.767 286.413 136.622 286.789 140.759C280.866 143.485 267.14 150.16 260.935 152.416C246.363 157.681 241.756 141.511 254.448 136.528C260.559 134.178 274.661 133.05 283.122 129.665Z" fill="#5983B1"/>
<path fill-rule="evenodd" clip-rule="evenodd" d="M256.422 100.333L253.978 111.333L242.414 114.905L230.381 108.324L232.449 98.1707L238.09 97.3246L238.842 90.9316L251.252 92.1538L250.594 98.8288L256.422 100.333Z" fill="url(#paint1_linear_365_495)"/>
<path fill-rule="evenodd" clip-rule="evenodd" d="M243.919 96.6664C236.116 95.9142 230.099 88.8633 228.688 80.7781C224.928 79.4619 223.518 73.5391 228.5 73.4451C228.971 63.5737 226.902 54.8304 247.867 58.0269C269.114 61.2233 265.166 67.7103 263.661 77.4876H263.849C268.268 77.9577 265.918 84.1626 261.875 84.8207C258.773 92.1537 251.628 97.4185 243.919 96.6664Z" fill="url(#paint2_linear_365_495)"/>
<path fill-rule="evenodd" clip-rule="evenodd" d="M228.5 74.4787C227.748 72.5984 229.253 71.2822 225.962 66.5816C220.791 59.0605 223.236 58.6844 226.056 51.6334C230.663 39.8818 239.688 44.9585 241.474 46.0866C245.799 48.625 246.551 38.9416 256.14 42.6082C265.448 46.1807 270.618 53.6077 272.029 59.3425C273.721 66.5816 264.508 69.872 264.226 73.5385C264.132 74.1966 263.943 78.2392 263.567 78.5213C263.003 78.9913 261.029 73.6326 256.516 70.4361C253.602 68.3678 239.97 74.7607 235.833 69.3079C230.287 61.8809 230.945 66.3935 229.723 71.0002C229.535 71.9403 228.783 74.9487 228.5 74.4787Z" fill="#37254D"/>
<path fill-rule="evenodd" clip-rule="evenodd" d="M205.561 291.368L208.382 283.94L216.373 286.009L213.834 292.872C213.552 292.872 206.313 291.462 205.561 291.368Z" fill="url(#paint3_linear_365_495)"/>
<path fill-rule="evenodd" clip-rule="evenodd" d="M247.115 292.872L248.431 285.445L256.14 286.009L255.012 292.872C254.824 292.966 247.867 292.872 247.115 292.872Z" fill="url(#paint4_linear_365_495)"/>
<path fill-rule="evenodd" clip-rule="evenodd" d="M206.125 289.394C210.168 291.932 214.116 290.052 215.903 290.992C219.757 295.222 220.979 296.351 225.962 297.573C230.945 298.795 233.577 303.59 227.372 302.837C215.715 301.427 206.313 300.581 203.211 299.359C201.613 298.419 200.484 290.71 206.125 289.394Z" fill="#37254D"/>
<path fill-rule="evenodd" clip-rule="evenodd" d="M247.397 290.991C251.534 292.59 254.918 290.239 256.704 290.803C261.029 294.094 262.345 294.94 267.14 295.128C271.935 295.41 275.225 299.453 269.396 299.735C258.397 300.393 249.559 301.239 246.363 300.675C244.671 300.205 242.414 293.154 247.397 290.991Z" fill="#37254D"/>
<path fill-rule="evenodd" clip-rule="evenodd" d="M243.825 285.54C247.209 288.642 256.328 289.3 259.337 286.574C262.909 231.764 260.841 214.748 260.653 173.1C256.046 173.57 246.175 174.228 236.398 173.946C239.312 200.928 245.141 220.576 243.825 285.54Z" fill="#715198"/>
<path fill-rule="evenodd" clip-rule="evenodd" d="M204.245 284.129C208.194 286.292 214.492 289.394 220.227 288.266C235.081 234.02 235.833 219.354 243.825 177.518C238.372 176.954 229.629 174.04 218.253 171.689C216.373 199.517 219.099 219.072 204.245 284.129Z" fill="#67498B"/>
<path fill-rule="evenodd" clip-rule="evenodd" d="M256.328 100.238C277.011 108.982 275.695 130.511 273.345 150.254C268.268 153.826 258.867 164.826 244.389 165.296C217.407 166.236 218.065 144.143 213.552 125.434C211.108 114.999 219.099 98.7343 232.637 98.0762C234.423 114.811 249.559 115.751 256.328 100.238Z" fill="#5983B1"/>
<path d="M398.759 207.32H67.5496V371.28H398.759V207.32Z" fill="#C5B0DF"/>
<path d="M398.759 199.893H67.5496V208.166H398.759V199.893Z" fill="#C0AADA"/>
<path d="M196.066 93.2822H85.5062V101.555H196.066V93.2822Z" fill="#EDE2F9"/>
<path d="M398.759 162.1H67.5496V203.089H398.759V162.1Z" fill="#EDE2F9"/>
<path fill-rule="evenodd" clip-rule="evenodd" d="M360.307 416.499C358.991 416.499 357.863 415.747 357.675 414.431L350.718 358.211H339.06L332.103 414.431C331.915 415.747 330.787 416.499 329.471 416.499C328.155 416.499 327.308 415.183 327.402 413.867L334.265 358.211H305.779L298.822 414.431C298.634 415.747 297.506 416.593 296.19 416.499C294.874 416.311 294.028 415.183 294.122 413.867L302.959 344.861H386.349L394.998 413.867C395.186 415.183 394.246 416.499 392.93 416.499C391.614 416.499 390.485 415.747 390.297 414.431L383.34 358.211H355.042L361.905 413.867C362.469 415.183 361.623 416.499 360.307 416.499Z" fill="#67498B"/>
<path fill-rule="evenodd" clip-rule="evenodd" d="M134.017 412.269C132.701 412.269 131.573 411.517 131.385 410.201L124.428 353.981H112.77L105.813 410.201C105.625 411.517 104.497 412.269 103.181 412.269C101.864 412.269 101.018 410.953 101.112 409.637L107.975 353.981H79.4893L72.5323 410.201C72.3443 411.517 71.2161 412.363 69.9 412.269C68.5838 412.081 67.7377 410.953 67.8317 409.637L76.6689 340.631H160.059L168.708 409.637C168.896 410.953 167.956 412.269 166.64 412.269C165.323 412.269 164.195 411.517 164.007 410.201L157.05 353.981H128.752L135.615 409.637C136.179 410.859 135.333 412.269 134.017 412.269Z" fill="#67498B"/>
<path fill-rule="evenodd" clip-rule="evenodd" d="M288.481 261.189C289.327 267.582 288.293 281.684 282.746 284.505C282.37 288.171 282.276 291.744 282.558 295.222C285.379 295.316 287.165 295.692 288.293 296.444H275.319C276.635 295.598 278.328 295.316 281.054 295.222C281.242 291.556 281.242 288.453 280.866 284.505C275.413 281.778 274.473 267.3 275.507 261.283H288.481V261.189Z" fill="#FCFBFB"/>
<path fill-rule="evenodd" clip-rule="evenodd" d="M288.293 272.659C287.729 276.608 286.695 280.368 284.908 282.719H278.892C277.199 280.368 276.165 276.608 275.601 272.659H288.293Z" fill="#8A6CAF"/>
<path fill-rule="evenodd" clip-rule="evenodd" d="M204.057 228.755C204.903 235.148 203.869 249.25 198.322 252.07C197.946 255.737 197.852 259.309 198.134 262.788C200.955 262.882 202.741 263.258 203.869 264.01H190.801C192.117 263.164 193.81 262.882 196.536 262.788C196.724 259.121 196.724 256.019 196.348 252.07C190.895 249.344 189.955 234.866 190.989 228.849H204.057V228.755Z" fill="#FCFBFB"/>
<path fill-rule="evenodd" clip-rule="evenodd" d="M204.151 236.746C203.775 241.823 202.647 247.37 200.296 250.284H194.562C192.305 247.37 191.177 241.729 190.801 236.746H204.151Z" fill="#8A6CAF"/>
<path fill-rule="evenodd" clip-rule="evenodd" d="M287.917 296.539C285.661 296.915 280.396 294.565 277.763 292.402C274.943 290.052 272.123 282.155 278.233 284.317C279.456 284.787 280.584 285.351 282.464 286.291C281.9 285.539 282.37 284.317 283.498 284.505C284.626 284.599 286.883 285.633 288.011 286.291C289.139 286.95 290.079 287.42 291.019 289.394C291.583 290.898 294.592 291.086 294.968 292.214C295.438 293.531 293.652 296.633 292.335 297.761C291.865 298.419 289.797 295.787 287.917 296.539Z" fill="url(#paint5_linear_365_495)"/>
<path fill-rule="evenodd" clip-rule="evenodd" d="M190.049 264.01C192.211 264.668 197.758 262.976 200.578 261.095C203.681 259.121 207.347 251.6 201.143 253.01C199.826 253.292 198.698 253.762 196.724 254.42C197.382 253.762 197.006 252.54 195.878 252.54C194.75 252.54 192.399 253.198 191.177 253.762C189.955 254.326 189.015 254.608 187.793 256.489C187.041 257.899 184.032 257.711 183.468 258.839C182.81 260.061 184.22 263.352 185.348 264.668C185.912 265.42 188.357 262.976 190.049 264.01Z" fill="url(#paint6_linear_365_495)"/>
<path fill-rule="evenodd" clip-rule="evenodd" d="M293.746 288.548C291.301 291.18 289.891 294.565 289.045 298.419C294.216 301.71 307.472 309.983 312.924 312.803C325.804 319.478 330.599 305.564 319.411 299.453C313.959 296.539 301.173 292.684 293.746 288.548Z" fill="#56A9BE"/>
<path fill-rule="evenodd" clip-rule="evenodd" d="M184.126 256.677C187.511 259.121 189.109 262.788 189.297 266.83C182.904 269.933 165.512 277.454 158.837 279.992C143.136 285.915 139.47 269.275 153.196 263.728C159.683 261.001 175.007 260.437 184.126 256.677Z" fill="#5983B1"/>
<path fill-rule="evenodd" clip-rule="evenodd" d="M62.3789 254.045L134.393 253.763V335.554H81.8397L62.3789 254.045Z" fill="#67498B"/>
<path fill-rule="evenodd" clip-rule="evenodd" d="M78.9252 342.887H159.307C160.623 342.887 161.751 341.853 161.751 340.443V333.674C161.751 332.357 160.717 331.229 159.307 331.229H85.6002L65.3873 255.643C65.0113 254.326 63.6951 253.574 62.4729 253.95L55.892 255.737C54.5758 256.113 53.8237 257.429 54.1997 258.651L76.2929 341.101C76.5749 342.323 77.233 342.887 78.9252 342.887Z" fill="#8A6CAF"/>
<path fill-rule="evenodd" clip-rule="evenodd" d="M190.989 394.313L190.707 384.441L201.143 383.501L201.425 396.193C201.143 396.287 191.929 394.501 190.989 394.313Z" fill="url(#paint7_linear_365_495)"/>
<path fill-rule="evenodd" clip-rule="evenodd" d="M190.989 391.868C195.878 394.877 200.673 392.714 202.835 393.842C207.535 399.013 208.946 400.329 214.963 401.74C220.979 403.15 224.176 409.073 216.749 408.132C202.647 406.44 191.271 405.406 187.511 403.902C185.536 402.868 184.22 393.56 190.989 391.868Z" fill="#37254D"/>
<path fill-rule="evenodd" clip-rule="evenodd" d="M183.656 345.332L189.391 385.945C189.391 389.612 202.177 389.236 202.177 385.663C202.177 368.459 202.835 349.75 202.271 336.306C201.989 328.879 202.647 325.589 191.459 318.632C180.272 311.675 171.81 308.478 143.418 300.487C139.376 309.607 131.197 301.051 124.992 309.043C122.923 325.683 129.034 330.948 137.025 333.298C150.281 337.153 168.708 335.272 177.357 336.306C182.434 336.87 182.998 340.819 183.656 345.332Z" fill="#52A8BE"/>
<path fill-rule="evenodd" clip-rule="evenodd" d="M164.571 396.945L164.665 387.074L175.101 386.604L174.819 399.295C174.631 399.295 165.512 397.133 164.571 396.945Z" fill="url(#paint8_linear_365_495)"/>
<path fill-rule="evenodd" clip-rule="evenodd" d="M164.571 392.902C168.708 396.851 173.973 395.629 175.759 397.133C179.331 403.056 180.554 404.654 186.1 407.286C191.741 409.825 193.716 416.218 186.571 413.867C173.127 409.449 162.127 406.252 158.649 403.996C157.05 402.586 157.614 393.184 164.571 392.902Z" fill="#37254D"/>
<path fill-rule="evenodd" clip-rule="evenodd" d="M159.495 346.648L163.161 387.45C162.973 391.022 175.759 391.398 175.947 387.826C176.793 370.715 178.391 352.007 178.485 338.469C178.579 331.042 179.425 327.751 168.52 320.324C157.614 312.897 149.435 309.23 121.419 299.829C117.001 308.76 109.198 299.829 102.523 307.444C99.6082 323.991 105.531 329.537 113.334 332.264C126.402 336.776 144.829 335.742 153.478 337.246C158.743 338.187 159.025 342.135 159.495 346.648Z" fill="#4998AC"/>
<path fill-rule="evenodd" clip-rule="evenodd" d="M124.052 236.182L125.368 243.609L117.659 253.104L105.437 246.899L103.369 240.318L107.693 238.344L106.565 232.421L118.035 230.165L119.257 236.37L124.052 236.182Z" fill="url(#paint9_linear_365_495)"/>
<path fill-rule="evenodd" clip-rule="evenodd" d="M124.052 236.182C152.82 236.464 144.923 250.378 156.862 263.728C163.537 271.249 154.888 281.12 147.837 277.359C146.427 291.932 147.273 295.222 151.504 303.025C144.829 312.52 111.548 317.315 102.993 312.144C99.1381 309.794 105.437 301.709 96.8818 298.042C90.2068 293.906 86.0702 289.111 84.566 268.898C83.0618 249.814 88.7026 245.677 103.463 240.318C109.95 251.036 121.795 248.591 124.052 236.182Z" fill="#5983B1"/>
<path fill-rule="evenodd" clip-rule="evenodd" d="M100.078 278.676C114.18 286.009 112.958 290.521 132.325 296.444C132.043 301.615 130.633 306.128 128.376 309.324C120.385 306.692 105.719 304.529 96.1296 297.667C80.8995 286.855 88.1385 272.941 100.078 278.676Z" fill="#5983B1"/>
<path fill-rule="evenodd" clip-rule="evenodd" d="M124.052 297.76C112.018 292.307 101.112 286.197 101.488 280.932C101.676 277.923 103.651 266.642 99.9842 259.591C105.343 265.514 103.839 278.111 104.215 281.12C104.779 285.35 111.83 290.427 124.052 297.76Z" fill="#456F9B"/>
<path fill-rule="evenodd" clip-rule="evenodd" d="M122.735 198.483C110.984 187.295 99.6082 188.987 89.2667 202.901C90.3008 249.626 138.248 243.139 122.735 198.483Z" fill="url(#paint10_linear_365_495)"/>
<path fill-rule="evenodd" clip-rule="evenodd" d="M123.864 188.518C117.095 178.646 110.42 186.731 109.009 188.048C105.531 191.338 102.146 185.791 93.8733 190.962C85.2241 196.415 82.9678 209.483 86.1642 215.217C88.0445 218.696 89.1726 224.149 90.7709 227.721C93.9673 234.678 102.241 234.866 107.693 238.439C107.411 237.123 107.223 235.806 106.941 234.678C101.3 231.388 101.018 228.379 100.736 224.431C99.2321 224.619 96.8817 223.585 97.1638 219.824C97.3518 216.628 100.548 218.414 100.736 217.38C101.112 215.687 101.864 214.277 103.181 213.243C112.394 201.774 122.359 208.354 125.086 205.064C126.778 203.09 128.752 195.569 123.864 188.518Z" fill="#37254D"/>
<path fill-rule="evenodd" clip-rule="evenodd" d="M382.024 341.195L329.283 337.058L348.932 264.01L400.263 263.352L382.024 341.195Z" fill="#67498B"/>
<path fill-rule="evenodd" clip-rule="evenodd" d="M384.563 347.87H316.967C315.745 347.87 314.711 346.836 314.711 345.614V339.127C314.711 337.905 315.745 336.87 316.967 336.87H378.264L397.536 265.044C397.818 263.822 399.135 263.07 400.357 263.446L406.562 265.138C407.784 265.42 408.536 266.736 408.16 267.959L387.195 346.272C386.819 347.306 386.161 347.87 384.563 347.87Z" fill="#8A6CAF"/>
<path fill-rule="evenodd" clip-rule="evenodd" d="M346.675 269.557C345.735 261.66 353.632 262.694 361.529 263.353C378.076 264.763 382.212 257.712 374.221 249.251C364.162 240.037 368.486 232.986 368.674 225.559C369.238 207.697 354.478 200.834 337.462 205.44C330.317 207.415 318.283 207.509 330.223 228.286C335.77 237.969 340.658 241.729 335.958 257.712C331.257 273.788 347.145 273.412 346.675 269.557Z" fill="#37254D"/>
<path fill-rule="evenodd" clip-rule="evenodd" d="M337.462 260.908L345.547 258.181L345.923 249.72L353.82 246.054L354.948 253.763L364.632 265.232L343.949 284.223L337.462 260.908Z" fill="url(#paint11_linear_365_495)"/>
<path fill-rule="evenodd" clip-rule="evenodd" d="M328.061 220.388C336.334 207.884 346.863 207.132 359.085 217.474C367.734 259.686 323.36 263.634 328.061 220.388Z" fill="url(#paint12_linear_365_495)"/>
<path fill-rule="evenodd" clip-rule="evenodd" d="M338.59 260.437C317.813 263.54 319.599 296.35 318.095 312.051C317.437 318.538 363.222 317.974 377.136 314.025C390.391 310.264 382.964 264.95 359.367 259.779C353.82 264.292 349.496 270.873 344.137 275.197C341.693 267.864 340.376 265.89 338.59 260.437Z" fill="#56A9BE"/>
<path fill-rule="evenodd" clip-rule="evenodd" d="M363.692 276.984C363.504 284.035 364.632 286.95 366.136 289.676C369.614 296.163 369.332 301.334 357.581 301.992C373.093 304.718 372.059 295.317 367.922 288.266C366.7 286.198 364.726 283.471 363.692 276.984Z" fill="#4998AC"/>
<path fill-rule="evenodd" clip-rule="evenodd" d="M328.343 223.208C339.53 215.217 342.257 222.926 346.299 234.114C349.12 232.139 352.41 235.9 349.966 240.13C352.692 244.549 353.726 252.258 353.068 255.079C347.897 269.745 374.879 271.813 381.46 262.788C387.101 255.079 366.23 246.335 361.247 234.396C359.179 221.234 362.093 225.746 359.837 219.542C355.23 207.414 353.538 203.747 343.103 204.405C332.667 205.064 326.18 208.542 322.796 212.303C317.061 218.695 323.078 227.063 328.343 223.208Z" fill="#37254D"/>
<path fill-rule="evenodd" clip-rule="evenodd" d="M350.53 302.743C348.65 303.777 347.803 304.811 345.829 303.777C343.949 302.743 341.975 303.119 340.564 303.495C336.146 304.717 336.428 305.282 334.077 310.546C331.821 315.435 334.642 314.871 336.334 311.862C338.872 307.256 341.787 308.76 345.923 309.042C347.897 309.136 349.778 308.478 351.658 308.102C351.188 306.316 350.906 304.529 350.53 302.743Z" fill="url(#paint13_linear_365_495)"/>
<path fill-rule="evenodd" clip-rule="evenodd" d="M347.991 385.757L340.846 372.313L333.419 376.356L342.445 388.578C342.727 388.578 347.239 386.133 347.991 385.757Z" fill="url(#paint14_linear_365_495)"/>
<path fill-rule="evenodd" clip-rule="evenodd" d="M336.522 382.279C340.94 380.399 342.163 379.929 344.607 375.604C339.812 367.989 324.488 344.58 317.625 337.341C301.643 320.23 289.515 335.272 303.241 350.502C309.822 357.93 328.437 373.818 336.522 382.279Z" fill="#C5B0DF"/>
<path fill-rule="evenodd" clip-rule="evenodd" d="M344.983 381.057C344.795 385.852 340 389.33 339.812 391.305C341.223 396.945 341.599 398.638 339.624 403.338C337.18 409.167 341.881 411.424 344.701 405.783C350.06 395.253 352.974 388.672 353.632 385.288C353.914 383.502 349.308 377.109 344.983 381.057Z" fill="#37254D"/>
<path fill-rule="evenodd" clip-rule="evenodd" d="M298.634 398.355L301.361 386.322L292.43 385.476L291.583 397.415C291.771 397.509 297.882 398.167 298.634 398.355Z" fill="url(#paint15_linear_365_495)"/>
<path fill-rule="evenodd" clip-rule="evenodd" d="M299.857 390.928C297.694 396.099 291.207 396.757 290.267 398.543C289.515 404.278 289.233 405.876 285.849 409.731C282.464 413.586 284.814 418.944 289.515 414.714C298.258 406.817 303.711 400.894 305.591 397.979C306.344 396.287 305.215 388.766 299.857 390.928Z" fill="#37254D"/>
<path fill-rule="evenodd" clip-rule="evenodd" d="M370.743 312.146C351.094 312.71 328.719 312.992 309.258 315.624C297.412 317.222 290.361 321.641 290.267 338.657C290.079 355.298 288.951 369.588 290.643 387.45C290.925 390.271 301.831 390.553 302.489 387.356C305.403 372.972 305.873 360.468 307.848 347.965C308.882 341.572 312.172 340.35 319.975 340.632C336.71 341.29 339.342 345.802 348.838 344.58C369.991 341.854 376.101 329.162 370.743 312.146Z" fill="#AF96CE"/>
<path fill-rule="evenodd" clip-rule="evenodd" d="M346.863 302.649C345.265 305.658 344.983 309.512 346.393 313.555C354.008 314.495 362.752 315.905 371.307 315.435C385.127 314.777 387.853 299.829 370.273 300.581C361.811 301.051 357.863 303.402 346.863 302.649Z" fill="#56A9BE"/>
<path fill-rule="evenodd" clip-rule="evenodd" d="M225.022 411.329V321.076C225.022 319.008 226.714 317.315 228.782 317.315H234.893C236.962 317.315 238.654 319.008 238.654 321.076V411.329C238.654 413.397 236.962 415.089 234.893 415.089H228.782C226.714 414.995 225.022 413.303 225.022 411.329Z" fill="#B59CD3"/>
<path fill-rule="evenodd" clip-rule="evenodd" d="M227.184 312.991H236.398C237.714 313.555 238.56 314.871 238.56 316.376V326.529H225.022V316.376C225.022 314.871 225.962 313.555 227.184 312.991Z" fill="#A58AC6"/>
<path fill-rule="evenodd" clip-rule="evenodd" d="M117.847 307.632H345.735C347.803 307.632 349.496 309.324 349.496 311.392V317.503C349.496 319.572 347.803 321.264 345.735 321.264H117.847C115.778 321.264 114.086 319.572 114.086 317.503V311.392C114.086 309.324 115.778 307.632 117.847 307.632Z" fill="#E6D8F6"/>
<path fill-rule="evenodd" clip-rule="evenodd" d="M332.949 186.825C334.453 184.945 335.3 181.56 337.744 181.56C339.624 181.56 339.812 176.578 344.795 177.988C346.769 178.552 347.239 177.424 349.496 176.766C351.94 176.108 355.136 177.8 352.88 180.996C351.47 182.97 349.872 181.56 348.273 184.851C346.863 187.765 344.983 183.911 341.881 188.423C339.906 191.244 338.966 189.739 336.428 190.868C331.445 192.748 330.317 190.021 332.949 186.825Z" fill="#8A6CAF"/>
<path fill-rule="evenodd" clip-rule="evenodd" d="M342.445 191.62C344.889 191.525 348.085 192.936 349.59 190.961C350.812 189.457 354.854 192.372 356.735 187.577C357.487 185.697 358.709 186.073 360.589 184.569C362.564 183.064 363.222 179.492 359.273 179.304C356.829 179.21 356.923 181.372 353.444 180.62C350.342 179.962 352.222 183.816 346.769 183.534C343.385 183.346 343.949 185.039 341.505 186.449C336.804 189.175 338.308 191.808 342.445 191.62Z" fill="#9D80C1"/>
<path fill-rule="evenodd" clip-rule="evenodd" d="M363.692 191.808C361.247 191.714 358.051 193.124 356.547 191.15C355.324 189.646 351.282 192.56 349.402 187.765C348.649 185.885 347.427 186.261 345.547 184.757C343.573 183.253 342.915 179.68 346.863 179.492C349.308 179.398 349.214 181.561 352.692 180.808C355.795 180.15 353.914 184.005 359.367 183.723C362.751 183.535 362.187 185.227 364.632 186.637C369.426 189.364 367.828 191.902 363.692 191.808Z" fill="#B7A0D3"/>
<path fill-rule="evenodd" clip-rule="evenodd" d="M367.546 190.21H331.539C332.855 193.876 335.864 196.509 339.624 198.107H359.461C363.222 196.509 366.23 193.876 367.546 190.21Z" fill="#FCFBFB"/>
<path fill-rule="evenodd" clip-rule="evenodd" d="M354.76 157.399C356.265 155.519 357.111 152.135 359.555 152.135C361.435 152.135 361.623 147.152 366.606 148.562C368.58 149.126 369.05 147.998 371.307 147.34C373.751 146.682 376.948 148.374 374.691 151.57C373.281 153.545 371.683 152.135 370.085 155.425C368.674 158.339 366.794 154.485 363.692 158.997C361.717 161.818 360.777 160.314 358.239 161.442C353.256 163.322 352.128 160.596 354.76 157.399Z" fill="#8A6CAF"/>
<path fill-rule="evenodd" clip-rule="evenodd" d="M364.256 162.194C366.7 162.1 369.897 163.51 371.401 161.536C372.623 160.031 376.665 162.946 378.546 158.151C379.298 156.271 380.52 156.647 382.4 155.143C384.375 153.639 385.033 150.066 381.084 149.878C378.64 149.784 378.734 151.946 375.255 151.194C372.153 150.536 374.033 154.391 368.58 154.109C365.196 153.921 365.76 155.613 363.316 157.023C358.615 159.749 360.119 162.288 364.256 162.194Z" fill="#9D80C1"/>
<path fill-rule="evenodd" clip-rule="evenodd" d="M385.597 162.287C383.152 162.193 379.956 163.604 378.452 161.629C377.23 160.125 373.187 163.04 371.307 158.245C370.555 156.365 369.332 156.741 367.452 155.236C365.478 153.732 364.82 150.16 368.768 149.972C371.213 149.878 371.119 152.04 374.597 151.288C377.7 150.63 375.819 154.484 381.272 154.202C384.657 154.014 384.093 155.707 386.537 157.117C391.238 159.937 389.639 162.476 385.597 162.287Z" fill="#B7A0D3"/>
<path fill-rule="evenodd" clip-rule="evenodd" d="M389.357 160.784H353.35C354.666 164.451 357.675 167.083 361.435 168.681H381.272C385.033 167.083 388.041 164.451 389.357 160.784Z" fill="#FCFBFB"/>
<path fill-rule="evenodd" clip-rule="evenodd" d="M298.728 163.697C300.233 161.817 301.079 158.432 303.523 158.432C305.403 158.432 305.591 153.45 310.574 154.86C312.548 155.424 313.018 154.296 315.275 153.638C317.719 152.98 320.916 154.672 318.659 157.868C317.249 159.843 315.651 158.432 314.053 161.723C312.642 164.637 310.762 160.783 307.66 165.295C305.685 168.116 304.745 166.612 302.207 167.74C297.224 169.714 296.096 166.894 298.728 163.697Z" fill="#8A6CAF"/>
<path fill-rule="evenodd" clip-rule="evenodd" d="M308.224 168.492C310.668 168.398 313.865 169.808 315.369 167.834C316.591 166.329 320.634 169.244 322.514 164.449C323.266 162.569 324.488 162.945 326.368 161.441C328.343 159.936 329.001 156.364 325.052 156.176C322.608 156.082 322.702 158.244 319.223 157.492C316.121 156.834 318.001 160.688 312.548 160.406C309.164 160.218 309.728 161.911 307.284 163.321C302.583 166.141 304.087 168.68 308.224 168.492Z" fill="#9D80C1"/>
<path fill-rule="evenodd" clip-rule="evenodd" d="M329.565 168.68C327.121 168.586 323.924 169.996 322.42 168.022C321.198 166.518 317.155 169.432 315.275 164.638C314.523 162.757 313.301 163.133 311.42 161.629C309.446 160.125 308.788 156.552 312.736 156.364C315.181 156.27 315.087 158.433 318.565 157.681C321.668 157.022 319.787 160.877 325.24 160.595C328.625 160.407 328.061 162.099 330.505 163.509C335.206 166.236 333.607 168.774 329.565 168.68Z" fill="#B7A0D3"/>
<path fill-rule="evenodd" clip-rule="evenodd" d="M333.325 167.176H297.318C298.634 170.842 301.643 173.475 305.403 175.073H325.24C329.001 173.475 332.009 170.842 333.325 167.176Z" fill="#FCFBFB"/>
<path fill-rule="evenodd" clip-rule="evenodd" d="M269.49 303.684H239.594C240.628 306.692 243.167 308.948 246.269 310.264H262.721C265.918 308.948 268.362 306.786 269.49 303.684Z" fill="#FCFBFB"/>
<path fill-rule="evenodd" clip-rule="evenodd" d="M172.751 300.676C174.631 299.829 176.511 297.667 178.297 298.607C179.708 299.265 181.776 295.693 184.878 298.607C186.1 299.735 186.853 299.077 188.827 299.453C190.801 299.923 192.587 302.368 189.767 303.778C187.981 304.718 187.323 303.12 184.972 304.906C182.904 306.504 182.904 303.026 178.955 305.094C176.417 306.41 176.323 305 173.973 304.812C169.366 304.53 169.648 302.086 172.751 300.676Z" fill="#8A6CAF"/>
<path fill-rule="evenodd" clip-rule="evenodd" d="M196.63 303.684H166.828C167.862 306.692 170.4 308.948 173.503 310.264H189.955C193.151 308.948 195.596 306.786 196.63 303.684Z" fill="#FCFBFB"/>
<path fill-rule="evenodd" clip-rule="evenodd" d="M225.492 243.044C225.492 248.027 225.586 266.36 226.808 269.838C227.842 272.753 228.689 275.479 229.347 278.299H217.595C218.253 275.573 219.099 272.753 220.133 269.744C221.167 266.83 220.603 247.463 220.509 243.044C222.296 242.856 223.706 242.856 225.492 243.044ZM232.825 308.384V308.572C232.919 311.016 214.492 310.546 214.492 308.948V308.478H232.825V308.384Z" fill="#FCFBFB"/>
<path fill-rule="evenodd" clip-rule="evenodd" d="M229.347 278.395C231.509 287.138 232.449 296.069 232.825 307.821H214.492C214.587 296.163 215.151 287.796 217.501 278.395H229.347Z" fill="#FCFBFB"/>
<path fill-rule="evenodd" clip-rule="evenodd" d="M229.347 278.3C231.603 287.231 232.543 296.256 232.825 308.478H214.492C214.587 296.538 215.151 287.983 217.501 278.3H229.347Z" fill="#8A6CAF"/>
<path fill-rule="evenodd" clip-rule="evenodd" d="M179.425 66.958H158.555C158.743 83.9744 168.332 85.0086 168.332 88.111V95.5381L160.435 96.9483C166.17 96.9483 171.81 96.9483 177.545 96.9483L169.648 95.5381V88.205C169.554 85.0086 179.425 84.2565 179.425 66.958Z" fill="#C5B0DF"/>
<path fill-rule="evenodd" clip-rule="evenodd" d="M131.385 66.2061C134.769 70.1546 132.701 83.5985 127.06 86.5129C126.778 89.7094 126.684 92.8118 126.872 95.8203C129.316 95.9143 130.915 96.2903 131.855 96.9484H120.573C121.701 96.1963 123.112 95.9143 125.556 95.8203C125.744 92.6238 125.65 89.8974 125.368 86.5129C120.009 83.7865 118.035 70.2486 121.325 66.2061H131.385Z" fill="#C5B0DF"/>
<path fill-rule="evenodd" clip-rule="evenodd" d="M142.102 67.4282C142.29 79.8379 137.496 82.5643 136.555 92.3417C136.649 97.0424 140.41 96.1023 141.444 96.9484H130.727C131.855 96.1023 135.521 96.9484 135.615 92.3417C134.675 82.5643 129.88 79.7439 129.975 67.3342C134.675 67.1461 137.496 67.1461 142.102 67.4282Z" fill="#9D80C1"/>
<path fill-rule="evenodd" clip-rule="evenodd" d="M150.187 66.4883C151.692 78.71 143.7 90.8377 149.341 96.9486H142.478C148.119 89.9916 140.222 78.804 141.632 66.4883C144.829 66.4883 146.991 66.4883 150.187 66.4883Z" fill="#C5B0DF"/>
<path fill-rule="evenodd" clip-rule="evenodd" d="M160.153 67.6164C160.529 73.6333 162.597 80.0262 155.734 81.8124C155.734 91.9659 155.076 95.1623 157.426 96.0084C157.99 96.1965 159.025 96.5725 159.401 96.9486H151.127C151.504 96.5725 152.538 96.1965 153.102 96.0084C155.358 95.1623 154.888 91.4018 154.794 81.8124C147.931 80.0262 149.999 73.6333 150.375 67.6164C151.033 67.5224 159.495 67.5224 160.153 67.6164Z" fill="#9D80C1"/>
<path fill-rule="evenodd" clip-rule="evenodd" d="M121.889 68.5566H102.147C102.335 84.6329 111.454 85.6671 111.454 88.5815V95.5385L103.933 96.8547C109.292 96.8547 114.744 96.8547 120.103 96.8547L112.676 95.5385V88.5815C112.582 85.6671 121.889 84.915 121.889 68.5566Z" fill="#9D80C1"/>
<path fill-rule="evenodd" clip-rule="evenodd" d="M195.22 170.937H186.853C185.818 170.937 185.066 170.279 185.066 169.527V153.545C185.066 149.596 188.921 147.716 188.921 145.366V137.938H193.151V145.178C193.151 147.716 197.006 149.502 197.006 153.451V169.433C197.006 170.373 196.16 170.937 195.22 170.937Z" fill="#C5B0DF"/>
<path fill-rule="evenodd" clip-rule="evenodd" d="M174.255 170.936H186.194C187.323 170.936 188.169 169.996 188.169 168.962V153.356C188.169 147.809 183.186 144.989 183.186 141.792V131.263H177.075V141.604C177.075 145.177 172.092 147.809 172.092 153.356V168.962C172.28 170.09 173.221 170.936 174.255 170.936Z" fill="#5983B1"/>
<path fill-rule="evenodd" clip-rule="evenodd" d="M158.931 168.398C158.743 158.715 158.555 149.031 158.367 139.348C158.555 136.34 160.341 134.459 163.067 132.109C164.289 127.878 160.905 117.725 166.076 118.383C171.246 117.725 167.862 127.878 169.084 132.109C171.81 134.459 173.597 136.34 173.785 139.348C173.597 149.031 173.409 158.715 173.221 168.398C172.845 171.783 159.119 171.783 158.931 168.398Z" fill="#2596AF"/>
<path fill-rule="evenodd" clip-rule="evenodd" d="M88.5146 118.759C88.5146 122.614 88.6086 136.904 89.5487 139.536C92.8392 148.937 93.8733 157.211 94.2494 169.62C94.3434 171.501 79.9594 171.125 80.0534 169.902C80.1474 157.775 80.7115 150.066 84.472 139.442C85.2241 137.186 84.8481 122.144 84.754 118.759C86.0702 118.571 87.1984 118.571 88.5146 118.759Z" fill="#AF96CE"/>
<path fill-rule="evenodd" clip-rule="evenodd" d="M157.144 170.937H146.897C145.675 170.937 144.641 169.903 144.641 168.68V143.485C144.641 137.28 149.341 134.177 149.341 130.605V118.947H154.606V130.417C154.606 134.365 159.307 137.28 159.307 143.485V168.774C159.401 169.997 158.366 170.937 157.144 170.937Z" fill="#456F9B"/>
<path fill-rule="evenodd" clip-rule="evenodd" d="M129.692 170.937H143.982C145.299 170.937 146.427 169.903 146.427 168.493V149.784C146.427 143.109 140.504 139.819 140.504 135.964V123.366H133.265V135.776C133.265 140.101 127.342 143.203 127.342 149.878V168.587C127.248 169.903 128.376 170.937 129.692 170.937Z" fill="#4998AC"/>
<path fill-rule="evenodd" clip-rule="evenodd" d="M115.873 168.775C115.684 160.502 115.496 152.229 115.402 143.956C115.59 141.323 117.095 139.819 119.445 137.751C120.479 134.084 117.565 125.435 121.983 125.999C126.402 125.435 123.488 134.084 124.522 137.751C126.872 139.819 128.376 141.323 128.564 143.956C128.376 152.229 128.188 160.502 128.094 168.775C127.812 171.689 116.061 171.689 115.873 168.775Z" fill="#67498B"/>
<path fill-rule="evenodd" clip-rule="evenodd" d="M112.582 126.28C112.582 129.571 112.676 141.793 113.428 144.049C116.249 152.04 117.189 159.091 117.471 169.809C117.565 171.501 105.249 171.125 105.249 169.997C105.343 159.561 105.813 153.074 109.01 143.955C109.668 141.981 109.292 129.195 109.292 126.28C110.42 126.186 111.36 126.186 112.582 126.28Z" fill="#8A6CAF"/>
<path fill-rule="evenodd" clip-rule="evenodd" d="M93.5913 170.937H105.813C106.941 170.937 107.881 169.997 107.881 168.869V152.886C107.881 147.152 102.805 144.331 102.805 141.041V130.323H96.5997V140.947C96.5997 144.613 91.523 147.34 91.523 152.98V168.963C91.523 169.997 92.4631 170.937 93.5913 170.937Z" fill="#37254D"/>
<path fill-rule="evenodd" clip-rule="evenodd" d="M301.455 142.169C297.224 143.485 292.806 141.041 291.489 136.904L285.943 118.948C284.626 114.717 287.071 110.299 291.207 108.982C295.438 107.666 299.857 110.111 301.173 114.247L306.72 132.204C308.036 136.434 305.685 140.853 301.455 142.169Z" fill="#9D80C1"/>
<path fill-rule="evenodd" clip-rule="evenodd" d="M286.601 121.016L285.943 119.042C284.626 114.811 287.071 110.392 291.207 109.076C295.438 107.76 299.857 110.204 301.173 114.341L301.831 116.315L286.601 121.016Z" fill="#8A6CAF"/>
<path fill-rule="evenodd" clip-rule="evenodd" d="M229.817 123.648C234.517 131.828 236.116 137.468 236.774 141.605C237.996 150.16 265.072 143.015 271.089 142.733C254.072 146.588 236.116 151.006 235.175 141.793C234.329 134.46 232.731 130.793 229.817 123.648Z" fill="#456F9B"/>
<path fill-rule="evenodd" clip-rule="evenodd" d="M241.756 112.366L234.329 115.281C233.765 115.469 233.295 115.375 232.825 115.093C232.355 114.717 232.167 114.247 232.167 113.682L232.731 106.631C232.731 106.067 233.107 105.597 233.577 105.315C234.047 105.033 234.611 105.033 235.081 105.409L241.944 109.546C242.508 109.828 242.79 110.392 242.696 111.05C242.696 111.614 242.32 112.178 241.756 112.366Z" fill="#37254D"/>
<path fill-rule="evenodd" clip-rule="evenodd" d="M243.449 112.555L250.312 116.691C250.782 116.973 251.346 116.973 251.816 116.785C252.286 116.503 252.662 116.033 252.662 115.469L253.226 108.418C253.226 107.854 253.038 107.384 252.568 107.008C252.098 106.632 251.534 106.632 251.064 106.82L243.637 109.734C243.072 109.922 242.696 110.486 242.602 111.05C242.508 111.614 242.978 112.179 243.449 112.555Z" fill="#37254D"/>
<path fill-rule="evenodd" clip-rule="evenodd" d="M244.013 113.495L241.098 113.213C240.628 113.213 240.252 112.743 240.252 112.179L240.534 109.264C240.534 108.794 241.004 108.418 241.568 108.418L244.483 108.7C244.953 108.7 245.329 109.17 245.329 109.734L245.047 112.649C244.953 113.213 244.483 113.589 244.013 113.495Z" fill="#2D1D40"/>
<path fill-rule="evenodd" clip-rule="evenodd" d="M287.071 149.125C289.421 149.878 295.344 148.091 298.446 146.211C301.737 144.143 305.873 136.246 299.198 137.656C297.882 137.938 296.566 138.408 294.404 139.16C295.156 138.502 294.78 137.092 293.558 137.092C292.43 137.092 289.891 137.75 288.481 138.314C287.165 138.878 286.225 139.16 284.815 141.134C284.062 142.639 280.772 142.357 280.208 143.579C279.456 144.895 280.96 148.467 282.182 149.878C282.652 150.536 285.285 148.091 287.071 149.125Z" fill="url(#paint16_linear_365_495)"/>
<path fill-rule="evenodd" clip-rule="evenodd" d="M281.806 140.383C283.874 143.485 285.19 147.528 285.002 151.476C278.61 154.391 260.653 162.758 253.132 164.92C245.329 167.083 236.21 167.177 227.936 161.348C231.885 151.194 238.278 150.536 247.585 148.186C255.012 146.4 270.806 144.143 281.806 140.383Z" fill="#5983B1"/>
<path fill-rule="evenodd" clip-rule="evenodd" d="M274.567 152.229H252.474C252.662 170.185 262.909 171.407 262.909 174.698V182.501L254.542 184.005C260.559 184.005 266.576 184.005 272.593 184.005L264.226 182.501V174.698C264.132 171.407 274.567 170.561 274.567 152.229Z" fill="white"/>
<path fill-rule="evenodd" clip-rule="evenodd" d="M254.072 162.57C255.2 165.861 256.892 168.117 258.397 169.715H268.832C270.336 168.117 272.029 165.955 273.157 162.57H254.072Z" fill="#8A6CAF"/>
<path d="M242.32 120.639C243.151 120.639 243.825 119.966 243.825 119.135C243.825 118.304 243.151 117.631 242.32 117.631C241.49 117.631 240.816 118.304 240.816 119.135C240.816 119.966 241.49 120.639 242.32 120.639Z" fill="#456F9B"/>
<path d="M242.79 129.007C243.621 129.007 244.295 128.334 244.295 127.503C244.295 126.672 243.621 125.999 242.79 125.999C241.96 125.999 241.286 126.672 241.286 127.503C241.286 128.334 241.96 129.007 242.79 129.007Z" fill="#456F9B"/>
<path d="M244.107 137.75C244.937 137.75 245.611 137.076 245.611 136.245C245.611 135.415 244.937 134.741 244.107 134.741C243.276 134.741 242.602 135.415 242.602 136.245C242.602 137.076 243.276 137.75 244.107 137.75Z" fill="#456F9B"/>
<defs>
<linearGradient id="paint0_linear_365_495" x1="283.066" y1="139.049" x2="295.73" y2="129.826" gradientUnits="userSpaceOnUse">
<stop stop-color="#F7B9AD"/>
<stop offset="1" stop-color="#FAD4CC"/>
</linearGradient>
<linearGradient id="paint1_linear_365_495" x1="242.574" y1="112.676" x2="244.146" y2="97.1839" gradientUnits="userSpaceOnUse">
<stop stop-color="#F18A77"/>
<stop offset="1" stop-color="#F6B0A2"/>
</linearGradient>
<linearGradient id="paint2_linear_365_495" x1="244.214" y1="93.0054" x2="246.853" y2="67.0183" gradientUnits="userSpaceOnUse">
<stop stop-color="#F7B9AD"/>
<stop offset="1" stop-color="#FAD4CC"/>
</linearGradient>
<linearGradient id="paint3_linear_365_495" x1="210.56" y1="290.297" x2="211.324" y2="286.809" gradientUnits="userSpaceOnUse">
<stop stop-color="#F7B9AD"/>
<stop offset="1" stop-color="#FAD4CC"/>
</linearGradient>
<linearGradient id="paint4_linear_365_495" x1="251.605" y1="291.679" x2="251.746" y2="287.109" gradientUnits="userSpaceOnUse">
<stop stop-color="#F7B9AD"/>
<stop offset="1" stop-color="#FAD4CC"/>
</linearGradient>
<linearGradient id="paint5_linear_365_495" x1="293.178" y1="295.934" x2="280.725" y2="287.952" gradientUnits="userSpaceOnUse">
<stop stop-color="#F7B9AD"/>
<stop offset="1" stop-color="#FAD4CC"/>
</linearGradient>
<linearGradient id="paint6_linear_365_495" x1="184.644" y1="262.933" x2="198.147" y2="256.402" gradientUnits="userSpaceOnUse">
<stop stop-color="#F7B9AD"/>
<stop offset="1" stop-color="#FAD4CC"/>
</linearGradient>
<linearGradient id="paint7_linear_365_495" x1="195.624" y1="391.652" x2="197.658" y2="385.148" gradientUnits="userSpaceOnUse">
<stop stop-color="#F7B9AD"/>
<stop offset="1" stop-color="#FAD4CC"/>
</linearGradient>
<linearGradient id="paint8_linear_365_495" x1="169.337" y1="394.261" x2="171.595" y2="387.916" gradientUnits="userSpaceOnUse">
<stop stop-color="#F7B9AD"/>
<stop offset="1" stop-color="#FAD4CC"/>
</linearGradient>
<linearGradient id="paint9_linear_365_495" x1="116.262" y1="251.083" x2="113.529" y2="237.26" gradientUnits="userSpaceOnUse">
<stop stop-color="#F18A77"/>
<stop offset="1" stop-color="#F6B0A2"/>
</linearGradient>
<linearGradient id="paint10_linear_365_495" x1="103.973" y1="228.305" x2="109.902" y2="198.701" gradientUnits="userSpaceOnUse">
<stop stop-color="#F7B9AD"/>
<stop offset="1" stop-color="#FAD4CC"/>
</linearGradient>
<linearGradient id="paint11_linear_365_495" x1="352.426" y1="271.633" x2="349.474" y2="252.737" gradientUnits="userSpaceOnUse">
<stop stop-color="#F18A77"/>
<stop offset="1" stop-color="#F6B0A2"/>
</linearGradient>
<linearGradient id="paint12_linear_365_495" x1="350.593" y1="242.25" x2="340.115" y2="218.942" gradientUnits="userSpaceOnUse">
<stop stop-color="#F7B9AD"/>
<stop offset="1" stop-color="#FAD4CC"/>
</linearGradient>
<linearGradient id="paint13_linear_365_495" x1="350.495" y1="306.968" x2="334.937" y2="309.076" gradientUnits="userSpaceOnUse">
<stop stop-color="#F7B9AD"/>
<stop offset="1" stop-color="#FAD4CC"/>
</linearGradient>
<linearGradient id="paint14_linear_365_495" x1="342.78" y1="384.444" x2="339.386" y2="378.321" gradientUnits="userSpaceOnUse">
<stop stop-color="#F7B9AD"/>
<stop offset="1" stop-color="#FAD4CC"/>
</linearGradient>
<linearGradient id="paint15_linear_365_495" x1="295.39" y1="395.404" x2="296.533" y2="388.278" gradientUnits="userSpaceOnUse">
<stop stop-color="#F7B9AD"/>
<stop offset="1" stop-color="#FAD4CC"/>
</linearGradient>
<linearGradient id="paint16_linear_365_495" x1="281.265" y1="147.94" x2="295.823" y2="141.234" gradientUnits="userSpaceOnUse">
<stop stop-color="#F7B9AD"/>
<stop offset="1" stop-color="#FAD4CC"/>
</linearGradient>
</defs>
</svg>
