<svg width="462" height="445" viewBox="0 0 462 445" fill="none" xmlns="http://www.w3.org/2000/svg">
<path fill-rule="evenodd" clip-rule="evenodd" d="M12.0735 357.85C-31.1018 151.668 46.7903 28.1937 161.927 8.3396C264.619 -9.36737 406.479 -9.11641 409.741 114.628C413.004 238.372 563.639 399.566 336.014 435.417C205.577 452.51 32.8664 457.13 12.0735 357.85Z" fill="#123853"/>
<path fill-rule="evenodd" clip-rule="evenodd" d="M199.681 343.578V321.273L175.944 345.01C175.164 345.79 173.88 345.79 173.091 345.01L170.76 342.679C169.98 341.899 169.98 340.615 170.76 339.826L199.681 310.905V219.942C199.681 218.832 200.589 217.923 201.699 217.923H205.002C206.112 217.923 207.021 218.832 207.021 219.942V310.905L235.941 339.826C236.721 340.606 236.721 341.89 235.941 342.679L233.611 345.01C232.831 345.79 231.546 345.79 230.757 345.01L207.021 321.273V343.578C207.021 344.689 206.112 345.597 205.002 345.597H201.699C200.589 345.588 199.681 344.679 199.681 343.578Z" fill="#8A6CAF"/>
<path d="M270.449 74.3853H136.234V219.418H270.449V74.3853Z" fill="white"/>
<path fill-rule="evenodd" clip-rule="evenodd" d="M133.802 70H272.881C274.248 70 275.358 71.1194 275.358 72.4773V76.5328C275.358 77.8907 274.239 79.0101 272.881 79.0101H133.802C132.444 79.0101 131.325 77.8907 131.325 76.5328V72.4773C131.325 71.1194 132.444 70 133.802 70Z" fill="#C5B0DF"/>
<path fill-rule="evenodd" clip-rule="evenodd" d="M133.802 214.583H272.881C274.248 214.583 275.358 215.703 275.358 217.061V221.116C275.358 222.474 274.239 223.594 272.881 223.594H133.802C132.444 223.594 131.325 222.474 131.325 221.116V217.061C131.325 215.694 132.444 214.583 133.802 214.583Z" fill="#C5B0DF"/>
<path d="M235.703 88.5889H170.98V92.9104H235.703V88.5889Z" fill="#AF91D3"/>
<path fill-rule="evenodd" clip-rule="evenodd" d="M156.869 183.112H180.981V187.434H156.869V183.112ZM156.869 199.187H178.293V203.509H156.869V199.187ZM156.869 191.15H189.478V195.471H156.869V191.15Z" fill="#AF91D3"/>
<path d="M236.152 191.15H217.315V195.471H236.152V191.15Z" fill="#AF91D3"/>
<path d="M242.116 199.188H217.315V203.509H242.116V199.188Z" fill="#AF91D3"/>
<path d="M247.19 183.112H217.315V187.434H247.19V183.112Z" fill="#AF91D3"/>
<path d="M169.228 159.624H156.869V176.571H169.228V159.624Z" fill="#C5B0DF"/>
<path d="M169.228 140.778H156.869V159.624H169.228V140.778Z" fill="#EDE2F9"/>
<path d="M189.377 120.556H177.018V176.571H189.377V120.556Z" fill="#C5B0DF"/>
<path d="M189.377 100.682H177.018V120.556H189.377V100.682Z" fill="#EDE2F9"/>
<path d="M209.526 133.382H197.167V176.579H209.526V133.382Z" fill="#AF91D3"/>
<path d="M209.526 126.804H197.167V133.383H209.526V126.804Z" fill="#EDE2F9"/>
<path d="M229.674 123.685H217.315V176.571H229.674V123.685Z" fill="#AF91D3"/>
<path d="M229.674 116.527H217.315V123.684H229.674V116.527Z" fill="#EDE2F9"/>
<path d="M249.823 141.393H237.464V176.571H249.823V141.393Z" fill="#B2B2B2"/>
<path d="M249.823 141.393H237.464V146.504H249.823V141.393Z" fill="#808080"/>
<path d="M189.377 119.959H177.018V163.881H189.377V119.959Z" fill="#8A6CAF"/>
<path d="M209.526 132.484H197.167V152.679H209.526V132.484Z" fill="#8A6CAF"/>
<path d="M229.674 123.069H217.315V159.027H229.674V123.069Z" fill="#8A6CAF"/>
<path d="M169.228 158.734H156.869V168.918H169.228V158.734Z" fill="#8A6CAF"/>
<path d="M249.823 146.035H237.464V161.413H249.823V146.035Z" fill="#989898"/>
<path fill-rule="evenodd" clip-rule="evenodd" d="M183.303 161.578C180.853 161.697 175.55 158.385 173.109 155.715C170.448 152.806 168.567 144.035 174.715 147.219C175.953 147.861 177.064 148.613 178.963 149.925C178.467 149.063 179.146 147.843 180.339 148.145C181.486 148.43 183.743 149.797 184.936 150.724C186.037 151.586 186.927 152.182 187.725 154.421C188.092 156.054 191.267 156.715 191.57 158.027C191.909 159.513 189.533 162.523 188.001 163.596C187.211 164.147 185.395 161.009 183.303 161.578Z" fill="url(#paint0_linear_265_37)"/>
<path fill-rule="evenodd" clip-rule="evenodd" d="M190.23 153.696C187.303 156.182 185.266 159.577 183.798 163.513C188.817 167.725 204.186 179.542 209.645 183.359C222.435 192.287 229.473 178.157 218.444 170.037C213.131 166.128 197.552 159.128 190.23 153.696Z" fill="#56A9BE"/>
<path fill-rule="evenodd" clip-rule="evenodd" d="M282.772 339.027L280.606 330.724L271.871 331.999L273.734 339.651C273.991 339.725 281.955 339.064 282.772 339.027Z" fill="url(#paint1_linear_265_37)"/>
<path fill-rule="evenodd" clip-rule="evenodd" d="M258.319 336.347L256.283 328.521L248.043 329.723L249.805 336.935C250.034 336.999 257.549 336.375 258.319 336.347Z" fill="url(#paint2_linear_265_37)"/>
<path fill-rule="evenodd" clip-rule="evenodd" d="M282.359 336.862C277.78 339.055 273.706 336.651 271.734 337.44C267.091 341.514 265.678 342.56 260.274 343.239C254.833 343.918 251.411 348.79 258.099 348.707C270.669 348.56 280.808 348.78 284.322 347.817C286.139 347.092 288.176 338.972 282.359 336.862Z" fill="#37254D"/>
<path fill-rule="evenodd" clip-rule="evenodd" d="M257.925 334.301C253.603 336.375 249.768 334.109 247.906 334.852C243.529 338.687 242.199 339.687 237.097 340.32C231.968 340.962 228.748 345.55 235.042 345.477C246.887 345.339 256.448 345.55 259.769 344.633C261.494 343.944 263.412 336.292 257.925 334.301Z" fill="#37254D"/>
<path fill-rule="evenodd" clip-rule="evenodd" d="M259.384 328.833C256.182 330.806 248.172 333.164 244.713 330.53C236.492 272.185 237.427 253.734 234.244 209.142C239.226 209.234 247.465 208.913 257.953 207.857C257.017 237.071 252.19 259.239 259.384 328.833Z" fill="#5983B1"/>
<path fill-rule="evenodd" clip-rule="evenodd" d="M285.01 331.513C280.56 333.339 273.413 335.889 267.467 334.054C258.053 274.406 258.962 258.661 255.42 213.06C261.301 213.134 270.991 211.005 283.35 209.876C282.111 239.76 276.872 260.331 285.01 331.513Z" fill="#4B75A2"/>
<path fill-rule="evenodd" clip-rule="evenodd" d="M240.74 140.447C240.033 141.108 247.722 134.08 249.309 134.401C257.008 135.933 265.614 137.695 272.009 142.2C285.377 151.614 290.699 150.155 285.332 133.703C282.937 126.354 288.414 120.308 292.314 114.114C301.718 99.1954 295.333 81.267 278.588 76.4591C267.605 73.3028 246.548 75.1471 247.63 98.8008C248.117 109.389 248.346 116.61 245.254 120.464C235.464 132.685 248.86 132.804 240.74 140.447Z" fill="#37254D"/>
<path fill-rule="evenodd" clip-rule="evenodd" d="M273.78 132.979L265.889 145.696L253.622 152.632L250.594 141.099L251.723 131.281L257.375 130.162L259.76 123.18L267.88 125.262L268.045 131.492L273.78 132.979Z" fill="url(#paint3_linear_265_37)"/>
<path fill-rule="evenodd" clip-rule="evenodd" d="M256.503 92.9558C267.825 83.4227 278.129 84.9183 286.689 98.1123C281.992 142.355 238.565 135.006 256.503 92.9558Z" fill="url(#paint4_linear_265_37)"/>
<path fill-rule="evenodd" clip-rule="evenodd" d="M252.319 99.0026C266.063 90.1118 279.661 110.536 282.221 96.6813C284.432 101.709 284.919 109.563 281.56 117.995C285.414 113.912 286.598 111.086 287.8 104.609C289.919 92.0203 285.001 86.4784 277.386 83.9002C260.723 78.2849 253.824 86.7445 252.319 99.0026Z" fill="#37254D"/>
<path fill-rule="evenodd" clip-rule="evenodd" d="M251.741 131.19C235.574 143.641 224.922 152.027 212.342 173.24C206.553 183.003 214.205 190.031 224.463 183.837C227.619 181.929 232.757 177.039 236.987 172.79C240.685 185.728 234.179 187.92 234.244 209.17C244.428 218.823 272.11 217.979 283.414 209.647C287.68 203.225 282.441 190.407 285.946 178.947C285.9 187.636 287.524 192.499 289.433 196.197C292.782 202.674 303.691 199.995 303.186 188.847C302.205 166.863 297.892 136.172 270.945 132.163C267.761 138.484 263.357 142.274 255.255 148.027C255.035 141.072 254.319 135.456 251.741 131.19Z" fill="#56A9BE"/>
<path fill-rule="evenodd" clip-rule="evenodd" d="M318.775 158.036C321.005 157.009 324.18 151.623 325.106 148.118C326.115 144.31 323.73 135.658 319.748 141.328C318.94 142.475 318.307 143.649 317.234 145.695C317.28 144.704 316.105 143.934 315.188 144.75C314.307 145.53 312.931 147.787 312.307 149.164C311.729 150.439 311.215 151.375 311.545 153.733C311.976 155.348 309.462 157.403 309.802 158.706C310.187 160.183 313.683 161.743 315.546 161.991C316.5 162.119 316.665 158.495 318.775 158.036Z" fill="url(#paint5_linear_265_37)"/>
<path fill-rule="evenodd" clip-rule="evenodd" d="M308.545 155.265C312.288 156.109 315.665 158.192 318.784 161C316.28 167.055 306.921 186.837 303.847 192.737C296.635 206.564 283.863 197.297 289.882 184.993C292.791 179.066 304.563 163.468 308.545 155.265Z" fill="#56A9BE"/>
<path d="M100.671 331.742H93.2202V349.487H100.671V331.742Z" fill="#C5B0DF"/>
<path d="M101.689 348.018H92.2018V361.836H101.689V348.018Z" fill="#8A6CAF"/>
<path d="M103.625 361.103H90.2659V372.452H103.625V361.103Z" fill="#67498B"/>
<path fill-rule="evenodd" clip-rule="evenodd" d="M108.726 319.777L104.964 333.109H88.9262L85.1643 319.777H108.726Z" fill="#8A6CAF"/>
<path fill-rule="evenodd" clip-rule="evenodd" d="M54.1337 382.701V373.278H57.1523V382.701H54.1337ZM95.4406 382.701V373.278H98.4593V382.701H95.4406ZM136.738 382.701V373.278H139.757V382.701H136.738Z" fill="#B79ED5"/>
<path fill-rule="evenodd" clip-rule="evenodd" d="M52.583 389.84C49.7295 389.84 47.4082 387.628 47.4082 384.894C47.4082 382.169 49.7204 379.949 52.583 379.949C55.4365 379.949 57.7579 382.16 57.7579 384.894C57.7579 387.628 55.4365 389.84 52.583 389.84Z" fill="#8A6CAF"/>
<path fill-rule="evenodd" clip-rule="evenodd" d="M52.5831 390.748C50.0599 390.748 48.0138 388.702 48.0138 386.169C48.0138 383.637 50.0599 381.6 52.5831 381.6C55.1063 381.6 57.1523 383.646 57.1523 386.169C57.1523 388.693 55.1063 390.748 52.5831 390.748Z" fill="#67498B"/>
<path fill-rule="evenodd" clip-rule="evenodd" d="M96.9453 389.84C94.0918 389.84 91.7705 387.628 91.7705 384.894C91.7705 382.169 94.0827 379.949 96.9453 379.949C99.7988 379.949 102.12 382.16 102.12 384.894C102.12 387.628 99.808 389.84 96.9453 389.84Z" fill="#8A6CAF"/>
<path d="M96.9454 390.748C99.474 390.748 101.524 388.698 101.524 386.169C101.524 383.641 99.474 381.591 96.9454 381.591C94.4168 381.591 92.3669 383.641 92.3669 386.169C92.3669 388.698 94.4168 390.748 96.9454 390.748Z" fill="#67498B"/>
<path fill-rule="evenodd" clip-rule="evenodd" d="M141.308 389.84C138.454 389.84 136.133 387.628 136.133 384.894C136.133 382.169 138.445 379.949 141.308 379.949C144.161 379.949 146.482 382.16 146.482 384.894C146.482 387.628 144.17 389.84 141.308 389.84Z" fill="#8A6CAF"/>
<path d="M141.308 390.748C143.836 390.748 145.886 388.698 145.886 386.169C145.886 383.641 143.836 381.591 141.308 381.591C138.779 381.591 136.729 383.641 136.729 386.169C136.729 388.698 138.779 390.748 141.308 390.748Z" fill="#67498B"/>
<path d="M139.757 371.177H54.1337V376.297H139.757V371.177Z" fill="#B79ED5"/>
<path fill-rule="evenodd" clip-rule="evenodd" d="M40.6736 228.108L115.47 227.814V312.841H60.8224L40.6736 228.108Z" fill="#67498B"/>
<path fill-rule="evenodd" clip-rule="evenodd" d="M57.8588 320.456H141.335C142.702 320.456 143.831 319.337 143.831 317.961V310.896C143.831 309.529 142.712 308.4 141.335 308.4H64.7678L43.7198 229.86C43.362 228.539 41.9948 227.74 40.6644 228.098L33.8472 229.924C32.526 230.282 31.7277 231.649 32.0856 232.98L55.0329 318.64C55.3815 319.887 56.0513 320.456 57.8588 320.456Z" fill="#8A6CAF"/>
<path fill-rule="evenodd" clip-rule="evenodd" d="M148.969 371.737L149.015 364.507L156.676 364.149L156.502 373.471C156.309 373.471 149.657 371.93 148.969 371.737Z" fill="url(#paint6_linear_265_37)"/>
<path fill-rule="evenodd" clip-rule="evenodd" d="M148.996 368.801C152.061 371.663 155.86 370.783 157.218 371.902C159.86 376.26 160.713 377.435 164.796 379.316C168.907 381.197 170.393 385.885 165.154 384.16C155.3 380.921 147.262 378.572 144.73 376.939C143.482 375.912 143.895 369.012 148.996 368.801Z" fill="#37254D"/>
<path fill-rule="evenodd" clip-rule="evenodd" d="M141.555 322.594L146.583 362.204C146.391 365.966 158.906 367.223 159.154 363.507C160.025 345.698 161.695 331.045 161.796 317.025C161.851 309.309 160.016 305.565 147.996 295.794C135.968 286.031 127.949 280.076 104.331 266.268C99.7071 275.562 90.7062 286.572 83.7972 294.573C98.8079 304.758 115.718 302.969 129.444 309.143C137.546 312.804 140.509 316.603 141.555 322.594Z" fill="#56A9BE"/>
<path fill-rule="evenodd" clip-rule="evenodd" d="M129.444 376.205L129.49 368.975L137.151 368.617L136.977 377.939C136.784 377.939 130.132 376.398 129.444 376.205Z" fill="url(#paint7_linear_265_37)"/>
<path fill-rule="evenodd" clip-rule="evenodd" d="M129.472 373.269C132.536 376.132 136.335 375.251 137.693 376.37C140.335 380.729 141.188 381.903 145.271 383.784C149.382 385.665 150.868 390.353 145.629 388.628C135.775 385.39 127.737 383.041 125.205 381.407C123.957 380.38 124.37 373.48 129.472 373.269Z" fill="#37254D"/>
<path fill-rule="evenodd" clip-rule="evenodd" d="M122.03 327.072L127.059 366.681C126.866 370.443 139.381 371.7 139.629 367.984C140.5 350.175 142.17 335.522 142.271 321.502C142.326 313.786 140.491 310.042 128.472 300.271C116.443 290.508 108.424 284.553 84.8065 270.754C80.1822 280.048 71.0253 275.663 64.1072 283.654C67.4837 303.592 73.3558 304.005 81.5952 306.491C92.266 309.712 100.56 309.418 109.91 313.621C118.021 317.272 120.985 321.071 122.03 327.072Z" fill="#4998AC"/>
<path fill-rule="evenodd" clip-rule="evenodd" d="M86.3664 209.592L87.6968 217.271L79.7051 227.19L67.0617 220.749L64.9238 213.895L69.3646 211.84L68.1627 205.655L80.0722 203.297L81.375 209.775L86.3664 209.592Z" fill="url(#paint8_linear_265_37)"/>
<path fill-rule="evenodd" clip-rule="evenodd" d="M86.3938 209.583C107.176 210.243 115.085 220.088 134.041 253.403C130.004 250.825 111.919 257.413 108.543 252.055C110.947 257.642 114.075 266.258 114.048 280.425C107.111 290.288 75.8973 294.619 67.0248 289.27C63.0428 286.875 64.8411 280.984 60.7582 273.02C56.1981 270.313 48.1789 271.525 46.5549 250.55C45.0226 230.695 49.5735 219.483 64.9054 213.922C71.7042 224.988 84.0633 222.474 86.3938 209.583Z" fill="#5983B1"/>
<path fill-rule="evenodd" clip-rule="evenodd" d="M61.483 253.716C76.1359 261.359 74.8238 266.001 94.9451 272.149C94.6699 277.47 93.1743 282.205 90.8162 285.499C82.531 282.774 67.2726 280.526 57.2899 273.406C41.5727 262.212 49.023 247.761 61.483 253.716Z" fill="#5983B1"/>
<path fill-rule="evenodd" clip-rule="evenodd" d="M86.3571 273.543C73.8329 267.854 62.5198 261.514 62.9327 256.055C63.1713 252.972 65.199 241.237 61.3821 233.86C66.9882 240.062 65.41 253.054 65.7862 256.238C66.3184 260.688 73.6861 265.946 86.3571 273.543Z" fill="#456F9B"/>
<path fill-rule="evenodd" clip-rule="evenodd" d="M51.6931 281.608H102.148C103.368 281.608 104.368 282.618 104.368 283.829V287.453C104.368 288.664 103.368 289.673 102.148 289.673H51.6931C50.4819 289.673 49.4727 288.673 49.4727 287.453V283.829C49.4727 282.609 50.4728 281.608 51.6931 281.608Z" fill="#C5B0DF"/>
<path fill-rule="evenodd" clip-rule="evenodd" d="M150.364 289.674H86.5957C84.4763 289.674 83.5037 287.921 84.0267 285.793L94.1011 244.44C94.6149 242.32 97.1289 240.559 99.2484 240.559H163.191C165.31 240.559 166.329 242.164 165.769 244.44L155.52 285.793C154.621 287.912 152.492 289.674 150.364 289.674Z" fill="#C5B0DF"/>
<path fill-rule="evenodd" clip-rule="evenodd" d="M124.407 270.067C121.682 270.067 119.7 267.846 119.975 265.112C120.25 262.378 122.682 260.157 125.407 260.157C128.132 260.157 130.114 262.378 129.839 265.112C129.563 267.855 127.132 270.067 124.407 270.067Z" fill="#EDE2F9"/>
<path fill-rule="evenodd" clip-rule="evenodd" d="M84.9901 170.45C72.8054 158.779 60.9877 160.614 50.2251 175.047C51.3261 223.565 101.083 216.776 84.9901 170.45Z" fill="url(#paint9_linear_265_37)"/>
<path fill-rule="evenodd" clip-rule="evenodd" d="M86.192 160C79.1729 149.742 72.2273 158.1 70.7134 159.532C67.135 162.917 63.575 157.165 54.987 162.56C46.0136 168.193 43.6831 181.828 46.9403 187.755C48.9222 191.37 50.0507 197.049 51.7481 200.765C55.0329 207.977 63.7035 208.234 69.3738 211.886C69.1077 210.491 68.8508 209.197 68.6398 208.023C62.7584 204.564 62.4465 201.518 62.1987 197.407C60.6206 197.554 58.235 196.508 58.4552 192.581C58.6387 189.26 61.9785 191.067 62.2079 190.021C62.5933 188.315 63.3732 186.81 64.7678 185.69C74.3835 173.744 84.6506 180.571 87.5499 177.176C89.2474 175.212 91.2567 167.404 86.192 160Z" fill="#37254D"/>
<path fill-rule="evenodd" clip-rule="evenodd" d="M73.4659 386.261V295.417C73.4659 293.775 74.8147 292.426 76.4571 292.426H81.3475C82.9898 292.426 84.3386 293.784 84.3386 295.417V386.261C84.3386 387.894 82.9807 389.252 81.3475 389.252H76.4571C74.8239 389.243 73.4659 387.903 73.4659 386.261ZM285.689 386.261V295.417C285.689 293.775 287.038 292.426 288.68 292.426H293.571C295.213 292.426 296.562 293.784 296.562 295.417V386.261C296.562 387.894 295.204 389.252 293.571 389.252H288.68C287.047 389.243 285.689 387.903 285.689 386.261Z" fill="#8A6CAF"/>
<path fill-rule="evenodd" clip-rule="evenodd" d="M73.4659 303.565V295.408C73.4659 294.206 74.1816 293.169 75.2092 292.692H82.5861C83.6138 293.169 84.3294 294.206 84.3294 295.408V303.565H73.4659ZM287.341 292.692H294.718C295.745 293.169 296.461 294.215 296.461 295.408V303.565H285.598V295.408C285.598 294.215 286.313 293.169 287.341 292.692Z" fill="#795A9D"/>
<path fill-rule="evenodd" clip-rule="evenodd" d="M60.3361 288.444H309.242C310.884 288.444 312.233 289.802 312.233 291.435V296.326C312.233 297.95 310.875 299.317 309.242 299.317H60.3361C58.7121 299.317 57.345 297.968 57.345 296.326V291.435C57.345 289.793 58.6846 288.444 60.3361 288.444Z" fill="#B79ED5"/>
<path fill-rule="evenodd" clip-rule="evenodd" d="M182.532 219.061C182.55 219.052 186.248 216.877 188.79 214.923C190.781 213.391 192.157 211.959 189.881 211.978C188.918 211.987 187.79 212.391 186.734 212.675C187.386 212.262 190.166 210.647 192.322 208.922C194.708 207.023 195.469 205.252 192.607 206.005C190.56 206.546 191.065 206.151 188.845 207.179C188.918 207.014 190.827 205.775 194.001 203.197C197.268 200.545 199.075 198.242 193.487 200.123C183.652 203.445 170.825 207.913 164.668 214.024C158.75 219.896 157.043 225.052 170.118 225.328C173.412 225.401 178.44 224.282 181.872 222.557C185.569 220.703 187.679 217.685 182.532 219.061Z" fill="#4B729B"/>
<path fill-rule="evenodd" clip-rule="evenodd" d="M165.255 242.551C166.787 242.349 166.466 240.027 164.943 240.229C163.769 240.275 162.659 240.422 161.539 240.679C160.97 239.954 160.456 238.871 160.071 237.614C159.878 237 159.218 236.66 158.603 236.853C157.988 237.045 157.649 237.706 157.842 238.321C157.988 239.101 158.273 240.138 158.933 241.046C158.144 241.028 157.245 241.128 156.52 241.358C154.988 241.56 155.309 243.881 156.832 243.679C158.108 243.349 159.374 243.138 160.732 243.156C161.337 243.954 162.108 244.743 163.035 245.413C164.127 246.496 165.778 244.826 164.677 243.743C164.283 243.505 163.943 243.138 163.677 242.762C164.163 242.596 164.677 242.551 165.255 242.551Z" fill="#1F4063"/>
<path fill-rule="evenodd" clip-rule="evenodd" d="M158.777 246.459C160.31 246.257 159.988 243.936 158.465 244.137C157.291 244.183 156.181 244.33 155.061 244.587C154.493 243.862 153.979 242.78 153.593 241.523C153.401 240.908 152.74 240.568 152.125 240.761C151.511 240.954 151.171 241.614 151.364 242.229C151.511 243.009 151.795 244.046 152.456 244.954C151.667 244.936 150.767 245.037 150.043 245.266C148.51 245.468 148.831 247.789 150.354 247.587C151.63 247.257 152.896 247.046 154.254 247.064C154.86 247.863 155.63 248.652 156.557 249.321C157.649 250.404 159.3 248.734 158.199 247.652C157.805 247.413 157.465 247.046 157.199 246.67C157.685 246.514 158.199 246.468 158.777 246.459Z" fill="#1F4063"/>
<path fill-rule="evenodd" clip-rule="evenodd" d="M159.328 240.054C160.337 239.88 160.961 238.632 160.722 237.274C160.484 235.916 159.465 234.962 158.465 235.136C157.456 235.311 156.832 236.558 157.071 237.916C157.309 239.274 158.319 240.229 159.328 240.054Z" fill="#4B729B"/>
<path fill-rule="evenodd" clip-rule="evenodd" d="M152.85 243.962C153.859 243.788 154.483 242.54 154.245 241.182C154.006 239.824 152.988 238.87 151.988 239.044C150.978 239.219 150.355 240.467 150.593 241.825C150.832 243.183 151.841 244.146 152.85 243.962Z" fill="#4B729B"/>
<path fill-rule="evenodd" clip-rule="evenodd" d="M170.164 204.537C170.916 202.546 173.981 198.839 178.302 197.362C186.798 194.444 183.835 192.389 179.073 193.196C174.412 193.985 177.064 191.939 175.1 190.673C173.66 189.747 172.889 191.701 171.173 190.756C169.494 189.82 167.87 188.398 167.677 184.599C167.586 182.755 166.007 182.461 164.704 185.049C163.659 187.141 163.521 191.572 161.814 189.003C160.319 186.746 161.411 191.71 158.942 192.297C157.3 192.692 155.905 190.242 154.869 191.637C153.859 192.995 158.465 196.279 153.511 196.821C150.235 197.178 151.786 198.261 153.199 200.271C154.254 201.775 148.639 204.491 159.3 203.473C163.851 203.041 162.943 202.766 167.576 204.464C168.264 204.711 170.145 204.601 170.164 204.537Z" fill="#4B729B"/>
<path fill-rule="evenodd" clip-rule="evenodd" d="M168.329 208.84C174.733 201.794 168.521 198.023 162.227 198.784C155.52 199.601 152.63 204.005 149.923 210.556C143.739 225.539 136.738 235.724 127.031 246.496C120.269 253.992 122.416 254.469 130.866 247.853C135.188 244.468 138.115 240.715 141.262 236.605C145.941 237.788 149.299 239.99 153.979 241.174C165.475 235.448 171.1 227.705 166.567 216.162C167.136 213.052 167.76 211.942 168.329 208.84Z" fill="#5983B1"/>
<path fill-rule="evenodd" clip-rule="evenodd" d="M168.329 208.84C168.843 208.272 169.274 207.73 169.632 207.207C169.366 204.216 168.044 203.941 166.329 204.546C164.815 202.198 160.677 201.308 158.034 203.363C154.538 206.07 154.41 211.676 159.245 213.364C157.126 218.401 161.576 220.007 167.145 217.796C166.998 217.263 166.769 216.731 166.567 216.181C167.136 213.052 167.76 211.942 168.329 208.84Z" fill="#F8F6FB"/>
<path fill-rule="evenodd" clip-rule="evenodd" d="M170.705 216.557C164.026 216.869 162.879 214.639 165.906 210.712C166.237 212.603 167.228 214.217 170.705 216.557Z" fill="#1F4063"/>
<path fill-rule="evenodd" clip-rule="evenodd" d="M165.796 210.868C167.154 208.336 168.466 206.528 171.742 207.611C175.018 208.684 178.266 216.63 174.036 224.42C172.871 213.235 167.962 219.667 165.796 210.868Z" fill="#2A4E75"/>
<path fill-rule="evenodd" clip-rule="evenodd" d="M162.53 211.143C164.246 210.841 165.393 209.198 165.09 207.482C164.787 205.767 163.145 204.62 161.429 204.923C159.713 205.225 158.566 206.868 158.869 208.583C159.172 210.299 160.814 211.446 162.53 211.143Z" fill="#C1D6EC"/>
<path fill-rule="evenodd" clip-rule="evenodd" d="M162.337 210.043C163.448 209.85 164.182 208.786 163.989 207.685C163.796 206.574 162.732 205.84 161.631 206.033C160.521 206.226 159.787 207.29 159.979 208.391C160.172 209.492 161.227 210.235 162.337 210.043Z" fill="#1F4063"/>
<path fill-rule="evenodd" clip-rule="evenodd" d="M150.474 241.045C150.455 241.064 147.492 244.165 145.005 246.184C143.051 247.771 141.344 248.771 141.886 246.569C142.115 245.633 142.767 244.624 143.29 243.66C142.739 244.202 140.519 246.532 138.353 248.23C135.958 250.111 133.857 250.331 135.445 247.835C136.656 245.945 138.17 244.165 139.684 242.247C139.509 242.275 135.628 246.055 132.389 248.551C129.059 251.12 126.398 252.34 129.517 247.34C135.013 238.541 142.317 227.081 149.685 222.502C156.759 218.098 162.172 217.621 159.429 230.411C158.741 233.632 156.493 238.275 154.025 241.211C151.373 244.385 147.941 245.752 150.474 241.045Z" fill="#4B729B"/>
<path fill-rule="evenodd" clip-rule="evenodd" d="M161.282 208.417C161.86 208.317 162.255 207.757 162.145 207.179C162.044 206.601 161.484 206.215 160.906 206.316C160.328 206.417 159.943 206.977 160.044 207.555C160.154 208.133 160.704 208.528 161.282 208.417Z" fill="white"/>
<path d="M414.014 308.134H407.16V324.466H414.014V308.134Z" fill="#C5B0DF"/>
<path d="M414.959 323.117H406.225V335.824H414.959V323.117Z" fill="#8A6CAF"/>
<path d="M416.739 335.155H404.444V345.605H416.739V335.155Z" fill="#67498B"/>
<path fill-rule="evenodd" clip-rule="evenodd" d="M421.428 297.133L417.969 309.391H403.215L399.747 297.133H421.428Z" fill="#8A6CAF"/>
<path fill-rule="evenodd" clip-rule="evenodd" d="M371.193 355.038V346.358H373.973V355.038H371.193ZM409.197 355.038V346.358H411.977V355.038H409.197ZM447.21 355.038V346.358H449.99V355.038H447.21Z" fill="#B79ED5"/>
<path fill-rule="evenodd" clip-rule="evenodd" d="M369.762 361.598C367.129 361.598 365 359.561 365 357.047C365 354.533 367.129 352.496 369.762 352.496C372.395 352.496 374.524 354.533 374.524 357.047C374.524 359.561 372.395 361.598 369.762 361.598Z" fill="#8A6CAF"/>
<path d="M369.762 362.442C372.088 362.442 373.973 360.557 373.973 358.231C373.973 355.905 372.088 354.02 369.762 354.02C367.436 354.02 365.551 355.905 365.551 358.231C365.551 360.557 367.436 362.442 369.762 362.442Z" fill="#67498B"/>
<path fill-rule="evenodd" clip-rule="evenodd" d="M410.592 361.598C407.959 361.598 405.83 359.561 405.83 357.047C405.83 354.533 407.959 352.496 410.592 352.496C413.225 352.496 415.354 354.533 415.354 357.047C415.354 359.561 413.216 361.598 410.592 361.598Z" fill="#8A6CAF"/>
<path d="M410.592 362.442C412.918 362.442 414.803 360.557 414.803 358.231C414.803 355.905 412.918 354.02 410.592 354.02C408.266 354.02 406.381 355.905 406.381 358.231C406.381 360.557 408.266 362.442 410.592 362.442Z" fill="#262F38"/>
<path fill-rule="evenodd" clip-rule="evenodd" d="M451.413 361.598C448.779 361.598 446.651 359.561 446.651 357.047C446.651 354.533 448.779 352.496 451.413 352.496C454.046 352.496 456.175 354.533 456.175 357.047C456.175 359.561 454.046 361.598 451.413 361.598Z" fill="#8A6CAF"/>
<path d="M451.413 362.442C453.739 362.442 455.624 360.557 455.624 358.231C455.624 355.905 453.739 354.02 451.413 354.02C449.087 354.02 447.201 355.905 447.201 358.231C447.201 360.557 449.087 362.442 451.413 362.442Z" fill="#262F38"/>
<path d="M449.99 344.422H371.193V349.138H449.99V344.422Z" fill="#B79ED5"/>
<path fill-rule="evenodd" clip-rule="evenodd" d="M435.227 291.132L382.121 286.994L401.967 213.51L453.587 212.849L435.227 291.132Z" fill="#67498B"/>
<path fill-rule="evenodd" clip-rule="evenodd" d="M437.778 297.831H378.607C377.35 297.831 376.313 296.803 376.313 295.537V289.041C376.313 287.784 377.35 286.747 378.607 286.747H431.42L450.789 214.465C451.119 213.244 452.376 212.52 453.596 212.841L459.872 214.52C461.092 214.85 461.817 216.107 461.496 217.327L440.375 296.152C440.054 297.308 439.439 297.831 437.778 297.831Z" fill="#8A6CAF"/>
<path fill-rule="evenodd" clip-rule="evenodd" d="M413.023 219.079C412.106 211.106 420.015 212.143 427.97 212.813C444.595 214.198 448.807 207.179 440.705 198.609C430.621 189.351 434.925 182.231 435.154 174.781C435.704 156.807 420.868 149.916 403.72 154.568C396.517 156.522 384.461 156.614 396.453 177.589C402.013 187.324 406.931 191.104 402.206 207.216C397.49 223.318 413.473 222.914 413.023 219.079Z" fill="#37254D"/>
<path fill-rule="evenodd" clip-rule="evenodd" d="M403.756 210.345L411.812 207.583L412.262 199.087L420.217 195.453L421.272 203.16L431.108 214.721L410.252 233.861L403.756 210.345Z" fill="url(#paint10_linear_265_37)"/>
<path fill-rule="evenodd" clip-rule="evenodd" d="M394.288 169.588C402.573 157.009 413.225 156.247 425.456 166.67C434.163 209.124 389.498 213.106 394.288 169.588Z" fill="url(#paint11_linear_265_37)"/>
<path fill-rule="evenodd" clip-rule="evenodd" d="M404.867 209.922C388.461 214.225 376.258 223.437 373.992 240.485C372.863 248.972 398.013 247.816 397.701 253.679C396.985 267.295 429.603 267.8 443.595 263.873C456.936 260.12 449.495 214.455 425.685 209.289C420.134 213.785 415.73 220.455 410.381 224.759C407.949 217.409 406.692 215.391 404.867 209.922Z" fill="#56A9BE"/>
<path fill-rule="evenodd" clip-rule="evenodd" d="M430.126 226.548C429.943 233.668 431.071 236.549 432.557 239.311C436.053 245.798 435.75 251.055 423.988 251.698C439.613 254.469 438.558 245.027 434.356 237.861C433.135 235.779 431.135 233.035 430.126 226.548Z" fill="#4998AC"/>
<path fill-rule="evenodd" clip-rule="evenodd" d="M394.59 172.46C405.839 164.422 408.638 172.212 412.629 183.406C415.436 181.442 418.785 185.168 416.345 189.489C419.042 193.884 420.153 201.711 419.455 204.573C414.207 219.281 441.448 221.373 448.054 212.317C453.725 204.536 432.778 195.774 427.704 183.745C425.584 170.45 428.557 175.066 426.272 168.753C421.621 156.587 419.896 152.852 409.39 153.55C398.884 154.247 392.333 157.724 388.948 161.477C383.185 167.863 389.25 176.277 394.59 172.46Z" fill="#37254D"/>
<path fill-rule="evenodd" clip-rule="evenodd" d="M345.769 262.726L404.307 268.442C406.096 268.616 408.748 267.286 411.106 265.928L421.987 259.368C424.346 258.019 425.217 255.542 420.382 254.964L363.954 248.853C359.064 248.321 356.063 248.651 354.871 249.835L345.319 259.377C344.136 260.57 343.989 262.552 345.769 262.726Z" fill="#B19ACE"/>
<path fill-rule="evenodd" clip-rule="evenodd" d="M416.849 252.468C414.941 253.523 414.097 254.597 412.078 253.514C410.216 252.514 408.206 252.817 406.766 253.211C402.307 254.413 402.628 254.973 400.196 260.304C397.948 265.222 400.783 264.699 402.508 261.616C405.096 256.992 407.968 258.524 412.152 258.808C414.124 258.946 416.005 258.258 417.895 257.827C417.556 256.037 417.198 254.248 416.849 252.468Z" fill="url(#paint12_linear_265_37)"/>
<path fill-rule="evenodd" clip-rule="evenodd" d="M346.053 262.918L399.444 268.634C401.224 268.827 402.169 267.442 401.894 265.616L397.692 229.777C397.425 227.951 395.462 226.245 393.682 226.061L338.603 220.574C336.823 220.4 335.832 221.676 336.153 223.593L342.044 259.202C342.622 261.065 344.273 262.726 346.053 262.918Z" fill="#C5B0DF"/>
<path fill-rule="evenodd" clip-rule="evenodd" d="M369.111 248.192C371.111 248.403 372.689 246.697 372.643 244.375C372.597 242.054 370.946 239.999 368.945 239.788C366.945 239.577 365.367 241.283 365.413 243.605C365.459 245.917 367.11 247.972 369.111 248.192Z" fill="#EDE2F9"/>
<path fill-rule="evenodd" clip-rule="evenodd" d="M413.831 335.21L407.527 323.282L400.985 326.879L408.968 337.715C409.188 337.706 413.152 335.494 413.831 335.21Z" fill="url(#paint13_linear_265_37)"/>
<path fill-rule="evenodd" clip-rule="evenodd" d="M402.775 332.495C407.234 330.595 408.454 330.091 410.867 325.788C406.032 318.089 390.608 294.61 383.745 287.242C367.679 269.993 355.495 285.123 369.267 300.528C375.919 307.978 394.673 323.962 402.775 332.495Z" fill="#C5B0DF"/>
<path fill-rule="evenodd" clip-rule="evenodd" d="M411.161 330.999C411.014 335.22 406.72 338.312 406.546 340.065C407.766 345.056 408.16 346.561 406.417 350.745C404.261 355.929 408.417 357.901 410.931 352.947C415.657 343.625 418.244 337.752 418.886 334.789C419.042 333.165 414.95 327.513 411.161 330.999Z" fill="#37254D"/>
<path fill-rule="evenodd" clip-rule="evenodd" d="M364.67 348.679L367.432 336.54L358.412 335.65L357.531 347.707C357.743 347.844 363.927 348.487 364.67 348.679Z" fill="url(#paint14_linear_265_37)"/>
<path fill-rule="evenodd" clip-rule="evenodd" d="M365.835 341.166C363.642 346.386 357.109 346.992 356.201 348.781C355.458 354.562 355.118 356.186 351.714 360.039C348.283 363.92 350.696 369.297 355.375 365.067C364.174 357.121 369.707 351.139 371.588 348.258C372.423 346.616 371.267 339.028 365.835 341.166Z" fill="#37254D"/>
<path fill-rule="evenodd" clip-rule="evenodd" d="M437.2 261.956C417.437 262.534 394.911 262.827 375.313 265.424C363.404 267.002 356.348 271.516 356.183 288.61C356.027 305.4 354.862 319.686 356.559 337.743C356.825 340.615 367.835 340.872 368.478 337.624C371.368 323.118 371.891 310.557 373.873 297.968C374.882 291.527 378.176 290.261 386.122 290.555C402.958 291.179 405.637 295.72 415.189 294.509C436.402 291.83 442.641 279.086 437.2 261.956Z" fill="#AF96CE"/>
<path fill-rule="evenodd" clip-rule="evenodd" d="M209.434 289.784H276.266C278.487 289.784 279.891 287.949 279.808 285.719L272.927 242.375C272.844 240.146 270.596 238.311 268.376 238.311H202.185C199.956 238.311 198.323 240.127 198.644 242.375L204.883 285.719C205.36 287.949 207.213 289.784 209.434 289.784Z" fill="#C5B0DF"/>
<path fill-rule="evenodd" clip-rule="evenodd" d="M211.755 284.058H272.147C273.872 284.058 274.963 282.627 274.899 280.902L269.174 245.137C269.11 243.403 267.366 241.98 265.632 241.98H205.736C204.002 241.98 202.727 243.393 202.984 245.137L208.214 280.902C208.581 282.636 210.03 284.058 211.755 284.058Z" fill="white"/>
<path fill-rule="evenodd" clip-rule="evenodd" d="M208.984 287.683H275.817C278.037 287.683 280.166 287.884 280.973 288.141L291.35 293.004C292.158 293.252 290.644 293.463 288.414 293.463H222.224C219.995 293.463 217.655 293.224 217.068 293.004L208.048 289.6C205.764 288.774 206.333 287.683 208.984 287.683Z" fill="#AF91D3"/>
<path fill-rule="evenodd" clip-rule="evenodd" d="M251.952 267.396C252.365 267.396 252.631 266.974 252.539 266.442C252.447 265.919 252.044 265.488 251.631 265.488H234.721C234.308 265.488 234.042 265.91 234.134 266.442C234.225 266.965 234.629 267.396 235.042 267.396H251.952ZM266.678 248.201C267.091 248.201 267.357 247.77 267.265 247.247C267.174 246.724 266.77 246.293 266.357 246.293H238.354C237.941 246.293 237.675 246.715 237.767 247.247C237.859 247.77 238.262 248.201 238.675 248.201H266.678ZM267.522 253.129C267.935 253.129 268.201 252.706 268.11 252.174C268.018 251.651 267.614 251.22 267.201 251.22H213.113C212.7 251.22 212.434 251.651 212.526 252.174C212.618 252.697 213.021 253.129 213.434 253.129H267.522ZM268.091 256.459C268.504 256.459 268.761 256.028 268.678 255.505C268.587 254.982 268.183 254.551 267.77 254.551H222.224C221.811 254.551 221.545 254.973 221.637 255.505C221.729 256.028 222.132 256.459 222.545 256.459H268.091ZM268.651 259.781C269.064 259.781 269.33 259.349 269.238 258.826C269.146 258.303 268.743 257.872 268.33 257.872H216.783C216.37 257.872 216.113 258.303 216.196 258.826C216.288 259.349 216.691 259.781 217.104 259.781H268.651ZM252.787 272.323C253.2 272.323 253.466 271.901 253.374 271.369C253.282 270.846 252.879 270.415 252.466 270.415H220.242C219.829 270.415 219.563 270.837 219.655 271.369C219.747 271.892 220.151 272.323 220.563 272.323H252.787ZM253.356 275.654C253.769 275.654 254.035 275.232 253.943 274.7C253.851 274.177 253.447 273.745 253.035 273.745H211.397C210.984 273.745 210.718 274.167 210.81 274.7C210.902 275.223 211.306 275.654 211.718 275.654H253.356ZM253.925 278.975C254.337 278.975 254.604 278.544 254.512 278.021C254.42 277.498 254.016 277.067 253.603 277.067H220.334C219.921 277.067 219.655 277.489 219.747 278.021C219.839 278.544 220.242 278.975 220.655 278.975H253.925Z" fill="#AF91D3"/>
<path fill-rule="evenodd" clip-rule="evenodd" d="M232.28 383.086L232.803 374.755L223.812 374.416L223.206 382.068C223.426 382.178 231.464 382.976 232.28 383.086Z" fill="url(#paint15_linear_265_37)"/>
<path fill-rule="evenodd" clip-rule="evenodd" d="M256.255 384.252L256.751 376.398L248.273 376.077L247.704 383.288C247.915 383.399 255.484 384.151 256.255 384.252Z" fill="url(#paint16_linear_265_37)"/>
<path fill-rule="evenodd" clip-rule="evenodd" d="M232.565 380.939C227.362 382.215 224.133 379.187 221.94 379.591C216.077 382.655 214.361 383.407 208.828 383.086C203.268 382.756 198.35 386.812 204.947 387.931C217.343 390.05 227.234 392.078 230.996 391.784C233.014 391.408 237.602 384.004 232.565 380.939Z" fill="#37254D"/>
<path fill-rule="evenodd" clip-rule="evenodd" d="M256.521 382.234C251.622 383.436 248.566 380.582 246.502 380.958C240.978 383.848 239.354 384.555 234.143 384.252C228.904 383.94 224.27 387.766 230.482 388.821C242.162 390.813 251.493 392.73 255.035 392.455C256.952 392.097 261.274 385.115 256.521 382.234Z" fill="#37254D"/>
<path fill-rule="evenodd" clip-rule="evenodd" d="M283.937 270.598C279.523 272.039 273.78 273.277 264.054 273.323C262.797 278.434 262.87 283.333 264.173 287.123C269.715 286.976 278.496 287.655 286.699 287.251C283.817 283.792 283.047 277.48 283.074 271.929C283.359 271.479 283.643 271.039 283.937 270.598Z" fill="#456F9B"/>
<path fill-rule="evenodd" clip-rule="evenodd" d="M290.983 297.711C281.212 300.005 267.522 302.666 257.934 305.785C244.621 310.116 248.126 314.905 247.759 328.109C247.364 342.431 246.961 360.323 246.327 374.315C246.144 378.416 258.42 380.022 259.026 375.389C260.613 363.222 262.788 348.817 264.412 336.66C265.898 326.393 264.953 324.695 272.486 324.237C277.762 323.915 285.038 323.255 290.121 322.915C290.901 315.015 290.185 305.611 290.983 297.711Z" fill="#715198"/>
<path fill-rule="evenodd" clip-rule="evenodd" d="M290.855 292.583C281.083 294.876 249.126 299.647 239.538 302.767C226.225 307.098 226.573 310.722 225.059 323.705C223.399 337.936 223.105 357.892 222.472 371.884C222.288 375.986 235.281 376.931 235.886 372.297C237.473 360.131 239.538 348.487 241.171 336.321C242.657 326.063 242.034 323.852 249.557 324.356C255.494 324.751 285.35 323.365 290.424 323.026C291.213 315.117 290.057 300.482 290.855 292.583Z" fill="#67498B"/>
<path fill-rule="evenodd" clip-rule="evenodd" d="M364.541 279.93C363.468 266.8 360.596 257.955 352.54 253.358C323.895 236.999 299.406 245.312 282.515 272.112C282.478 279.021 283.671 287.123 288.653 289.408C272.33 293.252 274.119 311.75 284.129 321.668C302.572 339.927 349.521 344.624 364.541 279.93Z" fill="#5983B1"/>
<path fill-rule="evenodd" clip-rule="evenodd" d="M316.38 245.843L316.894 239.091L328.51 234.283C329.308 239.577 330.033 240.32 330.832 245.614C330.162 250.248 318.124 250.523 316.38 245.843Z" fill="url(#paint17_linear_265_37)"/>
<path fill-rule="evenodd" clip-rule="evenodd" d="M301.682 206.738C311.463 194.113 322.785 194.187 334.869 206.197C335.456 210.84 335.483 215.024 335.08 218.73C339.282 220.354 338.135 226.74 333.006 227.722C324.253 250.247 294.754 243.458 301.682 206.738Z" fill="url(#paint18_linear_265_37)"/>
<path fill-rule="evenodd" clip-rule="evenodd" d="M341.135 224.245C344.457 209.96 345.613 186.306 328.464 189.985C323.244 191.104 320.445 182.076 309.857 184.948C299.617 187.719 296.048 194.086 294.002 199.977C292.14 205.363 292.121 223.41 305.655 214.364C310.453 211.152 317.335 209.326 320.821 221.832C323.712 232.21 324.611 239.256 329.51 239.174C337.007 239.027 339.465 231.448 341.135 224.245Z" fill="#37254D"/>
<path fill-rule="evenodd" clip-rule="evenodd" d="M413.179 252.404C411.574 255.432 411.243 259.349 412.721 263.405C420.428 264.341 429.163 265.726 437.742 265.304C451.605 264.616 454.358 249.624 436.732 250.376C428.227 250.725 424.281 253.138 413.179 252.404Z" fill="#56A9BE"/>
<path d="M310.481 346.064H303.031V363.809H310.481V346.064Z" fill="#C5B0DF"/>
<path d="M311.499 362.35H302.012V376.168H311.499V362.35Z" fill="#8A6CAF"/>
<path d="M313.444 375.434H300.085V386.784H313.444V375.434Z" fill="#67498B"/>
<path fill-rule="evenodd" clip-rule="evenodd" d="M318.537 334.109L314.775 347.441H298.746L294.984 334.109H318.537Z" fill="#8A6CAF"/>
<path fill-rule="evenodd" clip-rule="evenodd" d="M263.944 397.033V387.61H266.963V397.033H263.944ZM305.251 397.033V387.61H308.27V397.033H305.251ZM346.549 397.033V387.61H349.567V397.033H346.549Z" fill="#B79ED5"/>
<path fill-rule="evenodd" clip-rule="evenodd" d="M262.393 404.171C259.54 404.171 257.219 401.96 257.219 399.226C257.219 396.501 259.531 394.28 262.393 394.28C265.247 394.28 267.568 396.492 267.568 399.226C267.568 401.951 265.256 404.171 262.393 404.171Z" fill="#8A6CAF"/>
<path fill-rule="evenodd" clip-rule="evenodd" d="M262.393 405.08C259.87 405.08 257.824 403.034 257.824 400.511C257.824 397.987 259.87 395.932 262.393 395.932C264.917 395.932 266.963 397.978 266.963 400.511C266.972 403.025 264.926 405.08 262.393 405.08Z" fill="#67498B"/>
<path fill-rule="evenodd" clip-rule="evenodd" d="M306.756 404.171C303.902 404.171 301.581 401.96 301.581 399.226C301.581 396.501 303.893 394.28 306.756 394.28C309.609 394.28 311.93 396.492 311.93 399.226C311.93 401.951 309.618 404.171 306.756 404.171Z" fill="#8A6CAF"/>
<path fill-rule="evenodd" clip-rule="evenodd" d="M306.756 405.08C304.232 405.08 302.186 403.034 302.186 400.511C302.186 397.987 304.232 395.932 306.756 395.932C309.279 395.932 311.334 397.978 311.334 400.511C311.334 403.025 309.288 405.08 306.756 405.08Z" fill="#67498B"/>
<path fill-rule="evenodd" clip-rule="evenodd" d="M351.118 404.171C348.264 404.171 345.943 401.96 345.943 399.226C345.943 396.501 348.255 394.28 351.118 394.28C353.971 394.28 356.293 396.492 356.293 399.226C356.293 401.951 353.981 404.171 351.118 404.171Z" fill="#8A6CAF"/>
<path fill-rule="evenodd" clip-rule="evenodd" d="M351.127 405.08C348.604 405.08 346.558 403.034 346.558 400.511C346.558 397.987 348.604 395.932 351.127 395.932C353.65 395.932 355.706 397.978 355.706 400.511C355.696 403.025 353.65 405.08 351.127 405.08Z" fill="#67498B"/>
<path d="M349.567 385.5H263.944V390.619H349.567V385.5Z" fill="#B79ED5"/>
<path fill-rule="evenodd" clip-rule="evenodd" d="M356.88 334.999L297.626 334.889L315.197 242.531C332.189 242.531 353.137 242.531 370.129 242.531C375.506 242.531 377.203 245.926 376.111 251.532L356.88 334.999Z" fill="#67498B"/>
<path fill-rule="evenodd" clip-rule="evenodd" d="M263.953 277.296C261.017 278.214 259.549 279.452 257.063 277.388C254.778 275.48 251.915 275.333 249.814 275.461C243.318 275.865 243.602 276.727 238.74 283.407C234.253 289.564 238.308 289.646 241.566 285.866C246.438 280.214 249.979 283.132 255.677 284.71C258.356 285.453 261.164 285.04 263.889 284.976C263.916 282.425 263.935 279.865 263.953 277.296Z" fill="url(#paint19_linear_265_37)"/>
<path fill-rule="evenodd" clip-rule="evenodd" d="M256.2 281.186C253.264 282.104 251.796 283.343 249.309 281.278C247.025 279.37 244.162 279.223 242.061 279.351C235.565 279.755 235.849 280.618 230.987 287.297C226.5 293.463 230.555 293.536 233.813 289.756C238.685 284.104 242.226 287.022 247.924 288.6C250.603 289.343 253.411 288.93 256.136 288.866C256.163 286.315 256.182 283.746 256.2 281.186Z" fill="url(#paint20_linear_265_37)"/>
<path fill-rule="evenodd" clip-rule="evenodd" d="M293.185 269.286C277.156 272.351 277.074 277.122 256.31 277.214C255.053 282.324 255.127 287.224 256.429 291.013C265.045 290.793 280.111 292.995 291.58 289.096C309.6 282.976 306.664 267.185 293.185 269.286Z" fill="#5983B1"/>
<path fill-rule="evenodd" clip-rule="evenodd" d="M298.003 334.88H233.702C232.335 334.88 231.207 333.76 231.207 332.384V325.319C231.207 323.952 232.326 322.823 233.702 322.823H291.094L312.142 244.283C312.499 242.962 313.867 242.164 315.197 242.522L322.014 244.348C323.335 244.705 324.134 246.072 323.776 247.403L300.829 333.063C300.489 334.311 299.819 334.88 298.003 334.88Z" fill="#8A6CAF"/>
<defs>
<linearGradient id="paint0_linear_265_37" x1="188.753" y1="161.528" x2="176.819" y2="151.417" gradientUnits="userSpaceOnUse">
<stop stop-color="#F7B9AD"/>
<stop offset="1" stop-color="#FAD4CC"/>
</linearGradient>
<linearGradient id="paint1_linear_265_37" x1="277.553" y1="337.698" x2="277.077" y2="333.177" gradientUnits="userSpaceOnUse">
<stop stop-color="#F7B9AD"/>
<stop offset="1" stop-color="#FAD4CC"/>
</linearGradient>
<linearGradient id="paint2_linear_265_37" x1="253.401" y1="335.09" x2="252.951" y2="330.827" gradientUnits="userSpaceOnUse">
<stop stop-color="#F7B9AD"/>
<stop offset="1" stop-color="#FAD4CC"/>
</linearGradient>
<linearGradient id="paint3_linear_265_37" x1="257.781" y1="151.526" x2="262.668" y2="132.466" gradientUnits="userSpaceOnUse">
<stop stop-color="#F18A77"/>
<stop offset="1" stop-color="#F6B0A2"/>
</linearGradient>
<linearGradient id="paint4_linear_265_37" x1="264.346" y1="123.652" x2="271.097" y2="97.2627" gradientUnits="userSpaceOnUse">
<stop stop-color="#F7B9AD"/>
<stop offset="1" stop-color="#FAD4CC"/>
</linearGradient>
<linearGradient id="paint5_linear_265_37" x1="313.723" y1="161" x2="319.704" y2="146.329" gradientUnits="userSpaceOnUse">
<stop stop-color="#F7B9AD"/>
<stop offset="1" stop-color="#FAD4CC"/>
</linearGradient>
<linearGradient id="paint6_linear_265_37" x1="152.466" y1="369.799" x2="154.119" y2="365.155" gradientUnits="userSpaceOnUse">
<stop stop-color="#F7B9AD"/>
<stop offset="1" stop-color="#FAD4CC"/>
</linearGradient>
<linearGradient id="paint7_linear_265_37" x1="132.943" y1="374.268" x2="134.596" y2="369.624" gradientUnits="userSpaceOnUse">
<stop stop-color="#F7B9AD"/>
<stop offset="1" stop-color="#FAD4CC"/>
</linearGradient>
<linearGradient id="paint8_linear_265_37" x1="78.2728" y1="225.05" x2="75.4333" y2="210.688" gradientUnits="userSpaceOnUse">
<stop stop-color="#F18A77"/>
<stop offset="1" stop-color="#F6B0A2"/>
</linearGradient>
<linearGradient id="paint9_linear_265_37" x1="65.5051" y1="201.385" x2="71.6653" y2="170.628" gradientUnits="userSpaceOnUse">
<stop stop-color="#F7B9AD"/>
<stop offset="1" stop-color="#FAD4CC"/>
</linearGradient>
<linearGradient id="paint10_linear_265_37" x1="418.776" y1="221.154" x2="415.806" y2="202.141" gradientUnits="userSpaceOnUse">
<stop stop-color="#F18A77"/>
<stop offset="1" stop-color="#F6B0A2"/>
</linearGradient>
<linearGradient id="paint11_linear_265_37" x1="416.932" y1="191.589" x2="406.389" y2="168.136" gradientUnits="userSpaceOnUse">
<stop stop-color="#F7B9AD"/>
<stop offset="1" stop-color="#FAD4CC"/>
</linearGradient>
<linearGradient id="paint12_linear_265_37" x1="416.833" y1="256.71" x2="401.178" y2="258.831" gradientUnits="userSpaceOnUse">
<stop stop-color="#F7B9AD"/>
<stop offset="1" stop-color="#FAD4CC"/>
</linearGradient>
<linearGradient id="paint13_linear_265_37" x1="409.196" y1="334.009" x2="406.189" y2="328.585" gradientUnits="userSpaceOnUse">
<stop stop-color="#F7B9AD"/>
<stop offset="1" stop-color="#FAD4CC"/>
</linearGradient>
<linearGradient id="paint14_linear_265_37" x1="361.385" y1="345.695" x2="362.536" y2="338.524" gradientUnits="userSpaceOnUse">
<stop stop-color="#F7B9AD"/>
<stop offset="1" stop-color="#FAD4CC"/>
</linearGradient>
<linearGradient id="paint15_linear_265_37" x1="227.888" y1="380.737" x2="228.25" y2="376.048" gradientUnits="userSpaceOnUse">
<stop stop-color="#F7B9AD"/>
<stop offset="1" stop-color="#FAD4CC"/>
</linearGradient>
<linearGradient id="paint16_linear_265_37" x1="252.116" y1="382.039" x2="252.457" y2="377.619" gradientUnits="userSpaceOnUse">
<stop stop-color="#F7B9AD"/>
<stop offset="1" stop-color="#FAD4CC"/>
</linearGradient>
<linearGradient id="paint17_linear_265_37" x1="323.625" y1="245.851" x2="322.731" y2="237.908" gradientUnits="userSpaceOnUse">
<stop stop-color="#F18A77"/>
<stop offset="1" stop-color="#F6B0A2"/>
</linearGradient>
<linearGradient id="paint18_linear_265_37" x1="323.635" y1="232.459" x2="314.774" y2="205.8" gradientUnits="userSpaceOnUse">
<stop stop-color="#F7B9AD"/>
<stop offset="1" stop-color="#FAD4CC"/>
</linearGradient>
<linearGradient id="paint19_linear_265_37" x1="263.43" y1="283.204" x2="241.164" y2="281.708" gradientUnits="userSpaceOnUse">
<stop stop-color="#F7B9AD"/>
<stop offset="1" stop-color="#FAD4CC"/>
</linearGradient>
<linearGradient id="paint20_linear_265_37" x1="255.678" y1="287.091" x2="233.412" y2="285.595" gradientUnits="userSpaceOnUse">
<stop stop-color="#F7B9AD"/>
<stop offset="1" stop-color="#FAD4CC"/>
</linearGradient>
</defs>
</svg>
