<svg width="462" height="445" viewBox="0 0 462 445" fill="none" xmlns="http://www.w3.org/2000/svg">
<path fill-rule="evenodd" clip-rule="evenodd" d="M12.0735 357.85C-31.1018 151.668 46.7903 28.1937 161.927 8.3396C264.619 -9.36737 406.479 -9.11641 409.741 114.628C413.004 238.372 563.639 399.566 336.014 435.417C205.577 452.51 32.8664 457.13 12.0735 357.85Z" fill="#123853"/>
<path d="M212.115 231.327H208.548V245.321H212.115V231.327Z" fill="#8A6CAF"/>
<path fill-rule="evenodd" clip-rule="evenodd" d="M295.073 175.26C294.249 167.943 301.475 168.949 308.701 169.498C323.884 170.778 327.725 164.376 320.316 156.51C311.079 148.095 315.012 141.601 315.286 134.742C315.835 118.37 302.207 112.059 286.566 116.266C279.981 118.004 269.005 118.095 279.89 137.303C284.92 146.174 289.402 149.65 285.103 164.376C280.896 179.101 295.438 178.736 295.073 175.26Z" fill="#37254D"/>
<path fill-rule="evenodd" clip-rule="evenodd" d="M284.554 168.126L293.975 164.742L294.341 157.059L301.658 153.675L302.572 160.718L311.536 171.327L289.31 184.772L284.554 168.126Z" fill="url(#paint0_linear_325_3)"/>
<path fill-rule="evenodd" clip-rule="evenodd" d="M277.969 130.077C285.56 118.552 295.255 117.912 306.414 127.424C314.371 166.205 273.579 169.863 277.969 130.077Z" fill="url(#paint1_linear_325_3)"/>
<path fill-rule="evenodd" clip-rule="evenodd" d="M135.377 289.772L166.383 301.662C172.603 304.04 169.402 312.638 163.091 310.168L132.084 298.278C125.499 295.809 128.792 287.211 135.377 289.772Z" fill="#67498B"/>
<path fill-rule="evenodd" clip-rule="evenodd" d="M182.481 326.998L176.902 338.797C176.627 339.529 175.713 339.894 174.889 339.711L171.139 338.614L177.542 324.071L181.749 325.26C182.481 325.535 182.847 326.266 182.481 326.998ZM172.237 324.071C172.511 323.339 172.145 322.608 171.322 322.333C170.316 321.968 168.395 321.419 166.475 320.87L161.17 335.779C162.45 336.144 164.097 336.602 165.377 336.968C166.109 337.15 166.932 336.785 167.206 336.053L172.237 324.071ZM158.517 333.583C158.334 334.315 157.511 334.772 156.78 334.59L152.572 333.4C151.84 333.218 151.383 332.394 151.566 331.663L155.133 319.224C155.316 318.492 156.139 318.035 156.871 318.218L161.078 319.407C161.81 319.589 162.267 320.413 162.084 321.144L158.517 333.583ZM142.877 329.01C142.42 330.931 146.719 331.754 148.182 331.937L151.566 316.571C150.194 316.205 147.725 315.474 146.719 315.199C145.987 315.016 145.255 315.382 145.072 316.205L142.877 329.01ZM133.182 326.266L134.737 313.278C134.828 312.547 135.56 312.089 136.292 312.272L140.59 313.553L138.304 329.285C136.932 328.827 132.816 328.37 133.182 326.266ZM127.603 302.028L123.944 331.388C123.67 333.309 124.95 335.23 126.779 335.779L177.45 350.321C179.28 350.87 181.383 349.864 182.206 348.126C186.414 339.163 190.53 330.199 194.737 321.327L196.292 321.785C201.322 323.248 203.975 317.028 201.139 314.01C169.767 304.955 159.066 301.937 126.048 292.425C122.023 293.522 121.017 300.199 126.048 301.571L127.603 302.028Z" fill="#56A9BE"/>
<path fill-rule="evenodd" clip-rule="evenodd" d="M125.956 301.571C120.926 300.108 121.932 293.522 125.956 292.425C158.975 301.937 169.767 305.047 201.048 314.01C203.883 317.028 201.231 323.248 196.2 321.785L125.956 301.571Z" fill="#4998AC"/>
<path fill-rule="evenodd" clip-rule="evenodd" d="M124.127 323.98L157.237 326.907C163.822 327.456 163.182 336.602 156.414 335.962L123.304 333.035C116.353 332.486 117.084 323.431 124.127 323.98Z" fill="#67498B"/>
<path fill-rule="evenodd" clip-rule="evenodd" d="M179.737 346.754L177.633 359.65C177.542 360.382 176.81 361.022 175.987 361.022H172.054L174.158 345.291H178.548C179.28 345.291 179.828 345.931 179.737 346.754ZM169.036 346.754L167.572 359.65C167.481 360.382 166.841 361.022 166.017 361.022C164.737 361.022 162.999 361.022 161.627 361.022L162.542 345.291C164.554 345.199 166.475 345.199 167.572 345.382C168.487 345.291 169.127 345.931 169.036 346.754ZM158.517 359.65C158.517 360.382 157.877 361.022 157.145 361.022H152.755C151.932 361.022 151.383 360.382 151.383 359.65V346.754C151.383 346.022 152.023 345.382 152.755 345.382H157.145C157.877 345.382 158.517 346.022 158.517 346.754V359.65ZM142.237 359.65L140.773 346.754C140.682 346.022 141.322 345.382 142.054 345.382C143.06 345.382 145.712 345.382 147.084 345.382L148.09 361.114C146.719 361.205 142.328 361.663 142.237 359.65ZM132.084 359.65L129.981 346.754C129.889 346.022 130.438 345.382 131.17 345.382H135.651L137.755 361.114C136.383 361.022 132.359 361.754 132.084 359.65ZM120.011 337.974L124.584 367.242C124.859 369.163 126.597 370.626 128.517 370.626H181.292C183.213 370.626 184.95 369.071 185.225 367.242C186.78 357.455 188.334 347.76 189.798 337.974H191.444C196.658 337.974 197.572 331.297 194.005 329.102C161.353 329.102 150.194 329.102 115.804 329.102C112.237 331.297 113.151 337.974 118.365 337.974H120.011Z" fill="#5CB2C8"/>
<path fill-rule="evenodd" clip-rule="evenodd" d="M118.365 337.974C113.151 337.974 112.237 331.297 115.804 329.102C150.194 329.102 161.353 329.102 194.005 329.102C197.572 331.297 196.658 337.974 191.444 337.974H118.365Z" fill="#4CA1B7"/>
<path d="M412.512 357.364H201.231V371.541H412.512V357.364Z" fill="#67498B"/>
<path fill-rule="evenodd" clip-rule="evenodd" d="M417.634 359.285H195.743V251.724H436.384L417.634 359.285Z" fill="#8A6CAF"/>
<path fill-rule="evenodd" clip-rule="evenodd" d="M369.432 256.206C369.432 255.291 370.164 254.468 371.17 254.468C372.085 254.468 372.908 255.199 372.908 256.206V274.956C372.908 275.139 373.091 275.321 373.274 275.321H418.823C419.006 275.321 419.189 275.139 419.189 274.956V265.626C419.189 264.712 419.92 263.889 420.926 263.889C421.841 263.889 422.664 264.62 422.664 265.626V274.956C422.664 277.059 420.926 278.797 418.823 278.797H373.182C371.079 278.797 369.341 277.059 369.341 274.956V256.206H369.432Z" fill="#B79ED5"/>
<path fill-rule="evenodd" clip-rule="evenodd" d="M307.054 166.205C323.426 169.955 331.749 185.321 343.365 204.894C348.67 213.858 341.627 220.352 332.207 214.681C329.28 212.943 324.524 208.461 320.682 204.528C317.298 216.327 323.792 225.839 323.884 244.864H278.426C277.694 237.73 280.987 219.711 275.591 210.199C275.591 218.156 273.579 222.364 271.841 225.748C268.731 231.693 259.219 229.589 259.676 219.345C260.591 199.132 264.066 171.967 286.841 167.394C288.396 170.229 285.835 194.376 307.054 166.205Z" fill="#56A9BE"/>
<path fill-rule="evenodd" clip-rule="evenodd" d="M458.975 257.578H118.914C117.359 257.578 116.078 256.297 116.078 254.742V246.328C116.078 244.773 117.359 243.492 118.914 243.492H458.975C460.53 243.492 461.811 244.773 461.811 246.328V254.742C461.811 256.297 460.53 257.578 458.975 257.578Z" fill="#C5B0DF"/>
<path fill-rule="evenodd" clip-rule="evenodd" d="M270.926 343.187C268.457 343.187 266.536 341.175 266.536 338.797V275.687C266.536 273.218 268.548 271.297 270.926 271.297C273.396 271.297 275.316 273.309 275.316 275.687V338.797C275.408 341.175 273.396 343.187 270.926 343.187Z" fill="#67498B"/>
<path fill-rule="evenodd" clip-rule="evenodd" d="M270.56 327.73C272.481 327.73 274.036 329.285 274.036 331.206C274.036 333.126 272.481 334.681 270.56 334.681H209.371C194.28 334.681 181.841 322.334 181.841 307.151C181.841 292.059 194.188 279.62 209.371 279.62H270.56C272.481 279.62 274.036 281.175 274.036 283.096C274.036 285.016 272.481 286.571 270.56 286.571H209.371C198.03 286.571 188.792 295.809 188.792 307.151C188.792 318.492 198.03 327.73 209.371 327.73H270.56Z" fill="#B79ED5"/>
<path fill-rule="evenodd" clip-rule="evenodd" d="M55.6208 358.462L57.633 350.87L65.6818 352.059L63.9439 359.102C63.6696 359.102 56.3525 358.553 55.6208 358.462Z" fill="url(#paint2_linear_325_3)"/>
<path fill-rule="evenodd" clip-rule="evenodd" d="M78.1208 355.993L79.9501 348.858L87.5415 349.956L85.8952 356.541C85.7123 356.633 78.761 356.084 78.1208 355.993Z" fill="url(#paint3_linear_325_3)"/>
<path fill-rule="evenodd" clip-rule="evenodd" d="M55.9866 356.541C60.1939 358.553 63.9439 356.358 65.7732 357.09C70.072 360.84 71.3525 361.754 76.2915 362.395C81.322 363.035 84.4318 367.517 78.3037 367.425C66.7793 367.334 57.45 367.517 54.2488 366.602C52.6024 365.87 50.6817 358.462 55.9866 356.541Z" fill="#37254D"/>
<path fill-rule="evenodd" clip-rule="evenodd" d="M78.4867 354.163C82.4196 356.084 85.9867 353.98 87.7245 354.62C91.7489 358.187 92.9379 359.011 97.6026 359.651C102.267 360.2 105.285 364.407 99.5233 364.407C88.6391 364.316 79.8586 364.498 76.8403 363.675C75.194 363.035 73.3647 355.992 78.4867 354.163Z" fill="#37254D"/>
<path fill-rule="evenodd" clip-rule="evenodd" d="M77.1147 349.133C80.0416 350.962 87.4501 353.065 90.5599 350.687C98.1513 297.181 97.2367 280.26 100.164 239.285C95.5904 239.376 87.9989 239.102 78.3952 238.096C79.3098 264.895 83.7001 285.291 77.1147 349.133Z" fill="#56A9BE"/>
<path fill-rule="evenodd" clip-rule="evenodd" d="M53.6086 351.602C57.7244 353.248 64.2183 355.626 69.7062 353.888C78.3037 299.193 77.4806 284.742 80.7732 242.852C75.3769 242.943 66.5049 232.425 55.1634 231.327C56.261 258.858 61.0171 286.297 53.6086 351.602Z" fill="#4998AC"/>
<path fill-rule="evenodd" clip-rule="evenodd" d="M94.2184 176.266C94.8586 176.906 87.8159 170.413 86.3525 170.687C79.3098 172.059 71.3525 173.705 65.4988 177.821C53.2427 186.419 48.3037 185.138 53.2427 170.047C55.4378 163.278 50.4073 157.791 46.8402 152.12C38.2427 138.4 44.0963 121.937 59.4622 117.547C69.5232 114.62 88.822 116.358 87.9074 138.034C87.4501 147.73 87.2672 154.406 90.1025 157.882C99.066 169.132 86.7184 169.224 94.2184 176.266Z" fill="#37254D"/>
<path fill-rule="evenodd" clip-rule="evenodd" d="M63.8525 169.407L71.1696 181.114L78.1208 186.876L85.1635 176.907L84.1574 167.852L78.944 166.846L76.7488 160.443L69.3403 162.364L69.1574 168.035L63.8525 169.407Z" fill="url(#paint4_linear_325_3)"/>
<path fill-rule="evenodd" clip-rule="evenodd" d="M79.7671 132.73C69.3403 123.949 59.9195 125.321 52.0536 137.486C56.3524 178.004 96.2306 171.236 79.7671 132.73Z" fill="url(#paint5_linear_325_3)"/>
<path fill-rule="evenodd" clip-rule="evenodd" d="M83.6086 138.217C70.9867 130.077 58.5476 148.827 56.1695 136.114C54.1573 140.687 53.7 147.913 56.8098 155.687C53.2427 151.937 52.1452 149.376 51.0476 143.431C49.1269 131.906 53.6086 126.784 60.5598 124.406C75.8342 119.193 82.2367 126.967 83.6086 138.217Z" fill="#37254D"/>
<path fill-rule="evenodd" clip-rule="evenodd" d="M84.1574 167.76C100.895 176.357 109.035 188.156 115.255 213.034C117.725 223.004 108.395 227.394 104.188 222.089C101.627 218.979 99.2489 214.589 97.694 205.9C94.3099 217.79 100.164 219.803 100.164 239.284C90.8342 248.156 71.1696 247.79 60.8342 240.199C44.6451 215.321 43.639 221.723 46.5658 189.345C47.389 180.473 54.2488 170.412 66.5964 168.583C69.5232 174.345 73.5476 177.821 80.9562 183.126C81.0476 176.815 81.7793 171.693 84.1574 167.76Z" fill="#5983B1"/>
<path fill-rule="evenodd" clip-rule="evenodd" d="M69.1574 251.083C68.9744 253.461 71.9927 258.674 74.4623 261.052C77.1147 263.705 85.5294 265.808 82.694 259.772C82.1452 258.583 81.4135 257.485 80.2245 255.565C81.0476 256.113 82.2367 255.473 81.9623 254.284C81.6879 253.186 80.4989 250.991 79.6757 249.802C78.8525 248.705 78.3037 247.882 76.2001 246.967C74.6452 246.601 74.0964 243.491 72.9074 243.125C71.5354 242.76 68.5171 244.955 67.4196 246.327C66.8708 247.241 69.7976 249.071 69.1574 251.083Z" fill="url(#paint6_linear_325_3)"/>
<path fill-rule="evenodd" clip-rule="evenodd" d="M76.2915 243.766C74.1878 246.51 71.0781 248.156 67.511 249.254C63.1207 244.497 52.7854 228.949 49.0353 222.821C40.1634 208.552 51.139 203.613 59.2793 215.961C63.1207 221.906 71.9013 236.54 76.2915 243.766Z" fill="#5983B1"/>
<path fill-rule="evenodd" clip-rule="evenodd" d="M60.2854 192.181C61.4744 200.87 60.2854 206.906 59.5537 210.108C57.7244 218.065 63.6695 221.54 71.7183 239.467C64.95 225.748 55.4378 218.888 57.5415 209.467C58.2732 206.266 60.4683 200.87 60.2854 192.181Z" fill="#4B75A2"/>
<path fill-rule="evenodd" clip-rule="evenodd" d="M131.901 203.705L141.139 200.961H174.432L183.67 243.492L170.865 249.345L131.901 203.705Z" fill="#4998AC"/>
<path fill-rule="evenodd" clip-rule="evenodd" d="M170.865 249.437L183.67 243.583L174.432 200.961L166.932 203.705L170.865 249.437Z" fill="#418EA2"/>
<path fill-rule="evenodd" clip-rule="evenodd" d="M170.865 249.437L176.261 242.76L170.408 202.425L166.932 203.705L170.865 249.437Z" fill="#4998AC"/>
<path fill-rule="evenodd" clip-rule="evenodd" d="M150.743 217.79C144.889 215.778 142.145 208.187 144.615 200.87C147.176 193.553 153.944 189.254 159.889 191.266C165.743 193.278 168.487 200.87 166.017 208.187C163.456 215.504 156.597 219.803 150.743 217.79Z" fill="#715198"/>
<path fill-rule="evenodd" clip-rule="evenodd" d="M158.334 209.285L160.255 213.035L164.005 211.114L162.084 207.364L158.334 209.285ZM149.92 217.516C148.822 216.968 147.725 216.236 146.901 215.321L148.365 214.589L149.92 217.516ZM146.261 214.498C145.438 213.4 144.798 212.12 144.34 210.748L145.987 209.925L147.908 213.675L146.261 214.498ZM144.066 209.833C143.792 208.553 143.609 207.089 143.7 205.626L145.529 209.102L144.066 209.833ZM145.712 198.309L147.725 202.059L143.883 204.071C143.883 202.882 144.981 199.498 145.712 198.309ZM146.536 197.028C147.359 195.839 148.182 194.833 149.28 193.919L149.92 195.199L146.536 197.028ZM150.011 193.278C151.2 192.364 152.938 191.266 155.225 190.9L155.59 192.272L150.743 194.742L150.011 193.278ZM162.999 193.096C165.286 195.108 165.834 196.937 166.292 198.309L164.737 199.132L162.176 194.193L162.999 193.096ZM166.566 199.224C166.841 200.504 167.023 201.967 166.932 203.431L165.103 199.955L166.566 199.224ZM164.828 210.839L162.908 206.907L166.749 204.986C166.749 206.358 165.469 210.016 164.828 210.839ZM164.097 212.028C163.273 213.218 162.359 214.315 161.353 215.23L160.712 213.858L164.097 212.028ZM160.621 215.778C159.432 216.693 158.243 217.333 156.962 217.791L156.139 216.236L159.889 214.315L160.621 215.778ZM155.956 218.065C154.676 218.339 153.487 218.431 152.298 218.248L155.316 216.785L155.956 218.065ZM146.627 197.943L148.548 201.693L152.298 199.772L150.377 196.022L146.627 197.943ZM151.2 195.565L153.121 199.315L156.871 197.394L155.773 193.278L151.2 195.565ZM166.2 204.163L164.28 200.413L160.53 202.333L162.45 206.083L166.2 204.163ZM163.822 199.589L161.536 195.382L158.151 197.852L160.072 201.602L163.822 199.589ZM144.432 204.894L146.353 208.644L150.103 206.724L148.182 202.974L144.432 204.894ZM146.81 209.468L148.731 213.218L152.481 211.297L150.56 207.547L146.81 209.468ZM149.188 214.041L151.109 217.791L154.859 215.87L152.938 212.12L149.188 214.041ZM149.005 202.516L152.755 200.596L154.676 204.346L150.926 206.266L149.005 202.516ZM151.383 207.089L155.133 205.169L157.054 208.919L153.304 210.839L151.383 207.089ZM153.761 211.663L157.511 209.742L159.432 213.492L155.682 215.413L153.761 211.663ZM153.578 200.138L157.328 198.217L159.249 201.967L155.499 203.888L153.578 200.138ZM155.956 204.711L159.706 202.791L161.627 206.541L157.877 208.461L155.956 204.711Z" fill="#67498B"/>
<path fill-rule="evenodd" clip-rule="evenodd" d="M158.06 187.79C161.81 174.985 165.926 171.875 168.03 165.29C167.938 172.241 166.566 176.174 164.371 183.674L158.426 190.351L158.06 187.79Z" fill="#66BBD0"/>
<path fill-rule="evenodd" clip-rule="evenodd" d="M150.56 180.017C154.036 182.943 155.682 186.693 156.505 194.285C159.249 193.553 158.06 192.73 160.438 192.181C160.164 186.511 156.414 181.297 150.56 180.017Z" fill="#66BBD0"/>
<path fill-rule="evenodd" clip-rule="evenodd" d="M159.432 182.943C158.975 177.913 156.597 177.456 153.304 175.169C156.505 179.559 157.328 186.693 158.151 190.352C158.517 188.157 159.158 185.23 159.432 182.943Z" fill="#56A9BE"/>
<path fill-rule="evenodd" clip-rule="evenodd" d="M173.609 186.875C167.938 188.156 162.999 192.455 160.895 195.747C160.621 195.564 159.158 194.284 158.975 194.009C161.444 187.058 166.109 186.692 173.609 186.875Z" fill="#66BBD0"/>
<path fill-rule="evenodd" clip-rule="evenodd" d="M164.005 184.955C167.206 182.394 169.31 182.76 173.243 183.034C168.03 184.497 164.462 188.064 160.895 192.912C162.084 190.991 162.816 186.875 164.005 184.955Z" fill="#56A9BE"/>
<path fill-rule="evenodd" clip-rule="evenodd" d="M157.42 189.437C159.432 178.37 161.261 174.711 162.359 166.754C164.188 173.98 164.554 176.998 162.999 186.51L158.975 194.102L157.42 189.437Z" fill="#56A9BE"/>
<path fill-rule="evenodd" clip-rule="evenodd" d="M158.609 188.705C162.359 177.455 166.749 175.717 173.06 169.863C168.212 177.546 165.103 186.967 161.901 190.991L159.706 192.18L158.609 188.705Z" fill="#56A9BE"/>
<path fill-rule="evenodd" clip-rule="evenodd" d="M157.877 190.992C157.603 183.309 158.792 179.101 157.42 170.504C160.712 176.723 161.719 177.638 162.359 184.955L159.158 193.278L157.877 190.992Z" fill="#4998AC"/>
<path fill-rule="evenodd" clip-rule="evenodd" d="M157.511 189.345C163.822 179.924 168.212 178.643 174.158 177.546C170.225 179.284 165.377 184.497 159.981 195.29C159.798 195.198 159.615 194.65 159.432 194.558C159.615 190.991 156.962 190.991 157.511 189.345Z" fill="#4998AC"/>
<path fill-rule="evenodd" clip-rule="evenodd" d="M159.706 191.632C158.975 184.772 152.938 185.23 148.731 189.986C153.67 187.516 155.042 190.443 155.316 194.102C155.59 198.217 159.432 198.949 161.444 196.022C163.456 193.187 165.56 191.632 167.755 195.748C166.475 190.443 163.182 188.614 159.706 191.632Z" fill="#418EA2"/>
<path fill-rule="evenodd" clip-rule="evenodd" d="M131.901 249.437V203.705H166.932L170.865 249.437H131.901Z" fill="#56A9BE"/>
<path fill-rule="evenodd" clip-rule="evenodd" d="M145.164 205.991C145.53 201.418 145.255 192.272 151.841 192.18C157.511 192.089 157.328 201.967 157.511 205.808L156.505 205.9C156.322 202.699 156.505 193.095 151.841 193.186C146.261 193.278 146.444 202.15 146.17 206.083L145.164 205.991Z" fill="#4998AC"/>
<path fill-rule="evenodd" clip-rule="evenodd" d="M145.804 209.193C144.706 209.193 143.792 208.279 143.792 207.181C143.792 206.084 144.706 205.169 145.804 205.169C146.901 205.169 147.816 206.084 147.816 207.181C147.725 208.37 146.901 209.193 145.804 209.193Z" fill="#4998AC"/>
<path fill-rule="evenodd" clip-rule="evenodd" d="M157.145 209.193C156.048 209.193 155.133 208.279 155.133 207.181C155.133 206.084 156.048 205.169 157.145 205.169C158.243 205.169 159.158 206.084 159.158 207.181C159.066 208.37 158.243 209.193 157.145 209.193Z" fill="#4998AC"/>
<path fill-rule="evenodd" clip-rule="evenodd" d="M176.261 242.76L183.67 243.583L174.432 200.961L170.408 202.424L176.261 242.76Z" fill="#489DB2"/>
<path fill-rule="evenodd" clip-rule="evenodd" d="M136.292 200.138C137.389 198.126 142.511 195.565 145.804 195.016C149.371 194.376 157.145 197.028 151.658 200.321C150.56 200.961 149.462 201.51 147.542 202.333C148.456 202.333 149.097 203.522 148.273 204.254C147.542 204.985 145.347 206.083 144.066 206.632C142.877 207.089 141.962 207.455 139.859 206.998C138.395 206.54 136.383 208.644 135.194 208.278C133.914 207.821 132.633 204.528 132.542 202.79C132.45 201.876 135.743 201.967 136.292 200.138Z" fill="url(#paint7_linear_325_3)"/>
<path fill-rule="evenodd" clip-rule="evenodd" d="M134.645 199.406C136.932 202.059 138.304 205.443 139.036 209.284C133.822 212.303 120.56 220.168 115.072 222.729C102.176 228.949 97.8769 215.047 109.127 209.376C114.432 206.54 127.145 203.156 134.645 199.406Z" fill="#5983B1"/>
<path fill-rule="evenodd" clip-rule="evenodd" d="M380.865 207.18C381.323 204.894 381.78 203.247 383.975 202.241C384.707 201.875 385.53 202.881 384.89 203.156C382.786 204.071 382.054 205.168 381.506 207.363C381.323 207.546 380.957 207.455 380.865 207.18Z" fill="#67498B"/>
<path fill-rule="evenodd" clip-rule="evenodd" d="M369.615 219.162C371.993 221.998 377.115 223.004 380.5 222.821C384.158 222.638 390.652 216.967 384.524 215.138C383.335 214.772 382.054 214.589 379.951 214.223C380.865 213.949 381.14 212.76 380.134 212.119C379.219 211.571 376.841 211.022 375.469 210.93C374.189 210.839 373.182 210.656 371.262 211.571C369.981 212.394 367.42 210.839 366.414 211.479C365.225 212.211 364.859 215.778 365.225 217.424C365.317 218.339 368.518 217.424 369.615 219.162Z" fill="url(#paint8_linear_325_3)"/>
<path fill-rule="evenodd" clip-rule="evenodd" d="M380.499 206.083C378.853 205.351 376.475 205.351 374.92 206.174C369.432 209.101 372.817 221.083 378.121 220.168C378.762 220.9 380.042 221.083 380.957 220.534C385.256 223.278 392.573 212.851 387.999 208.095C386.719 206.814 384.432 205.991 382.512 206.174C381.689 206.449 381.231 206.357 380.499 206.083Z" fill="#F59D8D"/>
<path fill-rule="evenodd" clip-rule="evenodd" d="M382.054 204.711C382.329 203.247 383.152 200.595 376.018 200.138C377.481 201.51 377.481 207.089 382.054 204.711Z" fill="#56A9BE"/>
<path fill-rule="evenodd" clip-rule="evenodd" d="M370.073 209.467C370.439 212.943 369.615 216.51 368.06 220.077C362.024 219.619 344.28 217.699 338.243 216.693C324.066 214.406 328.457 200.595 340.896 202.241C346.932 203.065 361.749 208.369 370.073 209.467Z" fill="#56A9BE"/>
<path fill-rule="evenodd" clip-rule="evenodd" d="M328.182 216.236C329.371 216.876 329.646 217.425 329.829 218.157C330.194 219.895 328.274 223.279 326.627 223.462C324.615 223.645 323.335 223.37 321.048 222.639C317.938 227.761 317.207 228.767 314.188 233.889C311.536 238.004 306.414 235.078 308.975 231.053L318.304 216.236C320.499 212.578 325.347 214.681 328.182 216.236Z" fill="#67498B"/>
<path fill-rule="evenodd" clip-rule="evenodd" d="M304.402 222.638C308.243 220.625 311.81 219.619 315.926 222.18C319.036 224.101 320.865 225.199 317.755 230.229C314.646 235.26 313.091 229.955 310.53 229.223C307.969 228.491 302.938 228.217 299.371 229.223C298.457 228.217 299.005 224.741 299.737 223.095C300.103 222.363 303.03 224.01 304.402 222.638Z" fill="url(#paint9_linear_325_3)"/>
<path fill-rule="evenodd" clip-rule="evenodd" d="M301.749 232.607C302.938 229.314 303.03 225.656 302.481 221.814C296.536 220.717 276.597 217.973 270.469 217.424C256.2 216.052 256.932 230.595 269.463 232.058C275.499 232.79 293.426 231.601 301.749 232.607Z" fill="#56A9BE"/>
<path fill-rule="evenodd" clip-rule="evenodd" d="M278.243 132.73C288.487 125.412 291.048 132.455 294.707 142.699C297.268 140.87 300.286 144.345 298.091 148.278C300.56 152.303 301.566 159.437 300.926 161.998C296.17 175.443 320.957 177.364 326.993 169.041C332.207 161.906 313.091 153.949 308.426 142.973C306.505 130.809 309.249 135.016 307.146 129.254C302.938 118.187 301.292 114.711 291.78 115.351C282.176 115.992 276.231 119.193 273.121 122.577C267.816 128.522 273.396 136.205 278.243 132.73Z" fill="#37254D"/>
<path d="M259.95 190.443H256.383V203.431H259.95V190.443Z" fill="#67498B"/>
<path d="M268.182 184.405H248.243V192.637H268.182V184.405Z" fill="#C5B0DF"/>
<path d="M266.719 185.504H249.615V191.449H266.719V185.504Z" fill="#EDE2F9"/>
<path fill-rule="evenodd" clip-rule="evenodd" d="M261.505 200.778C263.243 200.778 264.981 200.778 266.719 200.778C268.914 200.778 270.469 202.791 270.469 205.077C270.469 209.742 270.469 214.406 270.469 219.071C270.469 220.443 270.926 222.181 271.749 223.278C274.127 226.571 276.414 229.864 278.792 233.156C280.621 235.809 280.438 237.272 280.438 239.01C280.438 241.297 281.993 242.394 281.993 244.772C272.664 244.772 263.335 244.772 254.097 244.772C257.389 229.864 258.213 215.595 261.505 200.778Z" fill="#67498B"/>
<path fill-rule="evenodd" clip-rule="evenodd" d="M262.511 244.682H227.024C225.011 244.682 223.274 243.035 223.274 240.931V204.438C223.274 202.425 224.92 200.688 227.024 200.688H262.511C264.524 200.688 266.261 202.334 266.261 204.438V240.931C266.261 243.035 264.524 244.682 262.511 244.682Z" fill="#8A6CAF"/>
<path fill-rule="evenodd" clip-rule="evenodd" d="M218.426 232.334H203.883C203.335 232.334 202.786 231.876 202.786 231.236V218.614C202.786 218.065 203.243 217.517 203.883 217.517H218.426C218.975 217.517 219.524 217.974 219.524 218.614V231.236C219.432 231.876 218.975 232.334 218.426 232.334Z" fill="#67498B"/>
<path d="M218.426 217.607H217.694V232.333H218.426V217.607Z" fill="#8A6CAF"/>
<path fill-rule="evenodd" clip-rule="evenodd" d="M218.426 232.517H203.883C203.517 232.517 203.243 232.425 203.06 232.151C202.877 231.968 202.694 231.602 202.694 231.328V218.706C202.694 218.34 202.877 218.065 203.06 217.882C203.243 217.7 203.609 217.517 203.883 217.517H218.426C218.792 217.517 219.066 217.7 219.249 217.882C219.432 218.065 219.615 218.431 219.615 218.706V231.328C219.615 231.693 219.432 231.968 219.249 232.151C219.066 232.425 218.7 232.517 218.426 232.517ZM203.883 232.242H218.426C218.7 232.242 218.883 232.151 219.066 231.968C219.249 231.785 219.341 231.602 219.341 231.328V218.706C219.341 218.431 219.249 218.248 219.066 218.065C218.883 217.882 218.7 217.791 218.426 217.791H203.883C203.609 217.791 203.426 217.882 203.243 218.065C203.06 218.248 202.969 218.431 202.969 218.706V231.328C202.969 231.602 203.06 231.785 203.243 231.968C203.334 232.151 203.609 232.242 203.883 232.242Z" fill="#8A6CAF"/>
<path fill-rule="evenodd" clip-rule="evenodd" d="M216.048 234.529H204.615C203.975 234.529 203.426 233.98 203.426 233.34V216.785C203.426 216.144 203.975 215.596 204.615 215.596H216.048C216.688 215.596 217.237 216.144 217.237 216.785V233.248C217.328 233.888 216.78 234.529 216.048 234.529Z" fill="#8A6CAF"/>
<path d="M214.95 215.504H205.804V216.053H214.95V215.504Z" fill="#67498B"/>
<path fill-rule="evenodd" clip-rule="evenodd" d="M206.353 222.821H214.493C214.767 222.821 215.042 222.547 215.042 222.272V217.699C215.042 217.425 214.767 217.15 214.493 217.15H206.353C206.078 217.15 205.804 217.425 205.804 217.699V222.272C205.804 222.638 205.987 222.821 206.353 222.821ZM207.816 224.925H205.895C205.804 224.925 205.713 224.833 205.713 224.742V223.644C205.713 223.553 205.804 223.461 205.895 223.461H207.816C207.908 223.461 207.999 223.553 207.999 223.644V224.742C207.999 224.833 207.908 224.925 207.816 224.925ZM214.767 224.925H212.847C212.755 224.925 212.664 224.833 212.664 224.742V223.644C212.664 223.553 212.755 223.461 212.847 223.461H214.767C214.859 223.461 214.95 223.553 214.95 223.644V224.742C214.95 224.833 214.859 224.925 214.767 224.925ZM211.292 224.925H209.371C209.28 224.925 209.188 224.833 209.188 224.742V223.644C209.188 223.553 209.28 223.461 209.371 223.461H211.292C211.383 223.461 211.475 223.553 211.475 223.644V224.742C211.475 224.833 211.383 224.925 211.292 224.925ZM207.816 227.12H205.895C205.804 227.12 205.713 227.028 205.713 226.937V225.931C205.713 225.839 205.804 225.748 205.895 225.748H207.816C207.908 225.748 207.999 225.839 207.999 225.931V227.028C207.999 227.028 207.908 227.12 207.816 227.12ZM214.767 227.12H212.847C212.755 227.12 212.664 227.028 212.664 226.937V225.931C212.664 225.839 212.755 225.748 212.847 225.748H214.767C214.859 225.748 214.95 225.839 214.95 225.931V227.028C214.95 227.028 214.859 227.12 214.767 227.12ZM211.292 227.12H209.371C209.28 227.12 209.188 227.028 209.188 226.937V225.931C209.188 225.839 209.28 225.748 209.371 225.748H211.292C211.383 225.748 211.475 225.839 211.475 225.931V227.028C211.475 227.028 211.383 227.12 211.292 227.12ZM207.816 229.315H205.895C205.804 229.315 205.713 229.224 205.713 229.132V228.035C205.713 227.943 205.804 227.852 205.895 227.852H207.816C207.908 227.852 207.999 227.943 207.999 228.035V229.132C207.999 229.224 207.908 229.315 207.816 229.315ZM214.767 229.315H212.847C212.755 229.315 212.664 229.224 212.664 229.132V228.035C212.664 227.943 212.755 227.852 212.847 227.852H214.767C214.859 227.852 214.95 227.943 214.95 228.035V229.132C214.95 229.224 214.859 229.315 214.767 229.315ZM211.292 229.315H209.371C209.28 229.315 209.188 229.224 209.188 229.132V228.035C209.188 227.943 209.28 227.852 209.371 227.852H211.292C211.383 227.852 211.475 227.943 211.475 228.035V229.132C211.475 229.224 211.383 229.315 211.292 229.315ZM207.816 231.51H205.895C205.804 231.51 205.713 231.419 205.713 231.327V230.23C205.713 230.138 205.804 230.047 205.895 230.047H207.816C207.908 230.047 207.999 230.138 207.999 230.23V231.327C207.999 231.419 207.908 231.51 207.816 231.51ZM214.767 231.51H212.847C212.755 231.51 212.664 231.419 212.664 231.327V230.23C212.664 230.138 212.755 230.047 212.847 230.047H214.767C214.859 230.047 214.95 230.138 214.95 230.23V231.327C214.95 231.419 214.859 231.51 214.767 231.51ZM211.292 231.51H209.371C209.28 231.51 209.188 231.419 209.188 231.327V230.23C209.188 230.138 209.28 230.047 209.371 230.047H211.292C211.383 230.047 211.475 230.138 211.475 230.23V231.327C211.475 231.419 211.383 231.51 211.292 231.51ZM207.816 233.431H205.895C205.804 233.431 205.713 233.339 205.713 233.248V232.425C205.713 232.333 205.804 232.242 205.895 232.242H207.816C207.908 232.242 207.999 232.333 207.999 232.425V233.248C207.999 233.339 207.908 233.431 207.816 233.431ZM214.767 233.431H212.847C212.755 233.431 212.664 233.339 212.664 233.248V232.425C212.664 232.333 212.755 232.242 212.847 232.242H214.767C214.859 232.242 214.95 232.333 214.95 232.425V233.248C214.95 233.339 214.859 233.431 214.767 233.431ZM211.292 233.431H209.371C209.28 233.431 209.188 233.339 209.188 233.248V232.425C209.188 232.333 209.28 232.242 209.371 232.242H211.292C211.383 232.242 211.475 232.333 211.475 232.425V233.248C211.475 233.339 211.383 233.431 211.292 233.431Z" fill="#67498B"/>
<path fill-rule="evenodd" clip-rule="evenodd" d="M206.353 222.638H214.493C214.767 222.638 215.042 222.363 215.042 222.089V217.516C215.042 217.241 214.767 216.967 214.493 216.967H206.353C206.078 216.967 205.804 217.241 205.804 217.516V222.089C205.804 222.455 205.987 222.638 206.353 222.638Z" fill="#EDE2F9"/>
<path fill-rule="evenodd" clip-rule="evenodd" d="M207.816 224.834H205.895C205.804 224.834 205.713 224.742 205.713 224.651V223.553C205.713 223.462 205.804 223.37 205.895 223.37H207.816C207.908 223.37 207.999 223.462 207.999 223.553V224.651C207.999 224.742 207.908 224.834 207.816 224.834ZM214.767 224.834H212.847C212.755 224.834 212.664 224.742 212.664 224.651V223.553C212.664 223.462 212.755 223.37 212.847 223.37H214.767C214.859 223.37 214.95 223.462 214.95 223.553V224.651C214.95 224.742 214.859 224.834 214.767 224.834ZM211.292 224.834H209.371C209.28 224.834 209.188 224.742 209.188 224.651V223.553C209.188 223.462 209.28 223.37 209.371 223.37H211.292C211.383 223.37 211.475 223.462 211.475 223.553V224.651C211.475 224.742 211.383 224.834 211.292 224.834ZM207.816 226.937H205.895C205.804 226.937 205.713 226.846 205.713 226.754V225.657C205.713 225.565 205.804 225.474 205.895 225.474H207.816C207.908 225.474 207.999 225.565 207.999 225.657V226.754C207.999 226.937 207.908 226.937 207.816 226.937ZM214.767 226.937H212.847C212.755 226.937 212.664 226.846 212.664 226.754V225.657C212.664 225.565 212.755 225.474 212.847 225.474H214.767C214.859 225.474 214.95 225.565 214.95 225.657V226.754C214.95 226.937 214.859 226.937 214.767 226.937ZM211.292 226.937H209.371C209.28 226.937 209.188 226.846 209.188 226.754V225.657C209.188 225.565 209.28 225.474 209.371 225.474H211.292C211.383 225.474 211.475 225.565 211.475 225.657V226.754C211.475 226.937 211.383 226.937 211.292 226.937ZM207.816 229.132H205.895C205.804 229.132 205.713 229.041 205.713 228.949V227.852C205.713 227.76 205.804 227.669 205.895 227.669H207.816C207.908 227.669 207.999 227.76 207.999 227.852V228.949C207.999 229.041 207.908 229.132 207.816 229.132ZM214.767 229.132H212.847C212.755 229.132 212.664 229.041 212.664 228.949V227.852C212.664 227.76 212.755 227.669 212.847 227.669H214.767C214.859 227.669 214.95 227.76 214.95 227.852V228.949C214.95 229.041 214.859 229.132 214.767 229.132ZM211.292 229.132H209.371C209.28 229.132 209.188 229.041 209.188 228.949V227.852C209.188 227.76 209.28 227.669 209.371 227.669H211.292C211.383 227.669 211.475 227.76 211.475 227.852V228.949C211.475 229.041 211.383 229.132 211.292 229.132ZM207.816 231.327H205.895C205.804 231.327 205.713 231.236 205.713 231.145V230.047C205.713 229.956 205.804 229.864 205.895 229.864H207.816C207.908 229.864 207.999 229.956 207.999 230.047V231.145C207.999 231.236 207.908 231.327 207.816 231.327ZM214.767 231.327H212.847C212.755 231.327 212.664 231.236 212.664 231.145V230.047C212.664 229.956 212.755 229.864 212.847 229.864H214.767C214.859 229.864 214.95 229.956 214.95 230.047V231.145C214.95 231.236 214.859 231.327 214.767 231.327ZM211.292 231.327H209.371C209.28 231.327 209.188 231.236 209.188 231.145V230.047C209.188 229.956 209.28 229.864 209.371 229.864H211.292C211.383 229.864 211.475 229.956 211.475 230.047V231.145C211.475 231.236 211.383 231.327 211.292 231.327Z" fill="#C5B0DF"/>
<path fill-rule="evenodd" clip-rule="evenodd" d="M211.292 233.248H209.371C209.28 233.248 209.188 233.156 209.188 233.065V232.333C209.188 232.242 209.28 232.15 209.371 232.15H211.292C211.383 232.15 211.475 232.242 211.475 232.333V233.156C211.475 233.248 211.383 233.248 211.292 233.248Z" fill="#67498B"/>
<path fill-rule="evenodd" clip-rule="evenodd" d="M214.767 233.248H212.847C212.755 233.248 212.664 233.156 212.664 233.065V232.333C212.664 232.242 212.755 232.15 212.847 232.15H214.767C214.859 232.15 214.95 232.242 214.95 232.333V233.156C214.95 233.248 214.859 233.248 214.767 233.248Z" fill="#56A9BE"/>
<path fill-rule="evenodd" clip-rule="evenodd" d="M207.816 233.248H205.895C205.804 233.248 205.713 233.156 205.713 233.065V232.333C205.713 232.242 205.804 232.15 205.895 232.15H207.816C207.908 232.15 207.999 232.242 207.999 232.333V233.156C207.999 233.248 207.908 233.248 207.816 233.248Z" fill="#F9C7BF"/>
<path fill-rule="evenodd" clip-rule="evenodd" d="M212.481 220.717H213.67V221.357H212.481V220.717ZM207.084 218.431H211.017V219.071H207.084V218.431ZM207.084 220.717H211.017V221.357H207.084V220.717ZM207.084 219.528H211.017V220.168H207.084V219.528ZM212.481 218.431H213.67V219.071H212.481V218.431ZM212.481 219.528H213.67V220.168H212.481V219.528Z" fill="#B79ED5"/>
<path fill-rule="evenodd" clip-rule="evenodd" d="M262.237 189.345H264.615V189.985H262.237V189.345ZM251.719 187.059H259.219V187.699H251.719V187.059ZM251.719 189.345H259.219V189.985H251.719V189.345ZM251.719 188.156H259.219V188.796H251.719V188.156ZM262.237 187.059H264.615V187.699H262.237V187.059ZM262.237 188.156H264.615V188.796H262.237V188.156Z" fill="#B79ED5"/>
<path fill-rule="evenodd" clip-rule="evenodd" d="M216.048 234.62H204.615C204.249 234.62 203.883 234.437 203.609 234.254C203.335 233.98 203.243 233.705 203.243 233.248V216.693C203.243 216.327 203.426 215.962 203.609 215.687C203.883 215.413 204.158 215.321 204.615 215.321H216.048C216.414 215.321 216.78 215.504 217.054 215.687C217.328 215.962 217.42 216.236 217.42 216.693V233.248C217.42 233.614 217.237 233.98 217.054 234.254C216.871 234.529 216.505 234.62 216.048 234.62ZM204.615 234.346H216.048C216.322 234.346 216.597 234.254 216.78 234.071C216.963 233.888 217.054 233.614 217.054 233.34V216.785C217.054 216.51 216.963 216.236 216.78 216.053C216.597 215.87 216.322 215.779 216.048 215.779H204.615C204.341 215.779 204.066 215.87 203.883 216.053C203.7 216.236 203.609 216.51 203.609 216.785V233.248C203.609 233.523 203.7 233.797 203.883 233.98C204.066 234.254 204.341 234.346 204.615 234.346Z" fill="#67498B"/>
<path fill-rule="evenodd" clip-rule="evenodd" d="M416.811 240.839C416.353 239.467 415.896 238.187 415.53 236.906H437.573C437.207 238.278 437.39 238.278 436.292 240.839C435.012 244.132 418 244.041 416.811 240.839ZM415.073 218.339C417.542 211.114 423.03 207.547 423.122 200.504C423.122 194.467 423.122 188.431 423.122 182.394C422.939 182.394 422.756 182.394 422.573 182.394C422.573 180.565 422.573 178.736 422.573 176.906C424.219 176.906 428.609 176.906 430.347 176.906C430.347 178.736 430.347 180.565 430.347 182.394C430.164 182.394 429.981 182.394 429.798 182.394C429.798 188.431 429.798 194.467 429.798 200.504C429.798 207.547 435.469 211.022 438.122 218.339H415.073Z" fill="#C5B0DF"/>
<path fill-rule="evenodd" clip-rule="evenodd" d="M423.122 190.351V182.394C422.939 182.394 422.756 182.394 422.573 182.394C422.573 180.565 422.573 178.736 422.573 176.906C424.219 176.906 428.609 176.906 430.347 176.906C430.347 178.736 430.347 180.565 430.347 182.394C430.164 182.394 429.981 182.394 429.798 182.394V190.351H423.122Z" fill="#67498B"/>
<path fill-rule="evenodd" clip-rule="evenodd" d="M415.53 236.907C413.061 228.309 413.518 222.639 415.073 218.34H438.122C439.676 222.73 440.134 228.401 437.664 236.907H415.53Z" fill="#EDE2F9"/>
<path fill-rule="evenodd" clip-rule="evenodd" d="M412.603 236.358C418.091 234.437 422.39 230.322 424.585 225.931C425.682 223.828 425.865 222.639 425.591 220.352C425.317 217.791 423.67 217.242 421.932 219.437C419.006 223.279 417.359 225.108 414.25 227.029C408.762 230.413 403.365 231.053 399.25 228.218C401.902 233.157 407.39 235.627 412.603 236.358Z" fill="#FACDC5"/>
<path fill-rule="evenodd" clip-rule="evenodd" d="M394.585 220.809C394.585 221.815 394.585 222.547 394.402 223.919C389.189 235.992 400.164 242.943 408.762 244.681C418.274 246.602 431.353 244.315 435.744 234.803C437.298 231.419 435.561 229.407 431.811 231.053C425.317 233.705 421.841 234.894 416.536 235.077C409.951 235.352 401.262 232.699 398.609 225.382C398.426 224.925 398.061 224.376 397.878 223.919C397.512 222.73 397.512 221.632 397.512 220.443C397.512 217.242 399.798 218.157 396.048 215.23C394.768 214.224 393.487 213.949 392.664 216.693C391.932 219.711 394.493 218.339 394.585 220.809Z" fill="#F59D8D"/>
<path fill-rule="evenodd" clip-rule="evenodd" d="M374.554 243.218C372.176 243.126 372.085 240.657 373.823 239.651C375.012 231.693 387.268 229.224 391.567 236.084C393.762 236.084 394.585 238.827 392.298 239.559C391.384 247.242 378.579 250.077 374.554 243.218Z" fill="#FACDC5"/>
<path fill-rule="evenodd" clip-rule="evenodd" d="M426.323 248.065C425.317 246.693 424.311 245.229 423.305 243.857C428.244 240.107 428.792 239.376 432.359 234.345C427.878 231.784 426.872 226.388 431.445 223.644C428.884 216.967 436.018 210.565 441.506 217.882C447.451 216.235 451.201 221.083 450.103 226.296C453.945 227.211 456.872 232.059 452.847 235.26C457.695 240.199 457.512 245.687 449.097 246.053C447.634 256.022 436.933 251.54 438.305 243.766C431.353 243.766 432.634 243.492 426.323 248.065ZM437.847 235.809C433.914 236.815 434.829 236.906 433 240.748C437.298 240.199 436.201 240.107 437.847 235.809ZM437.207 240.931C438.305 241.114 439.402 241.296 440.591 241.388C439.128 238.553 438.853 238.827 437.207 240.931Z" fill="#56A9BE"/>
<path fill-rule="evenodd" clip-rule="evenodd" d="M363.121 231.875C363.121 231.784 363.121 231.692 363.03 231.692C362.939 231.692 362.847 231.692 362.847 231.784C362.573 232.241 362.298 232.79 361.841 233.156C361.475 233.43 361.018 233.705 360.56 233.796C360.469 233.796 360.469 233.888 360.469 233.979C360.469 234.07 360.56 234.07 360.652 234.07C361.201 233.979 361.658 233.705 362.024 233.43C362.481 232.881 362.847 232.424 363.121 231.875Z" fill="#785E41"/>
<path fill-rule="evenodd" clip-rule="evenodd" d="M362.847 231.876C362.847 232.974 364.219 233.888 365.957 233.248C365.317 233.065 365.957 232.516 365.591 232.242C366.414 232.151 367.054 231.693 367.146 230.413C366.597 230.962 366.414 230.321 365.957 230.413C367.237 228.949 365.774 228.401 366.048 226.571C364.585 227.669 363.396 226.754 362.756 228.492C362.573 228.126 362.024 228.218 362.207 227.486C361.109 228.126 361.109 228.949 361.384 229.681C360.926 229.498 360.743 230.23 360.286 229.864C360.377 231.693 361.932 232.425 362.847 231.876Z" fill="#56A9BE"/>
<path fill-rule="evenodd" clip-rule="evenodd" d="M357.725 239.193C359.188 238.553 359.737 236.815 359.097 235.443C358.457 233.979 356.719 233.431 355.347 234.071C353.884 234.711 353.335 236.449 353.975 237.821C354.615 239.193 356.262 239.833 357.725 239.193Z" fill="#8A6CAF"/>
<path fill-rule="evenodd" clip-rule="evenodd" d="M357.999 235.901C358.182 236.266 358.64 235.992 358.548 235.626C358.091 234.62 356.81 234.163 355.804 234.62C355.439 234.803 355.713 235.26 356.079 235.169C356.719 234.803 357.634 235.169 357.999 235.901Z" fill="#786875"/>
<path fill-rule="evenodd" clip-rule="evenodd" d="M361.841 235.168C362.938 234.619 363.396 233.339 362.938 232.241C362.39 231.144 361.109 230.686 360.012 231.144C358.914 231.693 358.457 232.973 358.914 234.071C359.463 235.168 360.743 235.626 361.841 235.168Z" fill="#67498B"/>
<path fill-rule="evenodd" clip-rule="evenodd" d="M365.408 234.894C366.323 234.437 366.78 233.339 366.323 232.333C365.865 231.419 364.768 230.961 363.762 231.419C362.847 231.876 362.39 232.974 362.847 233.98C363.304 234.894 364.402 235.26 365.408 234.894Z" fill="#5C3F80"/>
<path fill-rule="evenodd" clip-rule="evenodd" d="M367.786 237.455C368.701 236.998 369.158 235.9 368.701 234.894C368.243 233.979 367.146 233.522 366.14 233.979C365.225 234.437 364.768 235.534 365.225 236.54C365.682 237.546 366.871 237.912 367.786 237.455Z" fill="#5C3F80"/>
<path fill-rule="evenodd" clip-rule="evenodd" d="M367.969 235.443C368.884 235.077 369.249 233.98 368.884 233.156C368.518 232.242 367.42 231.876 366.597 232.242C365.682 232.608 365.317 233.705 365.682 234.528C365.957 235.443 367.054 235.9 367.969 235.443Z" fill="#8A6CAF"/>
<path fill-rule="evenodd" clip-rule="evenodd" d="M370.164 237.272C371.079 236.906 371.445 235.809 371.079 234.985C370.713 234.071 369.615 233.705 368.792 234.071C367.878 234.437 367.512 235.534 367.969 236.357C368.243 237.272 369.341 237.729 370.164 237.272Z" fill="#67498B"/>
<path fill-rule="evenodd" clip-rule="evenodd" d="M364.402 238.004C365.5 237.455 365.957 236.175 365.5 235.077C364.951 233.98 363.67 233.522 362.573 233.98C361.475 234.529 361.018 235.809 361.475 236.907C361.932 238.004 363.304 238.461 364.402 238.004Z" fill="#8A6CAF"/>
<path fill-rule="evenodd" clip-rule="evenodd" d="M349.493 236.449C349.402 236.357 349.493 236.174 349.585 236.083C349.676 235.991 349.859 236.083 349.951 236.174C351.414 238.461 354.067 240.199 356.81 240.29C356.993 240.29 357.085 240.473 357.085 240.565C357.085 240.747 356.902 240.839 356.81 240.839C353.884 240.747 351.048 238.918 349.493 236.449Z" fill="#785E41"/>
<path fill-rule="evenodd" clip-rule="evenodd" d="M350.408 235.443C350.865 237.363 348.579 239.741 345.195 239.193C346.292 238.644 345.012 237.821 345.56 237.089C344.006 237.18 342.542 236.54 341.993 234.254C343.274 235.077 343.365 233.888 344.188 233.796C341.262 231.601 343.64 229.955 342.634 226.662C345.743 228.126 347.756 225.93 349.493 229.132C349.676 228.308 350.865 228.4 350.225 227.028C352.42 227.851 352.969 229.406 352.603 230.869C353.426 230.412 353.975 231.693 354.707 230.778C354.89 234.162 352.237 236.174 350.408 235.443Z" fill="#56A9BE"/>
<path fill-rule="evenodd" clip-rule="evenodd" d="M360.926 239.193C362.207 238.644 362.756 237.089 362.207 235.809C361.658 234.528 360.103 233.98 358.823 234.528C357.542 235.077 356.993 236.632 357.542 237.912C358.091 239.193 359.646 239.742 360.926 239.193Z" fill="#5C3F80"/>
<path fill-rule="evenodd" clip-rule="evenodd" d="M358.548 235.534C359.829 234.985 360.378 233.43 359.829 232.15C359.28 230.869 357.725 230.32 356.445 230.869C355.164 231.418 354.615 232.973 355.164 234.253C355.713 235.534 357.268 236.174 358.548 235.534Z" fill="#8A6CAF"/>
<path fill-rule="evenodd" clip-rule="evenodd" d="M358.823 243.126C360.286 242.486 360.835 240.748 360.195 239.376C359.554 237.913 357.817 237.364 356.445 238.004C354.981 238.645 354.432 240.382 355.073 241.754C355.713 243.126 357.359 243.767 358.823 243.126Z" fill="#5C3F80"/>
<path fill-rule="evenodd" clip-rule="evenodd" d="M354.341 237.821C356.079 237.09 356.81 235.077 355.987 233.34C355.256 231.602 353.243 230.87 351.506 231.693C349.768 232.425 349.036 234.437 349.859 236.175C350.682 237.821 352.603 238.645 354.341 237.821Z" fill="#5C3F80"/>
<path fill-rule="evenodd" clip-rule="evenodd" d="M365.225 245.413C366.506 244.864 367.054 243.309 366.506 242.029C365.957 240.748 364.402 240.199 363.121 240.748C361.841 241.297 361.292 242.852 361.841 244.132C362.481 245.413 363.945 245.961 365.225 245.413Z" fill="#8A6CAF"/>
<path fill-rule="evenodd" clip-rule="evenodd" d="M353.152 244.041C355.256 243.034 356.17 240.565 355.256 238.461C354.249 236.358 351.78 235.443 349.676 236.358C347.573 237.364 346.658 239.833 347.573 241.937C348.579 244.041 351.048 244.955 353.152 244.041Z" fill="#67498B"/>
<path fill-rule="evenodd" clip-rule="evenodd" d="M357.268 248.522C359.006 247.79 359.737 245.778 358.914 244.04C358.182 242.302 356.17 241.57 354.432 242.393C352.695 243.125 351.963 245.137 352.786 246.875C353.518 248.613 355.53 249.345 357.268 248.522Z" fill="#8A6CAF"/>
<path fill-rule="evenodd" clip-rule="evenodd" d="M360.378 239.834C361.567 238.371 360.652 235.444 357.634 234.529C358.274 235.444 356.902 235.535 357.085 236.45C355.896 235.718 354.341 235.627 352.969 237.365C354.341 237.273 353.884 238.279 354.615 238.645C351.231 239.194 352.603 241.663 350.317 243.95C353.518 244.042 354.249 246.694 357.085 244.865C356.902 245.596 357.908 246.054 356.81 246.877C359.006 247.151 360.103 246.054 360.469 244.682C360.926 245.413 362.024 244.59 362.207 245.688C363.579 242.852 362.207 240.109 360.378 239.834Z" fill="#56A9BE"/>
<path fill-rule="evenodd" clip-rule="evenodd" d="M368.061 243.583C369.158 243.034 369.615 241.754 369.158 240.656C368.609 239.559 367.329 239.102 366.231 239.559C365.134 240.108 364.676 241.388 365.134 242.486C365.682 243.583 366.963 244.132 368.061 243.583Z" fill="#5C3F80"/>
<path fill-rule="evenodd" clip-rule="evenodd" d="M377.664 243.766C378.396 243.4 378.762 242.486 378.396 241.754C378.03 241.022 377.115 240.657 376.384 241.022C375.652 241.388 375.286 242.303 375.652 243.035C376.018 243.766 376.841 244.041 377.664 243.766Z" fill="#67498B"/>
<path fill-rule="evenodd" clip-rule="evenodd" d="M362.39 246.236C363.853 245.596 364.402 243.858 363.762 242.486C363.121 241.022 361.384 240.474 360.012 241.114C358.548 241.754 357.999 243.492 358.64 244.864C359.28 246.236 361.018 246.876 362.39 246.236Z" fill="#67498B"/>
<path fill-rule="evenodd" clip-rule="evenodd" d="M372.085 239.01C373 238.644 373.365 237.546 372.908 236.723C372.542 235.809 371.445 235.443 370.621 235.9C369.798 236.357 369.341 237.363 369.798 238.187C370.164 239.101 371.262 239.467 372.085 239.01Z" fill="#5C3F80"/>
<path fill-rule="evenodd" clip-rule="evenodd" d="M374.097 242.486C374.829 242.12 375.195 241.206 374.829 240.474C374.463 239.742 373.548 239.376 372.817 239.742C372.085 240.108 371.719 241.023 372.085 241.754C372.451 242.486 373.365 242.852 374.097 242.486Z" fill="#5C3F80"/>
<path fill-rule="evenodd" clip-rule="evenodd" d="M374.371 239.651C375.195 239.285 375.469 238.37 375.103 237.547C374.737 236.724 373.823 236.449 372.999 236.815C372.176 237.181 371.902 238.096 372.268 238.919C372.634 239.651 373.548 240.016 374.371 239.651Z" fill="#8A6CAF"/>
<path fill-rule="evenodd" clip-rule="evenodd" d="M378.853 245.321C379.402 245.046 379.676 244.406 379.402 243.766C379.128 243.217 378.487 242.943 377.847 243.217C377.298 243.491 377.024 244.132 377.298 244.772C377.573 245.321 378.304 245.595 378.853 245.321Z" fill="#8A6CAF"/>
<path fill-rule="evenodd" clip-rule="evenodd" d="M375.378 243.766C376.109 243.4 376.384 242.577 376.109 241.845C375.743 241.113 374.92 240.839 374.189 241.113C373.457 241.479 373.182 242.302 373.457 243.034C373.823 243.766 374.646 244.131 375.378 243.766Z" fill="#8A6CAF"/>
<path fill-rule="evenodd" clip-rule="evenodd" d="M376.749 245.687C377.481 245.412 377.756 244.498 377.481 243.858C377.207 243.126 376.292 242.851 375.652 243.126C374.92 243.4 374.646 244.315 374.92 244.955C375.195 245.687 376.018 246.053 376.749 245.687Z" fill="#67498B"/>
<path fill-rule="evenodd" clip-rule="evenodd" d="M369.615 239.376C370.53 238.918 370.987 237.821 370.53 236.815C370.073 235.9 368.975 235.443 367.969 235.9C367.054 236.357 366.597 237.455 367.054 238.461C367.512 239.376 368.609 239.833 369.615 239.376Z" fill="#8A6CAF"/>
<path fill-rule="evenodd" clip-rule="evenodd" d="M372.725 241.388C373.64 241.022 374.006 239.925 373.64 239.01C373.274 238.095 372.176 237.729 371.262 238.095C370.347 238.461 369.981 239.559 370.347 240.473C370.713 241.479 371.81 241.845 372.725 241.388Z" fill="#67498B"/>
<path fill-rule="evenodd" clip-rule="evenodd" d="M375.926 241.937C376.75 241.571 377.115 240.565 376.749 239.651C376.384 238.827 375.378 238.462 374.463 238.827C373.64 239.193 373.274 240.199 373.64 241.114C374.006 241.937 375.012 242.303 375.926 241.937Z" fill="#5C3F80"/>
<path fill-rule="evenodd" clip-rule="evenodd" d="M370.164 242.211C371.079 241.753 371.536 240.656 371.079 239.65C370.621 238.735 369.524 238.278 368.518 238.735C367.603 239.192 367.146 240.29 367.603 241.296C368.06 242.302 369.249 242.668 370.164 242.211Z" fill="#8A6CAF"/>
<path fill-rule="evenodd" clip-rule="evenodd" d="M374.097 245.687C375.012 245.321 375.377 244.223 375.012 243.309C374.646 242.394 373.548 242.028 372.634 242.394C371.719 242.76 371.353 243.858 371.719 244.772C372.085 245.687 373.182 246.053 374.097 245.687Z" fill="#8A6CAF"/>
<path fill-rule="evenodd" clip-rule="evenodd" d="M371.81 244.498C372.725 244.132 373.091 243.035 372.634 242.211C372.268 241.297 371.17 240.931 370.347 241.388C369.432 241.754 369.067 242.852 369.524 243.675C369.89 244.59 370.896 244.955 371.81 244.498Z" fill="#5C3F80"/>
<path fill-rule="evenodd" clip-rule="evenodd" d="M369.432 245.138C370.347 244.681 370.804 243.584 370.347 242.577C369.89 241.663 368.792 241.205 367.786 241.663C366.871 242.12 366.414 243.218 366.871 244.224C367.42 245.138 368.518 245.596 369.432 245.138Z" fill="#8A6CAF"/>
<path fill-rule="evenodd" clip-rule="evenodd" d="M366.963 240.84C368.06 240.291 368.518 239.011 368.06 237.913C367.512 236.816 366.231 236.358 365.134 236.816C364.036 237.364 363.579 238.645 364.036 239.743C364.585 240.84 365.865 241.297 366.963 240.84Z" fill="#5C3F80"/>
<path fill-rule="evenodd" clip-rule="evenodd" d="M366.231 246.144C367.42 245.595 367.878 244.223 367.329 243.126C366.78 241.937 365.408 241.479 364.31 242.028C363.121 242.577 362.664 243.949 363.213 245.047C363.762 246.144 365.134 246.693 366.231 246.144Z" fill="#5C3F80"/>
<path fill-rule="evenodd" clip-rule="evenodd" d="M363.487 241.937C364.768 241.388 365.317 239.833 364.768 238.553C364.219 237.272 362.664 236.724 361.384 237.272C360.103 237.821 359.554 239.376 360.103 240.657C360.743 241.937 362.298 242.486 363.487 241.937Z" fill="#8A6CAF"/>
<path fill-rule="evenodd" clip-rule="evenodd" d="M442.42 230.596C446.902 228.401 448.091 229.681 449.28 233.705C446.902 231.053 446.079 230.687 442.42 230.596ZM431.262 226.388C435.744 223.919 436.567 224.925 437.939 228.949C435.286 226.48 434.92 225.931 431.262 226.388ZM433.274 218.431C437.664 215.87 438.853 216.693 440.683 220.535C437.847 218.157 436.841 217.791 433.274 218.431ZM441.048 222.09C445.164 219.346 446.628 220.352 448.457 224.193C445.713 221.815 444.798 221.358 441.048 222.09Z" fill="#4998AC"/>
<path fill-rule="evenodd" clip-rule="evenodd" d="M378.304 330.839C377.024 330.839 375.926 329.742 375.926 328.461V275.687C375.926 274.406 377.024 273.309 378.304 273.309H379.676C381.506 273.309 382.329 274.132 382.329 275.687V284.833C382.329 285.748 383.06 286.388 383.884 286.388H408.213C409.128 286.388 409.768 285.656 409.768 284.833V275.687C409.768 274.132 410.591 273.309 412.42 273.309H413.792C415.073 273.309 416.17 274.406 416.17 275.687V328.461C416.17 329.742 415.073 330.839 413.792 330.839H378.304Z" fill="#EDE2F9"/>
<path fill-rule="evenodd" clip-rule="evenodd" d="M210.011 202.241C209.188 202.241 208.456 201.875 207.908 201.327C207.359 200.778 206.993 200.046 206.993 199.223C206.993 198.4 207.359 197.668 207.908 197.119C208.456 196.571 209.188 196.205 210.011 196.205C210.834 196.205 211.566 196.571 212.115 197.119C212.664 197.668 213.03 198.4 213.03 199.223C213.03 200.046 212.664 200.778 212.115 201.327C211.566 201.967 210.834 202.241 210.011 202.241ZM197.572 184.589C196.932 185.321 195.834 185.321 195.103 184.68C194.371 184.04 194.371 182.942 195.011 182.211C196.749 180.381 199.036 178.827 201.597 177.821C204.066 176.814 206.993 176.266 209.92 176.266C212.938 176.266 215.865 176.814 218.426 177.821C221.078 178.918 223.365 180.473 225.103 182.302C225.743 183.034 225.652 184.131 225.011 184.772C224.28 185.412 223.182 185.321 222.542 184.68C221.17 183.217 219.341 181.936 217.237 181.113C215.133 180.29 212.664 179.741 210.103 179.741C207.542 179.741 205.164 180.199 203.06 181.022C200.773 181.936 198.944 183.125 197.572 184.589ZM201.962 189.711C202.786 188.705 203.975 187.882 205.347 187.333C206.719 186.784 208.273 186.418 209.92 186.418C211.566 186.418 213.213 186.784 214.584 187.333H214.676C216.048 187.882 217.145 188.705 218.06 189.711C218.7 190.442 219.798 190.534 220.53 189.894C221.261 189.253 221.353 188.156 220.713 187.424C219.523 186.052 217.969 184.863 216.048 184.04L215.956 183.949C214.127 183.217 212.115 182.76 210.011 182.76C207.908 182.76 205.895 183.217 204.066 183.949C202.145 184.772 200.591 185.869 199.402 187.241C198.761 187.973 198.853 189.071 199.584 189.711C200.225 190.534 201.322 190.442 201.962 189.711ZM206.536 194.833C205.987 195.564 204.889 195.747 204.066 195.199C203.334 194.65 203.152 193.461 203.7 192.729C204.432 191.814 205.347 190.991 206.444 190.442C207.542 189.985 208.731 189.619 209.92 189.619C211.2 189.619 212.389 189.894 213.487 190.442C214.584 190.991 215.591 191.814 216.322 192.729C216.871 193.552 216.78 194.65 215.956 195.199C215.225 195.747 214.036 195.656 213.487 194.833C213.121 194.284 212.572 193.918 212.023 193.644C211.383 193.369 210.743 193.186 210.011 193.186C209.28 193.186 208.548 193.369 207.999 193.644C207.359 193.918 206.902 194.284 206.536 194.833Z" fill="#B79ED5"/>
<defs>
<linearGradient id="paint0_linear_325_3" x1="298.762" y1="173.594" x2="296.255" y2="159.974" gradientUnits="userSpaceOnUse">
<stop stop-color="#F18A77"/>
<stop offset="1" stop-color="#F6B0A2"/>
</linearGradient>
<linearGradient id="paint1_linear_325_3" x1="298.625" y1="150.186" x2="289.006" y2="128.789" gradientUnits="userSpaceOnUse">
<stop stop-color="#F7B9AD"/>
<stop offset="1" stop-color="#FAD4CC"/>
</linearGradient>
<linearGradient id="paint2_linear_325_3" x1="60.4329" y1="357.263" x2="60.8704" y2="353.114" gradientUnits="userSpaceOnUse">
<stop stop-color="#F7B9AD"/>
<stop offset="1" stop-color="#FAD4CC"/>
</linearGradient>
<linearGradient id="paint3_linear_325_3" x1="82.5946" y1="354.871" x2="83.0071" y2="350.959" gradientUnits="userSpaceOnUse">
<stop stop-color="#F7B9AD"/>
<stop offset="1" stop-color="#FAD4CC"/>
</linearGradient>
<linearGradient id="paint4_linear_325_3" x1="77.98" y1="184.112" x2="73.9439" y2="168.366" gradientUnits="userSpaceOnUse">
<stop stop-color="#F18A77"/>
<stop offset="1" stop-color="#F6B0A2"/>
</linearGradient>
<linearGradient id="paint5_linear_325_3" x1="72.5517" y1="160.858" x2="66.3567" y2="136.644" gradientUnits="userSpaceOnUse">
<stop stop-color="#F7B9AD"/>
<stop offset="1" stop-color="#FAD4CC"/>
</linearGradient>
<linearGradient id="paint6_linear_325_3" x1="69.373" y1="245.818" x2="78.6986" y2="257.666" gradientUnits="userSpaceOnUse">
<stop stop-color="#F7B9AD"/>
<stop offset="1" stop-color="#FAD4CC"/>
</linearGradient>
<linearGradient id="paint7_linear_325_3" x1="133.055" y1="204.612" x2="147.055" y2="200.019" gradientUnits="userSpaceOnUse">
<stop stop-color="#F7B9AD"/>
<stop offset="1" stop-color="#FAD4CC"/>
</linearGradient>
<linearGradient id="paint8_linear_325_3" x1="364.052" y1="216.28" x2="380.363" y2="216.95" gradientUnits="userSpaceOnUse">
<stop stop-color="#F7B9AD"/>
<stop offset="1" stop-color="#FAD4CC"/>
</linearGradient>
<linearGradient id="paint9_linear_325_3" x1="299.543" y1="223.489" x2="313.107" y2="226.737" gradientUnits="userSpaceOnUse">
<stop stop-color="#F7B9AD"/>
<stop offset="1" stop-color="#FAD4CC"/>
</linearGradient>
</defs>
</svg>
