<svg width="28" height="28" viewBox="0 0 28 28" fill="none" xmlns="http://www.w3.org/2000/svg">
<path fill-rule="evenodd" clip-rule="evenodd" d="M26.2501 12.2516H27.1251C27.6086 12.2516 28.0001 12.6421 28.0001 13.1275V18.3739C28.0001 18.8573 27.6086 19.2507 27.1251 19.2507H26.2501V26.2494C26.2501 27.2162 25.4674 28.001 24.5001 28.001H1.75012C0.782834 28.001 6.10352e-05 27.2162 6.10352e-05 26.2494V3.5007C0.000979783 1.56769 1.56729 0.00119464 3.50009 0.00119464H22.7501V0C24.6829 0.00177656 26.2501 1.56769 26.2501 3.5007V12.2516ZM22.7501 1.75034H3.50009C2.53369 1.75034 1.75104 2.53406 1.75012 3.5007H24.5001C24.5001 2.53406 23.7157 1.75404 22.7501 1.74988V1.75034ZM23.6251 26.2494C24.1087 26.2494 24.5001 25.8589 24.5001 25.3773V19.2507H17.5001C17.0165 19.2507 16.6251 18.8573 16.6251 18.3739V13.1275C16.6251 12.6421 17.0165 12.2516 17.5001 12.2516H24.5001V6.12695C24.5001 5.64249 24.1087 5.25046 23.6251 5.25046H2.62511C2.14148 5.25046 1.75012 5.64249 1.75012 6.12695V25.3773C1.75012 25.8589 2.14148 26.2494 2.62511 26.2494H23.6251ZM18.3751 17.5003H26.2501V14.0014H18.3751V17.5003ZM21.0001 15.7512C21.0001 16.2339 20.6087 16.6233 20.1251 16.6233C19.6414 16.6233 19.2501 16.2339 19.2501 15.7512C19.2501 15.2661 19.6414 14.8746 20.1251 14.8746C20.6087 14.8746 21.0001 15.2661 21.0001 15.7512Z" fill="white"/>
</svg>
