<svg width="27" height="27" viewBox="0 0 27 27" fill="none" xmlns="http://www.w3.org/2000/svg">
<path fill-rule="evenodd" clip-rule="evenodd" d="M20.2499 10.1243C20.2499 11.6101 19.9222 13.0164 19.3487 14.2878L27 21.9387V26.9988H21.9374V23.6237H18.5625V20.2496H15.1876L14.2861 19.3489C13.0156 19.9218 11.6098 20.2496 10.125 20.2496C4.53364 20.2496 0 15.7164 0 10.1243C0 4.53316 4.53364 0 10.125 0C15.7165 0 20.2499 4.53316 20.2499 10.1243ZM3.37513 10.1243C3.37513 13.8538 6.39742 16.8745 10.125 16.8745C13.8527 16.8745 16.875 13.8538 16.875 10.1243C16.875 6.39687 13.8527 3.3751 10.125 3.3751C6.39742 3.3751 3.37513 6.39687 3.37513 10.1243ZM6.75005 10.1241C6.75005 8.25941 8.25948 6.75004 10.125 6.75004C11.9905 6.75004 13.4999 8.25941 13.4999 10.1241C13.4999 11.9899 11.9905 13.4992 10.125 13.4992C8.25948 13.4992 6.75005 11.9899 6.75005 10.1241Z" fill="white"/>
</svg>
