<svg width="32" height="32" viewBox="0 0 32 32" fill="none" xmlns="http://www.w3.org/2000/svg">
<path fill-rule="evenodd" clip-rule="evenodd" d="M0 16.0008C0 7.1646 7.16412 0 16 0C24.8361 0 32.0001 7.1646 32.0001 16.0008C32.0001 24.835 24.8361 32.0009 16 32.0009C7.16412 32.0009 0 24.835 0 16.0008ZM13.5507 29.7865C14.346 29.9268 15.1645 30 16 30C16.8356 30 17.654 29.9268 18.4493 29.7865V21.4972C18.4493 21.1373 18.6427 20.8051 18.9558 20.6275C20.7758 19.5948 22 17.6423 22 15.4051C22 13.5474 21.1556 11.8857 19.8279 10.7845V14.1369V14.1384C19.8262 15.2886 19.3235 16.1992 18.561 16.799C17.8245 17.3782 16.889 17.6383 15.9999 17.6383C15.1109 17.6383 14.1754 17.3782 13.4389 16.799C12.6764 16.1992 12.1738 15.2886 12.1721 14.1384L12.1721 14.1369V14.1269V14.1168V14.1068V14.0968V14.0867V14.0767V14.0667V14.0566V14.0466V14.0366V14.0265V14.0165V14.0065V13.9964V13.9864V13.9764V13.9663V13.9563V13.9463V13.9362V13.9262V13.9162V13.9061V13.8961V13.8861V13.876V13.866V13.856V13.8459V13.8359V13.8259V13.8158V13.8058V13.7958V13.7857V13.7757V13.7657V13.7556V13.7456V13.7356V13.7255V13.7155V13.7055V13.6954V13.6854V13.6754V13.6653V13.6553V13.6453V13.6353V13.6252V13.6152V13.6052V13.5951V13.5851V13.5751V13.565V13.555V13.545V13.5349V13.5249V13.5149V13.5048V13.4948V13.4848V13.4747V13.4647V13.4547V13.4446V13.4346V13.4246V13.4145V13.4045V13.3945V13.3844V13.3744V13.3644V13.3543V13.3443V13.3343V13.3242V13.3142V13.3042V13.2941V13.2841V13.2741V13.264V13.254V13.244V13.2339V13.2239V13.2139V13.2038V13.1938V13.1838V13.1737V13.1637V13.1537V13.1436V13.1336V13.1236V13.1135V13.1035V13.0935V13.0834V13.0734V13.0634V13.0533V13.0433V13.0333V13.0232V13.0132V13.0032V12.9931V12.9831V12.9731V12.963V12.953V12.943V12.9329V12.9229V12.9129V12.9028V12.8928V12.8828V12.8727V12.8627V12.8527V12.8426V12.8326V12.8226V12.8125V12.8025V12.7925V12.7824V12.7724V12.7624V12.7523V12.7423V12.7323V12.7222V12.7122V12.7022V12.6921V12.6821V12.6721V12.6621V12.652V12.642V12.632V12.6219V12.6119V12.6019V12.5918V12.5818V12.5718V12.5617V12.5517V12.5417V12.5316V12.5216V12.5116V12.5015V12.4915V12.4815V12.4714V12.4614V12.4514V12.4413V12.4313V12.4213V12.4112V12.4012V12.3912V12.3811V12.3711V12.3611V12.351V12.341V12.331V12.3209V12.3109V12.3009V12.2908V12.2808V12.2708V12.2607V12.2507V12.2407V12.2306V12.2206V12.2106V12.2005V12.1905V12.1805V12.1704V12.1604V12.1504V12.1403V12.1303V12.1203V12.1102V12.1002V12.0902V12.0801V12.0701V12.0601V12.05V12.04V12.03V12.0199V12.0099V11.9999V11.9898V11.9798V11.9698V11.9597V11.9497V11.9397V11.9296V11.9196V11.9096V11.8995V11.8895V11.8795V11.8694V11.8594V11.8494V11.8393V11.8293V11.8193V11.8092V11.7992V11.7892V11.7791V11.7691V11.7591V11.749V11.739V11.729V11.7189V11.7089V11.6989V11.6888V11.6788V11.6688V11.6587V11.6487V11.6387V11.6286V11.6186V11.6086V11.5985V11.5885V11.5785V11.5684V11.5584V11.5484V11.5383V11.5283V11.5183V11.5083V11.4982V11.4882V11.4782V11.4681V11.4581V11.4481V11.438V11.428V11.418V11.4079V11.3979V11.3879V11.3778V11.3678V11.3578V11.3477V11.3377V11.3277V11.3176V11.3076V11.2976V11.2875V11.2775V11.2675V11.2574V11.2474V11.2374V11.2273V11.2173V11.2073V11.1972V11.1872V11.1772V11.1671V11.1571V11.1471V11.137V11.127V11.117V11.1069V11.0969V11.0869V11.0768V11.0668V11.0568V11.0467V11.0367V11.0267V11.0166V11.0066V10.9966V10.9865V10.9765V10.9665V10.9564V10.9464V10.9364V10.9263V10.9163V10.9063V10.8962V10.8862V10.8762V10.8661V10.8561V10.8461V10.836V10.826V10.816V10.8059V10.7959V10.7859V10.7845C10.8444 11.8857 10 13.5474 10 15.4051C10 17.6424 11.2243 19.5948 13.0442 20.6275C13.3573 20.8051 13.5507 21.1373 13.5507 21.4972V29.7865ZM11.5507 29.2784C5.99975 27.4195 1.99997 22.1777 1.99997 16.0008C1.99997 8.2678 8.2677 2.00092 16 2.00092C23.7324 2.00092 30 8.2678 30 16.0008C30 22.1777 26.0003 27.4195 20.4493 29.2784V22.0541C22.5887 20.6198 24 18.178 24 15.4051C24 12.1354 22.0385 9.32617 19.2323 8.08541C18.923 7.94866 18.5656 7.97749 18.2822 8.16203C17.9988 8.34657 17.8279 8.66183 17.8279 9L17.8279 14.1354L17.8279 14.136C17.827 14.653 17.6221 14.993 17.3246 15.2269C17.0008 15.4815 16.5236 15.6383 15.9999 15.6383C15.4763 15.6383 14.9991 15.4815 14.6754 15.2269C14.3779 14.993 14.173 14.6531 14.1721 14.136V14.1269V14.1168V14.1068V14.0968V14.0867V14.0767V14.0667V14.0566V14.0466V14.0366V14.0265V14.0165V14.0065V13.9964V13.9864V13.9764V13.9663V13.9563V13.9463V13.9362V13.9262V13.9162V13.9061V13.8961V13.8861V13.876V13.866V13.856V13.8459V13.8359V13.8259V13.8158V13.8058V13.7958V13.7857V13.7757V13.7657V13.7556V13.7456V13.7356V13.7255V13.7155V13.7055V13.6954V13.6854V13.6754V13.6653V13.6553V13.6453V13.6353V13.6252V13.6152V13.6052V13.5951V13.5851V13.5751V13.565V13.555V13.545V13.5349V13.5249V13.5149V13.5048V13.4948V13.4848V13.4747V13.4647V13.4547V13.4446V13.4346V13.4246V13.4145V13.4045V13.3945V13.3844V13.3744V13.3644V13.3543V13.3443V13.3343V13.3242V13.3142V13.3042V13.2941V13.2841V13.2741V13.264V13.254V13.244V13.2339V13.2239V13.2139V13.2038V13.1938V13.1838V13.1737V13.1637V13.1537V13.1436V13.1336V13.1236V13.1135V13.1035V13.0935V13.0834V13.0734V13.0634V13.0533V13.0433V13.0333V13.0232V13.0132V13.0032V12.9931V12.9831V12.9731V12.963V12.953V12.943V12.9329V12.9229V12.9129V12.9028V12.8928V12.8828V12.8727V12.8627V12.8527V12.8426V12.8326V12.8226V12.8125V12.8025V12.7925V12.7824V12.7724V12.7624V12.7523V12.7423V12.7323V12.7222V12.7122V12.7022V12.6921V12.6821V12.6721V12.6621V12.652V12.642V12.632V12.6219V12.6119V12.6019V12.5918V12.5818V12.5718V12.5617V12.5517V12.5417V12.5316V12.5216V12.5116V12.5015V12.4915V12.4815V12.4714V12.4614V12.4514V12.4413V12.4313V12.4213V12.4112V12.4012V12.3912V12.3811V12.3711V12.3611V12.351V12.341V12.331V12.3209V12.3109V12.3009V12.2908V12.2808V12.2708V12.2607V12.2507V12.2407V12.2306V12.2206V12.2106V12.2005V12.1905V12.1805V12.1704V12.1604V12.1504V12.1403V12.1303V12.1203V12.1102V12.1002V12.0902V12.0801V12.0701V12.0601V12.05V12.04V12.03V12.0199V12.0099V11.9999V11.9898V11.9798V11.9698V11.9597V11.9497V11.9397V11.9296V11.9196V11.9096V11.8995V11.8895V11.8795V11.8694V11.8594V11.8494V11.8393V11.8293V11.8193V11.8092V11.7992V11.7892V11.7791V11.7691V11.7591V11.749V11.739V11.729V11.7189V11.7089V11.6989V11.6888V11.6788V11.6688V11.6587V11.6487V11.6387V11.6286V11.6186V11.6086V11.5985V11.5885V11.5785V11.5684V11.5584V11.5484V11.5383V11.5283V11.5183V11.5083V11.4982V11.4882V11.4782V11.4681V11.4581V11.4481V11.438V11.428V11.418V11.4079V11.3979V11.3879V11.3778V11.3678V11.3578V11.3477V11.3377V11.3277V11.3176V11.3076V11.2976V11.2875V11.2775V11.2675V11.2574V11.2474V11.2374V11.2273V11.2173V11.2073V11.1972V11.1872V11.1772V11.1671V11.1571V11.1471V11.137V11.127V11.117V11.1069V11.0969V11.0869V11.0768V11.0668V11.0568V11.0467V11.0367V11.0267V11.0166V11.0066V10.9966V10.9865V10.9765V10.9665V10.9564V10.9464V10.9364V10.9263V10.9163V10.9063V10.8962V10.8862V10.8762V10.8661V10.8561V10.8461V10.836V10.826V10.816V10.8059V10.7959V10.7859V10.7758V10.7658V10.7558V10.7457V10.7357V10.7257V10.7156V10.7056V10.6956V10.6855V10.6755V10.6655V10.6554V10.6454V10.6354V10.6253V10.6153V10.6053V10.5952V10.5852V10.5752V10.5651V10.5551V10.5451V10.535V10.525V10.515V10.5049V10.4949V10.4849V10.4748V10.4648V10.4548V10.4447V10.4347V10.4247V10.4146V10.4046V10.3946V10.3846V10.3745V10.3645V10.3545V10.3444V10.3344V10.3244V10.3143V10.3043V10.2943V10.2842V10.2742V10.2642V10.2541V10.2441V10.2341V10.224V10.214V10.204V10.1939V10.1839V10.1739V10.1638V10.1538V10.1438V10.1337V10.1237V10.1137V10.1036V10.0936V10.0836V10.0735V10.0635V10.0535V10.0434V10.0334V10.0234V10.0133V10.0033V9.99326V9.98323V9.9732V9.96316V9.95313V9.9431V9.93306V9.92303V9.913V9.90297V9.89293V9.8829V9.87287V9.86283V9.8528V9.84277V9.83274V9.8227V9.81267V9.80264V9.7926V9.78257V9.77254V9.7625V9.75247V9.74244V9.7324V9.72237V9.71234V9.70231V9.69227V9.68224V9.67221V9.66217V9.65214V9.64211V9.63208V9.62204V9.61201V9.60198V9.59194V9.58191V9.57188V9.56184V9.55181V9.54178V9.53175V9.52171V9.51168V9.50165V9.49161V9.48158V9.47155V9.46151V9.45148V9.44145V9.43142V9.42138V9.41135V9.40132V9.39128V9.38125V9.37122V9.36119V9.35115V9.34112V9.33109V9.32105V9.31102V9.30099V9.29095V9.28092V9.27089V9.26086V9.25082V9.24079V9.23076V9.22072V9.21069V9.20066V9.19063V9.18059V9.17056V9.16053V9.15049V9.14046V9.13043V9.12039V9.11036V9.10033V9.0903V9.08026V9.07023V9.0602V9.05016V9.04013V9.0301V9.02007V9.01003V9C14.1721 8.66183 14.0012 8.34657 13.7178 8.16203C13.4344 7.97749 13.077 7.94866 12.7677 8.08541C9.9615 9.32618 8 12.1354 8 15.4051C8 18.178 9.41133 20.6198 11.5507 22.0541V29.2784Z" fill="#5984B2"/>
</svg>
