<svg width="1189" height="489" viewBox="0 0 1189 489" fill="none" xmlns="http://www.w3.org/2000/svg">
<g filter="url(#filter0_d_1333_2)">
<rect x="49" y="25" width="1110" height="431" rx="10" fill="white"/>
<path fill-rule="evenodd" clip-rule="evenodd" d="M316.1 25H1149C1154.5 25 1159 29.5049 1159 35.0108V149.034L524.099 214.905C495.085 216.306 490.083 202.091 491.684 184.171C495.285 141.926 464.271 133.917 431.955 148.333C413.547 156.141 401.941 160.146 389.535 162.248C354.819 168.354 316 137.721 316 105.186V25H316.1Z" fill="white"/>
<path d="M666 244V184.672L675.696 193.888H654.48V176.8H688.656V244H666ZM706.509 244L731.853 184.864L737.901 194.368H706.029L714.861 184.096V204.16H696.141V176.8H753.645V190.72L731.277 244H706.509ZM787.341 245.536C781.389 245.536 776.109 244.16 771.501 241.408C766.957 238.656 763.373 234.656 760.749 229.408C758.189 224.16 756.909 217.824 756.909 210.4C756.909 202.976 758.189 196.64 760.749 191.392C763.373 186.144 766.957 182.144 771.501 179.392C776.109 176.64 781.389 175.264 787.341 175.264C793.293 175.264 798.541 176.64 803.085 179.392C807.693 182.144 811.277 186.144 813.837 191.392C816.461 196.64 817.773 202.976 817.773 210.4C817.773 217.824 816.461 224.16 813.837 229.408C811.277 234.656 807.693 238.656 803.085 241.408C798.541 244.16 793.293 245.536 787.341 245.536ZM787.341 227.392C788.813 227.392 790.125 226.88 791.277 225.856C792.429 224.832 793.325 223.072 793.965 220.576C794.669 218.08 795.021 214.688 795.021 210.4C795.021 206.048 794.669 202.656 793.965 200.224C793.325 197.728 792.429 195.968 791.277 194.944C790.125 193.92 788.813 193.408 787.341 193.408C785.869 193.408 784.557 193.92 783.405 194.944C782.253 195.968 781.325 197.728 780.621 200.224C779.981 202.656 779.661 206.048 779.661 210.4C779.661 214.688 779.981 218.08 780.621 220.576C781.325 223.072 782.253 224.832 783.405 225.856C784.557 226.88 785.869 227.392 787.341 227.392Z" fill="#51B18B"/>
<path d="M835.84 230V207.28L837.88 209.32H827.64V202H853.32V209.32H843.08L845.12 207.28V230H835.84ZM865.073 212.4H877.553V219.2H865.073V212.4ZM865.713 222.88H879.713V230H856.433V202H879.193V209.12H865.713V222.88ZM885.623 230.52C885.036 230.52 884.409 230.48 883.743 230.4C883.076 230.32 882.369 230.187 881.623 230L882.103 222.44C882.476 222.52 882.823 222.56 883.143 222.56C884.183 222.56 884.956 222.133 885.463 221.28C885.969 220.427 886.316 219.28 886.503 217.84C886.689 216.373 886.809 214.733 886.863 212.92L887.223 202H910.863V230H901.583V207.32L903.623 209.32H893.423L895.263 207.2L895.103 212.56C895.023 215.253 894.836 217.707 894.543 219.92C894.276 222.107 893.809 224 893.143 225.6C892.476 227.173 891.529 228.387 890.303 229.24C889.103 230.093 887.543 230.52 885.623 230.52ZM924.448 212.4H936.928V219.2H924.448V212.4ZM925.088 222.88H939.088V230H915.808V202H938.568V209.12H925.088V222.88ZM960.118 230L953.158 216.88L960.678 212.48L970.758 230H960.118ZM942.678 230V202H952.118V230H942.678ZM949.398 219.88V212.44H959.998V219.88H949.398ZM961.598 217L952.918 216.12L960.958 202H970.798L961.598 217ZM969.542 230L981.782 202H991.062L1003.3 230H993.542L984.502 206.48H988.182L979.142 230H969.542ZM976.822 225.12L979.222 218.32H992.102L994.502 225.12H976.822ZM1024.05 202H1033.49V230H1024.05V202ZM1015.33 230H1005.89V202H1015.33V230ZM1024.69 219.68H1014.69V211.92H1024.69V219.68ZM1036.1 230L1048.34 202H1057.62L1069.86 230H1060.1L1051.06 206.48H1054.74L1045.7 230H1036.1ZM1043.38 225.12L1045.78 218.32H1058.66L1061.06 225.12H1043.38ZM1074.92 230.52C1074.33 230.52 1073.71 230.48 1073.04 230.4C1072.37 230.32 1071.67 230.187 1070.92 230L1071.4 222.44C1071.77 222.52 1072.12 222.56 1072.44 222.56C1073.48 222.56 1074.25 222.133 1074.76 221.28C1075.27 220.427 1075.61 219.28 1075.8 217.84C1075.99 216.373 1076.11 214.733 1076.16 212.92L1076.52 202H1100.16V230H1090.88V207.32L1092.92 209.32H1082.72L1084.56 207.2L1084.4 212.56C1084.32 215.253 1084.13 217.707 1083.84 219.92C1083.57 222.107 1083.11 224 1082.44 225.6C1081.77 227.173 1080.83 228.387 1079.6 229.24C1078.4 230.093 1076.84 230.52 1074.92 230.52ZM1104.91 230V202H1114.35V230H1104.91ZM1119.09 230V202H1133.29C1136.76 202 1139.44 202.64 1141.33 203.92C1143.25 205.2 1144.21 207 1144.21 209.32C1144.21 211.587 1143.33 213.387 1141.57 214.72C1139.81 216.027 1137.44 216.68 1134.45 216.68L1135.25 214.52C1138.42 214.52 1140.92 215.147 1142.73 216.4C1144.54 217.653 1145.45 219.48 1145.45 221.88C1145.45 224.36 1144.46 226.333 1142.49 227.8C1140.52 229.267 1137.7 230 1134.05 230H1119.09ZM1128.37 223.4H1133.61C1134.38 223.4 1134.96 223.213 1135.33 222.84C1135.73 222.44 1135.93 221.88 1135.93 221.16C1135.93 220.44 1135.73 219.907 1135.33 219.56C1134.96 219.187 1134.38 219 1133.61 219H1128.37V223.4ZM1128.37 212.76H1132.37C1133.17 212.76 1133.76 212.587 1134.13 212.24C1134.5 211.893 1134.69 211.387 1134.69 210.72C1134.69 210.027 1134.5 209.507 1134.13 209.16C1133.76 208.787 1133.17 208.6 1132.37 208.6H1128.37V212.76Z" fill="#51B18B"/>
<path fill-rule="evenodd" clip-rule="evenodd" d="M833.186 162.496H838.012L844.323 171.472L850.448 162.496H855.274V183.626H849.705V171.285L844.137 179.138L838.568 171.472V183.813H833L833.186 162.496ZM1061.68 161C1068.17 161 1073 166.049 1073 172.219C1073 178.39 1068.17 183.439 1061.86 183.439C1055.37 183.439 1050.54 178.39 1050.54 172.219C1050.54 166.049 1055.37 161.187 1061.68 161ZM1061.86 178.203C1065.02 178.203 1067.43 175.585 1067.43 172.219C1067.43 168.854 1065.02 166.236 1061.86 166.423C1058.71 166.423 1056.29 169.041 1056.29 172.406C1056.11 175.585 1058.71 178.203 1061.86 178.203ZM973.139 161.374C979.636 161.374 984.462 166.423 984.462 172.594C984.462 178.764 979.636 183.813 973.325 183.813C966.828 183.813 962.002 178.764 962.002 172.594C962.002 166.423 966.643 161.374 973.139 161.374ZM973.139 178.577C976.295 178.577 978.708 175.959 978.708 172.594C978.708 169.228 976.295 166.61 973.139 166.797C969.984 166.797 967.571 169.415 967.571 172.781C967.571 175.959 969.984 178.577 973.139 178.577ZM1016.76 170.163H1027.71C1028.08 175.959 1026.23 183.626 1016.94 183.626C1010.45 183.626 1005.62 178.577 1005.62 172.406C1005.62 166.236 1010.45 161.187 1016.76 161.187C1019.73 161.187 1021.77 162.122 1023.26 163.244C1024.18 163.805 1024.74 164.553 1025.48 165.301L1022.14 169.228C1021.77 168.667 1021.21 168.293 1020.66 167.919C1019.73 167.171 1018.43 166.61 1016.76 166.61C1013.6 166.61 1011.19 169.228 1011.19 172.594C1011.19 175.959 1013.6 178.577 1016.76 178.39C1021.21 178.39 1021.96 174.65 1021.96 174.65H1016.57L1016.76 170.163ZM929.149 170.537H940.1C940.471 176.333 938.615 184 929.334 184C922.838 184 918.012 178.951 918.012 172.781C918.012 166.61 922.838 161.561 929.149 161.561C932.118 161.561 934.16 162.496 935.645 163.618C936.573 164.179 937.13 164.927 937.872 165.675L934.531 169.602C934.16 169.041 933.603 168.667 933.046 168.293C932.118 167.545 930.819 166.984 929.149 166.984C925.993 166.984 923.58 169.602 923.58 172.968C923.58 176.333 925.993 178.951 929.149 178.764C933.603 178.764 934.346 175.024 934.346 175.024H928.963L929.149 170.537ZM880.517 162.309H897.594V167.358H885.9V170.537H895.181V175.398H885.9V178.577H897.594V183.626H880.517V162.309Z" fill="#010005"/>
<path fill-rule="evenodd" clip-rule="evenodd" d="M130.158 202.712C117.858 214.012 98.6584 213.312 87.1584 200.912C75.6584 188.612 76.4584 169.312 88.6584 158.012C100.958 146.712 120.158 147.412 131.658 159.812C143.058 172.112 142.458 191.412 130.158 202.712Z" fill="#5984B2"/>
<path fill-rule="evenodd" clip-rule="evenodd" d="M104.458 176.912L100.358 180.712L110.758 191.912L107.458 195.012L97.0583 183.712L92.9584 187.512L90.5583 184.912L102.058 174.312L104.458 176.912Z" fill="white"/>
<path fill-rule="evenodd" clip-rule="evenodd" d="M118.358 177.912L111.758 165.412L115.358 161.912L123.558 180.112L119.958 183.412L102.558 173.812L106.358 170.512L118.358 177.912Z" fill="white"/>
<path fill-rule="evenodd" clip-rule="evenodd" d="M214.716 90.9004L254.116 97.4004C261.816 98.7004 267.216 106.2 265.916 113.9C264.616 121.6 257.216 127 249.416 125.7L212.216 119.5L199.316 126.5L201.616 114.4C198.916 111.2 197.416 107 198.216 102.6C199.516 94.9004 206.916 89.6004 214.716 90.9004ZM243.816 114.5C246.316 114.9 248.816 113.2 249.216 110.6C249.616 108.1 247.916 105.6 245.316 105.2C242.816 104.8 240.316 106.5 239.916 109.1C239.616 111.7 241.316 114.1 243.816 114.5ZM230.716 112.4C233.216 112.8 235.716 111.1 236.116 108.5C236.516 106 234.816 103.5 232.216 103.1C229.716 102.7 227.216 104.4 226.816 107C226.416 109.5 228.216 111.9 230.716 112.4ZM217.716 110.2C220.216 110.6 222.716 108.9 223.116 106.3C223.516 103.8 221.816 101.3 219.216 100.9C216.716 100.5 214.216 102.2 213.816 104.8C213.316 107.3 215.116 109.8 217.716 110.2Z" fill="#8B6CB0"/>
<path fill-rule="evenodd" clip-rule="evenodd" d="M158.015 260.6C186.715 249.7 231.315 239 260.015 227.9C216.915 193 219.815 218.7 192.315 231.9C165.015 244.8 172.015 250.8 158.015 260.6Z" fill="#5981B0"/>
<path fill-rule="evenodd" clip-rule="evenodd" d="M447.315 198.1L439.815 201.6L442.715 209.7L449.615 206.6C449.615 206.4 447.515 198.9 447.315 198.1Z" fill="url(#paint0_linear_1333_2)"/>
<path fill-rule="evenodd" clip-rule="evenodd" d="M445.315 199C448.215 202.9 446.715 207.3 447.815 209C452.515 212.6 453.815 213.8 455.315 218.9C457.015 224 462.215 226.3 460.915 219.9C458.415 207.9 456.915 198.3 455.315 195C454.315 193.5 446.215 193 445.315 199Z" fill="#36244D"/>
<path fill-rule="evenodd" clip-rule="evenodd" d="M439.715 197.4C442.315 201.3 445.915 207.7 445.315 213.7C390.315 233.5 383.415 239.6 340.815 251.2C339.815 245.6 325.515 235.7 322.115 224.3C349.115 211.2 372.115 226.3 439.715 197.4Z" fill="#56A7BC"/>
<path fill-rule="evenodd" clip-rule="evenodd" d="M452.216 241.2L444.716 243.2L445.916 251.1L452.916 249.4C452.816 249.2 452.316 241.9 452.216 241.2Z" fill="url(#paint1_linear_1333_2)"/>
<path fill-rule="evenodd" clip-rule="evenodd" d="M450.216 241.6C452.316 245.8 450.116 249.5 450.716 251.4C454.516 255.6 455.416 256.9 456.016 261.8C456.616 266.7 461.116 269.9 460.916 263.8C460.816 252.3 460.916 243.1 460.016 239.9C459.616 238 452.216 236.2 450.216 241.6Z" fill="#36244D"/>
<path fill-rule="evenodd" clip-rule="evenodd" d="M444.316 238.4C447.816 241.7 449.116 251 446.616 254.4C390.216 262.6 359.016 258.4 315.916 261.7C316.016 256.9 319.116 233.2 318.116 223C356.816 215 334.316 241.9 444.316 238.4Z" fill="#4996AB"/>
<path fill-rule="evenodd" clip-rule="evenodd" d="M318.216 223.1C296.016 229.7 276.516 229.9 249.816 218C244.716 230.2 244.916 228.8 234.716 237.4C242.516 277.6 301.116 274.1 322.416 261.2C326.516 256.7 329.316 228.3 318.216 223.1Z" fill="#5981B0"/>
<path fill-rule="evenodd" clip-rule="evenodd" d="M134.115 405.3C135.415 404.6 136.615 404.1 138.015 403.5C138.815 403.1 138.915 403 139.315 402.2C141.215 398.3 143.115 394.8 145.015 390.9C145.415 390 145.415 390 146.215 389.6C146.515 389.5 146.615 389.5 146.815 389.3C148.215 388.8 148.215 388.3 148.815 386.8C150.015 383.4 150.915 380.7 152.015 377.3C148.415 379.3 144.715 381.1 141.115 383C138.515 390.3 135.915 397.4 133.215 404.7C132.915 405.7 133.015 405.8 134.115 405.3ZM297.915 325.2C296.615 325.9 295.415 326.4 294.015 327C293.215 327.4 293.015 327.4 292.015 327.3C287.715 326.5 283.815 325.7 279.515 324.8C278.615 324.7 278.615 324.5 277.715 324.9C277.615 325 277.315 325.2 277.115 325.3C275.815 326.1 275.415 325.8 274.015 325.3C270.615 324.1 267.915 323.2 264.515 322C268.315 320.3 272.015 318.6 275.815 316.9C283.115 319.2 290.415 321.6 297.815 324.1C299.115 324.6 299.015 324.7 297.915 325.2Z" fill="#674989"/>
<path fill-rule="evenodd" clip-rule="evenodd" d="M292.215 310.7L123.416 393.2C122.515 393.7 121.316 393.2 120.816 392.3L73.2155 294.7C72.7155 293.8 73.1155 292.6 74.1155 292.1L243.016 209.6C243.915 209.1 245.116 209.5 245.616 210.5L293.215 308.1C293.715 309.1 293.316 310.2 292.215 310.7Z" fill="#886BAE"/>
<path fill-rule="evenodd" clip-rule="evenodd" d="M242.515 215.4L79.1155 295.2L124.015 387.3L287.415 307.5L242.515 215.4Z" fill="white"/>
<path fill-rule="evenodd" clip-rule="evenodd" d="M197.087 251.681C196.03 250.129 195.163 249.825 193.372 250.379C189.365 252.103 184.814 254.194 181.049 256.42C179.583 257.436 179.197 258.344 179.753 260.138C180.389 262.099 182.002 265.446 183.139 267.166C184.277 268.886 185.147 268.983 187.022 268.388C190.485 267.029 195.998 264.372 199.218 262.511C200.684 261.495 201.07 260.588 200.515 258.793C199.838 256.748 198.225 253.401 197.087 251.681ZM189.007 262.895L186.709 258.126L192.516 258.215L189.007 262.895Z" fill="#EAEAEA"/>
<path fill-rule="evenodd" clip-rule="evenodd" d="M207.232 259.062C206.814 259.263 206.319 259.089 206.117 258.671C205.916 258.253 206.048 257.673 206.466 257.472L234.032 244.188C234.45 243.987 234.945 244.16 235.187 244.662C235.389 245.081 235.216 245.577 234.798 245.778L207.232 259.062ZM201.869 247.934C201.452 248.135 200.956 247.961 200.714 247.459C200.513 247.041 200.685 246.545 201.103 246.344L224.409 235.113C224.827 234.912 225.322 235.085 225.524 235.504C225.726 235.922 225.593 236.501 225.175 236.703L201.869 247.934ZM203.2 250.695C202.782 250.896 202.287 250.722 202.045 250.22C201.843 249.802 202.016 249.306 202.434 249.105L235.68 233.084C236.098 232.882 236.593 233.056 236.795 233.474C236.997 233.893 236.864 234.472 236.446 234.673L203.2 250.695ZM204.53 253.456C204.113 253.657 203.617 253.483 203.416 253.065C203.214 252.647 203.387 252.151 203.805 251.95L238.889 235.043C239.307 234.842 239.802 235.015 240.004 235.434C240.205 235.852 240.032 236.348 239.615 236.549L204.53 253.456ZM205.861 256.217C205.443 256.418 204.948 256.245 204.746 255.826C204.545 255.408 204.677 254.828 205.095 254.627L238.091 238.727C238.509 238.525 239.004 238.699 239.246 239.201C239.448 239.619 239.275 240.115 238.857 240.316L205.861 256.217Z" fill="#EAEAEA"/>
<path fill-rule="evenodd" clip-rule="evenodd" d="M204.668 267.412C203.611 265.859 202.744 265.555 200.952 266.109C196.945 267.834 192.394 269.924 188.629 272.151C187.163 273.166 186.777 274.074 187.333 275.868C187.969 277.83 189.582 281.177 190.72 282.897C191.857 284.617 192.727 284.713 194.603 284.119C198.065 282.76 203.578 280.103 206.799 278.242C208.265 277.226 208.651 276.318 208.095 274.524C207.418 272.479 205.805 269.132 204.668 267.412ZM196.587 278.626L194.289 273.857L200.096 273.945L196.587 278.626Z" fill="#EAEAEA"/>
<path fill-rule="evenodd" clip-rule="evenodd" d="M214.812 274.792C214.394 274.994 213.899 274.82 213.697 274.401C213.496 273.983 213.628 273.404 214.046 273.202L241.612 259.919C242.03 259.717 242.525 259.891 242.767 260.393C242.969 260.811 242.796 261.307 242.378 261.508L214.812 274.792ZM209.45 263.664C209.032 263.865 208.536 263.692 208.295 263.19C208.093 262.771 208.266 262.276 208.683 262.074L231.99 250.843C232.407 250.642 232.903 250.816 233.104 251.234C233.306 251.652 233.173 252.232 232.756 252.433L209.45 263.664ZM210.78 266.425C210.362 266.626 209.867 266.453 209.625 265.951C209.383 265.449 209.596 265.037 210.014 264.835L243.261 248.814C243.678 248.613 244.174 248.786 244.375 249.205C244.577 249.623 244.444 250.203 244.027 250.404L210.78 266.425ZM212.111 269.186C211.693 269.388 211.198 269.214 210.996 268.796C210.794 268.377 210.967 267.881 211.385 267.68L246.469 250.773C246.887 250.572 247.382 250.746 247.584 251.164C247.786 251.582 247.613 252.078 247.195 252.279L212.111 269.186ZM213.441 271.947C213.024 272.149 212.528 271.975 212.327 271.557C212.125 271.138 212.257 270.559 212.675 270.358L245.671 254.457C246.089 254.256 246.584 254.43 246.826 254.932C247.028 255.35 246.855 255.846 246.437 256.047L213.441 271.947Z" fill="#EAEAEA"/>
<path fill-rule="evenodd" clip-rule="evenodd" d="M212.248 283.142C211.191 281.589 210.324 281.285 208.532 281.839C204.525 283.564 199.974 285.654 196.209 287.881C194.743 288.896 194.357 289.804 194.913 291.598C195.549 293.56 197.162 296.907 198.3 298.627C199.438 300.347 200.307 300.443 202.183 299.849C205.645 298.49 211.158 295.833 214.379 293.972C215.845 292.956 216.231 292.048 215.675 290.254C214.998 288.209 213.385 284.862 212.248 283.142ZM204.168 294.356L201.869 289.587L207.676 289.675L204.168 294.356Z" fill="#EAEAEA"/>
<path fill-rule="evenodd" clip-rule="evenodd" d="M222.392 290.523C221.975 290.724 221.479 290.55 221.278 290.132C221.076 289.714 221.208 289.134 221.626 288.933L249.192 275.649C249.61 275.448 250.106 275.621 250.347 276.123C250.549 276.542 250.376 277.037 249.959 277.239L222.392 290.523ZM217.03 279.394C216.612 279.596 216.117 279.422 215.875 278.92C215.673 278.502 215.846 278.006 216.264 277.805L239.57 266.574C239.987 266.372 240.483 266.546 240.684 266.964C240.886 267.383 240.753 267.962 240.336 268.163L217.03 279.394ZM218.36 282.156C217.943 282.357 217.447 282.183 217.205 281.681C216.963 281.179 217.176 280.767 217.594 280.566L250.841 264.545C251.258 264.343 251.754 264.517 251.956 264.935C252.157 265.354 252.025 265.933 251.607 266.134L218.36 282.156ZM219.691 284.917C219.273 285.118 218.778 284.944 218.576 284.526C218.374 284.108 218.547 283.612 218.965 283.411L254.049 266.504C254.467 266.303 254.963 266.476 255.164 266.895C255.366 267.313 255.193 267.809 254.775 268.01L219.691 284.917ZM221.021 287.678C220.604 287.879 220.108 287.706 219.907 287.287C219.705 286.869 219.838 286.289 220.255 286.088L253.251 270.188C253.669 269.986 254.164 270.16 254.406 270.662C254.608 271.08 254.435 271.576 254.017 271.777L221.021 287.678Z" fill="#EAEAEA"/>
<path fill-rule="evenodd" clip-rule="evenodd" d="M219.828 298.872C218.771 297.319 217.904 297.015 216.113 297.569C212.106 299.294 207.555 301.384 203.79 303.611C202.324 304.626 201.938 305.534 202.494 307.328C203.13 309.29 204.743 312.637 205.88 314.357C207.018 316.077 207.888 316.173 209.763 315.579C213.226 314.22 218.739 311.563 221.959 309.702C223.425 308.686 223.811 307.778 223.256 305.984C222.579 303.939 220.966 300.592 219.828 298.872ZM211.748 310.086L209.45 305.316L215.257 305.405L211.748 310.086Z" fill="#EAEAEA"/>
<path fill-rule="evenodd" clip-rule="evenodd" d="M230.214 306.354C229.796 306.555 229.301 306.381 229.099 305.963C228.898 305.545 229.03 304.965 229.448 304.764L257.014 291.48C257.432 291.279 257.927 291.452 258.169 291.954C258.371 292.373 258.198 292.869 257.78 293.07L230.214 306.354ZM224.851 295.226C224.434 295.427 223.938 295.253 223.696 294.751C223.454 294.249 223.668 293.837 224.085 293.636L247.391 282.405C247.809 282.203 248.305 282.377 248.506 282.796C248.708 283.214 248.575 283.793 248.157 283.995L224.851 295.226ZM226.182 297.987C225.764 298.188 225.269 298.014 225.027 297.512C224.785 297.01 224.998 296.598 225.416 296.397L258.663 280.376C259.08 280.174 259.576 280.348 259.777 280.766C259.979 281.185 259.846 281.764 259.429 281.965L226.182 297.987ZM227.513 300.748C227.095 300.949 226.599 300.775 226.398 300.357C226.196 299.939 226.369 299.443 226.787 299.242L261.871 282.335C262.289 282.134 262.784 282.307 262.986 282.726C263.188 283.144 263.015 283.64 262.597 283.841L227.513 300.748ZM228.843 303.509C228.425 303.71 227.93 303.537 227.728 303.118C227.527 302.7 227.659 302.12 228.077 301.919L261.073 286.019C261.491 285.817 261.986 285.991 262.228 286.493C262.43 286.911 262.257 287.407 261.839 287.608L228.843 303.509Z" fill="#EAEAEA"/>
<path fill-rule="evenodd" clip-rule="evenodd" d="M227.408 314.602C226.351 313.049 225.484 312.745 223.693 313.299C219.686 315.024 215.135 317.114 211.37 319.341C209.904 320.356 209.518 321.264 210.073 323.058C210.71 325.02 212.323 328.367 213.46 330.087C214.598 331.807 215.468 331.903 217.343 331.309C220.805 329.95 226.319 327.293 229.539 325.432C231.005 324.416 231.391 323.508 230.835 321.714C230.159 319.669 228.546 316.322 227.408 314.602ZM219.328 325.816L217.03 321.046L222.837 321.135L219.328 325.816Z" fill="#EAEAEA"/>
<path fill-rule="evenodd" clip-rule="evenodd" d="M237.553 321.982C237.135 322.184 236.64 322.01 236.438 321.592C236.236 321.173 236.369 320.594 236.787 320.393L264.353 307.109C264.771 306.907 265.266 307.081 265.508 307.583C265.71 308.001 265.537 308.497 265.119 308.698L237.553 321.982ZM232.15 310.77C231.732 310.972 231.237 310.798 230.995 310.296C230.753 309.794 230.966 309.382 231.384 309.181L254.69 297.95C255.107 297.748 255.603 297.922 255.804 298.34C256.006 298.759 255.874 299.338 255.456 299.539L232.15 310.77ZM233.521 313.615C233.103 313.817 232.608 313.643 232.366 313.141C232.164 312.722 232.337 312.227 232.755 312.026L266.001 296.004C266.419 295.803 266.914 295.977 267.116 296.395C267.318 296.813 267.185 297.393 266.767 297.594L233.521 313.615ZM234.851 316.376C234.434 316.578 233.938 316.404 233.737 315.986C233.535 315.567 233.708 315.072 234.125 314.87L269.21 297.963C269.628 297.762 270.123 297.936 270.325 298.354C270.526 298.773 270.353 299.268 269.936 299.47L234.851 316.376ZM236.182 319.138C235.764 319.339 235.269 319.165 235.067 318.747C234.865 318.328 234.998 317.749 235.416 317.548L268.412 301.647C268.829 301.446 269.325 301.62 269.567 302.122C269.768 302.54 269.596 303.036 269.178 303.237L236.182 319.138Z" fill="#EAEAEA"/>
<path fill-rule="evenodd" clip-rule="evenodd" d="M147.656 315.712C145.136 311.978 142.947 311.28 138.905 312.506C129.431 316.555 118.532 321.705 109.665 326.802C106.145 329.323 105.37 331.346 106.721 335.644C108.149 340.317 112.104 348.309 114.785 352.379C117.466 356.448 119.661 356.73 123.953 355.384C132.128 352.269 145.286 345.825 152.856 341.456C156.376 338.935 157.151 336.912 155.8 332.614C154.208 327.814 150.377 319.865 147.656 315.712ZM128.283 342.368L122.88 331.156L136.775 331.368L128.283 342.368Z" fill="#C5B0DF"/>
<path fill-rule="evenodd" clip-rule="evenodd" d="M121.208 364.852C120.706 365.093 120.087 364.876 119.845 364.374C119.603 363.872 119.819 363.252 120.32 363.011L149.558 348.922C150.059 348.68 150.678 348.897 150.92 349.399C151.162 349.901 150.946 350.521 150.445 350.763L121.208 364.852ZM123.465 369.537C122.964 369.779 122.345 369.562 122.103 369.06C121.861 368.558 122.077 367.938 122.578 367.696L183.475 338.351C183.976 338.109 184.595 338.326 184.837 338.828C185.079 339.331 184.863 339.95 184.362 340.192L123.465 369.537ZM125.038 372.8C124.537 373.042 123.917 372.825 123.676 372.323C123.434 371.821 123.65 371.201 124.151 370.96L174.689 346.606C175.19 346.364 175.81 346.581 176.052 347.083C176.294 347.585 176.077 348.205 175.576 348.446L125.038 372.8ZM126.57 375.98C126.069 376.221 125.45 376.004 125.208 375.502C124.966 375 125.182 374.381 125.683 374.139L183.489 346.283C183.99 346.041 184.609 346.259 184.851 346.761C185.093 347.263 184.877 347.882 184.376 348.124L126.57 375.98Z" fill="#C5B0DF"/>
<path fill-rule="evenodd" clip-rule="evenodd" d="M106.732 296.151L100.968 298.929L108.548 314.659L103.954 316.873L96.3738 301.143L90.6935 303.88L89 300.366L105.039 292.637L106.732 296.151Z" fill="#6C528B"/>
<path fill-rule="evenodd" clip-rule="evenodd" d="M121.419 302.064L118.488 286.156L123.667 283.66L126.508 306.004L121.413 308.46L105.707 292.315L110.886 289.819L121.419 302.064Z" fill="#6C528B"/>
<path fill-rule="evenodd" clip-rule="evenodd" d="M201.916 352.8C201.516 353.1 201.016 352.8 200.916 352.4C200.616 352 200.916 351.5 201.316 351.4L211.616 346.3C212.016 346 212.516 346.3 212.616 346.7C212.916 347.1 212.616 347.6 212.216 347.7L201.916 352.8Z" fill="#C3AEDE"/>
<path fill-rule="evenodd" clip-rule="evenodd" d="M233.516 236.5C224.516 234.2 219.716 222.4 223.216 209.6C226.616 196.6 224.916 183.4 245.716 190.5C266.516 197.5 259.216 205.3 255.816 218.2C252.316 231 242.416 238.8 233.516 236.5Z" fill="url(#paint2_linear_1333_2)"/>
<path fill-rule="evenodd" clip-rule="evenodd" d="M222.216 215.4C222.616 212.1 223.416 208.1 224.416 204.9C235.616 210.6 243.116 212.6 257.316 213.1C256.816 216.5 255.916 219.9 254.216 223C243.716 222.6 231.316 219.4 222.216 215.4Z" fill="#36244D"/>
<path fill-rule="evenodd" clip-rule="evenodd" d="M229.816 191.2C226.716 197.1 225.516 200.4 223.816 207.5C220.916 200.1 220.016 196.8 221.916 190.1C225.016 178.4 225.816 173 233.616 176.2C241.416 179.2 237.216 174.1 250.816 175.9C259.616 177.2 257.916 182 269.616 182.3C277.316 182.4 275.216 196.9 264.316 206.1C262.416 207.8 261.616 210.8 256.616 215.7C259.316 206.1 259.616 201.3 257.616 198.6C247.916 199.8 237.316 197.7 229.816 191.2Z" fill="#36244D"/>
<path fill-rule="evenodd" clip-rule="evenodd" d="M259.716 325.2C258.416 326.8 257.516 327.5 256.716 329.4C255.716 333.6 255.116 336 251.216 340.9C240.716 353.9 230.916 342.5 235.316 338.4C241.116 335.9 240.516 334.1 241.016 330.7C238.716 331.5 237.616 332.1 235.816 332.7C238.916 324.9 244.816 326.3 246.516 325.9C249.616 325.2 251.416 322.4 253.016 320.8C255.116 318.9 261.316 323.4 259.716 325.2Z" fill="url(#paint3_linear_1333_2)"/>
<path fill-rule="evenodd" clip-rule="evenodd" d="M263.416 290.6C256.316 304.7 259.916 307.5 247.716 323.4C250.816 327.4 254.616 330.2 258.216 331.5C263.116 324.7 273.716 314.6 277.416 303.5C283.516 286.2 269.716 279.2 263.416 290.6Z" fill="#5981B0"/>
<path fill-rule="evenodd" clip-rule="evenodd" d="M183.315 240.1C184.215 242.1 185.115 244.1 186.015 246C186.915 248 184.815 250.9 182.215 249.4C182.315 251.6 179.515 253.4 177.515 251.7C177.615 254.2 174.115 255.7 172.415 254C171.915 257 168.415 256.6 167.515 254.7C166.615 252.9 165.815 251.1 164.815 249C162.115 243.2 180.715 234.5 183.315 240.1Z" fill="url(#paint4_linear_1333_2)"/>
<path fill-rule="evenodd" clip-rule="evenodd" d="M259.016 243C255.016 258.7 266.716 273.6 262.816 292.7C260.516 304.4 274.416 313.1 280.916 294.8C285.616 281.5 283.616 261.2 280.316 247.8C276.616 233.9 263.116 226.7 259.016 243Z" fill="#5981B0"/>
<path d="M289 25H284V210H289V25Z" fill="#ECE1F8"/>
<path fill-rule="evenodd" clip-rule="evenodd" d="M283.016 228.7H292.416C294.116 228.7 295.416 227.4 295.416 225.7V211.1C295.416 209.4 294.116 208.1 292.416 208.1H283.016C281.316 208.1 280.016 209.4 280.016 211.1V225.7C280.016 227.4 281.316 228.7 283.016 228.7Z" fill="#ECE1F8"/>
<path fill-rule="evenodd" clip-rule="evenodd" d="M292.616 226.7C292.216 226 292.516 225.3 293.116 224.9C293.716 224.5 294.516 224.8 294.916 225.4C298.116 231.4 300.016 239.1 300.416 246.9C300.816 255 299.916 263.2 297.416 269.7C297.116 270.4 296.416 270.7 295.716 270.5C295.116 270.2 294.716 269.5 294.916 268.8C297.116 262.7 298.116 254.9 297.816 247.1C297.316 239.7 295.616 232.3 292.616 226.7ZM280.716 227.4C280.316 226.7 280.616 226 281.216 225.6C281.816 225.2 282.616 225.5 283.016 226.1C286.216 232.1 288.116 239.8 288.516 247.6C288.916 255.7 288.016 263.9 285.516 270.4C285.216 271.1 284.516 271.4 283.816 271.2C283.116 270.9 282.816 270.2 283.016 269.5C285.216 263.4 286.216 255.6 285.916 247.8C285.316 240.4 283.616 233 280.716 227.4ZM286.516 227.2C289.516 232.8 291.216 240.2 291.716 247.6C292.116 255.4 291.216 263.2 288.816 269.3C288.516 270 288.916 270.7 289.616 271C290.216 271.3 291.016 270.9 291.316 270.2C293.616 263.8 294.716 255.6 294.316 247.4C293.916 239.6 292.116 231.9 288.816 225.9C288.416 225.2 287.616 225 287.016 225.4C286.416 225.8 286.216 226.6 286.516 227.2Z" fill="#ECE1F8"/>
<path fill-rule="evenodd" clip-rule="evenodd" d="M308.107 421.959C295.721 437.107 273.375 439.366 258.143 426.98C242.911 414.594 240.568 392.248 252.954 377.016C265.341 361.868 287.686 359.608 302.918 371.995C318.067 384.381 320.41 406.727 308.107 421.959Z" fill="#51B18B"/>
<path fill-rule="evenodd" clip-rule="evenodd" d="M294.131 410.577C293.461 411.414 292.457 411.916 291.369 411.999C290.281 412.083 289.276 411.832 288.356 411.079C287.519 410.409 287.017 409.405 286.849 408.317C286.766 407.313 287.017 406.225 287.77 405.304C288.44 404.467 289.444 403.965 290.532 403.881C291.536 403.798 292.624 404.049 293.545 404.802C294.382 405.471 294.884 406.476 295.051 407.564C295.135 408.652 294.884 409.74 294.131 410.577ZM264.922 408.652C264.504 405.974 264.839 403.044 265.759 400.031C266.68 397.102 268.27 394.173 270.446 391.495C272.706 388.733 275.3 386.557 277.978 385.051C280.74 383.544 283.669 382.624 286.347 382.54C287.686 382.456 288.691 381.368 288.607 380.029C288.523 378.69 287.435 377.686 286.096 377.77C282.665 377.937 279.066 379.025 275.635 380.95C272.371 382.791 269.274 385.302 266.68 388.482C264.085 391.662 262.244 395.094 261.156 398.609C259.984 402.291 259.65 405.974 260.068 409.321C260.235 410.66 261.491 411.497 262.746 411.33C264.169 411.162 265.09 409.907 264.922 408.652ZM274.128 408.317C273.794 406.559 273.961 404.635 274.547 402.71C275.133 400.785 276.137 398.86 277.56 397.102C278.982 395.345 280.74 393.922 282.497 393.001L282.581 392.918C284.339 391.997 286.18 391.495 287.937 391.411C289.276 391.411 290.281 390.323 290.281 388.984C290.281 387.645 289.193 386.641 287.854 386.641C285.343 386.725 282.749 387.394 280.321 388.649L280.154 388.733C277.811 389.989 275.635 391.746 273.794 394.006C271.952 396.265 270.697 398.692 269.944 401.203C269.191 403.881 268.939 406.559 269.358 408.987C269.609 410.326 270.781 411.162 272.12 410.995C273.459 410.828 274.379 409.656 274.128 408.317ZM283.334 407.899C283.167 407.062 283.167 406.141 283.334 405.304C283.585 404.467 284.004 403.547 284.59 402.793C285.259 402.04 286.013 401.454 286.849 401.036C287.686 400.617 288.607 400.45 289.444 400.534C290.783 400.617 291.871 399.613 291.955 398.274C292.038 396.935 290.95 395.847 289.695 395.763C288.105 395.68 286.431 396.014 284.841 396.768C283.334 397.437 281.995 398.441 280.907 399.864C279.819 401.203 279.066 402.71 278.731 404.216C278.313 405.806 278.313 407.48 278.731 409.07C279.066 410.326 280.321 411.162 281.577 410.828C282.832 410.493 283.585 409.238 283.334 407.899Z" fill="white"/>
<path d="M152 102L29.0005 102V48L165 48L152 74.999L165 102.001H152V102Z" fill="#8B6CB0"/>
<path d="M59.2205 80.001H52.7205L51.4805 83.001H48.1605L54.4005 69.001H57.6005L63.8605 83.001H60.4605L59.2205 80.001ZM58.2005 77.541L55.9805 72.181L53.7605 77.541H58.2005ZM71.1371 77.361H68.8971V83.001H65.6771V69.001H68.8971V74.661H71.2171L74.8971 69.001H78.3171L73.7371 75.761L78.4571 83.001H74.7771L71.1371 77.361ZM94.6549 80.361V85.961H91.6749V83.001H79.9749V69.001H83.1949V80.361H89.4349V69.001H92.6549V80.361H94.6549ZM96.7913 69.001H100.011V83.001H96.7913V69.001ZM114.67 69.001V83.001H111.47V79.281H108.51L106.03 83.001H102.61L105.53 78.781C104.584 78.3943 103.857 77.8143 103.35 77.041C102.844 76.2543 102.59 75.3143 102.59 74.221C102.59 73.141 102.837 72.2143 103.33 71.441C103.824 70.6543 104.524 70.0543 105.43 69.641C106.337 69.2143 107.404 69.001 108.63 69.001H114.67ZM108.71 71.641C107.79 71.641 107.084 71.8543 106.59 72.281C106.11 72.7076 105.87 73.341 105.87 74.181C105.87 74.9943 106.104 75.621 106.57 76.061C107.037 76.501 107.724 76.721 108.63 76.721H111.47V71.641H108.71ZM117.478 69.001H121.198L120.578 78.141H118.098L117.478 69.001ZM119.338 83.161C118.791 83.161 118.331 82.9876 117.958 82.641C117.598 82.281 117.418 81.8476 117.418 81.341C117.418 80.8343 117.598 80.4143 117.958 80.081C118.318 79.7343 118.778 79.561 119.338 79.561C119.898 79.561 120.358 79.7343 120.718 80.081C121.078 80.4143 121.258 80.8343 121.258 81.341C121.258 81.8476 121.071 82.281 120.698 82.641C120.338 82.9876 119.885 83.161 119.338 83.161Z" fill="white"/>
<path d="M516.736 236.419C545.309 250.986 580.346 239.504 594.993 210.773C609.64 182.042 598.351 146.942 569.778 132.375C541.206 117.809 506.169 129.291 491.521 158.022C476.874 186.753 488.163 221.853 516.736 236.419Z" fill="#DC662D"/>
<path fill-rule="evenodd" clip-rule="evenodd" d="M549.691 169.376C555.897 164.665 560.66 163.282 566.699 166.361C573.544 169.85 576.204 178.065 572.709 184.921C566.438 197.221 547.785 203.462 529.235 209.501C523.226 190.941 517.319 172.18 523.59 159.88C527.085 153.024 535.296 150.351 542.14 153.84C548.38 157.022 549.858 161.586 549.691 169.376Z" fill="white"/>
<path d="M379.166 78V51.872L381.512 54.218H369.736V45.8H399.268V54.218H387.492L389.838 51.872V78H379.166ZM413.488 78.46C410.422 78.46 407.738 77.8927 405.438 76.758C403.169 75.6233 401.406 74.0747 400.148 72.112C398.891 70.1187 398.262 67.88 398.262 65.396C398.262 62.8507 398.876 60.5967 400.102 58.634C401.36 56.6713 403.062 55.138 405.208 54.034C407.386 52.93 409.824 52.378 412.522 52.378C415.006 52.378 417.291 52.8687 419.376 53.85C421.492 54.8313 423.179 56.288 424.436 58.22C425.724 60.152 426.368 62.544 426.368 65.396C426.368 65.764 426.353 66.178 426.322 66.638C426.292 67.0673 426.261 67.466 426.23 67.834H406.864V62.82H420.71L416.8 64.154C416.8 63.1727 416.616 62.3447 416.248 61.67C415.911 60.9647 415.436 60.428 414.822 60.06C414.209 59.6613 413.473 59.462 412.614 59.462C411.756 59.462 411.004 59.6613 410.36 60.06C409.747 60.428 409.272 60.9647 408.934 61.67C408.597 62.3447 408.428 63.1727 408.428 64.154V65.718C408.428 66.7913 408.643 67.7113 409.072 68.478C409.502 69.2447 410.115 69.8273 410.912 70.226C411.71 70.594 412.676 70.778 413.81 70.778C414.976 70.778 415.926 70.6247 416.662 70.318C417.429 70.0113 418.226 69.5513 419.054 68.938L424.482 74.412C423.256 75.7307 421.738 76.7427 419.928 77.448C418.15 78.1227 416.003 78.46 413.488 78.46ZM428.174 78L428.588 69.582C428.772 69.6127 428.956 69.6433 429.14 69.674C429.324 69.674 429.493 69.674 429.646 69.674C430.321 69.674 430.857 69.5513 431.256 69.306C431.655 69.03 431.961 68.6467 432.176 68.156C432.421 67.6347 432.59 67.0213 432.682 66.316C432.774 65.58 432.835 64.7367 432.866 63.786L433.234 52.838H457.246V78H446.85V58.772L449.104 60.934H440.088L442.204 58.634L441.974 64.2C441.882 66.4693 441.683 68.5087 441.376 70.318C441.069 72.0967 440.579 73.6147 439.904 74.872C439.26 76.0987 438.371 77.0493 437.236 77.724C436.132 78.368 434.721 78.69 433.004 78.69C432.329 78.69 431.578 78.6287 430.75 78.506C429.953 78.3833 429.094 78.2147 428.174 78ZM475.705 78.46C472.639 78.46 469.955 77.8927 467.655 76.758C465.386 75.6233 463.623 74.0747 462.365 72.112C461.108 70.1187 460.479 67.88 460.479 65.396C460.479 62.8507 461.093 60.5967 462.319 58.634C463.577 56.6713 465.279 55.138 467.425 54.034C469.603 52.93 472.041 52.378 474.739 52.378C477.223 52.378 479.508 52.8687 481.593 53.85C483.709 54.8313 485.396 56.288 486.653 58.22C487.941 60.152 488.585 62.544 488.585 65.396C488.585 65.764 488.57 66.178 488.539 66.638C488.509 67.0673 488.478 67.466 488.447 67.834H469.081V62.82H482.927L479.017 64.154C479.017 63.1727 478.833 62.3447 478.465 61.67C478.128 60.9647 477.653 60.428 477.039 60.06C476.426 59.6613 475.69 59.462 474.831 59.462C473.973 59.462 473.221 59.6613 472.577 60.06C471.964 60.428 471.489 60.9647 471.151 61.67C470.814 62.3447 470.645 63.1727 470.645 64.154V65.718C470.645 66.7913 470.86 67.7113 471.289 68.478C471.719 69.2447 472.332 69.8273 473.129 70.226C473.927 70.594 474.893 70.778 476.027 70.778C477.193 70.778 478.143 70.6247 478.879 70.318C479.646 70.0113 480.443 69.5513 481.271 68.938L486.699 74.412C485.473 75.7307 483.955 76.7427 482.145 77.448C480.367 78.1227 478.22 78.46 475.705 78.46ZM505.939 78.736C503.915 78.736 501.998 78.46 500.189 77.908C498.41 77.356 496.846 76.4513 495.497 75.194C494.147 73.9367 493.089 72.2807 492.323 70.226C491.556 68.1713 491.173 65.6413 491.173 62.636C491.173 60.7347 491.341 58.9713 491.679 57.346C492.016 55.69 492.537 54.172 493.243 52.792C493.948 51.412 494.853 50.2007 495.957 49.158C497.061 48.0847 498.379 47.1953 499.913 46.49C501.446 45.754 503.194 45.202 505.157 44.834L517.669 42.58L519.049 51.09L508.469 52.976C507.794 53.0987 507.104 53.252 506.399 53.436C505.693 53.5893 505.019 53.8193 504.375 54.126C503.731 54.402 503.148 54.8007 502.627 55.322C502.105 55.8433 501.691 56.518 501.385 57.346C501.109 58.174 500.971 59.2013 500.971 60.428C500.971 60.796 500.986 61.1027 501.017 61.348C501.047 61.5933 501.078 61.8847 501.109 62.222C501.139 62.5287 501.155 63.0193 501.155 63.694L498.533 61.394C499.33 60.29 500.235 59.3547 501.247 58.588C502.259 57.7907 503.409 57.1773 504.697 56.748C505.985 56.3187 507.441 56.104 509.067 56.104C511.52 56.104 513.605 56.564 515.323 57.484C517.071 58.404 518.389 59.6767 519.279 61.302C520.199 62.8967 520.659 64.7213 520.659 66.776C520.659 69.2907 520.015 71.4373 518.727 73.216C517.439 74.9947 515.691 76.3593 513.483 77.31C511.275 78.2607 508.76 78.736 505.939 78.736ZM506.123 71.054C506.92 71.054 507.61 70.8853 508.193 70.548C508.775 70.18 509.235 69.6893 509.573 69.076C509.91 68.4627 510.079 67.7727 510.079 67.006C510.079 66.2087 509.91 65.534 509.573 64.982C509.235 64.43 508.76 64.0007 508.147 63.694C507.564 63.3873 506.889 63.234 506.123 63.234C505.325 63.234 504.62 63.3873 504.007 63.694C503.393 64.0007 502.918 64.43 502.581 64.982C502.243 65.5033 502.075 66.132 502.075 66.868C502.075 67.6653 502.243 68.386 502.581 69.03C502.918 69.6433 503.393 70.134 504.007 70.502C504.62 70.87 505.325 71.054 506.123 71.054ZM537.903 78V73.538L537.167 72.342V63.878C537.167 62.6513 536.784 61.716 536.017 61.072C535.281 60.428 534.07 60.106 532.383 60.106C531.248 60.106 530.098 60.29 528.933 60.658C527.768 60.9953 526.771 61.4707 525.943 62.084L522.631 55.23C524.103 54.31 525.866 53.6047 527.921 53.114C529.976 52.6233 531.984 52.378 533.947 52.378C538.271 52.378 541.614 53.344 543.975 55.276C546.367 57.208 547.563 60.2747 547.563 64.476V78H537.903ZM530.773 78.46C528.718 78.46 527.001 78.1073 525.621 77.402C524.241 76.6967 523.198 75.7613 522.493 74.596C521.788 73.4 521.435 72.0813 521.435 70.64C521.435 69.0147 521.849 67.6347 522.677 66.5C523.505 65.3653 524.762 64.5067 526.449 63.924C528.166 63.3413 530.328 63.05 532.935 63.05H538.179V68.064H534.591C533.487 68.064 532.674 68.248 532.153 68.616C531.662 68.9533 531.417 69.4747 531.417 70.18C531.417 70.7627 531.632 71.2533 532.061 71.652C532.521 72.02 533.134 72.204 533.901 72.204C534.606 72.204 535.25 72.02 535.833 71.652C536.446 71.2533 536.891 70.64 537.167 69.812L538.501 72.894C538.102 74.7647 537.259 76.16 535.971 77.08C534.683 78 532.95 78.46 530.773 78.46ZM567.715 69.076C567.041 69.5667 566.167 69.9807 565.093 70.318C564.051 70.6247 562.763 70.778 561.229 70.778C557.611 70.778 554.897 69.9807 553.087 68.386C551.309 66.7607 550.419 64.1387 550.419 60.52V52.838H560.769V59.83C560.769 61.118 561.015 62.0073 561.505 62.498C561.996 62.958 562.732 63.188 563.713 63.188C564.572 63.188 565.323 63.096 565.967 62.912C566.642 62.6973 567.209 62.4213 567.669 62.084L567.715 69.076ZM567.025 78V52.838H577.375V78H567.025ZM595.826 78.46C592.76 78.46 590.076 77.8927 587.776 76.758C585.507 75.6233 583.744 74.0747 582.486 72.112C581.229 70.1187 580.6 67.88 580.6 65.396C580.6 62.8507 581.214 60.5967 582.44 58.634C583.698 56.6713 585.4 55.138 587.546 54.034C589.724 52.93 592.162 52.378 594.86 52.378C597.344 52.378 599.629 52.8687 601.714 53.85C603.83 54.8313 605.517 56.288 606.774 58.22C608.062 60.152 608.706 62.544 608.706 65.396C608.706 65.764 608.691 66.178 608.66 66.638C608.63 67.0673 608.599 67.466 608.568 67.834H589.202V62.82H603.048L599.138 64.154C599.138 63.1727 598.954 62.3447 598.586 61.67C598.249 60.9647 597.774 60.428 597.16 60.06C596.547 59.6613 595.811 59.462 594.952 59.462C594.094 59.462 593.342 59.6613 592.698 60.06C592.085 60.428 591.61 60.9647 591.272 61.67C590.935 62.3447 590.766 63.1727 590.766 64.154V65.718C590.766 66.7913 590.981 67.7113 591.41 68.478C591.84 69.2447 592.453 69.8273 593.25 70.226C594.048 70.594 595.014 70.778 596.148 70.778C597.314 70.778 598.264 70.6247 599 70.318C599.767 70.0113 600.564 69.5513 601.392 68.938L606.82 74.412C605.594 75.7307 604.076 76.7427 602.266 77.448C600.488 78.1227 598.341 78.46 595.826 78.46ZM612.444 78V52.838H622.794V61.67H629.878V52.838H640.228V78H629.878V69.812H622.794V78H612.444ZM645.102 78V52.838H655.452V61.67H662.536V52.838H672.886V78H662.536V69.812H655.452V78H645.102ZM693.492 78V70.088L694.78 71.606H689.03C685.136 71.606 682.054 70.824 679.784 69.26C677.515 67.6653 676.38 65.4267 676.38 62.544C676.38 59.4773 677.546 57.1007 679.876 55.414C682.238 53.6967 685.427 52.838 689.444 52.838H702.692V78H693.492ZM675.874 78L682.452 68.478H692.94L686.868 78H675.874ZM693.492 67.006V58.404L694.78 60.888H689.674C688.816 60.888 688.156 61.0567 687.696 61.394C687.236 61.7007 687.006 62.2067 687.006 62.912C687.006 64.384 687.896 65.12 689.674 65.12H694.78L693.492 67.006Z" fill="white"/>
<path fill-rule="evenodd" clip-rule="evenodd" d="M345.968 334.016C337.54 334.016 330.984 327.46 330.984 319.032C330.984 310.603 337.54 304.048 345.968 304.048C354.397 304.048 360.952 310.603 360.952 319.032C360.952 327.46 354.397 334.016 345.968 334.016ZM341.286 341.508V349H350.651V341.508C353.46 340.571 355.333 339.635 358.143 338.698L363.762 344.317L370.317 337.762L364.698 332.143C365.635 330.27 367.508 327.46 367.508 324.651H375V314.349H367.508C366.571 311.54 365.635 309.667 364.698 306.857L370.317 301.238L363.762 294.683L358.143 300.302C356.27 299.365 353.46 297.492 350.651 297.492V290H341.286V297.492C338.476 298.429 336.603 299.365 333.794 300.302L328.175 294.683L321.619 301.238L327.238 306.857C326.302 308.73 324.429 311.54 324.429 314.349H316V324.651H323.492C324.429 327.46 325.365 329.333 326.302 332.143L320.683 337.762L327.238 344.317L332.857 338.698C335.667 339.635 338.476 340.571 341.286 341.508Z" fill="#EDE2F9"/>
<path d="M473.42 408.069C497.046 394.291 505.086 364.066 491.377 340.56C477.669 317.055 447.404 309.169 423.778 322.948C400.152 336.726 392.113 366.951 405.821 390.456C419.529 413.962 449.794 421.847 473.42 408.069Z" fill="#8B6CB0"/>
<path fill-rule="evenodd" clip-rule="evenodd" d="M464.696 347.314C465.277 338.813 462.873 335.357 459.948 334.342C453.943 332.209 446.076 338.545 442.082 342.526C430.941 345.915 423.823 356.867 425.32 368.431C428.62 360.094 431.448 356.113 433.617 354.168C430.535 360.046 427.314 369.018 426.225 376.648C425.451 382.152 425.825 392.622 430.404 395.976C436.053 400.163 444.862 390.945 446.554 389.181C460.643 390.681 473.163 379.493 473.025 365.095L461.268 369.426C459.339 379.781 444.012 381.822 440.363 371.901L472.44 360.093C471.22 355.169 468.556 350.601 464.696 347.314ZM463.741 346.51C459.664 343.35 454.619 341.531 449.423 341.452C456.831 333.828 463.906 334.463 463.741 346.51ZM432.598 393.239C430.876 391.62 429.801 387.777 430.466 380.588C434.097 384.98 439.099 387.893 444.657 388.927C442.246 391.79 436.325 396.798 432.598 393.239ZM437.978 365.811C436.286 360.578 439.266 354.857 444.703 352.852C450.214 350.804 456.17 353.355 458.224 358.375L437.978 365.811Z" fill="white"/>
<path d="M620.356 408.996L620.354 309.691L633.699 322.637H599.943L599.943 298.482H651.44L651.443 408.996H620.356ZM716.486 411.206C707.065 411.206 698.692 408.944 691.365 404.418C684.142 399.892 678.438 393.366 674.251 384.841C670.064 376.315 667.97 365.948 667.97 353.739C667.97 341.53 670.063 331.162 674.25 322.637C678.436 314.112 684.14 307.586 691.363 303.06C698.689 298.534 707.063 296.271 716.483 296.271C725.799 296.271 734.068 298.534 741.29 303.06C748.617 307.586 754.374 314.112 758.561 322.637C762.748 331.162 764.841 341.53 764.842 353.739C764.842 365.948 762.749 376.315 758.562 384.841C754.376 393.366 748.619 399.892 741.292 404.418C734.07 408.944 725.801 411.206 716.486 411.206ZM716.485 385.63C719.835 385.63 722.765 384.578 725.277 382.473C727.894 380.368 729.935 377 731.4 372.369C732.865 367.632 733.598 361.422 733.598 353.739C733.598 345.95 732.865 339.74 731.399 335.109C729.934 330.478 727.893 327.11 725.276 325.005C722.764 322.9 719.833 321.848 716.484 321.848C713.134 321.848 710.151 322.9 707.535 325.005C705.022 327.11 702.981 330.478 701.412 335.109C699.946 339.74 699.214 345.95 699.214 353.739C699.214 361.422 699.947 367.632 701.412 372.369C702.983 377 705.024 380.368 707.536 382.473C710.153 384.578 713.136 385.63 716.485 385.63ZM823.966 411.206C814.546 411.206 806.172 408.944 798.845 404.418C791.623 399.892 785.918 393.366 781.731 384.841C777.544 376.315 775.451 365.948 775.451 353.739C775.45 341.53 777.543 331.162 781.73 322.637C785.917 314.112 791.621 307.586 798.843 303.06C806.17 298.534 814.543 296.271 823.964 296.271C833.279 296.271 841.548 298.534 848.771 303.06C856.097 307.586 861.854 314.112 866.041 322.637C870.228 331.162 872.322 341.53 872.322 353.739C872.323 365.948 870.229 376.315 866.043 384.841C861.856 393.366 856.1 399.892 848.773 404.418C841.551 408.944 833.282 411.206 823.966 411.206ZM823.966 385.63C827.315 385.63 830.246 384.578 832.758 382.473C835.375 380.368 837.416 377 838.881 372.369C840.346 367.632 841.079 361.422 841.078 353.739C841.078 345.95 840.345 339.74 838.88 335.109C837.414 330.478 835.373 327.11 832.757 325.005C830.244 322.9 827.314 321.848 823.964 321.848C820.615 321.848 817.632 322.9 815.015 325.005C812.503 327.11 810.462 330.478 808.892 335.109C807.427 339.74 806.694 345.95 806.694 353.739C806.695 361.422 807.427 367.632 808.893 372.369C810.463 377 812.504 380.368 815.016 382.473C817.633 384.578 820.616 385.63 823.966 385.63Z" fill="#DC662D"/>
<path d="M519.28 405.345L523.249 395.94C525.268 396.978 527.376 397.767 529.574 398.308C531.772 398.85 533.903 399.165 535.966 399.256C538.029 399.346 539.891 399.21 541.551 398.85C543.255 398.444 544.601 397.835 545.588 397.023C546.575 396.211 547.068 395.151 547.068 393.843C547.068 392.399 546.462 391.362 545.251 390.731C544.085 390.054 542.537 389.716 540.609 389.716H528.565L528.564 379.905H539.532C541.326 379.905 542.717 379.544 543.703 378.823C544.69 378.101 545.184 377.131 545.184 375.913C545.183 374.741 544.757 373.816 543.905 373.139C543.053 372.418 541.909 371.922 540.474 371.651C539.038 371.335 537.423 371.222 535.629 371.313C533.835 371.403 531.973 371.741 530.044 372.327C528.116 372.869 526.254 373.613 524.46 374.56L520.557 364.547C523.742 362.968 527.084 361.886 530.583 361.299C534.081 360.713 537.49 360.577 540.81 360.893C544.129 361.209 547.134 361.953 549.826 363.126C552.517 364.254 554.648 365.765 556.218 367.659C557.833 369.553 558.64 371.786 558.64 374.357C558.64 376.613 558.035 378.62 556.824 380.379C555.613 382.138 553.975 383.514 551.912 384.506C549.849 385.498 547.471 385.994 544.78 385.994L545.116 383.153C548.211 383.153 550.903 383.694 553.191 384.777C555.523 385.859 557.317 387.348 558.573 389.242C559.874 391.091 560.525 393.234 560.525 395.67C560.525 397.97 559.919 400.022 558.708 401.827C557.542 403.586 555.905 405.074 553.797 406.292C551.688 407.51 549.266 408.412 546.53 408.998C543.839 409.63 540.945 409.923 537.85 409.878C534.755 409.878 531.615 409.495 528.43 408.728C525.291 407.961 522.24 406.833 519.28 405.345ZM588.587 408.998L588.587 402.165L587.712 400.473L587.712 387.889C587.712 385.859 587.084 384.303 585.828 383.22C584.616 382.093 582.665 381.529 579.974 381.529C578.224 381.529 576.453 381.822 574.658 382.409C572.864 382.95 571.339 383.717 570.083 384.709L565.777 375.981C567.84 374.628 570.307 373.59 573.178 372.869C576.094 372.102 578.987 371.719 581.858 371.719C587.779 371.719 592.354 373.094 595.584 375.846C598.858 378.552 600.495 382.815 600.496 388.633L600.496 408.998H588.587ZM577.821 409.607C574.906 409.607 572.439 409.111 570.42 408.119C568.401 407.127 566.854 405.773 565.777 404.059C564.746 402.345 564.23 400.428 564.23 398.308C564.23 396.053 564.79 394.114 565.912 392.49C567.078 390.821 568.85 389.558 571.227 388.701C573.604 387.799 576.677 387.348 580.445 387.348H589.057L589.057 394.046H582.194C580.131 394.046 578.673 394.384 577.821 395.061C577.014 395.737 576.61 396.639 576.61 397.767C576.61 398.895 577.036 399.797 577.888 400.473C578.741 401.15 579.907 401.488 581.387 401.488C582.778 401.488 584.034 401.15 585.155 400.473C586.321 399.752 587.174 398.669 587.712 397.226L589.461 401.962C588.789 404.488 587.465 406.405 585.492 407.713C583.563 408.976 581.006 409.607 577.821 409.607Z" fill="#5F6061"/>
<path d="M882.075 408.998L882.074 374.311H910.968L910.969 383.975H891.493L894.103 381.351L894.103 408.998H882.075ZM937.402 409.574C934.474 409.574 931.971 408.934 929.892 407.654C927.813 406.332 926.222 404.369 925.118 401.767C924.058 399.121 923.527 395.751 923.527 391.655C923.527 387.516 924.036 384.146 925.054 381.543C926.073 378.898 927.6 376.935 929.637 375.655C931.716 374.375 934.304 373.735 937.401 373.735C940.541 373.735 943.384 374.482 945.93 375.975C948.518 377.426 950.554 379.495 952.04 382.183C953.567 384.828 954.331 387.986 954.331 391.655C954.331 395.324 953.567 398.503 952.04 401.191C950.555 403.879 948.518 405.948 945.93 407.399C943.384 408.849 940.542 409.574 937.402 409.574ZM915.699 421.414L915.698 374.311H927.218L927.218 380.199L927.155 391.655L927.791 403.175L927.792 421.414H915.699ZM934.856 399.911C936.214 399.911 937.423 399.591 938.484 398.951C939.587 398.311 940.457 397.372 941.093 396.135C941.772 394.897 942.111 393.404 942.111 391.655C942.111 389.906 941.772 388.412 941.093 387.175C940.456 385.938 939.587 384.999 938.483 384.359C937.423 383.719 936.213 383.399 934.856 383.399C933.498 383.399 932.267 383.719 931.164 384.359C930.104 384.999 929.234 385.938 928.555 387.175C927.918 388.412 927.6 389.906 927.6 391.655C927.6 393.404 927.919 394.897 928.555 396.135C929.234 397.372 930.104 398.311 931.165 398.951C932.268 399.591 933.498 399.911 934.856 399.911ZM960.138 408.998L960.138 374.311H972.166L972.167 387.175H984.577L984.577 374.311H996.669L996.67 408.998H984.578L984.578 396.839H972.167L972.167 408.998H960.138ZM998.398 415.398L1019.4 355.112H1030.16L1009.15 415.398H998.398ZM1027.26 408.998L1027.26 374.311H1039.99L1052.02 396.967H1046.99L1060.17 374.311H1071.56L1071.62 408.998H1060.74L1060.74 386.343L1062.59 387.623L1051.89 405.927H1046.74L1036.05 386.727L1038.15 386.151L1038.15 408.998H1027.26ZM1079.78 408.998L1079.78 374.311H1091.87L1091.87 408.998H1079.78ZM1085.83 370.471C1083.62 370.471 1081.84 369.853 1080.48 368.615C1079.12 367.378 1078.44 365.842 1078.44 364.008C1078.44 362.173 1079.12 360.637 1080.48 359.4C1081.84 358.162 1083.62 357.544 1085.83 357.544C1088.03 357.544 1089.82 358.141 1091.17 359.336C1092.53 360.488 1093.21 361.981 1093.21 363.816C1093.21 365.736 1092.53 367.335 1091.17 368.615C1089.86 369.853 1088.08 370.471 1085.83 370.471ZM1117.36 409.574C1113.54 409.574 1110.12 408.806 1107.11 407.271C1104.14 405.735 1101.8 403.623 1100.11 400.935C1098.41 398.204 1097.56 395.089 1097.56 391.591C1097.56 388.092 1098.41 384.999 1100.11 382.311C1101.8 379.623 1104.14 377.533 1107.11 376.039C1110.12 374.503 1113.54 373.735 1117.35 373.735C1121.26 373.735 1124.63 374.567 1127.47 376.231C1130.32 377.895 1132.33 380.242 1133.52 383.271L1124.16 388.071C1123.36 386.45 1122.36 385.276 1121.17 384.551C1119.99 383.783 1118.69 383.399 1117.29 383.399C1115.89 383.399 1114.62 383.719 1113.47 384.359C1112.33 384.999 1111.41 385.938 1110.74 387.175C1110.1 388.37 1109.78 389.842 1109.78 391.591C1109.78 393.383 1110.1 394.897 1110.74 396.135C1111.41 397.372 1112.33 398.311 1113.47 398.951C1114.62 399.591 1115.89 399.911 1117.29 399.911C1118.69 399.911 1119.99 399.548 1121.17 398.823C1122.36 398.055 1123.36 396.86 1124.16 395.239L1133.52 400.039C1132.33 403.068 1130.32 405.415 1127.47 407.079C1124.63 408.742 1121.26 409.574 1117.36 409.574Z" fill="#5F6061"/>
<path fill-rule="evenodd" clip-rule="evenodd" d="M368.914 116L375.924 137.86L397.829 144.855L375.924 151.85L368.914 173.71L361.905 151.85L340 144.855L361.905 137.86L368.914 116Z" fill="#EDE2F9"/>
<path d="M820 98L316 98L316 25L820 25L793.097 61.5L820 98Z" fill="#51B18B"/>
<path d="M399.268 54.218H389.838V78H379.166V54.218H369.736V45.8H399.268V54.218ZM426.368 65.396C426.368 65.5493 426.322 66.362 426.23 67.834H408.75C409.118 68.7847 409.732 69.5207 410.59 70.042C411.449 70.5327 412.522 70.778 413.81 70.778C414.914 70.778 415.834 70.64 416.57 70.364C417.337 70.088 418.165 69.6127 419.054 68.938L424.482 74.412C422.029 77.1107 418.364 78.46 413.488 78.46C410.452 78.46 407.784 77.908 405.484 76.804C403.184 75.6693 401.406 74.1053 400.148 72.112C398.891 70.1187 398.262 67.88 398.262 65.396C398.262 62.8813 398.876 60.6427 400.102 58.68C401.36 56.6867 403.062 55.138 405.208 54.034C407.386 52.93 409.824 52.378 412.522 52.378C415.068 52.378 417.383 52.884 419.468 53.896C421.584 54.908 423.256 56.3953 424.482 58.358C425.74 60.3207 426.368 62.6667 426.368 65.396ZM412.614 59.462C411.541 59.462 410.652 59.7533 409.946 60.336C409.241 60.9187 408.781 61.7467 408.566 62.82H416.662C416.448 61.7773 415.988 60.9647 415.282 60.382C414.577 59.7687 413.688 59.462 412.614 59.462ZM457.246 52.838V78H446.85V60.934H442.112L441.974 64.2C441.851 67.4507 441.514 70.1187 440.962 72.204C440.41 74.2893 439.49 75.8993 438.202 77.034C436.945 78.138 435.212 78.69 433.004 78.69C431.624 78.69 430.014 78.46 428.174 78L428.588 69.582C429.079 69.6433 429.431 69.674 429.646 69.674C430.903 69.674 431.731 69.2293 432.13 68.34C432.529 67.42 432.774 65.902 432.866 63.786L433.234 52.838H457.246ZM488.585 65.396C488.585 65.5493 488.539 66.362 488.447 67.834H470.967C471.335 68.7847 471.949 69.5207 472.807 70.042C473.666 70.5327 474.739 70.778 476.027 70.778C477.131 70.778 478.051 70.64 478.787 70.364C479.554 70.088 480.382 69.6127 481.271 68.938L486.699 74.412C484.246 77.1107 480.581 78.46 475.705 78.46C472.669 78.46 470.001 77.908 467.701 76.804C465.401 75.6693 463.623 74.1053 462.365 72.112C461.108 70.1187 460.479 67.88 460.479 65.396C460.479 62.8813 461.093 60.6427 462.319 58.68C463.577 56.6867 465.279 55.138 467.425 54.034C469.603 52.93 472.041 52.378 474.739 52.378C477.285 52.378 479.6 52.884 481.685 53.896C483.801 54.908 485.473 56.3953 486.699 58.358C487.957 60.3207 488.585 62.6667 488.585 65.396ZM474.831 59.462C473.758 59.462 472.869 59.7533 472.163 60.336C471.458 60.9187 470.998 61.7467 470.783 62.82H478.879C478.665 61.7773 478.205 60.9647 477.499 60.382C476.794 59.7687 475.905 59.462 474.831 59.462ZM508.929 55.644C512.639 55.644 515.522 56.6407 517.577 58.634C519.631 60.6273 520.659 63.372 520.659 66.868C520.659 69.2293 520.015 71.3147 518.727 73.124C517.469 74.9027 515.737 76.2827 513.529 77.264C511.321 78.2453 508.852 78.736 506.123 78.736C501.645 78.736 498.027 77.402 495.267 74.734C492.537 72.066 491.173 67.9567 491.173 62.406C491.173 51.9487 495.834 45.8767 505.157 44.19L517.669 41.936L519.049 50.446L508.469 52.332C505.985 52.7613 504.191 53.4207 503.087 54.31C502.013 55.1993 501.354 56.5027 501.109 58.22C503.255 56.5027 505.862 55.644 508.929 55.644ZM506.123 71.054C507.38 71.054 508.346 70.64 509.021 69.812C509.726 68.984 510.079 67.9873 510.079 66.822C510.079 65.534 509.711 64.5373 508.975 63.832C508.269 63.1267 507.319 62.774 506.123 62.774C504.896 62.774 503.915 63.142 503.179 63.878C502.443 64.5833 502.075 65.58 502.075 66.868C502.075 68.0947 502.443 69.1067 503.179 69.904C503.945 70.6707 504.927 71.054 506.123 71.054ZM533.947 52.378C538.363 52.378 541.736 53.3747 544.067 55.368C546.398 57.3307 547.563 60.3667 547.563 64.476V78H537.903V74.688C536.707 77.2027 534.33 78.46 530.773 78.46C528.78 78.46 527.078 78.1227 525.667 77.448C524.287 76.7427 523.229 75.8073 522.493 74.642C521.788 73.446 521.435 72.112 521.435 70.64C521.435 68.156 522.386 66.27 524.287 64.982C526.188 63.694 529.071 63.05 532.935 63.05H537.121C536.784 61.0873 535.204 60.106 532.383 60.106C531.248 60.106 530.098 60.29 528.933 60.658C527.768 60.9953 526.771 61.4707 525.943 62.084L522.631 55.23C524.072 54.3407 525.805 53.6507 527.829 53.16C529.884 52.6387 531.923 52.378 533.947 52.378ZM533.901 72.204C534.637 72.204 535.296 72.0047 535.879 71.606C536.462 71.2073 536.891 70.6093 537.167 69.812V68.064H534.591C532.475 68.064 531.417 68.7693 531.417 70.18C531.417 70.7627 531.632 71.2533 532.061 71.652C532.521 72.02 533.134 72.204 533.901 72.204ZM577.375 52.838V78H567.025V69.49C565.553 70.3487 563.621 70.778 561.229 70.778C557.58 70.778 554.866 69.9653 553.087 68.34C551.309 66.684 550.419 64.0773 550.419 60.52V52.838H560.769V59.83C560.769 61.0873 560.999 61.9613 561.459 62.452C561.95 62.9427 562.701 63.188 563.713 63.188C564.94 63.188 566.044 62.958 567.025 62.498V52.838H577.375ZM608.706 65.396C608.706 65.5493 608.66 66.362 608.568 67.834H591.088C591.456 68.7847 592.07 69.5207 592.928 70.042C593.787 70.5327 594.86 70.778 596.148 70.778C597.252 70.778 598.172 70.64 598.908 70.364C599.675 70.088 600.503 69.6127 601.392 68.938L606.82 74.412C604.367 77.1107 600.702 78.46 595.826 78.46C592.79 78.46 590.122 77.908 587.822 76.804C585.522 75.6693 583.744 74.1053 582.486 72.112C581.229 70.1187 580.6 67.88 580.6 65.396C580.6 62.8813 581.214 60.6427 582.44 58.68C583.698 56.6867 585.4 55.138 587.546 54.034C589.724 52.93 592.162 52.378 594.86 52.378C597.406 52.378 599.721 52.884 601.806 53.896C603.922 54.908 605.594 56.3953 606.82 58.358C608.078 60.3207 608.706 62.6667 608.706 65.396ZM594.952 59.462C593.879 59.462 592.99 59.7533 592.284 60.336C591.579 60.9187 591.119 61.7467 590.904 62.82H599C598.786 61.7773 598.326 60.9647 597.62 60.382C596.915 59.7687 596.026 59.462 594.952 59.462ZM612.444 52.838H622.794V61.67H629.878V52.838H640.228V78H629.878V69.812H622.794V78H612.444V52.838ZM645.102 52.838H655.452V61.67H662.536V52.838H672.886V78H662.536V69.812H655.452V78H645.102V52.838ZM702.692 52.838V78H693.492V71.606H690.962L686.868 78H675.874L681.302 70.134C679.708 69.3673 678.481 68.34 677.622 67.052C676.794 65.764 676.38 64.2613 676.38 62.544C676.38 59.508 677.546 57.1313 679.876 55.414C682.207 53.6967 685.396 52.838 689.444 52.838H702.692ZM689.674 60.888C687.896 60.888 687.006 61.5627 687.006 62.912C687.006 63.6787 687.221 64.246 687.65 64.614C688.11 64.9513 688.785 65.12 689.674 65.12H693.492V60.888H689.674Z" fill="white"/>
<path d="M726 25H874V98H726L743.248 59.5L726 25Z" fill="white"/>
<path d="M756.622 78V45.8H772.124C775.129 45.8 777.721 46.2907 779.898 47.272C782.106 48.2533 783.808 49.664 785.004 51.504C786.2 53.3133 786.798 55.46 786.798 57.944C786.798 60.428 786.2 62.5747 785.004 64.384C783.808 66.1933 782.106 67.604 779.898 68.616C777.721 69.5973 775.129 70.088 772.124 70.088H762.648L767.478 65.442V78H756.622ZM767.478 66.638L762.648 61.716H771.434C772.937 61.716 774.041 61.3787 774.746 60.704C775.482 60.0293 775.85 59.1093 775.85 57.944C775.85 56.7787 775.482 55.8587 774.746 55.184C774.041 54.5093 772.937 54.172 771.434 54.172H762.648L767.478 49.25V66.638ZM807.69 78.736C805.083 78.736 802.66 78.322 800.422 77.494C798.214 76.666 796.297 75.5007 794.672 73.998C793.046 72.4647 791.774 70.6707 790.854 68.616C789.964 66.5613 789.52 64.3227 789.52 61.9C789.52 59.4467 789.964 57.208 790.854 55.184C791.774 53.1293 793.046 51.3507 794.672 49.848C796.297 48.3147 798.214 47.134 800.422 46.306C802.66 45.478 805.083 45.064 807.69 45.064C810.327 45.064 812.75 45.478 814.958 46.306C817.166 47.134 819.082 48.3147 820.708 49.848C822.333 51.3507 823.59 53.1293 824.48 55.184C825.4 57.208 825.86 59.4467 825.86 61.9C825.86 64.3227 825.4 66.5613 824.48 68.616C823.59 70.6707 822.333 72.4647 820.708 73.998C819.082 75.5007 817.166 76.666 814.958 77.494C812.75 78.322 810.327 78.736 807.69 78.736ZM807.69 69.95C808.702 69.95 809.637 69.766 810.496 69.398C811.385 69.03 812.152 68.5087 812.796 67.834C813.47 67.1287 813.992 66.2853 814.36 65.304C814.728 64.292 814.912 63.1573 814.912 61.9C814.912 60.6427 814.728 59.5233 814.36 58.542C813.992 57.53 813.47 56.6867 812.796 56.012C812.152 55.3067 811.385 54.77 810.496 54.402C809.637 54.034 808.702 53.85 807.69 53.85C806.678 53.85 805.727 54.034 804.838 54.402C803.979 54.77 803.212 55.3067 802.538 56.012C801.894 56.6867 801.388 57.53 801.02 58.542C800.652 59.5233 800.468 60.6427 800.468 61.9C800.468 63.1573 800.652 64.292 801.02 65.304C801.388 66.2853 801.894 67.1287 802.538 67.834C803.212 68.5087 803.979 69.03 804.838 69.398C805.727 69.766 806.678 69.95 807.69 69.95ZM829.8 78V45.8H838.724L855.1 65.396H850.96V45.8H861.54V78H852.616L836.24 58.404H840.38V78H829.8Z" fill="#DC662D"/>
<path d="M869 25H1150C1155.52 25 1160 29.4772 1160 35V98H869L882.5 61.5L869 25Z" fill="#8B6CB0"/>
<path d="M912.3 77V51.838H922.696V77H912.3ZM917.498 49.814C915.597 49.814 914.079 49.308 912.944 48.296C911.809 47.284 911.242 46.0267 911.242 44.524C911.242 43.0213 911.809 41.764 912.944 40.752C914.079 39.74 915.597 39.234 917.498 39.234C919.399 39.234 920.917 39.7093 922.052 40.66C923.187 41.6107 923.754 42.8373 923.754 44.34C923.754 45.9347 923.187 47.2533 922.052 48.296C920.917 49.308 919.399 49.814 917.498 49.814ZM927.442 77V51.838H937.792V60.67H944.876V51.838H955.226V77H944.876V68.812H937.792V77H927.442ZM965.896 77V57.726L968.15 59.934H958.214V51.838H983.928V59.934H973.992L976.246 57.726V77H965.896ZM999.545 77.46C996.478 77.46 993.795 76.8927 991.495 75.758C989.226 74.6233 987.462 73.0747 986.205 71.112C984.948 69.1187 984.319 66.88 984.319 64.396C984.319 61.8507 984.932 59.5967 986.159 57.634C987.416 55.6713 989.118 54.138 991.265 53.034C993.442 51.93 995.88 51.378 998.579 51.378C1001.06 51.378 1003.35 51.8687 1005.43 52.85C1007.55 53.8313 1009.24 55.288 1010.49 57.22C1011.78 59.152 1012.43 61.544 1012.43 64.396C1012.43 64.764 1012.41 65.178 1012.38 65.638C1012.35 66.0673 1012.32 66.466 1012.29 66.834H992.921V61.82H1006.77L1002.86 63.154C1002.86 62.1727 1002.67 61.3447 1002.31 60.67C1001.97 59.9647 1001.49 59.428 1000.88 59.06C1000.27 58.6613 999.53 58.462 998.671 58.462C997.812 58.462 997.061 58.6613 996.417 59.06C995.804 59.428 995.328 59.9647 994.991 60.67C994.654 61.3447 994.485 62.1727 994.485 63.154V64.718C994.485 65.7913 994.7 66.7113 995.129 67.478C995.558 68.2447 996.172 68.8273 996.969 69.226C997.766 69.594 998.732 69.778 999.867 69.778C1001.03 69.778 1001.98 69.6247 1002.72 69.318C1003.49 69.0113 1004.28 68.5513 1005.11 67.938L1010.54 73.412C1009.31 74.7307 1007.79 75.7427 1005.99 76.448C1004.21 77.1227 1002.06 77.46 999.545 77.46ZM1032.95 77.46C1030.78 77.46 1028.97 77 1027.52 76.08C1026.11 75.1293 1025.07 73.7033 1024.4 71.802C1023.72 69.87 1023.38 67.4167 1023.38 64.442C1023.38 61.406 1023.69 58.9373 1024.3 57.036C1024.95 55.104 1025.98 53.678 1027.39 52.758C1028.8 51.838 1030.65 51.378 1032.95 51.378C1035.16 51.378 1037.18 51.9147 1039.02 52.988C1040.86 54.0307 1042.34 55.5333 1043.44 57.496C1044.54 59.428 1045.1 61.7433 1045.1 64.442C1045.1 67.1407 1044.54 69.4713 1043.44 71.434C1042.34 73.366 1040.86 74.8533 1039.02 75.896C1037.18 76.9387 1035.16 77.46 1032.95 77.46ZM1016.16 85.924V51.838H1026.05V55.242L1026.1 64.442L1026.56 73.642V85.924H1016.16ZM1030.47 69.364C1031.24 69.364 1031.93 69.18 1032.54 68.812C1033.15 68.444 1033.64 67.892 1034.01 67.156C1034.38 66.42 1034.56 65.5153 1034.56 64.442C1034.56 63.338 1034.38 62.418 1034.01 61.682C1033.64 60.946 1033.15 60.394 1032.54 60.026C1031.93 59.658 1031.24 59.474 1030.47 59.474C1029.7 59.474 1029.01 59.658 1028.4 60.026C1027.79 60.394 1027.29 60.946 1026.93 61.682C1026.56 62.418 1026.37 63.338 1026.37 64.442C1026.37 65.5153 1026.56 66.42 1026.93 67.156C1027.29 67.892 1027.79 68.444 1028.4 68.812C1029.01 69.18 1029.7 69.364 1030.47 69.364ZM1048.46 77V51.838H1058.81V60.67H1065.9V51.838H1076.25V77H1065.9V68.812H1058.81V77H1048.46ZM1094.69 77.46C1091.62 77.46 1088.94 76.8927 1086.64 75.758C1084.37 74.6233 1082.61 73.0747 1081.35 71.112C1080.09 69.1187 1079.46 66.88 1079.46 64.396C1079.46 61.8507 1080.08 59.5967 1081.3 57.634C1082.56 55.6713 1084.26 54.138 1086.41 53.034C1088.59 51.93 1091.02 51.378 1093.72 51.378C1096.21 51.378 1098.49 51.8687 1100.58 52.85C1102.69 53.8313 1104.38 55.288 1105.64 57.22C1106.93 59.152 1107.57 61.544 1107.57 64.396C1107.57 64.764 1107.55 65.178 1107.52 65.638C1107.49 66.0673 1107.46 66.466 1107.43 66.834H1088.07V61.82H1101.91L1098 63.154C1098 62.1727 1097.82 61.3447 1097.45 60.67C1097.11 59.9647 1096.64 59.428 1096.02 59.06C1095.41 58.6613 1094.67 58.462 1093.82 58.462C1092.96 58.462 1092.21 58.6613 1091.56 59.06C1090.95 59.428 1090.47 59.9647 1090.14 60.67C1089.8 61.3447 1089.63 62.1727 1089.63 63.154V64.718C1089.63 65.7913 1089.84 66.7113 1090.27 67.478C1090.7 68.2447 1091.32 68.8273 1092.11 69.226C1092.91 69.594 1093.88 69.778 1095.01 69.778C1096.18 69.778 1097.13 69.6247 1097.86 69.318C1098.63 69.0113 1099.43 68.5513 1100.26 67.938L1105.68 73.412C1104.46 74.7307 1102.94 75.7427 1101.13 76.448C1099.35 77.1227 1097.2 77.46 1094.69 77.46ZM1116.38 77V57.726L1118.64 59.934H1108.7V51.838H1134.42V59.934H1124.48L1126.73 57.726V77H1116.38Z" fill="white"/>
</g>
<defs>
<filter id="filter0_d_1333_2" x="0.000488281" y="0" width="1189" height="489" filterUnits="userSpaceOnUse" color-interpolation-filters="sRGB">
<feFlood flood-opacity="0" result="BackgroundImageFix"/>
<feColorMatrix in="SourceAlpha" type="matrix" values="0 0 0 0 0 0 0 0 0 0 0 0 0 0 0 0 0 0 127 0" result="hardAlpha"/>
<feOffset dy="4"/>
<feGaussianBlur stdDeviation="14.5"/>
<feColorMatrix type="matrix" values="0 0 0 0 0.901961 0 0 0 0 0.890196 0 0 0 0 0.890196 0 0 0 1 0"/>
<feBlend mode="normal" in2="BackgroundImageFix" result="effect1_dropShadow_1333_2"/>
<feBlend mode="normal" in="SourceGraphic" in2="effect1_dropShadow_1333_2" result="shape"/>
</filter>
<linearGradient id="paint0_linear_1333_2" x1="446.417" y1="203.432" x2="443.194" y2="204.404" gradientUnits="userSpaceOnUse">
<stop stop-color="#F8AA9D"/>
<stop offset="1" stop-color="#FBC7BB"/>
</linearGradient>
<linearGradient id="paint1_linear_1333_2" x1="451.04" y1="245.895" x2="446.941" y2="246.341" gradientUnits="userSpaceOnUse">
<stop stop-color="#F8AA9D"/>
<stop offset="1" stop-color="#FBC7BB"/>
</linearGradient>
<linearGradient id="paint2_linear_1333_2" x1="234.806" y1="231.554" x2="242.544" y2="202.382" gradientUnits="userSpaceOnUse">
<stop stop-color="#F8AA9D"/>
<stop offset="1" stop-color="#FBC7BB"/>
</linearGradient>
<linearGradient id="paint3_linear_1333_2" x1="250.707" y1="325.377" x2="241.941" y2="339.574" gradientUnits="userSpaceOnUse">
<stop stop-color="#F8AA9D"/>
<stop offset="1" stop-color="#FBC7BB"/>
</linearGradient>
<linearGradient id="paint4_linear_1333_2" x1="175.82" y1="248.302" x2="174.018" y2="244.075" gradientUnits="userSpaceOnUse">
<stop stop-color="#F8AA9D"/>
<stop offset="1" stop-color="#FBC7BB"/>
</linearGradient>
</defs>
</svg>
