<svg width="393" height="713" viewBox="0 0 393 713" fill="none" xmlns="http://www.w3.org/2000/svg">
<g filter="url(#filter0_d_1338_2)">
<rect x="29" y="25" width="335" height="655" rx="10" fill="white"/>
<g filter="url(#filter1_d_1338_2)">
<rect x="61" y="568" width="270" height="60" rx="30" fill="#DC662D"/>
<path d="M153.627 602.02V606.682H151.467V604H141.801V606.682H139.623L139.641 602.02H140.181C140.973 601.984 141.525 601.402 141.837 600.274C142.161 599.134 142.359 597.508 142.431 595.396L142.575 591.4H151.809V602.02H153.627ZM144.483 595.612C144.423 597.244 144.291 598.606 144.087 599.698C143.883 600.778 143.559 601.552 143.115 602.02H149.505V593.38H144.573L144.483 595.612ZM164.403 599.248C164.403 599.404 164.391 599.626 164.367 599.914H156.825C156.957 600.622 157.299 601.186 157.851 601.606C158.415 602.014 159.111 602.218 159.939 602.218C160.995 602.218 161.865 601.87 162.549 601.174L163.755 602.56C163.323 603.076 162.777 603.466 162.117 603.73C161.457 603.994 160.713 604.126 159.885 604.126C158.829 604.126 157.899 603.916 157.095 603.496C156.291 603.076 155.667 602.494 155.223 601.75C154.791 600.994 154.575 600.142 154.575 599.194C154.575 598.258 154.785 597.418 155.205 596.674C155.637 595.918 156.231 595.33 156.987 594.91C157.743 594.49 158.595 594.28 159.543 594.28C160.479 594.28 161.313 594.49 162.045 594.91C162.789 595.318 163.365 595.9 163.773 596.656C164.193 597.4 164.403 598.264 164.403 599.248ZM159.543 596.08C158.823 596.08 158.211 596.296 157.707 596.728C157.215 597.148 156.915 597.712 156.807 598.42H162.261C162.165 597.724 161.871 597.16 161.379 596.728C160.887 596.296 160.275 596.08 159.543 596.08ZM174.126 596.296H170.76V604H168.51V596.296H165.126V594.388H174.126V596.296ZM179.34 594.28C180.756 594.28 181.836 594.622 182.58 595.306C183.336 595.978 183.714 596.998 183.714 598.366V604H181.59V602.83C181.314 603.25 180.918 603.574 180.402 603.802C179.898 604.018 179.286 604.126 178.566 604.126C177.846 604.126 177.216 604.006 176.676 603.766C176.136 603.514 175.716 603.172 175.416 602.74C175.128 602.296 174.984 601.798 174.984 601.246C174.984 600.382 175.302 599.692 175.938 599.176C176.586 598.648 177.6 598.384 178.98 598.384H181.464V598.24C181.464 597.568 181.26 597.052 180.852 596.692C180.456 596.332 179.862 596.152 179.07 596.152C178.53 596.152 177.996 596.236 177.468 596.404C176.952 596.572 176.514 596.806 176.154 597.106L175.272 595.468C175.776 595.084 176.382 594.79 177.09 594.586C177.798 594.382 178.548 594.28 179.34 594.28ZM179.034 602.488C179.598 602.488 180.096 602.362 180.528 602.11C180.972 601.846 181.284 601.474 181.464 600.994V599.878H179.142C177.846 599.878 177.198 600.304 177.198 601.156C177.198 601.564 177.36 601.888 177.684 602.128C178.008 602.368 178.458 602.488 179.034 602.488ZM195.21 594.388V604H192.96V596.296H189.36L189.27 598.204C189.21 599.476 189.09 600.544 188.91 601.408C188.742 602.26 188.448 602.938 188.028 603.442C187.62 603.934 187.056 604.18 186.336 604.18C186 604.18 185.586 604.114 185.094 603.982L185.202 602.092C185.37 602.128 185.514 602.146 185.634 602.146C186.09 602.146 186.432 601.966 186.66 601.606C186.888 601.234 187.032 600.796 187.092 600.292C187.164 599.776 187.224 599.044 187.272 598.096L187.434 594.388H195.21ZM203.065 597.556C204.289 597.556 205.225 597.832 205.873 598.384C206.533 598.936 206.863 599.716 206.863 600.724C206.863 601.78 206.503 602.596 205.783 603.172C205.063 603.748 204.049 604.03 202.741 604.018L198.241 604V594.388H200.491V597.538L203.065 597.556ZM202.543 602.362C203.203 602.374 203.707 602.236 204.055 601.948C204.403 601.66 204.577 601.24 204.577 600.688C204.577 600.148 204.409 599.752 204.073 599.5C203.737 599.248 203.227 599.116 202.543 599.104L200.491 599.086V602.344L202.543 602.362ZM208.84 594.388H211.09V598.294H215.932V594.388H218.182V604H215.932V600.202H211.09V604H208.84V594.388ZM221.198 594.388H223.448V604H221.198V594.388ZM222.332 592.804C221.924 592.804 221.582 592.678 221.306 592.426C221.03 592.162 220.892 591.838 220.892 591.454C220.892 591.07 221.03 590.752 221.306 590.5C221.582 590.236 221.924 590.104 222.332 590.104C222.74 590.104 223.082 590.23 223.358 590.482C223.634 590.722 223.772 591.028 223.772 591.4C223.772 591.796 223.634 592.132 223.358 592.408C223.094 592.672 222.752 592.804 222.332 592.804ZM240.655 594.388V604H226.489V594.388H228.739V602.092H232.465V594.388H234.715V602.092H238.405V594.388H240.655ZM252.68 599.248C252.68 599.404 252.668 599.626 252.644 599.914H245.102C245.234 600.622 245.576 601.186 246.128 601.606C246.692 602.014 247.388 602.218 248.216 602.218C249.272 602.218 250.142 601.87 250.826 601.174L252.032 602.56C251.6 603.076 251.054 603.466 250.394 603.73C249.734 603.994 248.99 604.126 248.162 604.126C247.106 604.126 246.176 603.916 245.372 603.496C244.568 603.076 243.944 602.494 243.5 601.75C243.068 600.994 242.852 600.142 242.852 599.194C242.852 598.258 243.062 597.418 243.482 596.674C243.914 595.918 244.508 595.33 245.264 594.91C246.02 594.49 246.872 594.28 247.82 594.28C248.756 594.28 249.59 594.49 250.322 594.91C251.066 595.318 251.642 595.9 252.05 596.656C252.47 597.4 252.68 598.264 252.68 599.248ZM247.82 596.08C247.1 596.08 246.488 596.296 245.984 596.728C245.492 597.148 245.192 597.712 245.084 598.42H250.538C250.442 597.724 250.148 597.16 249.656 596.728C249.164 596.296 248.552 596.08 247.82 596.08Z" fill="white"/>
</g>
<path fill-rule="evenodd" clip-rule="evenodd" d="M110.151 201.09C130.795 193.249 162.875 185.553 183.519 177.569C152.517 152.466 154.603 170.951 134.823 180.446C115.186 189.725 120.221 194.041 110.151 201.09Z" fill="#5981B0"/>
<path fill-rule="evenodd" clip-rule="evenodd" d="M318.241 156.135L312.847 158.652L314.933 164.479L319.896 162.249C319.896 162.105 318.385 156.71 318.241 156.135Z" fill="url(#paint0_linear_1338_2)"/>
<path fill-rule="evenodd" clip-rule="evenodd" d="M316.803 156.781C318.889 159.586 317.81 162.751 318.601 163.974C321.982 166.563 322.917 167.427 323.996 171.095C325.218 174.763 328.959 176.418 328.024 171.814C326.225 163.183 325.147 156.278 323.996 153.904C323.276 152.825 317.45 152.465 316.803 156.781Z" fill="#36244D"/>
<path fill-rule="evenodd" clip-rule="evenodd" d="M312.775 155.63C314.645 158.436 317.235 163.039 316.803 167.355C277.242 181.597 272.279 185.984 241.637 194.328C240.918 190.3 230.632 183.179 228.187 174.979C247.607 165.557 264.151 176.418 312.775 155.63Z" fill="#56A7BC"/>
<path fill-rule="evenodd" clip-rule="evenodd" d="M321.765 187.136L316.371 188.575L317.234 194.257L322.269 193.034C322.197 192.891 321.837 187.64 321.765 187.136Z" fill="url(#paint1_linear_1338_2)"/>
<path fill-rule="evenodd" clip-rule="evenodd" d="M320.327 187.424C321.838 190.445 320.255 193.106 320.687 194.473C323.42 197.494 324.067 198.429 324.499 201.953C324.931 205.478 328.167 207.78 328.024 203.392C327.952 195.12 328.024 188.503 327.376 186.201C327.088 184.834 321.766 183.54 320.327 187.424Z" fill="#36244D"/>
<path fill-rule="evenodd" clip-rule="evenodd" d="M316.083 185.121C318.601 187.495 319.536 194.185 317.737 196.63C277.169 202.528 254.727 199.507 223.726 201.881C223.798 198.428 226.028 181.381 225.309 174.044C253.145 168.29 236.961 187.639 316.083 185.121Z" fill="#4996AB"/>
<path fill-rule="evenodd" clip-rule="evenodd" d="M225.381 174.116C209.413 178.863 195.387 179.007 176.182 170.448C172.513 179.223 172.657 178.216 165.32 184.402C170.931 213.317 213.081 210.8 228.402 201.521C231.351 198.284 233.365 177.856 225.381 174.116Z" fill="#5981B0"/>
<path fill-rule="evenodd" clip-rule="evenodd" d="M92.9603 305.171C93.8954 304.667 94.7585 304.308 95.7655 303.876C96.3409 303.588 96.4129 303.516 96.7006 302.941C98.0672 300.136 99.4339 297.618 100.801 294.813C101.088 294.166 101.088 294.166 101.664 293.878C101.879 293.806 101.951 293.806 102.095 293.662C103.102 293.302 103.102 292.943 103.534 291.864C104.397 289.418 105.044 287.476 105.836 285.031C103.246 286.469 100.585 287.764 97.9953 289.131C96.1252 294.381 94.255 299.488 92.3129 304.739C92.0971 305.458 92.1691 305.53 92.9603 305.171ZM210.78 247.556C209.845 248.059 208.982 248.419 207.975 248.85C207.399 249.138 207.256 249.138 206.536 249.066C203.443 248.491 200.638 247.915 197.545 247.268C196.898 247.196 196.898 247.052 196.25 247.34C196.178 247.412 195.963 247.556 195.819 247.628C194.884 248.203 194.596 247.987 193.589 247.628C191.143 246.764 189.201 246.117 186.756 245.254C189.489 244.031 192.15 242.808 194.884 241.585C200.135 243.24 205.385 244.966 210.708 246.764C211.643 247.124 211.571 247.196 210.78 247.556Z" fill="#674989"/>
<path fill-rule="evenodd" clip-rule="evenodd" d="M206.679 237.127L85.2632 296.468C84.6159 296.828 83.7527 296.468 83.3931 295.821L49.1548 225.618C48.7952 224.971 49.0829 224.107 49.8022 223.748L171.29 164.406C171.938 164.047 172.801 164.334 173.161 165.054L207.399 235.256C207.758 235.976 207.471 236.767 206.679 237.127Z" fill="#886BAE"/>
<path fill-rule="evenodd" clip-rule="evenodd" d="M170.93 168.578L53.3984 225.977L85.6946 292.224L203.227 234.824L170.93 168.578Z" fill="white"/>
<path fill-rule="evenodd" clip-rule="evenodd" d="M138.255 194.675C137.495 193.558 136.872 193.34 135.583 193.738C132.701 194.979 129.427 196.482 126.719 198.084C125.665 198.814 125.387 199.467 125.787 200.758C126.244 202.169 127.405 204.576 128.223 205.813C129.041 207.051 129.667 207.12 131.016 206.692C133.506 205.715 137.472 203.804 139.788 202.465C140.843 201.734 141.12 201.081 140.721 199.791C140.234 198.32 139.074 195.912 138.255 194.675ZM132.443 202.741L130.79 199.311L134.967 199.374L132.443 202.741Z" fill="#EAEAEA"/>
<path fill-rule="evenodd" clip-rule="evenodd" d="M145.552 199.984C145.251 200.128 144.895 200.003 144.75 199.702C144.605 199.402 144.7 198.985 145.001 198.84L164.829 189.285C165.129 189.14 165.486 189.265 165.66 189.626C165.805 189.927 165.68 190.284 165.38 190.429L145.552 199.984ZM141.694 191.979C141.394 192.124 141.038 191.999 140.864 191.638C140.719 191.337 140.843 190.98 141.143 190.836L157.907 182.757C158.208 182.612 158.564 182.737 158.709 183.038C158.854 183.339 158.759 183.756 158.458 183.901L141.694 191.979ZM142.651 193.965C142.351 194.11 141.995 193.985 141.821 193.624C141.676 193.323 141.8 192.966 142.1 192.822L166.014 181.298C166.315 181.153 166.671 181.278 166.816 181.579C166.961 181.88 166.866 182.296 166.565 182.441L142.651 193.965ZM143.608 195.951C143.308 196.096 142.952 195.971 142.807 195.67C142.662 195.369 142.786 195.013 143.086 194.868L168.322 182.707C168.623 182.562 168.979 182.687 169.124 182.988C169.269 183.289 169.145 183.645 168.844 183.79L143.608 195.951ZM144.566 197.937C144.265 198.082 143.909 197.957 143.764 197.656C143.619 197.355 143.714 196.939 144.015 196.794L167.748 185.357C168.049 185.212 168.405 185.337 168.579 185.698C168.724 185.999 168.6 186.355 168.299 186.5L144.566 197.937Z" fill="#EAEAEA"/>
<path fill-rule="evenodd" clip-rule="evenodd" d="M143.708 205.991C142.948 204.874 142.324 204.656 141.035 205.054C138.153 206.295 134.88 207.798 132.172 209.4C131.117 210.13 130.84 210.783 131.239 212.074C131.697 213.485 132.857 215.892 133.675 217.129C134.494 218.366 135.119 218.436 136.468 218.008C138.959 217.031 142.924 215.12 145.241 213.781C146.295 213.05 146.573 212.397 146.173 211.107C145.686 209.636 144.526 207.228 143.708 205.991ZM137.896 214.057L136.243 210.627L140.42 210.69L137.896 214.057Z" fill="#EAEAEA"/>
<path fill-rule="evenodd" clip-rule="evenodd" d="M151.004 211.298C150.704 211.443 150.347 211.318 150.202 211.017C150.057 210.716 150.153 210.3 150.453 210.155L170.281 200.6C170.582 200.455 170.938 200.58 171.112 200.941C171.257 201.242 171.133 201.599 170.832 201.743L151.004 211.298ZM147.147 203.294C146.847 203.439 146.49 203.314 146.316 202.953C146.171 202.652 146.296 202.295 146.596 202.151L163.36 194.072C163.66 193.927 164.017 194.052 164.162 194.353C164.307 194.654 164.211 195.071 163.911 195.216L147.147 203.294ZM148.104 205.28C147.804 205.425 147.447 205.3 147.273 204.939C147.099 204.578 147.253 204.281 147.553 204.137L171.467 192.613C171.767 192.468 172.124 192.593 172.269 192.894C172.414 193.195 172.319 193.611 172.018 193.756L148.104 205.28ZM149.061 207.266C148.761 207.411 148.404 207.286 148.259 206.985C148.114 206.684 148.239 206.328 148.539 206.183L173.775 194.022C174.075 193.877 174.432 194.002 174.577 194.303C174.722 194.604 174.597 194.96 174.297 195.105L149.061 207.266ZM150.018 209.252C149.718 209.397 149.361 209.272 149.216 208.971C149.071 208.67 149.167 208.254 149.467 208.109L173.201 196.672C173.501 196.527 173.858 196.652 174.032 197.013C174.177 197.314 174.052 197.67 173.752 197.815L150.018 209.252Z" fill="#EAEAEA"/>
<path fill-rule="evenodd" clip-rule="evenodd" d="M149.16 217.304C148.399 216.187 147.776 215.969 146.487 216.367C143.605 217.608 140.331 219.111 137.623 220.713C136.569 221.443 136.291 222.096 136.691 223.387C137.149 224.798 138.309 227.205 139.127 228.442C139.945 229.679 140.571 229.749 141.92 229.321C144.41 228.344 148.376 226.433 150.692 225.094C151.747 224.363 152.025 223.71 151.625 222.42C151.138 220.949 149.978 218.541 149.16 217.304ZM143.348 225.37L141.695 221.94L145.871 222.003L143.348 225.37Z" fill="#EAEAEA"/>
<path fill-rule="evenodd" clip-rule="evenodd" d="M156.456 222.613C156.156 222.758 155.8 222.633 155.655 222.332C155.51 222.031 155.605 221.614 155.905 221.469L175.734 211.914C176.034 211.77 176.39 211.895 176.564 212.256C176.709 212.557 176.585 212.913 176.285 213.058L156.456 222.613ZM152.599 214.608C152.299 214.753 151.942 214.628 151.768 214.267C151.623 213.966 151.748 213.61 152.048 213.465L168.812 205.387C169.112 205.242 169.469 205.367 169.614 205.668C169.759 205.969 169.663 206.385 169.363 206.53L152.599 214.608ZM153.556 216.595C153.256 216.739 152.899 216.614 152.725 216.253C152.551 215.892 152.705 215.596 153.005 215.451L176.919 203.927C177.22 203.782 177.576 203.907 177.721 204.208C177.866 204.509 177.771 204.926 177.47 205.071L153.556 216.595ZM154.513 218.581C154.213 218.725 153.856 218.6 153.711 218.3C153.566 217.999 153.691 217.642 153.991 217.497L179.227 205.336C179.528 205.192 179.884 205.317 180.029 205.617C180.174 205.918 180.05 206.275 179.749 206.42L154.513 218.581ZM155.47 220.567C155.17 220.711 154.814 220.587 154.669 220.286C154.524 219.985 154.619 219.568 154.919 219.423L178.653 207.986C178.954 207.841 179.31 207.966 179.484 208.327C179.629 208.628 179.505 208.985 179.204 209.13L155.47 220.567Z" fill="#EAEAEA"/>
<path fill-rule="evenodd" clip-rule="evenodd" d="M154.611 228.619C153.851 227.502 153.228 227.283 151.939 227.682C149.057 228.922 145.783 230.426 143.075 232.027C142.021 232.758 141.743 233.411 142.143 234.701C142.6 236.112 143.76 238.52 144.579 239.757C145.397 240.994 146.023 241.063 147.372 240.636C149.862 239.658 153.828 237.747 156.144 236.408C157.199 235.678 157.476 235.025 157.077 233.734C156.59 232.263 155.43 229.856 154.611 228.619ZM148.799 236.685L147.146 233.254L151.323 233.318L148.799 236.685Z" fill="#EAEAEA"/>
<path fill-rule="evenodd" clip-rule="evenodd" d="M162.082 234.001C161.781 234.145 161.425 234.02 161.28 233.72C161.135 233.419 161.23 233.002 161.531 232.857L181.359 223.302C181.66 223.157 182.016 223.282 182.19 223.643C182.335 223.944 182.211 224.301 181.91 224.446L162.082 234.001ZM158.225 225.996C157.924 226.141 157.568 226.016 157.394 225.655C157.22 225.294 157.373 224.997 157.674 224.853L174.437 216.774C174.738 216.63 175.094 216.754 175.239 217.055C175.384 217.356 175.289 217.773 174.988 217.918L158.225 225.996ZM159.182 227.982C158.881 228.127 158.525 228.002 158.351 227.641C158.177 227.28 158.33 226.984 158.631 226.839L182.545 215.315C182.845 215.17 183.201 215.295 183.346 215.596C183.491 215.897 183.396 216.314 183.096 216.458L159.182 227.982ZM160.139 229.968C159.838 230.113 159.482 229.988 159.337 229.687C159.192 229.386 159.316 229.03 159.617 228.885L184.853 216.724C185.153 216.579 185.509 216.704 185.654 217.005C185.799 217.306 185.675 217.663 185.375 217.807L160.139 229.968ZM161.096 231.954C160.795 232.099 160.439 231.974 160.294 231.673C160.149 231.372 160.244 230.956 160.545 230.811L184.279 219.374C184.579 219.229 184.935 219.354 185.109 219.715C185.254 220.016 185.13 220.373 184.83 220.517L161.096 231.954Z" fill="#EAEAEA"/>
<path fill-rule="evenodd" clip-rule="evenodd" d="M160.065 239.933C159.304 238.817 158.681 238.598 157.392 238.997C154.51 240.237 151.236 241.74 148.528 243.342C147.474 244.073 147.196 244.726 147.596 246.016C148.054 247.427 149.214 249.834 150.032 251.072C150.85 252.309 151.476 252.378 152.825 251.951C155.315 250.973 159.281 249.062 161.597 247.723C162.652 246.993 162.93 246.34 162.53 245.049C162.043 243.578 160.883 241.171 160.065 239.933ZM154.252 248L152.599 244.569L156.776 244.633L154.252 248Z" fill="#EAEAEA"/>
<path fill-rule="evenodd" clip-rule="evenodd" d="M167.361 245.242C167.061 245.387 166.705 245.262 166.56 244.961C166.415 244.66 166.51 244.243 166.81 244.098L186.639 234.543C186.939 234.399 187.295 234.524 187.469 234.885C187.614 235.186 187.49 235.542 187.19 235.687L167.361 245.242ZM163.475 237.177C163.175 237.322 162.818 237.197 162.644 236.836C162.47 236.475 162.624 236.179 162.924 236.034L179.688 227.955C179.988 227.811 180.345 227.936 180.49 228.237C180.635 228.537 180.539 228.954 180.239 229.099L163.475 237.177ZM164.461 239.224C164.161 239.368 163.804 239.243 163.63 238.882C163.485 238.581 163.61 238.225 163.91 238.08L187.824 226.556C188.125 226.411 188.481 226.536 188.626 226.837C188.771 227.138 188.676 227.555 188.375 227.7L164.461 239.224ZM165.418 241.21C165.118 241.354 164.761 241.23 164.616 240.929C164.471 240.628 164.596 240.271 164.896 240.126L190.132 227.965C190.433 227.821 190.789 227.946 190.934 228.246C191.079 228.547 190.955 228.904 190.654 229.049L165.418 241.21ZM166.375 243.196C166.075 243.341 165.719 243.216 165.574 242.915C165.429 242.614 165.524 242.197 165.824 242.052L189.558 230.615C189.858 230.47 190.215 230.595 190.389 230.956C190.534 231.257 190.41 231.614 190.109 231.759L166.375 243.196Z" fill="#EAEAEA"/>
<path fill-rule="evenodd" clip-rule="evenodd" d="M102.699 240.733C100.887 238.046 99.312 237.544 96.4052 238.426C89.5907 241.339 81.7505 245.043 75.3731 248.71C72.8412 250.523 72.2838 251.978 73.2553 255.07C74.2827 258.431 77.127 264.18 79.0557 267.106C80.9844 270.033 82.5632 270.237 85.6503 269.268C91.5303 267.028 100.995 262.393 106.44 259.25C108.972 257.436 109.529 255.981 108.558 252.89C107.412 249.437 104.657 243.72 102.699 240.733ZM88.7649 259.906L84.8786 251.842L94.8732 251.994L88.7649 259.906Z" fill="#C5B0DF"/>
<path fill-rule="evenodd" clip-rule="evenodd" d="M83.675 276.077C83.3144 276.251 82.869 276.095 82.695 275.734C82.521 275.373 82.6764 274.927 83.0369 274.753L104.067 264.619C104.427 264.445 104.873 264.602 105.047 264.963C105.221 265.324 105.065 265.769 104.705 265.943L83.675 276.077ZM85.2991 279.448C84.9386 279.621 84.4931 279.465 84.3191 279.104C84.1451 278.743 84.3005 278.297 84.661 278.124L128.463 257.016C128.824 256.842 129.269 256.998 129.443 257.359C129.617 257.72 129.462 258.166 129.101 258.34L85.2991 279.448ZM86.4302 281.795C86.0696 281.969 85.6242 281.812 85.4502 281.451C85.2762 281.09 85.4316 280.644 85.7921 280.471L122.144 262.953C122.504 262.779 122.95 262.936 123.124 263.297C123.298 263.658 123.142 264.103 122.782 264.277L86.4302 281.795ZM87.5322 284.082C87.1717 284.256 86.7263 284.099 86.5523 283.738C86.3783 283.377 86.5337 282.931 86.8942 282.758L128.473 262.721C128.834 262.547 129.279 262.704 129.453 263.065C129.627 263.426 129.472 263.871 129.111 264.045L87.5322 284.082Z" fill="#C5B0DF"/>
<path fill-rule="evenodd" clip-rule="evenodd" d="M73.2638 226.662L69.1179 228.66L74.5703 239.974L71.2656 241.567L65.8132 230.252L61.7274 232.221L60.5093 229.693L72.0457 224.134L73.2638 226.662Z" fill="#6C528B"/>
<path fill-rule="evenodd" clip-rule="evenodd" d="M83.8274 230.915L81.719 219.472L85.4443 217.677L87.4881 233.748L83.8229 235.515L72.5259 223.902L76.2512 222.107L83.8274 230.915Z" fill="#6C528B"/>
<path fill-rule="evenodd" clip-rule="evenodd" d="M141.728 267.409C141.44 267.625 141.08 267.409 141.009 267.121C140.793 266.834 141.009 266.474 141.296 266.402L148.705 262.734C148.993 262.518 149.352 262.734 149.424 263.021C149.64 263.309 149.424 263.669 149.137 263.741L141.728 267.409Z" fill="#C3AEDE"/>
<path fill-rule="evenodd" clip-rule="evenodd" d="M164.457 183.755C157.983 182.101 154.53 173.613 157.048 164.406C159.494 155.055 158.271 145.561 173.232 150.668C188.193 155.703 182.942 161.313 180.497 170.592C177.979 179.799 170.858 185.409 164.457 183.755Z" fill="url(#paint2_linear_1338_2)"/>
<path fill-rule="evenodd" clip-rule="evenodd" d="M156.329 168.577C156.616 166.204 157.192 163.327 157.911 161.025C165.967 165.125 171.362 166.563 181.576 166.923C181.216 169.369 180.569 171.814 179.346 174.044C171.793 173.756 162.874 171.455 156.329 168.577Z" fill="#36244D"/>
<path fill-rule="evenodd" clip-rule="evenodd" d="M161.796 151.171C159.566 155.415 158.703 157.789 157.48 162.896C155.394 157.573 154.747 155.199 156.113 150.38C158.343 141.964 158.919 138.08 164.529 140.382C170.14 142.54 167.119 138.871 176.901 140.166C183.231 141.101 182.008 144.554 190.424 144.77C195.962 144.842 194.452 155.271 186.611 161.889C185.245 163.112 184.669 165.269 181.073 168.794C183.015 161.889 183.231 158.436 181.792 156.494C174.815 157.357 167.19 155.847 161.796 151.171Z" fill="#36244D"/>
<path fill-rule="evenodd" clip-rule="evenodd" d="M183.303 247.555C182.368 248.706 181.721 249.21 181.145 250.576C180.426 253.597 179.994 255.324 177.189 258.848C169.637 268.199 162.588 259.999 165.752 257.05C169.924 255.252 169.493 253.957 169.852 251.512C168.198 252.087 167.407 252.519 166.112 252.95C168.342 247.34 172.586 248.347 173.808 248.059C176.038 247.555 177.333 245.541 178.484 244.391C179.994 243.024 184.454 246.261 183.303 247.555Z" fill="url(#paint3_linear_1338_2)"/>
<path fill-rule="evenodd" clip-rule="evenodd" d="M185.964 222.669C180.857 232.811 183.447 234.825 174.671 246.262C176.901 249.139 179.634 251.153 182.224 252.088C185.748 247.197 193.373 239.932 196.034 231.948C200.422 219.504 190.496 214.469 185.964 222.669Z" fill="#5981B0"/>
<path fill-rule="evenodd" clip-rule="evenodd" d="M128.35 186.344C128.997 187.783 129.644 189.221 130.292 190.588C130.939 192.027 129.429 194.112 127.558 193.034C127.63 194.616 125.616 195.911 124.178 194.688C124.25 196.486 121.732 197.565 120.509 196.342C120.15 198.5 117.632 198.212 116.985 196.846C116.337 195.551 115.762 194.256 115.043 192.746C113.101 188.574 126.479 182.316 128.35 186.344Z" fill="url(#paint4_linear_1338_2)"/>
<path fill-rule="evenodd" clip-rule="evenodd" d="M182.799 188.43C179.922 199.723 188.337 210.44 185.532 224.179C183.878 232.594 193.876 238.852 198.551 225.689C201.932 216.123 200.493 201.521 198.12 191.883C195.458 181.884 185.748 176.706 182.799 188.43Z" fill="#5981B0"/>
<path d="M205 43H201V165H205V43Z" fill="#ECE1F8"/>
<path fill-rule="evenodd" clip-rule="evenodd" d="M200.062 178.145H206.824C208.046 178.145 208.981 177.21 208.981 175.987V165.486C208.981 164.263 208.046 163.328 206.824 163.328H200.062C198.839 163.328 197.904 164.263 197.904 165.486V175.987C197.904 177.21 198.839 178.145 200.062 178.145Z" fill="#ECE1F8"/>
<path fill-rule="evenodd" clip-rule="evenodd" d="M206.967 176.706C206.679 176.203 206.895 175.699 207.327 175.411C207.758 175.124 208.334 175.339 208.621 175.771C210.923 180.087 212.29 185.625 212.577 191.236C212.865 197.062 212.218 202.96 210.42 207.636C210.204 208.139 209.7 208.355 209.197 208.211C208.765 207.995 208.477 207.492 208.621 206.988C210.204 202.6 210.923 196.99 210.707 191.38C210.348 186.057 209.125 180.734 206.967 176.706ZM198.407 177.21C198.12 176.706 198.335 176.202 198.767 175.915C199.199 175.627 199.774 175.843 200.062 176.274C202.363 180.59 203.73 186.129 204.018 191.739C204.306 197.565 203.658 203.464 201.86 208.139C201.644 208.643 201.141 208.858 200.637 208.714C200.134 208.499 199.918 207.995 200.062 207.492C201.644 203.104 202.363 197.493 202.148 191.883C201.716 186.56 200.493 181.238 198.407 177.21ZM202.579 177.066C204.737 181.094 205.96 186.416 206.32 191.739C206.607 197.35 205.96 202.96 204.234 207.348C204.018 207.851 204.306 208.355 204.809 208.571C205.241 208.786 205.816 208.499 206.032 207.995C207.686 203.392 208.477 197.494 208.19 191.595C207.902 185.985 206.607 180.446 204.234 176.131C203.946 175.627 203.37 175.483 202.939 175.771C202.507 176.059 202.363 176.634 202.579 177.066Z" fill="#ECE1F8"/>
<path fill-rule="evenodd" clip-rule="evenodd" d="M239.626 239.832C235.081 239.832 231.546 236.297 231.546 231.752C231.546 227.207 235.081 223.672 239.626 223.672C244.17 223.672 247.705 227.207 247.705 231.752C247.705 236.297 244.17 239.832 239.626 239.832ZM237.101 243.872V247.912H242.15V243.872C243.665 243.367 244.675 242.862 246.19 242.357L249.22 245.387L252.755 241.852L249.725 238.822C250.23 237.812 251.24 236.297 251.24 234.782H255.28V229.227H251.24C250.735 227.712 250.23 226.702 249.725 225.187L252.755 222.157L249.22 218.622L246.19 221.652C245.18 221.147 243.665 220.137 242.15 220.137V216.097H237.101V220.137C235.586 220.642 234.576 221.147 233.061 221.652L230.031 218.622L226.496 222.157L229.526 225.187C229.021 226.197 228.011 227.712 228.011 229.227H223.466V234.782H227.506C228.011 236.297 228.516 237.307 229.021 238.822L225.991 241.852L229.526 245.387L232.556 242.357C234.071 242.862 235.586 243.367 237.101 243.872Z" fill="#EDE2F9"/>
<path fill-rule="evenodd" clip-rule="evenodd" d="M205.219 319.854C197.52 329.27 183.632 330.674 174.164 322.976C164.697 315.277 163.24 301.388 170.939 291.921C178.638 282.505 192.527 281.101 201.994 288.8C211.409 296.498 212.866 310.387 205.219 319.854Z" fill="#51B18B"/>
<path fill-rule="evenodd" clip-rule="evenodd" d="M196.532 312.78C196.116 313.3 195.492 313.612 194.815 313.664C194.139 313.716 193.515 313.56 192.943 313.092C192.423 312.676 192.111 312.052 192.006 311.375C191.954 310.751 192.111 310.075 192.579 309.503C192.995 308.983 193.619 308.67 194.295 308.618C194.92 308.566 195.596 308.722 196.168 309.191C196.688 309.607 197 310.231 197.104 310.907C197.156 311.583 197 312.26 196.532 312.78ZM178.378 311.583C178.118 309.919 178.326 308.098 178.898 306.226C179.47 304.405 180.458 302.584 181.811 300.92C183.215 299.203 184.828 297.851 186.493 296.914C188.209 295.978 190.03 295.406 191.694 295.354C192.527 295.302 193.151 294.626 193.099 293.793C193.047 292.961 192.371 292.337 191.538 292.389C189.406 292.493 187.169 293.169 185.036 294.365C183.007 295.51 181.083 297.07 179.47 299.047C177.858 301.024 176.713 303.157 176.037 305.341C175.309 307.63 175.101 309.919 175.361 312C175.465 312.832 176.245 313.352 177.025 313.248C177.91 313.144 178.482 312.364 178.378 311.583ZM184.1 311.375C183.892 310.283 183.996 309.087 184.36 307.89C184.724 306.694 185.348 305.497 186.232 304.405C187.117 303.313 188.209 302.428 189.302 301.856L189.354 301.804C190.446 301.232 191.59 300.92 192.683 300.868C193.515 300.868 194.139 300.191 194.139 299.359C194.139 298.527 193.463 297.903 192.631 297.903C191.07 297.955 189.458 298.371 187.949 299.151L187.845 299.203C186.389 299.983 185.036 301.076 183.892 302.48C182.747 303.885 181.967 305.393 181.499 306.954C181.031 308.618 180.875 310.283 181.135 311.792C181.291 312.624 182.019 313.144 182.851 313.04C183.684 312.936 184.256 312.208 184.1 311.375ZM189.822 311.115C189.718 310.595 189.718 310.023 189.822 309.503C189.978 308.983 190.238 308.41 190.602 307.942C191.018 307.474 191.486 307.11 192.006 306.85C192.527 306.59 193.099 306.486 193.619 306.538C194.451 306.59 195.128 305.965 195.18 305.133C195.232 304.301 194.555 303.625 193.775 303.573C192.787 303.521 191.746 303.729 190.758 304.197C189.822 304.613 188.989 305.237 188.313 306.122C187.637 306.954 187.169 307.89 186.961 308.826C186.701 309.815 186.701 310.855 186.961 311.844C187.169 312.624 187.949 313.144 188.729 312.936C189.51 312.728 189.978 311.948 189.822 311.115Z" fill="white"/>
<path fill-rule="evenodd" clip-rule="evenodd" d="M101.794 163.077C94.5294 169.751 83.1889 169.338 76.3964 162.014C69.6039 154.749 70.0764 143.349 77.2824 136.675C84.5474 130 95.8879 130.414 102.68 137.738C109.414 145.003 109.059 156.403 101.794 163.077Z" fill="#5984B2"/>
<path fill-rule="evenodd" clip-rule="evenodd" d="M86.6153 147.838L84.1937 150.082L90.3364 156.698L88.3873 158.529L82.2445 151.854L79.8228 154.099L78.4053 152.563L85.1978 146.302L86.6153 147.838Z" fill="white"/>
<path fill-rule="evenodd" clip-rule="evenodd" d="M94.8255 148.429L90.9272 141.046L93.0535 138.979L97.8968 149.729L95.7705 151.678L85.4932 146.008L87.7376 144.059L94.8255 148.429Z" fill="white"/>
<path fill-rule="evenodd" clip-rule="evenodd" d="M156.334 88.135L183.05 92.6075C188.271 93.502 191.933 98.6626 191.051 103.961C190.17 109.259 185.152 112.975 179.863 112.08L154.639 107.814L145.892 112.631L147.451 104.305C145.62 102.103 144.603 99.213 145.146 96.1855C146.027 90.8873 151.045 87.2405 156.334 88.135ZM176.066 104.374C177.761 104.649 179.456 103.479 179.727 101.69C179.999 99.9699 178.846 98.2497 177.083 97.9745C175.388 97.6993 173.692 98.869 173.421 100.658C173.218 102.447 174.371 104.098 176.066 104.374ZM167.183 102.929C168.878 103.204 170.573 102.034 170.845 100.245C171.116 98.525 169.963 96.8048 168.2 96.5296C166.505 96.2543 164.81 97.4241 164.539 99.213C164.267 100.933 165.488 102.585 167.183 102.929ZM158.368 101.415C160.063 101.69 161.758 100.52 162.03 98.7314C162.301 97.0112 161.148 95.291 159.385 95.0158C157.69 94.7406 155.995 95.9103 155.724 97.6993C155.385 99.4195 156.605 101.14 158.368 101.415Z" fill="#8B6CB0"/>
<path d="M277.645 302.918C294.708 311.617 315.632 304.76 324.379 287.602C333.126 270.444 326.385 249.483 309.321 240.784C292.258 232.085 271.334 238.942 262.587 256.1C253.84 273.257 260.581 294.219 277.645 302.918Z" fill="#DC662D"/>
<path fill-rule="evenodd" clip-rule="evenodd" d="M297.325 262.879C301.031 260.066 303.875 259.24 307.482 261.079C311.569 263.163 313.158 268.069 311.07 272.163C307.326 279.508 296.186 283.235 285.108 286.842C281.52 275.758 277.993 264.554 281.737 257.209C283.824 253.114 288.728 251.518 292.815 253.602C296.542 255.502 297.424 258.227 297.325 262.879Z" fill="white"/>
<path d="M269.016 137.275C282.497 129.413 287.084 112.168 279.262 98.7557C271.441 85.3437 254.172 80.8444 240.691 88.7061C227.211 96.5678 222.623 113.813 230.445 127.225C238.267 140.637 255.536 145.137 269.016 137.275Z" fill="#8B6CB0"/>
<path fill-rule="evenodd" clip-rule="evenodd" d="M264.038 102.609C264.37 97.7589 262.998 95.7869 261.329 95.2076C257.903 93.9903 253.414 97.6061 251.135 99.8776C244.778 101.811 240.717 108.06 241.571 114.659C243.454 109.901 245.067 107.63 246.305 106.52C244.546 109.874 242.708 114.993 242.087 119.347C241.646 122.487 241.859 128.462 244.472 130.375C247.695 132.764 252.721 127.504 253.687 126.498C261.726 127.354 268.869 120.97 268.791 112.755L262.082 115.226C260.982 121.135 252.236 122.299 250.154 116.638L268.457 109.901C267.761 107.091 266.241 104.485 264.038 102.609ZM263.494 102.151C261.167 100.347 258.288 99.3095 255.324 99.2644C259.551 94.9144 263.587 95.2768 263.494 102.151ZM245.723 128.814C244.741 127.89 244.128 125.697 244.507 121.595C246.579 124.101 249.433 125.763 252.604 126.353C251.229 127.987 247.85 130.844 245.723 128.814ZM248.793 113.163C247.828 110.178 249.528 106.913 252.631 105.769C255.775 104.601 259.174 106.056 260.345 108.921L248.793 113.163Z" fill="white"/>
<path d="M292.766 65L29 65L29 25L292.766 25L278.153 45L292.766 65Z" fill="#51B18B"/>
<path d="M50.844 41.694H47.154V51H42.978V41.694H39.288V38.4H50.844V41.694ZM61.4485 46.068C61.4485 46.128 61.4305 46.446 61.3945 47.022H54.5545C54.6985 47.394 54.9385 47.682 55.2745 47.886C55.6105 48.078 56.0305 48.174 56.5345 48.174C56.9665 48.174 57.3265 48.12 57.6145 48.012C57.9145 47.904 58.2385 47.718 58.5865 47.454L60.7105 49.596C59.7505 50.652 58.3165 51.18 56.4085 51.18C55.2205 51.18 54.1765 50.964 53.2765 50.532C52.3765 50.088 51.6805 49.476 51.1885 48.696C50.6965 47.916 50.4505 47.04 50.4505 46.068C50.4505 45.084 50.6905 44.208 51.1705 43.44C51.6625 42.66 52.3285 42.054 53.1685 41.622C54.0205 41.19 54.9745 40.974 56.0305 40.974C57.0265 40.974 57.9325 41.172 58.7485 41.568C59.5765 41.964 60.2305 42.546 60.7105 43.314C61.2025 44.082 61.4485 45 61.4485 46.068ZM56.0665 43.746C55.6465 43.746 55.2985 43.86 55.0225 44.088C54.7465 44.316 54.5665 44.64 54.4825 45.06H57.6505C57.5665 44.652 57.3865 44.334 57.1105 44.106C56.8345 43.866 56.4865 43.746 56.0665 43.746ZM73.531 41.154V51H69.463V44.322H67.609L67.555 45.6C67.507 46.872 67.375 47.916 67.159 48.732C66.943 49.548 66.583 50.178 66.079 50.622C65.587 51.054 64.909 51.27 64.045 51.27C63.505 51.27 62.875 51.18 62.155 51L62.317 47.706C62.509 47.73 62.647 47.742 62.731 47.742C63.223 47.742 63.547 47.568 63.703 47.22C63.859 46.86 63.955 46.266 63.991 45.438L64.135 41.154H73.531ZM85.7942 46.068C85.7942 46.128 85.7762 46.446 85.7402 47.022H78.9002C79.0442 47.394 79.2842 47.682 79.6202 47.886C79.9562 48.078 80.3762 48.174 80.8802 48.174C81.3122 48.174 81.6722 48.12 81.9602 48.012C82.2602 47.904 82.5842 47.718 82.9322 47.454L85.0562 49.596C84.0962 50.652 82.6622 51.18 80.7542 51.18C79.5662 51.18 78.5222 50.964 77.6222 50.532C76.7222 50.088 76.0262 49.476 75.5342 48.696C75.0422 47.916 74.7962 47.04 74.7962 46.068C74.7962 45.084 75.0362 44.208 75.5162 43.44C76.0082 42.66 76.6742 42.054 77.5142 41.622C78.3662 41.19 79.3202 40.974 80.3762 40.974C81.3722 40.974 82.2782 41.172 83.0942 41.568C83.9222 41.964 84.5762 42.546 85.0562 43.314C85.5482 44.082 85.7942 45 85.7942 46.068ZM80.4122 43.746C79.9922 43.746 79.6442 43.86 79.3682 44.088C79.0922 44.316 78.9122 44.64 78.8282 45.06H81.9962C81.9122 44.652 81.7322 44.334 81.4562 44.106C81.1802 43.866 80.8322 43.746 80.4122 43.746ZM93.7547 42.252C95.2067 42.252 96.3347 42.642 97.1387 43.422C97.9427 44.202 98.3447 45.276 98.3447 46.644C98.3447 47.568 98.0927 48.384 97.5887 49.092C97.0967 49.788 96.4187 50.328 95.5547 50.712C94.6907 51.096 93.7247 51.288 92.6567 51.288C90.9047 51.288 89.4887 50.766 88.4087 49.722C87.3407 48.678 86.8067 47.07 86.8067 44.898C86.8067 40.806 88.6307 38.43 92.2787 37.77L97.1747 36.888L97.7147 40.218L93.5747 40.956C92.6027 41.124 91.9007 41.382 91.4687 41.73C91.0487 42.078 90.7907 42.588 90.6947 43.26C91.5347 42.588 92.5547 42.252 93.7547 42.252ZM92.6567 48.282C93.1487 48.282 93.5267 48.12 93.7907 47.796C94.0667 47.472 94.2047 47.082 94.2047 46.626C94.2047 46.122 94.0607 45.732 93.7727 45.456C93.4967 45.18 93.1247 45.042 92.6567 45.042C92.1767 45.042 91.7927 45.186 91.5047 45.474C91.2167 45.75 91.0727 46.14 91.0727 46.644C91.0727 47.124 91.2167 47.52 91.5047 47.832C91.8047 48.132 92.1887 48.282 92.6567 48.282ZM103.544 40.974C105.272 40.974 106.592 41.364 107.504 42.144C108.416 42.912 108.872 44.1 108.872 45.708V51H105.092V49.704C104.624 50.688 103.694 51.18 102.302 51.18C101.522 51.18 100.856 51.048 100.304 50.784C99.7645 50.508 99.3505 50.142 99.0625 49.686C98.7865 49.218 98.6485 48.696 98.6485 48.12C98.6485 47.148 99.0205 46.41 99.7645 45.906C100.508 45.402 101.636 45.15 103.148 45.15H104.786C104.654 44.382 104.036 43.998 102.932 43.998C102.488 43.998 102.038 44.07 101.582 44.214C101.126 44.346 100.736 44.532 100.412 44.772L99.1165 42.09C99.6805 41.742 100.358 41.472 101.15 41.28C101.954 41.076 102.752 40.974 103.544 40.974ZM103.526 48.732C103.814 48.732 104.072 48.654 104.3 48.498C104.528 48.342 104.696 48.108 104.804 47.796V47.112H103.796C102.968 47.112 102.554 47.388 102.554 47.94C102.554 48.168 102.638 48.36 102.806 48.516C102.986 48.66 103.226 48.732 103.526 48.732ZM120.538 41.154V51H116.488V47.67C115.912 48.006 115.156 48.174 114.22 48.174C112.792 48.174 111.73 47.856 111.034 47.22C110.338 46.572 109.99 45.552 109.99 44.16V41.154H114.04V43.89C114.04 44.382 114.13 44.724 114.31 44.916C114.502 45.108 114.796 45.204 115.192 45.204C115.672 45.204 116.104 45.114 116.488 44.934V41.154H120.538ZM132.798 46.068C132.798 46.128 132.78 46.446 132.744 47.022H125.904C126.048 47.394 126.288 47.682 126.624 47.886C126.96 48.078 127.38 48.174 127.884 48.174C128.316 48.174 128.676 48.12 128.964 48.012C129.264 47.904 129.588 47.718 129.936 47.454L132.06 49.596C131.1 50.652 129.666 51.18 127.758 51.18C126.57 51.18 125.526 50.964 124.626 50.532C123.726 50.088 123.03 49.476 122.538 48.696C122.046 47.916 121.8 47.04 121.8 46.068C121.8 45.084 122.04 44.208 122.52 43.44C123.012 42.66 123.678 42.054 124.518 41.622C125.37 41.19 126.324 40.974 127.38 40.974C128.376 40.974 129.282 41.172 130.098 41.568C130.926 41.964 131.58 42.546 132.06 43.314C132.552 44.082 132.798 45 132.798 46.068ZM127.416 43.746C126.996 43.746 126.648 43.86 126.372 44.088C126.096 44.316 125.916 44.64 125.832 45.06H129C128.916 44.652 128.736 44.334 128.46 44.106C128.184 43.866 127.836 43.746 127.416 43.746ZM134.261 41.154H138.311V44.61H141.083V41.154H145.133V51H141.083V47.796H138.311V51H134.261V41.154ZM147.04 41.154H151.09V44.61H153.862V41.154H157.912V51H153.862V47.796H151.09V51H147.04V41.154ZM169.575 41.154V51H165.975V48.498H164.985L163.383 51H159.081L161.205 47.922C160.581 47.622 160.101 47.22 159.765 46.716C159.441 46.212 159.279 45.624 159.279 44.952C159.279 43.764 159.735 42.834 160.647 42.162C161.559 41.49 162.807 41.154 164.391 41.154H169.575ZM164.481 44.304C163.785 44.304 163.437 44.568 163.437 45.096C163.437 45.396 163.521 45.618 163.689 45.762C163.869 45.894 164.133 45.96 164.481 45.96H165.975V44.304H164.481Z" fill="white"/>
<path d="M168 25H256V65H168L178.256 43.9041L168 25Z" fill="white"/>
<path d="M228 25H364V65H228L238 45L228 25Z" fill="#8B6CB0"/>
<path d="M185.026 51V38.4H191.092C192.268 38.4 193.282 38.592 194.134 38.976C194.998 39.36 195.664 39.912 196.132 40.632C196.6 41.34 196.834 42.18 196.834 43.152C196.834 44.124 196.6 44.964 196.132 45.672C195.664 46.38 194.998 46.932 194.134 47.328C193.282 47.712 192.268 47.904 191.092 47.904H187.384L189.274 46.086V51H185.026ZM189.274 46.554L187.384 44.628H190.822C191.41 44.628 191.842 44.496 192.118 44.232C192.406 43.968 192.55 43.608 192.55 43.152C192.55 42.696 192.406 42.336 192.118 42.072C191.842 41.808 191.41 41.676 190.822 41.676H187.384L189.274 39.75V46.554ZM205.009 51.288C203.989 51.288 203.041 51.126 202.165 50.802C201.301 50.478 200.551 50.022 199.915 49.434C199.279 48.834 198.781 48.132 198.421 47.328C198.073 46.524 197.899 45.648 197.899 44.7C197.899 43.74 198.073 42.864 198.421 42.072C198.781 41.268 199.279 40.572 199.915 39.984C200.551 39.384 201.301 38.922 202.165 38.598C203.041 38.274 203.989 38.112 205.009 38.112C206.041 38.112 206.989 38.274 207.853 38.598C208.717 38.922 209.467 39.384 210.103 39.984C210.739 40.572 211.231 41.268 211.579 42.072C211.939 42.864 212.119 43.74 212.119 44.7C212.119 45.648 211.939 46.524 211.579 47.328C211.231 48.132 210.739 48.834 210.103 49.434C209.467 50.022 208.717 50.478 207.853 50.802C206.989 51.126 206.041 51.288 205.009 51.288ZM205.009 47.85C205.405 47.85 205.771 47.778 206.107 47.634C206.455 47.49 206.755 47.286 207.007 47.022C207.271 46.746 207.475 46.416 207.619 46.032C207.763 45.636 207.835 45.192 207.835 44.7C207.835 44.208 207.763 43.77 207.619 43.386C207.475 42.99 207.271 42.66 207.007 42.396C206.755 42.12 206.455 41.91 206.107 41.766C205.771 41.622 205.405 41.55 205.009 41.55C204.613 41.55 204.241 41.622 203.893 41.766C203.557 41.91 203.257 42.12 202.993 42.396C202.741 42.66 202.543 42.99 202.399 43.386C202.255 43.77 202.183 44.208 202.183 44.7C202.183 45.192 202.255 45.636 202.399 46.032C202.543 46.416 202.741 46.746 202.993 47.022C203.257 47.286 203.557 47.49 203.893 47.634C204.241 47.778 204.613 47.85 205.009 47.85ZM213.661 51V38.4H217.153L223.561 46.068H221.941V38.4H226.081V51H222.589L216.181 43.332H217.801V51H213.661Z" fill="#DC662D"/>
<path d="M249.9 51V41.154H253.968V51H249.9ZM251.934 40.362C251.19 40.362 250.596 40.164 250.152 39.768C249.708 39.372 249.486 38.88 249.486 38.292C249.486 37.704 249.708 37.212 250.152 36.816C250.596 36.42 251.19 36.222 251.934 36.222C252.678 36.222 253.272 36.408 253.716 36.78C254.16 37.152 254.382 37.632 254.382 38.22C254.382 38.844 254.16 39.36 253.716 39.768C253.272 40.164 252.678 40.362 251.934 40.362ZM255.825 51V41.154H259.875V44.61H262.647V41.154H266.697V51H262.647V47.796H259.875V51H255.825ZM270.872 51V43.458L271.754 44.322H267.866V41.154H277.928V44.322H274.04L274.922 43.458V51H270.872ZM284.039 51.18C282.839 51.18 281.789 50.958 280.889 50.514C280.001 50.07 279.311 49.464 278.819 48.696C278.327 47.916 278.081 47.04 278.081 46.068C278.081 45.072 278.321 44.19 278.801 43.422C279.293 42.654 279.959 42.054 280.799 41.622C281.651 41.19 282.605 40.974 283.661 40.974C284.633 40.974 285.527 41.166 286.343 41.55C287.171 41.934 287.831 42.504 288.323 43.26C288.827 44.016 289.079 44.952 289.079 46.068C289.079 46.212 289.073 46.374 289.061 46.554C289.049 46.722 289.037 46.878 289.025 47.022H281.447V45.06H286.865L285.335 45.582C285.335 45.198 285.263 44.874 285.119 44.61C284.987 44.334 284.801 44.124 284.561 43.98C284.321 43.824 284.033 43.746 283.697 43.746C283.361 43.746 283.067 43.824 282.815 43.98C282.575 44.124 282.389 44.334 282.257 44.61C282.125 44.874 282.059 45.198 282.059 45.582V46.194C282.059 46.614 282.143 46.974 282.311 47.274C282.479 47.574 282.719 47.802 283.031 47.958C283.343 48.102 283.721 48.174 284.165 48.174C284.621 48.174 284.993 48.114 285.281 47.994C285.581 47.874 285.893 47.694 286.217 47.454L288.341 49.596C287.861 50.112 287.267 50.508 286.559 50.784C285.863 51.048 285.023 51.18 284.039 51.18ZM297.112 51.18C296.26 51.18 295.552 51 294.988 50.64C294.436 50.268 294.028 49.71 293.764 48.966C293.5 48.21 293.368 47.25 293.368 46.086C293.368 44.898 293.488 43.932 293.728 43.188C293.98 42.432 294.382 41.874 294.934 41.514C295.486 41.154 296.212 40.974 297.112 40.974C297.976 40.974 298.768 41.184 299.488 41.604C300.208 42.012 300.784 42.6 301.216 43.368C301.648 44.124 301.864 45.03 301.864 46.086C301.864 47.142 301.648 48.054 301.216 48.822C300.784 49.578 300.208 50.16 299.488 50.568C298.768 50.976 297.976 51.18 297.112 51.18ZM290.542 54.492V41.154H294.412V42.486L294.43 46.086L294.61 49.686V54.492H290.542ZM296.14 48.012C296.44 48.012 296.71 47.94 296.95 47.796C297.19 47.652 297.382 47.436 297.526 47.148C297.67 46.86 297.742 46.506 297.742 46.086C297.742 45.654 297.67 45.294 297.526 45.006C297.382 44.718 297.19 44.502 296.95 44.358C296.71 44.214 296.44 44.142 296.14 44.142C295.84 44.142 295.57 44.214 295.33 44.358C295.09 44.502 294.898 44.718 294.754 45.006C294.61 45.294 294.538 45.654 294.538 46.086C294.538 46.506 294.61 46.86 294.754 47.148C294.898 47.436 295.09 47.652 295.33 47.796C295.57 47.94 295.84 48.012 296.14 48.012ZM303.181 51V41.154H307.231V44.61H310.003V41.154H314.053V51H310.003V47.796H307.231V51H303.181ZM321.27 51.18C320.07 51.18 319.02 50.958 318.12 50.514C317.232 50.07 316.542 49.464 316.05 48.696C315.558 47.916 315.312 47.04 315.312 46.068C315.312 45.072 315.552 44.19 316.032 43.422C316.524 42.654 317.19 42.054 318.03 41.622C318.882 41.19 319.836 40.974 320.892 40.974C321.864 40.974 322.758 41.166 323.574 41.55C324.402 41.934 325.062 42.504 325.554 43.26C326.058 44.016 326.31 44.952 326.31 46.068C326.31 46.212 326.304 46.374 326.292 46.554C326.28 46.722 326.268 46.878 326.256 47.022H318.678V45.06H324.096L322.566 45.582C322.566 45.198 322.494 44.874 322.35 44.61C322.218 44.334 322.032 44.124 321.792 43.98C321.552 43.824 321.264 43.746 320.928 43.746C320.592 43.746 320.298 43.824 320.046 43.98C319.806 44.124 319.62 44.334 319.488 44.61C319.356 44.874 319.29 45.198 319.29 45.582V46.194C319.29 46.614 319.374 46.974 319.542 47.274C319.71 47.574 319.95 47.802 320.262 47.958C320.574 48.102 320.952 48.174 321.396 48.174C321.852 48.174 322.224 48.114 322.512 47.994C322.812 47.874 323.124 47.694 323.448 47.454L325.572 49.596C325.092 50.112 324.498 50.508 323.79 50.784C323.094 51.048 322.254 51.18 321.27 51.18ZM329.759 51V43.458L330.641 44.322H326.753V41.154H336.815V44.322H332.927L333.809 43.458V51H329.759Z" fill="white"/>
</g>
<path d="M58.25 408V377.1L63.3 381.9H52.25V373H70.05V408H58.25ZM79.3484 408L92.5484 377.2L95.6984 382.15H79.0984L83.6984 376.8V387.25H73.9484V373H103.898V380.25L92.2484 408H79.3484ZM121.448 408.8C118.348 408.8 115.598 408.083 113.198 406.65C110.832 405.217 108.965 403.133 107.598 400.4C106.265 397.667 105.598 394.367 105.598 390.5C105.598 386.633 106.265 383.333 107.598 380.6C108.965 377.867 110.832 375.783 113.198 374.35C115.598 372.917 118.348 372.2 121.448 372.2C124.548 372.2 127.282 372.917 129.648 374.35C132.048 375.783 133.915 377.867 135.248 380.6C136.615 383.333 137.298 386.633 137.298 390.5C137.298 394.367 136.615 397.667 135.248 400.4C133.915 403.133 132.048 405.217 129.648 406.65C127.282 408.083 124.548 408.8 121.448 408.8ZM121.448 399.35C122.215 399.35 122.898 399.083 123.498 398.55C124.098 398.017 124.565 397.1 124.898 395.8C125.265 394.5 125.448 392.733 125.448 390.5C125.448 388.233 125.265 386.467 124.898 385.2C124.565 383.9 124.098 382.983 123.498 382.45C122.898 381.917 122.215 381.65 121.448 381.65C120.682 381.65 119.998 381.917 119.398 382.45C118.798 382.983 118.315 383.9 117.948 385.2C117.615 386.467 117.448 388.233 117.448 390.5C117.448 392.733 117.615 394.5 117.948 395.8C118.315 397.1 118.798 398.017 119.398 398.55C119.998 399.083 120.682 399.35 121.448 399.35Z" fill="#51B18B"/>
<path fill-rule="evenodd" clip-rule="evenodd" d="M147.131 368.041H150.55L155.02 374.285L159.359 368.041H162.777V382.74H158.833V374.154L154.889 379.618L150.944 374.285V382.87H147L147.131 368.041ZM308.98 367C313.582 367 317 370.512 317 374.805C317 379.098 313.582 382.61 309.111 382.61C304.51 382.61 301.091 379.098 301.091 374.805C301.091 370.512 304.51 367.13 308.98 367ZM309.111 378.967C311.346 378.967 313.056 377.146 313.056 374.805C313.056 372.463 311.346 370.642 309.111 370.772C306.876 370.772 305.167 372.593 305.167 374.935C305.036 377.146 306.876 378.967 309.111 378.967ZM246.265 367.26C250.867 367.26 254.285 370.772 254.285 375.065C254.285 379.358 250.867 382.87 246.397 382.87C241.795 382.87 238.377 379.358 238.377 375.065C238.377 370.772 241.664 367.26 246.265 367.26ZM246.265 379.228C248.5 379.228 250.21 377.407 250.21 375.065C250.21 372.724 248.5 370.902 246.265 371.033C244.03 371.033 242.321 372.854 242.321 375.195C242.321 377.407 244.03 379.228 246.265 379.228ZM277.162 373.374H284.92C285.182 377.407 283.868 382.74 277.294 382.74C272.692 382.74 269.274 379.228 269.274 374.935C269.274 370.642 272.692 367.13 277.162 367.13C279.266 367.13 280.712 367.781 281.764 368.561C282.421 368.951 282.816 369.472 283.342 369.992L280.975 372.724C280.712 372.333 280.318 372.073 279.923 371.813C279.266 371.293 278.346 370.902 277.162 370.902C274.927 370.902 273.218 372.724 273.218 375.065C273.218 377.407 274.927 379.228 277.162 379.098C280.318 379.098 280.844 376.496 280.844 376.496H277.031L277.162 373.374ZM215.105 373.634H222.862C223.125 377.667 221.81 383 215.237 383C210.635 383 207.217 379.488 207.217 375.195C207.217 370.902 210.635 367.39 215.105 367.39C217.209 367.39 218.655 368.041 219.707 368.821C220.364 369.211 220.759 369.732 221.285 370.252L218.918 372.984C218.655 372.593 218.261 372.333 217.866 372.073C217.209 371.553 216.288 371.163 215.105 371.163C212.87 371.163 211.161 372.984 211.161 375.325C211.161 377.667 212.87 379.488 215.105 379.358C218.261 379.358 218.787 376.756 218.787 376.756H214.974L215.105 373.634ZM180.658 367.911H192.754V371.423H184.471V373.634H191.045V377.016H184.471V379.228H192.754V382.74H180.658V367.911Z" fill="#010005"/>
<path d="M148.304 407V393.368L149.528 394.592H143.384V390.2H158.792V394.592H152.648L153.872 393.368V407H148.304ZM165.844 396.44H173.332V400.52H165.844V396.44ZM166.228 402.728H174.628V407H160.66V390.2H174.316V394.472H166.228V402.728ZM178.174 407.312C177.822 407.312 177.446 407.288 177.046 407.24C176.646 407.192 176.222 407.112 175.774 407L176.062 402.464C176.286 402.512 176.494 402.536 176.686 402.536C177.31 402.536 177.774 402.28 178.078 401.768C178.382 401.256 178.59 400.568 178.702 399.704C178.814 398.824 178.886 397.84 178.918 396.752L179.134 390.2H193.318V407H187.75V393.392L188.974 394.592H182.854L183.958 393.32L183.862 396.536C183.814 398.152 183.702 399.624 183.526 400.952C183.366 402.264 183.086 403.4 182.686 404.36C182.286 405.304 181.718 406.032 180.982 406.544C180.262 407.056 179.326 407.312 178.174 407.312ZM201.469 396.44H208.957V400.52H201.469V396.44ZM201.853 402.728H210.253V407H196.285V390.2H209.941V394.472H201.853V402.728ZM222.871 407L218.695 399.128L223.207 396.488L229.255 407H222.871ZM212.407 407V390.2H218.071V407H212.407ZM216.439 400.928V396.464H222.799V400.928H216.439ZM223.759 399.2L218.551 398.672L223.375 390.2H229.279L223.759 399.2ZM228.525 407L235.869 390.2H241.437L248.781 407H242.925L237.501 392.888H239.709L234.285 407H228.525ZM232.893 404.072L234.333 399.992H242.061L243.501 404.072H232.893ZM261.228 390.2H266.892V407H261.228V390.2ZM255.996 407H250.332V390.2H255.996V407ZM261.612 400.808H255.612V396.152H261.612V400.808ZM268.463 407L275.807 390.2H281.375L288.719 407H282.863L277.439 392.888H279.647L274.223 407H268.463ZM272.831 404.072L274.271 399.992H281.999L283.439 404.072H272.831ZM291.752 407.312C291.4 407.312 291.024 407.288 290.624 407.24C290.224 407.192 289.8 407.112 289.352 407L289.64 402.464C289.864 402.512 290.072 402.536 290.264 402.536C290.888 402.536 291.352 402.28 291.656 401.768C291.96 401.256 292.168 400.568 292.28 399.704C292.392 398.824 292.464 397.84 292.496 396.752L292.712 390.2H306.896V407H301.328V393.392L302.552 394.592H296.432L297.536 393.32L297.44 396.536C297.392 398.152 297.28 399.624 297.104 400.952C296.944 402.264 296.664 403.4 296.264 404.36C295.864 405.304 295.296 406.032 294.56 406.544C293.84 407.056 292.904 407.312 291.752 407.312ZM309.743 407V390.2H315.407V407H309.743ZM318.254 407V390.2H326.774C328.854 390.2 330.462 390.584 331.598 391.352C332.75 392.12 333.326 393.2 333.326 394.592C333.326 395.952 332.798 397.032 331.742 397.832C330.686 398.616 329.262 399.008 327.47 399.008L327.95 397.712C329.854 397.712 331.35 398.088 332.438 398.84C333.526 399.592 334.07 400.688 334.07 402.128C334.07 403.616 333.478 404.8 332.294 405.68C331.11 406.56 329.422 407 327.23 407H318.254ZM323.822 403.04H326.966C327.43 403.04 327.774 402.928 327.998 402.704C328.238 402.464 328.358 402.128 328.358 401.696C328.358 401.264 328.238 400.944 327.998 400.736C327.774 400.512 327.43 400.4 326.966 400.4H323.822V403.04ZM323.822 396.656H326.222C326.702 396.656 327.054 396.552 327.278 396.344C327.502 396.136 327.614 395.832 327.614 395.432C327.614 395.016 327.502 394.704 327.278 394.496C327.054 394.272 326.702 394.16 326.222 394.16H323.822V396.656Z" fill="#51B18B"/>
<path d="M131.5 85L121.5 103.999L131.5 123L121.5 123L121.5 122.999L29 122.999L29 85L131.5 85Z" fill="#8B6CB0"/>
<path d="M56.116 108.084L49.816 108.084L48.574 111L46.162 111L51.832 98.4L54.136 98.4L59.824 111L57.376 111L56.116 108.084ZM55.342 106.248L52.966 100.74L50.608 106.248L55.342 106.248ZM65.5002 107.148L63.7542 107.148L63.7542 111L61.5042 111L61.5042 101.388L63.7542 101.388L63.7542 105.276L65.5542 105.276L68.3982 101.388L70.8102 101.388L67.3182 106.014L71.0442 111L68.3982 111L65.5002 107.148ZM83.1791 109.092L83.1791 113.214L81.0731 113.214L81.0731 111L72.6311 111L72.6311 101.388L74.8811 101.388L74.8811 109.092L79.4711 109.092L79.4711 101.388L81.7211 101.388L81.7211 109.092L83.1791 109.092ZM85.1819 101.388L87.4319 101.388L87.4319 111L85.1819 111L85.1819 101.388ZM86.3159 99.804C85.9079 99.804 85.5659 99.678 85.2899 99.426C85.0139 99.162 84.8759 98.838 84.8759 98.454C84.8759 98.07 85.0139 97.752 85.2899 97.5C85.5659 97.236 85.9079 97.104 86.3159 97.104C86.7239 97.104 87.0659 97.23 87.3419 97.482C87.6179 97.722 87.7559 98.028 87.7559 98.4C87.7559 98.796 87.6179 99.132 87.3419 99.408C87.0779 99.672 86.7359 99.804 86.3159 99.804ZM98.5909 101.388L98.5909 111L96.5749 111L96.5749 108.102L94.0369 108.102L92.0749 111L89.6629 111L91.9309 107.796C91.2349 107.556 90.7009 107.19 90.3289 106.698C89.9689 106.194 89.7889 105.576 89.7889 104.844C89.7889 103.74 90.1789 102.888 90.9589 102.288C91.7389 101.688 92.8129 101.388 94.1809 101.388L98.5909 101.388ZM94.2529 103.278C92.8009 103.278 92.0749 103.824 92.0749 104.916C92.0749 105.996 92.7769 106.536 94.1809 106.536L96.5749 106.536L96.5749 103.278L94.2529 103.278ZM101.293 98.4L103.957 98.4L103.507 106.824L101.725 106.824L101.293 98.4ZM102.625 111.126C102.205 111.126 101.857 110.994 101.581 110.73C101.305 110.454 101.167 110.118 101.167 109.722C101.167 109.326 101.305 108.996 101.581 108.732C101.857 108.468 102.205 108.336 102.625 108.336C103.033 108.336 103.369 108.468 103.633 108.732C103.909 108.996 104.047 109.326 104.047 109.722C104.047 110.118 103.909 110.454 103.633 110.73C103.369 110.994 103.033 111.126 102.625 111.126Z" fill="white"/>
<path d="M103.632 526.963L97.7138 470.665L106.051 477.209L86.9141 479.22L85.4745 465.526L114.67 462.458L121.256 525.111L103.632 526.963ZM158.262 522.488C152.922 523.05 148.04 522.266 143.616 520.136C139.252 518.001 135.629 514.641 132.747 510.058C129.866 505.474 128.061 499.721 127.333 492.799C126.606 485.878 127.174 479.875 129.04 474.793C130.905 469.71 133.751 465.671 137.575 462.674C141.459 459.672 146.072 457.89 151.412 457.329C156.693 456.774 161.516 457.564 165.88 459.699C170.304 461.829 173.956 465.185 176.838 469.769C179.72 474.353 181.524 480.105 182.252 487.027C182.98 493.949 182.411 499.951 180.545 505.034C178.68 510.116 175.805 514.159 171.921 517.161C168.096 520.158 163.543 521.933 158.262 522.488ZM156.738 507.988C158.637 507.789 160.236 507.018 161.534 505.675C162.892 504.325 163.849 502.294 164.403 499.581C164.952 496.809 164.997 493.245 164.539 488.889C164.075 484.473 163.29 480.996 162.183 478.458C161.076 475.92 159.718 474.132 158.109 473.095C156.56 472.051 154.835 471.629 152.937 471.829C151.038 472.028 149.409 472.803 148.051 474.152C146.752 475.495 145.796 477.526 145.182 480.245C144.627 482.958 144.582 486.522 145.046 490.938C145.504 495.294 146.29 498.77 147.403 501.368C148.569 503.9 149.927 505.688 151.476 506.732C153.085 507.769 154.839 508.188 156.738 507.988ZM219.195 516.084C213.855 516.645 208.973 515.861 204.549 513.732C200.185 511.597 196.562 508.237 193.681 503.653C190.799 499.069 188.994 493.317 188.267 486.395C187.539 479.473 188.108 473.471 189.973 468.388C191.839 463.306 194.684 459.266 198.509 456.27C202.393 453.268 207.005 451.486 212.346 450.925C217.627 450.369 222.449 451.16 226.814 453.295C231.237 455.424 234.89 458.781 237.771 463.365C240.653 467.948 242.458 473.701 243.185 480.623C243.913 487.544 243.344 493.547 241.479 498.629C239.613 503.712 236.738 507.755 232.854 510.757C229.03 513.753 224.477 515.529 219.195 516.084ZM217.671 501.584C219.57 501.385 221.169 500.613 222.468 499.27C223.826 497.921 224.782 495.89 225.337 493.177C225.885 490.405 225.93 486.84 225.473 482.484C225.008 478.069 224.223 474.592 223.116 472.054C222.009 469.516 220.651 467.728 219.043 466.691C217.493 465.647 215.769 465.225 213.87 465.424C211.971 465.624 210.342 466.398 208.984 467.748C207.686 469.091 206.729 471.122 206.115 473.841C205.561 476.554 205.515 480.118 205.979 484.533C206.437 488.889 207.223 492.366 208.336 494.964C209.502 497.496 210.86 499.284 212.409 500.327C214.018 501.365 215.772 501.784 217.671 501.584Z" fill="#DC662D"/>
<path d="M251.449 502.598L250.089 489.661L260.865 488.529L261.244 492.133L253.981 492.896L254.851 491.815L255.935 502.126L251.449 502.598ZM272.106 500.644C271.014 500.758 270.055 500.618 269.23 500.222C268.402 499.81 267.732 499.141 267.219 498.213C266.719 497.268 266.389 496.032 266.229 494.504C266.067 492.961 266.124 491.684 266.402 490.673C266.678 489.647 267.171 488.855 267.88 488.298C268.605 487.739 269.545 487.399 270.701 487.278C271.872 487.155 272.961 487.322 273.969 487.779C274.991 488.218 275.832 488.91 276.491 489.854C277.164 490.781 277.573 491.929 277.717 493.297C277.861 494.665 277.701 495.881 277.236 496.943C276.788 498.004 276.109 498.855 275.201 499.498C274.308 500.139 273.277 500.521 272.106 500.644ZM264.476 505.91L262.629 488.343L266.925 487.892L267.156 490.087L267.582 494.362L268.271 498.634L268.986 505.436L264.476 505.91ZM270.777 497.139C271.284 497.086 271.722 496.919 272.093 496.639C272.479 496.357 272.767 495.973 272.956 495.487C273.16 494.999 273.228 494.428 273.16 493.776C273.091 493.124 272.906 492.58 272.604 492.145C272.318 491.709 271.957 491.393 271.521 491.197C271.1 491 270.636 490.928 270.13 490.981C269.624 491.035 269.177 491.202 268.791 491.484C268.421 491.764 268.133 492.149 267.928 492.637C267.739 493.123 267.679 493.692 267.748 494.345C267.816 494.997 267.994 495.542 268.28 495.978C268.581 496.413 268.942 496.729 269.363 496.926C269.8 497.121 270.271 497.193 270.777 497.139ZM280.563 499.538L279.203 486.601L283.689 486.13L284.193 490.927L288.822 490.441L288.317 485.643L292.827 485.169L294.187 498.106L289.677 498.58L289.2 494.045L284.572 494.531L285.049 499.066L280.563 499.538ZM295.082 500.425L300.552 477.118L304.563 476.696L299.094 500.003L295.082 500.425ZM305.597 496.906L304.237 483.97L308.984 483.471L314.358 491.449L312.483 491.646L316.508 482.68L320.757 482.234L322.14 495.168L318.082 495.594L317.193 487.145L317.932 487.55L314.662 494.795L312.739 494.997L307.999 488.256L308.76 487.959L309.655 496.48L305.597 496.906ZM325.183 494.848L323.823 481.911L328.333 481.437L329.693 494.374L325.183 494.848ZM325.928 480.242C325.105 480.329 324.416 480.168 323.861 479.76C323.306 479.351 322.993 478.805 322.921 478.121C322.849 477.437 323.042 476.837 323.5 476.323C323.958 475.808 324.598 475.507 325.421 475.421C326.244 475.334 326.932 475.487 327.485 475.88C328.036 476.256 328.348 476.786 328.42 477.471C328.495 478.187 328.305 478.81 327.849 479.341C327.407 479.854 326.766 480.154 325.928 480.242ZM339.219 493.59C337.794 493.739 336.491 493.587 335.307 493.132C334.139 492.676 333.186 491.98 332.447 491.044C331.707 490.092 331.269 488.964 331.132 487.659C330.994 486.354 331.19 485.167 331.717 484.098C332.245 483.029 333.033 482.158 334.082 481.485C335.146 480.794 336.389 480.373 337.813 480.224C339.269 480.071 340.56 480.249 341.685 480.758C342.811 481.267 343.654 482.063 344.216 483.146L340.915 485.303C340.551 484.73 340.133 484.332 339.662 484.108C339.188 483.868 338.691 483.775 338.169 483.83C337.646 483.885 337.184 484.054 336.782 484.338C336.38 484.622 336.077 485.007 335.872 485.495C335.681 485.966 335.62 486.527 335.689 487.18C335.759 487.848 335.937 488.4 336.223 488.837C336.525 489.272 336.902 489.586 337.354 489.78C337.807 489.974 338.294 490.043 338.816 489.988C339.338 489.933 339.807 489.747 340.221 489.43C340.634 489.097 340.959 488.613 341.196 487.976L344.874 489.4C344.549 490.576 343.89 491.53 342.895 492.262C341.9 492.994 340.674 493.437 339.219 493.59Z" fill="#5F6061"/>
<path d="M56.0518 527.43L57.454 522.811C58.4547 523.199 59.4854 523.466 60.546 523.612C61.6065 523.758 62.6243 523.801 63.5993 523.741C64.5743 523.682 65.4432 523.526 66.206 523.274C66.9877 522.999 67.5906 522.646 68.0146 522.216C68.4386 521.785 68.6183 521.262 68.5536 520.647C68.4822 519.968 68.1461 519.51 67.5452 519.273C66.9632 519.012 66.2186 518.929 65.3113 519.025L59.6464 519.62L59.1613 515.006L64.3199 514.463C65.1638 514.375 65.8 514.136 66.2285 513.748C66.657 513.36 66.8411 512.879 66.7809 512.306C66.7229 511.755 66.4767 511.341 66.0424 511.065C65.6058 510.768 65.0433 510.591 64.3548 510.534C63.664 510.457 62.8989 510.484 62.0594 510.615C61.2199 510.746 60.361 510.997 59.4828 511.368C58.6023 511.718 57.7635 512.16 56.9664 512.694L54.6357 508.177C56.0557 507.277 57.574 506.603 59.1907 506.154C60.8074 505.706 62.4042 505.473 63.9811 505.458C65.558 505.442 67.0084 505.644 68.3323 506.062C69.654 506.46 70.7309 507.065 71.563 507.878C72.4162 508.69 72.9064 509.7 73.0335 510.909C73.145 511.97 72.9594 512.944 72.4768 513.831C71.9941 514.719 71.292 515.447 70.3706 516.015C69.4491 516.584 68.3554 516.935 67.0895 517.068L67.1072 515.715C68.563 515.562 69.8557 515.683 70.9852 516.08C72.1359 516.473 73.0534 517.085 73.7379 517.914C74.4412 518.719 74.853 519.695 74.9735 520.841C75.0872 521.923 74.9039 522.918 74.4234 523.826C73.9619 524.711 73.2654 525.493 72.334 526.17C71.4025 526.847 70.3078 527.391 69.0498 527.802C67.8151 528.232 66.4688 528.513 65.0107 528.645C63.5549 528.798 62.0591 528.773 60.5232 528.569C59.0083 528.364 57.5179 527.984 56.0518 527.43ZM88.8317 525.723L88.4938 522.508L87.9987 521.756L87.3765 515.837C87.2761 514.882 86.9038 514.181 86.2595 513.734C85.6341 513.264 84.6884 513.095 83.4225 513.228C82.5996 513.314 81.7807 513.54 80.9658 513.904C80.1486 514.248 79.4692 514.684 78.9275 515.213L76.4704 511.32C77.3741 510.582 78.4832 509.972 79.7978 509.49C81.1313 508.986 82.4732 508.662 83.8235 508.52C86.6085 508.228 88.8286 508.649 90.4838 509.783C92.1578 510.894 93.1386 512.818 93.4263 515.555L94.4334 525.134L88.8317 525.723ZM83.7981 526.541C82.4267 526.685 81.2418 526.574 80.2433 526.207C79.2448 525.84 78.45 525.28 77.8588 524.527C77.2888 523.772 76.9514 522.896 76.8466 521.899C76.7351 520.838 76.9029 519.898 77.3501 519.079C77.8161 518.236 78.587 517.554 79.6629 517.034C80.7365 516.492 82.1594 516.128 83.9317 515.941L87.9826 515.516L88.3139 518.666L85.0858 519.006C84.1152 519.108 83.4463 519.339 83.0789 519.699C82.7325 520.057 82.5873 520.502 82.643 521.032C82.6988 521.562 82.9438 521.966 83.3781 522.242C83.8125 522.518 84.3778 522.619 85.074 522.546C85.7281 522.477 86.3021 522.256 86.7961 521.882C87.309 521.485 87.6563 520.934 87.8381 520.229L88.8952 522.37C88.7036 523.591 88.176 524.558 87.3123 525.271C86.4675 525.96 85.2961 526.384 83.7981 526.541Z" fill="#5F6061"/>
<defs>
<filter id="filter0_d_1338_2" x="0" y="0" width="393" height="713" filterUnits="userSpaceOnUse" color-interpolation-filters="sRGB">
<feFlood flood-opacity="0" result="BackgroundImageFix"/>
<feColorMatrix in="SourceAlpha" type="matrix" values="0 0 0 0 0 0 0 0 0 0 0 0 0 0 0 0 0 0 127 0" result="hardAlpha"/>
<feOffset dy="4"/>
<feGaussianBlur stdDeviation="14.5"/>
<feColorMatrix type="matrix" values="0 0 0 0 0.901961 0 0 0 0 0.890196 0 0 0 0 0.890196 0 0 0 1 0"/>
<feBlend mode="normal" in2="BackgroundImageFix" result="effect1_dropShadow_1338_2"/>
<feBlend mode="normal" in="SourceGraphic" in2="effect1_dropShadow_1338_2" result="shape"/>
</filter>
<filter id="filter1_d_1338_2" x="41" y="552" width="310" height="100" filterUnits="userSpaceOnUse" color-interpolation-filters="sRGB">
<feFlood flood-opacity="0" result="BackgroundImageFix"/>
<feColorMatrix in="SourceAlpha" type="matrix" values="0 0 0 0 0 0 0 0 0 0 0 0 0 0 0 0 0 0 127 0" result="hardAlpha"/>
<feOffset dy="4"/>
<feGaussianBlur stdDeviation="10"/>
<feColorMatrix type="matrix" values="0 0 0 0 0.862745 0 0 0 0 0.4 0 0 0 0 0.176471 0 0 0 0.5 0"/>
<feBlend mode="normal" in2="BackgroundImageFix" result="effect1_dropShadow_1338_2"/>
<feBlend mode="normal" in="SourceGraphic" in2="effect1_dropShadow_1338_2" result="shape"/>
</filter>
<linearGradient id="paint0_linear_1338_2" x1="317.595" y1="159.97" x2="315.277" y2="160.669" gradientUnits="userSpaceOnUse">
<stop stop-color="#F8AA9D"/>
<stop offset="1" stop-color="#FBC7BB"/>
</linearGradient>
<linearGradient id="paint1_linear_1338_2" x1="320.92" y1="190.513" x2="317.972" y2="190.834" gradientUnits="userSpaceOnUse">
<stop stop-color="#F8AA9D"/>
<stop offset="1" stop-color="#FBC7BB"/>
</linearGradient>
<linearGradient id="paint2_linear_1338_2" x1="165.385" y1="180.197" x2="170.95" y2="159.214" gradientUnits="userSpaceOnUse">
<stop stop-color="#F8AA9D"/>
<stop offset="1" stop-color="#FBC7BB"/>
</linearGradient>
<linearGradient id="paint3_linear_1338_2" x1="176.823" y1="247.683" x2="170.518" y2="257.894" gradientUnits="userSpaceOnUse">
<stop stop-color="#F8AA9D"/>
<stop offset="1" stop-color="#FBC7BB"/>
</linearGradient>
<linearGradient id="paint4_linear_1338_2" x1="122.958" y1="192.244" x2="121.662" y2="189.203" gradientUnits="userSpaceOnUse">
<stop stop-color="#F8AA9D"/>
<stop offset="1" stop-color="#FBC7BB"/>
</linearGradient>
</defs>
</svg>
