<svg width="396" height="353" viewBox="0 0 396 353" fill="none" xmlns="http://www.w3.org/2000/svg"><path fill-rule="evenodd" clip-rule="evenodd" d="M374.085 77.1C343.557 12.689 239.029-9.025 150.865 3.296-89.573 36.965-.553 395.007 128.274 345.478c64.842-24.886 124.432-19.884 161.065.122 89.752 49.041 137.376-157.611 84.746-268.5z" fill="#F8F6FB"/><path fill-rule="evenodd" clip-rule="evenodd" d="M48.047 137.119l4.884-2.074c5.74-2.44 7.816 4.148 5.495 5.49-.61.366-.61.731.245.366 5.25-.976 6.838 6.587 2.93 8.051-.61.244-.732.366 0 .244 3.297-.366 5.373 5.733.489 7.807-1.954.732-1.221.61-.122.61 2.32.244 4.03 5.368.244 7.076l-15.264 6.465c-6.594 1.342-9.158-1.098-11.967-1.098-2.564 0-9.891-16.59-7.937-17.566 1.22-.61 2.442-2.44 2.808-3.904.977-4.148 2.931-5.246 4.64-9.515 1.71-4.392 4.152-7.198 4.152-12.199-.732-7.93 7.327-5.612 7.938 1.098.122 3.293-.123 5.123-.977 7.929-.489 1.342.366 2.074 2.442 1.22zM326.706 322.91c-6.961-12.687-2.32-28.545 10.379-35.499 12.7-6.953 28.696-2.44 35.657 10.247 6.96 12.687 2.32 28.546-10.38 35.499-12.699 6.954-28.696 2.318-35.656-10.247z" fill="#EDE2F9"/><path fill-rule="evenodd" clip-rule="evenodd" d="M338.306 316.445c-.366-.732-.488-1.586-.244-2.318s.733-1.342 1.465-1.83c.733-.366 1.588-.488 2.321-.244.732.244 1.343.732 1.831 1.464.367.732.489 1.586.244 2.318-.244.732-.732 1.342-1.465 1.83-.733.366-1.587.488-2.32.244-.733-.244-1.343-.732-1.832-1.464zm9.525-19.397a1.672 1.672 0 0 1-1.221-2.074c.244-.975 1.221-1.463 2.198-1.219 2.442.61 4.884 1.829 7.082 3.659 2.076 1.708 3.908 3.904 5.373 6.588a23.807 23.807 0 0 1 2.687 8.173c.366 2.806.122 5.612-.733 8.051-.366.976-1.343 1.464-2.198 1.098-.977-.366-1.343-1.342-1.099-2.195.611-1.952.855-4.148.611-6.466-.245-2.318-1.099-4.636-2.32-6.953-1.222-2.196-2.809-4.148-4.519-5.612-2.076-1.586-4.029-2.562-5.861-3.05zm-2.442 6.344c1.343.244 2.564.854 3.785 1.83 1.099.854 2.198 2.073 2.931 3.537.855 1.464 1.343 3.05 1.465 4.514v.122c.122 1.464 0 2.928-.488 4.148-.367.854.122 1.952.977 2.195.854.366 1.954-.121 2.32-.975.61-1.708.855-3.66.732-5.734v-.122c-.244-1.952-.854-3.904-1.831-5.856a14.412 14.412 0 0 0-3.908-4.635c-1.587-1.22-3.419-2.196-5.128-2.562-.977-.244-1.954.366-2.076 1.342-.245 1.098.366 2.074 1.221 2.196zm-2.198 6.465c.61.122 1.221.366 1.831.732a4.41 4.41 0 0 1 1.344 1.586c.366.61.61 1.342.61 1.952 0 .732-.122 1.342-.366 1.952-.366.854 0 1.952.855 2.318.854.366 1.953 0 2.32-.854.488-1.098.732-2.318.61-3.538-.122-1.22-.366-2.44-.977-3.538-.61-1.098-1.465-2.074-2.442-2.684-.977-.731-2.198-1.219-3.297-1.341-.977-.122-1.831.488-1.954 1.463-.122.854.489 1.708 1.466 1.952z" fill="#fff"/><path fill-rule="evenodd" clip-rule="evenodd" d="M98.724 59.289c-13.189-5.856-19.172-21.348-13.31-34.645 5.86-13.297 21.369-19.275 34.557-13.42 13.188 5.856 19.171 21.349 13.31 34.646-5.861 13.175-21.369 19.274-34.558 13.419z" fill="#EDE2F9"/><path fill-rule="evenodd" clip-rule="evenodd" d="M110.447 30.134l-4.396-1.952-5.373 12.077-3.541-1.586 5.372-12.077-4.396-1.952 1.222-2.806 12.333 5.49-1.221 2.806zm3.907 11.345l7.693-9.516 4.03 1.708-11.601 12.687-3.907-1.708 1.709-17.078 3.908 1.83-1.832 12.077z" fill="#fff"/><path fill-rule="evenodd" clip-rule="evenodd" d="M330.613 37.819l47.257 7.807c9.281 1.586 15.753 10.491 14.165 19.762-1.587 9.272-10.501 15.737-19.782 14.151l-44.692-7.441-15.509 8.417 2.809-14.517c-3.297-3.781-5.007-8.905-4.03-14.15 1.466-9.272 10.38-15.615 19.782-14.03zm34.924 28.301c3.053.488 5.984-1.586 6.472-4.635.489-3.05-1.587-5.978-4.64-6.466-3.053-.488-5.984 1.586-6.472 4.636-.488 3.05 1.587 5.977 4.64 6.465zm-15.752-2.562c3.053.488 5.983-1.585 6.472-4.635.488-3.05-1.588-5.978-4.64-6.466-3.053-.488-5.984 1.586-6.472 4.636-.489 2.928 1.587 5.856 4.64 6.465zm-15.63-2.683c3.052.488 5.983-1.586 6.471-4.636.489-3.05-1.587-5.977-4.64-6.465-3.053-.488-5.983 1.585-6.472 4.635-.61 3.05 1.466 5.978 4.641 6.466z" fill="#EDE2F9"/><path fill-rule="evenodd" clip-rule="evenodd" d="M95.426 212.265c26.987-10.247 68.871-20.25 95.858-30.62-40.541-32.693-37.733-8.661-63.62 3.782-25.644 12.077-19.05 17.689-32.238 26.838z" fill="#5983B1"/><path fill-rule="evenodd" clip-rule="evenodd" d="M367.246 153.709l-7.082 3.294 2.686 7.563 6.472-2.927c.122-.122-1.831-7.198-2.076-7.93z" fill="url(#a)"/><path fill-rule="evenodd" clip-rule="evenodd" d="M365.415 154.563c2.686 3.66 1.343 7.808 2.32 9.393 4.396 3.416 5.617 4.514 7.082 9.272 1.588 4.757 6.472 6.953 5.251.976-2.32-11.223-3.785-20.251-5.251-23.301-.977-1.463-8.547-1.951-9.402 3.66z" fill="#37254D"/><path fill-rule="evenodd" clip-rule="evenodd" d="M360.164 153.099c2.442 3.66 5.861 9.638 5.25 15.249-51.653 18.543-58.125 24.276-98.177 35.133-.977-5.245-14.409-14.516-17.584-25.252 25.399-12.199 47.013 1.952 110.511-25.13z" fill="#56A9BE"/><path fill-rule="evenodd" clip-rule="evenodd" d="M371.887 194.088l-7.083 1.83 1.099 7.442 6.594-1.586c0-.122-.488-6.954-.61-7.686z" fill="url(#b)"/><path fill-rule="evenodd" clip-rule="evenodd" d="M370.055 194.454c1.954 3.904-.122 7.442.488 9.149 3.542 3.904 4.396 5.124 5.007 9.76.611 4.635 4.762 7.563 4.64 1.829-.122-10.735 0-19.396-.855-22.446-.488-1.586-7.448-3.293-9.28 1.708z" fill="#37254D"/><path fill-rule="evenodd" clip-rule="evenodd" d="M364.438 191.527c3.297 3.049 4.518 11.833 2.198 15.005-52.997 7.685-82.303 3.781-122.844 6.831.122-4.514 3.053-26.716 2.076-36.231 36.389-7.564 15.264 17.688 118.57 14.395z" fill="#4998AC"/><path fill-rule="evenodd" clip-rule="evenodd" d="M245.99 177.131c-20.881 6.222-39.198 6.344-64.231-4.757-4.762 11.467-4.64 10.125-14.165 18.176 7.327 37.695 62.399 34.402 82.426 22.325 3.785-4.27 6.349-30.864-4.03-35.744z" fill="#5983B1"/><path fill-rule="evenodd" clip-rule="evenodd" d="M72.958 347.918c1.221-.61 2.32-1.098 3.663-1.708.733-.366.855-.488 1.222-1.22 1.831-3.659 3.54-6.953 5.373-10.613.366-.854.366-.854 1.099-1.22.244-.122.366-.122.61-.244 1.343-.488 1.343-.976 1.832-2.317 1.099-3.172 1.953-5.734 3.052-8.906-3.419 1.83-6.838 3.538-10.257 5.368a1368.783 1368.783 0 0 1-7.449 20.372c-.244.854-.122.976.855.488zm153.983-75.024c-1.221.61-2.32 1.098-3.664 1.708-.732.366-.977.366-1.831.244a397.745 397.745 0 0 1-11.723-2.318c-.855-.122-.855-.244-1.71.122-.122.122-.366.244-.61.366-1.221.732-1.588.488-2.931 0-3.175-1.098-5.739-1.952-8.914-3.05l10.624-4.757c6.838 2.196 13.676 4.391 20.637 6.709 1.221.366 1.099.488.122.976z" fill="#67498B"/><path fill-rule="evenodd" clip-rule="evenodd" d="M221.567 259.231L62.945 336.573c-.855.488-1.954 0-2.443-.854L15.81 244.226c-.489-.854-.123-1.951.854-2.439l158.745-77.342c.855-.488 1.954-.122 2.443.854l44.692 91.492c.367.976 0 1.952-.977 2.44z" fill="#8A6CAF"/><path d="M174.885 169.947L21.339 244.766l42.131 86.291 153.546-74.819-42.131-86.291z" fill="#fff"/><path fill-rule="evenodd" clip-rule="evenodd" d="M136.7 298.756c-.366.244-.855 0-.977-.366-.244-.366 0-.854.366-.976l9.647-4.758c.367-.244.855 0 .977.366.244.366 0 .854-.366.976l-9.647 4.758z" fill="#C5B0DF"/><path fill-rule="evenodd" clip-rule="evenodd" d="M166.373 189.697c-8.426-2.196-12.944-13.175-9.647-25.252 3.175-12.199 1.588-24.52 21.125-17.933 19.538 6.588 12.7 13.907 9.525 25.984-3.297 12.077-12.577 19.396-21.003 17.201z" fill="url(#c)"/><path fill-rule="evenodd" clip-rule="evenodd" d="M155.749 169.934c.367-3.05 1.099-6.831 2.076-9.881 10.502 5.368 17.584 7.197 30.894 7.685-.488 3.172-1.343 6.344-2.93 9.272-9.769-.366-21.492-3.294-30.04-7.076z" fill="#37254D"/><path fill-rule="evenodd" clip-rule="evenodd" d="M162.954 147.244c-2.931 5.489-4.03 8.661-5.617 15.249-2.687-6.954-3.541-10.004-1.832-16.347 2.931-10.979 3.663-15.981 10.99-13.053 7.327 2.806 3.419-1.952 16.119-.244 8.303 1.22 6.716 5.734 17.706 5.978 7.205.122 5.251 13.662-5.007 22.324-1.831 1.586-2.564 4.391-7.204 9.027 2.564-9.027 2.808-13.541.977-15.981-9.159 1.098-19.172-.854-26.132-6.953z" fill="#37254D"/><path fill-rule="evenodd" clip-rule="evenodd" d="M87.245 242.396c-1.1-3.293-.977-6.221.488-8.905 1.465-2.684 3.908-4.635 7.449-5.855 3.541-1.22 6.716-1.22 9.525.122 2.808 1.341 4.762 3.659 5.861 7.075l.855 2.562c1.099 3.294.977 6.221-.489 8.905-1.465 2.684-3.907 4.636-7.448 5.856-3.542 1.22-6.717 1.098-9.525-.122-2.809-1.22-4.763-3.538-5.984-6.954l-.732-2.684zm8.792.122c.366 1.22 1.099 2.196 2.076 2.684.977.488 2.076.61 3.297.244 2.564-.854 3.175-2.928 2.198-6.099l-.733-2.196c-.366-1.22-1.099-2.196-2.076-2.806-.977-.61-2.076-.61-3.297-.244s-1.954 1.098-2.442 2.074c-.367.976-.367 2.196 0 3.538l.977 2.805zm26.132 21.105c-1.099-3.294-.977-6.222.488-8.906 1.465-2.683 3.908-4.635 7.449-5.855 3.541-1.22 6.716-1.22 9.525.122 2.808 1.22 4.762 3.66 5.861 7.075l.855 2.562c1.099 3.294.977 6.222-.489 8.905-1.465 2.684-3.907 4.636-7.449 5.856-3.541 1.22-6.716 1.098-9.524-.122-2.809-1.22-4.763-3.538-5.984-6.953l-.732-2.684zm8.67.122c.366 1.098 1.099 1.952 2.198 2.562 1.099.61 2.075.731 3.174.366 2.321-.732 3.175-2.318 2.687-4.636l-1.221-3.782c-.489-1.342-1.099-2.196-2.076-2.684-.977-.488-2.076-.61-3.297-.244-1.099.366-1.954 1.098-2.442 2.074-.489.976-.489 2.074-.122 3.416l1.099 2.928zm-16.486 12.443l-6.594-.976 11.723-49.65 6.594.976-11.723 49.65z" fill="#EDE2F9"/><path fill-rule="evenodd" clip-rule="evenodd" d="M191.04 272.894c-1.222 1.464-2.076 2.196-2.809 3.903-.977 3.904-1.465 6.222-5.129 10.736-9.891 12.199-19.049 1.463-14.897-2.318 5.495-2.318 4.884-4.026 5.373-7.198-2.198.732-3.175 1.342-4.885 1.83 2.931-7.319 8.426-5.977 10.013-6.343 2.931-.61 4.64-3.294 6.106-4.758 1.831-1.83 7.693 2.44 6.228 4.148z" fill="url(#d)"/><path fill-rule="evenodd" clip-rule="evenodd" d="M194.459 240.445c-6.716 13.175-3.297 15.858-14.776 30.741 2.931 3.782 6.472 6.344 9.891 7.564 4.641-6.344 14.532-15.859 18.073-26.228 5.739-16.225-7.205-22.813-13.188-12.077z" fill="#5983B1"/><path fill-rule="evenodd" clip-rule="evenodd" d="M119.238 193.112c.855 1.83 1.709 3.782 2.564 5.49.855 1.83-1.099 4.636-3.541 3.172.122 2.074-2.564 3.781-4.396 2.196.122 2.317-3.175 3.781-4.762 2.195-.489 2.806-3.786 2.44-4.641.61-.854-1.708-1.587-3.415-2.564-5.367-2.564-5.368 14.898-13.541 17.34-8.296z" fill="url(#e)"/><path fill-rule="evenodd" clip-rule="evenodd" d="M190.307 195.796c-3.785 14.761 7.205 28.668 3.541 46.6-2.198 10.98 10.868 19.153 16.974 1.952 4.396-12.443 2.564-31.473-.611-44.038-3.297-13.053-15.996-19.763-19.904-4.514z" fill="#5983B1"/><path fill-rule="evenodd" clip-rule="evenodd" d="M213.875 2.564a2.448 2.448 0 0 1 2.442-2.44 2.448 2.448 0 0 1 2.442 2.44v161.881h-4.884V2.564z" fill="#EDE2F9"/><path fill-rule="evenodd" clip-rule="evenodd" d="M212.897 182.377h8.792c1.588 0 2.809-1.22 2.809-2.806v-13.662c0-1.586-1.221-2.806-2.809-2.806h-8.792c-1.587 0-2.808 1.22-2.808 2.806v13.662c0 1.586 1.221 2.806 2.808 2.806z" fill="#EDE2F9"/><path fill-rule="evenodd" clip-rule="evenodd" d="M221.934 180.547c-.366-.61-.122-1.342.489-1.708.61-.366 1.343-.122 1.709.488 3.053 5.612 4.763 12.809 5.129 20.129.366 7.563-.489 15.249-2.809 21.348-.244.61-.977.976-1.587.732-.611-.244-.977-.976-.733-1.586 2.076-5.733 3.053-13.053 2.687-20.372-.489-6.832-2.076-13.785-4.885-19.031zm-11.234.61c-.366-.61-.122-1.342.488-1.708.611-.366 1.344-.122 1.71.488 3.053 5.612 4.762 12.809 5.129 20.129.366 7.563-.489 15.249-2.809 21.348-.244.61-.977.976-1.587.732-.611-.244-.977-.976-.733-1.586 2.076-5.733 3.053-13.053 2.686-20.372-.488-6.832-2.075-13.785-4.884-19.031zm5.495-.122c2.809 5.246 4.396 12.199 4.884 19.153.367 7.319-.488 14.639-2.686 20.372-.244.61.122 1.342.733 1.586.61.244 1.343-.122 1.587-.732 2.198-5.977 3.175-13.663 2.809-21.348-.367-7.32-2.076-14.517-5.129-20.129-.366-.61-1.099-.854-1.71-.488-.61.244-.732.976-.488 1.586z" fill="#EDE2F9"/><defs><linearGradient id="a" x1="366.464" y1="158.8" x2="363.436" y2="159.715" gradientUnits="userSpaceOnUse"><stop stop-color="#FCADA2"/><stop offset="1" stop-color="#FEC8C1"/></linearGradient><linearGradient id="b" x1="370.788" y1="198.569" x2="366.938" y2="198.989" gradientUnits="userSpaceOnUse"><stop stop-color="#FCADA2"/><stop offset="1" stop-color="#FEC8C1"/></linearGradient><linearGradient id="c" x1="167.607" y1="185.076" x2="174.843" y2="157.725" gradientUnits="userSpaceOnUse"><stop stop-color="#FCADA2"/><stop offset="1" stop-color="#FEC8C1"/></linearGradient><linearGradient id="d" x1="182.542" y1="273.014" x2="174.334" y2="286.339" gradientUnits="userSpaceOnUse"><stop stop-color="#FCADA2"/><stop offset="1" stop-color="#FEC8C1"/></linearGradient><linearGradient id="e" x1="112.145" y1="200.788" x2="110.459" y2="196.824" gradientUnits="userSpaceOnUse"><stop stop-color="#FCADA2"/><stop offset="1" stop-color="#FEC8C1"/></linearGradient></defs></svg>