<svg width="393" height="713" viewBox="0 0 393 713" fill="none" xmlns="http://www.w3.org/2000/svg">
<g filter="url(#filter0_d_1329_585)">
<rect x="29" y="25" width="335" height="655" rx="10" fill="white"/>
<g filter="url(#filter1_d_1329_585)">
<rect x="61" y="568" width="270" height="60" rx="30" fill="#DC662D"/>
<path d="M153.627 602.02V606.682H151.467V604H141.801V606.682H139.623L139.641 602.02H140.181C140.973 601.984 141.525 601.402 141.837 600.274C142.161 599.134 142.359 597.508 142.431 595.396L142.575 591.4H151.809V602.02H153.627ZM144.483 595.612C144.423 597.244 144.291 598.606 144.087 599.698C143.883 600.778 143.559 601.552 143.115 602.02H149.505V593.38H144.573L144.483 595.612ZM164.403 599.248C164.403 599.404 164.391 599.626 164.367 599.914H156.825C156.957 600.622 157.299 601.186 157.851 601.606C158.415 602.014 159.111 602.218 159.939 602.218C160.995 602.218 161.865 601.87 162.549 601.174L163.755 602.56C163.323 603.076 162.777 603.466 162.117 603.73C161.457 603.994 160.713 604.126 159.885 604.126C158.829 604.126 157.899 603.916 157.095 603.496C156.291 603.076 155.667 602.494 155.223 601.75C154.791 600.994 154.575 600.142 154.575 599.194C154.575 598.258 154.785 597.418 155.205 596.674C155.637 595.918 156.231 595.33 156.987 594.91C157.743 594.49 158.595 594.28 159.543 594.28C160.479 594.28 161.313 594.49 162.045 594.91C162.789 595.318 163.365 595.9 163.773 596.656C164.193 597.4 164.403 598.264 164.403 599.248ZM159.543 596.08C158.823 596.08 158.211 596.296 157.707 596.728C157.215 597.148 156.915 597.712 156.807 598.42H162.261C162.165 597.724 161.871 597.16 161.379 596.728C160.887 596.296 160.275 596.08 159.543 596.08ZM174.126 596.296H170.76V604H168.51V596.296H165.126V594.388H174.126V596.296ZM179.34 594.28C180.756 594.28 181.836 594.622 182.58 595.306C183.336 595.978 183.714 596.998 183.714 598.366V604H181.59V602.83C181.314 603.25 180.918 603.574 180.402 603.802C179.898 604.018 179.286 604.126 178.566 604.126C177.846 604.126 177.216 604.006 176.676 603.766C176.136 603.514 175.716 603.172 175.416 602.74C175.128 602.296 174.984 601.798 174.984 601.246C174.984 600.382 175.302 599.692 175.938 599.176C176.586 598.648 177.6 598.384 178.98 598.384H181.464V598.24C181.464 597.568 181.26 597.052 180.852 596.692C180.456 596.332 179.862 596.152 179.07 596.152C178.53 596.152 177.996 596.236 177.468 596.404C176.952 596.572 176.514 596.806 176.154 597.106L175.272 595.468C175.776 595.084 176.382 594.79 177.09 594.586C177.798 594.382 178.548 594.28 179.34 594.28ZM179.034 602.488C179.598 602.488 180.096 602.362 180.528 602.11C180.972 601.846 181.284 601.474 181.464 600.994V599.878H179.142C177.846 599.878 177.198 600.304 177.198 601.156C177.198 601.564 177.36 601.888 177.684 602.128C178.008 602.368 178.458 602.488 179.034 602.488ZM195.21 594.388V604H192.96V596.296H189.36L189.27 598.204C189.21 599.476 189.09 600.544 188.91 601.408C188.742 602.26 188.448 602.938 188.028 603.442C187.62 603.934 187.056 604.18 186.336 604.18C186 604.18 185.586 604.114 185.094 603.982L185.202 602.092C185.37 602.128 185.514 602.146 185.634 602.146C186.09 602.146 186.432 601.966 186.66 601.606C186.888 601.234 187.032 600.796 187.092 600.292C187.164 599.776 187.224 599.044 187.272 598.096L187.434 594.388H195.21ZM203.065 597.556C204.289 597.556 205.225 597.832 205.873 598.384C206.533 598.936 206.863 599.716 206.863 600.724C206.863 601.78 206.503 602.596 205.783 603.172C205.063 603.748 204.049 604.03 202.741 604.018L198.241 604V594.388H200.491V597.538L203.065 597.556ZM202.543 602.362C203.203 602.374 203.707 602.236 204.055 601.948C204.403 601.66 204.577 601.24 204.577 600.688C204.577 600.148 204.409 599.752 204.073 599.5C203.737 599.248 203.227 599.116 202.543 599.104L200.491 599.086V602.344L202.543 602.362ZM208.84 594.388H211.09V598.294H215.932V594.388H218.182V604H215.932V600.202H211.09V604H208.84V594.388ZM221.198 594.388H223.448V604H221.198V594.388ZM222.332 592.804C221.924 592.804 221.582 592.678 221.306 592.426C221.03 592.162 220.892 591.838 220.892 591.454C220.892 591.07 221.03 590.752 221.306 590.5C221.582 590.236 221.924 590.104 222.332 590.104C222.74 590.104 223.082 590.23 223.358 590.482C223.634 590.722 223.772 591.028 223.772 591.4C223.772 591.796 223.634 592.132 223.358 592.408C223.094 592.672 222.752 592.804 222.332 592.804ZM240.655 594.388V604H226.489V594.388H228.739V602.092H232.465V594.388H234.715V602.092H238.405V594.388H240.655ZM252.68 599.248C252.68 599.404 252.668 599.626 252.644 599.914H245.102C245.234 600.622 245.576 601.186 246.128 601.606C246.692 602.014 247.388 602.218 248.216 602.218C249.272 602.218 250.142 601.87 250.826 601.174L252.032 602.56C251.6 603.076 251.054 603.466 250.394 603.73C249.734 603.994 248.99 604.126 248.162 604.126C247.106 604.126 246.176 603.916 245.372 603.496C244.568 603.076 243.944 602.494 243.5 601.75C243.068 600.994 242.852 600.142 242.852 599.194C242.852 598.258 243.062 597.418 243.482 596.674C243.914 595.918 244.508 595.33 245.264 594.91C246.02 594.49 246.872 594.28 247.82 594.28C248.756 594.28 249.59 594.49 250.322 594.91C251.066 595.318 251.642 595.9 252.05 596.656C252.47 597.4 252.68 598.264 252.68 599.248ZM247.82 596.08C247.1 596.08 246.488 596.296 245.984 596.728C245.492 597.148 245.192 597.712 245.084 598.42H250.538C250.442 597.724 250.148 597.16 249.656 596.728C249.164 596.296 248.552 596.08 247.82 596.08Z" fill="white"/>
</g>
<path d="M364 65L29 65L29 25L364 25L364 44L364 65Z" fill="#5984B2"/>
<rect x="29" y="25" width="80" height="40" fill="white"/>
<path d="M56.092 38.4C57.256 38.4 58.27 38.592 59.134 38.976C59.998 39.36 60.664 39.912 61.132 40.632C61.6 41.352 61.834 42.192 61.834 43.152C61.834 44.112 61.6 44.952 61.132 45.672C60.664 46.392 59.998 46.944 59.134 47.328C58.27 47.712 57.256 47.904 56.092 47.904H54.274V51H50.026V38.4H56.092ZM55.822 44.628C56.398 44.628 56.83 44.502 57.118 44.25C57.406 43.986 57.55 43.62 57.55 43.152C57.55 42.684 57.406 42.324 57.118 42.072C56.83 41.808 56.398 41.676 55.822 41.676H54.274V44.628H55.822ZM70.009 51.288C68.653 51.288 67.435 51.006 66.355 50.442C65.275 49.878 64.429 49.098 63.817 48.102C63.205 47.094 62.899 45.96 62.899 44.7C62.899 43.44 63.205 42.312 63.817 41.316C64.429 40.308 65.275 39.522 66.355 38.958C67.435 38.394 68.653 38.112 70.009 38.112C71.365 38.112 72.583 38.394 73.663 38.958C74.743 39.522 75.589 40.308 76.201 41.316C76.813 42.312 77.119 43.44 77.119 44.7C77.119 45.96 76.813 47.094 76.201 48.102C75.589 49.098 74.743 49.878 73.663 50.442C72.583 51.006 71.365 51.288 70.009 51.288ZM70.009 47.85C70.537 47.85 71.011 47.724 71.431 47.472C71.863 47.208 72.205 46.842 72.457 46.374C72.709 45.894 72.835 45.336 72.835 44.7C72.835 44.064 72.709 43.512 72.457 43.044C72.205 42.564 71.863 42.198 71.431 41.946C71.011 41.682 70.537 41.55 70.009 41.55C69.481 41.55 69.001 41.682 68.569 41.946C68.149 42.198 67.813 42.564 67.561 43.044C67.309 43.512 67.183 44.064 67.183 44.7C67.183 45.336 67.309 45.894 67.561 46.374C67.813 46.842 68.149 47.208 68.569 47.472C69.001 47.724 69.481 47.85 70.009 47.85ZM91.0808 38.4V51H87.5888L82.8008 45.276V51H78.6608V38.4H82.1528L86.9408 44.124V38.4H91.0808Z" fill="#DC662D"/>
<path d="M125.596 38.4H129.772V51H125.596V38.4ZM144.432 38.4V51H140.184V46.356H136.26V51H132.012V38.4H136.26V42.864H140.184V38.4H144.432ZM157.401 41.694H153.711V51H149.535V41.694H145.845V38.4H157.401V41.694ZM169.278 47.796V51H158.802V38.4H169.044V41.604H162.978V43.08H168.306V46.14H162.978V47.796H169.278ZM177.067 38.4C178.231 38.4 179.245 38.592 180.109 38.976C180.973 39.36 181.639 39.912 182.107 40.632C182.575 41.352 182.809 42.192 182.809 43.152C182.809 44.112 182.575 44.952 182.107 45.672C181.639 46.392 180.973 46.944 180.109 47.328C179.245 47.712 178.231 47.904 177.067 47.904H175.249V51H171.001V38.4H177.067ZM176.797 44.628C177.373 44.628 177.805 44.502 178.093 44.25C178.381 43.986 178.525 43.62 178.525 43.152C178.525 42.684 178.381 42.324 178.093 42.072C177.805 41.808 177.373 41.676 176.797 41.676H175.249V44.628H176.797ZM196.516 38.4V51H192.268V46.356H188.344V51H184.096V38.4H188.344V42.864H192.268V38.4H196.516ZM209.233 47.796V51H198.757V38.4H208.999V41.604H202.933V43.08H208.261V46.14H202.933V47.796H209.233ZM221.684 41.694H217.994V51H213.818V41.694H210.128V38.4H221.684V41.694Z" fill="white"/>
<path d="M97.5 375.764C95.1 375.764 92.6667 375.498 90.2 374.964C87.7333 374.431 85.5667 373.648 83.7 372.614L87.7 363.914C89.2 364.781 90.7667 365.431 92.4 365.864C94.0667 366.264 95.6333 366.464 97.1 366.464C98.4333 366.464 99.5167 366.248 100.35 365.814C101.217 365.348 101.65 364.664 101.65 363.764C101.65 362.998 101.333 362.414 100.7 362.014C100.067 361.581 99 361.364 97.5 361.364H92.85V354.114L101.9 344.914L102.95 348.864H85.5V339.964H111.6V347.214L102.55 356.414L96.9 353.214H100C104.4 353.214 107.75 354.198 110.05 356.164C112.35 358.131 113.5 360.664 113.5 363.764C113.5 365.764 112.933 367.681 111.8 369.514C110.7 371.348 108.967 372.848 106.6 374.014C104.267 375.181 101.233 375.764 97.5 375.764ZM132.013 375.764C128.913 375.764 126.163 375.048 123.763 373.614C121.396 372.181 119.53 370.098 118.163 367.364C116.83 364.631 116.163 361.331 116.163 357.464C116.163 353.598 116.83 350.298 118.163 347.564C119.53 344.831 121.396 342.748 123.763 341.314C126.163 339.881 128.913 339.164 132.013 339.164C135.113 339.164 137.846 339.881 140.213 341.314C142.613 342.748 144.48 344.831 145.813 347.564C147.18 350.298 147.863 353.598 147.863 357.464C147.863 361.331 147.18 364.631 145.813 367.364C144.48 370.098 142.613 372.181 140.213 373.614C137.846 375.048 135.113 375.764 132.013 375.764ZM132.013 366.314C132.78 366.314 133.463 366.048 134.063 365.514C134.663 364.981 135.13 364.064 135.463 362.764C135.83 361.464 136.013 359.698 136.013 357.464C136.013 355.198 135.83 353.431 135.463 352.164C135.13 350.864 134.663 349.948 134.063 349.414C133.463 348.881 132.78 348.614 132.013 348.614C131.246 348.614 130.563 348.881 129.963 349.414C129.363 349.948 128.88 350.864 128.513 352.164C128.18 353.431 128.013 355.198 128.013 357.464C128.013 359.698 128.18 361.464 128.513 362.764C128.88 364.064 129.363 364.981 129.963 365.514C130.563 366.048 131.246 366.314 132.013 366.314ZM166.632 375.764C163.532 375.764 160.782 375.048 158.382 373.614C156.015 372.181 154.149 370.098 152.782 367.364C151.449 364.631 150.782 361.331 150.782 357.464C150.782 353.598 151.449 350.298 152.782 347.564C154.149 344.831 156.015 342.748 158.382 341.314C160.782 339.881 163.532 339.164 166.632 339.164C169.732 339.164 172.465 339.881 174.832 341.314C177.232 342.748 179.099 344.831 180.432 347.564C181.799 350.298 182.482 353.598 182.482 357.464C182.482 361.331 181.799 364.631 180.432 367.364C179.099 370.098 177.232 372.181 174.832 373.614C172.465 375.048 169.732 375.764 166.632 375.764ZM166.632 366.314C167.399 366.314 168.082 366.048 168.682 365.514C169.282 364.981 169.749 364.064 170.082 362.764C170.449 361.464 170.632 359.698 170.632 357.464C170.632 355.198 170.449 353.431 170.082 352.164C169.749 350.864 169.282 349.948 168.682 349.414C168.082 348.881 167.399 348.614 166.632 348.614C165.865 348.614 165.182 348.881 164.582 349.414C163.982 349.948 163.499 350.864 163.132 352.164C162.799 353.431 162.632 355.198 162.632 357.464C162.632 359.698 162.799 361.464 163.132 362.764C163.499 364.064 163.982 364.981 164.582 365.514C165.182 366.048 165.865 366.314 166.632 366.314ZM197.679 374.964V355.364H203.111L210.951 368.16H208.095L215.711 355.364H221.143L221.199 374.964H215.179L215.123 364.436H216.075L210.867 373.2H207.955L202.523 364.436H203.699V374.964H197.679ZM232.648 375.244C230.782 375.244 229.148 374.899 227.748 374.208C226.367 373.518 225.294 372.575 224.528 371.38C223.763 370.167 223.38 368.804 223.38 367.292C223.38 365.743 223.754 364.371 224.5 363.176C225.266 361.982 226.302 361.048 227.608 360.376C228.934 359.704 230.418 359.368 232.06 359.368C233.572 359.368 234.963 359.667 236.232 360.264C237.52 360.862 238.547 361.748 239.312 362.924C240.096 364.1 240.488 365.556 240.488 367.292C240.488 367.516 240.479 367.768 240.46 368.048C240.442 368.31 240.423 368.552 240.404 368.776H228.616V365.724H237.044L234.664 366.536C234.664 365.939 234.552 365.435 234.328 365.024C234.123 364.595 233.834 364.268 233.46 364.044C233.087 363.802 232.639 363.68 232.116 363.68C231.594 363.68 231.136 363.802 230.744 364.044C230.371 364.268 230.082 364.595 229.876 365.024C229.671 365.435 229.568 365.939 229.568 366.536V367.488C229.568 368.142 229.699 368.702 229.96 369.168C230.222 369.635 230.595 369.99 231.08 370.232C231.566 370.456 232.154 370.568 232.844 370.568C233.554 370.568 234.132 370.475 234.58 370.288C235.047 370.102 235.532 369.822 236.036 369.448L239.34 372.78C238.594 373.583 237.67 374.199 236.568 374.628C235.486 375.039 234.179 375.244 232.648 375.244ZM242.763 374.964V359.648H256.147V364.576H247.691L249.063 363.232V374.964H242.763ZM266.898 374.964V372.248L266.45 371.52V366.368C266.45 365.622 266.217 365.052 265.75 364.66C265.302 364.268 264.565 364.072 263.538 364.072C262.848 364.072 262.148 364.184 261.438 364.408C260.729 364.614 260.122 364.903 259.618 365.276L257.602 361.104C258.498 360.544 259.572 360.115 260.822 359.816C262.073 359.518 263.296 359.368 264.49 359.368C267.122 359.368 269.157 359.956 270.594 361.132C272.05 362.308 272.778 364.175 272.778 366.732V374.964H266.898ZM262.558 375.244C261.308 375.244 260.262 375.03 259.422 374.6C258.582 374.171 257.948 373.602 257.518 372.892C257.089 372.164 256.874 371.362 256.874 370.484C256.874 369.495 257.126 368.655 257.63 367.964C258.134 367.274 258.9 366.751 259.926 366.396C260.972 366.042 262.288 365.864 263.874 365.864H267.066V368.916H264.882C264.21 368.916 263.716 369.028 263.398 369.252C263.1 369.458 262.95 369.775 262.95 370.204C262.95 370.559 263.081 370.858 263.342 371.1C263.622 371.324 263.996 371.436 264.462 371.436C264.892 371.436 265.284 371.324 265.638 371.1C266.012 370.858 266.282 370.484 266.45 369.98L267.262 371.856C267.02 372.995 266.506 373.844 265.722 374.404C264.938 374.964 263.884 375.244 262.558 375.244ZM283.645 375.412C282.413 375.412 281.246 375.244 280.145 374.908C279.062 374.572 278.11 374.022 277.289 373.256C276.468 372.491 275.824 371.483 275.357 370.232C274.89 368.982 274.657 367.442 274.657 365.612C274.657 364.455 274.76 363.382 274.965 362.392C275.17 361.384 275.488 360.46 275.917 359.62C276.346 358.78 276.897 358.043 277.569 357.408C278.241 356.755 279.044 356.214 279.977 355.784C280.91 355.336 281.974 355 283.169 354.776L290.785 353.404L291.625 358.584L285.185 359.732C284.774 359.807 284.354 359.9 283.925 360.012C283.496 360.106 283.085 360.246 282.693 360.432C282.301 360.6 281.946 360.843 281.629 361.16C281.312 361.478 281.06 361.888 280.873 362.392C280.705 362.896 280.621 363.522 280.621 364.268C280.621 364.492 280.63 364.679 280.649 364.828C280.668 364.978 280.686 365.155 280.705 365.36C280.724 365.547 280.733 365.846 280.733 366.256L279.137 364.856C279.622 364.184 280.173 363.615 280.789 363.148C281.405 362.663 282.105 362.29 282.889 362.028C283.673 361.767 284.56 361.636 285.549 361.636C287.042 361.636 288.312 361.916 289.357 362.476C290.421 363.036 291.224 363.811 291.765 364.8C292.325 365.771 292.605 366.882 292.605 368.132C292.605 369.663 292.213 370.97 291.429 372.052C290.645 373.135 289.581 373.966 288.237 374.544C286.893 375.123 285.362 375.412 283.645 375.412ZM283.757 370.736C284.242 370.736 284.662 370.634 285.017 370.428C285.372 370.204 285.652 369.906 285.857 369.532C286.062 369.159 286.165 368.739 286.165 368.272C286.165 367.787 286.062 367.376 285.857 367.04C285.652 366.704 285.362 366.443 284.989 366.256C284.634 366.07 284.224 365.976 283.757 365.976C283.272 365.976 282.842 366.07 282.469 366.256C282.096 366.443 281.806 366.704 281.601 367.04C281.396 367.358 281.293 367.74 281.293 368.188C281.293 368.674 281.396 369.112 281.601 369.504C281.806 369.878 282.096 370.176 282.469 370.4C282.842 370.624 283.272 370.736 283.757 370.736ZM294.552 374.964V359.648H300.88V374.964H294.552ZM297.716 358.416C296.559 358.416 295.635 358.108 294.944 357.492C294.254 356.876 293.908 356.111 293.908 355.196C293.908 354.282 294.254 353.516 294.944 352.9C295.635 352.284 296.559 351.976 297.716 351.976C298.874 351.976 299.798 352.266 300.488 352.844C301.179 353.423 301.524 354.17 301.524 355.084C301.524 356.055 301.179 356.858 300.488 357.492C299.798 358.108 298.874 358.416 297.716 358.416ZM307.377 374.964V363.232L308.749 364.576H302.701V359.648H318.353V364.576H312.305L313.677 363.232V374.964H307.377Z" fill="#8B6CB0"/>
<path fill-rule="evenodd" clip-rule="evenodd" d="M63.853 287.622C49.7006 277.706 37.9572 253.066 66.563 235.939C84.3287 225.121 91.2543 237.141 101.191 198.077C109.02 167.127 116.247 143.99 154.187 157.812C168.038 162.92 179.48 180.349 214.711 168.63C257.469 154.507 269.814 181.551 256.565 210.097C246.328 232.032 236.391 241.948 247.231 261.48C283.967 326.986 243.015 317.671 169.845 317.972C102.395 318.272 80.1131 299.341 63.853 287.622Z" fill="#F8F6FB"/>
<path fill-rule="evenodd" clip-rule="evenodd" d="M169.845 305.051C166.231 305.051 163.22 303.548 160.811 301.445C158.403 299.041 156.897 296.036 156.897 292.43C156.897 288.824 158.402 285.819 160.51 283.416C162.919 281.012 165.93 279.81 169.544 279.81C173.157 279.81 176.168 281.312 178.577 283.416C180.986 285.819 182.492 288.824 182.492 292.43C182.492 296.036 180.986 299.041 178.878 301.445C176.469 303.548 173.458 305.051 169.845 305.051ZM116.548 230.229C113.838 233.234 109.02 233.535 106.009 230.53C102.998 227.825 102.697 223.018 105.708 220.013C112.934 212.2 122.871 205.89 134.012 201.383C144.852 197.176 156.897 194.772 169.544 194.772C182.492 194.772 194.837 197.176 205.677 201.383C217.12 205.89 226.755 212.501 234.283 220.614C236.993 223.619 236.692 228.426 233.681 231.131C230.67 233.835 225.852 233.535 223.142 230.53C217.421 224.22 209.592 218.811 200.257 215.205C191.224 211.599 180.685 209.496 169.544 209.496C158.704 209.496 148.165 211.599 139.432 214.905C130.098 218.811 122.269 224.22 116.548 230.229ZM135.518 252.165C139.131 247.958 144.25 244.352 149.971 241.948C155.692 239.544 162.317 238.343 169.544 238.343C176.77 238.343 183.395 239.845 189.417 242.249H189.718C195.439 244.653 200.558 248.259 203.871 252.465C206.581 255.47 211.398 256.071 214.41 253.367C217.421 250.662 218.023 245.855 215.313 242.85C210.194 236.84 203.268 232.032 195.439 228.727L195.138 228.426C187.61 225.121 178.878 223.318 169.544 223.318C160.51 223.318 151.778 225.121 144.25 228.126C136.12 231.431 129.195 236.239 124.076 242.249C121.366 245.254 121.667 250.062 124.678 252.766C127.99 255.47 132.808 255.17 135.518 252.165ZM154.789 273.499C152.38 276.805 147.562 277.406 144.25 275.002C140.938 272.598 140.336 267.79 142.745 264.485C145.756 260.579 149.971 257.273 154.789 254.869C159.306 252.766 164.425 251.564 169.845 251.564C175.265 251.564 180.384 252.766 185.202 255.17C190.019 257.574 194.235 260.879 197.246 265.086C199.655 268.391 199.053 273.199 195.741 275.603C192.428 278.007 187.61 277.406 185.202 274.1C183.696 271.997 181.287 270.194 178.878 268.992C176.168 267.79 173.458 267.189 170.146 267.189C167.135 267.189 164.124 267.79 161.414 268.992C158.402 269.593 156.295 271.396 154.789 273.499Z" fill="#B39CCE"/>
<path fill-rule="evenodd" clip-rule="evenodd" d="M169.845 302.948C166.231 302.948 163.22 301.445 160.811 299.342C158.403 296.938 156.897 293.933 156.897 290.327C156.897 286.721 158.402 283.716 160.51 281.312C162.919 278.909 165.93 277.707 169.544 277.707C173.157 277.707 176.168 279.209 178.577 281.312C180.986 283.716 182.492 286.721 182.492 290.327C182.492 293.933 180.986 296.938 178.878 299.342C176.469 301.445 173.458 302.948 169.845 302.948ZM116.548 228.126C113.838 231.131 109.02 231.432 106.009 228.427C102.998 225.722 102.697 220.915 105.708 217.91C112.934 210.097 122.871 203.787 134.012 199.28C144.852 195.073 156.897 192.669 169.544 192.669C182.492 192.669 194.837 195.073 205.677 199.28C217.12 203.787 226.755 210.398 234.283 218.511C236.993 221.516 236.692 226.323 233.681 229.028C230.67 231.732 225.852 231.432 223.142 228.427C217.421 222.117 209.592 216.708 200.257 213.102C191.224 209.496 180.685 207.393 169.544 207.393C158.704 207.393 148.165 209.496 139.432 212.802C130.098 216.708 122.269 222.117 116.548 228.126ZM135.518 250.062C139.131 245.855 144.25 242.249 149.971 239.845C155.692 237.441 162.317 236.24 169.544 236.24C176.77 236.24 183.395 237.742 189.417 240.146H189.718C195.439 242.55 200.558 246.156 203.871 250.362C206.581 253.367 211.398 253.968 214.41 251.264C217.421 248.559 218.023 243.752 215.313 240.747C210.194 234.737 203.268 229.929 195.439 226.624L195.138 226.323C187.61 223.018 178.878 221.215 169.544 221.215C160.51 221.215 151.778 223.018 144.25 226.023C136.12 229.328 129.195 234.136 124.076 240.146C121.366 243.151 121.667 247.958 124.678 250.663C127.99 253.367 132.808 253.067 135.518 250.062ZM154.789 271.396C152.38 274.702 147.562 275.303 144.25 272.899C140.938 270.495 140.336 265.687 142.745 262.382C145.756 258.476 149.971 255.17 154.789 252.766C159.306 250.663 164.425 249.461 169.845 249.461C175.265 249.461 180.384 250.663 185.202 253.067C190.019 255.471 194.235 258.776 197.246 262.983C199.655 266.288 199.053 271.096 195.741 273.5C192.428 275.904 187.61 275.303 185.202 271.997C183.696 269.894 181.287 268.091 178.878 266.889C176.168 265.687 173.458 265.086 170.146 265.086C167.135 265.086 164.124 265.687 161.414 266.889C158.402 267.49 156.295 269.293 154.789 271.396Z" fill="#C5B0DF"/>
<path fill-rule="evenodd" clip-rule="evenodd" d="M189.116 157.211C189.116 156.61 190.32 156.009 190.923 155.108C191.224 154.507 191.525 153.605 191.826 153.004C191.826 152.704 191.826 152.403 191.525 151.802C191.224 150.901 191.826 150.6 192.127 151.201C192.428 151.502 193.03 152.103 193.03 153.004C193.332 152.704 193.332 152.704 193.633 152.403C194.536 151.802 195.439 152.704 195.138 153.305C195.74 153.004 196.343 154.206 196.042 154.507C196.644 154.507 196.945 155.408 196.644 155.709C197.246 156.009 197.246 156.31 196.945 156.911C196.042 157.512 195.439 157.812 194.837 158.113C194.235 158.413 193.332 158.413 192.729 158.713C192.127 159.314 190.923 160.216 190.32 159.615C189.718 159.014 189.116 158.113 189.116 157.211Z" fill="url(#paint0_linear_1329_585)"/>
<path fill-rule="evenodd" clip-rule="evenodd" d="M164.726 160.517C165.328 161.118 166.533 162.019 167.135 162.019C174.964 163.522 174.964 163.221 177.975 163.221C179.782 162.019 183.094 161.118 189.417 156.31C190.019 156.911 191.224 158.714 191.525 159.916C186.707 163.822 182.492 167.128 179.782 168.029C177.072 168.93 174.964 169.832 169.544 169.531C169.243 169.531 167.737 169.531 166.231 170.433C165.93 170.132 164.425 160.517 164.726 160.517Z" fill="#5983B1"/>
<path fill-rule="evenodd" clip-rule="evenodd" d="M182.491 222.417L183.997 218.511L187.61 220.013L186.406 223.92C186.105 223.92 182.793 222.718 182.491 222.417Z" fill="url(#paint1_linear_1329_585)"/>
<path fill-rule="evenodd" clip-rule="evenodd" d="M208.086 202.585L204.774 200.482L206.882 198.078L211.7 201.383L211.097 201.984C211.097 201.984 208.387 202.585 208.086 202.585Z" fill="url(#paint2_linear_1329_585)"/>
<path fill-rule="evenodd" clip-rule="evenodd" d="M182.793 221.215C184.298 223.018 186.406 222.417 187.008 223.318C188.213 226.023 188.514 226.624 190.622 227.826C192.729 229.027 193.332 231.732 190.622 230.53C185.503 228.427 181.287 226.924 180.083 225.722C179.48 225.121 179.782 221.215 182.793 221.215Z" fill="#37254D"/>
<path fill-rule="evenodd" clip-rule="evenodd" d="M207.183 201.984C209.29 202.284 210.495 200.782 211.398 200.782C213.807 201.984 214.409 202.284 216.818 201.984C218.926 201.683 221.034 203.186 218.324 204.087C213.205 205.59 209.291 207.092 207.785 207.092C207.183 207.092 205.376 203.787 207.183 201.984Z" fill="#37254D"/>
<path fill-rule="evenodd" clip-rule="evenodd" d="M177.072 185.157L193.633 186.359C194.235 186.359 194.235 187.561 193.633 187.561L177.072 186.359C176.168 186.359 176.469 185.157 177.072 185.157Z" fill="#8A6CAF"/>
<path fill-rule="evenodd" clip-rule="evenodd" d="M205.075 201.984C206.279 200.782 207.484 199.58 208.688 198.378C205.677 195.974 198.752 190.265 196.042 189.063C192.729 187.561 190.019 187.561 183.395 187.26C178.276 186.96 172.856 186.359 168.339 186.058C166.532 186.96 165.328 187.561 163.22 188.762C166.532 189.664 184.599 196.575 186.406 196.575C191.826 195.073 191.826 194.171 193.633 195.073C197.246 196.876 201.16 199.28 205.075 201.984Z" fill="#715198"/>
<path fill-rule="evenodd" clip-rule="evenodd" d="M165.93 186.959C174.663 189.964 180.083 191.467 188.815 194.472C193.633 195.974 195.138 198.378 193.332 204.087C191.525 210.698 190.019 214.304 188.213 220.914C186.406 220.013 184.298 220.013 182.793 218.811C183.696 213.703 183.997 210.698 184.9 205.59C185.503 200.782 185.503 200.481 181.588 199.58C175.566 198.077 171.651 197.777 165.328 196.876C159.005 195.674 155.391 193.57 155.994 188.762C159.005 187.861 162.919 187.861 165.93 186.959Z" fill="#67498B"/>
<path fill-rule="evenodd" clip-rule="evenodd" d="M198.752 173.438L193.031 186.659C192.729 187.26 193.633 187.861 193.934 186.959L199.655 173.438C200.257 173.438 199.053 172.837 198.752 173.438Z" fill="#8A6CAF"/>
<path fill-rule="evenodd" clip-rule="evenodd" d="M166.834 162.921L166.231 161.719L167.135 159.014L163.823 156.61L162.618 159.315L161.113 161.118L165.629 167.428L166.834 162.921Z" fill="url(#paint3_linear_1329_585)"/>
<path fill-rule="evenodd" clip-rule="evenodd" d="M176.469 148.197C174.361 142.488 169.845 140.985 164.124 144.291C156.897 160.817 174.663 166.226 176.469 148.197Z" fill="url(#paint4_linear_1329_585)"/>
<path fill-rule="evenodd" clip-rule="evenodd" d="M162.618 159.315C162.618 162.62 164.425 163.822 166.533 164.423C167.135 162.921 167.135 162.32 166.533 161.418C170.447 164.724 172.254 168.33 171.651 174.339C171.35 177.344 170.447 179.748 170.748 185.758C167.737 189.965 161.112 191.167 156.295 189.063C156.295 180.349 146.358 166.226 162.618 159.315Z" fill="#5983B1"/>
<path fill-rule="evenodd" clip-rule="evenodd" d="M178.577 181.551C179.48 181.851 179.781 182.452 180.685 181.851C181.588 181.25 182.491 181.25 183.094 181.551C185.201 181.851 184.9 182.152 186.406 184.556C187.61 186.66 186.406 186.66 185.503 185.157C184.298 183.053 182.793 183.955 180.986 184.256C180.083 184.256 179.179 184.256 178.276 183.955C178.276 183.053 178.276 182.452 178.577 181.551Z" fill="url(#paint5_linear_1329_585)"/>
<path fill-rule="evenodd" clip-rule="evenodd" d="M167.135 176.443C172.254 177.945 171.953 179.448 178.577 180.349C178.878 182.152 178.577 183.654 177.975 184.856C175.265 184.556 170.447 184.556 166.834 182.753C161.414 180.049 162.919 175.241 167.135 176.443Z" fill="#5983B1"/>
<path fill-rule="evenodd" clip-rule="evenodd" d="M178.577 144.891C177.975 140.384 174.06 142.187 173.458 142.187C171.651 142.788 171.049 140.384 167.135 140.985C163.521 141.586 162.919 141.886 162.016 143.389C160.811 145.793 162.016 149.098 161.715 150.3C161.715 150.601 160.51 154.507 162.919 157.512C163.521 156.61 163.822 154.807 164.425 153.605C163.822 153.305 163.22 152.704 163.822 151.502C164.425 150.3 165.328 151.502 165.629 151.202C165.93 150.601 166.533 150.3 167.135 150.3C172.254 147.896 174.663 151.803 176.168 150.901C177.373 150.601 179.179 148.197 178.577 144.891Z" fill="#37254D"/>
<path fill-rule="evenodd" clip-rule="evenodd" d="M161.414 165.925C161.715 174.339 161.112 173.738 168.64 176.743C162.317 172.836 162.919 173.738 161.414 165.925Z" fill="#456F9B"/>
<path fill-rule="evenodd" clip-rule="evenodd" d="M96.0722 315.568L95.1689 311.962L91.2544 312.563L92.1577 315.869C92.4589 315.869 95.7711 315.568 96.0722 315.568Z" fill="url(#paint6_linear_1329_585)"/>
<path fill-rule="evenodd" clip-rule="evenodd" d="M85.5331 314.366L84.6297 310.76L81.0164 311.361L81.9197 314.667C81.6186 314.667 84.9308 314.366 85.5331 314.366Z" fill="url(#paint7_linear_1329_585)"/>
<path fill-rule="evenodd" clip-rule="evenodd" d="M96.072 314.667C93.9642 315.568 92.1575 314.667 91.2542 314.967C89.1464 316.77 88.5442 317.371 86.1353 317.371C83.7264 317.672 82.2208 319.775 85.2319 319.775C90.652 319.775 95.1687 319.775 96.6742 319.475C97.5776 318.874 98.4809 315.568 96.072 314.667Z" fill="#37254D"/>
<path fill-rule="evenodd" clip-rule="evenodd" d="M85.2322 313.464C83.4255 314.366 81.6188 313.464 80.7155 313.765C78.9088 315.568 78.3066 315.868 75.8977 316.169C73.4887 316.47 72.2843 318.573 74.9943 318.573C80.1132 318.573 84.3288 318.573 85.8344 318.273C86.7377 317.672 87.6411 314.366 85.2322 313.464Z" fill="#37254D"/>
<path fill-rule="evenodd" clip-rule="evenodd" d="M85.8342 311.06C84.3287 311.962 81.0164 312.863 79.5108 311.661C75.8975 286.12 76.1986 278.007 74.9941 258.175C77.1019 258.175 80.7153 258.175 85.5331 257.574C84.9309 270.495 82.8231 280.411 85.8342 311.06Z" fill="#5983B1"/>
<path fill-rule="evenodd" clip-rule="evenodd" d="M97.2766 312.262C95.1688 313.164 92.1577 314.065 89.4476 313.464C85.232 287.322 85.8343 280.411 84.0276 260.278C86.7376 260.278 90.9532 259.377 96.3732 258.776C95.771 271.697 93.6632 280.711 97.2766 312.262Z" fill="#4B75A2"/>
<path fill-rule="evenodd" clip-rule="evenodd" d="M77.7042 228.727C77.4031 229.028 80.1131 226.624 80.7153 226.624C84.0276 226.323 87.942 226.323 91.2543 227.525C97.8788 229.929 99.9866 228.727 96.0721 222.417C94.2654 219.412 96.0721 216.407 96.9754 213.402C99.3844 205.89 94.5665 198.979 87.0387 198.979C81.9198 198.979 73.1875 201.984 76.1986 211.9C77.7042 216.407 78.3064 219.412 77.4031 221.515C74.6931 227.525 80.4142 224.52 77.7042 228.727Z" fill="#37254D"/>
<path fill-rule="evenodd" clip-rule="evenodd" d="M90.9533 224.52L89.1466 229.629L86.4366 233.235L81.9199 229.328L80.4143 224.52L84.0277 223.919V220.915H87.641V223.919L90.9533 224.52Z" fill="url(#paint8_linear_1329_585)"/>
<path fill-rule="evenodd" clip-rule="evenodd" d="M79.2098 208.294C83.1243 202.885 87.641 202.585 92.7599 207.092C95.47 226.624 76.1987 228.126 79.2098 208.294Z" fill="url(#paint9_linear_1329_585)"/>
<path fill-rule="evenodd" clip-rule="evenodd" d="M78.0053 211.299C82.8231 205.89 90.9531 213.102 90.652 207.092C92.1576 208.895 93.0609 212.2 92.7598 216.107C93.9643 214.003 94.2654 212.501 93.9643 209.797C93.3621 204.087 90.652 202.284 87.3398 201.984C79.5108 201.683 77.403 205.89 78.0053 211.299Z" fill="#37254D"/>
<path fill-rule="evenodd" clip-rule="evenodd" d="M63.853 233.535C64.1541 232.634 64.4553 232.634 64.1541 231.432C63.853 229.929 64.1541 229.328 64.7564 229.028C66.2619 228.126 65.6597 229.028 65.6597 229.929C65.6597 230.831 65.9608 231.732 65.9608 232.934C65.9608 233.835 66.2619 234.136 66.563 234.737C66.8642 236.239 67.4664 238.042 65.9608 238.643C65.6597 237.141 64.7564 235.338 63.853 233.535Z" fill="url(#paint10_linear_1329_585)"/>
<path fill-rule="evenodd" clip-rule="evenodd" d="M62.3474 238.944C64.1541 238.944 65.3585 238.944 66.8641 238.643C67.1652 238.343 66.8641 237.441 66.563 237.441C66.8641 237.141 66.8641 236.239 66.2619 235.939C66.563 235.638 66.563 234.436 65.9608 234.136C66.563 233.234 65.9608 232.333 65.0574 232.333C63.2507 232.633 61.4441 232.633 61.1429 234.737C60.8418 236.84 60.8418 238.944 62.3474 238.944Z" fill="url(#paint11_linear_1329_585)"/>
<path fill-rule="evenodd" clip-rule="evenodd" d="M80.4142 224.821C72.2842 229.028 71.3808 230.53 68.3697 241.949C67.7675 241.047 67.1652 239.845 66.8641 238.944C65.6597 238.944 63.853 239.244 62.3474 239.244C65.9608 250.963 68.3697 253.668 71.983 249.461C73.1875 247.958 74.0908 246.456 75.8975 242.55C77.4031 248.259 74.6931 249.16 74.6931 258.475C79.2098 262.682 91.5554 262.382 96.6743 258.776C96.6743 255.17 94.5665 252.165 95.4699 248.86C98.7821 250.062 99.3843 249.761 100.589 249.761C107.514 249.16 103.901 241.348 101.492 234.737C99.9866 230.831 96.9754 225.722 90.9532 224.821C89.4476 227.225 87.942 229.328 86.4365 231.732C84.3287 229.328 82.522 226.924 80.4142 224.821Z" fill="#56A9BE"/>
<path fill-rule="evenodd" clip-rule="evenodd" d="M88.8453 241.347H83.7263C83.4252 241.347 82.823 241.047 82.823 240.446V230.53C82.823 229.929 83.1241 229.628 83.7263 229.628H88.8453C89.1464 229.628 89.7486 229.929 89.7486 230.53V240.446C89.7486 241.047 89.1464 241.347 88.8453 241.347Z" fill="white"/>
<path fill-rule="evenodd" clip-rule="evenodd" d="M88.5443 230.831C88.8454 230.831 89.1465 231.131 89.1465 231.432C89.1465 231.732 88.8454 232.033 88.5443 232.033C88.2432 232.033 87.9421 231.732 87.9421 231.432C87.9421 231.131 88.2432 230.831 88.5443 230.831ZM87.3398 231.131C87.3398 231.131 87.641 231.131 87.3398 231.131C87.641 231.432 87.3398 231.732 87.3398 231.732C87.0387 231.432 87.0387 231.432 87.3398 231.131C87.0387 231.131 87.0387 231.131 87.3398 231.131Z" fill="#6C528B"/>
<path fill-rule="evenodd" clip-rule="evenodd" d="M86.7377 244.954C85.2321 244.653 84.0276 243.151 83.4254 242.55C82.5221 241.648 81.6187 240.446 82.221 239.545C81.9198 238.944 81.9198 238.343 82.221 238.042C81.9198 237.441 81.9198 236.84 82.8232 236.239C83.1243 237.141 83.4254 237.441 83.7265 238.042C84.3287 239.845 84.6299 239.845 85.5332 240.446C86.1354 240.747 85.8343 240.146 85.8343 239.845C85.5332 239.244 85.2321 238.643 84.931 238.042C84.6299 237.742 84.3287 237.141 84.0276 236.54C82.8232 234.737 84.0276 234.737 84.6299 235.639C85.2321 236.239 85.8343 236.84 86.1354 237.141C87.0388 238.643 86.7377 238.944 88.2432 239.545C88.8454 238.944 88.5443 238.643 88.5443 237.742C88.2432 236.239 88.5443 235.639 89.4477 235.338C89.4477 235.639 89.4477 236.54 89.7488 236.84C90.9532 238.643 90.351 238.944 90.351 241.648C90.0499 242.249 91.2544 242.249 91.2544 242.85C91.2544 243.752 90.351 244.653 89.4477 245.254C88.8454 245.855 87.9421 244.954 86.7377 244.954Z" fill="url(#paint12_linear_1329_585)"/>
<path fill-rule="evenodd" clip-rule="evenodd" d="M94.5666 232.934C94.5666 235.939 95.1688 237.141 95.7711 238.643C96.6744 241.348 97.5777 242.85 93.061 242.85C99.3844 243.752 98.4811 242.55 96.3733 238.343C95.4699 237.141 94.8677 235.939 94.5666 232.934Z" fill="#4998AC"/>
<path fill-rule="evenodd" clip-rule="evenodd" d="M246.93 273.5L246.026 279.509H236.391V273.5L238.8 273.199V270.194H244.521V273.199L246.93 273.5Z" fill="url(#paint13_linear_1329_585)"/>
<path fill-rule="evenodd" clip-rule="evenodd" d="M241.51 272.598C237.897 272.598 234.886 268.692 234.886 263.283C234.886 257.874 232.778 253.067 241.51 253.668C250.242 254.269 248.135 257.874 248.135 263.283C248.436 268.692 245.425 272.598 241.51 272.598Z" fill="url(#paint14_linear_1329_585)"/>
<path fill-rule="evenodd" clip-rule="evenodd" d="M235.487 255.471C234.885 258.175 234.885 259.677 234.885 262.382C233.079 259.677 232.476 258.776 232.476 255.771C232.476 250.963 232.175 248.86 235.487 249.16C238.8 249.461 236.692 247.958 242.112 247.357C245.725 247.057 245.424 248.86 249.941 247.958C252.952 247.357 253.554 253.067 250.242 257.874C249.64 258.776 249.64 259.978 248.134 262.382C248.134 258.475 247.833 256.372 246.93 255.771C243.618 256.973 239.101 257.273 235.487 255.471Z" fill="#37254D"/>
<path fill-rule="evenodd" clip-rule="evenodd" d="M255.963 313.164C247.231 313.164 238.198 313.164 229.465 313.164C225.852 310.159 219.529 304.45 220.432 300.844C224.648 297.839 233.681 302.346 242.112 301.746C252.049 301.145 260.781 298.44 263.491 299.041C263.792 303.548 255.361 308.657 255.963 313.164Z" fill="#67498B"/>
<path fill-rule="evenodd" clip-rule="evenodd" d="M249.941 317.972C255.06 319.174 255.06 320.376 258.674 322.779C265.298 327.287 261.986 327.287 255.662 326.686C251.748 326.385 250.242 324.582 247.231 321.878C248.436 320.676 249.038 319.174 249.941 317.972Z" fill="#37254D"/>
<path fill-rule="evenodd" clip-rule="evenodd" d="M250.844 317.972C249.941 319.474 249.038 321.277 247.833 322.78C235.187 319.775 231.272 317.972 219.228 310.46C213.807 307.154 218.023 297.238 223.142 299.943C234.283 306.253 241.209 310.76 250.844 317.972Z" fill="#715198"/>
<path fill-rule="evenodd" clip-rule="evenodd" d="M236.391 273.5C237.596 280.411 245.726 280.411 246.629 273.5C249.941 273.199 255.06 276.204 257.168 279.209C258.975 281.913 266.201 293.332 262.287 299.041C261.082 299.342 258.673 299.943 256.265 300.844C257.469 299.342 258.975 295.435 258.071 294.534C256.867 293.332 255.06 291.83 254.458 287.923C253.555 290.628 255.361 296.637 255.06 299.642C255.06 300.544 255.06 301.145 255.06 301.445C253.856 302.046 252.651 302.948 252.049 304.149C248.134 304.149 245.123 308.957 241.209 308.957C237.596 308.957 231.272 304.149 227.659 304.149C225.852 300.844 226.454 301.145 224.648 300.243C221.034 296.036 224.648 282.214 226.454 279.51C229.164 276.505 233.681 274.101 236.391 273.5ZM228.562 288.825C227.96 292.731 226.153 294.233 224.949 295.435C223.744 296.938 228.261 306.253 227.659 300.544C227.96 297.539 229.465 291.529 228.562 288.825Z" fill="#8A6CAF"/>
<path fill-rule="evenodd" clip-rule="evenodd" d="M220.131 275.603C220.432 274.702 220.733 274.401 220.432 273.2C219.83 271.397 220.432 270.796 221.034 270.195C222.54 268.993 222.239 270.195 222.239 271.397C222.239 272.298 222.841 273.5 222.841 275.002C222.841 276.204 223.443 276.204 223.744 277.406C224.346 278.909 225.25 281.313 223.443 282.214C222.54 279.81 221.335 277.707 220.131 275.603Z" fill="url(#paint15_linear_1329_585)"/>
<path fill-rule="evenodd" clip-rule="evenodd" d="M218.625 282.514C220.733 282.514 221.938 282.515 224.045 281.914C224.347 281.613 224.045 280.712 223.744 280.411C224.045 280.111 224.045 278.909 223.142 278.608C223.744 278.308 223.443 276.805 222.841 276.505C223.443 275.603 222.841 274.401 221.637 274.401C219.228 274.702 217.421 275.002 217.12 277.406C216.819 279.81 217.12 282.514 218.625 282.514Z" fill="url(#paint16_linear_1329_585)"/>
<path fill-rule="evenodd" clip-rule="evenodd" d="M218.625 298.14C218.324 290.928 218.927 289.726 218.023 282.514C220.131 282.514 222.239 282.514 224.045 281.613C224.347 288.824 226.153 290.928 226.153 296.036C226.454 303.248 219.228 304.149 218.625 298.14Z" fill="#8A6CAF"/>
<path fill-rule="evenodd" clip-rule="evenodd" d="M250.844 317.972L250.242 318.873C247.532 319.775 245.123 320.676 242.413 321.277C238.198 320.075 234.885 318.873 231.573 317.371C234.584 314.967 237.294 312.563 240.607 310.459C243.919 312.863 247.231 315.267 250.844 317.972Z" fill="#67498B"/>
<path fill-rule="evenodd" clip-rule="evenodd" d="M234.283 317.371C229.164 318.573 229.164 320.075 225.551 322.178C218.926 326.686 222.239 326.686 228.562 326.085C232.477 325.784 233.982 323.981 236.993 321.277C236.09 320.075 235.187 318.873 234.283 317.371Z" fill="#37254D"/>
<path fill-rule="evenodd" clip-rule="evenodd" d="M233.38 317.371C234.283 318.873 235.187 320.676 236.391 322.179C249.038 319.174 252.952 317.371 264.997 309.859C270.417 306.553 266.201 296.637 261.082 299.342C249.941 305.652 243.317 310.159 233.38 317.371Z" fill="#715198"/>
<path fill-rule="evenodd" clip-rule="evenodd" d="M246.93 306.554C246.328 306.554 246.027 306.854 246.027 307.455C246.027 308.056 246.328 308.357 246.93 308.357C247.532 308.357 247.833 308.056 247.833 307.455C247.833 306.854 247.231 306.554 246.93 306.554ZM246.629 309.559C246.027 309.559 245.726 309.859 245.726 310.46C245.726 311.061 246.027 311.362 246.629 311.362C247.231 311.362 247.532 311.061 247.532 310.46C247.532 309.859 247.231 309.559 246.629 309.559ZM246.027 308.958C246.027 309.559 245.726 309.859 245.123 309.859C244.521 309.859 244.22 309.559 244.22 308.958C244.22 308.357 244.521 308.056 245.123 308.056C245.726 308.056 246.027 308.357 246.027 308.958ZM249.038 308.958C249.038 309.559 248.737 309.859 248.134 309.859C247.532 309.859 247.231 309.559 247.231 308.958C247.231 308.357 247.532 308.056 248.134 308.056C248.737 308.056 249.038 308.657 249.038 308.958Z" fill="#6C528B"/>
<path fill-rule="evenodd" clip-rule="evenodd" d="M234.885 308.657H235.789V307.755C235.789 307.755 235.789 307.455 236.09 307.455H236.692C236.692 307.455 236.993 307.455 236.993 307.755V308.657H237.896C237.896 308.657 238.198 308.657 238.198 308.957V309.558C238.198 309.558 238.198 309.859 237.896 309.859H236.993V310.76C236.993 310.76 236.993 311.061 236.692 311.061H236.09C236.09 311.061 235.789 311.061 235.789 310.76V309.859H234.885C234.885 309.859 234.584 309.859 234.584 309.558L234.885 308.657C234.584 308.657 234.584 308.657 234.885 308.657Z" fill="#6C528B"/>
<path fill-rule="evenodd" clip-rule="evenodd" d="M256.566 308.356C257.168 310.46 255.662 310.159 253.253 310.46C253.253 308.356 252.35 309.859 252.35 309.258C252.35 307.756 251.447 308.657 250.844 309.558C250.242 310.76 249.64 311.061 249.038 310.46C248.436 309.859 248.737 309.859 249.339 308.356C249.64 307.455 250.242 306.253 251.447 305.953C252.049 305.953 252.651 305.652 253.253 305.352C256.867 303.248 255.662 299.041 257.168 295.436C259.878 294.234 263.491 295.135 262.889 298.44C260.179 302.046 258.673 304.751 256.566 308.356Z" fill="url(#paint17_linear_1329_585)"/>
<path fill-rule="evenodd" clip-rule="evenodd" d="M257.168 311.361H226.153C225.25 311.361 224.648 310.46 224.045 309.558L222.239 305.952C221.636 305.051 221.636 304.149 224.346 304.149H258.974C261.684 304.149 261.684 305.051 261.082 305.952L259.276 309.558C258.673 310.46 258.071 311.361 257.168 311.361Z" fill="#B19ACE"/>
<path fill-rule="evenodd" clip-rule="evenodd" d="M257.168 311.361H226.153C225.25 311.361 224.346 310.46 224.346 309.558L222.54 289.425C222.54 288.524 223.443 287.623 224.346 287.623H258.974C259.878 287.623 261.082 288.524 260.781 289.425L258.974 309.558C258.974 310.46 258.071 311.361 257.168 311.361Z" fill="#C5B0DF"/>
<path fill-rule="evenodd" clip-rule="evenodd" d="M241.811 301.746C243.015 301.746 244.22 300.544 244.22 299.342C244.22 298.14 243.015 296.938 241.811 296.938C240.607 296.938 239.402 298.14 239.402 299.342C239.402 300.544 240.305 301.746 241.811 301.746Z" fill="#EDE2F9"/>
<path fill-rule="evenodd" clip-rule="evenodd" d="M244.415 265.075C243.699 265.075 243.092 264.814 242.651 264.397C242.265 264.033 241.989 263.512 241.934 262.991C241.604 263.043 241.218 263.043 240.887 262.991C240.832 263.564 240.556 264.033 240.17 264.397C239.729 264.814 239.068 265.075 238.406 265.075C237.689 265.075 237.083 264.814 236.642 264.397C236.201 263.981 235.925 263.355 235.925 262.73C235.925 262.626 235.925 262.574 235.925 262.47L234.767 262.105L234.822 261.584L236.09 262.001C236.201 261.636 236.421 261.324 236.697 261.063C237.138 260.646 237.8 260.386 238.461 260.386C239.178 260.386 239.784 260.646 240.225 261.063C240.611 261.428 240.887 261.949 240.942 262.522C241.328 262.574 241.659 262.574 241.989 262.522C242.045 261.949 242.32 261.48 242.706 261.115C243.147 260.698 243.809 260.438 244.47 260.438C245.187 260.438 245.793 260.698 246.235 261.115C246.51 261.376 246.731 261.688 246.841 262.053L248.164 261.688V262.209L246.951 262.522C246.951 262.574 246.951 262.678 246.951 262.73C246.951 263.407 246.676 263.981 246.235 264.397C245.738 264.814 245.132 265.075 244.415 265.075ZM239.784 264.033C240.115 263.668 240.391 263.199 240.391 262.678C240.391 262.157 240.17 261.688 239.784 261.376C239.453 261.011 238.957 260.803 238.406 260.803C237.855 260.803 237.358 261.011 237.028 261.376C236.697 261.74 236.421 262.209 236.421 262.678C236.421 263.199 236.642 263.668 237.028 264.033C237.358 264.397 237.855 264.606 238.406 264.606C238.902 264.554 239.398 264.345 239.784 264.033ZM243.037 264.033C243.368 264.397 243.864 264.606 244.415 264.606C244.967 264.606 245.463 264.397 245.793 264.033C246.124 263.668 246.4 263.199 246.4 262.678C246.4 262.157 246.179 261.688 245.793 261.376C245.463 261.011 244.967 260.803 244.415 260.803C243.864 260.803 243.368 261.011 243.037 261.376C242.706 261.74 242.431 262.209 242.431 262.678C242.431 263.199 242.651 263.668 243.037 264.033Z" fill="#37254D"/>
<path d="M240.009 139.934C246.089 152.01 260.85 156.858 272.98 150.764C285.109 144.669 290.013 129.94 283.933 117.864C277.853 105.789 263.092 100.94 250.962 107.035C238.833 113.129 233.929 127.859 240.009 139.934Z" fill="#5984B2"/>
<path d="M273.799 131.348C277.604 129.486 278.491 127.63 278.218 126.091C277.665 122.971 272.969 121.143 270.285 120.421C266.075 116.455 259.603 116.081 254.98 119.567C259.408 118.929 261.816 119.179 263.171 119.63C259.863 119.757 255.215 120.558 251.641 121.976C249.088 122.989 244.67 125.725 244.341 128.564C243.94 132.019 250.09 133.573 251.248 133.834C254.078 140.294 261.988 142.925 268.147 139.318L263.366 135.298C258.432 137.025 253.767 130.91 257.158 126.879L270.171 137.822C272.037 136.106 273.314 133.84 273.799 131.348V131.348ZM273.897 130.771C274.261 128.237 273.801 125.623 272.554 123.349C277.671 124.654 279.152 127.88 273.897 130.771V130.771ZM246.091 128.85C246.378 127.721 247.755 126.283 251.025 124.824C250.018 127.463 249.997 130.366 250.917 132.993C249.078 132.627 245.467 131.306 246.091 128.85V128.85ZM259.23 124.376C261.053 122.357 264.267 122.215 266.493 124.087C268.719 125.959 269.13 129.149 267.453 131.291L259.23 124.376Z" fill="white"/>
<path fill-rule="evenodd" clip-rule="evenodd" d="M288.885 240.749C303.111 248.963 321.049 244.175 329.246 229.978C337.443 215.78 332.62 197.851 318.394 189.638C304.168 181.425 286.23 186.213 278.033 200.41C270.07 214.202 274.659 232.536 288.885 240.749Z" fill="#56AABF"/>
<path fill-rule="evenodd" clip-rule="evenodd" d="M291.198 212.338L312.74 224.775L320.234 211.795L298.692 199.357L291.198 212.338ZM286.886 214.175L297.659 195.516L324.078 210.769L313.305 229.428L301.924 222.858L300.285 225.697L302.317 226.871C302.724 227.105 302.896 227.746 302.662 228.151L301.959 229.368C301.725 229.774 301.084 229.945 300.678 229.71L292.142 224.782C291.736 224.548 291.564 223.907 291.798 223.502L292.501 222.285C292.735 221.879 293.375 221.708 293.782 221.943L295.814 223.116L297.453 220.276L286.886 214.175Z" fill="white"/>
<path fill-rule="evenodd" clip-rule="evenodd" d="M77.7387 187.728H70.6568L73.7256 198.801L61.4503 187.728H54.3684C52.952 187.728 51.7717 186.55 51.7717 185.137V171.708C51.7717 170.294 52.952 169.116 54.3684 169.116H77.7387C79.1551 169.116 80.3354 170.294 80.3354 171.708V185.137C80.3354 186.55 79.1551 187.728 77.7387 187.728Z" fill="#DC662D"/>
<path fill-rule="evenodd" clip-rule="evenodd" d="M66.1717 175.241C66.8799 173.828 67.588 173.357 68.7684 173.357C70.1847 173.357 71.3651 174.535 71.3651 175.948C71.3651 178.54 68.7684 181.131 66.1717 183.723C63.575 180.896 60.9783 178.304 60.9783 175.713C60.9783 174.299 62.1586 173.121 63.575 173.121C64.7553 173.121 65.4635 173.828 66.1717 175.241Z" fill="white"/>
<path d="M131.431 183.531C137.075 176.712 136.006 166.667 129.043 161.093C122.081 155.519 111.862 156.527 106.218 163.345C100.575 170.164 101.644 180.21 108.607 185.783C115.569 191.357 125.788 190.349 131.431 183.531Z" fill="#8B6CB0"/>
<path fill-rule="evenodd" clip-rule="evenodd" d="M125.069 178.437C124.749 178.824 124.295 179.047 123.821 179.094C123.341 179.141 122.85 179.01 122.456 178.695C122.058 178.377 121.829 177.93 121.779 177.464C121.73 177.001 121.86 176.516 122.182 176.127C122.503 175.74 122.958 175.518 123.43 175.47C123.908 175.424 124.4 175.552 124.795 175.869C125.193 176.187 125.423 176.637 125.472 177.1C125.521 177.565 125.391 178.048 125.069 178.437ZM111.708 177.552C111.792 178.138 111.376 178.679 110.78 178.759C110.185 178.839 109.632 178.429 109.548 177.843C109.33 176.324 109.491 174.663 110.026 173.015C110.535 171.45 111.38 169.89 112.554 168.472C113.743 167.035 115.151 165.89 116.633 165.08C118.194 164.226 119.842 163.742 121.418 163.667C122.019 163.64 122.533 164.097 122.564 164.688C122.594 165.279 122.131 165.782 121.53 165.809C120.281 165.869 118.962 166.259 117.7 166.949C116.463 167.627 115.274 168.598 114.253 169.832C113.248 171.046 112.529 172.364 112.104 173.675C111.669 175.015 111.535 176.349 111.708 177.552V177.552ZM115.913 177.42C116.014 178.004 115.613 178.557 115.019 178.654C114.425 178.751 113.861 178.354 113.76 177.77C113.569 176.665 113.655 175.46 114.016 174.271C114.357 173.146 114.944 172.033 115.772 171.032C116.614 170.015 117.62 169.215 118.687 168.657L118.749 168.627C119.855 168.06 121.037 167.75 122.179 167.727C122.779 167.716 123.278 168.185 123.293 168.775C123.307 169.364 122.831 169.853 122.232 169.864C121.43 169.88 120.582 170.106 119.768 170.523L119.725 170.546C118.909 170.974 118.131 171.595 117.471 172.392C116.819 173.18 116.362 174.039 116.103 174.894C115.84 175.759 115.777 176.629 115.913 177.42V177.42ZM120.104 177.246C120.246 177.821 119.885 178.4 119.301 178.537C118.717 178.674 118.127 178.317 117.985 177.742C117.813 177.041 117.815 176.288 117.996 175.559C118.169 174.865 118.499 174.188 118.992 173.592C119.493 172.987 120.111 172.526 120.781 172.219C121.48 171.897 122.24 171.748 122.985 171.782C123.585 171.81 124.053 172.312 124.027 172.902C124.001 173.492 123.492 173.949 122.892 173.921C122.501 173.904 122.093 173.986 121.711 174.162C121.335 174.334 120.983 174.599 120.691 174.952C120.402 175.301 120.212 175.689 120.114 176.078C120.016 176.473 120.014 176.876 120.104 177.246V177.246Z" fill="white"/>
<path d="M197.452 85.5571C196.327 82.5986 195.002 81.8354 192.062 82.0279C185.123 83.33 177.081 85.1832 170.351 87.3199C167.632 88.4767 166.775 89.7607 167.048 92.9226C167.319 96.3225 168.728 102.381 169.936 105.558C171.15 108.749 172.554 109.288 175.637 109.014C181.565 108.124 191.324 105.723 197.062 103.902C199.781 102.743 200.638 101.46 200.365 98.2982C200.063 94.8178 198.691 88.814 197.452 85.5571ZM180.526 100.794L178.584 92.2976L187.834 94.5692L180.526 100.794V100.794Z" fill="#DB662D"/>
</g>
<path d="M131.5 85L121.5 103.999L131.5 123L121.5 123L121.5 122.999L29 122.999L29 85L131.5 85Z" fill="#8B6CB0"/>
<path d="M56.1158 108.084L49.8158 108.084L48.5738 111L46.1618 111L51.8318 98.4L54.1358 98.4L59.8238 111L57.3758 111L56.1158 108.084ZM55.3418 106.248L52.9658 100.74L50.6078 106.248L55.3418 106.248ZM65.4999 107.148L63.7539 107.148L63.7539 111L61.5039 111L61.5039 101.388L63.7539 101.388L63.7539 105.276L65.5539 105.276L68.3979 101.388L70.8099 101.388L67.3179 106.014L71.0439 111L68.3979 111L65.4999 107.148ZM83.1789 109.092L83.1789 113.214L81.0729 113.214L81.0729 111L72.6309 111L72.6309 101.388L74.8809 101.388L74.8809 109.092L79.4709 109.092L79.4709 101.388L81.7209 101.388L81.7209 109.092L83.1789 109.092ZM85.1817 101.388L87.4317 101.388L87.4317 111L85.1817 111L85.1817 101.388ZM86.3157 99.804C85.9077 99.804 85.5657 99.678 85.2897 99.426C85.0137 99.162 84.8757 98.838 84.8757 98.454C84.8757 98.07 85.0137 97.752 85.2897 97.5C85.5657 97.236 85.9077 97.104 86.3157 97.104C86.7237 97.104 87.0657 97.23 87.3417 97.482C87.6177 97.722 87.7557 98.028 87.7557 98.4C87.7557 98.796 87.6177 99.132 87.3417 99.408C87.0777 99.672 86.7357 99.804 86.3157 99.804ZM98.5907 101.388L98.5907 111L96.5747 111L96.5747 108.102L94.0367 108.102L92.0747 111L89.6627 111L91.9307 107.796C91.2347 107.556 90.7007 107.19 90.3287 106.698C89.9687 106.194 89.7887 105.576 89.7887 104.844C89.7887 103.74 90.1787 102.888 90.9587 102.288C91.7387 101.688 92.8127 101.388 94.1807 101.388L98.5907 101.388ZM94.2527 103.278C92.8007 103.278 92.0747 103.824 92.0747 104.916C92.0747 105.996 92.7767 106.536 94.1807 106.536L96.5747 106.536L96.5747 103.278L94.2527 103.278ZM101.293 98.4L103.957 98.4L103.507 106.824L101.725 106.824L101.293 98.4ZM102.625 111.126C102.205 111.126 101.857 110.994 101.581 110.73C101.305 110.454 101.167 110.118 101.167 109.722C101.167 109.326 101.305 108.996 101.581 108.732C101.857 108.468 102.205 108.336 102.625 108.336C103.033 108.336 103.369 108.468 103.633 108.732C103.909 108.996 104.047 109.326 104.047 109.722C104.047 110.118 103.909 110.454 103.633 110.73C103.369 110.994 103.033 111.126 102.625 111.126Z" fill="white"/>
<path d="M364.148 385L64 385L82.6191 404.228L64 422L364.148 422V385Z" fill="#8B6CB0"/>
<path d="M140.034 408.135L138.729 409.511L138.729 395.656H144.744L144.744 409.511L143.375 408.135H150.695L149.39 409.511L149.39 395.656H155.372L155.372 412.999H128.037L128.037 395.656H134.051L134.052 409.511L132.747 408.135H140.034ZM159.455 412.999L159.455 395.656H168.715C170.943 395.656 172.682 396.05 173.934 396.84C175.186 397.608 175.812 398.717 175.812 400.168C175.812 401.554 175.228 402.663 174.062 403.495C172.916 404.306 171.367 404.711 169.416 404.711L169.957 403.431C172.057 403.431 173.637 403.826 174.698 404.615C175.78 405.383 176.321 406.514 176.321 408.007C176.321 409.543 175.727 410.759 174.539 411.655C173.372 412.551 171.58 412.999 169.161 412.999H159.455ZM164.865 409.063H168.62C169.363 409.063 169.914 408.935 170.275 408.679C170.636 408.402 170.816 407.997 170.816 407.463C170.816 406.909 170.635 406.503 170.275 406.247C169.935 405.991 169.405 405.863 168.684 405.863H164.865L164.865 409.063ZM164.865 402.631H168.174C168.896 402.631 169.426 402.503 169.766 402.247C170.105 401.97 170.275 401.576 170.275 401.064C170.275 400.552 170.105 400.178 169.766 399.944C169.426 399.688 168.896 399.56 168.174 399.56H164.865L164.865 402.631ZM179.375 412.999L179.375 395.656H185.389L185.39 404.743L192.613 395.656H198.182L198.182 412.999H192.136L192.136 403.879L184.976 412.999H179.375ZM214.213 410.343L214.212 400.488H209.598L209.535 402.151C209.492 402.983 209.439 403.773 209.376 404.519C209.333 405.245 209.227 405.906 209.057 406.503C208.888 407.101 208.644 407.613 208.325 408.039C208.007 408.445 207.583 408.743 207.053 408.935L201.134 408.135C201.706 408.135 202.173 407.975 202.534 407.655C202.916 407.314 203.213 406.845 203.425 406.247C203.637 405.65 203.785 404.967 203.87 404.199C203.976 403.41 204.051 402.578 204.093 401.704L204.316 395.656H220.259L220.259 410.343H214.213ZM200.561 416.583L200.561 408.135H222.645L222.646 416.583H217.045L217.045 412.999H206.193L206.194 416.583H200.561ZM237.336 412.999L232.086 404.903L236.954 402.024L244.465 412.999H237.336ZM225.244 412.999L225.244 395.656H231.29L231.29 412.999H225.244ZM229.508 406.823L229.508 402.056H235.745L235.745 406.823H229.508ZM237.559 404.999L231.895 404.423L237.686 395.656H244.082L237.559 404.999ZM246.469 412.999L246.469 395.656H252.515L252.515 412.999H246.469ZM249.492 393.736C248.389 393.736 247.498 393.426 246.819 392.808C246.14 392.189 245.8 391.421 245.8 390.504C245.8 389.586 246.14 388.818 246.819 388.2C247.498 387.581 248.389 387.272 249.492 387.272C250.595 387.272 251.486 387.571 252.165 388.168C252.844 388.744 253.183 389.49 253.183 390.408C253.183 391.368 252.844 392.168 252.165 392.808C251.507 393.426 250.616 393.736 249.492 393.736ZM265.256 413.287C263.346 413.287 261.639 412.903 260.132 412.135C258.647 411.367 257.48 410.311 256.632 408.967C255.783 407.602 255.359 406.045 255.359 404.295C255.359 402.546 255.783 401 256.632 399.656C257.48 398.312 258.647 397.266 260.132 396.52C261.638 395.752 263.346 395.368 265.255 395.368C267.207 395.368 268.894 395.784 270.315 396.616C271.736 397.448 272.744 398.621 273.338 400.136L268.66 402.535C268.257 401.725 267.759 401.138 267.165 400.776C266.571 400.392 265.924 400.2 265.224 400.2C264.523 400.2 263.887 400.36 263.314 400.68C262.741 401 262.285 401.469 261.946 402.088C261.628 402.685 261.469 403.421 261.469 404.295C261.469 405.191 261.628 405.949 261.946 406.567C262.285 407.186 262.742 407.655 263.314 407.975C263.887 408.295 264.524 408.455 265.224 408.455C265.924 408.455 266.571 408.274 267.165 407.911C267.759 407.527 268.257 406.93 268.66 406.119L273.338 408.519C272.744 410.034 271.737 411.207 270.315 412.039C268.894 412.871 267.207 413.287 265.256 413.287ZM279.78 412.999L279.78 399.144L281.084 400.488H274.211L274.211 395.656H291.331L291.331 400.488H284.458L285.794 399.144L285.794 412.999H279.78ZM303.793 401.032C306.085 401.053 307.835 401.565 309.044 402.567C310.253 403.57 310.858 404.999 310.858 406.855C310.858 408.775 310.158 410.29 308.758 411.399C307.379 412.487 305.47 413.021 303.03 412.999H293.674L293.674 395.656H299.688L299.688 401.032H303.793ZM302.425 408.839C303.146 408.839 303.709 408.669 304.112 408.327C304.515 407.986 304.716 407.463 304.716 406.759C304.716 406.034 304.515 405.522 304.112 405.223C303.73 404.925 303.168 404.765 302.425 404.743H299.688L299.688 408.807L302.425 408.839Z" fill="white"/>
<path d="M103.633 526.963L97.7143 470.665L106.052 477.209L86.9146 479.22L85.475 465.526L114.67 462.458L121.257 525.111L103.633 526.963ZM158.263 522.488C152.922 523.05 148.04 522.266 143.617 520.136C139.252 518.001 135.629 514.641 132.748 510.058C129.866 505.474 128.061 499.721 127.334 492.799C126.606 485.878 127.175 479.875 129.04 474.793C130.906 469.71 133.751 465.671 137.576 462.674C141.46 459.672 146.072 457.89 151.413 457.329C156.694 456.774 161.517 457.564 165.881 459.699C170.304 461.829 173.957 465.185 176.839 469.769C179.72 474.353 181.525 480.105 182.253 487.027C182.98 493.949 182.411 499.951 180.546 505.034C178.68 510.116 175.806 514.159 171.922 517.161C168.097 520.158 163.544 521.933 158.263 522.488ZM156.738 507.988C158.637 507.789 160.236 507.018 161.535 505.675C162.893 504.325 163.849 502.294 164.404 499.581C164.952 496.809 164.998 493.245 164.54 488.889C164.076 484.473 163.29 480.996 162.183 478.458C161.077 475.92 159.719 474.132 158.11 473.095C156.56 472.051 154.836 471.629 152.937 471.829C151.038 472.028 149.41 472.803 148.052 474.152C146.753 475.495 145.797 477.526 145.182 480.245C144.628 482.958 144.582 486.522 145.047 490.938C145.505 495.294 146.29 498.77 147.403 501.368C148.569 503.9 149.927 505.688 151.477 506.732C153.086 507.769 154.839 508.188 156.738 507.988ZM219.196 516.084C213.855 516.645 208.973 515.861 204.55 513.732C200.186 511.597 196.563 508.237 193.681 503.653C190.799 499.069 188.995 493.317 188.267 486.395C187.539 479.473 188.108 473.471 189.974 468.388C191.839 463.306 194.684 459.266 198.509 456.27C202.393 453.268 207.005 451.486 212.346 450.925C217.627 450.369 222.45 451.16 226.814 453.295C231.238 455.424 234.89 458.781 237.772 463.365C240.654 467.948 242.458 473.701 243.186 480.623C243.914 487.544 243.345 493.547 241.479 498.629C239.614 503.712 236.739 507.755 232.855 510.757C229.03 513.753 224.477 515.529 219.196 516.084ZM217.672 501.584C219.571 501.385 221.169 500.613 222.468 499.27C223.826 497.921 224.782 495.89 225.337 493.177C225.886 490.405 225.931 486.84 225.473 482.484C225.009 478.069 224.223 474.592 223.117 472.054C222.01 469.516 220.652 467.728 219.043 466.691C217.493 465.647 215.769 465.225 213.87 465.424C211.971 465.624 210.343 466.398 208.985 467.748C207.686 469.091 206.73 471.122 206.116 473.841C205.561 476.554 205.516 480.118 205.98 484.533C206.438 488.889 207.223 492.366 208.336 494.964C209.502 497.496 210.86 499.284 212.41 500.327C214.019 501.365 215.773 501.784 217.672 501.584Z" fill="#DC662D"/>
<path d="M251.449 502.598L250.089 489.661L260.865 488.529L261.244 492.133L253.981 492.896L254.851 491.815L255.935 502.126L251.449 502.598ZM272.106 500.644C271.014 500.758 270.055 500.618 269.23 500.222C268.403 499.81 267.732 499.141 267.219 498.213C266.72 497.268 266.39 496.032 266.229 494.504C266.067 492.961 266.124 491.684 266.402 490.673C266.678 489.647 267.171 488.855 267.88 488.298C268.606 487.739 269.546 487.399 270.701 487.278C271.872 487.155 272.961 487.322 273.969 487.779C274.991 488.218 275.832 488.91 276.491 489.854C277.165 490.781 277.573 491.929 277.717 493.297C277.861 494.665 277.701 495.881 277.237 496.943C276.788 498.004 276.11 498.855 275.201 499.498C274.309 500.139 273.277 500.521 272.106 500.644ZM264.476 505.91L262.63 488.343L266.926 487.892L267.157 490.087L267.582 494.362L268.271 498.634L268.986 505.436L264.476 505.91ZM270.778 497.139C271.284 497.086 271.722 496.919 272.093 496.639C272.479 496.357 272.767 495.973 272.956 495.487C273.16 494.999 273.228 494.428 273.16 493.776C273.091 493.124 272.906 492.58 272.604 492.145C272.319 491.709 271.957 491.393 271.521 491.197C271.1 491 270.637 490.928 270.13 490.981C269.624 491.035 269.178 491.202 268.791 491.484C268.421 491.764 268.133 492.149 267.929 492.637C267.74 493.123 267.68 493.692 267.748 494.345C267.817 494.997 267.994 495.542 268.28 495.978C268.581 496.413 268.943 496.729 269.363 496.926C269.8 497.121 270.271 497.193 270.778 497.139ZM280.563 499.538L279.203 486.601L283.689 486.13L284.193 490.927L288.822 490.441L288.317 485.643L292.827 485.169L294.187 498.106L289.677 498.58L289.201 494.045L284.572 494.531L285.049 499.066L280.563 499.538ZM295.083 500.425L300.552 477.118L304.563 476.696L299.094 500.003L295.083 500.425ZM305.597 496.906L304.237 483.97L308.984 483.471L314.358 491.449L312.483 491.646L316.508 482.68L320.757 482.234L322.141 495.168L318.082 495.594L317.194 487.145L317.932 487.55L314.662 494.795L312.74 494.997L307.999 488.256L308.76 487.959L309.656 496.48L305.597 496.906ZM325.184 494.848L323.824 481.911L328.333 481.437L329.693 494.374L325.184 494.848ZM325.928 480.242C325.105 480.329 324.416 480.168 323.861 479.76C323.306 479.351 322.993 478.805 322.921 478.121C322.849 477.437 323.042 476.837 323.5 476.323C323.958 475.808 324.598 475.507 325.421 475.421C326.244 475.334 326.932 475.487 327.485 475.88C328.037 476.256 328.348 476.786 328.42 477.471C328.496 478.187 328.305 478.81 327.849 479.341C327.407 479.854 326.767 480.154 325.928 480.242ZM339.219 493.59C337.795 493.739 336.491 493.587 335.307 493.132C334.139 492.676 333.186 491.98 332.448 491.044C331.708 490.092 331.269 488.964 331.132 487.659C330.995 486.354 331.19 485.167 331.718 484.098C332.245 483.029 333.033 482.158 334.083 481.485C335.146 480.794 336.39 480.373 337.814 480.224C339.27 480.071 340.56 480.249 341.686 480.758C342.811 481.267 343.655 482.063 344.216 483.146L340.915 485.303C340.551 484.73 340.133 484.332 339.662 484.108C339.189 483.868 338.691 483.775 338.169 483.83C337.647 483.885 337.184 484.054 336.782 484.338C336.38 484.622 336.077 485.007 335.872 485.495C335.682 485.966 335.621 486.527 335.689 487.18C335.759 487.848 335.938 488.4 336.223 488.837C336.525 489.272 336.902 489.586 337.354 489.78C337.807 489.974 338.294 490.043 338.816 489.988C339.338 489.933 339.807 489.747 340.221 489.43C340.634 489.097 340.959 488.613 341.197 487.976L344.874 489.4C344.55 490.576 343.89 491.53 342.895 492.262C341.9 492.994 340.675 493.437 339.219 493.59Z" fill="#5F6061"/>
<path d="M56.0518 527.43L57.454 522.811C58.4547 523.199 59.4854 523.466 60.546 523.612C61.6065 523.758 62.6243 523.801 63.5993 523.741C64.5743 523.682 65.4432 523.526 66.206 523.274C66.9877 522.999 67.5906 522.646 68.0146 522.216C68.4386 521.785 68.6183 521.262 68.5536 520.647C68.4822 519.968 68.1461 519.51 67.5452 519.273C66.9632 519.012 66.2186 518.929 65.3113 519.025L59.6464 519.62L59.1613 515.006L64.3199 514.463C65.1638 514.375 65.8 514.136 66.2285 513.748C66.657 513.36 66.8411 512.879 66.7809 512.306C66.7229 511.755 66.4767 511.341 66.0424 511.065C65.6058 510.768 65.0433 510.591 64.3548 510.534C63.664 510.457 62.8989 510.484 62.0594 510.615C61.2199 510.746 60.361 510.997 59.4828 511.368C58.6023 511.718 57.7635 512.16 56.9664 512.694L54.6357 508.177C56.0557 507.277 57.574 506.603 59.1907 506.154C60.8074 505.706 62.4042 505.473 63.9811 505.458C65.558 505.442 67.0084 505.644 68.3323 506.062C69.654 506.46 70.7309 507.065 71.563 507.878C72.4162 508.69 72.9064 509.7 73.0335 510.909C73.145 511.97 72.9594 512.944 72.4768 513.831C71.9941 514.719 71.292 515.447 70.3706 516.015C69.4491 516.584 68.3554 516.935 67.0895 517.068L67.1072 515.715C68.563 515.562 69.8557 515.683 70.9852 516.08C72.1359 516.473 73.0534 517.085 73.7379 517.914C74.4412 518.719 74.853 519.695 74.9735 520.841C75.0872 521.923 74.9039 522.918 74.4234 523.826C73.9619 524.711 73.2654 525.493 72.334 526.17C71.4025 526.847 70.3078 527.391 69.0498 527.802C67.8151 528.232 66.4688 528.513 65.0107 528.645C63.5549 528.798 62.0591 528.773 60.5232 528.569C59.0083 528.364 57.5179 527.984 56.0518 527.43ZM88.8317 525.723L88.4938 522.508L87.9987 521.756L87.3765 515.837C87.2761 514.882 86.9038 514.181 86.2595 513.734C85.6341 513.264 84.6884 513.095 83.4225 513.228C82.5996 513.314 81.7807 513.54 80.9658 513.904C80.1486 514.248 79.4692 514.684 78.9275 515.213L76.4704 511.32C77.3741 510.582 78.4832 509.972 79.7978 509.49C81.1313 508.986 82.4732 508.662 83.8235 508.52C86.6085 508.228 88.8286 508.649 90.4838 509.783C92.1578 510.894 93.1386 512.818 93.4263 515.555L94.4334 525.134L88.8317 525.723ZM83.7981 526.541C82.4267 526.685 81.2418 526.574 80.2433 526.207C79.2448 525.84 78.45 525.28 77.8588 524.527C77.2888 523.772 76.9514 522.896 76.8466 521.899C76.7351 520.838 76.9029 519.898 77.3501 519.079C77.8161 518.236 78.587 517.554 79.6629 517.034C80.7365 516.492 82.1594 516.128 83.9317 515.941L87.9826 515.516L88.3139 518.666L85.0858 519.006C84.1152 519.108 83.4463 519.339 83.0789 519.699C82.7325 520.057 82.5873 520.502 82.643 521.032C82.6988 521.562 82.9438 521.966 83.3781 522.242C83.8125 522.518 84.3778 522.619 85.074 522.546C85.7281 522.477 86.3021 522.256 86.7961 521.882C87.309 521.485 87.6563 520.934 87.8381 520.229L88.8952 522.37C88.7036 523.591 88.176 524.558 87.3123 525.271C86.4675 525.96 85.2961 526.384 83.7981 526.541Z" fill="#5F6061"/>
<defs>
<filter id="filter0_d_1329_585" x="0" y="0" width="393" height="713" filterUnits="userSpaceOnUse" color-interpolation-filters="sRGB">
<feFlood flood-opacity="0" result="BackgroundImageFix"/>
<feColorMatrix in="SourceAlpha" type="matrix" values="0 0 0 0 0 0 0 0 0 0 0 0 0 0 0 0 0 0 127 0" result="hardAlpha"/>
<feOffset dy="4"/>
<feGaussianBlur stdDeviation="14.5"/>
<feColorMatrix type="matrix" values="0 0 0 0 0.901961 0 0 0 0 0.890196 0 0 0 0 0.890196 0 0 0 1 0"/>
<feBlend mode="normal" in2="BackgroundImageFix" result="effect1_dropShadow_1329_585"/>
<feBlend mode="normal" in="SourceGraphic" in2="effect1_dropShadow_1329_585" result="shape"/>
</filter>
<filter id="filter1_d_1329_585" x="41" y="552" width="310" height="100" filterUnits="userSpaceOnUse" color-interpolation-filters="sRGB">
<feFlood flood-opacity="0" result="BackgroundImageFix"/>
<feColorMatrix in="SourceAlpha" type="matrix" values="0 0 0 0 0 0 0 0 0 0 0 0 0 0 0 0 0 0 127 0" result="hardAlpha"/>
<feOffset dy="4"/>
<feGaussianBlur stdDeviation="10"/>
<feColorMatrix type="matrix" values="0 0 0 0 0.862745 0 0 0 0 0.4 0 0 0 0 0.176471 0 0 0 0.5 0"/>
<feBlend mode="normal" in2="BackgroundImageFix" result="effect1_dropShadow_1329_585"/>
<feBlend mode="normal" in="SourceGraphic" in2="effect1_dropShadow_1329_585" result="shape"/>
</filter>
<linearGradient id="paint0_linear_1329_585" x1="189.742" y1="157.413" x2="192.858" y2="155.11" gradientUnits="userSpaceOnUse">
<stop stop-color="#F9B2A5"/>
<stop offset="1" stop-color="#FBCDC3"/>
</linearGradient>
<linearGradient id="paint1_linear_1329_585" x1="184.736" y1="222.078" x2="185.338" y2="220.442" gradientUnits="userSpaceOnUse">
<stop stop-color="#F9B2A5"/>
<stop offset="1" stop-color="#FBCDC3"/>
</linearGradient>
<linearGradient id="paint2_linear_1329_585" x1="208.488" y1="201.595" x2="207.632" y2="199.288" gradientUnits="userSpaceOnUse">
<stop stop-color="#F9B2A5"/>
<stop offset="1" stop-color="#FBCDC3"/>
</linearGradient>
<linearGradient id="paint3_linear_1329_585" x1="163.696" y1="163.318" x2="165.328" y2="159.196" gradientUnits="userSpaceOnUse">
<stop stop-color="#F58A76"/>
<stop offset="1" stop-color="#F8AA9B"/>
</linearGradient>
<linearGradient id="paint4_linear_1329_585" x1="165.475" y1="155.126" x2="171.566" y2="146.906" gradientUnits="userSpaceOnUse">
<stop stop-color="#F9B2A5"/>
<stop offset="1" stop-color="#FBCDC3"/>
</linearGradient>
<linearGradient id="paint5_linear_1329_585" x1="178.471" y1="183.446" x2="185.787" y2="183.848" gradientUnits="userSpaceOnUse">
<stop stop-color="#F9B2A5"/>
<stop offset="1" stop-color="#FBCDC3"/>
</linearGradient>
<linearGradient id="paint6_linear_1329_585" x1="93.8967" y1="314.883" x2="93.6873" y2="312.893" gradientUnits="userSpaceOnUse">
<stop stop-color="#F9B2A5"/>
<stop offset="1" stop-color="#FBCDC3"/>
</linearGradient>
<linearGradient id="paint7_linear_1329_585" x1="83.2494" y1="313.734" x2="83.0521" y2="311.86" gradientUnits="userSpaceOnUse">
<stop stop-color="#F9B2A5"/>
<stop offset="1" stop-color="#FBCDC3"/>
</linearGradient>
<linearGradient id="paint8_linear_1329_585" x1="85.7639" y1="232.569" x2="85.7657" y2="223.289" gradientUnits="userSpaceOnUse">
<stop stop-color="#F58A76"/>
<stop offset="1" stop-color="#F8AA9B"/>
</linearGradient>
<linearGradient id="paint9_linear_1329_585" x1="85.9497" y1="221.47" x2="85.9464" y2="207.655" gradientUnits="userSpaceOnUse">
<stop stop-color="#F9B2A5"/>
<stop offset="1" stop-color="#FBCDC3"/>
</linearGradient>
<linearGradient id="paint10_linear_1329_585" x1="65.6772" y1="234.626" x2="65.1629" y2="229.964" gradientUnits="userSpaceOnUse">
<stop stop-color="#F9B2A5"/>
<stop offset="1" stop-color="#FBCDC3"/>
</linearGradient>
<linearGradient id="paint11_linear_1329_585" x1="61.6705" y1="236.424" x2="66.2279" y2="235.924" gradientUnits="userSpaceOnUse">
<stop stop-color="#F9B2A5"/>
<stop offset="1" stop-color="#FBCDC3"/>
</linearGradient>
<linearGradient id="paint12_linear_1329_585" x1="89.7873" y1="244.761" x2="85.8451" y2="237.985" gradientUnits="userSpaceOnUse">
<stop stop-color="#F9B2A5"/>
<stop offset="1" stop-color="#FBCDC3"/>
</linearGradient>
<linearGradient id="paint13_linear_1329_585" x1="241.58" y1="278.982" x2="241.581" y2="272.073" gradientUnits="userSpaceOnUse">
<stop stop-color="#F58A76"/>
<stop offset="1" stop-color="#F8AA9B"/>
</linearGradient>
<linearGradient id="paint14_linear_1329_585" x1="241.652" y1="271.642" x2="241.655" y2="257.369" gradientUnits="userSpaceOnUse">
<stop stop-color="#F9B2A5"/>
<stop offset="1" stop-color="#FBCDC3"/>
</linearGradient>
<linearGradient id="paint15_linear_1329_585" x1="222.378" y1="276.843" x2="221.441" y2="271.353" gradientUnits="userSpaceOnUse">
<stop stop-color="#F9B2A5"/>
<stop offset="1" stop-color="#FBCDC3"/>
</linearGradient>
<linearGradient id="paint16_linear_1329_585" x1="217.783" y1="279.264" x2="222.87" y2="278.397" gradientUnits="userSpaceOnUse">
<stop stop-color="#F9B2A5"/>
<stop offset="1" stop-color="#FBCDC3"/>
</linearGradient>
<linearGradient id="paint17_linear_1329_585" x1="259.882" y1="297.043" x2="252.497" y2="309.883" gradientUnits="userSpaceOnUse">
<stop stop-color="#F9B2A5"/>
<stop offset="1" stop-color="#FBCDC3"/>
</linearGradient>
</defs>
</svg>
