<svg width="393" height="713" viewBox="0 0 393 713" fill="none" xmlns="http://www.w3.org/2000/svg">
<g filter="url(#filter0_d_1328_502)">
<g clip-path="url(#clip0_1328_502)">
<rect x="29" y="25" width="335" height="655" rx="10" fill="white"/>
<path d="M113.48 522.988L107.561 466.689L115.899 473.233L96.7618 475.245L95.3222 461.551L124.517 458.482L131.104 521.135L113.48 522.988ZM140.118 520.188L138.951 509.089L159.967 484.71C161.465 482.983 162.537 481.483 163.183 480.209C163.888 478.928 164.31 477.798 164.447 476.818C164.637 475.773 164.688 474.832 164.6 473.997C164.387 471.968 163.538 470.458 162.054 469.468C160.629 468.472 158.582 468.114 155.912 468.394C153.657 468.631 151.603 469.36 149.752 470.58C147.9 471.8 146.458 473.49 145.425 475.65L131.569 469.686C133.47 465.505 136.49 461.99 140.63 459.141C144.77 456.293 149.896 454.548 156.008 453.905C160.815 453.4 165.109 453.733 168.892 454.904C172.675 456.075 175.726 457.986 178.044 460.639C180.422 463.284 181.815 466.547 182.223 470.425C182.436 472.454 182.383 474.511 182.062 476.596C181.735 478.621 180.919 480.848 179.615 483.278C178.363 485.642 176.398 488.352 173.72 491.408L157.012 510.539L153.416 504.583L187.151 501.037L188.628 515.089L140.118 520.188ZM215.697 513.511C211.425 513.96 207.066 513.875 202.622 513.256C198.177 512.638 194.278 511.509 190.926 509.87L195.844 495.87C198.571 497.273 201.466 498.266 204.527 498.849C207.647 499.426 210.691 499.558 213.658 499.246C216.625 498.935 218.968 498.115 220.689 496.788C222.403 495.401 223.15 493.664 222.93 491.575C222.799 490.322 222.327 489.256 221.514 488.376C220.696 487.436 219.401 486.818 217.63 486.522C215.852 486.166 213.361 486.156 210.157 486.493L193.245 488.27L192.512 451.335L232.211 447.163L233.65 460.857L200.183 464.375L208.354 455.643L208.904 480.561L199.095 473.719L212.892 472.269C219.063 471.621 224.112 471.995 228.038 473.392C231.959 474.73 234.936 476.8 236.971 479.602C238.999 482.345 240.207 485.567 240.596 489.266C240.985 492.966 240.373 496.559 238.76 500.047C237.2 503.469 234.538 506.403 230.776 508.849C227.014 511.296 221.987 512.85 215.697 513.511Z" fill="#DC662D"/>
<path d="M250.449 502.559L249.089 489.623L259.865 488.49L260.244 492.094L252.981 492.858L253.851 491.777L254.935 502.088L250.449 502.559ZM271.106 500.606C270.014 500.72 269.055 500.58 268.23 500.184C267.403 499.772 266.732 499.102 266.219 498.175C265.72 497.23 265.39 495.994 265.229 494.466C265.067 492.923 265.124 491.646 265.402 490.635C265.678 489.609 266.171 488.817 266.88 488.26C267.606 487.701 268.546 487.361 269.701 487.239C270.872 487.116 271.961 487.283 272.969 487.741C273.991 488.18 274.832 488.872 275.491 489.816C276.165 490.743 276.573 491.89 276.717 493.259C276.861 494.627 276.701 495.843 276.237 496.905C275.788 497.966 275.11 498.817 274.201 499.46C273.309 500.1 272.277 500.482 271.106 500.606ZM263.476 505.872L261.63 488.305L265.926 487.853L266.157 490.049L266.582 494.324L267.271 498.595L267.986 505.398L263.476 505.872ZM269.778 497.101C270.284 497.048 270.722 496.881 271.093 496.601C271.479 496.319 271.767 495.935 271.956 495.449C272.16 494.96 272.228 494.39 272.16 493.738C272.091 493.085 271.906 492.542 271.604 492.107C271.319 491.671 270.957 491.355 270.521 491.159C270.1 490.962 269.637 490.89 269.13 490.943C268.624 490.997 268.178 491.164 267.791 491.446C267.421 491.726 267.133 492.11 266.929 492.599C266.74 493.085 266.68 493.654 266.748 494.307C266.817 494.959 266.994 495.504 267.28 495.94C267.581 496.375 267.943 496.691 268.363 496.888C268.8 497.083 269.271 497.154 269.778 497.101ZM279.563 499.499L278.203 486.563L282.689 486.092L283.193 490.889L287.822 490.403L287.317 485.605L291.827 485.131L293.187 498.067L288.677 498.541L288.201 494.007L283.572 494.493L284.049 499.028L279.563 499.499ZM294.083 500.387L299.552 477.08L303.563 476.658L298.094 499.965L294.083 500.387ZM304.597 496.868L303.237 483.932L307.984 483.433L313.358 491.411L311.483 491.608L315.508 482.642L319.757 482.196L321.141 495.129L317.082 495.556L316.194 487.107L316.932 487.512L313.662 494.757L311.74 494.959L306.999 488.218L307.76 487.921L308.656 496.442L304.597 496.868ZM324.184 494.81L322.824 481.873L327.333 481.399L328.693 494.336L324.184 494.81ZM324.928 480.204C324.105 480.291 323.416 480.13 322.861 479.722C322.306 479.313 321.993 478.767 321.921 478.083C321.849 477.399 322.042 476.799 322.5 476.285C322.958 475.77 323.598 475.469 324.421 475.383C325.244 475.296 325.932 475.449 326.485 475.842C327.037 476.218 327.348 476.748 327.42 477.433C327.496 478.149 327.305 478.772 326.849 479.302C326.407 479.815 325.767 480.116 324.928 480.204ZM338.219 493.552C336.795 493.701 335.491 493.549 334.307 493.094C333.139 492.638 332.186 491.941 331.448 491.006C330.708 490.054 330.269 488.925 330.132 487.621C329.995 486.316 330.19 485.129 330.718 484.06C331.245 482.991 332.033 482.12 333.083 481.447C334.146 480.756 335.39 480.335 336.814 480.186C338.27 480.033 339.56 480.211 340.686 480.72C341.811 481.229 342.655 482.025 343.216 483.108L339.915 485.265C339.551 484.692 339.133 484.294 338.662 484.07C338.189 483.83 337.691 483.737 337.169 483.792C336.647 483.847 336.184 484.016 335.782 484.3C335.38 484.583 335.077 484.969 334.872 485.457C334.682 485.928 334.621 486.489 334.689 487.142C334.759 487.81 334.938 488.362 335.223 488.799C335.525 489.234 335.902 489.548 336.354 489.742C336.807 489.936 337.294 490.005 337.816 489.95C338.338 489.895 338.807 489.709 339.221 489.392C339.634 489.059 339.959 488.575 340.197 487.938L343.874 489.362C343.55 490.538 342.89 491.492 341.895 492.224C340.9 492.956 339.675 493.399 338.219 493.552Z" fill="#5F6061"/>
<path d="M55.0518 527.392L56.454 522.773C57.4547 523.161 58.4854 523.428 59.546 523.574C60.6065 523.72 61.6243 523.763 62.5993 523.703C63.5743 523.644 64.4432 523.488 65.206 523.236C65.9877 522.961 66.5906 522.608 67.0146 522.177C67.4386 521.747 67.6183 521.224 67.5536 520.609C67.4822 519.93 67.1461 519.472 66.5452 519.234C65.9632 518.974 65.2186 518.891 64.3113 518.987L58.6464 519.582L58.1613 514.968L63.3199 514.425C64.1638 514.337 64.8 514.098 65.2285 513.71C65.657 513.322 65.8411 512.841 65.7809 512.268C65.7229 511.717 65.4767 511.303 65.0424 511.027C64.6058 510.729 64.0433 510.553 63.3548 510.496C62.664 510.419 61.8989 510.446 61.0594 510.577C60.2199 510.708 59.361 510.959 58.4828 511.33C57.6023 511.68 56.7635 512.122 55.9664 512.656L53.6357 508.139C55.0557 507.239 56.574 506.565 58.1907 506.116C59.8074 505.667 61.4042 505.435 62.9811 505.42C64.558 505.404 66.0084 505.606 67.3323 506.024C68.654 506.422 69.7309 507.027 70.563 507.84C71.4162 508.652 71.9064 509.662 72.0335 510.871C72.145 511.932 71.9594 512.906 71.4768 513.793C70.9941 514.681 70.292 515.409 69.3706 515.977C68.4491 516.546 67.3554 516.897 66.0895 517.03L66.1072 515.677C67.563 515.524 68.8557 515.645 69.9852 516.041C71.1359 516.435 72.0534 517.047 72.7379 517.876C73.4412 518.681 73.853 519.657 73.9735 520.803C74.0872 521.885 73.9039 522.88 73.4234 523.788C72.9619 524.673 72.2654 525.454 71.334 526.132C70.4025 526.809 69.3078 527.353 68.0498 527.764C66.8151 528.194 65.4688 528.475 64.0107 528.607C62.5549 528.76 61.0591 528.734 59.5232 528.531C58.0083 528.326 56.5179 527.946 55.0518 527.392ZM87.8317 525.685L87.4938 522.47L86.9987 521.718L86.3765 515.799C86.2761 514.844 85.9038 514.143 85.2595 513.696C84.6341 513.226 83.6884 513.057 82.4225 513.19C81.5996 513.276 80.7807 513.502 79.9658 513.866C79.1486 514.21 78.4692 514.646 77.9275 515.175L75.4704 511.282C76.3741 510.544 77.4832 509.934 78.7978 509.452C80.1313 508.948 81.4732 508.624 82.8235 508.482C85.6085 508.19 87.8286 508.61 89.4838 509.745C91.1578 510.856 92.1386 512.78 92.4263 515.517L93.4334 525.096L87.8317 525.685ZM82.7981 526.503C81.4267 526.647 80.2418 526.536 79.2433 526.169C78.2448 525.802 77.45 525.242 76.8588 524.489C76.2888 523.734 75.9514 522.858 75.8466 521.861C75.7351 520.8 75.9029 519.86 76.3501 519.041C76.8161 518.198 77.587 517.516 78.6629 516.996C79.7365 516.454 81.1594 516.09 82.9317 515.903L86.9826 515.478L87.3139 518.628L84.0858 518.967C83.1152 519.069 82.4463 519.301 82.0789 519.661C81.7325 520.019 81.5873 520.463 81.643 520.994C81.6988 521.524 81.9438 521.928 82.3781 522.204C82.8125 522.48 83.3778 522.581 84.074 522.508C84.7281 522.439 85.3021 522.218 85.7961 521.844C86.309 521.447 86.6563 520.896 86.8381 520.19L87.8952 522.332C87.7036 523.553 87.176 524.52 86.3123 525.233C85.4675 525.922 84.2961 526.346 82.7981 526.503Z" fill="#5F6061"/>
<g filter="url(#filter1_d_1328_502)">
<rect x="61" y="568" width="270" height="60" rx="30" fill="#DC662D"/>
<path d="M153.627 602.02V606.682H151.467V604H141.801V606.682H139.623L139.641 602.02H140.181C140.973 601.984 141.525 601.402 141.837 600.274C142.161 599.134 142.359 597.508 142.431 595.396L142.575 591.4H151.809V602.02H153.627ZM144.483 595.612C144.423 597.244 144.291 598.606 144.087 599.698C143.883 600.778 143.559 601.552 143.115 602.02H149.505V593.38H144.573L144.483 595.612ZM164.403 599.248C164.403 599.404 164.391 599.626 164.367 599.914H156.825C156.957 600.622 157.299 601.186 157.851 601.606C158.415 602.014 159.111 602.218 159.939 602.218C160.995 602.218 161.865 601.87 162.549 601.174L163.755 602.56C163.323 603.076 162.777 603.466 162.117 603.73C161.457 603.994 160.713 604.126 159.885 604.126C158.829 604.126 157.899 603.916 157.095 603.496C156.291 603.076 155.667 602.494 155.223 601.75C154.791 600.994 154.575 600.142 154.575 599.194C154.575 598.258 154.785 597.418 155.205 596.674C155.637 595.918 156.231 595.33 156.987 594.91C157.743 594.49 158.595 594.28 159.543 594.28C160.479 594.28 161.313 594.49 162.045 594.91C162.789 595.318 163.365 595.9 163.773 596.656C164.193 597.4 164.403 598.264 164.403 599.248ZM159.543 596.08C158.823 596.08 158.211 596.296 157.707 596.728C157.215 597.148 156.915 597.712 156.807 598.42H162.261C162.165 597.724 161.871 597.16 161.379 596.728C160.887 596.296 160.275 596.08 159.543 596.08ZM174.126 596.296H170.76V604H168.51V596.296H165.126V594.388H174.126V596.296ZM179.34 594.28C180.756 594.28 181.836 594.622 182.58 595.306C183.336 595.978 183.714 596.998 183.714 598.366V604H181.59V602.83C181.314 603.25 180.918 603.574 180.402 603.802C179.898 604.018 179.286 604.126 178.566 604.126C177.846 604.126 177.216 604.006 176.676 603.766C176.136 603.514 175.716 603.172 175.416 602.74C175.128 602.296 174.984 601.798 174.984 601.246C174.984 600.382 175.302 599.692 175.938 599.176C176.586 598.648 177.6 598.384 178.98 598.384H181.464V598.24C181.464 597.568 181.26 597.052 180.852 596.692C180.456 596.332 179.862 596.152 179.07 596.152C178.53 596.152 177.996 596.236 177.468 596.404C176.952 596.572 176.514 596.806 176.154 597.106L175.272 595.468C175.776 595.084 176.382 594.79 177.09 594.586C177.798 594.382 178.548 594.28 179.34 594.28ZM179.034 602.488C179.598 602.488 180.096 602.362 180.528 602.11C180.972 601.846 181.284 601.474 181.464 600.994V599.878H179.142C177.846 599.878 177.198 600.304 177.198 601.156C177.198 601.564 177.36 601.888 177.684 602.128C178.008 602.368 178.458 602.488 179.034 602.488ZM195.21 594.388V604H192.96V596.296H189.36L189.27 598.204C189.21 599.476 189.09 600.544 188.91 601.408C188.742 602.26 188.448 602.938 188.028 603.442C187.62 603.934 187.056 604.18 186.336 604.18C186 604.18 185.586 604.114 185.094 603.982L185.202 602.092C185.37 602.128 185.514 602.146 185.634 602.146C186.09 602.146 186.432 601.966 186.66 601.606C186.888 601.234 187.032 600.796 187.092 600.292C187.164 599.776 187.224 599.044 187.272 598.096L187.434 594.388H195.21ZM203.065 597.556C204.289 597.556 205.225 597.832 205.873 598.384C206.533 598.936 206.863 599.716 206.863 600.724C206.863 601.78 206.503 602.596 205.783 603.172C205.063 603.748 204.049 604.03 202.741 604.018L198.241 604V594.388H200.491V597.538L203.065 597.556ZM202.543 602.362C203.203 602.374 203.707 602.236 204.055 601.948C204.403 601.66 204.577 601.24 204.577 600.688C204.577 600.148 204.409 599.752 204.073 599.5C203.737 599.248 203.227 599.116 202.543 599.104L200.491 599.086V602.344L202.543 602.362ZM208.84 594.388H211.09V598.294H215.932V594.388H218.182V604H215.932V600.202H211.09V604H208.84V594.388ZM221.198 594.388H223.448V604H221.198V594.388ZM222.332 592.804C221.924 592.804 221.582 592.678 221.306 592.426C221.03 592.162 220.892 591.838 220.892 591.454C220.892 591.07 221.03 590.752 221.306 590.5C221.582 590.236 221.924 590.104 222.332 590.104C222.74 590.104 223.082 590.23 223.358 590.482C223.634 590.722 223.772 591.028 223.772 591.4C223.772 591.796 223.634 592.132 223.358 592.408C223.094 592.672 222.752 592.804 222.332 592.804ZM240.655 594.388V604H226.489V594.388H228.739V602.092H232.465V594.388H234.715V602.092H238.405V594.388H240.655ZM252.68 599.248C252.68 599.404 252.668 599.626 252.644 599.914H245.102C245.234 600.622 245.576 601.186 246.128 601.606C246.692 602.014 247.388 602.218 248.216 602.218C249.272 602.218 250.142 601.87 250.826 601.174L252.032 602.56C251.6 603.076 251.054 603.466 250.394 603.73C249.734 603.994 248.99 604.126 248.162 604.126C247.106 604.126 246.176 603.916 245.372 603.496C244.568 603.076 243.944 602.494 243.5 601.75C243.068 600.994 242.852 600.142 242.852 599.194C242.852 598.258 243.062 597.418 243.482 596.674C243.914 595.918 244.508 595.33 245.264 594.91C246.02 594.49 246.872 594.28 247.82 594.28C248.756 594.28 249.59 594.49 250.322 594.91C251.066 595.318 251.642 595.9 252.05 596.656C252.47 597.4 252.68 598.264 252.68 599.248ZM247.82 596.08C247.1 596.08 246.488 596.296 245.984 596.728C245.492 597.148 245.192 597.712 245.084 598.42H250.538C250.442 597.724 250.148 597.16 249.656 596.728C249.164 596.296 248.552 596.08 247.82 596.08Z" fill="white"/>
</g>
<path d="M292.766 65L29 65L29 25L292.766 25L278.153 45L292.766 65Z" fill="#56AABF"/>
<path d="M59.7256 41.694H54.3076V51H50.1316V38.4H59.7256V41.694ZM60.9735 41.154H65.0415V51H60.9735V41.154ZM63.0075 40.362C62.2755 40.362 61.6815 40.17 61.2255 39.786C60.7815 39.39 60.5595 38.892 60.5595 38.292C60.5595 37.692 60.7815 37.2 61.2255 36.816C61.6815 36.42 62.2755 36.222 63.0075 36.222C63.7515 36.222 64.3455 36.408 64.7895 36.78C65.2335 37.152 65.4555 37.632 65.4555 38.22C65.4555 38.844 65.2335 39.36 64.7895 39.768C64.3455 40.164 63.7515 40.362 63.0075 40.362ZM75.5541 44.322H71.0001V51H66.9501V41.154H75.5541V44.322ZM80.9175 40.974C82.6455 40.974 83.9655 41.364 84.8775 42.144C85.7895 42.912 86.2455 44.1 86.2455 45.708V51H82.4655V49.704C81.9975 50.688 81.0675 51.18 79.6755 51.18C78.8955 51.18 78.2295 51.048 77.6775 50.784C77.1375 50.508 76.7235 50.142 76.4355 49.686C76.1595 49.218 76.0215 48.696 76.0215 48.12C76.0215 47.148 76.3935 46.41 77.1375 45.906C77.8815 45.402 79.0095 45.15 80.5215 45.15H82.1595C82.0275 44.382 81.4095 43.998 80.3055 43.998C79.8615 43.998 79.4115 44.07 78.9555 44.214C78.4995 44.346 78.1095 44.532 77.7855 44.772L76.4895 42.09C77.0535 41.742 77.7315 41.472 78.5235 41.28C79.3275 41.076 80.1255 40.974 80.9175 40.974ZM80.8995 48.732C81.1875 48.732 81.4455 48.654 81.6735 48.498C81.9015 48.342 82.0695 48.108 82.1775 47.796V47.112H81.1695C80.3415 47.112 79.9275 47.388 79.9275 47.94C79.9275 48.168 80.0115 48.36 80.1795 48.516C80.3595 48.66 80.5995 48.732 80.8995 48.732ZM94.4012 42.252C95.8532 42.252 96.9812 42.642 97.7852 43.422C98.5892 44.202 98.9912 45.276 98.9912 46.644C98.9912 47.568 98.7392 48.384 98.2352 49.092C97.7432 49.788 97.0652 50.328 96.2012 50.712C95.3372 51.096 94.3712 51.288 93.3032 51.288C91.5512 51.288 90.1352 50.766 89.0552 49.722C87.9872 48.678 87.4532 47.07 87.4532 44.898C87.4532 40.806 89.2772 38.43 92.9252 37.77L97.8212 36.888L98.3612 40.218L94.2212 40.956C93.2492 41.124 92.5472 41.382 92.1152 41.73C91.6952 42.078 91.4372 42.588 91.3412 43.26C92.1812 42.588 93.2012 42.252 94.4012 42.252ZM93.3032 48.282C93.7952 48.282 94.1732 48.12 94.4372 47.796C94.7132 47.472 94.8512 47.082 94.8512 46.626C94.8512 46.122 94.7072 45.732 94.4192 45.456C94.1432 45.18 93.7712 45.042 93.3032 45.042C92.8232 45.042 92.4392 45.186 92.1512 45.474C91.8632 45.75 91.7192 46.14 91.7192 46.644C91.7192 47.124 91.8632 47.52 92.1512 47.832C92.4512 48.132 92.8352 48.282 93.3032 48.282ZM100.243 41.154H104.311V51H100.243V41.154ZM102.277 40.362C101.545 40.362 100.951 40.17 100.495 39.786C100.051 39.39 99.8291 38.892 99.8291 38.292C99.8291 37.692 100.051 37.2 100.495 36.816C100.951 36.42 101.545 36.222 102.277 36.222C103.021 36.222 103.615 36.408 104.059 36.78C104.503 37.152 104.725 37.632 104.725 38.22C104.725 38.844 104.503 39.36 104.059 39.768C103.615 40.164 103.021 40.362 102.277 40.362ZM115.544 44.322H112.538V51H108.488V44.322H105.482V41.154H115.544V44.322ZM116.714 41.154H120.764V44.61H123.536V41.154H127.586V51H123.536V47.796H120.764V51H116.714V41.154ZM129.493 41.154H133.543V45.6L136.945 41.154H140.689V51H136.639V46.536L133.255 51H129.493V41.154ZM142.589 41.154H146.639V45.6L150.041 41.154H153.785V51H149.735V46.536L146.351 51H142.589V41.154ZM147.917 40.344C146.669 40.344 145.757 40.092 145.181 39.588C144.605 39.072 144.317 38.274 144.317 37.194H146.927C146.927 37.59 146.993 37.89 147.125 38.094C147.269 38.286 147.527 38.382 147.899 38.382C148.571 38.382 148.907 37.986 148.907 37.194H151.553C151.553 38.274 151.259 39.072 150.671 39.588C150.095 40.092 149.177 40.344 147.917 40.344Z" fill="white"/>
<path d="M207 25H364V65H207L221.636 45L207 25Z" fill="#5984B2"/>
<path d="M256.077 41.154H260.145V51H256.077V41.154ZM258.111 40.362C257.379 40.362 256.785 40.17 256.329 39.786C255.885 39.39 255.663 38.892 255.663 38.292C255.663 37.692 255.885 37.2 256.329 36.816C256.785 36.42 257.379 36.222 258.111 36.222C258.855 36.222 259.449 36.408 259.893 36.78C260.337 37.152 260.559 37.632 260.559 38.22C260.559 38.844 260.337 39.36 259.893 39.768C259.449 40.164 258.855 40.362 258.111 40.362ZM262.002 41.154H266.052V44.61H268.824V41.154H272.874V51H268.824V47.796H266.052V51H262.002V41.154ZM284.105 44.322H281.099V51H277.049V44.322H274.043V41.154H284.105V44.322ZM295.273 46.068C295.273 46.128 295.255 46.446 295.219 47.022H288.379C288.523 47.394 288.763 47.682 289.099 47.886C289.435 48.078 289.855 48.174 290.359 48.174C290.791 48.174 291.151 48.12 291.439 48.012C291.739 47.904 292.063 47.718 292.411 47.454L294.535 49.596C293.575 50.652 292.141 51.18 290.233 51.18C289.045 51.18 288.001 50.964 287.101 50.532C286.201 50.088 285.505 49.476 285.013 48.696C284.521 47.916 284.275 47.04 284.275 46.068C284.275 45.084 284.515 44.208 284.995 43.44C285.487 42.66 286.153 42.054 286.993 41.622C287.845 41.19 288.799 40.974 289.855 40.974C290.851 40.974 291.757 41.172 292.573 41.568C293.401 41.964 294.055 42.546 294.535 43.314C295.027 44.082 295.273 45 295.273 46.068ZM289.891 43.746C289.471 43.746 289.123 43.86 288.847 44.088C288.571 44.316 288.391 44.64 288.307 45.06H291.475C291.391 44.652 291.211 44.334 290.935 44.106C290.659 43.866 290.311 43.746 289.891 43.746ZM303.306 40.974C304.17 40.974 304.962 41.184 305.682 41.604C306.414 42.012 306.99 42.606 307.41 43.386C307.842 44.166 308.058 45.066 308.058 46.086C308.058 47.106 307.842 48.006 307.41 48.786C306.99 49.554 306.414 50.148 305.682 50.568C304.962 50.976 304.17 51.18 303.306 51.18C302.214 51.18 301.38 50.898 300.804 50.334V54.492H296.736V41.154H300.606V41.964C301.194 41.304 302.094 40.974 303.306 40.974ZM302.334 48.012C302.802 48.012 303.186 47.844 303.486 47.508C303.786 47.172 303.936 46.698 303.936 46.086C303.936 45.474 303.786 45 303.486 44.664C303.186 44.316 302.802 44.142 302.334 44.142C301.866 44.142 301.482 44.316 301.182 44.664C300.882 45 300.732 45.474 300.732 46.086C300.732 46.698 300.882 47.172 301.182 47.508C301.482 47.844 301.866 48.012 302.334 48.012ZM309.375 41.154H313.425V44.61H316.197V41.154H320.247V51H316.197V47.796H313.425V51H309.375V41.154ZM332.504 46.068C332.504 46.128 332.486 46.446 332.45 47.022H325.61C325.754 47.394 325.994 47.682 326.33 47.886C326.666 48.078 327.086 48.174 327.59 48.174C328.022 48.174 328.382 48.12 328.67 48.012C328.97 47.904 329.294 47.718 329.642 47.454L331.766 49.596C330.806 50.652 329.372 51.18 327.464 51.18C326.276 51.18 325.232 50.964 324.332 50.532C323.432 50.088 322.736 49.476 322.244 48.696C321.752 47.916 321.506 47.04 321.506 46.068C321.506 45.084 321.746 44.208 322.226 43.44C322.718 42.66 323.384 42.054 324.224 41.622C325.076 41.19 326.03 40.974 327.086 40.974C328.082 40.974 328.988 41.172 329.804 41.568C330.632 41.964 331.286 42.546 331.766 43.314C332.258 44.082 332.504 45 332.504 46.068ZM327.122 43.746C326.702 43.746 326.354 43.86 326.078 44.088C325.802 44.316 325.622 44.64 325.538 45.06H328.706C328.622 44.652 328.442 44.334 328.166 44.106C327.89 43.866 327.542 43.746 327.122 43.746ZM343.027 44.322H340.021V51H335.971V44.322H332.965V41.154H343.027V44.322Z" fill="white"/>
<path d="M155 25H234V65H155L164.603 44.1781L155 25Z" fill="white"/>
<path d="M174.026 51V38.4H180.092C181.268 38.4 182.282 38.592 183.134 38.976C183.998 39.36 184.664 39.912 185.132 40.632C185.6 41.34 185.834 42.18 185.834 43.152C185.834 44.124 185.6 44.964 185.132 45.672C184.664 46.38 183.998 46.932 183.134 47.328C182.282 47.712 181.268 47.904 180.092 47.904H176.384L178.274 46.086V51H174.026ZM178.274 46.554L176.384 44.628H179.822C180.41 44.628 180.842 44.496 181.118 44.232C181.406 43.968 181.55 43.608 181.55 43.152C181.55 42.696 181.406 42.336 181.118 42.072C180.842 41.808 180.41 41.676 179.822 41.676H176.384L178.274 39.75V46.554ZM194.009 51.288C192.989 51.288 192.041 51.126 191.165 50.802C190.301 50.478 189.551 50.022 188.915 49.434C188.279 48.834 187.781 48.132 187.421 47.328C187.073 46.524 186.899 45.648 186.899 44.7C186.899 43.74 187.073 42.864 187.421 42.072C187.781 41.268 188.279 40.572 188.915 39.984C189.551 39.384 190.301 38.922 191.165 38.598C192.041 38.274 192.989 38.112 194.009 38.112C195.041 38.112 195.989 38.274 196.853 38.598C197.717 38.922 198.467 39.384 199.103 39.984C199.739 40.572 200.231 41.268 200.579 42.072C200.939 42.864 201.119 43.74 201.119 44.7C201.119 45.648 200.939 46.524 200.579 47.328C200.231 48.132 199.739 48.834 199.103 49.434C198.467 50.022 197.717 50.478 196.853 50.802C195.989 51.126 195.041 51.288 194.009 51.288ZM194.009 47.85C194.405 47.85 194.771 47.778 195.107 47.634C195.455 47.49 195.755 47.286 196.007 47.022C196.271 46.746 196.475 46.416 196.619 46.032C196.763 45.636 196.835 45.192 196.835 44.7C196.835 44.208 196.763 43.77 196.619 43.386C196.475 42.99 196.271 42.66 196.007 42.396C195.755 42.12 195.455 41.91 195.107 41.766C194.771 41.622 194.405 41.55 194.009 41.55C193.613 41.55 193.241 41.622 192.893 41.766C192.557 41.91 192.257 42.12 191.993 42.396C191.741 42.66 191.543 42.99 191.399 43.386C191.255 43.77 191.183 44.208 191.183 44.7C191.183 45.192 191.255 45.636 191.399 46.032C191.543 46.416 191.741 46.746 191.993 47.022C192.257 47.286 192.557 47.49 192.893 47.634C193.241 47.778 193.613 47.85 194.009 47.85ZM202.661 51V38.4H206.153L212.561 46.068H210.941V38.4H215.081V51H211.589L205.181 43.332H206.801V51H202.661Z" fill="#DC662D"/>
<path fill-rule="evenodd" clip-rule="evenodd" d="M209.72 122.445C182.177 110.288 106.965 109.759 121.266 152.045C145.1 222.346 84.7187 214.946 77.8331 251.946C68.2991 301.632 189.592 312.733 248.915 279.961C318.83 241.903 276.987 152.045 209.72 122.445Z" fill="#F8F6FB"/>
<path fill-rule="evenodd" clip-rule="evenodd" d="M316.128 234.69C311.033 234.69 307.07 230.727 307.07 225.632C307.07 220.537 311.033 216.574 316.128 216.574C321.223 216.574 325.186 220.537 325.186 225.632C325.186 230.727 321.223 234.69 316.128 234.69ZM313.298 239.219V243.748H318.959V239.219C320.657 238.653 321.79 238.087 323.488 237.521L326.885 240.917L330.848 236.954L327.451 233.558C328.017 232.425 329.149 230.727 329.149 229.029H333.678V222.801H329.149C328.583 221.103 328.017 219.971 327.451 218.272L330.848 214.876L326.885 210.913L323.488 214.309C322.356 213.743 320.657 212.611 318.959 212.611V208.082H313.298V212.611C311.599 213.177 310.467 213.743 308.769 214.309L305.372 210.913L301.409 214.876L304.806 218.272C304.24 219.405 303.107 221.103 303.107 222.801H298.012V229.029H302.541C303.107 230.727 303.673 231.859 304.24 233.558L300.843 236.954L304.806 240.917L308.202 237.521C309.901 238.087 311.599 238.653 313.298 239.219Z" fill="#EDE2F9"/>
<path fill-rule="evenodd" clip-rule="evenodd" d="M261.479 72L265.716 85.2144L278.958 89.443L265.716 93.6717L261.479 106.886L257.242 93.6717L244 89.443L257.242 85.2144L261.479 72Z" fill="#EDE2F9"/>
<path fill-rule="evenodd" clip-rule="evenodd" d="M129.586 267.283C128.61 266.31 127.147 266.31 126.172 267.283C125.197 268.257 125.197 269.717 126.172 270.69C128.61 273.123 131.536 275.07 134.95 276.53C138.363 277.99 142.265 278.476 146.166 278.476C150.067 278.476 154.456 277.503 157.869 276.53C161.283 275.07 164.697 273.123 167.135 270.203C168.11 269.23 168.11 267.77 167.135 266.797C166.159 265.823 164.697 265.823 163.721 266.797C161.771 268.743 159.332 270.69 156.406 271.663C153.481 272.636 150.067 273.61 146.653 273.61C143.24 273.61 139.826 273.123 136.9 271.663C133.975 270.69 131.536 269.23 129.586 267.283ZM135.438 260.47C136.413 261.93 138.363 262.903 139.826 263.877C141.777 264.85 143.728 264.85 146.166 264.85C148.604 264.85 150.555 264.363 152.505 263.39C154.456 262.417 155.919 261.444 156.894 259.984C157.869 259.01 159.332 259.01 160.308 259.497C161.283 260.47 161.283 261.93 160.795 262.903C159.332 264.85 156.894 266.31 154.456 267.283C152.018 268.257 149.092 268.743 146.166 268.743C143.24 268.743 140.314 268.257 138.363 267.283C135.925 266.31 133.487 264.85 132.024 262.903C131.049 261.93 131.049 260.47 132.024 259.497C133.487 259.01 134.95 259.01 135.438 260.47ZM141.777 253.171C140.802 252.197 139.339 251.711 138.363 252.684C137.388 253.657 136.9 255.117 137.876 256.09C138.851 257.55 140.314 258.524 141.777 259.01C143.24 259.497 144.703 259.984 146.653 259.984C148.604 259.984 150.067 259.497 151.53 259.01C152.993 258.037 154.456 257.064 155.431 256.09C156.406 255.117 155.919 253.657 154.944 252.684C153.968 251.711 152.505 252.197 151.53 253.171C151.042 253.657 150.555 254.63 149.579 254.63C148.604 255.117 147.629 255.117 146.653 255.117C145.678 255.117 144.703 255.117 143.728 254.63C142.752 254.63 142.265 254.144 141.777 253.171Z" fill="#C5B0DF"/>
<path fill-rule="evenodd" clip-rule="evenodd" d="M160.308 179.2C174.449 187.473 197.369 219.105 181.277 240.031C174.449 236.138 168.11 231.758 161.283 227.865C166.647 210.832 162.746 194.286 160.308 179.2Z" fill="#C5B0DF"/>
<path fill-rule="evenodd" clip-rule="evenodd" d="M132.999 179.2C118.37 187.473 95.9378 219.105 112.03 240.031C118.857 236.138 125.197 231.758 132.024 227.865C126.172 210.832 130.561 194.286 132.999 179.2Z" fill="#C5B0DF"/>
<path fill-rule="evenodd" clip-rule="evenodd" d="M161.771 247.331H131.049L136.413 226.405H156.406L161.771 247.331Z" fill="#634686"/>
<path fill-rule="evenodd" clip-rule="evenodd" d="M139.339 247.331H131.049L136.413 226.405H140.802L139.339 247.331Z" fill="#6E4E93"/>
<path fill-rule="evenodd" clip-rule="evenodd" d="M161.771 247.331H153.481L152.505 226.405H156.407L161.771 247.331Z" fill="#583D7A"/>
<path fill-rule="evenodd" clip-rule="evenodd" d="M162.258 146.594C174.449 184.066 165.672 215.698 165.672 215.212H127.147C122.759 192.339 122.759 169.467 130.561 146.594H162.258V146.594Z" fill="#8A6CAF"/>
<path fill-rule="evenodd" clip-rule="evenodd" d="M165.672 215.212C164.697 219.592 163.721 224.458 162.746 228.838C147.629 228.838 145.191 228.838 130.073 228.838C129.098 224.458 128.123 219.592 127.147 215.212H165.672Z" fill="#715198"/>
<path fill-rule="evenodd" clip-rule="evenodd" d="M146.18 114.008C153.495 125.201 158.371 135.908 162.272 147.1H130.575C133.501 135.908 138.865 124.715 146.18 114.008Z" fill="#715198"/>
<path fill-rule="evenodd" clip-rule="evenodd" d="M146.653 209.372C142.265 209.372 138.851 205.965 138.851 201.585C138.851 197.206 142.265 193.799 146.653 193.799C151.042 193.799 154.456 197.206 154.456 201.585C154.456 205.965 151.042 209.372 146.653 209.372ZM146.653 168.98C142.265 168.98 138.851 165.573 138.851 161.194C138.851 156.814 142.265 153.407 146.653 153.407C151.042 153.407 154.456 156.814 154.456 161.194C154.456 165.087 151.042 168.98 146.653 168.98ZM146.653 189.419C142.265 189.419 138.851 186.013 138.851 181.633C138.851 177.253 142.265 173.846 146.653 173.846C151.042 173.846 154.456 177.253 154.456 181.633C154.456 185.526 151.042 189.419 146.653 189.419Z" fill="white"/>
<path d="M68.1918 190.152C78.7912 197.114 93.0517 194.129 100.044 183.485C107.036 172.84 104.111 158.568 93.5119 151.606C82.9125 144.644 68.652 147.629 61.66 158.273C54.6681 168.918 57.5924 183.19 68.1918 190.152Z" fill="#56AABF"/>
<path d="M68.8994 171.793L89.7616 178.279L93.073 167.629L72.2107 161.143L68.8994 171.793ZM66.0867 173.883L70.8101 158.691L95.6169 166.404L90.8933 181.596L80.1251 178.247L79.4127 180.539L81.18 181.088C81.4699 181.179 81.6334 181.489 81.5431 181.779L81.2639 182.678C81.1735 182.968 80.8628 183.131 80.5729 183.041L73.7679 180.925C73.478 180.835 73.3145 180.525 73.4047 180.234L73.684 179.336C73.7742 179.046 74.0851 178.882 74.375 178.973L76.142 179.522L76.8545 177.231L66.0867 173.883V173.883Z" fill="white"/>
<path d="M188.649 141.504C197.024 147.005 208.292 144.646 213.817 136.235C219.342 127.824 217.031 116.546 208.656 111.045C200.281 105.544 189.012 107.903 183.487 116.314C177.962 124.725 180.273 136.003 188.649 141.504Z" fill="#5984B2"/>
<path d="M207.15 123.458C208.902 120.852 208.783 119.331 208.038 118.444C206.527 116.646 202.836 117.213 200.846 117.744C196.674 116.758 192.383 118.918 190.707 122.87C193.312 120.819 194.951 120.087 195.987 119.874C193.911 121.182 191.225 123.419 189.457 125.655C188.194 127.251 186.372 130.646 187.213 132.592C188.236 134.959 192.759 133.676 193.598 133.415C197.808 136.514 203.86 135.271 206.475 130.671L201.918 129.862C199.391 132.801 194.132 130.604 194.815 126.758L207.22 128.96C207.782 127.167 207.762 125.238 207.15 123.458V123.458ZM206.999 123.051C206.294 121.289 205.03 119.781 203.387 118.784C207.154 117.724 209.3 119.246 206.999 123.051V123.051ZM188.442 132.127C188.208 131.295 188.559 129.861 190.117 127.712C190.449 129.78 191.511 131.652 193.074 132.998C191.759 133.445 188.952 133.935 188.442 132.127V132.127ZM195.217 124.383C195.638 122.41 197.648 121.127 199.771 121.504C201.893 121.881 203.339 123.777 203.056 125.774L195.217 124.383Z" fill="white"/>
<path d="M101.851 285.743C107.773 278.588 106.651 268.047 99.3454 262.198C92.0395 256.349 81.3164 257.407 75.3945 264.562C69.4727 271.716 70.5947 282.258 77.9006 288.107C85.2065 293.956 95.9296 292.897 101.851 285.743Z" fill="#8B6CB0"/>
<path fill-rule="evenodd" clip-rule="evenodd" d="M95.1748 280.398C94.8391 280.803 94.3627 281.038 93.8657 281.087C93.3625 281.136 92.8465 280.999 92.4332 280.669C92.0162 280.335 91.7751 279.866 91.7232 279.377C91.6714 278.891 91.8083 278.382 92.1462 277.973C92.4825 277.567 92.9599 277.334 93.4554 277.284C93.9566 277.236 94.4731 277.371 94.8879 277.703C95.3049 278.037 95.5463 278.509 95.598 278.994C95.65 279.483 95.5127 279.99 95.1748 280.398ZM81.1549 279.469C81.2431 280.084 80.8067 280.652 80.1817 280.736C79.5567 280.82 78.9769 280.389 78.8887 279.774C78.6598 278.18 78.8288 276.437 79.3905 274.709C79.9242 273.066 80.8109 271.429 82.0426 269.941C83.2908 268.433 84.7676 267.232 86.3229 266.381C87.9612 265.485 89.6904 264.978 91.3439 264.899C91.9748 264.87 92.5142 265.35 92.5464 265.97C92.5785 266.59 92.0925 267.118 91.4618 267.147C90.1513 267.209 88.7669 267.619 87.4423 268.343C86.1445 269.054 84.8975 270.073 83.8253 271.368C82.7716 272.641 82.0172 274.025 81.5711 275.401C81.1143 276.807 80.9735 278.207 81.1549 279.469V279.469ZM85.5675 279.331C85.6735 279.943 85.2523 280.524 84.6291 280.625C84.006 280.727 83.4139 280.31 83.3081 279.698C83.1081 278.538 83.1977 277.274 83.5768 276.027C83.9347 274.846 84.5506 273.678 85.4198 272.627C86.3036 271.56 87.3587 270.721 88.4781 270.135L88.5431 270.104C89.7041 269.508 90.9444 269.184 92.1429 269.16C92.7722 269.148 93.2964 269.64 93.3113 270.258C93.3259 270.877 92.8273 271.39 92.1981 271.402C91.3568 271.418 90.4667 271.656 89.6123 272.093L89.568 272.118C88.7113 272.567 87.8949 273.218 87.2025 274.055C86.5185 274.881 86.0392 275.783 85.7669 276.68C85.491 277.587 85.4247 278.501 85.5675 279.331V279.331ZM89.9652 279.148C90.1143 279.751 89.7359 280.358 89.1229 280.502C88.5097 280.646 87.8904 280.272 87.7414 279.669C87.5616 278.933 87.5637 278.143 87.7533 277.378C87.9347 276.65 88.2811 275.939 88.7982 275.314C89.3239 274.679 89.9725 274.195 90.6757 273.873C91.409 273.535 92.2064 273.379 92.9884 273.415C93.6185 273.444 94.1091 273.97 94.082 274.59C94.0547 275.209 93.5209 275.689 92.8906 275.659C92.4809 275.641 92.0521 275.727 91.6516 275.911C91.2576 276.092 90.8877 276.37 90.581 276.741C90.2784 277.107 90.0782 277.514 89.9761 277.922C89.8733 278.337 89.8706 278.76 89.9652 279.148V279.148Z" fill="white"/>
<path fill-rule="evenodd" clip-rule="evenodd" d="M264.109 165.993L263.524 171.251L257.085 176.508L250.06 170.666L249.475 165.993L252.402 165.409V161.319H260.597V165.409L264.109 165.993Z" fill="url(#paint0_linear_1328_502)"/>
<path fill-rule="evenodd" clip-rule="evenodd" d="M256.499 164.825C251.231 164.825 246.548 158.983 246.548 151.388C246.548 143.794 243.621 136.783 256.499 137.368C269.378 137.952 266.451 143.794 266.451 151.388C266.451 158.983 261.768 164.825 256.499 164.825Z" fill="url(#paint1_linear_1328_502)"/>
<path fill-rule="evenodd" clip-rule="evenodd" d="M247.719 140.288C246.548 143.793 246.548 146.13 246.548 150.219C244.206 146.13 243.036 144.962 243.036 140.872C243.036 133.862 244.206 131.525 248.89 132.109C253.573 132.694 251.817 129.773 257.085 129.189C262.354 128.604 260.012 132.109 266.451 131.525C270.549 130.941 274.061 137.367 269.378 143.793C268.793 144.962 268.793 146.714 266.451 150.219C266.451 144.377 265.866 141.457 264.695 140.288C259.427 142.041 252.987 142.625 247.719 140.288Z" fill="#37254D"/>
<path fill-rule="evenodd" clip-rule="evenodd" d="M271.134 291.594L269.964 286.336L264.695 287.505L265.866 292.178C265.866 292.178 270.549 291.594 271.134 291.594Z" fill="url(#paint2_linear_1328_502)"/>
<path fill-rule="evenodd" clip-rule="evenodd" d="M255.914 289.841L254.743 285.167L249.475 285.752L250.645 290.425C251.231 290.425 255.914 289.841 255.914 289.841Z" fill="url(#paint3_linear_1328_502)"/>
<path fill-rule="evenodd" clip-rule="evenodd" d="M270.549 290.425C267.622 291.594 265.28 290.425 264.11 291.009C261.183 293.346 260.597 293.93 257.085 294.515C253.572 295.099 251.816 298.02 255.914 298.02C263.524 298.02 269.963 298.02 271.72 297.436C272.89 296.267 274.647 291.594 270.549 290.425Z" fill="#37254D"/>
<path fill-rule="evenodd" clip-rule="evenodd" d="M255.914 288.672C253.573 289.841 251.231 288.672 250.06 289.257C247.133 291.593 246.548 292.178 243.621 292.762C240.694 293.346 238.352 295.683 242.45 295.683C249.475 295.683 255.329 295.683 257.67 295.098C258.256 294.514 259.427 289.841 255.914 288.672Z" fill="#37254D"/>
<path fill-rule="evenodd" clip-rule="evenodd" d="M257.085 285.167C255.329 286.336 250.06 288.088 248.304 286.336C243.036 250.7 243.621 239.601 241.865 212.728C244.792 212.728 250.06 212.728 256.5 212.144C255.329 229.669 252.402 243.106 257.085 285.167Z" fill="#56A9BE"/>
<path fill-rule="evenodd" clip-rule="evenodd" d="M272.305 286.92C269.378 288.088 265.281 289.841 261.768 288.673C255.914 252.453 256.5 243.106 254.158 215.065C257.671 215.065 263.524 212.728 271.135 212.144C270.549 230.253 267.622 243.69 272.305 286.92Z" fill="#4998AC"/>
<path fill-rule="evenodd" clip-rule="evenodd" d="M223.718 173.587C224.303 172.419 224.888 172.419 224.303 170.666C223.718 168.914 224.303 167.745 224.888 167.161C226.644 165.993 226.059 167.161 226.059 168.33C226.059 169.498 226.644 170.666 226.644 172.419C226.644 173.587 227.23 174.172 227.815 175.34C228.401 177.092 228.986 180.013 227.23 181.182C226.059 178.845 224.888 176.508 223.718 173.587Z" fill="url(#paint4_linear_1328_502)"/>
<path fill-rule="evenodd" clip-rule="evenodd" d="M221.376 181.766C223.718 181.766 225.474 181.766 227.815 181.766C228.401 181.182 227.815 180.014 227.23 180.014C227.815 179.429 227.815 178.261 226.645 178.261C227.23 177.677 227.23 176.508 226.059 175.924C226.645 174.756 226.059 173.587 224.888 173.587C221.961 173.587 220.205 174.172 219.62 176.508C219.035 178.261 219.62 181.182 221.376 181.766Z" fill="url(#paint5_linear_1328_502)"/>
<path fill-rule="evenodd" clip-rule="evenodd" d="M249.475 165.993C241.279 168.914 234.84 172.419 231.328 188.192C230.157 187.024 228.401 182.35 227.815 180.597C226.059 181.182 223.132 181.182 220.791 181.182C224.303 199.292 231.328 206.302 237.182 201.044C237.767 200.46 239.523 198.123 241.279 194.618C240.694 198.123 239.523 203.965 241.279 212.728C246.548 217.986 262.939 217.986 269.964 212.728C271.72 211.56 274.647 213.896 275.232 213.312C277.574 202.797 278.744 194.034 277.574 185.855C276.403 177.092 272.89 167.161 262.939 165.993C260.012 173.587 252.402 173.003 249.475 165.993Z" fill="#5983B1"/>
<path fill-rule="evenodd" clip-rule="evenodd" d="M274.061 219.738C274.647 220.907 274.647 224.996 274.061 227.333C273.476 229.669 269.378 233.759 268.793 229.085C268.793 227.917 268.793 227.333 268.793 226.164C268.207 226.749 267.622 226.749 267.622 226.164C267.622 225.58 267.622 223.828 267.622 222.659C267.622 222.075 267.622 220.907 268.793 219.738C269.378 219.154 268.793 216.817 269.378 216.233C269.964 215.649 272.305 215.649 273.476 216.233C274.061 216.817 272.891 218.57 274.061 219.738Z" fill="url(#paint6_linear_1328_502)"/>
<path fill-rule="evenodd" clip-rule="evenodd" d="M267.622 217.986C269.964 218.57 272.305 218.57 275.232 218.57C276.403 215.065 277.574 203.965 278.159 199.876C278.745 189.944 270.549 190.529 269.378 199.291C268.793 202.797 268.207 212.728 267.622 217.986Z" fill="#5983B1"/>
<path fill-rule="evenodd" clip-rule="evenodd" d="M267.622 180.013C267.036 185.855 267.622 189.944 268.207 191.697C269.378 196.955 267.622 205.133 268.793 211.559C269.378 201.044 271.134 196.955 269.963 191.113C268.793 189.36 267.622 185.855 267.622 180.013Z" fill="#456F9B"/>
<path fill-rule="evenodd" clip-rule="evenodd" d="M240.109 166.577C236.596 162.487 234.255 157.23 234.255 151.388C234.255 138.535 244.792 128.02 257.67 128.02C270.549 128.02 281.086 138.535 281.086 151.388C281.086 157.23 278.745 162.487 275.232 166.577H240.109ZM237.767 151.972C237.767 159.566 241.865 164.824 250.06 164.824H265.28C273.476 164.824 277.574 159.566 277.574 151.972C277.574 125.683 237.767 125.683 237.767 151.972Z" fill="#715198"/>
<path fill-rule="evenodd" clip-rule="evenodd" d="M242.45 168.914H272.89C274.061 168.914 274.647 169.498 274.647 170.666C274.647 171.835 274.061 172.419 272.89 172.419H242.45C241.279 172.419 240.694 171.835 240.694 170.666C240.694 169.498 241.279 168.914 242.45 168.914Z" fill="#594078"/>
<path fill-rule="evenodd" clip-rule="evenodd" d="M240.109 165.993H275.232C276.403 165.993 276.988 166.577 276.988 167.745C276.988 168.914 276.403 169.498 275.232 169.498H240.109C238.938 169.498 238.353 168.914 238.353 167.745C238.353 167.161 238.938 165.993 240.109 165.993Z" fill="#715198"/>
<path d="M260.938 154.402C259.875 154.402 258.909 153.999 258.213 153.351C257.612 152.791 257.206 152.043 257.108 151.212C256.598 151.309 256.046 151.313 255.496 151.209C255.398 152.042 254.992 152.79 254.39 153.351C253.693 153.999 252.728 154.402 251.664 154.402C250.601 154.402 249.635 153.999 248.939 153.351C248.243 152.702 247.81 151.803 247.81 150.813C247.81 150.69 247.816 150.569 247.829 150.45L246.027 149.92L246.087 149.099L247.999 149.7C248.19 149.157 248.516 148.669 248.939 148.275C249.635 147.626 250.601 147.224 251.664 147.224C252.728 147.224 253.693 147.626 254.39 148.275C254.995 148.839 255.402 149.592 255.497 150.43C256.047 150.52 256.573 150.497 257.108 150.414C257.206 149.583 257.612 148.835 258.213 148.275C258.909 147.626 259.875 147.224 260.938 147.224C262.001 147.224 262.967 147.626 263.664 148.275C264.091 148.673 264.418 149.165 264.608 149.715L266.625 149.179L266.665 149.986L264.776 150.466C264.786 150.58 264.793 150.696 264.793 150.813C264.793 151.803 264.36 152.702 263.664 153.351C262.967 153.999 262.001 154.402 260.938 154.402V154.402ZM253.808 152.809C254.355 152.299 254.695 151.592 254.695 150.813C254.695 150.033 254.355 149.326 253.808 148.817C253.261 148.307 252.502 147.991 251.664 147.991C250.827 147.991 250.068 148.307 249.521 148.817C248.974 149.326 248.634 150.033 248.634 150.813C248.634 151.592 248.974 152.299 249.521 152.809C250.068 153.319 250.827 153.635 251.664 153.635C252.502 153.635 253.261 153.319 253.808 152.809ZM258.795 152.809C259.342 153.319 260.101 153.635 260.938 153.635C261.775 153.635 262.535 153.319 263.082 152.809C263.629 152.299 263.969 151.592 263.969 150.813C263.969 150.033 263.629 149.326 263.082 148.817C262.535 148.307 261.775 147.991 260.938 147.991C260.101 147.991 259.342 148.307 258.795 148.817C258.248 149.326 257.908 150.033 257.908 150.813C257.908 151.592 258.248 152.299 258.795 152.809Z" fill="#37254D"/>
<path d="M345.5 127.038C343.79 122.546 341.776 121.388 337.309 121.68C326.763 123.657 314.541 126.47 304.314 129.714C300.182 131.471 298.88 133.42 299.294 138.22C299.707 143.382 301.847 152.579 303.684 157.402C305.528 162.248 307.661 163.065 312.347 162.65C321.357 161.299 336.187 157.653 344.907 154.89C349.039 153.129 350.342 151.182 349.926 146.381C349.468 141.097 347.383 131.983 345.5 127.038ZM319.778 150.17L316.826 137.271L330.883 140.72L319.778 150.17V150.17Z" fill="#DB662D"/>
<path fill-rule="evenodd" clip-rule="evenodd" d="M203.021 272.735C194.053 272.735 186.783 265.435 186.783 256.429C186.783 247.422 194.053 240.121 203.021 240.121C211.989 240.121 219.258 247.422 219.258 256.429C219.258 265.435 211.989 272.735 203.021 272.735Z" fill="#51B18B"/>
<path fill-rule="evenodd" clip-rule="evenodd" d="M204.175 255.233C204.175 252.693 201.552 252.913 200.689 255.479C199.031 260.41 204.175 260.394 204.175 255.233ZM211.471 260.549C209.91 263.742 206.798 264.83 203.454 264.788C190.713 264.627 192.521 248.069 203.51 248.069C208.77 248.069 210.979 251.573 210.88 254.956C210.722 260.399 205.076 262.46 203.495 260.273C200.03 262.581 197.009 258.932 198.127 255.081C199.172 251.483 202.983 250.388 204.734 252.428L204.887 251.744C205.761 251.744 206.635 251.744 207.51 251.744L206.068 258.758C205.992 259.611 208.994 257.791 208.994 254.704C208.994 251.656 206.455 250.061 203.692 249.975C194.987 249.705 193.388 262.82 203.535 262.82C205.714 262.82 207.856 262.348 209.264 260.549C210 260.549 210.735 260.549 211.471 260.549V260.549Z" fill="white"/>
<path d="M73.25 342.178V311.278L78.3 316.078H67.25V307.178H85.05V342.178H73.25ZM105.198 342.978C102.098 342.978 99.3484 342.261 96.9484 340.828C94.5818 339.394 92.7151 337.311 91.3484 334.578C90.0151 331.844 89.3484 328.544 89.3484 324.678C89.3484 320.811 90.0151 317.511 91.3484 314.778C92.7151 312.044 94.5818 309.961 96.9484 308.528C99.3484 307.094 102.098 306.378 105.198 306.378C108.298 306.378 111.032 307.094 113.398 308.528C115.798 309.961 117.665 312.044 118.998 314.778C120.365 317.511 121.048 320.811 121.048 324.678C121.048 328.544 120.365 331.844 118.998 334.578C117.665 337.311 115.798 339.394 113.398 340.828C111.032 342.261 108.298 342.978 105.198 342.978ZM105.198 333.528C105.965 333.528 106.648 333.261 107.248 332.728C107.848 332.194 108.315 331.278 108.648 329.978C109.015 328.678 109.198 326.911 109.198 324.678C109.198 322.411 109.015 320.644 108.648 319.378C108.315 318.078 107.848 317.161 107.248 316.628C106.648 316.094 105.965 315.828 105.198 315.828C104.432 315.828 103.748 316.094 103.148 316.628C102.548 317.161 102.065 318.078 101.698 319.378C101.365 320.644 101.198 322.411 101.198 324.678C101.198 326.911 101.365 328.678 101.698 329.978C102.065 331.278 102.548 332.194 103.148 332.728C103.748 333.261 104.432 333.528 105.198 333.528ZM139.818 342.978C136.718 342.978 133.968 342.261 131.568 340.828C129.201 339.394 127.334 337.311 125.968 334.578C124.634 331.844 123.968 328.544 123.968 324.678C123.968 320.811 124.634 317.511 125.968 314.778C127.334 312.044 129.201 309.961 131.568 308.528C133.968 307.094 136.718 306.378 139.818 306.378C142.918 306.378 145.651 307.094 148.018 308.528C150.418 309.961 152.284 312.044 153.618 314.778C154.984 317.511 155.668 320.811 155.668 324.678C155.668 328.544 154.984 331.844 153.618 334.578C152.284 337.311 150.418 339.394 148.018 340.828C145.651 342.261 142.918 342.978 139.818 342.978ZM139.818 333.528C140.584 333.528 141.268 333.261 141.868 332.728C142.468 332.194 142.934 331.278 143.268 329.978C143.634 328.678 143.818 326.911 143.818 324.678C143.818 322.411 143.634 320.644 143.268 319.378C142.934 318.078 142.468 317.161 141.868 316.628C141.268 316.094 140.584 315.828 139.818 315.828C139.051 315.828 138.368 316.094 137.768 316.628C137.168 317.161 136.684 318.078 136.318 319.378C135.984 320.644 135.818 322.411 135.818 324.678C135.818 326.911 135.984 328.678 136.318 329.978C136.684 331.278 137.168 332.194 137.768 332.728C138.368 333.261 139.051 333.528 139.818 333.528ZM174.437 342.978C171.337 342.978 168.587 342.261 166.187 340.828C163.82 339.394 161.953 337.311 160.587 334.578C159.253 331.844 158.587 328.544 158.587 324.678C158.587 320.811 159.253 317.511 160.587 314.778C161.953 312.044 163.82 309.961 166.187 308.528C168.587 307.094 171.337 306.378 174.437 306.378C177.537 306.378 180.27 307.094 182.637 308.528C185.037 309.961 186.903 312.044 188.237 314.778C189.603 317.511 190.287 320.811 190.287 324.678C190.287 328.544 189.603 331.844 188.237 334.578C186.903 337.311 185.037 339.394 182.637 340.828C180.27 342.261 177.537 342.978 174.437 342.978ZM174.437 333.528C175.203 333.528 175.887 333.261 176.487 332.728C177.087 332.194 177.553 331.278 177.887 329.978C178.253 328.678 178.437 326.911 178.437 324.678C178.437 322.411 178.253 320.644 177.887 319.378C177.553 318.078 177.087 317.161 176.487 316.628C175.887 316.094 175.203 315.828 174.437 315.828C173.67 315.828 172.987 316.094 172.387 316.628C171.787 317.161 171.303 318.078 170.937 319.378C170.603 320.644 170.437 322.411 170.437 324.678C170.437 326.911 170.603 328.678 170.937 329.978C171.303 331.278 171.787 332.194 172.387 332.728C172.987 333.261 173.67 333.528 174.437 333.528ZM205.484 342.178V322.578H210.916L218.756 335.374H215.9L223.516 322.578H228.948L229.004 342.178H222.984L222.928 331.65H223.88L218.672 340.414H215.76L210.328 331.65H211.504V342.178H205.484ZM240.453 342.458C238.586 342.458 236.953 342.112 235.553 341.422C234.172 340.731 233.098 339.788 232.333 338.594C231.568 337.38 231.185 336.018 231.185 334.506C231.185 332.956 231.558 331.584 232.305 330.39C233.07 329.195 234.106 328.262 235.413 327.59C236.738 326.918 238.222 326.582 239.865 326.582C241.377 326.582 242.768 326.88 244.037 327.478C245.325 328.075 246.352 328.962 247.117 330.138C247.901 331.314 248.293 332.77 248.293 334.506C248.293 334.73 248.284 334.982 248.265 335.262C248.246 335.523 248.228 335.766 248.209 335.99H236.421V332.938H244.849L242.469 333.75C242.469 333.152 242.357 332.648 242.133 332.238C241.928 331.808 241.638 331.482 241.265 331.258C240.892 331.015 240.444 330.894 239.921 330.894C239.398 330.894 238.941 331.015 238.549 331.258C238.176 331.482 237.886 331.808 237.681 332.238C237.476 332.648 237.373 333.152 237.373 333.75V334.702C237.373 335.355 237.504 335.915 237.765 336.382C238.026 336.848 238.4 337.203 238.885 337.446C239.37 337.67 239.958 337.782 240.649 337.782C241.358 337.782 241.937 337.688 242.385 337.502C242.852 337.315 243.337 337.035 243.841 336.662L247.145 339.994C246.398 340.796 245.474 341.412 244.373 341.842C243.29 342.252 241.984 342.458 240.453 342.458ZM250.568 342.178V326.862H263.952V331.79H255.496L256.868 330.446V342.178H250.568ZM274.703 342.178V339.462L274.255 338.734V333.582C274.255 332.835 274.022 332.266 273.555 331.874C273.107 331.482 272.37 331.286 271.343 331.286C270.652 331.286 269.952 331.398 269.243 331.622C268.534 331.827 267.927 332.116 267.423 332.49L265.407 328.318C266.303 327.758 267.376 327.328 268.627 327.03C269.878 326.731 271.1 326.582 272.295 326.582C274.927 326.582 276.962 327.17 278.399 328.346C279.855 329.522 280.583 331.388 280.583 333.946V342.178H274.703ZM270.363 342.458C269.112 342.458 268.067 342.243 267.227 341.814C266.387 341.384 265.752 340.815 265.323 340.106C264.894 339.378 264.679 338.575 264.679 337.698C264.679 336.708 264.931 335.868 265.435 335.178C265.939 334.487 266.704 333.964 267.731 333.61C268.776 333.255 270.092 333.078 271.679 333.078H274.871V336.13H272.687C272.015 336.13 271.52 336.242 271.203 336.466C270.904 336.671 270.755 336.988 270.755 337.418C270.755 337.772 270.886 338.071 271.147 338.314C271.427 338.538 271.8 338.65 272.267 338.65C272.696 338.65 273.088 338.538 273.443 338.314C273.816 338.071 274.087 337.698 274.255 337.194L275.067 339.07C274.824 340.208 274.311 341.058 273.527 341.618C272.743 342.178 271.688 342.458 270.363 342.458ZM291.45 342.626C290.218 342.626 289.051 342.458 287.95 342.122C286.867 341.786 285.915 341.235 285.094 340.47C284.272 339.704 283.628 338.696 283.162 337.446C282.695 336.195 282.462 334.655 282.462 332.826C282.462 331.668 282.564 330.595 282.77 329.606C282.975 328.598 283.292 327.674 283.722 326.834C284.151 325.994 284.702 325.256 285.374 324.622C286.046 323.968 286.848 323.427 287.782 322.998C288.715 322.55 289.779 322.214 290.974 321.99L298.59 320.618L299.43 325.798L292.99 326.946C292.579 327.02 292.159 327.114 291.73 327.226C291.3 327.319 290.89 327.459 290.498 327.646C290.106 327.814 289.751 328.056 289.434 328.374C289.116 328.691 288.864 329.102 288.678 329.606C288.51 330.11 288.426 330.735 288.426 331.482C288.426 331.706 288.435 331.892 288.454 332.042C288.472 332.191 288.491 332.368 288.51 332.574C288.528 332.76 288.538 333.059 288.538 333.47L286.942 332.07C287.427 331.398 287.978 330.828 288.594 330.362C289.21 329.876 289.91 329.503 290.694 329.242C291.478 328.98 292.364 328.85 293.354 328.85C294.847 328.85 296.116 329.13 297.162 329.69C298.226 330.25 299.028 331.024 299.57 332.014C300.13 332.984 300.41 334.095 300.41 335.346C300.41 336.876 300.018 338.183 299.234 339.266C298.45 340.348 297.386 341.179 296.042 341.758C294.698 342.336 293.167 342.626 291.45 342.626ZM291.562 337.95C292.047 337.95 292.467 337.847 292.822 337.642C293.176 337.418 293.456 337.119 293.662 336.746C293.867 336.372 293.97 335.952 293.97 335.486C293.97 335 293.867 334.59 293.662 334.254C293.456 333.918 293.167 333.656 292.794 333.47C292.439 333.283 292.028 333.19 291.562 333.19C291.076 333.19 290.647 333.283 290.274 333.47C289.9 333.656 289.611 333.918 289.406 334.254C289.2 334.571 289.098 334.954 289.098 335.402C289.098 335.887 289.2 336.326 289.406 336.718C289.611 337.091 289.9 337.39 290.274 337.614C290.647 337.838 291.076 337.95 291.562 337.95ZM302.357 342.178V326.862H308.685V342.178H302.357ZM305.521 325.63C304.364 325.63 303.44 325.322 302.749 324.706C302.058 324.09 301.713 323.324 301.713 322.41C301.713 321.495 302.058 320.73 302.749 320.114C303.44 319.498 304.364 319.19 305.521 319.19C306.678 319.19 307.602 319.479 308.293 320.058C308.984 320.636 309.329 321.383 309.329 322.298C309.329 323.268 308.984 324.071 308.293 324.706C307.602 325.322 306.678 325.63 305.521 325.63ZM315.182 342.178V330.446L316.554 331.79H310.506V326.862H326.158V331.79H320.11L321.482 330.446V342.178H315.182Z" fill="#8B6CB0"/>
<path d="M365.148 354L65 354L83.6191 373.228L65 391L365.148 391V354Z" fill="#8B6CB0"/>
<path d="M141.034 377.135L139.729 378.511L139.729 364.656H145.744L145.744 378.511L144.375 377.135H151.695L150.39 378.511L150.39 364.656H156.372L156.372 381.999H129.037L129.037 364.656H135.051L135.052 378.511L133.747 377.135H141.034ZM160.455 381.999L160.455 364.656H169.715C171.943 364.656 173.682 365.05 174.934 365.84C176.186 366.608 176.812 367.717 176.812 369.168C176.812 370.554 176.228 371.663 175.062 372.495C173.916 373.306 172.367 373.711 170.416 373.711L170.957 372.431C173.057 372.431 174.637 372.826 175.698 373.615C176.78 374.383 177.321 375.514 177.321 377.007C177.321 378.543 176.727 379.759 175.539 380.655C174.372 381.551 172.58 381.999 170.161 381.999H160.455ZM165.865 378.063H169.62C170.363 378.063 170.914 377.935 171.275 377.679C171.636 377.402 171.816 376.997 171.816 376.463C171.816 375.909 171.635 375.503 171.275 375.247C170.935 374.991 170.405 374.863 169.684 374.863H165.865L165.865 378.063ZM165.865 371.631H169.174C169.896 371.631 170.426 371.503 170.766 371.247C171.105 370.97 171.275 370.576 171.275 370.064C171.275 369.552 171.105 369.178 170.766 368.944C170.426 368.688 169.896 368.56 169.174 368.56H165.865L165.865 371.631ZM180.375 381.999L180.375 364.656H186.389L186.39 373.743L193.613 364.656H199.182L199.182 381.999H193.136L193.136 372.879L185.976 381.999H180.375ZM215.213 379.343L215.212 369.488H210.598L210.535 371.151C210.492 371.983 210.439 372.773 210.376 373.519C210.333 374.245 210.227 374.906 210.057 375.503C209.888 376.101 209.644 376.613 209.325 377.039C209.007 377.445 208.583 377.743 208.053 377.935L202.134 377.135C202.706 377.135 203.173 376.975 203.534 376.655C203.916 376.314 204.213 375.845 204.425 375.247C204.637 374.65 204.785 373.967 204.87 373.199C204.976 372.41 205.051 371.578 205.093 370.704L205.316 364.656H221.259L221.259 379.343H215.213ZM201.561 385.583L201.561 377.135H223.645L223.646 385.583H218.045L218.045 381.999H207.193L207.194 385.583H201.561ZM238.336 381.999L233.086 373.903L237.954 371.024L245.465 381.999H238.336ZM226.244 381.999L226.244 364.656H232.29L232.29 381.999H226.244ZM230.508 375.823L230.508 371.056H236.745L236.745 375.823H230.508ZM238.559 373.999L232.895 373.423L238.686 364.656H245.082L238.559 373.999ZM247.469 381.999L247.469 364.656H253.515L253.515 381.999H247.469ZM250.492 362.736C249.389 362.736 248.498 362.426 247.819 361.808C247.14 361.189 246.8 360.421 246.8 359.504C246.8 358.586 247.14 357.818 247.819 357.2C248.498 356.581 249.389 356.272 250.492 356.272C251.595 356.272 252.486 356.571 253.165 357.168C253.844 357.744 254.183 358.49 254.183 359.408C254.183 360.368 253.844 361.168 253.165 361.808C252.507 362.426 251.616 362.736 250.492 362.736ZM266.256 382.287C264.346 382.287 262.639 381.903 261.132 381.135C259.647 380.367 258.48 379.311 257.632 377.967C256.783 376.602 256.359 375.045 256.359 373.295C256.359 371.546 256.783 370 257.632 368.656C258.48 367.312 259.647 366.266 261.132 365.52C262.638 364.752 264.346 364.368 266.255 364.368C268.207 364.368 269.894 364.784 271.315 365.616C272.736 366.448 273.744 367.621 274.338 369.136L269.66 371.535C269.257 370.725 268.759 370.138 268.165 369.776C267.571 369.392 266.924 369.2 266.224 369.2C265.523 369.2 264.887 369.36 264.314 369.68C263.741 370 263.285 370.469 262.946 371.088C262.628 371.685 262.469 372.421 262.469 373.295C262.469 374.191 262.628 374.949 262.946 375.567C263.285 376.186 263.742 376.655 264.314 376.975C264.887 377.295 265.524 377.455 266.224 377.455C266.924 377.455 267.571 377.274 268.165 376.911C268.759 376.527 269.257 375.93 269.66 375.119L274.338 377.519C273.744 379.034 272.737 380.207 271.315 381.039C269.894 381.871 268.207 382.287 266.256 382.287ZM280.78 381.999L280.78 368.144L282.084 369.488H275.211L275.211 364.656H292.331L292.331 369.488H285.458L286.794 368.144L286.794 381.999H280.78ZM304.793 370.032C307.085 370.053 308.835 370.565 310.044 371.567C311.253 372.57 311.858 373.999 311.858 375.855C311.858 377.775 311.158 379.29 309.758 380.399C308.379 381.487 306.47 382.021 304.03 381.999H294.674L294.674 364.656H300.688L300.688 370.032H304.793ZM303.425 377.839C304.146 377.839 304.709 377.669 305.112 377.327C305.515 376.986 305.716 376.463 305.716 375.759C305.716 375.034 305.515 374.522 305.112 374.223C304.73 373.925 304.168 373.765 303.425 373.743H300.688L300.688 377.807L303.425 377.839Z" fill="white"/>
</g>
</g>
<path d="M131.5 78L121.5 96.999L131.5 116L121.5 116L121.5 115.999L29 115.999L29 78L131.5 78Z" fill="#8B6CB0"/>
<path d="M56.1158 101.084L49.8158 101.084L48.5738 104L46.1618 104L51.8318 91.4L54.1358 91.4L59.8238 104L57.3758 104L56.1158 101.084ZM55.3418 99.248L52.9658 93.74L50.6078 99.248L55.3418 99.248ZM65.4999 100.148L63.7539 100.148L63.7539 104L61.5039 104L61.5039 94.388L63.7539 94.388L63.7539 98.276L65.5539 98.276L68.3979 94.388L70.8099 94.388L67.3179 99.014L71.0439 104L68.3979 104L65.4999 100.148ZM83.1789 102.092L83.1789 106.214L81.0729 106.214L81.0729 104L72.6309 104L72.6309 94.388L74.8809 94.388L74.8809 102.092L79.4709 102.092L79.4709 94.388L81.7209 94.388L81.7209 102.092L83.1789 102.092ZM85.1817 94.388L87.4317 94.388L87.4317 104L85.1817 104L85.1817 94.388ZM86.3157 92.804C85.9077 92.804 85.5657 92.678 85.2897 92.426C85.0137 92.162 84.8757 91.838 84.8757 91.454C84.8757 91.07 85.0137 90.752 85.2897 90.5C85.5657 90.236 85.9077 90.104 86.3157 90.104C86.7237 90.104 87.0657 90.23 87.3417 90.482C87.6177 90.722 87.7557 91.028 87.7557 91.4C87.7557 91.796 87.6177 92.132 87.3417 92.408C87.0777 92.672 86.7357 92.804 86.3157 92.804ZM98.5907 94.388L98.5907 104L96.5747 104L96.5747 101.102L94.0367 101.102L92.0747 104L89.6627 104L91.9307 100.796C91.2347 100.556 90.7007 100.19 90.3287 99.698C89.9687 99.194 89.7887 98.576 89.7887 97.844C89.7887 96.74 90.1787 95.888 90.9587 95.288C91.7387 94.688 92.8127 94.388 94.1807 94.388L98.5907 94.388ZM94.2527 96.278C92.8007 96.278 92.0747 96.824 92.0747 97.916C92.0747 98.996 92.7767 99.536 94.1807 99.536L96.5747 99.536L96.5747 96.278L94.2527 96.278ZM101.293 91.4L103.957 91.4L103.507 99.824L101.725 99.824L101.293 91.4ZM102.625 104.126C102.205 104.126 101.857 103.994 101.581 103.73C101.305 103.454 101.167 103.118 101.167 102.722C101.167 102.326 101.305 101.996 101.581 101.732C101.857 101.468 102.205 101.336 102.625 101.336C103.033 101.336 103.369 101.468 103.633 101.732C103.909 101.996 104.047 102.326 104.047 102.722C104.047 103.118 103.909 103.454 103.633 103.73C103.369 103.994 103.033 104.126 102.625 104.126Z" fill="white"/>
<defs>
<filter id="filter0_d_1328_502" x="0" y="0" width="393" height="713" filterUnits="userSpaceOnUse" color-interpolation-filters="sRGB">
<feFlood flood-opacity="0" result="BackgroundImageFix"/>
<feColorMatrix in="SourceAlpha" type="matrix" values="0 0 0 0 0 0 0 0 0 0 0 0 0 0 0 0 0 0 127 0" result="hardAlpha"/>
<feOffset dy="4"/>
<feGaussianBlur stdDeviation="14.5"/>
<feColorMatrix type="matrix" values="0 0 0 0 0.901961 0 0 0 0 0.890196 0 0 0 0 0.890196 0 0 0 1 0"/>
<feBlend mode="normal" in2="BackgroundImageFix" result="effect1_dropShadow_1328_502"/>
<feBlend mode="normal" in="SourceGraphic" in2="effect1_dropShadow_1328_502" result="shape"/>
</filter>
<filter id="filter1_d_1328_502" x="41" y="552" width="310" height="100" filterUnits="userSpaceOnUse" color-interpolation-filters="sRGB">
<feFlood flood-opacity="0" result="BackgroundImageFix"/>
<feColorMatrix in="SourceAlpha" type="matrix" values="0 0 0 0 0 0 0 0 0 0 0 0 0 0 0 0 0 0 127 0" result="hardAlpha"/>
<feOffset dy="4"/>
<feGaussianBlur stdDeviation="10"/>
<feColorMatrix type="matrix" values="0 0 0 0 0.862745 0 0 0 0 0.4 0 0 0 0 0.176471 0 0 0 0.5 0"/>
<feBlend mode="normal" in2="BackgroundImageFix" result="effect1_dropShadow_1328_502"/>
<feBlend mode="normal" in="SourceGraphic" in2="effect1_dropShadow_1328_502" result="shape"/>
</filter>
<linearGradient id="paint0_linear_1328_502" x1="256.661" y1="175.879" x2="256.663" y2="164.323" gradientUnits="userSpaceOnUse">
<stop stop-color="#F58A76"/>
<stop offset="1" stop-color="#F8AA9B"/>
</linearGradient>
<linearGradient id="paint1_linear_1328_502" x1="256.601" y1="163.282" x2="256.606" y2="142.663" gradientUnits="userSpaceOnUse">
<stop stop-color="#F9B2A5"/>
<stop offset="1" stop-color="#FBCDC3"/>
</linearGradient>
<linearGradient id="paint2_linear_1328_502" x1="267.914" y1="290.701" x2="267.625" y2="287.954" gradientUnits="userSpaceOnUse">
<stop stop-color="#F9B2A5"/>
<stop offset="1" stop-color="#FBCDC3"/>
</linearGradient>
<linearGradient id="paint3_linear_1328_502" x1="253.199" y1="289.116" x2="252.927" y2="286.525" gradientUnits="userSpaceOnUse">
<stop stop-color="#F9B2A5"/>
<stop offset="1" stop-color="#FBCDC3"/>
</linearGradient>
<linearGradient id="paint4_linear_1328_502" x1="225.955" y1="175.354" x2="225.244" y2="168.911" gradientUnits="userSpaceOnUse">
<stop stop-color="#F9B2A5"/>
<stop offset="1" stop-color="#FBCDC3"/>
</linearGradient>
<linearGradient id="paint5_linear_1328_502" x1="220.419" y1="177.837" x2="226.717" y2="177.146" gradientUnits="userSpaceOnUse">
<stop stop-color="#F9B2A5"/>
<stop offset="1" stop-color="#FBCDC3"/>
</linearGradient>
<linearGradient id="paint6_linear_1328_502" x1="272.552" y1="215.831" x2="270.67" y2="226.186" gradientUnits="userSpaceOnUse">
<stop stop-color="#F9B2A5"/>
<stop offset="1" stop-color="#FBCDC3"/>
</linearGradient>
<clipPath id="clip0_1328_502">
<rect x="29" y="25" width="335" height="655" rx="10" fill="white"/>
</clipPath>
</defs>
</svg>
