<svg width="393" height="713" viewBox="0 0 393 713" fill="none" xmlns="http://www.w3.org/2000/svg">
<g filter="url(#filter0_d_1023_2)">
<g clip-path="url(#clip0_1023_2)">
<rect x="29" y="25" width="335" height="655" rx="10" fill="white"/>
<path d="M127.67 479.984L134.253 542.637L116.629 544.489L111.485 495.529L99.9135 496.745L98.4746 483.051L127.67 479.984ZM162.759 499.373C171.482 498.457 178.109 499.57 182.639 502.714C187.228 505.852 189.836 510.404 190.463 516.371C190.871 520.249 190.238 523.936 188.565 527.429C186.946 530.857 184.192 533.771 180.305 536.17C176.47 538.504 171.556 539.985 165.563 540.615C161.172 541.076 156.754 540.997 152.309 540.378C147.924 539.753 144.085 538.618 140.792 536.973L145.711 522.973C148.378 524.382 151.243 525.378 154.304 525.961C157.424 526.538 160.498 526.668 163.524 526.35C166.55 526.032 168.894 525.213 170.555 523.892C172.269 522.505 173.017 520.768 172.797 518.679C172.578 516.591 171.521 515.103 169.628 514.216C167.735 513.329 164.534 513.122 160.024 513.596L143.112 515.373L142.381 478.438L182.079 474.267L183.518 487.962L158.417 490.599L158.576 499.812L162.759 499.373ZM225.326 534.336C219.986 534.897 215.104 534.113 210.68 531.984C206.257 529.854 202.601 526.468 199.713 521.824C196.879 517.115 195.107 511.389 194.399 504.646C193.69 497.903 194.236 491.964 196.036 486.828C197.889 481.626 200.758 477.524 204.642 474.521C208.526 471.519 213.139 469.738 218.479 469.177C223.761 468.622 228.613 469.409 233.036 471.538C237.46 473.668 241.089 477.087 243.923 481.797C246.811 486.44 248.609 492.134 249.318 498.876C250.026 505.619 249.454 511.591 247.601 516.793C245.801 521.929 242.958 525.998 239.074 529.001C235.19 532.003 230.607 533.781 225.326 534.336ZM223.803 519.836C226.77 519.525 228.963 517.846 230.383 514.801C231.856 511.691 232.263 507.002 231.605 500.737C230.946 494.472 229.577 490.001 227.496 487.323C225.467 484.58 222.97 483.365 220.003 483.676C216.977 483.994 214.727 485.709 213.254 488.82C211.834 491.865 211.453 496.52 212.112 502.785C212.77 509.05 214.113 513.555 216.141 516.298C218.222 518.975 220.776 520.154 223.803 519.836Z" fill="#DC662D"/>
<path d="M71.5544 529.35L73.7489 550.235L67.9336 550.846L66.2313 534.645L58.3391 535.474L60.0414 551.675L54.2558 552.283L52.0613 531.398L71.5544 529.35ZM88.4391 549.114C86.2436 549.344 84.2165 549.085 82.3578 548.335C80.5189 547.583 79.0084 546.434 77.8261 544.89C76.6637 543.343 75.9737 541.535 75.7564 539.466C75.539 537.398 75.8381 535.486 76.6536 533.731C77.4889 531.974 78.7278 530.537 80.3702 529.419C82.0324 528.3 83.9613 527.624 86.1569 527.394C88.3524 527.163 90.3697 527.424 92.2085 528.176C94.0672 528.926 95.5778 530.074 96.7402 531.621C97.9225 533.166 98.6223 534.973 98.8396 537.041C99.057 539.11 98.748 541.022 97.9127 542.779C97.0972 544.534 95.8583 545.971 94.1961 547.091C92.5537 548.209 90.6347 548.883 88.4391 549.114ZM87.925 544.221C88.9733 544.111 89.8967 543.762 90.695 543.176C91.4932 542.589 92.0926 541.822 92.4931 540.875C92.8914 539.908 93.0289 538.838 92.9056 537.665C92.7823 536.491 92.4264 535.483 91.8378 534.64C91.2472 533.777 90.5005 533.141 89.5977 532.733C88.6949 532.325 87.7193 532.177 86.671 532.287C85.6227 532.397 84.6994 532.745 83.9011 533.332C83.1028 533.918 82.5044 534.695 82.1061 535.662C81.7056 536.609 81.5671 537.669 81.6904 538.843C81.8137 540.016 82.1707 541.035 82.7613 541.898C83.3499 542.741 84.0955 543.366 84.9983 543.774C85.9011 544.182 86.8767 544.331 87.925 544.221Z" fill="#5F6061"/>
<path d="M266.535 469.715L262.603 470.128L263.216 475.96L260.412 476.255L259.563 468.17L266.298 467.462L266.535 469.715ZM272.445 466.681C273.177 466.604 273.858 466.708 274.488 466.994C275.127 467.269 275.653 467.706 276.066 468.306C276.488 468.895 276.742 469.607 276.83 470.443C276.918 471.278 276.817 472.033 276.528 472.707C276.248 473.37 275.824 473.907 275.258 474.318C274.7 474.719 274.055 474.957 273.323 475.034C272.383 475.133 271.607 474.928 270.993 474.419L271.373 478.029L268.554 478.326L267.4 467.346L270.086 467.064L270.17 467.87C270.629 467.188 271.387 466.792 272.445 466.681ZM272.493 472.844C272.987 472.792 273.375 472.581 273.656 472.209C273.936 471.828 274.045 471.339 273.982 470.742C273.919 470.145 273.712 469.695 273.36 469.39C273.007 469.075 272.583 468.943 272.088 468.995C271.594 469.047 271.207 469.264 270.927 469.645C270.646 470.017 270.537 470.501 270.599 471.097C270.662 471.694 270.87 472.15 271.223 472.465C271.575 472.77 271.998 472.896 272.493 472.844ZM277.759 466.258L280.563 465.963L280.878 468.962L283.771 468.658L283.456 465.66L286.274 465.363L287.124 473.449L284.305 473.745L284.007 470.911L281.114 471.214L281.412 474.049L278.608 474.343L277.759 466.258ZM265.759 490.881L264.81 490.981L265.112 493.86L262.293 494.156L261.444 486.071L264.263 485.774L264.576 488.758L265.585 488.652L267.244 485.461L270.226 485.148L267.934 489.31L271.254 493.215L267.931 493.564L265.759 490.881ZM275.932 492.859C275.071 492.949 274.276 492.852 273.546 492.567C272.816 492.281 272.22 491.841 271.757 491.246C271.305 490.65 271.036 489.95 270.952 489.144C270.868 488.348 270.986 487.612 271.304 486.935C271.633 486.257 272.12 485.708 272.766 485.288C273.421 484.858 274.183 484.597 275.054 484.505C275.924 484.414 276.724 484.511 277.454 484.796C278.183 485.071 278.774 485.507 279.226 486.103C279.678 486.689 279.946 487.385 280.031 488.19C280.115 488.996 279.998 489.737 279.679 490.414C279.36 491.091 278.874 491.645 278.219 492.076C277.564 492.506 276.802 492.767 275.932 492.859ZM275.695 490.606C276.189 490.554 276.577 490.343 276.858 489.971C277.138 489.59 277.246 489.096 277.182 488.489C277.12 487.893 276.912 487.442 276.56 487.137C276.208 486.832 275.785 486.706 275.29 486.758C274.796 486.81 274.408 487.021 274.127 487.393C273.846 487.764 273.737 488.248 273.8 488.845C273.864 489.451 274.072 489.912 274.425 490.227C274.777 490.532 275.2 490.658 275.695 490.606ZM289.567 488.38L288.736 488.467L289.039 491.346L286.265 491.638L285.962 488.759L285.116 488.847L283.965 491.879L280.627 492.23L282.607 487.799L279.956 484.126L282.938 483.813L284.824 486.631L285.729 486.536L285.415 483.552L288.189 483.261L288.503 486.244L289.378 486.152L290.652 483.002L293.634 482.689L291.789 486.834L294.661 490.755L291.323 491.106L289.567 488.38ZM294.794 482.567L297.597 482.272L297.913 485.271L300.805 484.967L300.49 481.969L303.309 481.672L304.159 489.758L301.34 490.054L301.042 487.22L298.149 487.523L298.447 490.358L295.643 490.652L294.794 482.567ZM310.035 489.276C309.174 489.367 308.379 489.269 307.649 488.984C306.919 488.699 306.323 488.258 305.861 487.663C305.408 487.068 305.139 486.367 305.055 485.561C304.971 484.766 305.089 484.029 305.408 483.352C305.736 482.674 306.224 482.125 306.869 481.706C307.524 481.275 308.287 481.014 309.157 480.922C310.027 480.831 310.827 480.928 311.557 481.213C312.286 481.488 312.877 481.924 313.329 482.52C313.781 483.106 314.049 483.802 314.134 484.607C314.218 485.413 314.101 486.154 313.782 486.831C313.464 487.508 312.977 488.062 312.322 488.493C311.667 488.924 310.905 489.185 310.035 489.276ZM309.798 487.024C310.292 486.972 310.68 486.76 310.961 486.389C311.241 486.007 311.349 485.513 311.285 484.907C311.223 484.31 311.015 483.859 310.663 483.554C310.311 483.249 309.888 483.123 309.394 483.175C308.899 483.227 308.511 483.439 308.23 483.81C307.949 484.181 307.84 484.665 307.903 485.262C307.967 485.869 308.175 486.329 308.528 486.644C308.88 486.949 309.303 487.076 309.798 487.024ZM323.685 487.706L323.238 483.455L321.548 487.207L320.346 487.333L317.966 483.948L318.419 488.26L315.882 488.526L315.032 480.441L317.999 480.129L320.683 484.115L322.702 479.635L325.358 479.356L326.222 487.44L323.685 487.706ZM335.849 478.254L333.261 487.032C332.96 488.069 332.539 488.817 331.997 489.276C331.457 489.745 330.766 490.024 329.925 490.112C329.5 490.157 329.063 490.133 328.613 490.039C328.174 489.955 327.81 489.817 327.52 489.626L328.29 487.539C328.464 487.672 328.664 487.766 328.89 487.823C329.127 487.889 329.359 487.91 329.586 487.886C329.854 487.858 330.065 487.78 330.222 487.653C330.389 487.525 330.519 487.335 330.612 487.084L326.31 479.256L329.203 478.952L331.695 483.683L333.164 478.536L335.849 478.254Z" fill="#5F6061"/>
<g filter="url(#filter1_d_1023_2)">
<rect x="61" y="568" width="270" height="60" rx="30" fill="#DC662D"/>
<path d="M153.627 602.02V606.682H151.467V604H141.801V606.682H139.623L139.641 602.02H140.181C140.973 601.984 141.525 601.402 141.837 600.274C142.161 599.134 142.359 597.508 142.431 595.396L142.575 591.4H151.809V602.02H153.627ZM144.483 595.612C144.423 597.244 144.291 598.606 144.087 599.698C143.883 600.778 143.559 601.552 143.115 602.02H149.505V593.38H144.573L144.483 595.612ZM164.403 599.248C164.403 599.404 164.391 599.626 164.367 599.914H156.825C156.957 600.622 157.299 601.186 157.851 601.606C158.415 602.014 159.111 602.218 159.939 602.218C160.995 602.218 161.865 601.87 162.549 601.174L163.755 602.56C163.323 603.076 162.777 603.466 162.117 603.73C161.457 603.994 160.713 604.126 159.885 604.126C158.829 604.126 157.899 603.916 157.095 603.496C156.291 603.076 155.667 602.494 155.223 601.75C154.791 600.994 154.575 600.142 154.575 599.194C154.575 598.258 154.785 597.418 155.205 596.674C155.637 595.918 156.231 595.33 156.987 594.91C157.743 594.49 158.595 594.28 159.543 594.28C160.479 594.28 161.313 594.49 162.045 594.91C162.789 595.318 163.365 595.9 163.773 596.656C164.193 597.4 164.403 598.264 164.403 599.248ZM159.543 596.08C158.823 596.08 158.211 596.296 157.707 596.728C157.215 597.148 156.915 597.712 156.807 598.42H162.261C162.165 597.724 161.871 597.16 161.379 596.728C160.887 596.296 160.275 596.08 159.543 596.08ZM174.126 596.296H170.76V604H168.51V596.296H165.126V594.388H174.126V596.296ZM179.34 594.28C180.756 594.28 181.836 594.622 182.58 595.306C183.336 595.978 183.714 596.998 183.714 598.366V604H181.59V602.83C181.314 603.25 180.918 603.574 180.402 603.802C179.898 604.018 179.286 604.126 178.566 604.126C177.846 604.126 177.216 604.006 176.676 603.766C176.136 603.514 175.716 603.172 175.416 602.74C175.128 602.296 174.984 601.798 174.984 601.246C174.984 600.382 175.302 599.692 175.938 599.176C176.586 598.648 177.6 598.384 178.98 598.384H181.464V598.24C181.464 597.568 181.26 597.052 180.852 596.692C180.456 596.332 179.862 596.152 179.07 596.152C178.53 596.152 177.996 596.236 177.468 596.404C176.952 596.572 176.514 596.806 176.154 597.106L175.272 595.468C175.776 595.084 176.382 594.79 177.09 594.586C177.798 594.382 178.548 594.28 179.34 594.28ZM179.034 602.488C179.598 602.488 180.096 602.362 180.528 602.11C180.972 601.846 181.284 601.474 181.464 600.994V599.878H179.142C177.846 599.878 177.198 600.304 177.198 601.156C177.198 601.564 177.36 601.888 177.684 602.128C178.008 602.368 178.458 602.488 179.034 602.488ZM195.21 594.388V604H192.96V596.296H189.36L189.27 598.204C189.21 599.476 189.09 600.544 188.91 601.408C188.742 602.26 188.448 602.938 188.028 603.442C187.62 603.934 187.056 604.18 186.336 604.18C186 604.18 185.586 604.114 185.094 603.982L185.202 602.092C185.37 602.128 185.514 602.146 185.634 602.146C186.09 602.146 186.432 601.966 186.66 601.606C186.888 601.234 187.032 600.796 187.092 600.292C187.164 599.776 187.224 599.044 187.272 598.096L187.434 594.388H195.21ZM203.065 597.556C204.289 597.556 205.225 597.832 205.873 598.384C206.533 598.936 206.863 599.716 206.863 600.724C206.863 601.78 206.503 602.596 205.783 603.172C205.063 603.748 204.049 604.03 202.741 604.018L198.241 604V594.388H200.491V597.538L203.065 597.556ZM202.543 602.362C203.203 602.374 203.707 602.236 204.055 601.948C204.403 601.66 204.577 601.24 204.577 600.688C204.577 600.148 204.409 599.752 204.073 599.5C203.737 599.248 203.227 599.116 202.543 599.104L200.491 599.086V602.344L202.543 602.362ZM208.84 594.388H211.09V598.294H215.932V594.388H218.182V604H215.932V600.202H211.09V604H208.84V594.388ZM221.198 594.388H223.448V604H221.198V594.388ZM222.332 592.804C221.924 592.804 221.582 592.678 221.306 592.426C221.03 592.162 220.892 591.838 220.892 591.454C220.892 591.07 221.03 590.752 221.306 590.5C221.582 590.236 221.924 590.104 222.332 590.104C222.74 590.104 223.082 590.23 223.358 590.482C223.634 590.722 223.772 591.028 223.772 591.4C223.772 591.796 223.634 592.132 223.358 592.408C223.094 592.672 222.752 592.804 222.332 592.804ZM240.655 594.388V604H226.489V594.388H228.739V602.092H232.465V594.388H234.715V602.092H238.405V594.388H240.655ZM252.68 599.248C252.68 599.404 252.668 599.626 252.644 599.914H245.102C245.234 600.622 245.576 601.186 246.128 601.606C246.692 602.014 247.388 602.218 248.216 602.218C249.272 602.218 250.142 601.87 250.826 601.174L252.032 602.56C251.6 603.076 251.054 603.466 250.394 603.73C249.734 603.994 248.99 604.126 248.162 604.126C247.106 604.126 246.176 603.916 245.372 603.496C244.568 603.076 243.944 602.494 243.5 601.75C243.068 600.994 242.852 600.142 242.852 599.194C242.852 598.258 243.062 597.418 243.482 596.674C243.914 595.918 244.508 595.33 245.264 594.91C246.02 594.49 246.872 594.28 247.82 594.28C248.756 594.28 249.59 594.49 250.322 594.91C251.066 595.318 251.642 595.9 252.05 596.656C252.47 597.4 252.68 598.264 252.68 599.248ZM247.82 596.08C247.1 596.08 246.488 596.296 245.984 596.728C245.492 597.148 245.192 597.712 245.084 598.42H250.538C250.442 597.724 250.148 597.16 249.656 596.728C249.164 596.296 248.552 596.08 247.82 596.08Z" fill="white"/>
</g>
<path d="M364 65L29 65L29 25L364 25L364 44.5L364 65Z" fill="#DC662D"/>
<path d="M56.182 38.4C57.346 38.4 58.36 38.592 59.224 38.976C60.088 39.36 60.754 39.912 61.222 40.632C61.69 41.352 61.924 42.192 61.924 43.152C61.924 44.112 61.69 44.952 61.222 45.672C60.754 46.392 60.088 46.944 59.224 47.328C58.36 47.712 57.346 47.904 56.182 47.904H54.364V51H50.116V38.4H56.182ZM55.912 44.628C56.488 44.628 56.92 44.502 57.208 44.25C57.496 43.986 57.64 43.62 57.64 43.152C57.64 42.684 57.496 42.324 57.208 42.072C56.92 41.808 56.488 41.676 55.912 41.676H54.364V44.628H55.912ZM73.6877 47.796V51H63.2117V38.4H73.4537V41.604H67.3877V43.08H72.7157V46.14H67.3877V47.796H73.6877ZM84.2129 44.52L87.9389 51H83.1509L80.7389 46.446H79.5509V51H75.3029V38.4H79.5509V43.098H80.8469L83.5289 38.4H87.9569L84.2129 44.52ZM95.1256 51.288C93.7696 51.288 92.5516 51.006 91.4716 50.442C90.3916 49.878 89.5456 49.098 88.9336 48.102C88.3216 47.094 88.0156 45.96 88.0156 44.7C88.0156 43.44 88.3216 42.312 88.9336 41.316C89.5456 40.308 90.3916 39.522 91.4716 38.958C92.5516 38.394 93.7696 38.112 95.1256 38.112C96.4816 38.112 97.6996 38.394 98.7796 38.958C99.8596 39.522 100.706 40.308 101.318 41.316C101.93 42.312 102.236 43.44 102.236 44.7C102.236 45.96 101.93 47.094 101.318 48.102C100.706 49.098 99.8596 49.878 98.7796 50.442C97.6996 51.006 96.4816 51.288 95.1256 51.288ZM95.1256 47.85C95.6536 47.85 96.1276 47.724 96.5476 47.472C96.9796 47.208 97.3216 46.842 97.5736 46.374C97.8256 45.894 97.9516 45.336 97.9516 44.7C97.9516 44.064 97.8256 43.512 97.5736 43.044C97.3216 42.564 96.9796 42.198 96.5476 41.946C96.1276 41.682 95.6536 41.55 95.1256 41.55C94.5976 41.55 94.1176 41.682 93.6856 41.946C93.2656 42.198 92.9296 42.564 92.6776 43.044C92.4256 43.512 92.2996 44.064 92.2996 44.7C92.2996 45.336 92.4256 45.894 92.6776 46.374C92.9296 46.842 93.2656 47.208 93.6856 47.472C94.1176 47.724 94.5976 47.85 95.1256 47.85ZM115.014 51L114.978 45.258L112.242 49.866H110.37L107.634 45.456V51H103.764V38.4H107.256L111.36 45.114L115.356 38.4H118.848L118.884 51H115.014ZM131.572 47.796V51H121.096V38.4H131.338V41.604H125.272V43.08H130.6V46.14H125.272V47.796H131.572ZM145.716 38.4V51H141.468V46.356H137.544V51H133.296V38.4H137.544V42.864H141.468V38.4H145.716ZM162.086 47.706V53.466H158.198V51H151.034V53.466H147.146V47.706H147.506C148.238 47.706 148.754 47.244 149.054 46.32C149.354 45.396 149.546 44.034 149.63 42.234L149.774 38.4H160.43V47.706H162.086ZM153.32 42.594C153.272 43.806 153.176 44.838 153.032 45.69C152.888 46.53 152.666 47.202 152.366 47.706H156.254V41.694H153.356L153.32 42.594ZM176.112 38.4L171.054 47.886C170.454 49.014 169.716 49.872 168.84 50.46C167.976 51.048 167.022 51.342 165.978 51.342C165.174 51.342 164.358 51.174 163.53 50.838L164.52 47.778C165.048 47.922 165.48 47.994 165.816 47.994C166.128 47.994 166.392 47.94 166.608 47.832C166.836 47.724 167.052 47.544 167.256 47.292L162.432 38.4H166.914L169.416 43.71L172.008 38.4H176.112ZM176.995 38.4H181.171V44.952L185.509 38.4H189.505V51H185.329V44.466L181.009 51H176.995V38.4ZM183.241 37.68C181.849 37.68 180.847 37.422 180.235 36.906C179.623 36.39 179.317 35.616 179.317 34.584H182.143C182.143 34.992 182.221 35.286 182.377 35.466C182.545 35.646 182.833 35.736 183.241 35.736C183.649 35.736 183.937 35.646 184.105 35.466C184.285 35.286 184.375 34.992 184.375 34.584H187.201C187.201 35.616 186.889 36.39 186.265 36.906C185.641 37.422 184.633 37.68 183.241 37.68ZM211.269 47.706V53.466H207.381V51H200.217V53.466H196.329V47.706H196.689C197.421 47.706 197.937 47.244 198.237 46.32C198.537 45.396 198.729 44.034 198.813 42.234L198.957 38.4H209.613V47.706H211.269ZM202.503 42.594C202.455 43.806 202.359 44.838 202.215 45.69C202.071 46.53 201.849 47.202 201.549 47.706H205.437V41.694H202.539L202.503 42.594ZM218.762 38.4C219.926 38.4 220.94 38.592 221.804 38.976C222.668 39.36 223.334 39.912 223.802 40.632C224.27 41.352 224.504 42.192 224.504 43.152C224.504 44.112 224.27 44.952 223.802 45.672C223.334 46.392 222.668 46.944 221.804 47.328C220.94 47.712 219.926 47.904 218.762 47.904H216.944V51H212.696V38.4H218.762ZM218.492 44.628C219.068 44.628 219.5 44.502 219.788 44.25C220.076 43.986 220.22 43.62 220.22 43.152C220.22 42.684 220.076 42.324 219.788 42.072C219.5 41.808 219.068 41.676 218.492 41.676H216.944V44.628H218.492ZM238.111 38.4L233.053 47.886C232.453 49.014 231.715 49.872 230.839 50.46C229.975 51.048 229.021 51.342 227.977 51.342C227.173 51.342 226.357 51.174 225.529 50.838L226.519 47.778C227.047 47.922 227.479 47.994 227.815 47.994C228.127 47.994 228.391 47.94 228.607 47.832C228.835 47.724 229.051 47.544 229.255 47.292L224.431 38.4H228.913L231.415 43.71L234.007 38.4H238.111ZM248.587 41.694H243.169V51H238.993V38.4H248.587V41.694ZM262.597 38.4L257.539 47.886C256.939 49.014 256.201 49.872 255.325 50.46C254.461 51.048 253.507 51.342 252.463 51.342C251.659 51.342 250.843 51.174 250.015 50.838L251.005 47.778C251.533 47.922 251.965 47.994 252.301 47.994C252.613 47.994 252.877 47.94 253.093 47.832C253.321 47.724 253.537 47.544 253.741 47.292L248.917 38.4H253.399L255.901 43.71L258.493 38.4H262.597Z" fill="white"/>
<path fill-rule="evenodd" clip-rule="evenodd" d="M299.541 290.228C345.006 119.555 110.434 80.1926 64.3586 165.149C51.5429 188.706 59.9341 215.074 66.5708 222.673C101.661 262.795 61.0021 264.163 61.0021 297.903C61.0021 347.524 278.334 361.886 299.541 290.228Z" fill="#F8F6FB"/>
<path fill-rule="evenodd" clip-rule="evenodd" d="M74.4513 246.792C74.5276 242.841 75.2904 240.485 78.4943 238.965C82.0034 237.293 86.1989 238.737 87.9535 242.233C91.0048 248.616 87.7246 257.963 84.5207 267.385C75.0615 264.118 65.6787 260.774 62.6273 254.467C60.9491 250.971 62.3985 246.716 65.9075 245.044C68.9589 243.601 71.3237 244.436 74.4513 246.792Z" fill="#EDE2F9"/>
<path fill-rule="evenodd" clip-rule="evenodd" d="M179.623 295.471L181.988 296.763L182.598 295.699L183.208 294.635L183.284 294.483C183.818 293.495 184.734 291.975 186.031 291.367C187.404 290.76 188.853 290.684 190.608 291.671C193.583 293.343 194.574 294.483 194.574 294.483L192.057 297.599C192.057 297.599 191.218 296.763 190.303 296.231C189.387 295.699 188.395 295.623 187.861 296.459L187.633 296.839L186.946 298.055L186.336 299.118L190.074 301.246L187.938 304.514L184.429 302.538L177.792 314.316L173.368 311.885L180.004 300.106L177.639 298.814L179.623 295.471Z" fill="#EDE2F9"/>
<path fill-rule="evenodd" clip-rule="evenodd" d="M183.899 195.333L168.49 183.478C167.422 182.642 167.193 181.123 168.032 179.983L184.509 158.782C185.349 157.718 186.874 157.49 188.019 158.326L203.428 170.18C204.496 171.016 204.725 172.536 203.885 173.676L187.408 194.877C186.569 195.941 184.967 196.169 183.899 195.333Z" fill="#EDE2F9"/>
<path fill-rule="evenodd" clip-rule="evenodd" d="M189.621 172.156C188.553 171.32 188.324 169.8 189.163 168.66C190.002 167.596 191.528 167.368 192.672 168.204C193.74 169.04 193.969 170.56 193.13 171.7C192.214 172.764 190.688 172.992 189.621 172.156Z" fill="white"/>
<path fill-rule="evenodd" clip-rule="evenodd" d="M142.702 189.086L141.1 196.305L133.548 198.584L125.691 194.329L126.987 187.718L130.725 187.186L131.183 183.007L139.345 183.842L138.888 188.174L142.702 189.086Z" fill="url(#paint0_linear_1023_2)"/>
<path fill-rule="evenodd" clip-rule="evenodd" d="M134.463 186.73C129.352 186.198 125.385 181.639 124.47 176.395C122.029 175.559 121.114 171.684 124.317 171.608C124.623 165.149 123.326 159.526 136.981 161.577C150.864 163.705 148.347 167.884 147.355 174.192H147.508C150.406 174.496 148.881 178.523 146.211 178.979C144.227 183.766 139.574 187.262 134.463 186.73Z" fill="url(#paint1_linear_1023_2)"/>
<path fill-rule="evenodd" clip-rule="evenodd" d="M124.47 172.292C123.936 171.076 124.928 170.24 122.792 167.124C119.435 162.261 121.037 161.957 122.868 157.398C125.919 149.723 131.717 153.066 132.937 153.75C135.76 155.422 136.218 149.115 142.549 151.471C148.652 153.826 152.008 158.614 152.924 162.337C154.068 167.048 147.965 169.176 147.813 171.608C147.813 172.064 147.66 174.647 147.355 174.875C146.974 175.179 145.677 171.684 142.702 169.632C140.795 168.264 131.869 172.444 129.199 168.948C125.614 164.161 125.996 167.048 125.233 170.088C125.08 170.62 124.622 172.596 124.47 172.292Z" fill="#37254D"/>
<path fill-rule="evenodd" clip-rule="evenodd" d="M174.512 233.767C174.893 234.527 176.114 235.363 177.487 236.047L177.563 235.287L178.402 229.056L178.479 228.752C178.097 228.752 177.64 228.752 176.953 228.904C175.961 229.284 174.512 227.688 173.673 227.992C172.757 228.296 171.842 230.652 171.766 231.868C171.766 232.475 174.131 232.4 174.512 233.767Z" fill="url(#paint2_linear_1023_2)"/>
<path fill-rule="evenodd" clip-rule="evenodd" d="M189.311 225.561C187.48 225.409 185.573 225.333 183.742 225.181C181.911 224.421 180.081 223.661 178.25 222.901C178.479 222.142 178.936 221.382 179.623 220.698C182.751 221.458 185.878 222.218 189.082 222.977C189.311 223.889 189.387 224.725 189.311 225.561Z" fill="#D2BEEA"/>
<path fill-rule="evenodd" clip-rule="evenodd" d="M189.311 225.56L183.742 225.181L178.25 222.901C178.326 222.597 178.479 222.369 178.631 222.065C182.064 223.661 185.649 224.573 189.387 224.649C189.311 224.953 189.311 225.256 189.311 225.56Z" fill="#DCCAF1"/>
<path fill-rule="evenodd" clip-rule="evenodd" d="M183.666 241.746C181.606 242.506 177.182 241.366 175.656 239.77L177.868 223.357L189.235 226.092C187.404 231.336 185.573 236.579 183.666 241.746Z" fill="#C5B0DF"/>
<path fill-rule="evenodd" clip-rule="evenodd" d="M176.419 234.451L177.258 228.22C180.462 230.044 183.895 230.88 187.633 230.728L185.497 236.655C182.293 236.731 179.242 235.971 176.419 234.451Z" fill="#EDE2F9"/>
<path fill-rule="evenodd" clip-rule="evenodd" d="M184.505 221.153C187.099 221.761 189.158 222.673 189.082 223.053C189.006 223.509 186.794 223.281 184.124 222.673C181.53 222.065 179.47 221.153 179.547 220.773C179.699 220.317 181.912 220.545 184.505 221.153Z" fill="#C5B0DF"/>
<path fill-rule="evenodd" clip-rule="evenodd" d="M186.412 222.141C186.87 222.217 187.175 222.445 187.175 222.597C187.175 222.749 186.717 222.825 186.336 222.673C185.878 222.597 185.573 222.369 185.573 222.217C185.573 222.065 185.955 221.989 186.412 222.141Z" fill="#B39AD3"/>
<path fill-rule="evenodd" clip-rule="evenodd" d="M178.402 222.369C181.835 223.965 185.497 224.877 189.311 225.029C189.997 225.029 190.379 227.08 188.93 227.004C184.886 226.776 181.454 225.94 177.792 224.269C176.495 223.737 177.716 222.065 178.402 222.369Z" fill="#EDE2F9"/>
<path fill-rule="evenodd" clip-rule="evenodd" d="M176.038 227.308C175.58 229.74 174.283 232.02 172.529 234.071C168.562 232.552 158.34 228.752 154.449 226.852C145.295 222.521 151.017 214.01 159.179 217.658C163.069 219.405 170.621 224.877 176.038 227.308Z" fill="#5983B1"/>
<path fill-rule="evenodd" clip-rule="evenodd" d="M107.612 319.408L109.595 314.24L115.164 315.684L113.409 320.471C113.256 320.471 108.145 319.484 107.612 319.408Z" fill="url(#paint3_linear_1023_2)"/>
<path fill-rule="evenodd" clip-rule="evenodd" d="M136.599 320.472L137.514 315.304L142.931 315.684L142.168 320.396C142.015 320.472 137.133 320.472 136.599 320.472Z" fill="url(#paint4_linear_1023_2)"/>
<path fill-rule="evenodd" clip-rule="evenodd" d="M107.993 318.04C110.815 319.788 113.561 318.496 114.782 319.18C117.528 322.143 118.291 322.903 121.8 323.739C125.233 324.575 127.14 327.918 122.792 327.387C114.706 326.399 108.145 325.791 105.933 324.955C104.865 324.347 104.102 318.952 107.993 318.04Z" fill="#37254D"/>
<path fill-rule="evenodd" clip-rule="evenodd" d="M136.828 319.104C139.727 320.244 142.091 318.572 143.312 318.952C146.363 321.231 147.279 321.763 150.559 321.991C153.915 322.143 156.204 324.955 152.161 325.259C144.456 325.715 138.277 326.323 136.065 325.867C134.921 325.487 133.319 320.699 136.828 319.104Z" fill="#37254D"/>
<path fill-rule="evenodd" clip-rule="evenodd" d="M134.387 315.304C136.752 317.432 143.083 317.888 145.219 316.064C147.737 277.993 146.211 266.139 146.135 237.187C142.931 237.491 136.065 237.947 129.2 237.795C131.183 256.564 135.226 270.166 134.387 315.304Z" fill="#715198"/>
<path fill-rule="evenodd" clip-rule="evenodd" d="M106.696 314.392C109.442 315.912 113.866 318.04 117.833 317.28C128.208 279.589 128.742 269.331 134.31 240.303C130.496 239.923 124.394 237.871 116.46 236.275C115.163 255.5 117.07 269.179 106.696 314.392Z" fill="#67498B"/>
<path fill-rule="evenodd" clip-rule="evenodd" d="M142.626 189.086C155.136 194.861 155.289 198.356 158.95 217.202C159.561 220.393 160.4 225.105 155.975 226.168C150.33 227.536 148.194 219.633 147.126 212.262C147.813 221.913 151.627 235.363 146.058 239.467C140.49 243.57 119.359 241.518 112.57 235.439C108.145 219.405 107.077 222.217 111.654 200.788C112.951 194.633 118.367 188.174 127.216 187.718C128.361 198.584 138.201 199.192 142.626 189.086Z" fill="#5983B1"/>
<path fill-rule="evenodd" clip-rule="evenodd" d="M115.774 245.926C115.392 246.989 115.468 249.041 116.842 251.093C119.206 250.789 121.724 249.725 123.554 248.281C123.173 246.762 122.563 245.698 121.342 244.71C120.351 244.102 120.656 241.898 119.893 241.442C118.977 240.91 116.536 241.746 115.545 242.506C114.934 242.886 116.613 244.71 115.774 245.926Z" fill="url(#paint5_linear_1023_2)"/>
<path fill-rule="evenodd" clip-rule="evenodd" d="M121.876 242.962C119.74 244.178 117.299 244.482 114.706 244.178C113.104 239.923 109.9 227.08 108.984 222.065C106.925 210.363 116.079 209.983 118.062 220.165C119.054 225.181 120.885 237.111 121.876 242.962Z" fill="#5983B1"/>
<path fill-rule="evenodd" clip-rule="evenodd" d="M121.342 200.864C121.571 207.019 120.274 214.77 119.511 217.05C117.681 222.521 121.419 228.296 120.732 237.035C119.206 225.104 115.926 222.901 118.138 216.442C118.825 214.162 120.885 206.943 121.342 200.864Z" fill="#456F9B"/>
<path fill-rule="evenodd" clip-rule="evenodd" d="M184.887 238.175C183.819 238.099 183.056 237.795 182.293 237.491C180.157 236.655 176.877 232.248 180.92 232.172C181.759 232.172 182.522 232.248 183.895 232.4C183.437 232.096 183.437 231.184 184.2 230.956C184.81 230.804 186.565 230.88 187.48 231.032L184.887 238.175Z" fill="url(#paint6_linear_1023_2)"/>
<path fill-rule="evenodd" clip-rule="evenodd" d="M224.249 202.84L225.622 209.907L233.174 212.338L241.108 208.463L239.964 201.928L236.302 201.32L235.997 197.292L227.834 197.824L228.063 202.004L224.249 202.84Z" fill="url(#paint7_linear_1023_2)"/>
<path fill-rule="evenodd" clip-rule="evenodd" d="M232.564 200.788C237.675 200.408 241.794 196.153 242.862 191.061C245.379 190.302 246.371 186.654 243.167 186.426C243.015 180.195 244.464 174.8 230.733 176.395C216.773 177.991 219.214 182.171 219.977 188.326H219.824C216.926 188.554 218.299 192.505 220.969 193.037C222.876 197.672 227.453 201.168 232.564 200.788Z" fill="url(#paint8_linear_1023_2)"/>
<path fill-rule="evenodd" clip-rule="evenodd" d="M243.015 187.11C243.549 185.894 242.633 185.058 244.846 182.171C248.355 177.535 246.753 177.231 245.074 172.748C242.252 165.225 236.302 168.34 235.081 168.948C232.182 170.468 231.954 164.313 225.546 166.441C219.367 168.492 215.858 173.128 214.866 176.699C213.569 181.259 219.596 183.462 219.672 185.818C219.672 186.274 219.748 188.782 219.977 189.01C220.359 189.314 221.732 185.97 224.783 184.07C226.69 182.854 235.539 187.11 238.285 183.766C242.023 179.207 241.565 182.019 242.252 184.982C242.405 185.514 242.862 187.414 243.015 187.11Z" fill="#37254D"/>
<path fill-rule="evenodd" clip-rule="evenodd" d="M255.525 329.97L253.694 324.879L248.126 326.095L249.728 330.806C249.88 330.806 254.991 329.97 255.525 329.97Z" fill="url(#paint9_linear_1023_2)"/>
<path fill-rule="evenodd" clip-rule="evenodd" d="M226.461 330.122L225.698 325.107L220.282 325.335L220.969 329.97C221.121 329.97 226.003 330.046 226.461 330.122Z" fill="url(#paint10_linear_1023_2)"/>
<path fill-rule="evenodd" clip-rule="evenodd" d="M255.144 328.602C252.321 330.198 249.499 328.906 248.278 329.514C245.456 332.326 244.617 333.01 241.184 333.694C237.675 334.378 235.768 337.569 240.04 337.189C248.202 336.505 254.762 336.125 256.975 335.365C258.119 334.833 259.034 329.666 255.144 328.602Z" fill="#37254D"/>
<path fill-rule="evenodd" clip-rule="evenodd" d="M226.385 328.83C223.486 329.818 221.121 328.146 219.901 328.526C216.849 330.654 215.858 331.186 212.577 331.186C209.221 331.262 206.856 333.921 210.899 334.301C218.604 334.985 224.706 335.745 226.919 335.441C228.063 335.061 229.817 330.426 226.385 328.83Z" fill="#37254D"/>
<path fill-rule="evenodd" clip-rule="evenodd" d="M228.902 325.183C226.461 327.159 220.13 327.463 218.07 325.563C216.697 288.632 215.629 277.234 216.544 249.193C219.748 249.573 228.521 250.029 235.386 250.105C232.869 268.267 229.36 281.489 228.902 325.183Z" fill="#715198"/>
<path fill-rule="evenodd" clip-rule="evenodd" d="M256.593 325.107C253.771 326.475 249.346 328.45 245.38 327.539C236.149 290.76 233.937 280.653 229.284 252.385C233.098 252.157 241.184 250.485 249.117 249.193C249.88 267.963 247.592 281.033 256.593 325.107Z" fill="#67498B"/>
<path fill-rule="evenodd" clip-rule="evenodd" d="M224.325 202.84C214.561 208.463 212.272 211.73 211.586 220.697C210.823 230.196 212.272 244.026 213.569 252.689C214.103 256.26 215.629 260.288 216.316 260.44C216.468 256.792 216.468 257.324 217.231 257.628C223.257 261.883 248.965 255.728 249.041 248.585C249.041 243.722 246.066 243.342 253.16 240.834C260.255 238.327 258.043 225.56 254.991 215.074C253.237 209.223 248.66 202.688 239.811 202.004C238.361 212.414 228.521 212.718 224.325 202.84Z" fill="#5983B1"/>
<path fill-rule="evenodd" clip-rule="evenodd" d="M217.155 217.354C215.171 225.789 215.247 233.312 215.781 239.163C215.705 235.819 216.773 225.637 217.155 217.354Z" fill="#456F9B"/>
<path fill-rule="evenodd" clip-rule="evenodd" d="M209.984 229.892C211.815 230.196 213.646 230.5 215.476 230.804C217.46 230.5 219.367 230.196 221.35 229.892C221.274 229.132 221.045 228.296 220.511 227.536C217.307 227.536 214.027 227.536 210.823 227.536C210.289 228.296 210.06 229.132 209.984 229.892Z" fill="#D2BEEA"/>
<path fill-rule="evenodd" clip-rule="evenodd" d="M209.984 229.892L215.476 230.804L221.35 229.892C221.35 229.588 221.274 229.284 221.198 229.056C217.536 229.816 213.798 229.816 210.137 229.056C210.06 229.284 209.984 229.588 209.984 229.892Z" fill="#DCCAF1"/>
<path fill-rule="evenodd" clip-rule="evenodd" d="M211.586 246.382C213.417 247.521 217.994 247.521 219.825 246.382L221.503 230.424H209.831C210.442 235.743 211.052 241.062 211.586 246.382Z" fill="#C5B0DF"/>
<path fill-rule="evenodd" clip-rule="evenodd" d="M220.358 241.138L220.969 235.059C217.383 236.047 213.874 236.047 210.289 235.059L210.976 241.138C214.18 241.974 217.231 241.974 220.358 241.138Z" fill="#EDE2F9"/>
<path fill-rule="evenodd" clip-rule="evenodd" d="M215.705 226.852C213.035 226.852 210.823 227.232 210.823 227.612C210.823 228.068 213.035 228.372 215.705 228.372C218.375 228.372 220.587 227.992 220.587 227.612C220.511 227.156 218.375 226.852 215.705 226.852Z" fill="#C5B0DF"/>
<path fill-rule="evenodd" clip-rule="evenodd" d="M213.569 227.308C213.112 227.308 212.73 227.46 212.73 227.612C212.73 227.764 213.112 227.916 213.569 227.916C214.027 227.916 214.408 227.764 214.408 227.612C214.408 227.46 214.027 227.308 213.569 227.308Z" fill="#B39AD3"/>
<path fill-rule="evenodd" clip-rule="evenodd" d="M221.274 229.36C217.536 230.12 213.798 230.12 210.06 229.36C209.374 229.208 208.535 231.108 209.908 231.336C213.874 232.02 217.46 232.02 221.426 231.336C222.8 231.108 222.037 229.208 221.274 229.36Z" fill="#EDE2F9"/>
<path fill-rule="evenodd" clip-rule="evenodd" d="M228.292 241.67C227.3 241.746 226.614 241.67 225.622 241.974C223.639 243.038 222.571 243.722 219.367 243.95C218.375 244.026 216.621 243.95 215.705 243.95C211.052 243.874 213.722 237.567 214.714 237.719C216.01 237.415 218.451 237.415 219.977 236.427C220.664 235.971 220.969 234.755 221.121 234.147C222.8 234.147 222.342 236.503 223.105 237.035C224.478 238.023 226.461 237.643 227.605 237.719C229.055 237.643 229.513 241.594 228.292 241.67Z" fill="url(#paint11_linear_1023_2)"/>
<path fill-rule="evenodd" clip-rule="evenodd" d="M225.546 235.819C225.012 238.175 225.546 240.606 226.614 243.038C231.267 243.342 241.947 243.722 247.134 243.114C260.026 241.67 259.263 231.64 248.736 232.78C243.701 233.311 231.496 234.983 225.546 235.819Z" fill="#5983B1"/>
<path fill-rule="evenodd" clip-rule="evenodd" d="M245.303 214.846C244.845 219.101 246.295 227.232 246.981 228.828C248.66 232.703 244.464 233.615 230.733 236.047C239.658 234.603 250.872 234.375 248.888 229.816C248.202 228.22 245.608 219.101 245.303 214.846Z" fill="#456F9B"/>
<path d="M168.481 138.246C183.659 148.215 204.079 143.94 214.091 128.698C224.102 113.456 219.915 93.0191 204.738 83.0502C189.56 73.0814 169.14 77.356 159.128 92.5979C149.116 107.84 153.304 128.277 168.481 138.246Z" fill="#5984B2"/>
<path d="M202.009 105.545C205.183 100.822 204.968 98.0661 203.618 96.4588C200.88 93.1993 194.191 94.2271 190.584 95.1904C183.025 93.4037 175.248 97.3166 172.212 104.479C176.933 100.762 179.901 99.435 181.78 99.0488C178.018 101.419 173.151 105.474 169.947 109.525C167.658 112.419 164.356 118.571 165.879 122.096C167.733 126.385 175.929 124.062 177.451 123.588C185.08 129.204 196.046 126.951 200.786 118.616L192.527 117.15C187.949 122.475 178.418 118.494 179.655 111.524L202.136 115.515C203.154 112.265 203.118 108.771 202.009 105.545ZM201.734 104.808C200.457 101.614 198.167 98.8811 195.19 97.0736C202.016 95.1537 205.905 97.9125 201.734 104.808ZM168.107 121.253C167.682 119.746 168.319 117.148 171.142 113.253C171.743 117 173.668 120.393 176.501 122.832C174.118 123.642 169.031 124.53 168.107 121.253ZM180.383 107.22C181.148 103.645 184.79 101.321 188.636 102.004C192.483 102.687 195.102 106.123 194.589 109.742L180.383 107.22Z" fill="white"/>
<path fill-rule="evenodd" clip-rule="evenodd" d="M321.129 187.953C308.497 187.953 298.257 177.67 298.257 164.985C298.257 152.299 308.497 142.015 321.129 142.015C333.76 142.015 344 152.299 344 164.985C344 177.67 333.76 187.953 321.129 187.953Z" fill="#51B18B"/>
<path fill-rule="evenodd" clip-rule="evenodd" d="M322.754 163.3C322.754 159.723 319.06 160.033 317.844 163.647C315.509 170.592 322.754 170.57 322.754 163.3ZM333.031 170.789C330.832 175.286 326.45 176.818 321.739 176.759C303.793 176.533 306.339 153.21 321.817 153.21C329.226 153.21 332.338 158.145 332.199 162.91C331.976 170.577 324.024 173.48 321.797 170.399C316.917 173.65 312.661 168.51 314.236 163.087C315.708 158.018 321.076 156.476 323.543 159.35L323.758 158.386C324.989 158.386 326.22 158.386 327.451 158.386L325.422 168.266C325.314 169.467 329.542 166.904 329.542 162.556C329.542 158.262 325.965 156.016 322.074 155.895C309.813 155.514 307.561 173.987 321.854 173.987C324.922 173.987 327.939 173.322 329.922 170.789C330.959 170.789 331.995 170.789 333.031 170.789Z" fill="white"/>
<path d="M325.398 279.734C326.595 275.973 325.893 274.2 322.874 272.107C315.09 267.995 305.802 263.565 297.576 260.43C294.024 259.45 292.192 260.038 290.005 263.336C287.632 266.866 284.307 273.872 283.022 277.911C281.731 281.968 282.683 283.582 285.906 285.707C292.383 289.438 303.772 294.665 310.785 297.339C314.339 298.316 316.171 297.73 318.357 294.431C320.763 290.799 324.081 283.874 325.398 279.734ZM297.055 281.476L301.751 271.676L309.018 281.069L297.055 281.476Z" fill="#DB662D"/>
<path d="M93.1792 173.239C100.216 164.738 98.8827 152.211 90.2013 145.261C81.5199 138.311 68.7779 139.569 61.7411 148.07C54.7044 156.572 56.0376 169.098 64.719 176.048C73.4004 182.998 86.1425 181.741 93.1792 173.239Z" fill="#8B6CB0"/>
<path fill-rule="evenodd" clip-rule="evenodd" d="M85.2454 166.888C84.8465 167.37 84.2804 167.649 83.6897 167.708C83.0919 167.766 82.4787 167.603 81.9875 167.21C81.492 166.813 81.2056 166.256 81.1439 165.675C81.0824 165.098 81.245 164.493 81.6466 164.007C82.0462 163.525 82.6135 163.248 83.2022 163.188C83.7978 163.131 84.4116 163.291 84.9044 163.686C85.3999 164.083 85.6868 164.643 85.7483 165.221C85.81 165.801 85.6469 166.403 85.2454 166.888ZM68.5859 165.785C68.6907 166.515 68.1722 167.19 67.4295 167.29C66.6868 167.39 65.9978 166.878 65.893 166.147C65.621 164.253 65.8218 162.182 66.4894 160.128C67.1235 158.176 68.1771 156.231 69.6407 154.463C71.124 152.671 72.8788 151.244 74.7269 150.233C76.6737 149.168 78.7284 148.565 80.6932 148.472C81.4429 148.437 82.0838 149.007 82.1221 149.744C82.1603 150.481 81.5828 151.108 80.8333 151.143C79.2761 151.217 77.6311 151.703 76.057 152.564C74.5149 153.409 73.0331 154.62 71.759 156.159C70.507 157.672 69.6105 159.316 69.0804 160.95C68.5377 162.621 68.3704 164.285 68.5859 165.785ZM73.8293 165.62C73.9552 166.348 73.4548 167.038 72.7141 167.158C71.9737 167.279 71.2702 166.784 71.1445 166.056C70.9068 164.678 71.0133 163.176 71.4638 161.694C71.8891 160.291 72.6209 158.903 73.6537 157.655C74.704 156.386 75.9577 155.39 77.2878 154.694L77.3651 154.656C78.7447 153.949 80.2185 153.563 81.6426 153.534C82.3904 153.52 83.0133 154.105 83.031 154.84C83.0484 155.575 82.4559 156.184 81.7083 156.198C80.7085 156.218 79.6509 156.501 78.6356 157.02L78.583 157.049C77.565 157.583 76.5949 158.357 75.7721 159.351C74.9593 160.333 74.3898 161.404 74.0663 162.47C73.7384 163.549 73.6596 164.634 73.8293 165.62ZM79.0549 165.403C79.2321 166.12 78.7825 166.841 78.0541 167.012C77.3254 167.183 76.5895 166.739 76.4124 166.022C76.1988 165.148 76.2013 164.209 76.4267 163.299C76.6421 162.435 77.0537 161.59 77.6683 160.847C78.2929 160.093 79.0637 159.518 79.8992 159.135C80.7706 158.733 81.7181 158.548 82.6473 158.59C83.396 158.625 83.9791 159.251 83.9468 159.987C83.9143 160.722 83.28 161.293 82.5311 161.258C82.0443 161.236 81.5348 161.338 81.0588 161.557C80.5906 161.771 80.1511 162.103 79.7866 162.543C79.427 162.977 79.1892 163.461 79.0678 163.946C78.9458 164.439 78.9426 164.942 79.0549 165.403Z" fill="white"/>
<path d="M67.5061 424.537C65.3105 424.768 63.2834 424.508 61.4248 423.758C59.5859 423.006 58.0753 421.858 56.8931 420.313C55.7306 418.766 55.0407 416.958 54.8234 414.89C54.606 412.821 54.9051 410.909 55.7206 409.155C56.5559 407.398 57.7948 405.961 59.4372 404.843C61.0994 403.723 63.0283 403.048 65.2238 402.817C67.4194 402.587 69.4366 402.847 71.2755 403.599C73.1342 404.349 74.6447 405.498 75.8072 407.044C76.9894 408.589 77.6893 410.396 77.9066 412.465C78.124 414.533 77.815 416.446 76.9797 418.203C76.1642 419.958 74.9253 421.395 73.2631 422.515C71.6207 423.632 69.7017 424.306 67.5061 424.537ZM66.992 419.644C68.0403 419.534 68.9636 419.186 69.7619 418.599C70.5602 418.012 71.1596 417.246 71.56 416.299C71.9584 415.332 72.0959 414.262 71.9726 413.088C71.8493 411.915 71.4934 410.906 70.9048 410.063C70.3142 409.2 69.5675 408.565 68.6647 408.157C67.7619 407.749 66.7863 407.6 65.738 407.71C64.6896 407.82 63.7663 408.169 62.968 408.755C62.1697 409.342 61.5714 410.119 61.1731 411.086C60.7726 412.033 60.634 413.093 60.7574 414.266C60.8807 415.44 61.2376 416.458 61.8283 417.321C62.4168 418.164 63.1625 418.79 64.0653 419.198C64.9681 419.605 65.9436 419.754 66.992 419.644ZM94.8661 409.446L89.7036 409.989L90.9293 421.654L85.3217 422.243L84.0959 410.578L78.9037 411.123L78.4303 406.618L94.3928 404.941L94.8661 409.446ZM106.666 403.38C108.13 403.227 109.492 403.435 110.752 404.007C112.029 404.556 113.081 405.431 113.907 406.631C114.751 407.81 115.261 409.234 115.436 410.905C115.612 412.576 115.41 414.085 114.832 415.433C114.271 416.759 113.424 417.833 112.291 418.656C111.175 419.457 109.886 419.934 108.422 420.088C106.543 420.285 104.99 419.875 103.763 418.858L104.522 426.078L98.8843 426.67L96.577 404.712L101.947 404.148L102.117 405.759C103.033 404.395 104.55 403.603 106.666 403.38ZM106.762 415.707C107.751 415.604 108.526 415.18 109.088 414.437C109.648 413.675 109.865 412.697 109.74 411.503C109.614 410.31 109.2 409.408 108.495 408.799C107.789 408.169 106.942 407.906 105.953 408.01C104.964 408.114 104.189 408.547 103.63 409.31C103.068 410.053 102.849 411.021 102.975 412.214C103.1 413.407 103.516 414.319 104.222 414.949C104.926 415.558 105.773 415.811 106.762 415.707ZM117.294 402.535L122.901 401.946L123.792 410.419L129.637 401.239L134.829 400.693L136.528 416.864L130.891 417.456L129.997 408.953L124.215 418.157L118.993 418.706L117.294 402.535ZM155.925 414.826L155.031 406.323L151.65 413.827L149.247 414.08L144.486 407.31L145.392 415.932L140.318 416.465L138.619 400.295L144.553 399.672L149.921 407.644L153.959 398.683L159.269 398.125L160.998 414.293L155.925 414.826ZM169.632 396.765C172.302 396.485 174.404 396.887 175.938 397.973C177.47 399.039 178.368 400.835 178.634 403.361L179.578 412.341L174.326 412.893L174.106 410.804C173.461 412.461 171.961 413.413 169.607 413.66C168.361 413.791 167.26 413.685 166.304 413.343C165.348 413.001 164.594 412.487 164.042 411.801C163.508 411.093 163.19 410.262 163.09 409.307C162.929 407.776 163.388 406.531 164.468 405.573C165.545 404.595 167.3 403.978 169.733 403.723L172.937 403.386C172.658 401.686 171.431 400.95 169.255 401.179C168.484 401.26 167.716 401.471 166.952 401.813C166.186 402.135 165.549 402.543 165.041 403.039L162.738 399.39C163.565 398.7 164.595 398.129 165.828 397.678C167.078 397.205 168.346 396.9 169.632 396.765ZM170.803 409.915C171.456 409.846 172.013 409.627 172.474 409.256C172.935 408.886 173.242 408.381 173.395 407.742L173.247 406.34L170.814 406.595C169.173 406.768 168.409 407.401 168.524 408.495C168.577 408.992 168.806 409.37 169.213 409.629C169.621 409.888 170.151 409.983 170.803 409.915ZM181.27 395.814L186.877 395.225L187.768 403.698L193.612 394.518L198.805 393.972L200.504 410.143L194.867 410.735L193.973 402.232L188.191 411.436L182.969 411.985L181.27 395.814ZM189.503 393.381C187.604 393.58 186.158 393.33 185.165 392.63C184.189 391.908 183.603 390.713 183.408 389.044L187.058 388.661C187.15 389.355 187.364 389.865 187.698 390.192C188.031 390.499 188.523 390.618 189.176 390.55C189.829 390.481 190.294 390.251 190.573 389.86C190.872 389.466 190.986 388.932 190.915 388.255L194.623 387.866C194.799 389.536 194.465 390.828 193.621 391.742C192.794 392.633 191.422 393.179 189.503 393.381Z" fill="#5F6061"/>
<path d="M114.456 357.779C116.008 357.779 117.36 358.035 118.512 358.547C119.664 359.059 120.552 359.795 121.176 360.755C121.8 361.715 122.112 362.835 122.112 364.115C122.112 365.395 121.8 366.515 121.176 367.475C120.552 368.435 119.664 369.171 118.512 369.683C117.36 370.195 116.008 370.451 114.456 370.451H112.032V374.579H106.368V357.779H114.456ZM114.096 366.083C114.864 366.083 115.44 365.915 115.824 365.579C116.208 365.227 116.4 364.739 116.4 364.115C116.4 363.491 116.208 363.011 115.824 362.675C115.44 362.323 114.864 362.147 114.096 362.147H112.032V366.083H114.096ZM133.012 374.963C131.204 374.963 129.58 374.587 128.14 373.835C126.7 373.083 125.572 372.043 124.756 370.715C123.94 369.371 123.532 367.859 123.532 366.179C123.532 364.499 123.94 362.995 124.756 361.667C125.572 360.323 126.7 359.275 128.14 358.523C129.58 357.771 131.204 357.395 133.012 357.395C134.82 357.395 136.444 357.771 137.884 358.523C139.324 359.275 140.452 360.323 141.268 361.667C142.084 362.995 142.492 364.499 142.492 366.179C142.492 367.859 142.084 369.371 141.268 370.715C140.452 372.043 139.324 373.083 137.884 373.835C136.444 374.587 134.82 374.963 133.012 374.963ZM133.012 370.379C133.716 370.379 134.348 370.211 134.908 369.875C135.484 369.523 135.94 369.035 136.276 368.411C136.612 367.771 136.78 367.027 136.78 366.179C136.78 365.331 136.612 364.595 136.276 363.971C135.94 363.331 135.484 362.843 134.908 362.507C134.348 362.155 133.716 361.979 133.012 361.979C132.308 361.979 131.668 362.155 131.092 362.507C130.532 362.843 130.084 363.331 129.748 363.971C129.412 364.595 129.244 365.331 129.244 366.179C129.244 367.027 129.412 367.771 129.748 368.411C130.084 369.035 130.532 369.523 131.092 369.875C131.668 370.211 132.308 370.379 133.012 370.379ZM161.108 357.779V374.579H156.452L150.068 366.947V374.579H144.548V357.779H149.204L155.588 365.411V357.779H161.108Z" fill="#DC662D"/>
<path d="M171.152 357.779H176.72V374.579H171.152V357.779ZM179.491 361.451H184.891V366.059H188.587V361.451H193.987V374.579H188.587V370.307H184.891V374.579H179.491V361.451ZM208.962 365.675H204.954V374.579H199.554V365.675H195.546V361.451H208.962V365.675ZM223.853 368.003C223.853 368.083 223.829 368.507 223.781 369.275H214.661C214.853 369.771 215.173 370.155 215.621 370.427C216.069 370.683 216.629 370.811 217.301 370.811C217.877 370.811 218.357 370.739 218.741 370.595C219.141 370.451 219.573 370.203 220.037 369.851L222.869 372.707C221.589 374.115 219.677 374.819 217.133 374.819C215.549 374.819 214.157 374.531 212.957 373.955C211.757 373.363 210.829 372.547 210.173 371.507C209.517 370.467 209.189 369.299 209.189 368.003C209.189 366.691 209.509 365.523 210.149 364.499C210.805 363.459 211.693 362.651 212.813 362.075C213.949 361.499 215.221 361.211 216.629 361.211C217.957 361.211 219.165 361.475 220.253 362.003C221.357 362.531 222.229 363.307 222.869 364.331C223.525 365.355 223.853 366.579 223.853 368.003ZM216.677 364.907C216.117 364.907 215.653 365.059 215.285 365.363C214.917 365.667 214.677 366.099 214.565 366.659H218.789C218.677 366.115 218.437 365.691 218.069 365.387C217.701 365.067 217.237 364.907 216.677 364.907ZM234.563 361.211C235.715 361.211 236.771 361.491 237.731 362.051C238.707 362.595 239.475 363.387 240.035 364.427C240.611 365.467 240.899 366.667 240.899 368.027C240.899 369.387 240.611 370.587 240.035 371.627C239.475 372.651 238.707 373.443 237.731 374.003C236.771 374.547 235.715 374.819 234.563 374.819C233.107 374.819 231.995 374.443 231.227 373.691V379.235H225.803V361.451H230.963V362.531C231.747 361.651 232.947 361.211 234.563 361.211ZM233.267 370.595C233.891 370.595 234.403 370.371 234.803 369.923C235.203 369.475 235.403 368.843 235.403 368.027C235.403 367.211 235.203 366.579 234.803 366.131C234.403 365.667 233.891 365.435 233.267 365.435C232.643 365.435 232.131 365.667 231.731 366.131C231.331 366.579 231.131 367.211 231.131 368.027C231.131 368.843 231.331 369.475 231.731 369.923C232.131 370.371 232.643 370.595 233.267 370.595ZM242.655 361.451H248.055V366.059H251.751V361.451H257.151V374.579H251.751V370.307H248.055V374.579H242.655V361.451ZM273.494 368.003C273.494 368.083 273.47 368.507 273.422 369.275H264.302C264.494 369.771 264.814 370.155 265.262 370.427C265.71 370.683 266.27 370.811 266.942 370.811C267.518 370.811 267.998 370.739 268.382 370.595C268.782 370.451 269.214 370.203 269.678 369.851L272.51 372.707C271.23 374.115 269.318 374.819 266.774 374.819C265.19 374.819 263.798 374.531 262.598 373.955C261.398 373.363 260.47 372.547 259.814 371.507C259.158 370.467 258.83 369.299 258.83 368.003C258.83 366.691 259.15 365.523 259.79 364.499C260.446 363.459 261.334 362.651 262.454 362.075C263.59 361.499 264.862 361.211 266.27 361.211C267.598 361.211 268.806 361.475 269.894 362.003C270.998 362.531 271.87 363.307 272.51 364.331C273.166 365.355 273.494 366.579 273.494 368.003ZM266.318 364.907C265.758 364.907 265.294 365.059 264.926 365.363C264.558 365.667 264.318 366.099 264.206 366.659H268.43C268.318 366.115 268.078 365.691 267.71 365.387C267.342 365.067 266.878 364.907 266.318 364.907ZM287.524 365.675H283.516V374.579H278.116V365.675H274.108V361.451H287.524V365.675Z" fill="#5F6061"/>
</g>
</g>
<path fill-rule="evenodd" clip-rule="evenodd" d="M363.893 408V438L62.3446 469.671L70.3446 453.671L60 440L363.893 408Z" fill="#5F6061"/>
<path d="M95.2744 453.77L90.5905 454.262L89.9476 456.517L86.7511 456.853L90.4703 445.201L93.556 444.877L99.6319 455.5L96.3721 455.842L95.2744 453.77ZM94.1125 451.543L92.3138 448.128L91.2642 451.842L94.1125 451.543ZM104.424 451.891L103.411 451.998L103.734 455.069L100.727 455.385L99.8209 446.76L102.828 446.444L103.162 449.627L104.238 449.514L106.008 446.11L109.189 445.776L106.744 450.216L110.285 454.381L106.74 454.753L104.424 451.891ZM120.997 450.81L121.44 455.027L118.655 455.319L118.466 453.521L111.282 454.276L110.375 445.652L113.366 445.337L114.018 451.543L116.803 451.25L116.151 445.045L119.158 444.729L119.81 450.935L120.997 450.81ZM121.641 444.468L124.647 444.152L125.554 452.776L122.547 453.092L121.641 444.468ZM123.044 443.355C122.495 443.413 122.036 443.306 121.666 443.034C121.296 442.761 121.087 442.397 121.039 441.941C120.991 441.485 121.12 441.085 121.425 440.742C121.731 440.399 122.157 440.199 122.706 440.141C123.255 440.084 123.713 440.186 124.082 440.447C124.45 440.698 124.657 441.052 124.705 441.508C124.756 441.985 124.629 442.401 124.324 442.754C124.019 443.097 123.592 443.298 123.044 443.355ZM134.749 443.091L135.655 451.715L132.981 451.996L132.735 449.657L131.374 449.8L130.101 452.299L126.92 452.633L128.53 449.681C127.933 449.486 127.459 449.187 127.108 448.784C126.765 448.37 126.562 447.855 126.497 447.24C126.389 446.211 126.685 445.375 127.386 444.733C128.085 444.081 129.1 443.684 130.429 443.545L134.749 443.091ZM130.743 445.925C129.899 446.014 129.511 446.382 129.579 447.029C129.615 447.368 129.741 447.607 129.958 447.745C130.186 447.882 130.511 447.928 130.933 447.884L132.531 447.716L132.325 445.759L130.743 445.925ZM152.17 447.535L152.611 451.736L149.826 452.028L149.639 450.246L144.243 450.813L144.43 452.595L141.629 452.889L141.188 448.689L141.504 448.655C142.02 448.591 142.349 448.272 142.492 447.699C142.633 447.116 142.672 446.318 142.608 445.306L142.403 442.287L150.331 441.454L150.983 447.66L152.17 447.535ZM145.338 445.244C145.387 446.022 145.394 446.649 145.359 447.124C145.324 447.6 145.205 447.988 145.001 448.288L147.976 447.976L147.577 444.173L145.282 444.414L145.338 445.244ZM161.545 440.276L162.451 448.9L159.444 449.216L158.79 442.994L156.623 443.222L156.698 444.55C156.774 445.678 156.761 446.618 156.658 447.369C156.556 448.12 156.321 448.724 155.953 449.181C155.584 449.627 155.041 449.888 154.323 449.963C153.954 450.002 153.461 449.984 152.846 449.909L152.713 447.43C152.905 447.431 153.033 447.428 153.096 447.422C153.423 447.387 153.66 447.255 153.806 447.025C153.953 446.795 154.039 446.502 154.066 446.145C154.091 445.778 154.083 445.296 154.042 444.7L153.791 441.091L161.545 440.276ZM171.635 439.216L172.542 447.84L169.867 448.121L169.622 445.782L168.261 445.925L166.987 448.424L163.807 448.758L165.416 445.806C164.82 445.611 164.346 445.312 163.994 444.909C163.652 444.495 163.449 443.98 163.384 443.365C163.276 442.336 163.572 441.5 164.273 440.858C164.972 440.205 165.986 439.809 167.315 439.67L171.635 439.216ZM167.629 442.05C166.786 442.138 166.398 442.506 166.466 443.153C166.501 443.493 166.628 443.732 166.845 443.87C167.072 444.007 167.397 444.053 167.819 444.009L169.418 443.841L169.212 441.884L167.629 442.05ZM178.261 438.52L181.268 438.204L182.174 446.828L179.167 447.144L178.261 438.52ZM179.664 437.407C179.115 437.465 178.656 437.357 178.286 437.085C177.916 436.813 177.707 436.449 177.66 435.993C177.612 435.537 177.74 435.137 178.046 434.794C178.351 434.451 178.778 434.251 179.326 434.193C179.875 434.135 180.333 434.237 180.702 434.499C181.07 434.75 181.278 435.103 181.326 435.559C181.376 436.037 181.249 436.452 180.945 436.806C180.639 437.149 180.213 437.349 179.664 437.407ZM188.524 446.306C187.575 446.406 186.705 446.304 185.916 446.001C185.127 445.697 184.486 445.229 183.993 444.594C183.51 443.958 183.223 443.211 183.133 442.352C183.043 441.492 183.168 440.707 183.509 439.995C183.86 439.272 184.39 438.686 185.1 438.236C185.809 437.775 186.638 437.495 187.588 437.395C188.558 437.293 189.419 437.417 190.171 437.767C190.921 438.107 191.483 438.632 191.856 439.344L189.656 440.782C189.184 440.048 188.573 439.721 187.824 439.8C187.286 439.856 186.857 440.083 186.536 440.482C186.226 440.879 186.104 441.396 186.171 442.032C186.239 442.68 186.467 443.17 186.854 443.505C187.251 443.828 187.718 443.961 188.256 443.905C189.005 443.826 189.534 443.379 189.843 442.564L192.294 443.513C192.077 444.286 191.637 444.922 190.975 445.421C190.312 445.909 189.495 446.204 188.524 446.306ZM192.88 436.984L195.87 436.67L196.206 439.868L199.292 439.544L198.956 436.346L201.963 436.03L202.869 444.654L199.862 444.97L199.545 441.947L196.459 442.271L196.777 445.294L193.786 445.608L192.88 436.984ZM213.137 434.856L210.377 444.219C210.056 445.325 209.606 446.123 209.029 446.613C208.452 447.113 207.715 447.411 206.819 447.505C206.365 447.553 205.898 447.527 205.418 447.427C204.95 447.337 204.562 447.19 204.252 446.986L205.074 444.76C205.26 444.902 205.473 445.003 205.714 445.063C205.967 445.133 206.214 445.155 206.457 445.13C206.742 445.1 206.968 445.017 207.135 444.882C207.312 444.745 207.451 444.543 207.551 444.275L202.962 435.925L206.048 435.601L208.706 440.646L210.273 435.157L213.137 434.856ZM222.516 433.726C223.412 433.632 224.234 433.738 224.981 434.046C225.737 434.342 226.352 434.808 226.824 435.445C227.295 436.071 227.576 436.814 227.666 437.673C227.756 438.532 227.637 439.323 227.307 440.044C226.978 440.765 226.474 441.354 225.797 441.811C225.13 442.267 224.349 442.542 223.452 442.637C222.323 442.755 221.316 442.561 220.431 442.053C219.556 441.544 218.941 440.815 218.585 439.866L217.683 439.961L218.009 443.064L215.018 443.378L214.112 434.753L217.103 434.439L217.416 437.415L218.333 437.318C218.519 436.344 218.983 435.534 219.726 434.888C220.467 434.231 221.397 433.843 222.516 433.726ZM223.199 440.234C223.695 440.182 224.087 439.953 224.375 439.547C224.663 439.142 224.774 438.621 224.707 437.984C224.64 437.348 224.424 436.866 224.059 436.54C223.694 436.214 223.264 436.076 222.768 436.129C222.272 436.181 221.88 436.404 221.591 436.799C221.302 437.194 221.19 437.71 221.257 438.346C221.324 438.983 221.541 439.47 221.907 439.807C222.273 440.143 222.704 440.286 223.199 440.234ZM236.851 432.365L237.757 440.989L234.766 441.303L234.444 438.232C233.845 438.627 233.135 438.868 232.312 438.955C231.109 439.081 230.179 438.905 229.521 438.427C228.862 437.95 228.472 437.127 228.349 435.96L228.069 433.287L231.075 432.971L231.334 435.438C231.384 435.915 231.526 436.249 231.759 436.439C232.002 436.617 232.34 436.683 232.772 436.638C233.321 436.58 233.804 436.412 234.223 436.132L233.86 432.679L236.851 432.365ZM238.884 432.151L241.874 431.837L242.349 436.356L245.466 431.459L248.236 431.169L249.142 439.793L246.135 440.109L245.659 435.574L242.575 440.483L239.79 440.775L238.884 432.151ZM256.591 439.01L254.819 436.912L253.41 439.344L250.151 439.687L252.957 435.032L249.339 431.053L252.726 430.697L254.474 432.717L255.827 430.371L259.008 430.037L256.284 434.57L260.025 438.65L256.591 439.01ZM268.219 428.924C269.643 428.775 270.764 428.989 271.582 429.569C272.399 430.137 272.878 431.095 273.02 432.442L273.523 437.231L270.722 437.526L270.605 436.412C270.261 437.295 269.461 437.803 268.206 437.935C267.541 438.005 266.954 437.948 266.444 437.766C265.934 437.584 265.532 437.309 265.238 436.944C264.953 436.566 264.783 436.123 264.73 435.613C264.644 434.797 264.889 434.133 265.465 433.622C266.039 433.1 266.975 432.771 268.273 432.635L269.982 432.455C269.833 431.549 269.179 431.156 268.018 431.278C267.607 431.321 267.197 431.434 266.79 431.616C266.381 431.788 266.041 432.006 265.771 432.27L264.542 430.324C264.983 429.956 265.533 429.652 266.19 429.411C266.857 429.159 267.533 428.996 268.219 428.924ZM268.844 435.937C269.192 435.901 269.489 435.784 269.735 435.586C269.981 435.389 270.144 435.12 270.226 434.779L270.147 434.031L268.85 434.167C267.974 434.259 267.567 434.597 267.628 435.18C267.656 435.445 267.779 435.647 267.996 435.785C268.213 435.923 268.496 435.974 268.844 435.937ZM279.807 428.624C280.641 428.536 281.38 428.625 282.027 428.89C282.672 429.143 283.185 429.556 283.565 430.128C283.954 430.687 284.191 431.365 284.274 432.161C284.36 432.977 284.225 433.721 283.869 434.391C283.522 435.05 282.998 435.593 282.296 436.02C281.604 436.436 280.799 436.692 279.881 436.789C278.373 436.947 277.12 436.602 276.124 435.752C275.129 434.902 274.531 433.533 274.333 431.644C273.961 428.101 275.305 425.869 278.365 424.947L282.443 423.714L283.12 426.201L279.584 427.264C278.684 427.53 278.038 427.877 277.646 428.304C277.263 428.72 277.066 429.287 277.057 430.007C277.751 429.205 278.668 428.744 279.807 428.624ZM279.656 434.496C280.194 434.439 280.598 434.22 280.867 433.838C281.147 433.454 281.259 433.003 281.205 432.483C281.147 431.931 280.943 431.518 280.594 431.244C280.244 430.959 279.806 430.844 279.278 430.9C278.74 430.956 278.324 431.161 278.031 431.513C277.748 431.865 277.635 432.316 277.693 432.868C277.749 433.398 277.958 433.816 278.321 434.121C278.684 434.426 279.129 434.551 279.656 434.496ZM290.312 435.612C289.394 435.709 288.546 435.605 287.767 435.301C286.989 434.996 286.353 434.527 285.86 433.892C285.377 433.257 285.09 432.509 285 431.65C284.911 430.801 285.036 430.016 285.376 429.294C285.727 428.57 286.247 427.985 286.936 427.537C287.634 427.078 288.447 426.799 289.376 426.702C290.304 426.604 291.157 426.708 291.936 427.012C292.714 427.306 293.344 427.77 293.826 428.406C294.308 429.031 294.594 429.773 294.684 430.633C294.775 431.492 294.65 432.282 294.31 433.005C293.97 433.727 293.45 434.318 292.752 434.777C292.054 435.236 291.24 435.515 290.312 435.612ZM290.06 433.21C290.587 433.154 291.001 432.929 291.3 432.532C291.599 432.126 291.714 431.599 291.646 430.952C291.579 430.315 291.358 429.834 290.983 429.509C290.607 429.184 290.156 429.049 289.628 429.104C289.101 429.16 288.687 429.386 288.387 429.782C288.088 430.178 287.971 430.694 288.038 431.331C288.106 431.978 288.329 432.469 288.705 432.805C289.081 433.13 289.532 433.265 290.06 433.21ZM295.643 426.188L298.634 425.874L298.97 429.072L302.055 428.748L301.719 425.55L304.726 425.234L305.632 433.858L302.626 434.174L302.308 431.151L299.222 431.475L299.54 434.498L296.549 434.812L295.643 426.188ZM315.896 428.436C315.898 428.458 315.909 428.708 315.927 429.189L309.692 429.844C309.866 430.276 310.145 430.596 310.529 430.802C310.923 430.997 311.394 431.065 311.942 431.007C312.354 430.964 312.701 430.869 312.984 430.721C313.278 430.572 313.564 430.349 313.842 430.052L315.598 431.54C314.863 432.561 313.693 433.156 312.09 433.325C311.088 433.43 310.187 433.331 309.387 433.029C308.587 432.727 307.941 432.259 307.448 431.624C306.965 430.989 306.678 430.241 306.588 429.382C306.499 428.533 306.62 427.754 306.95 427.043C307.29 426.321 307.799 425.732 308.476 425.274C309.153 424.817 309.94 424.541 310.837 424.447C311.692 424.357 312.486 424.456 313.22 424.744C313.953 425.021 314.556 425.478 315.028 426.114C315.51 426.739 315.799 427.513 315.896 428.436ZM311.079 426.594C310.614 426.642 310.238 426.816 309.949 427.114C309.671 427.412 309.514 427.793 309.478 428.258L312.991 427.889C312.858 427.442 312.62 427.102 312.276 426.87C311.942 426.637 311.543 426.545 311.079 426.594ZM317.03 423.941L320.021 423.627L320.357 426.825L323.443 426.501L323.106 423.303L326.113 422.987L327.019 431.611L324.013 431.927L323.695 428.904L320.609 429.228L320.927 432.251L317.936 432.566L317.03 423.941ZM336.052 424.372L333.299 424.661L333.953 430.883L330.962 431.197L330.308 424.976L327.539 425.267L327.286 422.864L335.8 421.969L336.052 424.372ZM336.965 421.847L339.971 421.531L340.877 430.156L337.871 430.471L336.965 421.847ZM338.368 420.734C337.819 420.792 337.36 420.685 336.99 420.413C336.62 420.14 336.411 419.776 336.363 419.32C336.315 418.864 336.444 418.464 336.749 418.121C337.054 417.778 337.481 417.578 338.03 417.52C338.578 417.463 339.037 417.565 339.406 417.826C339.774 418.077 339.981 418.431 340.029 418.887C340.079 419.364 339.952 419.78 339.648 420.133C339.343 420.476 338.916 420.677 338.368 420.734ZM349.349 424.697C350.364 424.922 350.926 425.55 351.034 426.579C351.116 427.353 350.879 427.995 350.325 428.503C349.769 429.002 348.906 429.312 347.735 429.435L342.909 429.942L342.002 421.318L346.607 420.834C347.725 420.717 348.611 420.822 349.264 421.15C349.928 421.477 350.297 421.996 350.372 422.707C350.415 423.121 350.348 423.498 350.171 423.838C349.993 424.179 349.719 424.465 349.349 424.697ZM345.057 424.504L346.703 424.331C347.399 424.258 347.72 423.962 347.665 423.442C347.613 422.943 347.238 422.73 346.542 422.804L344.896 422.976L345.057 424.504ZM347.26 427.506C347.988 427.43 348.324 427.126 348.268 426.596C348.213 426.065 347.831 425.837 347.125 425.912L345.226 426.111L345.393 427.702L347.26 427.506Z" fill="white"/>
<path fill-rule="evenodd" clip-rule="evenodd" d="M29 122.999L29 85L121.5 85L121.5 122.999L29 122.999ZM131.5 123L121.5 123L121.5 103.999L131.5 123ZM121.5 103.999L121.5 85.0004L131.5 85.0004L121.5 103.999Z" fill="#8B6CB0"/>
<path d="M56.1159 108.084L49.8159 108.084L48.5739 111L46.1619 111L51.8319 98.4L54.1359 98.4L59.8239 111L57.3759 111L56.1159 108.084ZM55.3419 106.248L52.9659 100.74L50.6079 106.248L55.3419 106.248ZM65.5001 107.148L63.7541 107.148L63.7541 111L61.5041 111L61.5041 101.388L63.7541 101.388L63.7541 105.276L65.5541 105.276L68.3981 101.388L70.8101 101.388L67.3181 106.014L71.0441 111L68.3981 111L65.5001 107.148ZM83.179 109.092L83.179 113.214L81.073 113.214L81.073 111L72.631 111L72.631 101.388L74.881 101.388L74.881 109.092L79.471 109.092L79.471 101.388L81.721 101.388L81.721 109.092L83.179 109.092ZM85.1818 101.388L87.4318 101.388L87.4318 111L85.1818 111L85.1818 101.388ZM86.3158 99.804C85.9078 99.804 85.5658 99.678 85.2898 99.426C85.0138 99.162 84.8758 98.838 84.8758 98.454C84.8758 98.07 85.0138 97.752 85.2898 97.5C85.5658 97.236 85.9078 97.104 86.3158 97.104C86.7238 97.104 87.0658 97.23 87.3418 97.482C87.6178 97.722 87.7558 98.028 87.7558 98.4C87.7558 98.796 87.6178 99.132 87.3418 99.408C87.0778 99.672 86.7358 99.804 86.3158 99.804ZM98.5908 101.388L98.5908 111L96.5748 111L96.5748 108.102L94.0368 108.102L92.0748 111L89.6628 111L91.9308 107.796C91.2348 107.556 90.7008 107.19 90.3288 106.698C89.9688 106.194 89.7888 105.576 89.7888 104.844C89.7888 103.74 90.1788 102.888 90.9588 102.288C91.7388 101.688 92.8128 101.388 94.1808 101.388L98.5908 101.388ZM94.2528 103.278C92.8008 103.278 92.0748 103.824 92.0748 104.916C92.0748 105.996 92.7768 106.536 94.1808 106.536L96.5748 106.536L96.5748 103.278L94.2528 103.278ZM101.293 98.4L103.957 98.4L103.507 106.824L101.725 106.824L101.293 98.4ZM102.625 111.126C102.205 111.126 101.857 110.994 101.581 110.73C101.305 110.454 101.167 110.118 101.167 109.722C101.167 109.326 101.305 108.996 101.581 108.732C101.857 108.468 102.205 108.336 102.625 108.336C103.033 108.336 103.369 108.468 103.633 108.732C103.909 108.996 104.047 109.326 104.047 109.722C104.047 110.118 103.909 110.454 103.633 110.73C103.369 110.994 103.033 111.126 102.625 111.126Z" fill="white"/>
<defs>
<filter id="filter0_d_1023_2" x="0" y="0" width="393" height="713" filterUnits="userSpaceOnUse" color-interpolation-filters="sRGB">
<feFlood flood-opacity="0" result="BackgroundImageFix"/>
<feColorMatrix in="SourceAlpha" type="matrix" values="0 0 0 0 0 0 0 0 0 0 0 0 0 0 0 0 0 0 127 0" result="hardAlpha"/>
<feOffset dy="4"/>
<feGaussianBlur stdDeviation="14.5"/>
<feColorMatrix type="matrix" values="0 0 0 0 0.901961 0 0 0 0 0.890196 0 0 0 0 0.890196 0 0 0 1 0"/>
<feBlend mode="normal" in2="BackgroundImageFix" result="effect1_dropShadow_1023_2"/>
<feBlend mode="normal" in="SourceGraphic" in2="effect1_dropShadow_1023_2" result="shape"/>
</filter>
<filter id="filter1_d_1023_2" x="41" y="552" width="310" height="100" filterUnits="userSpaceOnUse" color-interpolation-filters="sRGB">
<feFlood flood-opacity="0" result="BackgroundImageFix"/>
<feColorMatrix in="SourceAlpha" type="matrix" values="0 0 0 0 0 0 0 0 0 0 0 0 0 0 0 0 0 0 127 0" result="hardAlpha"/>
<feOffset dy="4"/>
<feGaussianBlur stdDeviation="10"/>
<feColorMatrix type="matrix" values="0 0 0 0 0.862745 0 0 0 0 0.4 0 0 0 0 0.176471 0 0 0 0.5 0"/>
<feBlend mode="normal" in2="BackgroundImageFix" result="effect1_dropShadow_1023_2"/>
<feBlend mode="normal" in="SourceGraphic" in2="effect1_dropShadow_1023_2" result="shape"/>
</filter>
<linearGradient id="paint0_linear_1023_2" x1="133.641" y1="197.171" x2="134.661" y2="187.079" gradientUnits="userSpaceOnUse">
<stop stop-color="#F58A76"/>
<stop offset="1" stop-color="#F8AA9B"/>
</linearGradient>
<linearGradient id="paint1_linear_1023_2" x1="134.714" y1="184.358" x2="136.426" y2="167.428" gradientUnits="userSpaceOnUse">
<stop stop-color="#F9B2A5"/>
<stop offset="1" stop-color="#FBCDC3"/>
</linearGradient>
<linearGradient id="paint2_linear_1023_2" x1="172.207" y1="230.52" x2="180.728" y2="233.344" gradientUnits="userSpaceOnUse">
<stop stop-color="#F9B2A5"/>
<stop offset="1" stop-color="#FBCDC3"/>
</linearGradient>
<linearGradient id="paint3_linear_1023_2" x1="111.116" y1="318.652" x2="111.645" y2="316.226" gradientUnits="userSpaceOnUse">
<stop stop-color="#F9B2A5"/>
<stop offset="1" stop-color="#FBCDC3"/>
</linearGradient>
<linearGradient id="paint4_linear_1023_2" x1="139.759" y1="319.612" x2="139.857" y2="316.435" gradientUnits="userSpaceOnUse">
<stop stop-color="#F9B2A5"/>
<stop offset="1" stop-color="#FBCDC3"/>
</linearGradient>
<linearGradient id="paint5_linear_1023_2" x1="117.136" y1="241.746" x2="120.288" y2="250.228" gradientUnits="userSpaceOnUse">
<stop stop-color="#F9B2A5"/>
<stop offset="1" stop-color="#FBCDC3"/>
</linearGradient>
<linearGradient id="paint6_linear_1023_2" x1="190.955" y1="235.782" x2="182.853" y2="233.899" gradientUnits="userSpaceOnUse">
<stop stop-color="#F9B2A5"/>
<stop offset="1" stop-color="#FBCDC3"/>
</linearGradient>
<linearGradient id="paint7_linear_1023_2" x1="233.07" y1="211.086" x2="232.384" y2="200.947" gradientUnits="userSpaceOnUse">
<stop stop-color="#F58A76"/>
<stop offset="1" stop-color="#F8AA9B"/>
</linearGradient>
<linearGradient id="paint8_linear_1023_2" x1="232.353" y1="198.764" x2="231.206" y2="181.808" gradientUnits="userSpaceOnUse">
<stop stop-color="#F9B2A5"/>
<stop offset="1" stop-color="#FBCDC3"/>
</linearGradient>
<linearGradient id="paint9_linear_1023_2" x1="252.046" y1="329.187" x2="251.601" y2="326.712" gradientUnits="userSpaceOnUse">
<stop stop-color="#F9B2A5"/>
<stop offset="1" stop-color="#FBCDC3"/>
</linearGradient>
<linearGradient id="paint10_linear_1023_2" x1="223.389" y1="329.165" x2="223.39" y2="325.991" gradientUnits="userSpaceOnUse">
<stop stop-color="#F9B2A5"/>
<stop offset="1" stop-color="#FBCDC3"/>
</linearGradient>
<linearGradient id="paint11_linear_1023_2" x1="224.874" y1="238.193" x2="215.972" y2="239.951" gradientUnits="userSpaceOnUse">
<stop stop-color="#F9B2A5"/>
<stop offset="1" stop-color="#FBCDC3"/>
</linearGradient>
<clipPath id="clip0_1023_2">
<rect x="29" y="25" width="335" height="655" rx="10" fill="white"/>
</clipPath>
</defs>
</svg>
