<svg width="1188" height="489" viewBox="0 0 1188 489" fill="none" xmlns="http://www.w3.org/2000/svg">
<g filter="url(#filter0_d_1322_6)">
<rect x="49" y="25" width="1110" height="431" rx="10" fill="white"/>
<path d="M820 98L316 98L316 25L820 25L793.097 61.5L820 98Z" fill="#56AABF"/>
<path d="M402.45 78V45.8H426.048L426.002 53.022H409.396L411.42 50.998V78H402.45ZM428.313 78V53.068H437.053V78H428.313ZM432.683 50.308C431.088 50.308 429.8 49.8633 428.819 48.974C427.838 48.0847 427.347 46.9807 427.347 45.662C427.347 44.3433 427.838 43.2393 428.819 42.35C429.8 41.4607 431.088 41.016 432.683 41.016C434.278 41.016 435.566 41.4453 436.547 42.304C437.528 43.132 438.019 44.2053 438.019 45.524C438.019 46.904 437.528 48.054 436.547 48.974C435.596 49.8633 434.308 50.308 432.683 50.308ZM442.958 78V53.068H463.842V60.014H449.766L451.652 58.128V78H442.958ZM482.026 78V73.354L481.428 72.204V63.648C481.428 62.268 480.999 61.21 480.14 60.474C479.312 59.7073 477.978 59.324 476.138 59.324C474.942 59.324 473.731 59.5233 472.504 59.922C471.278 60.29 470.235 60.8113 469.376 61.486L466.432 55.552C467.843 54.632 469.53 53.9267 471.492 53.436C473.486 52.9147 475.464 52.654 477.426 52.654C481.474 52.654 484.602 53.5893 486.81 55.46C489.049 57.3 490.168 60.198 490.168 64.154V78H482.026ZM474.666 78.414C472.673 78.414 470.986 78.0767 469.606 77.402C468.226 76.7273 467.168 75.8073 466.432 74.642C465.727 73.4767 465.374 72.1733 465.374 70.732C465.374 69.1987 465.758 67.88 466.524 66.776C467.322 65.6413 468.533 64.7827 470.158 64.2C471.784 63.5867 473.884 63.28 476.46 63.28H482.348V67.834H477.656C476.246 67.834 475.249 68.064 474.666 68.524C474.114 68.984 473.838 69.5973 473.838 70.364C473.838 71.1307 474.13 71.744 474.712 72.204C475.295 72.664 476.092 72.894 477.104 72.894C478.055 72.894 478.914 72.664 479.68 72.204C480.478 71.7133 481.06 70.9773 481.428 69.996L482.624 73.216C482.164 74.9333 481.26 76.2367 479.91 77.126C478.592 77.9847 476.844 78.414 474.666 78.414ZM508.398 78.644C506.374 78.644 504.488 78.3527 502.74 77.77C501.023 77.1873 499.52 76.2673 498.232 75.01C496.975 73.7527 495.978 72.112 495.242 70.088C494.537 68.064 494.184 65.6107 494.184 62.728C494.184 60.796 494.353 59.0173 494.69 57.392C495.028 55.7667 495.534 54.2793 496.208 52.93C496.914 51.55 497.803 50.3387 498.876 49.296C499.98 48.2533 501.268 47.3793 502.74 46.674C504.212 45.9687 505.899 45.432 507.8 45.064L519.898 42.764L521.094 50.078L510.606 52.056C509.962 52.1787 509.257 52.332 508.49 52.516C507.754 52.7 507.034 52.976 506.328 53.344C505.623 53.6813 504.964 54.1567 504.35 54.77C503.768 55.3833 503.292 56.196 502.924 57.208C502.587 58.1893 502.418 59.416 502.418 60.888C502.418 61.3173 502.434 61.67 502.464 61.946C502.526 62.1913 502.572 62.4827 502.602 62.82C502.633 63.1267 502.648 63.602 502.648 64.246L500.21 61.992C500.946 60.704 501.82 59.6153 502.832 58.726C503.875 57.8367 505.071 57.1467 506.42 56.656C507.77 56.1653 509.272 55.92 510.928 55.92C513.351 55.92 515.436 56.3953 517.184 57.346C518.932 58.266 520.266 59.554 521.186 61.21C522.137 62.8353 522.612 64.6907 522.612 66.776C522.612 69.2293 521.999 71.3453 520.772 73.124C519.546 74.872 517.859 76.2367 515.712 77.218C513.596 78.1687 511.158 78.644 508.398 78.644ZM508.628 72.02C509.64 72.02 510.514 71.8053 511.25 71.376C512.017 70.9467 512.615 70.3487 513.044 69.582C513.474 68.8153 513.688 67.9567 513.688 67.006C513.688 66.0247 513.474 65.1813 513.044 64.476C512.615 63.7707 512.017 63.2187 511.25 62.82C510.514 62.4213 509.64 62.222 508.628 62.222C507.616 62.222 506.712 62.4213 505.914 62.82C505.148 63.2187 504.55 63.7553 504.12 64.43C503.691 65.1047 503.476 65.9173 503.476 66.868C503.476 67.8187 503.691 68.6927 504.12 69.49C504.55 70.2873 505.148 70.916 505.914 71.376C506.712 71.8053 507.616 72.02 508.628 72.02ZM526.647 78V53.068H535.387V78H526.647ZM531.017 50.308C529.422 50.308 528.134 49.8633 527.153 48.974C526.172 48.0847 525.681 46.9807 525.681 45.662C525.681 44.3433 526.172 43.2393 527.153 42.35C528.134 41.4607 529.422 41.016 531.017 41.016C532.612 41.016 533.9 41.4453 534.881 42.304C535.862 43.132 536.353 44.2053 536.353 45.524C536.353 46.904 535.862 48.054 534.881 48.974C533.93 49.8633 532.642 50.308 531.017 50.308ZM546.858 78V58.082L548.744 60.014H538.808V53.068H563.556V60.014H553.62L555.552 58.082V78H546.858ZM566.942 78V53.068H575.636V62.314H584.606V53.068H593.346V78H584.606V69.26H575.636V78H566.942ZM599.241 78V53.068H607.935V66.132L618.377 53.068H626.427V78H617.687V64.89L607.337 78H599.241ZM632.303 78V53.068H640.997V66.132L651.439 53.068H659.489V78H650.749V64.89L640.399 78H632.303ZM645.275 50.676C642.331 50.676 640.154 50.0627 638.743 48.836C637.363 47.5787 636.658 45.662 636.627 43.086H642.285C642.316 44.098 642.546 44.8953 642.975 45.478C643.435 46.03 644.187 46.306 645.229 46.306C646.272 46.306 647.039 46.03 647.529 45.478C648.02 44.8953 648.265 44.098 648.265 43.086H654.015C654.015 45.662 653.295 47.5787 651.853 48.836C650.443 50.0627 648.25 50.676 645.275 50.676Z" fill="white"/>
<path fill-rule="evenodd" clip-rule="evenodd" d="M312.943 145.335C267.381 125.224 142.962 124.35 166.619 194.301C206.047 310.595 106.162 298.354 94.7712 359.561C78.9997 441.754 279.647 460.116 377.781 405.904C493.438 342.948 424.219 194.301 312.943 145.335Z" fill="#F8F6FB"/>
<path fill-rule="evenodd" clip-rule="evenodd" d="M453.968 345.016C445.54 345.016 438.984 338.46 438.984 330.032C438.984 321.603 445.54 315.048 453.968 315.048C462.397 315.048 468.952 321.603 468.952 330.032C468.952 338.46 462.397 345.016 453.968 345.016ZM449.286 352.508V360H458.651V352.508C461.46 351.571 463.333 350.635 466.143 349.698L471.762 355.317L478.317 348.762L472.698 343.143C473.635 341.27 475.508 338.46 475.508 335.651H483V325.349H475.508C474.571 322.54 473.635 320.667 472.698 317.857L478.317 312.238L471.762 305.683L466.143 311.302C464.27 310.365 461.46 308.492 458.651 308.492V301H449.286V308.492C446.476 309.429 444.603 310.365 441.794 311.302L436.175 305.683L429.619 312.238L435.238 317.857C434.302 319.73 432.429 322.54 432.429 325.349H424V335.651H431.492C432.429 338.46 433.365 340.333 434.302 343.143L428.683 348.762L435.238 355.317L440.857 349.698C443.667 350.635 446.476 351.571 449.286 352.508Z" fill="#EDE2F9"/>
<path fill-rule="evenodd" clip-rule="evenodd" d="M223.914 47L230.924 68.8598L252.829 75.8549L230.924 82.8501L223.914 104.71L216.905 82.8501L195 75.8549L216.905 68.8598L223.914 47Z" fill="#EDE2F9"/>
<path fill-rule="evenodd" clip-rule="evenodd" d="M519.914 219L526.924 240.86L548.829 247.855L526.924 254.85L519.914 276.71L512.905 254.85L491 247.855L512.905 240.86L519.914 219Z" fill="#EDE2F9"/>
<path fill-rule="evenodd" clip-rule="evenodd" d="M180.382 384.933C178.769 383.323 176.349 383.323 174.735 384.933C173.122 386.543 173.122 388.959 174.735 390.569C178.769 394.594 183.609 397.814 189.256 400.229C194.903 402.644 201.356 403.449 207.81 403.449C214.263 403.449 221.523 401.839 227.17 400.229C232.817 397.814 238.464 394.594 242.497 389.764C244.111 388.154 244.111 385.738 242.497 384.128C240.884 382.518 238.464 382.518 236.85 384.128C233.624 387.349 229.59 390.569 224.75 392.179C219.91 393.789 214.263 395.399 208.616 395.399C202.97 395.399 197.323 394.594 192.483 392.179C187.642 390.569 183.609 388.154 180.382 384.933ZM190.063 373.663C191.676 376.078 194.903 377.688 197.323 379.298C200.549 380.908 203.776 380.908 207.81 380.908C211.843 380.908 215.07 380.103 218.297 378.493C221.523 376.883 223.943 375.273 225.557 372.858C227.17 371.248 229.59 371.248 231.204 372.053C232.817 373.663 232.817 376.078 232.01 377.688C229.59 380.908 225.557 383.323 221.523 384.933C217.49 386.543 212.65 387.348 207.81 387.348C202.97 387.348 198.129 386.543 194.903 384.933C190.869 383.323 186.836 380.908 184.416 377.688C182.802 376.078 182.802 373.663 184.416 372.053C186.836 371.248 189.256 371.248 190.063 373.663ZM200.549 361.587C198.936 359.977 196.516 359.172 194.903 360.782C193.289 362.392 192.483 364.808 194.096 366.418C195.709 368.833 198.129 370.443 200.549 371.248C202.97 372.053 205.39 372.858 208.616 372.858C211.843 372.858 214.263 372.053 216.683 371.248C219.103 369.638 221.523 368.028 223.137 366.418C224.75 364.808 223.943 362.392 222.33 360.782C220.717 359.172 218.297 359.977 216.683 361.587C215.877 362.392 215.07 364.003 213.457 364.003C211.843 364.808 210.23 364.808 208.616 364.808C207.003 364.808 205.39 364.808 203.776 364.003C202.163 364.003 201.356 363.198 200.549 361.587Z" fill="#C5B0DF"/>
<path fill-rule="evenodd" clip-rule="evenodd" d="M231.204 239.223C254.598 252.908 292.512 305.235 265.891 339.852C254.598 333.412 244.111 326.166 232.817 319.726C241.691 291.55 235.237 264.179 231.204 239.223Z" fill="#C5B0DF"/>
<path fill-rule="evenodd" clip-rule="evenodd" d="M186.029 239.223C161.828 252.908 124.721 305.235 151.341 339.852C162.635 333.412 173.122 326.166 184.416 319.726C174.735 291.55 181.996 264.179 186.029 239.223Z" fill="#C5B0DF"/>
<path fill-rule="evenodd" clip-rule="evenodd" d="M233.623 351.927H182.802L191.676 317.311H224.75L233.623 351.927Z" fill="#634686"/>
<path fill-rule="evenodd" clip-rule="evenodd" d="M196.516 351.927H182.802L191.676 317.311H198.936L196.516 351.927Z" fill="#6E4E93"/>
<path fill-rule="evenodd" clip-rule="evenodd" d="M233.624 351.927H219.91L218.297 317.311H224.75L233.624 351.927Z" fill="#583D7A"/>
<path fill-rule="evenodd" clip-rule="evenodd" d="M234.43 185.285C254.597 247.272 240.077 299.599 240.077 298.794H176.349C169.088 260.958 169.088 223.121 181.995 185.285H234.43V185.285Z" fill="#8A6CAF"/>
<path fill-rule="evenodd" clip-rule="evenodd" d="M240.077 298.795C238.464 306.041 236.851 314.091 235.237 321.336C210.23 321.336 206.196 321.336 181.189 321.336C179.576 314.091 177.962 306.041 176.349 298.795H240.077Z" fill="#715198"/>
<path fill-rule="evenodd" clip-rule="evenodd" d="M207.833 131.38C219.934 149.896 228.001 167.606 234.454 186.122H182.019C186.859 167.606 195.733 149.091 207.833 131.38Z" fill="#715198"/>
<path fill-rule="evenodd" clip-rule="evenodd" d="M208.617 289.134C201.356 289.134 195.709 283.499 195.709 276.254C195.709 269.009 201.356 263.373 208.617 263.373C215.877 263.373 221.524 269.009 221.524 276.254C221.524 283.499 215.877 289.134 208.617 289.134ZM208.617 222.317C201.356 222.317 195.709 216.681 195.709 209.436C195.709 202.191 201.356 196.556 208.617 196.556C215.877 196.556 221.524 202.191 221.524 209.436C221.524 215.876 215.877 222.317 208.617 222.317ZM208.617 256.128C201.356 256.128 195.709 250.493 195.709 243.248C195.709 236.002 201.356 230.367 208.617 230.367C215.877 230.367 221.524 236.002 221.524 243.248C221.524 249.688 215.877 256.128 208.617 256.128Z" fill="white"/>
<path d="M88.7479 214.613C106.282 226.13 129.872 221.192 141.438 203.583C153.005 185.975 148.167 162.364 130.633 150.848C113.099 139.331 89.5091 144.269 77.9428 161.878C66.3764 179.486 71.214 203.097 88.7479 214.613Z" fill="#56AABF"/>
<path d="M89.918 184.242L124.429 194.972L129.907 177.355L95.3957 166.625L89.918 184.242ZM85.2651 187.699L93.0789 162.569L134.115 175.328L126.301 200.458L108.488 194.92L107.31 198.71L110.233 199.619C110.713 199.768 110.983 200.283 110.834 200.762L110.372 202.248C110.222 202.729 109.708 202.998 109.229 202.849L97.9717 199.349C97.4921 199.2 97.2217 198.686 97.3709 198.206L97.8329 196.72C97.9821 196.241 98.4964 195.97 98.976 196.119L101.899 197.028L103.078 193.238L85.2651 187.699V187.699Z" fill="white"/>
<path d="M278.086 176.863C291.941 185.964 310.582 182.061 319.721 168.148C328.861 154.234 325.038 135.578 311.183 126.477C297.329 117.377 278.688 121.279 269.548 135.193C260.409 149.107 264.231 167.763 278.086 176.863Z" fill="#5984B2"/>
<path d="M308.692 147.012C311.59 142.701 311.394 140.185 310.161 138.718C307.662 135.742 301.556 136.68 298.263 137.56C291.363 135.929 284.264 139.501 281.492 146.039C285.801 142.645 288.511 141.434 290.227 141.082C286.792 143.246 282.349 146.947 279.424 150.645C277.334 153.287 274.321 158.903 275.711 162.121C277.403 166.036 284.885 163.915 286.275 163.483C293.238 168.609 303.249 166.553 307.576 158.944L300.037 157.606C295.857 162.467 287.157 158.832 288.286 152.47L308.808 156.113C309.738 153.147 309.705 149.956 308.692 147.012V147.012ZM308.442 146.339C307.276 143.424 305.185 140.929 302.467 139.279C308.699 137.526 312.249 140.045 308.442 146.339V146.339ZM277.745 161.351C277.357 159.976 277.939 157.604 280.516 154.048C281.064 157.469 282.821 160.566 285.408 162.792C283.232 163.532 278.588 164.342 277.745 161.351V161.351ZM288.951 148.541C289.649 145.278 292.974 143.156 296.485 143.779C299.996 144.403 302.388 147.539 301.919 150.843L288.951 148.541Z" fill="white"/>
<path d="M134.503 415.468C144.3 403.632 142.444 386.194 130.358 376.519C118.272 366.843 100.534 368.594 90.7374 380.43C80.9413 392.265 82.7974 409.703 94.883 419.378C106.969 429.054 124.707 427.303 134.503 415.468Z" fill="#8B6CB0"/>
<path fill-rule="evenodd" clip-rule="evenodd" d="M123.458 406.627C122.903 407.298 122.115 407.686 121.293 407.768C120.461 407.848 119.607 407.622 118.923 407.075C118.233 406.522 117.834 405.746 117.749 404.938C117.663 404.134 117.889 403.292 118.448 402.616C119.005 401.944 119.795 401.559 120.614 401.476C121.443 401.396 122.298 401.619 122.984 402.169C123.674 402.721 124.073 403.502 124.159 404.305C124.244 405.114 124.017 405.951 123.458 406.627ZM100.266 405.091C100.412 406.107 99.6902 407.047 98.6563 407.186C97.6224 407.325 96.6633 406.612 96.5174 405.595C96.1386 402.958 96.4183 400.075 97.3475 397.215C98.2303 394.498 99.6971 391.79 101.735 389.329C103.8 386.834 106.242 384.848 108.815 383.44C111.525 381.958 114.386 381.118 117.121 380.988C118.165 380.94 119.057 381.734 119.11 382.76C119.164 383.786 118.36 384.659 117.316 384.707C115.148 384.81 112.858 385.487 110.667 386.686C108.52 387.861 106.457 389.547 104.684 391.69C102.941 393.796 101.693 396.085 100.955 398.36C100.199 400.686 99.9662 403.002 100.266 405.091V405.091ZM107.566 404.861C107.741 405.875 107.044 406.835 106.013 407.003C104.983 407.171 104.003 406.482 103.828 405.468C103.497 403.55 103.645 401.459 104.273 399.396C104.865 397.443 105.884 395.51 107.321 393.773C108.783 392.006 110.529 390.619 112.38 389.65L112.488 389.598C114.409 388.613 116.46 388.076 118.443 388.036C119.484 388.017 120.351 388.831 120.376 389.854C120.4 390.877 119.575 391.725 118.534 391.745C117.143 391.773 115.67 392.166 114.257 392.889L114.183 392.93C112.766 393.672 111.416 394.75 110.27 396.134C109.139 397.501 108.346 398.993 107.896 400.476C107.439 401.978 107.329 403.488 107.566 404.861V404.861ZM114.841 404.56C115.087 405.557 114.461 406.561 113.447 406.8C112.433 407.038 111.408 406.419 111.162 405.421C110.864 404.204 110.868 402.897 111.182 401.631C111.482 400.427 112.055 399.25 112.91 398.217C113.78 397.166 114.853 396.366 116.016 395.833C117.229 395.274 118.548 395.016 119.842 395.075C120.884 395.123 121.696 395.994 121.651 397.019C121.605 398.043 120.722 398.837 119.68 398.788C119.002 398.758 118.293 398.9 117.63 399.205C116.978 399.504 116.367 399.964 115.859 400.578C115.359 401.182 115.027 401.856 114.858 402.531C114.689 403.217 114.684 403.917 114.841 404.56V404.56Z" fill="white"/>
<path fill-rule="evenodd" clip-rule="evenodd" d="M387.963 237.909L387.085 245.789L377.435 253.669L366.907 244.914L366.03 237.909L370.416 237.034V230.905H382.699V237.034L387.963 237.909Z" fill="url(#paint0_linear_1322_6)"/>
<path fill-rule="evenodd" clip-rule="evenodd" d="M376.557 236.159C368.662 236.159 361.643 227.404 361.643 216.022C361.643 204.64 357.256 194.134 376.557 195.009C395.859 195.885 391.472 204.64 391.472 216.022C391.472 227.404 384.453 236.159 376.557 236.159Z" fill="url(#paint1_linear_1322_6)"/>
<path fill-rule="evenodd" clip-rule="evenodd" d="M363.398 199.386C361.643 204.639 361.643 208.141 361.643 214.27C358.134 208.141 356.379 206.39 356.379 200.262C356.379 189.755 358.134 186.253 365.153 187.129C372.171 188.004 369.539 183.627 377.435 182.751C385.331 181.876 381.822 187.129 391.472 186.253C397.614 185.378 402.878 195.009 395.859 204.639C394.982 206.39 394.982 209.017 391.472 214.27C391.472 205.515 390.595 201.137 388.84 199.386C380.945 202.013 371.294 202.888 363.398 199.386Z" fill="#37254D"/>
<path fill-rule="evenodd" clip-rule="evenodd" d="M398.491 426.147L396.736 418.268L388.84 420.019L390.595 427.023C390.595 427.023 397.614 426.147 398.491 426.147Z" fill="url(#paint2_linear_1322_6)"/>
<path fill-rule="evenodd" clip-rule="evenodd" d="M375.68 423.52L373.925 416.516L366.03 417.392L367.784 424.396C368.662 424.396 375.68 423.52 375.68 423.52Z" fill="url(#paint3_linear_1322_6)"/>
<path fill-rule="evenodd" clip-rule="evenodd" d="M397.613 424.396C393.227 426.147 389.717 424.396 387.963 425.272C383.576 428.774 382.699 429.649 377.435 430.525C372.171 431.4 369.539 435.778 375.68 435.778C387.085 435.778 396.736 435.778 399.368 434.902C401.123 433.151 403.755 426.147 397.613 424.396Z" fill="#37254D"/>
<path fill-rule="evenodd" clip-rule="evenodd" d="M375.68 421.769C372.171 423.52 368.662 421.769 366.907 422.645C362.52 426.147 361.643 427.022 357.256 427.898C352.87 428.773 349.36 432.275 355.502 432.275C366.03 432.275 374.803 432.275 378.312 431.4C379.189 430.524 380.944 423.52 375.68 421.769Z" fill="#37254D"/>
<path fill-rule="evenodd" clip-rule="evenodd" d="M377.435 416.516C374.803 418.267 366.907 420.894 364.275 418.267C356.379 364.86 357.256 348.225 354.624 307.951C359.011 307.951 366.907 307.951 376.557 307.076C374.803 333.341 370.416 353.478 377.435 416.516Z" fill="#56A9BE"/>
<path fill-rule="evenodd" clip-rule="evenodd" d="M400.246 419.143C395.859 420.894 389.718 423.52 384.454 421.769C375.681 367.487 376.558 353.478 373.049 311.453C378.313 311.453 387.086 307.951 398.491 307.076C397.614 334.217 393.227 354.354 400.246 419.143Z" fill="#4998AC"/>
<path fill-rule="evenodd" clip-rule="evenodd" d="M327.427 249.291C328.305 247.54 329.182 247.54 328.305 244.914C327.427 242.287 328.305 240.536 329.182 239.66C331.814 237.909 330.937 239.66 330.937 241.411C330.937 243.162 331.814 244.914 331.814 247.54C331.814 249.291 332.691 250.167 333.569 251.918C334.446 254.544 335.323 258.922 332.691 260.673C330.937 257.171 329.182 253.669 327.427 249.291Z" fill="url(#paint4_linear_1322_6)"/>
<path fill-rule="evenodd" clip-rule="evenodd" d="M323.918 261.548C327.428 261.548 330.06 261.548 333.569 261.548C334.446 260.673 333.569 258.922 332.691 258.922C333.569 258.046 333.569 256.295 331.814 256.295C332.692 255.42 332.692 253.669 330.937 252.793C331.814 251.042 330.937 249.291 329.182 249.291C324.796 249.291 322.164 250.167 321.286 253.669C320.409 256.295 321.286 260.673 323.918 261.548Z" fill="url(#paint5_linear_1322_6)"/>
<path fill-rule="evenodd" clip-rule="evenodd" d="M366.03 237.909C353.747 242.287 344.097 247.54 338.833 271.179C337.078 269.428 334.446 262.424 333.569 259.797C330.937 260.673 326.55 260.673 323.041 260.673C328.305 287.814 338.833 298.32 347.606 290.441C348.483 289.565 351.115 286.063 353.747 280.81C352.87 286.063 351.115 294.818 353.747 307.951C361.643 315.831 386.208 315.831 396.736 307.951C399.368 306.2 403.755 309.702 404.632 308.827C408.141 293.067 409.896 279.934 408.141 267.677C406.387 254.544 401.123 239.66 386.208 237.909C381.822 249.291 370.416 248.415 366.03 237.909Z" fill="#5983B1"/>
<path fill-rule="evenodd" clip-rule="evenodd" d="M402.877 318.457C403.755 320.208 403.755 326.337 402.877 329.839C402 333.341 395.859 339.47 394.981 332.466C394.981 330.715 394.981 329.839 394.981 328.088C394.104 328.963 393.227 328.963 393.227 328.088C393.227 327.212 393.227 324.586 393.227 322.835C393.227 321.959 393.227 320.208 394.981 318.457C395.859 317.582 394.981 314.08 395.859 313.204C396.736 312.328 400.245 312.328 402 313.204C402.877 314.08 401.123 316.706 402.877 318.457Z" fill="url(#paint6_linear_1322_6)"/>
<path fill-rule="evenodd" clip-rule="evenodd" d="M393.227 315.831C396.736 316.706 400.245 316.706 404.632 316.706C406.387 311.453 408.141 294.818 409.019 288.69C409.896 273.806 397.613 274.681 395.859 287.814C394.981 293.067 394.104 307.951 393.227 315.831Z" fill="#5983B1"/>
<path fill-rule="evenodd" clip-rule="evenodd" d="M393.227 258.922C392.349 267.677 393.227 273.806 394.104 276.432C395.859 284.312 393.227 296.569 394.981 306.2C395.859 290.441 398.491 284.312 396.736 275.557C394.981 272.93 393.227 267.677 393.227 258.922Z" fill="#456F9B"/>
<path fill-rule="evenodd" clip-rule="evenodd" d="M351.992 238.785C346.729 232.656 343.219 224.776 343.219 216.021C343.219 196.759 359.011 181 378.312 181C397.613 181 413.405 196.759 413.405 216.021C413.405 224.776 409.896 232.656 404.632 238.785H351.992ZM348.483 216.896C348.483 228.278 354.624 236.158 366.907 236.158H389.717C402 236.158 408.141 228.278 408.141 216.896C408.141 177.498 348.483 177.498 348.483 216.896Z" fill="#715198"/>
<path fill-rule="evenodd" clip-rule="evenodd" d="M355.502 242.287H401.122C402.877 242.287 403.754 243.162 403.754 244.913C403.754 246.664 402.877 247.54 401.122 247.54H355.502C353.747 247.54 352.87 246.664 352.87 244.913C352.87 243.162 353.747 242.287 355.502 242.287Z" fill="#594078"/>
<path fill-rule="evenodd" clip-rule="evenodd" d="M351.993 237.909H404.632C406.387 237.909 407.264 238.785 407.264 240.536C407.264 242.287 406.387 243.162 404.632 243.162H351.993C350.238 243.162 349.361 242.287 349.361 240.536C349.361 239.66 350.238 237.909 351.993 237.909Z" fill="#715198"/>
<path d="M383.21 220.539C381.617 220.539 380.169 219.936 379.125 218.964C378.224 218.124 377.616 217.003 377.469 215.758C376.705 215.904 375.877 215.91 375.054 215.753C374.906 217.001 374.299 218.123 373.396 218.964C372.352 219.936 370.904 220.539 369.311 220.539C367.718 220.539 366.27 219.936 365.227 218.964C364.183 217.992 363.534 216.644 363.534 215.16C363.534 214.976 363.544 214.795 363.564 214.617L360.862 213.821L360.952 212.591L363.818 213.492C364.103 212.679 364.593 211.947 365.227 211.356C366.27 210.384 367.718 209.781 369.311 209.781C370.904 209.781 372.352 210.384 373.396 211.356C374.303 212.202 374.913 213.331 375.056 214.586C375.879 214.721 376.668 214.686 377.469 214.562C377.616 213.317 378.224 212.196 379.125 211.356C380.169 210.384 381.617 209.781 383.21 209.781C384.803 209.781 386.251 210.384 387.294 211.356C387.935 211.953 388.424 212.691 388.709 213.515L391.732 212.712L391.792 213.921L388.961 214.641C388.977 214.811 388.987 214.985 388.987 215.16C388.987 216.644 388.338 217.992 387.294 218.964C386.251 219.936 384.803 220.539 383.21 220.539V220.539ZM372.524 218.152C373.344 217.388 373.853 216.328 373.853 215.16C373.853 213.992 373.344 212.932 372.524 212.168C371.704 211.405 370.566 210.931 369.311 210.931C368.057 210.931 366.919 211.405 366.099 212.168C365.279 212.932 364.77 213.992 364.77 215.16C364.77 216.328 365.279 217.388 366.099 218.152C366.919 218.915 368.057 219.389 369.311 219.389C370.566 219.389 371.704 218.915 372.524 218.152ZM379.997 218.152C380.818 218.915 381.956 219.389 383.21 219.389C384.464 219.389 385.602 218.915 386.422 218.152C387.243 217.388 387.752 216.328 387.752 215.16C387.752 213.992 387.243 212.932 386.422 212.168C385.602 211.405 384.464 210.931 383.21 210.931C381.956 210.931 380.818 211.405 379.997 212.168C379.177 212.932 378.668 213.992 378.668 215.16C378.668 216.328 379.177 217.388 379.997 218.152Z" fill="#37254D"/>
<path fill-rule="evenodd" clip-rule="evenodd" d="M301.861 393.951C287.026 393.951 275 381.875 275 366.977C275 352.078 287.026 340 301.861 340C316.696 340 328.723 352.078 328.723 366.977C328.723 381.875 316.696 393.951 301.861 393.951Z" fill="#51B18B"/>
<path fill-rule="evenodd" clip-rule="evenodd" d="M303.771 364.998C303.771 360.797 299.432 361.161 298.004 365.405C295.261 373.562 303.771 373.536 303.771 364.998ZM315.84 373.793C313.258 379.074 308.111 380.873 302.578 380.804C281.502 380.539 284.492 353.148 302.671 353.148C311.372 353.148 315.026 358.944 314.863 364.539C314.601 373.544 305.262 376.954 302.647 373.335C296.915 377.153 291.917 371.117 293.767 364.748C295.495 358.794 301.8 356.984 304.697 360.358L304.949 359.227C306.395 359.227 307.841 359.227 309.287 359.227L306.903 370.83C306.777 372.241 311.743 369.23 311.743 364.124C311.743 359.081 307.542 356.443 302.972 356.301C288.572 355.853 285.927 377.549 302.713 377.549C306.316 377.549 309.86 376.768 312.189 373.793C313.406 373.793 314.623 373.793 315.84 373.793V373.793Z" fill="white"/>
<path d="M152 102L29.0005 102V48L165 48L152 74.999L165 102.001H152V102Z" fill="#8B6CB0"/>
<path d="M59.2204 80.001H52.7204L51.4804 83.001H48.1604L54.4004 69.001H57.6004L63.8604 83.001H60.4604L59.2204 80.001ZM58.2004 77.541L55.9804 72.181L53.7604 77.541H58.2004ZM71.1369 77.361H68.8969V83.001H65.6769V69.001H68.8969V74.661H71.2169L74.8969 69.001H78.3169L73.7369 75.761L78.4569 83.001H74.7769L71.1369 77.361ZM94.6547 80.361V85.961H91.6747V83.001H79.9747V69.001H83.1947V80.361H89.4347V69.001H92.6547V80.361H94.6547ZM96.7911 69.001H100.011V83.001H96.7911V69.001ZM114.67 69.001V83.001H111.47V79.281H108.51L106.03 83.001H102.61L105.53 78.781C104.584 78.3943 103.857 77.8143 103.35 77.041C102.844 76.2543 102.59 75.3143 102.59 74.221C102.59 73.141 102.837 72.2143 103.33 71.441C103.824 70.6543 104.524 70.0543 105.43 69.641C106.337 69.2143 107.404 69.001 108.63 69.001H114.67ZM108.71 71.641C107.79 71.641 107.084 71.8543 106.59 72.281C106.11 72.7076 105.87 73.341 105.87 74.181C105.87 74.9943 106.104 75.621 106.57 76.061C107.037 76.501 107.724 76.721 108.63 76.721H111.47V71.641H108.71ZM117.478 69.001H121.198L120.578 78.141H118.098L117.478 69.001ZM119.338 83.161C118.791 83.161 118.331 82.9876 117.958 82.641C117.598 82.281 117.418 81.8476 117.418 81.341C117.418 80.8343 117.598 80.4143 117.958 80.081C118.318 79.7343 118.778 79.561 119.338 79.561C119.898 79.561 120.358 79.7343 120.718 80.081C121.078 80.4143 121.258 80.8343 121.258 81.341C121.258 81.8476 121.071 82.281 120.698 82.641C120.338 82.9876 119.885 83.161 119.338 83.161Z" fill="white"/>
<path d="M612.75 186V142.74L619.82 149.46H604.35V137H629.27V186H612.75ZM657.478 187.12C653.138 187.12 649.288 186.117 645.928 184.11C642.614 182.103 640.001 179.187 638.088 175.36C636.221 171.533 635.288 166.913 635.288 161.5C635.288 156.087 636.221 151.467 638.088 147.64C640.001 143.813 642.614 140.897 645.928 138.89C649.288 136.883 653.138 135.88 657.478 135.88C661.818 135.88 665.644 136.883 668.958 138.89C672.318 140.897 674.931 143.813 676.798 147.64C678.711 151.467 679.668 156.087 679.668 161.5C679.668 166.913 678.711 171.533 676.798 175.36C674.931 179.187 672.318 182.103 668.958 184.11C665.644 186.117 661.818 187.12 657.478 187.12ZM657.478 173.89C658.551 173.89 659.508 173.517 660.348 172.77C661.188 172.023 661.841 170.74 662.308 168.92C662.821 167.1 663.078 164.627 663.078 161.5C663.078 158.327 662.821 155.853 662.308 154.08C661.841 152.26 661.188 150.977 660.348 150.23C659.508 149.483 658.551 149.11 657.478 149.11C656.404 149.11 655.448 149.483 654.608 150.23C653.768 150.977 653.091 152.26 652.578 154.08C652.111 155.853 651.878 158.327 651.878 161.5C651.878 164.627 652.111 167.1 652.578 168.92C653.091 170.74 653.768 172.023 654.608 172.77C655.448 173.517 656.404 173.89 657.478 173.89ZM705.945 187.12C701.605 187.12 697.755 186.117 694.395 184.11C691.081 182.103 688.468 179.187 686.555 175.36C684.688 171.533 683.755 166.913 683.755 161.5C683.755 156.087 684.688 151.467 686.555 147.64C688.468 143.813 691.081 140.897 694.395 138.89C697.755 136.883 701.605 135.88 705.945 135.88C710.285 135.88 714.111 136.883 717.425 138.89C720.785 140.897 723.398 143.813 725.265 147.64C727.178 151.467 728.135 156.087 728.135 161.5C728.135 166.913 727.178 171.533 725.265 175.36C723.398 179.187 720.785 182.103 717.425 184.11C714.111 186.117 710.285 187.12 705.945 187.12ZM705.945 173.89C707.018 173.89 707.975 173.517 708.815 172.77C709.655 172.023 710.308 170.74 710.775 168.92C711.288 167.1 711.545 164.627 711.545 161.5C711.545 158.327 711.288 155.853 710.775 154.08C710.308 152.26 709.655 150.977 708.815 150.23C707.975 149.483 707.018 149.11 705.945 149.11C704.871 149.11 703.915 149.483 703.075 150.23C702.235 150.977 701.558 152.26 701.045 154.08C700.578 155.853 700.345 158.327 700.345 161.5C700.345 164.627 700.578 167.1 701.045 168.92C701.558 170.74 702.235 172.023 703.075 172.77C703.915 173.517 704.871 173.89 705.945 173.89ZM754.411 187.12C750.071 187.12 746.221 186.117 742.861 184.11C739.548 182.103 736.935 179.187 735.021 175.36C733.155 171.533 732.221 166.913 732.221 161.5C732.221 156.087 733.155 151.467 735.021 147.64C736.935 143.813 739.548 140.897 742.861 138.89C746.221 136.883 750.071 135.88 754.411 135.88C758.751 135.88 762.578 136.883 765.891 138.89C769.251 140.897 771.865 143.813 773.731 147.64C775.645 151.467 776.601 156.087 776.601 161.5C776.601 166.913 775.645 171.533 773.731 175.36C771.865 179.187 769.251 182.103 765.891 184.11C762.578 186.117 758.751 187.12 754.411 187.12ZM754.411 173.89C755.485 173.89 756.441 173.517 757.281 172.77C758.121 172.023 758.775 170.74 759.241 168.92C759.755 167.1 760.011 164.627 760.011 161.5C760.011 158.327 759.755 155.853 759.241 154.08C758.775 152.26 758.121 150.977 757.281 150.23C756.441 149.483 755.485 149.11 754.411 149.11C753.338 149.11 752.381 149.483 751.541 150.23C750.701 150.977 750.025 152.26 749.511 154.08C749.045 155.853 748.811 158.327 748.811 161.5C748.811 164.627 749.045 167.1 749.511 168.92C750.025 170.74 750.701 172.023 751.541 172.77C752.381 173.517 753.338 173.89 754.411 173.89ZM793.13 186V158H800.89L812.09 176.28H808.01L818.89 158H826.65L826.73 186H818.13L818.05 170.96H819.41L811.97 183.48H807.81L800.05 170.96H801.73V186H793.13ZM843.086 186.4C840.419 186.4 838.086 185.907 836.086 184.92C834.113 183.933 832.579 182.587 831.486 180.88C830.393 179.147 829.846 177.2 829.846 175.04C829.846 172.827 830.379 170.867 831.446 169.16C832.539 167.453 834.019 166.12 835.886 165.16C837.779 164.2 839.899 163.72 842.246 163.72C844.406 163.72 846.393 164.147 848.206 165C850.046 165.853 851.513 167.12 852.606 168.8C853.726 170.48 854.286 172.56 854.286 175.04C854.286 175.36 854.273 175.72 854.246 176.12C854.219 176.493 854.193 176.84 854.166 177.16H837.326V172.8H849.366L845.966 173.96C845.966 173.107 845.806 172.387 845.486 171.8C845.193 171.187 844.779 170.72 844.246 170.4C843.713 170.053 843.073 169.88 842.326 169.88C841.579 169.88 840.926 170.053 840.366 170.4C839.833 170.72 839.419 171.187 839.126 171.8C838.833 172.387 838.686 173.107 838.686 173.96V175.32C838.686 176.253 838.873 177.053 839.246 177.72C839.619 178.387 840.153 178.893 840.846 179.24C841.539 179.56 842.379 179.72 843.366 179.72C844.379 179.72 845.206 179.587 845.846 179.32C846.513 179.053 847.206 178.653 847.926 178.12L852.646 182.88C851.579 184.027 850.259 184.907 848.686 185.52C847.139 186.107 845.273 186.4 843.086 186.4ZM857.536 186V164.12H876.656V171.16H864.576L866.536 169.24V186H857.536ZM892.015 186V182.12L891.375 181.08V173.72C891.375 172.653 891.041 171.84 890.375 171.28C889.735 170.72 888.681 170.44 887.215 170.44C886.228 170.44 885.228 170.6 884.215 170.92C883.201 171.213 882.335 171.627 881.615 172.16L878.735 166.2C880.015 165.4 881.548 164.787 883.335 164.36C885.121 163.933 886.868 163.72 888.575 163.72C892.335 163.72 895.241 164.56 897.295 166.24C899.375 167.92 900.415 170.587 900.415 174.24V186H892.015ZM885.815 186.4C884.028 186.4 882.535 186.093 881.335 185.48C880.135 184.867 879.228 184.053 878.615 183.04C878.001 182 877.695 180.853 877.695 179.6C877.695 178.187 878.055 176.987 878.775 176C879.495 175.013 880.588 174.267 882.055 173.76C883.548 173.253 885.428 173 887.695 173H892.255V177.36H889.135C888.175 177.36 887.468 177.52 887.015 177.84C886.588 178.133 886.375 178.587 886.375 179.2C886.375 179.707 886.561 180.133 886.935 180.48C887.335 180.8 887.868 180.96 888.535 180.96C889.148 180.96 889.708 180.8 890.215 180.48C890.748 180.133 891.135 179.6 891.375 178.88L892.535 181.56C892.188 183.187 891.455 184.4 890.335 185.2C889.215 186 887.708 186.4 885.815 186.4ZM915.938 186.64C914.178 186.64 912.512 186.4 910.938 185.92C909.392 185.44 908.032 184.653 906.858 183.56C905.685 182.467 904.765 181.027 904.098 179.24C903.432 177.453 903.098 175.253 903.098 172.64C903.098 170.987 903.245 169.453 903.538 168.04C903.832 166.6 904.285 165.28 904.898 164.08C905.512 162.88 906.298 161.827 907.258 160.92C908.218 159.987 909.365 159.213 910.698 158.6C912.032 157.96 913.552 157.48 915.258 157.16L926.138 155.2L927.338 162.6L918.138 164.24C917.552 164.347 916.952 164.48 916.338 164.64C915.725 164.773 915.138 164.973 914.578 165.24C914.018 165.48 913.512 165.827 913.058 166.28C912.605 166.733 912.245 167.32 911.978 168.04C911.738 168.76 911.618 169.653 911.618 170.72C911.618 171.04 911.632 171.307 911.658 171.52C911.685 171.733 911.712 171.987 911.738 172.28C911.765 172.547 911.778 172.973 911.778 173.56L909.498 171.56C910.192 170.6 910.978 169.787 911.858 169.12C912.738 168.427 913.738 167.893 914.858 167.52C915.978 167.147 917.245 166.96 918.658 166.96C920.792 166.96 922.605 167.36 924.098 168.16C925.618 168.96 926.765 170.067 927.538 171.48C928.338 172.867 928.738 174.453 928.738 176.24C928.738 178.427 928.178 180.293 927.058 181.84C925.938 183.387 924.418 184.573 922.498 185.4C920.578 186.227 918.392 186.64 915.938 186.64ZM916.098 179.96C916.792 179.96 917.392 179.813 917.898 179.52C918.405 179.2 918.805 178.773 919.098 178.24C919.392 177.707 919.538 177.107 919.538 176.44C919.538 175.747 919.392 175.16 919.098 174.68C918.805 174.2 918.392 173.827 917.858 173.56C917.352 173.293 916.765 173.16 916.098 173.16C915.405 173.16 914.792 173.293 914.258 173.56C913.725 173.827 913.312 174.2 913.018 174.68C912.725 175.133 912.578 175.68 912.578 176.32C912.578 177.013 912.725 177.64 913.018 178.2C913.312 178.733 913.725 179.16 914.258 179.48C914.792 179.8 915.405 179.96 916.098 179.96ZM931.52 186V164.12H940.56V186H931.52ZM936.04 162.36C934.387 162.36 933.067 161.92 932.08 161.04C931.094 160.16 930.6 159.067 930.6 157.76C930.6 156.453 931.094 155.36 932.08 154.48C933.067 153.6 934.387 153.16 936.04 153.16C937.694 153.16 939.014 153.573 940 154.4C940.987 155.227 941.48 156.293 941.48 157.6C941.48 158.987 940.987 160.133 940 161.04C939.014 161.92 937.694 162.36 936.04 162.36ZM949.842 186V169.24L951.802 171.16H943.162V164.12H965.522V171.16H956.882L958.842 169.24V186H949.842Z" fill="#8B6CB0"/>
<path d="M498.974 162.226C496.684 156.216 493.987 154.666 488.004 155.057C473.882 157.702 457.515 161.466 443.82 165.806C438.287 168.156 436.543 170.764 437.098 177.187C437.65 184.093 440.516 196.4 442.976 202.853C445.446 209.336 448.302 210.43 454.578 209.874C466.643 208.067 486.503 203.188 498.18 199.491C503.713 197.135 505.459 194.53 504.901 188.107C504.288 181.037 501.495 168.841 498.974 162.226ZM464.528 193.176L460.576 175.918L479.4 180.532L464.528 193.176V193.176Z" fill="#DB662D"/>
<path d="M712 25H1149C1154.52 25 1159 29.4772 1159 35V98H712L730.99 61.5L712 25Z" fill="#5984B2"/>
<path d="M675 25H893V98H675L701.5 60L675 25Z" fill="white"/>
<path d="M742.22 78V45.8H756.94C759.884 45.8 762.414 46.2753 764.53 47.226C766.677 48.1767 768.333 49.5567 769.498 51.366C770.663 53.1447 771.246 55.2607 771.246 57.714C771.246 60.1367 770.663 62.2373 769.498 64.016C768.333 65.7947 766.677 67.1747 764.53 68.156C762.414 69.1067 759.884 69.582 756.94 69.582H747.28L751.328 65.626V78H742.22ZM751.328 66.592L747.28 62.406H756.388C758.289 62.406 759.7 61.992 760.62 61.164C761.571 60.336 762.046 59.186 762.046 57.714C762.046 56.2113 761.571 55.046 760.62 54.218C759.7 53.39 758.289 52.976 756.388 52.976H747.28L751.328 48.79V66.592ZM792.374 78.644C789.798 78.644 787.421 78.23 785.244 77.402C783.067 76.574 781.165 75.4087 779.54 73.906C777.945 72.3727 776.703 70.594 775.814 68.57C774.925 66.546 774.48 64.3227 774.48 61.9C774.48 59.4773 774.925 57.254 775.814 55.23C776.703 53.206 777.945 51.4427 779.54 49.94C781.165 48.4067 783.067 47.226 785.244 46.398C787.421 45.57 789.798 45.156 792.374 45.156C794.981 45.156 797.357 45.57 799.504 46.398C801.681 47.226 803.567 48.4067 805.162 49.94C806.757 51.4427 807.999 53.206 808.888 55.23C809.808 57.254 810.268 59.4773 810.268 61.9C810.268 64.3227 809.808 66.5613 808.888 68.616C807.999 70.64 806.757 72.4033 805.162 73.906C803.567 75.4087 801.681 76.574 799.504 77.402C797.357 78.23 794.981 78.644 792.374 78.644ZM792.374 71.1C793.601 71.1 794.735 70.8853 795.778 70.456C796.851 70.0267 797.771 69.4133 798.538 68.616C799.335 67.788 799.949 66.8067 800.378 65.672C800.838 64.5373 801.068 63.28 801.068 61.9C801.068 60.4893 800.838 59.232 800.378 58.128C799.949 56.9933 799.335 56.0273 798.538 55.23C797.771 54.402 796.851 53.7733 795.778 53.344C794.735 52.9147 793.601 52.7 792.374 52.7C791.147 52.7 789.997 52.9147 788.924 53.344C787.881 53.7733 786.961 54.402 786.164 55.23C785.397 56.0273 784.784 56.9933 784.324 58.128C783.895 59.232 783.68 60.4893 783.68 61.9C783.68 63.28 783.895 64.5373 784.324 65.672C784.784 66.8067 785.397 67.788 786.164 68.616C786.961 69.4133 787.881 70.0267 788.924 70.456C789.997 70.8853 791.147 71.1 792.374 71.1ZM815.038 78V45.8H822.536L840.292 67.236H836.75V45.8H845.674V78H838.176L820.42 56.564H823.962V78H815.038Z" fill="#DC662D"/>
<path d="M904.438 78V45.8H913.408V78H904.438ZM941.824 45.8H950.932V78H941.824V45.8ZM929.404 78H920.296V45.8H929.404V78ZM942.468 65.442H928.76V57.898H942.468V65.442ZM964.98 78V50.998L967.004 53.022H955.09V45.8H983.794V53.022H971.926L973.95 50.998V78H964.98ZM996.365 58.266H1011.31V65.074H996.365V58.266ZM997.009 70.962H1013.84V78H987.993V45.8H1013.25V52.838H997.009V70.962ZM1019.03 78V45.8H1033.75C1036.7 45.8 1039.23 46.2753 1041.34 47.226C1043.49 48.1767 1045.15 49.5567 1046.31 51.366C1047.48 53.1447 1048.06 55.2607 1048.06 57.714C1048.06 60.1367 1047.48 62.2373 1046.31 64.016C1045.15 65.7947 1043.49 67.1747 1041.34 68.156C1039.23 69.1067 1036.7 69.582 1033.75 69.582H1024.09L1028.14 65.626V78H1019.03ZM1028.14 66.592L1024.09 62.406H1033.2C1035.1 62.406 1036.51 61.992 1037.43 61.164C1038.38 60.336 1038.86 59.186 1038.86 57.714C1038.86 56.2113 1038.38 55.046 1037.43 54.218C1036.51 53.39 1035.1 52.976 1033.2 52.976H1024.09L1028.14 48.79V66.592ZM1073.71 45.8H1082.82V78H1073.71V45.8ZM1061.29 78H1052.19V45.8L1061.29 45.8V78ZM1074.36 65.442H1060.65V57.898H1074.36V65.442ZM1098.11 58.266H1113.06V65.074H1098.11V58.266ZM1098.76 70.962H1115.59V78H1089.74V45.8H1115V52.838H1098.76V70.962ZM1127.91 78V50.998L1129.94 53.022L1118.02 53.022V45.8H1146.73V53.022H1134.86L1136.88 50.998V78H1127.91Z" fill="white"/>
<path d="M1159 197L663 197L686 215L710.411 233.999L1159 233.999V197ZM686 215L663 234H710.412L686 215Z" fill="#8B6CB0"/>
<path d="M832.034 219.135L830.729 220.511L830.729 206.656H836.744L836.744 220.511L835.375 219.135H842.695L841.39 220.511L841.39 206.656H847.372L847.373 223.999H820.037L820.037 206.656H826.051L826.052 220.511L824.747 219.135H832.034ZM851.455 223.999L851.455 206.656H860.715C862.943 206.656 864.683 207.05 865.934 207.84C867.186 208.608 867.812 209.717 867.812 211.168C867.812 212.554 867.228 213.663 866.062 214.495C864.916 215.306 863.367 215.711 861.416 215.711L861.957 214.431C864.057 214.431 865.637 214.826 866.698 215.615C867.78 216.383 868.321 217.514 868.321 219.007C868.321 220.543 867.727 221.759 866.539 222.655C865.372 223.551 863.58 223.999 861.161 223.999H851.455ZM856.865 220.063H860.62C861.363 220.063 861.914 219.935 862.275 219.679C862.636 219.402 862.816 218.997 862.816 218.463C862.816 217.909 862.636 217.503 862.275 217.247C861.935 216.991 861.405 216.863 860.684 216.863H856.865L856.865 220.063ZM856.865 213.631H860.175C860.896 213.631 861.426 213.503 861.766 213.247C862.105 212.97 862.275 212.576 862.275 212.064C862.275 211.552 862.105 211.178 861.766 210.944C861.426 210.688 860.896 210.56 860.174 210.56H856.865L856.865 213.631ZM871.375 223.999L871.375 206.656H877.389L877.39 215.743L884.613 206.656H890.182L890.182 223.999H884.136L884.136 214.879L876.976 223.999H871.375ZM906.213 221.343L906.212 211.488H901.598L901.535 213.151C901.492 213.983 901.439 214.773 901.376 215.519C901.333 216.245 901.227 216.906 901.057 217.503C900.888 218.101 900.644 218.613 900.326 219.039C900.007 219.445 899.583 219.743 899.053 219.935L893.134 219.135C893.707 219.135 894.173 218.975 894.534 218.655C894.916 218.314 895.213 217.845 895.425 217.247C895.637 216.65 895.785 215.967 895.87 215.199C895.976 214.41 896.051 213.578 896.093 212.704L896.316 206.656H912.259L912.259 221.343H906.213ZM892.561 227.583L892.561 219.135H914.645L914.646 227.583H909.045L909.045 223.999H898.194L898.194 227.583H892.561ZM929.336 223.999L924.086 215.903L928.954 213.024L936.465 223.999H929.336ZM917.244 223.999L917.244 206.656H923.29L923.29 223.999H917.244ZM921.508 217.823L921.508 213.056H927.745L927.745 217.823H921.508ZM929.559 215.999L923.895 215.423L929.686 206.656H936.082L929.559 215.999ZM938.469 223.999L938.469 206.656H944.515L944.515 223.999H938.469ZM941.492 204.736C940.389 204.736 939.498 204.426 938.819 203.808C938.14 203.189 937.8 202.421 937.8 201.504C937.8 200.586 938.14 199.818 938.819 199.2C939.498 198.581 940.389 198.272 941.492 198.272C942.595 198.272 943.486 198.571 944.165 199.168C944.844 199.744 945.183 200.49 945.183 201.408C945.183 202.368 944.844 203.168 944.165 203.808C943.507 204.426 942.616 204.736 941.492 204.736ZM957.256 224.287C955.346 224.287 953.639 223.903 952.132 223.135C950.647 222.367 949.48 221.311 948.632 219.967C947.783 218.602 947.359 217.045 947.359 215.295C947.359 213.546 947.783 212 948.632 210.656C949.48 209.312 950.647 208.266 952.132 207.52C953.638 206.752 955.346 206.368 957.255 206.368C959.207 206.368 960.894 206.784 962.315 207.616C963.736 208.448 964.744 209.621 965.338 211.136L960.66 213.535C960.257 212.725 959.759 212.138 959.165 211.776C958.571 211.392 957.924 211.2 957.224 211.2C956.524 211.2 955.887 211.36 955.314 211.68C954.742 212 954.285 212.469 953.946 213.088C953.628 213.685 953.469 214.421 953.469 215.295C953.469 216.191 953.628 216.949 953.946 217.567C954.286 218.186 954.742 218.655 955.314 218.975C955.887 219.295 956.524 219.455 957.224 219.455C957.924 219.455 958.571 219.274 959.165 218.911C959.759 218.527 960.257 217.93 960.661 217.119L965.338 219.519C964.744 221.034 963.737 222.207 962.315 223.039C960.894 223.871 959.207 224.287 957.256 224.287ZM971.78 223.999L971.78 210.144L973.084 211.488H966.211L966.211 206.656H983.331L983.331 211.488H976.458L977.794 210.144L977.794 223.999H971.78ZM995.793 212.032C998.085 212.053 999.835 212.565 1001.04 213.567C1002.25 214.57 1002.86 215.999 1002.86 217.855C1002.86 219.775 1002.16 221.29 1000.76 222.399C999.379 223.487 997.47 224.021 995.03 223.999H985.674L985.674 206.656H991.688L991.688 212.032H995.793ZM994.425 219.839C995.146 219.839 995.709 219.669 996.112 219.327C996.515 218.986 996.716 218.463 996.716 217.759C996.716 217.034 996.515 216.522 996.112 216.223C995.73 215.925 995.168 215.765 994.425 215.743H991.688L991.688 219.807L994.425 219.839Z" fill="white"/>
<path d="M633.356 407.996L633.354 308.691L646.699 321.637H612.943L612.943 297.482H664.44L664.443 407.996H633.356ZM680.343 407.996L680.343 388.419L721.477 349.739C724.408 347.003 726.553 344.582 727.914 342.477C729.379 340.372 730.321 338.477 730.74 336.793C731.263 335.004 731.525 333.373 731.525 331.899C731.525 328.32 730.321 325.531 727.914 323.532C725.611 321.532 722.104 320.532 717.394 320.532C713.417 320.532 709.701 321.426 706.247 323.216C702.793 325.005 699.967 327.689 697.769 331.268L674.689 318.322C678.771 311.375 684.685 305.797 692.43 301.587C700.176 297.376 709.439 295.271 720.22 295.271C728.698 295.271 736.13 296.64 742.515 299.376C748.899 302.113 753.871 306.007 757.43 311.059C761.094 316.111 762.926 322.058 762.926 328.899C762.926 332.478 762.455 336.057 761.513 339.635C760.571 343.108 758.739 346.845 756.018 350.844C753.401 354.739 749.476 359.107 744.243 363.948L711.587 394.261L706.405 383.209H765.91L765.911 407.996H680.343ZM813.425 410.206C805.889 410.206 798.301 409.259 790.66 407.365C783.019 405.47 776.424 402.786 770.877 399.313L782.024 375.789C786.525 378.736 791.392 380.999 796.625 382.578C801.963 384.157 807.249 384.946 812.483 384.946C817.716 384.946 821.955 383.946 825.2 381.946C828.445 379.841 830.067 376.947 830.067 373.263C830.067 371.053 829.439 369.106 828.183 367.422C826.927 365.632 824.781 364.317 821.746 363.475C818.71 362.527 814.366 362.054 808.714 362.054H778.883L784.377 297.482H854.401L854.402 321.637H795.368L811.225 307.902L807.615 351.476L791.757 337.741H816.093C826.978 337.741 835.718 339.319 842.313 342.477C848.907 345.529 853.722 349.687 856.757 354.949C859.793 360.107 861.311 365.948 861.311 372.474C861.311 378.999 859.584 385.157 856.13 390.945C852.781 396.629 847.6 401.26 840.587 404.839C833.574 408.417 824.52 410.206 813.425 410.206Z" fill="#DC662D"/>
<path d="M519.28 405.345L523.249 395.94C525.268 396.978 527.376 397.767 529.574 398.308C531.772 398.85 533.903 399.165 535.966 399.256C538.029 399.346 539.891 399.21 541.551 398.85C543.255 398.444 544.601 397.835 545.588 397.023C546.575 396.211 547.068 395.151 547.068 393.843C547.068 392.399 546.462 391.362 545.251 390.731C544.085 390.054 542.537 389.716 540.609 389.716H528.565L528.564 379.905H539.532C541.326 379.905 542.717 379.544 543.703 378.823C544.69 378.101 545.184 377.131 545.184 375.913C545.183 374.741 544.757 373.816 543.905 373.139C543.053 372.418 541.909 371.922 540.474 371.651C539.038 371.335 537.423 371.222 535.629 371.313C533.835 371.403 531.973 371.741 530.044 372.327C528.116 372.869 526.254 373.613 524.46 374.56L520.557 364.547C523.742 362.968 527.084 361.886 530.583 361.299C534.081 360.713 537.49 360.577 540.81 360.893C544.129 361.209 547.134 361.953 549.826 363.126C552.517 364.254 554.648 365.765 556.218 367.659C557.833 369.553 558.64 371.786 558.64 374.357C558.64 376.613 558.035 378.62 556.824 380.379C555.613 382.138 553.975 383.514 551.912 384.506C549.849 385.498 547.471 385.994 544.78 385.994L545.116 383.153C548.211 383.153 550.903 383.694 553.191 384.777C555.523 385.859 557.317 387.348 558.573 389.242C559.874 391.091 560.525 393.234 560.525 395.67C560.525 397.97 559.919 400.022 558.708 401.827C557.542 403.586 555.905 405.074 553.797 406.292C551.688 407.51 549.266 408.412 546.53 408.998C543.839 409.63 540.945 409.923 537.85 409.878C534.755 409.878 531.615 409.495 528.43 408.728C525.291 407.961 522.24 406.833 519.28 405.345ZM588.587 408.998L588.587 402.165L587.712 400.473L587.712 387.889C587.712 385.859 587.084 384.303 585.828 383.22C584.616 382.093 582.665 381.529 579.974 381.529C578.224 381.529 576.453 381.822 574.658 382.409C572.864 382.95 571.339 383.717 570.083 384.709L565.777 375.981C567.84 374.628 570.307 373.59 573.178 372.869C576.094 372.102 578.987 371.719 581.858 371.719C587.779 371.719 592.354 373.094 595.584 375.846C598.858 378.552 600.495 382.815 600.496 388.633L600.496 408.998H588.587ZM577.821 409.607C574.906 409.607 572.439 409.111 570.42 408.119C568.401 407.127 566.854 405.773 565.777 404.059C564.746 402.345 564.23 400.428 564.23 398.308C564.23 396.053 564.79 394.114 565.912 392.49C567.078 390.821 568.85 389.558 571.227 388.701C573.604 387.799 576.677 387.348 580.445 387.348H589.057L589.057 394.046H582.194C580.131 394.046 578.673 394.384 577.821 395.061C577.014 395.737 576.61 396.639 576.61 397.767C576.61 398.895 577.036 399.797 577.888 400.473C578.741 401.15 579.907 401.488 581.387 401.488C582.778 401.488 584.034 401.15 585.155 400.473C586.321 399.752 587.174 398.669 587.712 397.226L589.461 401.962C588.789 404.488 587.465 406.405 585.492 407.713C583.563 408.976 581.006 409.607 577.821 409.607Z" fill="#5F6061"/>
<path d="M878.075 400.998L878.074 366.311H906.968L906.969 375.975H887.493L890.103 373.351L890.103 400.998H878.075ZM933.402 401.574C930.474 401.574 927.971 400.934 925.892 399.654C923.813 398.332 922.222 396.369 921.118 393.767C920.058 391.121 919.527 387.751 919.527 383.655C919.527 379.516 920.036 376.146 921.054 373.543C922.073 370.898 923.6 368.935 925.637 367.655C927.716 366.375 930.304 365.735 933.401 365.735C936.541 365.735 939.384 366.482 941.93 367.975C944.518 369.426 946.554 371.495 948.04 374.183C949.567 376.828 950.331 379.986 950.331 383.655C950.331 387.324 949.567 390.503 948.04 393.191C946.555 395.879 944.518 397.948 941.93 399.399C939.384 400.849 936.542 401.574 933.402 401.574ZM911.699 413.414L911.698 366.311H923.218L923.218 372.199L923.155 383.655L923.791 395.175L923.792 413.414H911.699ZM930.856 391.911C932.214 391.911 933.423 391.591 934.484 390.951C935.587 390.311 936.457 389.372 937.093 388.135C937.772 386.897 938.111 385.404 938.111 383.655C938.111 381.906 937.772 380.412 937.093 379.175C936.456 377.938 935.587 376.999 934.483 376.359C933.423 375.719 932.213 375.399 930.856 375.399C929.498 375.399 928.267 375.719 927.164 376.359C926.104 376.999 925.234 377.938 924.555 379.175C923.918 380.412 923.6 381.906 923.6 383.655C923.6 385.404 923.919 386.897 924.555 388.135C925.234 389.372 926.104 390.311 927.165 390.951C928.268 391.591 929.498 391.911 930.856 391.911ZM956.138 400.998L956.138 366.311H968.166L968.167 379.175H980.577L980.577 366.311H992.669L992.67 400.998H980.578L980.578 388.839H968.167L968.167 400.998H956.138ZM994.398 407.398L1015.4 347.112H1026.16L1005.15 407.398H994.398ZM1023.26 400.998L1023.26 366.311H1035.99L1048.02 388.967H1042.99L1056.17 366.311H1067.56L1067.62 400.998H1056.74L1056.74 378.343L1058.59 379.623L1047.89 397.927H1042.74L1032.05 378.727L1034.15 378.151L1034.15 400.998H1023.26ZM1075.78 400.998L1075.78 366.311H1087.87L1087.87 400.998H1075.78ZM1081.83 362.471C1079.62 362.471 1077.84 361.853 1076.48 360.615C1075.12 359.378 1074.44 357.842 1074.44 356.008C1074.44 354.173 1075.12 352.637 1076.48 351.4C1077.84 350.162 1079.62 349.544 1081.83 349.544C1084.03 349.544 1085.82 350.141 1087.17 351.336C1088.53 352.488 1089.21 353.981 1089.21 355.816C1089.21 357.736 1088.53 359.335 1087.17 360.615C1085.86 361.853 1084.08 362.471 1081.83 362.471ZM1113.36 401.574C1109.54 401.574 1106.12 400.806 1103.11 399.271C1100.14 397.735 1097.8 395.623 1096.11 392.935C1094.41 390.204 1093.56 387.089 1093.56 383.591C1093.56 380.092 1094.41 376.999 1096.11 374.311C1097.8 371.623 1100.14 369.533 1103.11 368.039C1106.12 366.503 1109.54 365.735 1113.35 365.735C1117.26 365.735 1120.63 366.567 1123.47 368.231C1126.32 369.895 1128.33 372.242 1129.52 375.271L1120.16 380.071C1119.36 378.45 1118.36 377.276 1117.17 376.551C1115.99 375.783 1114.69 375.399 1113.29 375.399C1111.89 375.399 1110.62 375.719 1109.47 376.359C1108.33 376.999 1107.41 377.938 1106.74 379.175C1106.1 380.37 1105.78 381.842 1105.78 383.591C1105.78 385.383 1106.1 386.897 1106.74 388.135C1107.41 389.372 1108.33 390.311 1109.47 390.951C1110.62 391.591 1111.89 391.911 1113.29 391.911C1114.69 391.911 1115.99 391.548 1117.17 390.823C1118.36 390.055 1119.36 388.86 1120.16 387.239L1129.52 392.039C1128.33 395.068 1126.32 397.415 1123.47 399.079C1120.63 400.742 1117.26 401.574 1113.36 401.574Z" fill="#5F6061"/>
</g>
<defs>
<filter id="filter0_d_1322_6" x="0.000488281" y="0" width="1188" height="489" filterUnits="userSpaceOnUse" color-interpolation-filters="sRGB">
<feFlood flood-opacity="0" result="BackgroundImageFix"/>
<feColorMatrix in="SourceAlpha" type="matrix" values="0 0 0 0 0 0 0 0 0 0 0 0 0 0 0 0 0 0 127 0" result="hardAlpha"/>
<feOffset dy="4"/>
<feGaussianBlur stdDeviation="14.5"/>
<feColorMatrix type="matrix" values="0 0 0 0 0.901961 0 0 0 0 0.890196 0 0 0 0 0.890196 0 0 0 1 0"/>
<feBlend mode="normal" in2="BackgroundImageFix" result="effect1_dropShadow_1322_6"/>
<feBlend mode="normal" in="SourceGraphic" in2="effect1_dropShadow_1322_6" result="shape"/>
</filter>
<linearGradient id="paint0_linear_1322_6" x1="376.8" y1="252.726" x2="376.803" y2="235.407" gradientUnits="userSpaceOnUse">
<stop stop-color="#F58A76"/>
<stop offset="1" stop-color="#F8AA9B"/>
</linearGradient>
<linearGradient id="paint1_linear_1322_6" x1="376.709" y1="233.847" x2="376.717" y2="202.946" gradientUnits="userSpaceOnUse">
<stop stop-color="#F9B2A5"/>
<stop offset="1" stop-color="#FBCDC3"/>
</linearGradient>
<linearGradient id="paint2_linear_1322_6" x1="393.665" y1="424.809" x2="393.231" y2="420.692" gradientUnits="userSpaceOnUse">
<stop stop-color="#F9B2A5"/>
<stop offset="1" stop-color="#FBCDC3"/>
</linearGradient>
<linearGradient id="paint3_linear_1322_6" x1="371.612" y1="422.434" x2="371.203" y2="418.551" gradientUnits="userSpaceOnUse">
<stop stop-color="#F9B2A5"/>
<stop offset="1" stop-color="#FBCDC3"/>
</linearGradient>
<linearGradient id="paint4_linear_1322_6" x1="330.781" y1="251.939" x2="329.715" y2="242.283" gradientUnits="userSpaceOnUse">
<stop stop-color="#F9B2A5"/>
<stop offset="1" stop-color="#FBCDC3"/>
</linearGradient>
<linearGradient id="paint5_linear_1322_6" x1="322.484" y1="255.66" x2="331.923" y2="254.624" gradientUnits="userSpaceOnUse">
<stop stop-color="#F9B2A5"/>
<stop offset="1" stop-color="#FBCDC3"/>
</linearGradient>
<linearGradient id="paint6_linear_1322_6" x1="400.615" y1="312.602" x2="397.794" y2="328.121" gradientUnits="userSpaceOnUse">
<stop stop-color="#F9B2A5"/>
<stop offset="1" stop-color="#FBCDC3"/>
</linearGradient>
</defs>
</svg>
