<svg width="1189" height="489" viewBox="0 0 1189 489" fill="none" xmlns="http://www.w3.org/2000/svg">
<g filter="url(#filter0_d_1322_85)">
<rect x="49" y="25" width="1110" height="431" rx="10" fill="white"/>
<path d="M648.45 59.8H657.42V92H648.45V59.8ZM694.943 59.8V92H685.835V79.442H673.415V92H664.307V59.8H673.415V71.898H685.835V59.8H694.943ZM727.806 67.022H717.962V92H708.992V67.022H699.102V59.8H727.806V67.022ZM757.857 84.962V92H732.005V59.8H757.259V66.838H741.021V72.266H755.327V79.074H741.021V84.962H757.857ZM777.766 59.8C780.679 59.8 783.209 60.2907 785.356 61.272C787.502 62.2227 789.158 63.6027 790.324 65.412C791.489 67.1907 792.072 69.2913 792.072 71.714C792.072 74.1367 791.489 76.2373 790.324 78.016C789.158 79.7947 787.502 81.1747 785.356 82.156C783.209 83.1067 780.679 83.582 777.766 83.582H772.154V92H763.046V59.8H777.766ZM777.214 76.406C779.084 76.406 780.495 76.0073 781.446 75.21C782.396 74.382 782.872 73.2167 782.872 71.714C782.872 70.2113 782.396 69.046 781.446 68.218C780.495 67.39 779.084 66.976 777.214 66.976H772.154V76.406H777.214ZM826.834 59.8V92H817.726V79.442H805.306V92H796.198V59.8H805.306V71.898H817.726V59.8H826.834ZM859.605 84.962V92H833.753V59.8H859.007V66.838H842.769V72.266H857.075V79.074H842.769V84.962H859.605ZM890.738 67.022H880.894V92H871.924V67.022H862.034V59.8H890.738V67.022Z" fill="white"/>
<path d="M152 102L29 102L29 48L165 48L152 74.999L165 102.001H152V102Z" fill="#8B6CB0"/>
<path d="M59.2199 80.001H52.7199L51.4799 83.001H48.1599L54.3999 69.001H57.5999L63.8599 83.001H60.4599L59.2199 80.001ZM58.1999 77.541L55.9799 72.181L53.7599 77.541H58.1999ZM71.1364 77.361H68.8964V83.001H65.6764V69.001H68.8964V74.661H71.2164L74.8964 69.001H78.3164L73.7364 75.761L78.4564 83.001H74.7764L71.1364 77.361ZM94.6543 80.361V85.961H91.6743V83.001H79.9743V69.001H83.1943V80.361H89.4343V69.001H92.6543V80.361H94.6543ZM96.7907 69.001H100.011V83.001H96.7907V69.001ZM114.67 69.001V83.001H111.47V79.281H108.51L106.03 83.001H102.61L105.53 78.781C104.583 78.3943 103.857 77.8143 103.35 77.041C102.843 76.2543 102.59 75.3143 102.59 74.221C102.59 73.141 102.837 72.2143 103.33 71.441C103.823 70.6543 104.523 70.0543 105.43 69.641C106.337 69.2143 107.403 69.001 108.63 69.001H114.67ZM108.71 71.641C107.79 71.641 107.083 71.8543 106.59 72.281C106.11 72.7076 105.87 73.341 105.87 74.181C105.87 74.9943 106.103 75.621 106.57 76.061C107.037 76.501 107.723 76.721 108.63 76.721H111.47V71.641H108.71ZM117.477 69.001H121.197L120.577 78.141H118.097L117.477 69.001ZM119.337 83.161C118.791 83.161 118.331 82.9876 117.957 82.641C117.597 82.281 117.417 81.8476 117.417 81.341C117.417 80.8343 117.597 80.4143 117.957 80.081C118.317 79.7343 118.777 79.561 119.337 79.561C119.897 79.561 120.357 79.7343 120.717 80.081C121.077 80.4143 121.257 80.8343 121.257 81.341C121.257 81.8476 121.071 82.281 120.697 82.641C120.337 82.9876 119.884 83.161 119.337 83.161Z" fill="white"/>
<path fill-rule="evenodd" clip-rule="evenodd" d="M472.449 290.383C497.142 304.64 528.28 296.33 542.509 271.685C556.737 247.04 548.365 215.919 523.672 201.662C498.978 187.405 467.84 195.716 453.612 220.36C439.79 244.301 447.755 276.126 472.449 290.383Z" fill="#56AABF"/>
<path fill-rule="evenodd" clip-rule="evenodd" d="M476.464 241.065L513.857 262.654L526.866 240.122L489.473 218.533L476.464 241.065ZM468.979 244.254L487.679 211.864L533.539 238.341L514.838 270.731L495.083 259.326L492.238 264.255L495.765 266.292C496.471 266.699 496.77 267.81 496.363 268.515L495.144 270.627C494.737 271.331 493.625 271.628 492.92 271.221L478.103 262.666C477.398 262.259 477.099 261.148 477.505 260.443L478.725 258.331C479.132 257.627 480.244 257.33 480.949 257.737L484.477 259.774L487.323 254.845L468.979 244.254Z" fill="white"/>
<path fill-rule="evenodd" clip-rule="evenodd" d="M94.7824 367.709C70.2162 350.496 49.8314 307.725 99.4866 277.994C130.325 259.216 142.347 280.08 159.595 212.272C173.185 158.548 185.73 118.385 251.588 142.378C275.632 151.245 295.494 181.498 356.648 161.156C430.869 136.641 452.3 183.584 429.301 233.136C411.53 271.213 394.281 288.426 413.098 322.33C476.866 436.038 405.78 419.868 278.768 420.39C161.686 420.912 123.007 388.051 94.7824 367.709Z" fill="#F8F6FB"/>
<path fill-rule="evenodd" clip-rule="evenodd" d="M278.768 397.961C272.496 397.961 267.269 395.353 263.087 391.702C258.906 387.529 256.292 382.313 256.292 376.054C256.292 369.795 258.906 364.579 262.564 360.406C266.746 356.233 271.973 354.147 278.245 354.147C284.517 354.147 289.744 356.755 293.926 360.406C298.107 364.579 300.721 369.795 300.721 376.054C300.721 382.313 298.107 387.529 294.448 391.702C290.267 395.353 285.04 397.961 278.768 397.961ZM186.252 268.083C181.548 273.299 173.185 273.821 167.958 268.605C162.732 263.91 162.209 255.565 167.436 250.349C179.98 236.787 197.229 225.834 216.568 218.01C235.385 210.707 256.292 206.535 278.245 206.535C300.721 206.535 322.151 210.707 340.967 218.01C360.829 225.834 377.555 237.309 390.623 251.392C395.327 256.608 394.804 264.954 389.577 269.648C384.35 274.342 375.987 273.821 371.283 268.605C361.352 257.651 347.762 248.263 331.559 242.003C315.878 235.744 297.584 232.093 278.245 232.093C259.428 232.093 241.134 235.744 225.976 241.482C209.773 248.263 196.183 257.651 186.252 268.083ZM219.182 306.16C225.454 298.858 234.339 292.598 244.27 288.426C254.202 284.253 265.701 282.166 278.245 282.166C290.79 282.166 302.289 284.774 312.742 288.947H313.265C323.196 293.12 332.082 299.379 337.831 306.681C342.535 311.897 350.898 312.941 356.125 308.246C361.352 303.552 362.397 295.206 357.693 289.99C348.808 279.558 336.786 271.213 323.196 265.475L322.673 264.954C309.606 259.216 294.448 256.086 278.245 256.086C262.564 256.086 247.407 259.216 234.339 264.432C220.227 270.17 208.205 278.515 199.32 288.947C194.615 294.163 195.138 302.509 200.365 307.203C206.114 311.897 214.477 311.376 219.182 306.16ZM252.633 343.193C248.452 348.931 240.089 349.974 234.339 345.801C228.59 341.629 227.545 333.283 231.726 327.545C236.953 320.765 244.271 315.027 252.633 310.854C260.474 307.203 269.359 305.117 278.768 305.117C288.176 305.117 297.062 307.203 305.425 311.376C313.788 315.549 321.105 321.286 326.332 328.589C330.514 334.326 329.468 342.672 323.719 346.845C317.969 351.017 309.606 349.974 305.425 344.237C302.811 340.585 298.63 337.456 294.448 335.369C289.744 333.283 285.04 332.24 279.29 332.24C274.064 332.24 268.837 333.283 264.133 335.369C258.906 336.413 255.247 339.542 252.633 343.193Z" fill="#B39CCE"/>
<path fill-rule="evenodd" clip-rule="evenodd" d="M278.768 394.31C272.496 394.31 267.269 391.702 263.087 388.051C258.906 383.878 256.292 378.662 256.292 372.403C256.292 366.144 258.906 360.928 262.564 356.755C266.746 352.582 271.973 350.496 278.245 350.496C284.517 350.496 289.744 353.104 293.926 356.755C298.107 360.928 300.721 366.144 300.721 372.403C300.721 378.662 298.107 383.878 294.448 388.051C290.267 391.702 285.04 394.31 278.768 394.31ZM186.252 264.432C181.548 269.648 173.185 270.17 167.958 264.954C162.732 260.26 162.209 251.914 167.436 246.698C179.98 233.136 197.229 222.183 216.568 214.359C235.385 207.057 256.292 202.884 278.245 202.884C300.721 202.884 322.151 207.057 340.967 214.359C360.829 222.183 377.555 233.658 390.623 247.741C395.327 252.957 394.804 261.303 389.577 265.997C384.35 270.692 375.987 270.17 371.283 264.954C361.352 254 347.762 244.612 331.559 238.352C315.878 232.093 297.584 228.442 278.245 228.442C259.428 228.442 241.134 232.093 225.976 237.831C209.773 244.612 196.183 254 186.252 264.432ZM219.182 302.509C225.454 295.207 234.339 288.947 244.27 284.775C254.202 280.602 265.701 278.515 278.245 278.515C290.79 278.515 302.289 281.123 312.742 285.296H313.265C323.196 289.469 332.082 295.728 337.831 303.031C342.535 308.247 350.898 309.29 356.125 304.595C361.352 299.901 362.397 291.555 357.693 286.339C348.808 275.908 336.786 267.562 323.196 261.824L322.673 261.303C309.606 255.565 294.448 252.436 278.245 252.436C262.564 252.436 247.407 255.565 234.339 260.781C220.227 266.519 208.205 274.864 199.32 285.296C194.615 290.512 195.138 298.858 200.365 303.552C206.114 308.247 214.477 307.725 219.182 302.509ZM252.633 339.542C248.452 345.28 240.089 346.323 234.339 342.15C228.59 337.978 227.545 329.632 231.726 323.895C236.953 317.114 244.271 311.376 252.633 307.203C260.474 303.552 269.359 301.466 278.768 301.466C288.176 301.466 297.062 303.552 305.425 307.725C313.788 311.898 321.105 317.635 326.332 324.938C330.514 330.675 329.468 339.021 323.719 343.194C317.969 347.366 309.606 346.323 305.425 340.586C302.811 336.934 298.63 333.805 294.448 331.718C289.744 329.632 285.04 328.589 279.29 328.589C274.064 328.589 268.837 329.632 264.133 331.718C258.906 332.762 255.247 335.891 252.633 339.542Z" fill="#C5B0DF"/>
<path fill-rule="evenodd" clip-rule="evenodd" d="M312.22 141.335C312.22 140.292 314.31 139.249 315.356 137.684C315.879 136.641 316.401 135.076 316.924 134.033C316.924 133.511 316.924 132.989 316.401 131.946C315.879 130.381 316.924 129.86 317.447 130.903C317.969 131.425 319.015 132.468 319.015 134.033C319.537 133.511 319.537 133.511 320.06 132.989C321.628 131.946 323.196 133.511 322.673 134.554C323.719 134.033 324.764 136.119 324.241 136.641C325.287 136.641 325.81 138.205 325.287 138.727C326.332 139.249 326.332 139.77 325.81 140.813C324.242 141.857 323.196 142.378 322.151 142.9C321.105 143.421 319.537 143.421 318.492 143.943C317.447 144.986 315.356 146.551 314.31 145.508C313.265 144.465 312.22 142.9 312.22 141.335Z" fill="url(#paint0_linear_1322_85)"/>
<path fill-rule="evenodd" clip-rule="evenodd" d="M269.882 147.073C270.928 148.116 273.018 149.681 274.064 149.681C287.654 152.289 287.654 151.767 292.88 151.767C296.016 149.681 301.766 148.116 312.742 139.771C313.788 140.814 315.879 143.943 316.401 146.03C308.038 152.81 300.721 158.548 296.016 160.113C291.312 161.678 287.654 163.242 278.245 162.721C277.722 162.721 275.109 162.721 272.496 164.286C271.973 163.764 269.36 147.073 269.882 147.073Z" fill="#5983B1"/>
<path fill-rule="evenodd" clip-rule="evenodd" d="M300.721 254.523L303.334 247.741L309.606 250.349L307.516 257.131C306.993 257.131 301.243 255.044 300.721 254.523Z" fill="url(#paint1_linear_1322_85)"/>
<path fill-rule="evenodd" clip-rule="evenodd" d="M345.149 220.097L339.399 216.446L343.058 212.272L351.421 218.011L350.376 219.054C350.376 219.054 345.672 220.097 345.149 220.097Z" fill="url(#paint2_linear_1322_85)"/>
<path fill-rule="evenodd" clip-rule="evenodd" d="M301.243 252.436C303.857 255.565 307.515 254.522 308.561 256.087C310.652 260.781 311.174 261.824 314.833 263.911C318.492 265.997 319.537 270.691 314.833 268.605C305.947 264.954 298.63 262.346 296.539 260.26C295.494 259.216 296.016 252.436 301.243 252.436Z" fill="#37254D"/>
<path fill-rule="evenodd" clip-rule="evenodd" d="M343.581 219.053C347.24 219.575 349.33 216.967 350.898 216.967C355.08 219.053 356.125 219.575 360.307 219.053C363.966 218.532 367.624 221.14 362.92 222.704C354.035 225.312 347.24 227.92 344.626 227.92C343.581 227.92 340.445 222.183 343.581 219.053Z" fill="#37254D"/>
<path fill-rule="evenodd" clip-rule="evenodd" d="M291.312 189.844L320.06 191.93C321.105 191.93 321.105 194.017 320.06 194.017L291.312 191.93C289.744 191.93 290.267 189.844 291.312 189.844Z" fill="#8A6CAF"/>
<path fill-rule="evenodd" clip-rule="evenodd" d="M339.922 219.053C342.013 216.967 344.104 214.881 346.194 212.794C340.967 208.621 328.946 198.711 324.242 196.625C318.492 194.017 313.788 194.017 302.289 193.495C293.403 192.973 283.995 191.93 276.154 191.409C273.018 192.973 270.928 194.017 267.269 196.103C273.018 197.668 304.379 209.665 307.516 209.665C316.924 207.057 316.924 205.492 320.06 207.057C326.332 210.186 333.127 214.359 339.922 219.053Z" fill="#715198"/>
<path fill-rule="evenodd" clip-rule="evenodd" d="M271.973 192.974C287.131 198.19 296.539 200.798 311.697 206.014C320.06 208.622 322.673 212.794 319.537 222.705C316.401 234.18 313.788 240.439 310.652 251.914C307.516 250.349 303.857 250.349 301.243 248.263C302.811 239.396 303.334 234.18 304.902 225.313C305.948 216.967 305.948 216.446 299.153 214.881C288.699 212.273 281.904 211.751 270.928 210.186C259.951 208.1 253.679 204.449 254.724 196.103C259.951 194.538 266.746 194.538 271.973 192.974Z" fill="#67498B"/>
<path fill-rule="evenodd" clip-rule="evenodd" d="M328.946 169.502L319.015 192.452C318.492 193.495 320.06 194.538 320.583 192.974L330.514 169.502C331.559 169.502 329.468 168.459 328.946 169.502Z" fill="#8A6CAF"/>
<path fill-rule="evenodd" clip-rule="evenodd" d="M273.541 151.246L272.496 149.159L274.064 144.465L268.314 140.292L266.223 144.986L263.61 148.116L271.45 159.07L273.541 151.246Z" fill="url(#paint3_linear_1322_85)"/>
<path fill-rule="evenodd" clip-rule="evenodd" d="M290.267 125.688C286.608 115.777 278.768 113.169 268.837 118.907C256.293 147.595 287.131 156.984 290.267 125.688Z" fill="url(#paint4_linear_1322_85)"/>
<path fill-rule="evenodd" clip-rule="evenodd" d="M266.223 144.986C266.223 150.724 269.36 152.81 273.018 153.853C274.064 151.246 274.064 150.202 273.018 148.638C279.813 154.375 282.949 160.634 281.904 171.066C281.381 176.282 279.813 180.455 280.336 190.887C275.109 198.189 263.61 200.276 255.247 196.625C255.247 181.498 237.998 156.983 266.223 144.986Z" fill="#5983B1"/>
<path fill-rule="evenodd" clip-rule="evenodd" d="M293.926 183.585C295.494 184.106 296.017 185.15 297.585 184.106C299.153 183.063 300.721 183.063 301.766 183.585C305.425 184.106 304.902 184.628 307.516 188.801C309.606 192.453 307.516 192.453 305.948 189.845C303.857 186.193 301.243 187.758 298.107 188.28C296.539 188.28 294.971 188.28 293.403 187.758C293.403 186.193 293.403 185.15 293.926 183.585Z" fill="url(#paint5_linear_1322_85)"/>
<path fill-rule="evenodd" clip-rule="evenodd" d="M274.064 174.718C282.949 177.326 282.427 179.934 293.926 181.499C294.448 184.628 293.926 187.236 292.88 189.323C288.176 188.801 279.813 188.801 273.541 185.671C264.133 180.977 266.746 172.631 274.064 174.718Z" fill="#5983B1"/>
<path fill-rule="evenodd" clip-rule="evenodd" d="M293.926 119.95C292.88 112.126 286.085 115.255 285.04 115.255C281.904 116.298 280.859 112.126 274.064 113.169C267.791 114.212 266.746 114.734 265.178 117.342C263.087 121.514 265.178 127.252 264.655 129.338C264.655 129.86 262.565 136.641 266.746 141.857C267.791 140.292 268.314 137.162 269.359 135.076C268.314 134.554 267.269 133.511 268.314 131.425C269.359 129.338 270.927 131.425 271.45 130.903C271.973 129.86 273.018 129.338 274.064 129.338C282.949 125.166 287.131 131.946 289.744 130.382C291.835 129.86 294.971 125.687 293.926 119.95Z" fill="#37254D"/>
<path fill-rule="evenodd" clip-rule="evenodd" d="M264.133 156.461C264.655 171.066 263.61 170.023 276.677 175.239C265.701 168.458 266.746 170.023 264.133 156.461Z" fill="#456F9B"/>
<path fill-rule="evenodd" clip-rule="evenodd" d="M150.71 416.218L149.142 409.958L142.347 411.001L143.915 416.739C144.437 416.739 150.187 416.218 150.71 416.218Z" fill="url(#paint6_linear_1322_85)"/>
<path fill-rule="evenodd" clip-rule="evenodd" d="M132.416 414.132L130.848 407.872L124.575 408.915L126.144 414.654C125.621 414.654 131.37 414.132 132.416 414.132Z" fill="url(#paint7_linear_1322_85)"/>
<path fill-rule="evenodd" clip-rule="evenodd" d="M150.71 414.653C147.051 416.218 143.915 414.653 142.347 415.174C138.688 418.304 137.643 419.348 133.461 419.348C129.28 419.869 126.666 423.521 131.893 423.521C141.301 423.521 149.142 423.521 151.755 422.999C153.323 421.956 154.891 416.218 150.71 414.653Z" fill="#37254D"/>
<path fill-rule="evenodd" clip-rule="evenodd" d="M131.893 412.566C128.757 414.131 125.621 412.566 124.053 413.088C120.917 416.218 119.871 416.74 115.69 417.261C111.508 417.783 109.418 421.434 114.122 421.434C123.007 421.434 130.325 421.434 132.939 420.913C134.507 419.87 136.075 414.131 131.893 412.566Z" fill="#37254D"/>
<path fill-rule="evenodd" clip-rule="evenodd" d="M132.939 408.393C130.325 409.958 124.576 411.523 121.962 409.436C115.69 365.101 116.213 351.017 114.122 316.592C117.781 316.592 124.053 316.592 132.416 315.549C131.37 337.978 127.712 355.19 132.939 408.393Z" fill="#5983B1"/>
<path fill-rule="evenodd" clip-rule="evenodd" d="M152.8 410.48C149.142 412.044 143.915 413.609 139.211 412.566C131.893 367.187 132.938 355.19 129.802 320.243C134.506 320.243 141.824 318.678 151.232 317.635C150.187 340.064 146.528 355.712 152.8 410.48Z" fill="#4B75A2"/>
<path fill-rule="evenodd" clip-rule="evenodd" d="M118.826 265.476C118.303 265.997 123.007 261.824 124.053 261.824C129.802 261.303 136.597 261.303 142.347 263.389C153.846 267.562 157.505 265.476 150.71 254.522C147.574 249.306 150.71 244.09 152.278 238.874C156.459 225.834 148.096 213.837 135.029 213.837C126.143 213.837 110.986 219.053 116.212 236.266C118.826 244.09 119.871 249.306 118.303 252.957C113.599 263.389 123.53 258.173 118.826 265.476Z" fill="#37254D"/>
<path fill-rule="evenodd" clip-rule="evenodd" d="M141.824 258.173L138.688 267.04L133.984 273.3L126.144 266.519L123.53 258.173L129.802 257.13V251.914H136.075V257.13L141.824 258.173Z" fill="url(#paint8_linear_1322_85)"/>
<path fill-rule="evenodd" clip-rule="evenodd" d="M121.44 230.007C128.234 220.618 136.075 220.097 144.96 227.921C149.665 261.825 116.213 264.433 121.44 230.007Z" fill="url(#paint9_linear_1322_85)"/>
<path fill-rule="evenodd" clip-rule="evenodd" d="M119.349 235.223C127.712 225.834 141.824 238.353 141.301 227.921C143.915 231.05 145.483 236.788 144.96 243.569C147.051 239.918 147.574 237.31 147.051 232.615C146.006 222.705 141.301 219.575 135.552 219.054C121.962 218.532 118.303 225.834 119.349 235.223Z" fill="#37254D"/>
<path fill-rule="evenodd" clip-rule="evenodd" d="M94.7822 273.821C95.3049 272.256 95.8276 272.256 95.3049 270.17C94.7822 267.562 95.3049 266.519 96.3503 265.997C98.9637 264.432 97.9183 265.997 97.9183 267.562C97.9183 269.127 98.441 270.692 98.441 272.778C98.441 274.343 98.9637 274.864 99.4864 275.908C100.009 278.516 101.054 281.645 98.441 282.688C97.9183 280.08 96.3503 276.951 94.7822 273.821Z" fill="url(#paint10_linear_1322_85)"/>
<path fill-rule="evenodd" clip-rule="evenodd" d="M92.1689 283.21C95.305 283.21 97.3958 283.21 100.009 282.688C100.532 282.166 100.009 280.602 99.4865 280.602C100.009 280.08 100.009 278.515 98.9638 277.994C99.4865 277.472 99.4865 275.386 98.4412 274.864C99.4865 273.299 98.4412 271.734 96.8731 271.734C93.737 272.256 90.6009 272.256 90.0782 275.907C89.5555 279.558 89.5555 283.21 92.1689 283.21Z" fill="url(#paint11_linear_1322_85)"/>
<path fill-rule="evenodd" clip-rule="evenodd" d="M123.53 258.695C109.418 265.997 107.85 268.605 102.623 288.426C101.577 286.861 100.532 284.775 100.009 283.21C97.9185 283.21 94.7824 283.732 92.1689 283.732C98.4412 304.074 102.623 308.768 108.895 301.466C110.986 298.858 112.554 296.25 115.69 289.469C118.303 299.379 113.599 300.944 113.599 317.114C121.439 324.416 142.869 323.895 151.755 317.635C151.755 311.376 148.096 306.16 149.664 300.423C155.414 302.509 156.459 301.987 158.55 301.987C170.572 300.944 164.3 287.383 160.118 275.908C157.505 269.127 152.278 260.26 141.824 258.695C139.211 262.868 136.597 266.519 133.984 270.692C130.325 266.519 127.189 262.346 123.53 258.695Z" fill="#56A9BE"/>
<path fill-rule="evenodd" clip-rule="evenodd" d="M138.165 287.382H129.279C128.757 287.382 127.711 286.861 127.711 285.818V268.605C127.711 267.562 128.234 267.04 129.279 267.04H138.165C138.688 267.04 139.733 267.562 139.733 268.605V285.818C139.733 286.861 138.688 287.382 138.165 287.382Z" fill="white"/>
<path fill-rule="evenodd" clip-rule="evenodd" d="M137.643 269.127C138.165 269.127 138.688 269.649 138.688 270.17C138.688 270.692 138.165 271.214 137.643 271.214C137.12 271.214 136.597 270.692 136.597 270.17C136.597 269.649 137.12 269.127 137.643 269.127ZM135.552 269.649C135.552 269.649 136.075 269.649 135.552 269.649C136.075 270.17 135.552 270.692 135.552 270.692C135.029 270.17 135.029 270.17 135.552 269.649C135.029 269.649 135.029 269.649 135.552 269.649Z" fill="#6C528B"/>
<path fill-rule="evenodd" clip-rule="evenodd" d="M134.506 293.642C131.893 293.12 129.802 290.512 128.757 289.469C127.189 287.904 125.621 285.818 126.666 284.253C126.143 283.21 126.143 282.167 126.666 281.645C126.143 280.602 126.144 279.559 127.712 278.515C128.234 280.08 128.757 280.602 129.28 281.645C130.325 284.775 130.848 284.775 132.416 285.818C133.461 286.339 132.938 285.296 132.938 284.775C132.416 283.731 131.893 282.688 131.37 281.645C130.848 281.123 130.325 280.08 129.802 279.037C127.712 275.907 129.802 275.907 130.848 277.472C131.893 278.515 132.938 279.559 133.461 280.08C135.029 282.688 134.506 283.21 137.12 284.253C138.165 283.21 137.643 282.688 137.643 281.123C137.12 278.515 137.643 277.472 139.211 276.951C139.211 277.472 139.211 279.037 139.733 279.559C141.824 282.688 140.779 283.21 140.779 287.904C140.256 288.947 142.347 288.947 142.347 289.991C142.347 291.555 140.779 293.12 139.211 294.163C138.165 295.207 136.597 293.642 134.506 293.642Z" fill="url(#paint12_linear_1322_85)"/>
<path fill-rule="evenodd" clip-rule="evenodd" d="M148.096 272.778C148.096 277.994 149.142 280.08 150.187 282.688C151.755 287.383 153.323 289.991 145.483 289.991C156.459 291.555 154.891 289.469 151.232 282.167C149.664 280.08 148.619 277.994 148.096 272.778Z" fill="#4998AC"/>
<path fill-rule="evenodd" clip-rule="evenodd" d="M412.575 343.194L411.007 353.626H394.281V343.194L398.463 342.672V337.456H408.394V342.672L412.575 343.194Z" fill="url(#paint13_linear_1322_85)"/>
<path fill-rule="evenodd" clip-rule="evenodd" d="M403.167 341.629C396.895 341.629 391.668 334.849 391.668 325.46C391.668 316.071 388.009 307.725 403.167 308.769C418.325 309.812 414.666 316.071 414.666 325.46C415.189 334.849 409.962 341.629 403.167 341.629Z" fill="url(#paint14_linear_1322_85)"/>
<path fill-rule="evenodd" clip-rule="evenodd" d="M392.713 311.898C391.668 316.592 391.668 319.2 391.668 323.895C388.532 319.2 387.486 317.635 387.486 312.419C387.486 304.074 386.964 300.423 392.713 300.944C398.463 301.466 394.804 298.858 404.212 297.815C410.485 297.293 409.962 300.423 417.802 298.858C423.029 297.815 424.075 307.725 418.325 316.071C417.28 317.635 417.28 319.722 414.666 323.895C414.666 317.114 414.143 313.463 412.575 312.419C406.826 314.506 398.986 315.027 392.713 311.898Z" fill="#37254D"/>
<path fill-rule="evenodd" clip-rule="evenodd" d="M428.256 412.045C413.098 412.045 397.418 412.045 382.26 412.045C375.988 406.829 365.011 396.918 366.579 390.659C373.897 385.443 389.577 393.267 404.213 392.224C421.461 391.181 436.619 386.486 441.323 387.53C441.846 395.354 427.211 404.221 428.256 412.045Z" fill="#67498B"/>
<path fill-rule="evenodd" clip-rule="evenodd" d="M417.802 420.391C426.688 422.477 426.688 424.563 432.96 428.736C444.459 436.56 438.71 436.56 427.733 435.517C420.938 434.995 418.325 431.866 413.098 427.171C415.189 425.085 416.234 422.477 417.802 420.391Z" fill="#37254D"/>
<path fill-rule="evenodd" clip-rule="evenodd" d="M419.37 420.39C417.802 422.998 416.234 426.128 414.144 428.736C392.191 423.52 385.396 420.39 364.488 407.35C355.08 401.613 362.398 384.4 371.283 389.095C390.623 400.048 402.644 407.872 419.37 420.39Z" fill="#715198"/>
<path fill-rule="evenodd" clip-rule="evenodd" d="M394.281 343.194C396.372 355.191 410.485 355.191 412.053 343.194C417.802 342.672 426.688 347.888 430.347 353.104C433.483 357.799 446.027 377.619 439.232 387.53C437.142 388.051 432.96 389.094 428.779 390.659C430.869 388.051 433.483 381.27 431.915 379.706C429.824 377.619 426.688 375.011 425.643 368.231C424.074 372.925 427.211 383.357 426.688 388.573C426.688 390.138 426.688 391.181 426.688 391.702C424.597 392.746 422.506 394.31 421.461 396.397C414.666 396.397 409.439 404.742 402.644 404.742C396.372 404.742 385.396 396.397 379.123 396.397C375.987 390.659 377.033 391.181 373.897 389.616C367.624 382.314 373.897 358.32 377.033 353.626C381.737 348.41 389.577 344.237 394.281 343.194ZM380.692 369.795C379.646 376.576 376.51 379.184 374.419 381.271C372.329 383.878 380.169 400.048 379.123 390.138C379.646 384.922 382.26 374.49 380.692 369.795Z" fill="#8A6CAF"/>
<path fill-rule="evenodd" clip-rule="evenodd" d="M366.056 346.845C366.579 345.28 367.102 344.758 366.579 342.672C365.534 339.542 366.579 338.499 367.624 337.456C370.238 335.37 369.715 337.456 369.715 339.542C369.715 341.107 370.761 343.194 370.761 345.802C370.761 347.888 371.806 347.888 372.329 349.974C373.374 352.582 374.942 356.755 371.806 358.32C370.238 354.147 368.147 350.496 366.056 346.845Z" fill="url(#paint15_linear_1322_85)"/>
<path fill-rule="evenodd" clip-rule="evenodd" d="M363.443 358.841C367.102 358.841 369.193 358.841 372.851 357.798C373.374 357.277 372.851 355.712 372.329 355.19C372.851 354.669 372.851 352.582 371.283 352.061C372.329 351.539 371.806 348.931 370.761 348.409C371.806 346.845 370.761 344.758 368.67 344.758C364.488 345.28 361.352 345.801 360.83 349.974C360.307 354.147 360.83 358.841 363.443 358.841Z" fill="url(#paint16_linear_1322_85)"/>
<path fill-rule="evenodd" clip-rule="evenodd" d="M363.443 385.965C362.92 373.446 363.966 371.36 362.398 358.842C366.057 358.842 369.715 358.842 372.851 357.277C373.374 369.795 376.51 373.446 376.51 382.314C377.033 394.832 364.488 396.397 363.443 385.965Z" fill="#8A6CAF"/>
<path fill-rule="evenodd" clip-rule="evenodd" d="M419.37 420.391L418.325 421.955C413.621 423.52 409.439 425.085 404.735 426.128C397.418 424.042 391.668 421.955 385.918 419.347C391.145 415.175 395.849 411.002 401.599 407.351C407.349 411.523 413.098 415.696 419.37 420.391Z" fill="#67498B"/>
<path fill-rule="evenodd" clip-rule="evenodd" d="M390.623 419.347C381.737 421.434 381.737 424.042 375.465 427.693C363.966 435.517 369.715 435.517 380.692 434.473C387.487 433.952 390.1 430.822 395.327 426.128C393.759 424.042 392.191 421.955 390.623 419.347Z" fill="#37254D"/>
<path fill-rule="evenodd" clip-rule="evenodd" d="M389.055 419.347C390.623 421.955 392.191 425.085 394.282 427.693C416.234 422.477 423.029 419.347 443.937 406.307C453.345 400.569 446.027 383.357 437.142 388.051C417.802 399.005 406.303 406.829 389.055 419.347Z" fill="#715198"/>
<path fill-rule="evenodd" clip-rule="evenodd" d="M412.576 400.57C411.53 400.57 411.007 401.091 411.007 402.135C411.007 403.178 411.53 403.7 412.576 403.7C413.621 403.7 414.144 403.178 414.144 402.135C414.144 401.091 413.098 400.57 412.576 400.57ZM412.053 405.786C411.007 405.786 410.485 406.308 410.485 407.351C410.485 408.395 411.007 408.916 412.053 408.916C413.098 408.916 413.621 408.395 413.621 407.351C413.621 406.308 413.098 405.786 412.053 405.786ZM411.007 404.743C411.007 405.786 410.485 406.308 409.439 406.308C408.394 406.308 407.871 405.786 407.871 404.743C407.871 403.7 408.394 403.178 409.439 403.178C410.485 403.178 411.007 403.7 411.007 404.743ZM416.234 404.743C416.234 405.786 415.712 406.308 414.666 406.308C413.621 406.308 413.098 405.786 413.098 404.743C413.098 403.7 413.621 403.178 414.666 403.178C415.712 403.178 416.234 404.221 416.234 404.743Z" fill="#6C528B"/>
<path fill-rule="evenodd" clip-rule="evenodd" d="M391.668 404.221H393.236V402.656C393.236 402.656 393.236 402.134 393.759 402.134H394.804C394.804 402.134 395.327 402.134 395.327 402.656V404.221H396.895C396.895 404.221 397.418 404.221 397.418 404.743V405.786C397.418 405.786 397.418 406.307 396.895 406.307H395.327V407.872C395.327 407.872 395.327 408.394 394.804 408.394H393.759C393.759 408.394 393.236 408.394 393.236 407.872V406.307H391.668C391.668 406.307 391.146 406.307 391.146 405.786L391.668 404.221C391.145 404.221 391.145 404.221 391.668 404.221Z" fill="#6C528B"/>
<path fill-rule="evenodd" clip-rule="evenodd" d="M429.302 403.699C430.347 407.35 427.733 406.829 423.552 407.35C423.552 403.699 421.984 406.307 421.984 405.264C421.984 402.656 420.416 404.221 419.371 405.786C418.325 407.872 417.28 408.394 416.234 407.35C415.189 406.307 415.712 406.307 416.757 403.699C417.28 402.134 418.325 400.048 420.416 399.526C421.461 399.526 422.507 399.005 423.552 398.483C429.824 394.832 427.733 387.53 430.347 381.271C435.051 379.184 441.323 380.749 440.278 386.487C435.574 392.746 432.96 397.44 429.302 403.699Z" fill="url(#paint17_linear_1322_85)"/>
<path fill-rule="evenodd" clip-rule="evenodd" d="M430.347 408.915H376.51C374.942 408.915 373.897 407.351 372.851 405.786L369.715 399.527C368.67 397.962 368.67 396.397 373.374 396.397H433.483C438.187 396.397 438.187 397.962 437.142 399.527L434.006 405.786C432.96 407.351 431.915 408.915 430.347 408.915Z" fill="#B19ACE"/>
<path fill-rule="evenodd" clip-rule="evenodd" d="M430.347 408.915H376.51C374.942 408.915 373.374 407.35 373.374 405.786L370.238 370.839C370.238 369.274 371.806 367.709 373.374 367.709H433.483C435.051 367.709 437.142 369.274 436.619 370.839L433.483 405.786C433.483 407.35 431.915 408.915 430.347 408.915Z" fill="#C5B0DF"/>
<path fill-rule="evenodd" clip-rule="evenodd" d="M403.69 392.225C405.781 392.225 407.871 390.139 407.871 388.052C407.871 385.966 405.781 383.879 403.69 383.879C401.599 383.879 399.508 385.966 399.508 388.052C399.508 390.139 401.076 392.225 403.69 392.225Z" fill="#EDE2F9"/>
<path fill-rule="evenodd" clip-rule="evenodd" d="M408.211 328.569C406.967 328.569 405.914 328.117 405.148 327.393C404.478 326.76 404 325.856 403.904 324.951C403.33 325.042 402.66 325.042 402.086 324.951C401.99 325.946 401.512 326.76 400.842 327.393C400.076 328.117 398.928 328.569 397.779 328.569C396.535 328.569 395.483 328.117 394.717 327.393C393.952 326.67 393.473 325.584 393.473 324.499C393.473 324.318 393.473 324.228 393.473 324.047L391.463 323.414L391.559 322.51L393.76 323.233C393.952 322.6 394.334 322.058 394.813 321.605C395.578 320.882 396.727 320.43 397.875 320.43C399.119 320.43 400.172 320.882 400.938 321.605C401.607 322.238 402.086 323.143 402.182 324.138C402.852 324.228 403.426 324.228 404 324.138C404.096 323.143 404.574 322.329 405.244 321.696C406.01 320.972 407.158 320.52 408.306 320.52C409.55 320.52 410.603 320.972 411.369 321.696C411.847 322.148 412.23 322.691 412.421 323.324L414.718 322.691V323.595L412.613 324.138C412.613 324.228 412.613 324.409 412.613 324.499C412.613 325.675 412.134 326.67 411.369 327.393C410.507 328.117 409.455 328.569 408.211 328.569ZM400.172 326.76C400.746 326.127 401.225 325.313 401.225 324.409C401.225 323.504 400.842 322.691 400.172 322.148C399.598 321.515 398.736 321.153 397.779 321.153C396.823 321.153 395.961 321.515 395.387 322.148C394.813 322.781 394.334 323.595 394.334 324.409C394.334 325.313 394.717 326.127 395.387 326.76C395.961 327.393 396.823 327.755 397.779 327.755C398.641 327.664 399.502 327.303 400.172 326.76ZM405.818 326.76C406.392 327.393 407.254 327.755 408.211 327.755C409.168 327.755 410.029 327.393 410.603 326.76C411.177 326.127 411.656 325.313 411.656 324.409C411.656 323.504 411.273 322.691 410.603 322.148C410.029 321.515 409.168 321.153 408.211 321.153C407.254 321.153 406.392 321.515 405.818 322.148C405.244 322.781 404.765 323.595 404.765 324.409C404.765 325.313 405.148 326.127 405.818 326.76Z" fill="#37254D"/>
<path d="M384.109 121.263C394.663 142.224 420.287 150.641 441.342 140.062C462.396 129.483 470.909 103.914 460.355 82.9533C449.801 61.9923 424.177 53.5759 403.123 64.1549C382.068 74.7338 373.556 100.302 384.109 121.263Z" fill="#5984B2"/>
<path d="M442.765 106.359C449.368 103.127 450.908 99.9042 450.435 97.2333C449.475 91.8169 441.324 88.644 436.664 87.3904C429.356 80.5063 418.123 79.8577 410.098 85.9085C417.783 84.8007 421.964 85.235 424.316 86.0174C418.573 86.2375 410.505 87.6288 404.302 90.0898C399.871 91.848 392.201 96.5974 391.629 101.526C390.934 107.523 401.61 110.22 403.619 110.674C408.532 121.887 422.262 126.454 432.953 120.193L424.655 113.215C416.09 116.213 407.992 105.599 413.879 98.6012L436.467 117.596C439.706 114.618 441.923 110.685 442.765 106.359V106.359ZM442.934 105.357C443.566 100.959 442.769 96.4206 440.603 92.4741C449.485 94.738 452.056 100.338 442.934 105.357V105.357ZM394.667 102.022C395.165 100.062 397.557 97.5669 403.233 95.0334C401.485 99.6145 401.448 104.654 403.044 109.214C399.853 108.579 393.585 106.285 394.667 102.022V102.022ZM417.474 94.2565C420.639 90.7508 426.218 90.5044 430.082 93.7544C433.947 97.0042 434.66 102.542 431.748 106.259L417.474 94.2565Z" fill="white"/>
<path d="M295.861 54.1746C293.907 49.039 291.607 47.7142 286.504 48.0485C274.458 50.3086 260.498 53.5256 248.817 57.2345C244.098 59.2426 242.61 61.4713 243.084 66.9599C243.554 72.8616 245.999 83.3779 248.097 88.8924C250.204 94.4328 252.64 95.3672 257.993 94.8919C268.283 93.3479 285.223 89.1792 295.183 86.0192C299.902 84.0062 301.391 81.7801 300.916 76.2912C300.393 70.2497 298.011 59.828 295.861 54.1746ZM266.48 80.623L263.109 65.875L279.165 69.8181L266.48 80.623V80.623Z" fill="#DB662D"/>
<path fill-rule="evenodd" clip-rule="evenodd" d="M118.886 194.308H106.593L111.92 213.529L90.6117 194.308H78.3186C75.86 194.308 73.8112 192.263 73.8112 189.809V166.499C73.8112 164.045 75.86 162 78.3186 162H118.886C121.344 162 123.393 164.045 123.393 166.499V189.809C123.393 192.263 121.344 194.308 118.886 194.308Z" fill="#DC662D"/>
<path fill-rule="evenodd" clip-rule="evenodd" d="M98.8072 172.633C100.036 170.179 101.266 169.361 103.315 169.361C105.773 169.361 107.822 171.406 107.822 173.86C107.822 178.358 103.315 182.857 98.8072 187.355C94.2997 182.448 89.7922 177.949 89.7922 173.451C89.7922 170.997 91.8411 168.952 94.2997 168.952C96.3485 168.952 97.5779 170.179 98.8072 172.633Z" fill="white"/>
<path d="M208.503 174.468C218.3 162.632 216.444 145.194 204.358 135.519C192.272 125.843 174.534 127.594 164.737 139.43C154.941 151.265 156.797 168.703 168.883 178.378C180.969 188.054 198.707 186.303 208.503 174.468Z" fill="#8B6CB0"/>
<path fill-rule="evenodd" clip-rule="evenodd" d="M197.458 165.627C196.903 166.298 196.115 166.686 195.293 166.768C194.461 166.848 193.607 166.622 192.923 166.075C192.233 165.522 191.834 164.746 191.749 163.938C191.663 163.134 191.889 162.292 192.448 161.616C193.005 160.944 193.795 160.559 194.614 160.476C195.443 160.396 196.298 160.619 196.984 161.169C197.674 161.721 198.073 162.502 198.159 163.305C198.244 164.114 198.017 164.951 197.458 165.627ZM174.266 164.091C174.412 165.107 173.69 166.047 172.656 166.186C171.622 166.325 170.663 165.612 170.517 164.595C170.139 161.958 170.418 159.075 171.348 156.215C172.23 153.498 173.697 150.79 175.735 148.329C177.8 145.834 180.242 143.848 182.815 142.44C185.525 140.958 188.386 140.118 191.121 139.988C192.165 139.94 193.057 140.734 193.11 141.76C193.164 142.786 192.36 143.659 191.316 143.707C189.148 143.81 186.858 144.487 184.667 145.686C182.52 146.861 180.457 148.547 178.684 150.69C176.941 152.796 175.693 155.085 174.955 157.36C174.199 159.686 173.966 162.002 174.266 164.091V164.091ZM181.566 163.861C181.741 164.875 181.044 165.835 180.013 166.003C178.983 166.171 178.003 165.482 177.828 164.468C177.497 162.55 177.645 160.459 178.273 158.396C178.865 156.443 179.884 154.51 181.321 152.773C182.783 151.006 184.529 149.619 186.38 148.65L186.488 148.598C188.409 147.613 190.46 147.076 192.443 147.036C193.484 147.017 194.351 147.831 194.376 148.854C194.4 149.877 193.575 150.725 192.534 150.745C191.143 150.773 189.67 151.166 188.257 151.889L188.183 151.93C186.766 152.672 185.416 153.75 184.27 155.134C183.139 156.501 182.346 157.993 181.896 159.476C181.439 160.978 181.329 162.488 181.566 163.861V163.861ZM188.841 163.56C189.087 164.557 188.461 165.561 187.447 165.8C186.433 166.038 185.408 165.419 185.162 164.421C184.864 163.204 184.868 161.897 185.182 160.631C185.482 159.427 186.055 158.25 186.91 157.217C187.78 156.166 188.853 155.366 190.016 154.833C191.229 154.274 192.548 154.016 193.842 154.075C194.884 154.123 195.696 154.994 195.651 156.019C195.605 157.043 194.722 157.837 193.68 157.788C193.002 157.758 192.293 157.9 191.63 158.205C190.978 158.504 190.367 158.964 189.859 159.578C189.359 160.182 189.027 160.856 188.858 161.531C188.689 162.217 188.684 162.917 188.841 163.56V163.56Z" fill="white"/>
<path d="M586.9 187.12C583.54 187.12 580.133 186.747 576.68 186C573.227 185.253 570.193 184.157 567.58 182.71L573.18 170.53C575.28 171.743 577.473 172.653 579.76 173.26C582.093 173.82 584.287 174.1 586.34 174.1C588.207 174.1 589.723 173.797 590.89 173.19C592.103 172.537 592.71 171.58 592.71 170.32C592.71 169.247 592.267 168.43 591.38 167.87C590.493 167.263 589 166.96 586.9 166.96H580.39V156.81L593.06 143.93L594.53 149.46H570.1V137H606.64V147.15L593.97 160.03L586.06 155.55H590.4C596.56 155.55 601.25 156.927 604.47 159.68C607.69 162.433 609.3 165.98 609.3 170.32C609.3 173.12 608.507 175.803 606.92 178.37C605.38 180.937 602.953 183.037 599.64 184.67C596.373 186.303 592.127 187.12 586.9 187.12ZM635.218 187.12C630.878 187.12 627.028 186.117 623.668 184.11C620.355 182.103 617.741 179.187 615.828 175.36C613.961 171.533 613.028 166.913 613.028 161.5C613.028 156.087 613.961 151.467 615.828 147.64C617.741 143.813 620.355 140.897 623.668 138.89C627.028 136.883 630.878 135.88 635.218 135.88C639.558 135.88 643.385 136.883 646.698 138.89C650.058 140.897 652.671 143.813 654.538 147.64C656.451 151.467 657.408 156.087 657.408 161.5C657.408 166.913 656.451 171.533 654.538 175.36C652.671 179.187 650.058 182.103 646.698 184.11C643.385 186.117 639.558 187.12 635.218 187.12ZM635.218 173.89C636.291 173.89 637.248 173.517 638.088 172.77C638.928 172.023 639.581 170.74 640.048 168.92C640.561 167.1 640.818 164.627 640.818 161.5C640.818 158.327 640.561 155.853 640.048 154.08C639.581 152.26 638.928 150.977 638.088 150.23C637.248 149.483 636.291 149.11 635.218 149.11C634.145 149.11 633.188 149.483 632.348 150.23C631.508 150.977 630.831 152.26 630.318 154.08C629.851 155.853 629.618 158.327 629.618 161.5C629.618 164.627 629.851 167.1 630.318 168.92C630.831 170.74 631.508 172.023 632.348 172.77C633.188 173.517 634.145 173.89 635.218 173.89ZM683.685 187.12C679.345 187.12 675.495 186.117 672.135 184.11C668.822 182.103 666.208 179.187 664.295 175.36C662.428 171.533 661.495 166.913 661.495 161.5C661.495 156.087 662.428 151.467 664.295 147.64C666.208 143.813 668.822 140.897 672.135 138.89C675.495 136.883 679.345 135.88 683.685 135.88C688.025 135.88 691.852 136.883 695.165 138.89C698.525 140.897 701.138 143.813 703.005 147.64C704.918 151.467 705.875 156.087 705.875 161.5C705.875 166.913 704.918 171.533 703.005 175.36C701.138 179.187 698.525 182.103 695.165 184.11C691.852 186.117 688.025 187.12 683.685 187.12ZM683.685 173.89C684.758 173.89 685.715 173.517 686.555 172.77C687.395 172.023 688.048 170.74 688.515 168.92C689.028 167.1 689.285 164.627 689.285 161.5C689.285 158.327 689.028 155.853 688.515 154.08C688.048 152.26 687.395 150.977 686.555 150.23C685.715 149.483 684.758 149.11 683.685 149.11C682.612 149.11 681.655 149.483 680.815 150.23C679.975 150.977 679.298 152.26 678.785 154.08C678.318 155.853 678.085 158.327 678.085 161.5C678.085 164.627 678.318 167.1 678.785 168.92C679.298 170.74 679.975 172.023 680.815 172.77C681.655 173.517 682.612 173.89 683.685 173.89ZM722.404 186V158H730.164L741.364 176.28H737.284L748.164 158H755.924L756.004 186H747.404L747.324 170.96H748.684L741.244 183.48H737.084L729.324 170.96H731.004V186H722.404ZM772.359 186.4C769.693 186.4 767.359 185.907 765.359 184.92C763.386 183.933 761.853 182.587 760.759 180.88C759.666 179.147 759.119 177.2 759.119 175.04C759.119 172.827 759.653 170.867 760.719 169.16C761.813 167.453 763.293 166.12 765.159 165.16C767.053 164.2 769.173 163.72 771.519 163.72C773.679 163.72 775.666 164.147 777.479 165C779.319 165.853 780.786 167.12 781.879 168.8C782.999 170.48 783.559 172.56 783.559 175.04C783.559 175.36 783.546 175.72 783.519 176.12C783.493 176.493 783.466 176.84 783.439 177.16H766.599V172.8H778.639L775.239 173.96C775.239 173.107 775.079 172.387 774.759 171.8C774.466 171.187 774.053 170.72 773.519 170.4C772.986 170.053 772.346 169.88 771.599 169.88C770.853 169.88 770.199 170.053 769.639 170.4C769.106 170.72 768.693 171.187 768.399 171.8C768.106 172.387 767.959 173.107 767.959 173.96V175.32C767.959 176.253 768.146 177.053 768.519 177.72C768.893 178.387 769.426 178.893 770.119 179.24C770.813 179.56 771.653 179.72 772.639 179.72C773.653 179.72 774.479 179.587 775.119 179.32C775.786 179.053 776.479 178.653 777.199 178.12L781.919 182.88C780.853 184.027 779.533 184.907 777.959 185.52C776.413 186.107 774.546 186.4 772.359 186.4ZM786.809 186V164.12H805.929V171.16H793.849L795.809 169.24V186H786.809ZM821.288 186V182.12L820.648 181.08V173.72C820.648 172.653 820.315 171.84 819.648 171.28C819.008 170.72 817.955 170.44 816.488 170.44C815.502 170.44 814.502 170.6 813.488 170.92C812.475 171.213 811.608 171.627 810.888 172.16L808.008 166.2C809.288 165.4 810.822 164.787 812.608 164.36C814.395 163.933 816.142 163.72 817.848 163.72C821.608 163.72 824.515 164.56 826.568 166.24C828.648 167.92 829.688 170.587 829.688 174.24V186H821.288ZM815.088 186.4C813.302 186.4 811.808 186.093 810.608 185.48C809.408 184.867 808.502 184.053 807.888 183.04C807.275 182 806.968 180.853 806.968 179.6C806.968 178.187 807.328 176.987 808.048 176C808.768 175.013 809.862 174.267 811.328 173.76C812.822 173.253 814.702 173 816.968 173H821.528V177.36H818.408C817.448 177.36 816.742 177.52 816.288 177.84C815.862 178.133 815.648 178.587 815.648 179.2C815.648 179.707 815.835 180.133 816.208 180.48C816.608 180.8 817.142 180.96 817.808 180.96C818.422 180.96 818.982 180.8 819.488 180.48C820.022 180.133 820.408 179.6 820.648 178.88L821.808 181.56C821.462 183.187 820.728 184.4 819.608 185.2C818.488 186 816.982 186.4 815.088 186.4ZM845.212 186.64C843.452 186.64 841.785 186.4 840.212 185.92C838.665 185.44 837.305 184.653 836.132 183.56C834.959 182.467 834.039 181.027 833.372 179.24C832.705 177.453 832.372 175.253 832.372 172.64C832.372 170.987 832.519 169.453 832.812 168.04C833.105 166.6 833.559 165.28 834.172 164.08C834.785 162.88 835.572 161.827 836.532 160.92C837.492 159.987 838.639 159.213 839.972 158.6C841.305 157.96 842.825 157.48 844.532 157.16L855.412 155.2L856.612 162.6L847.412 164.24C846.825 164.347 846.225 164.48 845.612 164.64C844.999 164.773 844.412 164.973 843.852 165.24C843.292 165.48 842.785 165.827 842.332 166.28C841.879 166.733 841.519 167.32 841.252 168.04C841.012 168.76 840.892 169.653 840.892 170.72C840.892 171.04 840.905 171.307 840.932 171.52C840.959 171.733 840.985 171.987 841.012 172.28C841.039 172.547 841.052 172.973 841.052 173.56L838.772 171.56C839.465 170.6 840.252 169.787 841.132 169.12C842.012 168.427 843.012 167.893 844.132 167.52C845.252 167.147 846.519 166.96 847.932 166.96C850.065 166.96 851.879 167.36 853.372 168.16C854.892 168.96 856.039 170.067 856.812 171.48C857.612 172.867 858.012 174.453 858.012 176.24C858.012 178.427 857.452 180.293 856.332 181.84C855.212 183.387 853.692 184.573 851.772 185.4C849.852 186.227 847.665 186.64 845.212 186.64ZM845.372 179.96C846.065 179.96 846.665 179.813 847.172 179.52C847.679 179.2 848.079 178.773 848.372 178.24C848.665 177.707 848.812 177.107 848.812 176.44C848.812 175.747 848.665 175.16 848.372 174.68C848.079 174.2 847.665 173.827 847.132 173.56C846.625 173.293 846.039 173.16 845.372 173.16C844.679 173.16 844.065 173.293 843.532 173.56C842.999 173.827 842.585 174.2 842.292 174.68C841.999 175.133 841.852 175.68 841.852 176.32C841.852 177.013 841.999 177.64 842.292 178.2C842.585 178.733 842.999 179.16 843.532 179.48C844.065 179.8 844.679 179.96 845.372 179.96ZM860.794 186V164.12H869.834V186H860.794ZM865.314 162.36C863.66 162.36 862.34 161.92 861.354 161.04C860.367 160.16 859.874 159.067 859.874 157.76C859.874 156.453 860.367 155.36 861.354 154.48C862.34 153.6 863.66 153.16 865.314 153.16C866.967 153.16 868.287 153.573 869.274 154.4C870.26 155.227 870.754 156.293 870.754 157.6C870.754 158.987 870.26 160.133 869.274 161.04C868.287 161.92 866.967 162.36 865.314 162.36ZM879.115 186V169.24L881.075 171.16H872.435V164.12H894.795V171.16H886.155L888.115 169.24V186H879.115Z" fill="#8B6CB0"/>
<path d="M526 25H1149.17C1154.7 25 1159.17 29.4772 1159.17 35V98H526L552.899 61.5L526 25Z" fill="#5984B2"/>
<rect x="625" y="25" width="161" height="73" fill="white"/>
<path d="M667.94 45.8C670.853 45.8 673.383 46.2907 675.53 47.272C677.677 48.2227 679.333 49.6027 680.498 51.412C681.663 53.1907 682.246 55.2913 682.246 57.714C682.246 60.1367 681.663 62.2373 680.498 64.016C679.333 65.7947 677.677 67.1747 675.53 68.156C673.383 69.1067 670.853 69.582 667.94 69.582H662.328V78H653.22V45.8H667.94ZM667.388 62.406C669.259 62.406 670.669 62.0073 671.62 61.21C672.571 60.382 673.046 59.2167 673.046 57.714C673.046 56.2113 672.571 55.046 671.62 54.218C670.669 53.39 669.259 52.976 667.388 52.976H662.328V62.406H667.388ZM703.374 78.644C699.97 78.644 696.903 77.9233 694.174 76.482C691.475 75.0407 689.344 73.0473 687.78 70.502C686.247 67.9567 685.48 65.0893 685.48 61.9C685.48 58.7107 686.247 55.8433 687.78 53.298C689.344 50.7527 691.475 48.7593 694.174 47.318C696.903 45.8767 699.97 45.156 703.374 45.156C706.778 45.156 709.829 45.8767 712.528 47.318C715.257 48.7593 717.389 50.7527 718.922 53.298C720.486 55.8433 721.268 58.7107 721.268 61.9C721.268 65.0893 720.486 67.9567 718.922 70.502C717.389 73.0473 715.257 75.0407 712.528 76.482C709.829 77.9233 706.778 78.644 703.374 78.644ZM703.374 71.1C704.999 71.1 706.471 70.7167 707.79 69.95C709.109 69.1833 710.151 68.11 710.918 66.73C711.685 65.3193 712.068 63.7093 712.068 61.9C712.068 60.0907 711.685 58.496 710.918 57.116C710.151 55.7053 709.109 54.6167 707.79 53.85C706.471 53.0833 704.999 52.7 703.374 52.7C701.749 52.7 700.277 53.0833 698.958 53.85C697.639 54.6167 696.597 55.7053 695.83 57.116C695.063 58.496 694.68 60.0907 694.68 61.9C694.68 63.7093 695.063 65.3193 695.83 66.73C696.597 68.11 697.639 69.1833 698.958 69.95C700.277 70.7167 701.749 71.1 703.374 71.1ZM756.674 45.8V78H749.176L734.962 60.842V78H726.038V45.8H733.536L747.75 62.958V45.8H756.674Z" fill="#DC662D"/>
<path d="M815.438 45.8H824.408V78H815.438V45.8ZM861.932 45.8V78H852.824V65.442H840.404V78H831.296V45.8H840.404V57.898H852.824V45.8H861.932ZM894.794 53.022H884.95V78H875.98V53.022H866.09V45.8H894.794V53.022ZM924.845 70.962V78H898.993V45.8H924.247V52.838H908.009V58.266H922.315V65.074H908.009V70.962H924.845ZM944.754 45.8C947.667 45.8 950.197 46.2907 952.344 47.272C954.491 48.2227 956.147 49.6027 957.312 51.412C958.477 53.1907 959.06 55.2913 959.06 57.714C959.06 60.1367 958.477 62.2373 957.312 64.016C956.147 65.7947 954.491 67.1747 952.344 68.156C950.197 69.1067 947.667 69.582 944.754 69.582H939.142V78H930.034V45.8H944.754ZM944.202 62.406C946.073 62.406 947.483 62.0073 948.434 61.21C949.385 60.382 949.86 59.2167 949.86 57.714C949.86 56.2113 949.385 55.046 948.434 54.218C947.483 53.39 946.073 52.976 944.202 52.976H939.142V62.406H944.202ZM993.822 45.8V78H984.714V65.442H972.294V78H963.186V45.8L972.294 45.8V57.898H984.714V45.8H993.822ZM1026.59 70.962V78H1000.74V45.8H1026V52.838H1009.76V58.266H1024.06V65.074H1009.76V70.962H1026.59ZM1057.73 53.022H1047.88V78H1038.91V53.022L1029.02 53.022V45.8H1057.73V53.022Z" fill="white"/>
<path d="M1159 197L663 197L686 215L710.411 233.999L1159 233.999V197ZM686 215L663 234H710.412L686 215Z" fill="#8B6CB0"/>
<path d="M837.034 220.135L835.729 221.511L835.729 207.656H841.744L841.744 221.511L840.375 220.135H847.695L846.39 221.511L846.39 207.656H852.372L852.373 224.999H825.037L825.037 207.656H831.051L831.052 221.511L829.747 220.135H837.034ZM856.455 224.999L856.455 207.656H865.715C867.943 207.656 869.683 208.05 870.934 208.84C872.186 209.608 872.812 210.717 872.812 212.168C872.812 213.554 872.228 214.663 871.062 215.495C869.916 216.306 868.367 216.711 866.416 216.711L866.957 215.431C869.057 215.431 870.637 215.826 871.698 216.615C872.78 217.383 873.321 218.514 873.321 220.007C873.321 221.543 872.727 222.759 871.539 223.655C870.372 224.551 868.58 224.999 866.161 224.999H856.455ZM861.865 221.063H865.62C866.363 221.063 866.914 220.935 867.275 220.679C867.636 220.402 867.816 219.997 867.816 219.463C867.816 218.909 867.636 218.503 867.275 218.247C866.935 217.991 866.405 217.863 865.684 217.863H861.865L861.865 221.063ZM861.865 214.631H865.175C865.896 214.631 866.426 214.503 866.766 214.247C867.105 213.97 867.275 213.576 867.275 213.064C867.275 212.552 867.105 212.178 866.766 211.944C866.426 211.688 865.896 211.56 865.174 211.56H861.865L861.865 214.631ZM876.375 224.999L876.375 207.656H882.389L882.39 216.743L889.613 207.656H895.182L895.182 224.999H889.136L889.136 215.879L881.976 224.999H876.375ZM911.213 222.343L911.212 212.488H906.598L906.535 214.151C906.492 214.983 906.439 215.773 906.376 216.519C906.333 217.245 906.227 217.906 906.057 218.503C905.888 219.101 905.644 219.613 905.326 220.039C905.007 220.445 904.583 220.743 904.053 220.935L898.134 220.135C898.707 220.135 899.173 219.975 899.534 219.655C899.916 219.314 900.213 218.845 900.425 218.247C900.637 217.65 900.785 216.967 900.87 216.199C900.976 215.41 901.051 214.578 901.093 213.704L901.316 207.656H917.259L917.259 222.343H911.213ZM897.561 228.583L897.561 220.135H919.645L919.646 228.583H914.045L914.045 224.999H903.194L903.194 228.583H897.561ZM934.336 224.999L929.086 216.903L933.954 214.024L941.465 224.999H934.336ZM922.244 224.999L922.244 207.656H928.29L928.29 224.999H922.244ZM926.508 218.823L926.508 214.056H932.745L932.745 218.823H926.508ZM934.559 216.999L928.895 216.423L934.686 207.656H941.082L934.559 216.999ZM943.469 224.999L943.469 207.656H949.515L949.515 224.999H943.469ZM946.492 205.736C945.389 205.736 944.498 205.426 943.819 204.808C943.14 204.189 942.8 203.421 942.8 202.504C942.8 201.586 943.14 200.818 943.819 200.2C944.498 199.581 945.389 199.272 946.492 199.272C947.595 199.272 948.486 199.571 949.165 200.168C949.844 200.744 950.183 201.49 950.183 202.408C950.183 203.368 949.844 204.168 949.165 204.808C948.507 205.426 947.616 205.736 946.492 205.736ZM962.256 225.287C960.346 225.287 958.639 224.903 957.132 224.135C955.647 223.367 954.48 222.311 953.632 220.967C952.783 219.602 952.359 218.045 952.359 216.295C952.359 214.546 952.783 213 953.632 211.656C954.48 210.312 955.647 209.266 957.132 208.52C958.638 207.752 960.346 207.368 962.255 207.368C964.207 207.368 965.894 207.784 967.315 208.616C968.736 209.448 969.744 210.621 970.338 212.136L965.66 214.535C965.257 213.725 964.759 213.138 964.165 212.776C963.571 212.392 962.924 212.2 962.224 212.2C961.524 212.2 960.887 212.36 960.314 212.68C959.742 213 959.285 213.469 958.946 214.088C958.628 214.685 958.469 215.421 958.469 216.295C958.469 217.191 958.628 217.949 958.946 218.567C959.286 219.186 959.742 219.655 960.314 219.975C960.887 220.295 961.524 220.455 962.224 220.455C962.924 220.455 963.571 220.274 964.165 219.911C964.759 219.527 965.257 218.93 965.661 218.119L970.338 220.519C969.744 222.034 968.737 223.207 967.315 224.039C965.894 224.871 964.207 225.287 962.256 225.287ZM976.78 224.999L976.78 211.144L978.084 212.488H971.211L971.211 207.656H988.331L988.331 212.488H981.458L982.794 211.144L982.794 224.999H976.78ZM1000.79 213.032C1003.08 213.053 1004.83 213.565 1006.04 214.567C1007.25 215.57 1007.86 216.999 1007.86 218.855C1007.86 220.775 1007.16 222.29 1005.76 223.399C1004.38 224.487 1002.47 225.021 1000.03 224.999H990.674L990.674 207.656H996.688L996.688 213.032H1000.79ZM999.425 220.839C1000.15 220.839 1000.71 220.669 1001.11 220.327C1001.51 219.986 1001.72 219.463 1001.72 218.759C1001.72 218.034 1001.51 217.522 1001.11 217.223C1000.73 216.925 1000.17 216.765 999.425 216.743H996.688L996.688 220.807L999.425 220.839Z" fill="white"/>
<path d="M612.356 398.996L612.354 299.691L625.699 312.637H591.943L591.943 288.482H643.44L643.443 398.996H612.356ZM708.486 401.206C699.065 401.206 690.692 398.944 683.365 394.418C676.142 389.892 670.438 383.366 666.251 374.841C662.064 366.315 659.97 355.948 659.97 343.739C659.97 331.53 662.063 321.162 666.25 312.637C670.436 304.112 676.14 297.586 683.363 293.06C690.689 288.534 699.063 286.271 708.483 286.271C717.799 286.271 726.068 288.534 733.29 293.06C740.617 297.586 746.374 304.112 750.561 312.637C754.748 321.162 756.841 331.53 756.842 343.739C756.842 355.948 754.749 366.315 750.562 374.841C746.376 383.366 740.619 389.892 733.292 394.418C726.07 398.944 717.801 401.206 708.486 401.206ZM708.485 375.63C711.835 375.63 714.765 374.578 717.277 372.473C719.894 370.368 721.935 367 723.4 362.369C724.865 357.632 725.598 351.422 725.598 343.739C725.598 335.95 724.865 329.74 723.399 325.109C721.934 320.478 719.893 317.11 717.276 315.005C714.764 312.9 711.833 311.848 708.484 311.848C705.134 311.848 702.151 312.9 699.535 315.005C697.022 317.11 694.981 320.478 693.412 325.109C691.946 329.74 691.214 335.95 691.214 343.739C691.214 351.422 691.947 357.632 693.412 362.369C694.983 367 697.024 370.368 699.536 372.473C702.153 374.578 705.136 375.63 708.485 375.63ZM815.966 401.206C806.546 401.206 798.172 398.944 790.845 394.418C783.623 389.892 777.918 383.366 773.731 374.841C769.544 366.315 767.451 355.948 767.451 343.739C767.45 331.53 769.543 321.162 773.73 312.637C777.917 304.112 783.621 297.586 790.843 293.06C798.17 288.534 806.543 286.271 815.964 286.271C825.279 286.271 833.548 288.534 840.771 293.06C848.097 297.586 853.854 304.112 858.041 312.637C862.228 321.162 864.322 331.53 864.322 343.739C864.323 355.948 862.229 366.315 858.043 374.841C853.856 383.366 848.1 389.892 840.773 394.418C833.551 398.944 825.282 401.206 815.966 401.206ZM815.966 375.63C819.315 375.63 822.246 374.578 824.758 372.473C827.375 370.368 829.416 367 830.881 362.369C832.346 357.632 833.079 351.422 833.078 343.739C833.078 335.95 832.345 329.74 830.88 325.109C829.414 320.478 827.373 317.11 824.757 315.005C822.244 312.9 819.314 311.848 815.964 311.848C812.615 311.848 809.632 312.9 807.015 315.005C804.503 317.11 802.462 320.478 800.892 325.109C799.427 329.74 798.694 335.95 798.694 343.739C798.695 351.422 799.427 357.632 800.893 362.369C802.463 367 804.504 370.368 807.016 372.473C809.633 374.578 812.616 375.63 815.966 375.63Z" fill="#DC662D"/>
<path d="M496.28 392.345L500.249 382.94C502.268 383.978 504.376 384.767 506.574 385.308C508.772 385.85 510.903 386.165 512.966 386.256C515.029 386.346 516.891 386.21 518.551 385.85C520.255 385.444 521.601 384.835 522.588 384.023C523.575 383.211 524.068 382.151 524.068 380.843C524.068 379.399 523.462 378.362 522.251 377.731C521.085 377.054 519.537 376.716 517.609 376.716H505.565L505.564 366.905H516.532C518.326 366.905 519.717 366.544 520.703 365.823C521.69 365.101 522.184 364.131 522.184 362.913C522.183 361.741 521.757 360.816 520.905 360.139C520.053 359.418 518.909 358.922 517.474 358.651C516.038 358.335 514.423 358.222 512.629 358.313C510.835 358.403 508.973 358.741 507.044 359.327C505.116 359.869 503.254 360.613 501.46 361.56L497.557 351.547C500.742 349.968 504.084 348.886 507.583 348.299C511.081 347.713 514.49 347.577 517.81 347.893C521.129 348.209 524.134 348.953 526.826 350.126C529.517 351.254 531.648 352.765 533.218 354.659C534.833 356.553 535.64 358.786 535.64 361.357C535.64 363.613 535.035 365.62 533.824 367.379C532.613 369.138 530.975 370.514 528.912 371.506C526.849 372.498 524.471 372.994 521.78 372.994L522.116 370.153C525.211 370.153 527.903 370.694 530.191 371.777C532.523 372.859 534.317 374.348 535.573 376.242C536.874 378.091 537.525 380.234 537.525 382.67C537.525 384.97 536.919 387.022 535.708 388.827C534.542 390.586 532.905 392.074 530.797 393.292C528.688 394.51 526.266 395.412 523.53 395.998C520.839 396.63 517.945 396.923 514.85 396.878C511.755 396.878 508.615 396.495 505.43 395.728C502.291 394.961 499.24 393.833 496.28 392.345ZM565.587 395.998L565.587 389.165L564.712 387.473L564.712 374.889C564.712 372.859 564.084 371.303 562.828 370.22C561.616 369.093 559.665 368.529 556.974 368.529C555.224 368.529 553.453 368.822 551.658 369.409C549.864 369.95 548.339 370.717 547.083 371.709L542.777 362.981C544.84 361.628 547.307 360.59 550.178 359.869C553.094 359.102 555.987 358.719 558.858 358.719C564.779 358.719 569.354 360.094 572.584 362.846C575.858 365.552 577.495 369.815 577.496 375.633L577.496 395.998H565.587ZM554.821 396.607C551.906 396.607 549.439 396.111 547.42 395.119C545.401 394.127 543.854 392.773 542.777 391.059C541.746 389.345 541.23 387.428 541.23 385.308C541.23 383.053 541.79 381.114 542.912 379.49C544.078 377.821 545.85 376.558 548.227 375.701C550.604 374.799 553.677 374.348 557.445 374.348H566.057L566.057 381.046H559.194C557.131 381.046 555.673 381.384 554.821 382.061C554.014 382.737 553.61 383.639 553.61 384.767C553.61 385.895 554.036 386.797 554.888 387.473C555.741 388.15 556.907 388.488 558.387 388.488C559.778 388.488 561.034 388.15 562.155 387.473C563.321 386.752 564.174 385.669 564.712 384.226L566.461 388.962C565.789 391.488 564.465 393.405 562.492 394.713C560.563 395.976 558.006 396.607 554.821 396.607Z" fill="#5F6061"/>
<path d="M882.075 391.998L882.074 357.311H910.968L910.969 366.975H891.493L894.103 364.351L894.103 391.998H882.075ZM937.402 392.574C934.474 392.574 931.971 391.934 929.892 390.654C927.813 389.332 926.222 387.369 925.118 384.767C924.058 382.121 923.527 378.751 923.527 374.655C923.527 370.516 924.036 367.146 925.054 364.543C926.073 361.898 927.6 359.935 929.637 358.655C931.716 357.375 934.304 356.735 937.401 356.735C940.541 356.735 943.384 357.482 945.93 358.975C948.518 360.426 950.554 362.495 952.04 365.183C953.567 367.828 954.331 370.986 954.331 374.655C954.331 378.324 953.567 381.503 952.04 384.191C950.555 386.879 948.518 388.948 945.93 390.399C943.384 391.849 940.542 392.574 937.402 392.574ZM915.699 404.414L915.698 357.311H927.218L927.218 363.199L927.155 374.655L927.791 386.175L927.792 404.414H915.699ZM934.856 382.911C936.214 382.911 937.423 382.591 938.484 381.951C939.587 381.311 940.457 380.372 941.093 379.135C941.772 377.897 942.111 376.404 942.111 374.655C942.111 372.906 941.772 371.412 941.093 370.175C940.456 368.938 939.587 367.999 938.483 367.359C937.423 366.719 936.213 366.399 934.856 366.399C933.498 366.399 932.267 366.719 931.164 367.359C930.104 367.999 929.234 368.938 928.555 370.175C927.918 371.412 927.6 372.906 927.6 374.655C927.6 376.404 927.919 377.897 928.555 379.135C929.234 380.372 930.104 381.311 931.165 381.951C932.268 382.591 933.498 382.911 934.856 382.911ZM960.138 391.998L960.138 357.311H972.166L972.167 370.175H984.577L984.577 357.311H996.669L996.67 391.998H984.578L984.578 379.839H972.167L972.167 391.998H960.138ZM998.398 398.398L1019.4 338.112H1030.16L1009.15 398.398H998.398ZM1027.26 391.998L1027.26 357.311H1039.99L1052.02 379.967H1046.99L1060.17 357.311H1071.56L1071.62 391.998H1060.74L1060.74 369.343L1062.59 370.623L1051.89 388.927H1046.74L1036.05 369.727L1038.15 369.151L1038.15 391.998H1027.26ZM1079.78 391.998L1079.78 357.311H1091.87L1091.87 391.998H1079.78ZM1085.83 353.471C1083.62 353.471 1081.84 352.853 1080.48 351.615C1079.12 350.378 1078.44 348.842 1078.44 347.008C1078.44 345.173 1079.12 343.637 1080.48 342.4C1081.84 341.162 1083.62 340.544 1085.83 340.544C1088.03 340.544 1089.82 341.141 1091.17 342.336C1092.53 343.488 1093.21 344.981 1093.21 346.816C1093.21 348.736 1092.53 350.335 1091.17 351.615C1089.86 352.853 1088.08 353.471 1085.83 353.471ZM1117.36 392.574C1113.54 392.574 1110.12 391.806 1107.11 390.271C1104.14 388.735 1101.8 386.623 1100.11 383.935C1098.41 381.204 1097.56 378.089 1097.56 374.591C1097.56 371.092 1098.41 367.999 1100.11 365.311C1101.8 362.623 1104.14 360.533 1107.11 359.039C1110.12 357.503 1113.54 356.735 1117.35 356.735C1121.26 356.735 1124.63 357.567 1127.47 359.231C1130.32 360.895 1132.33 363.242 1133.52 366.271L1124.16 371.071C1123.36 369.45 1122.36 368.276 1121.17 367.551C1119.99 366.783 1118.69 366.399 1117.29 366.399C1115.89 366.399 1114.62 366.719 1113.47 367.359C1112.33 367.999 1111.41 368.938 1110.74 370.175C1110.1 371.37 1109.78 372.842 1109.78 374.591C1109.78 376.383 1110.1 377.897 1110.74 379.135C1111.41 380.372 1112.33 381.311 1113.47 381.951C1114.62 382.591 1115.89 382.911 1117.29 382.911C1118.69 382.911 1119.99 382.548 1121.17 381.823C1122.36 381.055 1123.36 379.86 1124.16 378.239L1133.52 383.039C1132.33 386.068 1130.32 388.415 1127.47 390.079C1124.63 391.742 1121.26 392.574 1117.36 392.574Z" fill="#5F6061"/>
</g>
<defs>
<filter id="filter0_d_1322_85" x="0" y="0" width="1188.17" height="489" filterUnits="userSpaceOnUse" color-interpolation-filters="sRGB">
<feFlood flood-opacity="0" result="BackgroundImageFix"/>
<feColorMatrix in="SourceAlpha" type="matrix" values="0 0 0 0 0 0 0 0 0 0 0 0 0 0 0 0 0 0 127 0" result="hardAlpha"/>
<feOffset dy="4"/>
<feGaussianBlur stdDeviation="14.5"/>
<feColorMatrix type="matrix" values="0 0 0 0 0.901961 0 0 0 0 0.890196 0 0 0 0 0.890196 0 0 0 1 0"/>
<feBlend mode="normal" in2="BackgroundImageFix" result="effect1_dropShadow_1322_85"/>
<feBlend mode="normal" in="SourceGraphic" in2="effect1_dropShadow_1322_85" result="shape"/>
</filter>
<linearGradient id="paint0_linear_1322_85" x1="313.306" y1="141.686" x2="318.716" y2="137.689" gradientUnits="userSpaceOnUse">
<stop stop-color="#F9B2A5"/>
<stop offset="1" stop-color="#FBCDC3"/>
</linearGradient>
<linearGradient id="paint1_linear_1322_85" x1="304.617" y1="253.933" x2="305.662" y2="251.094" gradientUnits="userSpaceOnUse">
<stop stop-color="#F9B2A5"/>
<stop offset="1" stop-color="#FBCDC3"/>
</linearGradient>
<linearGradient id="paint2_linear_1322_85" x1="345.846" y1="218.379" x2="344.36" y2="214.374" gradientUnits="userSpaceOnUse">
<stop stop-color="#F9B2A5"/>
<stop offset="1" stop-color="#FBCDC3"/>
</linearGradient>
<linearGradient id="paint3_linear_1322_85" x1="268.095" y1="151.935" x2="270.928" y2="144.78" gradientUnits="userSpaceOnUse">
<stop stop-color="#F58A76"/>
<stop offset="1" stop-color="#F8AA9B"/>
</linearGradient>
<linearGradient id="paint4_linear_1322_85" x1="271.182" y1="137.715" x2="281.755" y2="123.446" gradientUnits="userSpaceOnUse">
<stop stop-color="#F9B2A5"/>
<stop offset="1" stop-color="#FBCDC3"/>
</linearGradient>
<linearGradient id="paint5_linear_1322_85" x1="293.742" y1="186.874" x2="306.441" y2="187.573" gradientUnits="userSpaceOnUse">
<stop stop-color="#F9B2A5"/>
<stop offset="1" stop-color="#FBCDC3"/>
</linearGradient>
<linearGradient id="paint6_linear_1322_85" x1="146.933" y1="415.028" x2="146.57" y2="411.574" gradientUnits="userSpaceOnUse">
<stop stop-color="#F9B2A5"/>
<stop offset="1" stop-color="#FBCDC3"/>
</linearGradient>
<linearGradient id="paint7_linear_1322_85" x1="128.452" y1="413.035" x2="128.109" y2="409.781" gradientUnits="userSpaceOnUse">
<stop stop-color="#F9B2A5"/>
<stop offset="1" stop-color="#FBCDC3"/>
</linearGradient>
<linearGradient id="paint8_linear_1322_85" x1="132.816" y1="272.144" x2="132.819" y2="256.036" gradientUnits="userSpaceOnUse">
<stop stop-color="#F58A76"/>
<stop offset="1" stop-color="#F8AA9B"/>
</linearGradient>
<linearGradient id="paint9_linear_1322_85" x1="133.139" y1="252.878" x2="133.133" y2="228.899" gradientUnits="userSpaceOnUse">
<stop stop-color="#F9B2A5"/>
<stop offset="1" stop-color="#FBCDC3"/>
</linearGradient>
<linearGradient id="paint10_linear_1322_85" x1="97.9487" y1="275.715" x2="97.0559" y2="267.622" gradientUnits="userSpaceOnUse">
<stop stop-color="#F9B2A5"/>
<stop offset="1" stop-color="#FBCDC3"/>
</linearGradient>
<linearGradient id="paint11_linear_1322_85" x1="90.9939" y1="278.835" x2="98.9049" y2="277.967" gradientUnits="userSpaceOnUse">
<stop stop-color="#F9B2A5"/>
<stop offset="1" stop-color="#FBCDC3"/>
</linearGradient>
<linearGradient id="paint12_linear_1322_85" x1="139.8" y1="293.307" x2="132.957" y2="281.545" gradientUnits="userSpaceOnUse">
<stop stop-color="#F9B2A5"/>
<stop offset="1" stop-color="#FBCDC3"/>
</linearGradient>
<linearGradient id="paint13_linear_1322_85" x1="403.288" y1="352.711" x2="403.29" y2="340.717" gradientUnits="userSpaceOnUse">
<stop stop-color="#F58A76"/>
<stop offset="1" stop-color="#F8AA9B"/>
</linearGradient>
<linearGradient id="paint14_linear_1322_85" x1="403.413" y1="339.968" x2="403.419" y2="315.194" gradientUnits="userSpaceOnUse">
<stop stop-color="#F9B2A5"/>
<stop offset="1" stop-color="#FBCDC3"/>
</linearGradient>
<linearGradient id="paint15_linear_1322_85" x1="369.957" y1="348.996" x2="368.33" y2="339.466" gradientUnits="userSpaceOnUse">
<stop stop-color="#F9B2A5"/>
<stop offset="1" stop-color="#FBCDC3"/>
</linearGradient>
<linearGradient id="paint16_linear_1322_85" x1="361.981" y1="353.198" x2="370.811" y2="351.694" gradientUnits="userSpaceOnUse">
<stop stop-color="#F9B2A5"/>
<stop offset="1" stop-color="#FBCDC3"/>
</linearGradient>
<linearGradient id="paint17_linear_1322_85" x1="435.059" y1="384.06" x2="422.238" y2="406.349" gradientUnits="userSpaceOnUse">
<stop stop-color="#F9B2A5"/>
<stop offset="1" stop-color="#FBCDC3"/>
</linearGradient>
</defs>
</svg>
