<svg width="1188" height="489" viewBox="0 0 1188 489" fill="none" xmlns="http://www.w3.org/2000/svg">
<g filter="url(#filter0_d)">
<rect x="49" y="25" width="1110" height="431" rx="10" fill="white"/>
<path fill-rule="evenodd" clip-rule="evenodd" d="M410.787 365.332C474.081 127.732 147.524 72.9344 83.3813 191.205C65.5401 223.999 77.2218 260.708 86.461 271.286C135.312 327.142 78.7086 329.047 78.7086 376.016C78.7086 445.096 381.264 465.09 410.787 365.332Z" fill="#F8F6FB"/>
<path fill-rule="evenodd" clip-rule="evenodd" d="M97.4317 304.864C97.5379 299.363 98.5998 296.083 103.06 293.967C107.945 291.64 113.786 293.65 116.229 298.516C120.476 307.402 115.91 320.414 111.45 333.532C98.2813 328.983 85.219 324.328 80.9711 315.548C78.6348 310.682 80.6525 304.758 85.5376 302.43C89.7855 300.42 93.0776 301.584 97.4317 304.864Z" fill="#EDE2F9"/>
<path fill-rule="evenodd" clip-rule="evenodd" d="M243.845 372.631L247.137 374.43L247.987 372.949L248.836 371.468L248.942 371.256C249.686 369.881 250.96 367.765 252.765 366.919C254.677 366.072 256.695 365.967 259.137 367.342C263.279 369.669 264.66 371.256 264.66 371.256L261.155 375.593C261.155 375.593 259.987 374.43 258.712 373.689C257.438 372.949 256.058 372.843 255.314 374.006L254.996 374.535L254.04 376.228L253.19 377.709L258.394 380.671L255.42 385.22L250.535 382.469L241.296 398.867L235.137 395.481L244.376 379.084L241.084 377.286L243.845 372.631Z" fill="#EDE2F9"/>
<path fill-rule="evenodd" clip-rule="evenodd" d="M249.798 233.225L228.346 216.722C226.859 215.558 226.541 213.443 227.709 211.856L250.648 182.341C251.816 180.86 253.94 180.543 255.533 181.706L276.985 198.209C278.471 199.373 278.79 201.489 277.622 203.075L254.683 232.59C253.515 234.071 251.285 234.389 249.798 233.225Z" fill="#EDE2F9"/>
<path fill-rule="evenodd" clip-rule="evenodd" d="M257.763 200.96C256.276 199.796 255.957 197.68 257.126 196.093C258.294 194.612 260.418 194.295 262.011 195.459C263.497 196.622 263.816 198.738 262.648 200.325C261.373 201.806 259.249 202.123 257.763 200.96Z" fill="white"/>
<path fill-rule="evenodd" clip-rule="evenodd" d="M192.446 224.528L190.215 234.578L179.702 237.752L168.764 231.828L170.569 222.624L175.773 221.884L176.41 216.065L187.773 217.229L187.136 223.259L192.446 224.528Z" fill="url(#paint0_linear)"/>
<path fill-rule="evenodd" clip-rule="evenodd" d="M180.976 221.249C173.861 220.508 168.339 214.161 167.065 206.862C163.666 205.698 162.392 200.303 166.852 200.197C167.277 191.205 165.472 183.377 184.481 186.233C203.809 189.195 200.304 195.013 198.924 203.794H199.136C203.172 204.217 201.048 209.824 197.331 210.458C194.57 217.123 188.092 221.989 180.976 221.249Z" fill="url(#paint1_linear)"/>
<path fill-rule="evenodd" clip-rule="evenodd" d="M167.064 201.149C166.321 199.457 167.702 198.293 164.728 193.956C160.055 187.185 162.285 186.762 164.834 180.415C169.082 169.73 177.153 174.385 178.852 175.337C182.782 177.664 183.419 168.884 192.233 172.163C200.729 175.443 205.402 182.107 206.676 187.291C208.269 193.85 199.773 196.812 199.561 200.197C199.561 200.832 199.348 204.429 198.924 204.746C198.393 205.169 196.587 200.303 192.446 197.447C189.791 195.542 177.365 201.361 173.649 196.495C168.657 189.83 169.188 193.85 168.126 198.081C167.914 198.822 167.277 201.572 167.064 201.149Z" fill="#37254D"/>
<path fill-rule="evenodd" clip-rule="evenodd" d="M236.73 286.731C237.261 287.789 238.96 288.953 240.872 289.905L240.978 288.847L242.146 280.173L242.252 279.75C241.721 279.75 241.084 279.75 240.128 279.961C238.748 280.49 236.73 278.268 235.562 278.692C234.287 279.115 233.013 282.394 232.907 284.087C232.907 284.933 236.199 284.827 236.73 286.731Z" fill="url(#paint2_linear)"/>
<path fill-rule="evenodd" clip-rule="evenodd" d="M257.332 275.307C254.783 275.096 252.129 274.99 249.58 274.778C247.031 273.72 244.482 272.662 241.934 271.605C242.252 270.547 242.889 269.489 243.845 268.537C248.199 269.595 252.553 270.652 257.014 271.71C257.332 272.98 257.438 274.143 257.332 275.307Z" fill="#D2BEEA"/>
<path fill-rule="evenodd" clip-rule="evenodd" d="M257.332 275.306L249.58 274.777L241.934 271.604C242.04 271.181 242.252 270.863 242.465 270.44C247.243 272.662 252.235 273.931 257.438 274.037C257.332 274.46 257.332 274.883 257.332 275.306Z" fill="#DCCAF1"/>
<path fill-rule="evenodd" clip-rule="evenodd" d="M249.473 297.839C246.606 298.897 240.447 297.31 238.323 295.089L241.402 272.239L257.226 276.047C254.677 283.346 252.128 290.646 249.473 297.839Z" fill="#C5B0DF"/>
<path fill-rule="evenodd" clip-rule="evenodd" d="M239.385 287.684L240.553 279.009C245.013 281.548 249.792 282.712 254.996 282.5L252.022 290.751C247.562 290.857 243.314 289.799 239.385 287.684Z" fill="#EDE2F9"/>
<path fill-rule="evenodd" clip-rule="evenodd" d="M250.642 269.171C254.252 270.017 257.12 271.286 257.013 271.815C256.907 272.45 253.827 272.133 250.111 271.286C246.5 270.44 243.633 269.171 243.739 268.642C243.951 268.007 247.031 268.324 250.642 269.171Z" fill="#C5B0DF"/>
<path fill-rule="evenodd" clip-rule="evenodd" d="M253.297 270.546C253.934 270.652 254.359 270.969 254.359 271.181C254.359 271.392 253.721 271.498 253.19 271.287C252.553 271.181 252.128 270.863 252.128 270.652C252.128 270.44 252.659 270.334 253.297 270.546Z" fill="#B39AD3"/>
<path fill-rule="evenodd" clip-rule="evenodd" d="M242.146 270.863C246.925 273.085 252.022 274.354 257.332 274.566C258.288 274.566 258.819 277.422 256.801 277.316C251.173 276.999 246.394 275.835 241.296 273.508C239.491 272.767 241.19 270.44 242.146 270.863Z" fill="#EDE2F9"/>
<path fill-rule="evenodd" clip-rule="evenodd" d="M238.854 277.74C238.217 281.125 236.411 284.298 233.969 287.155C228.446 285.039 214.216 279.75 208.8 277.105C196.056 271.075 204.021 259.227 215.384 264.305C220.8 266.738 231.314 274.354 238.854 277.74Z" fill="#5983B1"/>
<path fill-rule="evenodd" clip-rule="evenodd" d="M143.595 405.954L146.356 398.761L154.109 400.771L151.666 407.435C151.454 407.435 144.339 406.06 143.595 405.954Z" fill="url(#paint3_linear)"/>
<path fill-rule="evenodd" clip-rule="evenodd" d="M183.95 407.435L185.224 400.242L192.764 400.771L191.702 407.33C191.49 407.435 184.693 407.435 183.95 407.435Z" fill="url(#paint4_linear)"/>
<path fill-rule="evenodd" clip-rule="evenodd" d="M144.126 404.05C148.055 406.483 151.878 404.685 153.577 405.637C157.401 409.763 158.463 410.821 163.348 411.984C168.127 413.148 170.781 417.803 164.728 417.062C153.471 415.687 144.338 414.841 141.259 413.677C139.772 412.831 138.71 405.32 144.126 404.05Z" fill="#37254D"/>
<path fill-rule="evenodd" clip-rule="evenodd" d="M184.268 405.531C188.304 407.118 191.596 404.791 193.295 405.32C197.543 408.493 198.817 409.234 203.384 409.551C208.057 409.763 211.242 413.677 205.614 414.1C194.888 414.735 186.286 415.581 183.206 414.946C181.613 414.417 179.383 407.753 184.268 405.531Z" fill="#37254D"/>
<path fill-rule="evenodd" clip-rule="evenodd" d="M180.87 400.242C184.162 403.204 192.977 403.839 195.95 401.3C199.455 348.3 197.331 331.797 197.225 291.492C192.764 291.915 183.207 292.55 173.649 292.338C176.41 318.468 182.038 337.404 180.87 400.242Z" fill="#715198"/>
<path fill-rule="evenodd" clip-rule="evenodd" d="M142.32 398.972C146.143 401.088 152.303 404.05 157.825 402.992C172.268 350.522 173.011 336.24 180.764 295.829C175.454 295.3 166.958 292.444 155.914 290.223C154.108 316.987 156.763 336.029 142.32 398.972Z" fill="#67498B"/>
<path fill-rule="evenodd" clip-rule="evenodd" d="M192.34 224.528C209.756 232.568 209.968 237.434 215.066 263.67C215.915 268.113 217.084 274.672 210.924 276.153C203.066 278.057 200.092 267.055 198.605 256.794C199.561 270.229 204.871 288.953 197.118 294.666C189.366 300.378 159.949 297.522 150.498 289.059C144.338 266.738 142.852 270.652 149.224 240.82C151.029 232.251 158.569 223.259 170.888 222.624C172.481 237.752 186.18 238.598 192.34 224.528Z" fill="#5983B1"/>
<path fill-rule="evenodd" clip-rule="evenodd" d="M154.958 303.658C154.427 305.139 154.533 307.995 156.445 310.851C159.737 310.428 163.241 308.947 165.79 306.937C165.259 304.821 164.409 303.34 162.71 301.965C161.33 301.119 161.754 298.051 160.692 297.416C159.418 296.676 156.02 297.839 154.639 298.897C153.79 299.426 156.126 301.965 154.958 303.658Z" fill="url(#paint5_linear)"/>
<path fill-rule="evenodd" clip-rule="evenodd" d="M163.454 299.532C160.48 301.224 157.082 301.648 153.471 301.224C151.241 295.3 146.781 277.422 145.506 270.44C142.639 254.149 155.383 253.62 158.144 267.795C159.524 274.777 162.073 291.386 163.454 299.532Z" fill="#5983B1"/>
<path fill-rule="evenodd" clip-rule="evenodd" d="M162.71 240.925C163.029 249.494 161.223 260.285 160.162 263.458C157.613 271.075 162.816 279.115 161.861 291.28C159.737 274.672 155.17 271.604 158.25 262.612C159.206 259.438 162.073 249.388 162.71 240.925Z" fill="#456F9B"/>
<path fill-rule="evenodd" clip-rule="evenodd" d="M251.173 292.867C249.686 292.761 248.624 292.338 247.562 291.915C244.589 290.751 240.022 284.616 245.651 284.51C246.819 284.51 247.881 284.616 249.792 284.827C249.155 284.404 249.155 283.135 250.217 282.817C251.067 282.606 253.509 282.712 254.784 282.923L251.173 292.867Z" fill="url(#paint6_linear)"/>
<path fill-rule="evenodd" clip-rule="evenodd" d="M305.971 243.676L307.882 253.514L318.396 256.899L329.44 251.504L327.847 242.406L322.75 241.56L322.325 235.953L310.962 236.694L311.281 242.512L305.971 243.676Z" fill="url(#paint7_linear)"/>
<path fill-rule="evenodd" clip-rule="evenodd" d="M317.546 240.82C324.661 240.291 330.396 234.367 331.882 227.279C335.387 226.221 336.767 221.143 332.307 220.826C332.095 212.151 334.112 204.64 314.997 206.862C295.563 209.083 298.961 214.902 300.023 223.47H299.811C295.775 223.788 297.687 229.289 301.404 230.029C304.059 236.482 310.431 241.349 317.546 240.82Z" fill="url(#paint8_linear)"/>
<path fill-rule="evenodd" clip-rule="evenodd" d="M332.095 221.778C332.838 220.085 331.564 218.922 334.644 214.902C339.529 208.449 337.299 208.025 334.962 201.784C331.033 191.311 322.75 195.648 321.051 196.495C317.015 198.61 316.696 190.041 307.776 193.004C299.174 195.86 294.289 202.313 292.908 207.285C291.103 213.632 299.492 216.7 299.599 219.979C299.599 220.614 299.705 224.105 300.023 224.422C300.554 224.846 302.466 220.191 306.714 217.546C309.369 215.854 321.688 221.778 325.511 217.123C330.714 210.776 330.077 214.69 331.033 218.816C331.245 219.556 331.883 222.201 332.095 221.778Z" fill="#37254D"/>
<path fill-rule="evenodd" clip-rule="evenodd" d="M349.511 420.659L346.962 413.571L339.21 415.264L341.44 421.823C341.652 421.823 348.768 420.659 349.511 420.659Z" fill="url(#paint9_linear)"/>
<path fill-rule="evenodd" clip-rule="evenodd" d="M309.05 420.87L307.988 413.888L300.448 414.206L301.404 420.659C301.616 420.659 308.413 420.765 309.05 420.87Z" fill="url(#paint10_linear)"/>
<path fill-rule="evenodd" clip-rule="evenodd" d="M348.98 418.755C345.051 420.976 341.122 419.178 339.423 420.024C335.493 423.938 334.325 424.89 329.546 425.842C324.661 426.795 322.006 431.238 327.953 430.709C339.316 429.757 348.449 429.228 351.529 428.17C353.122 427.429 354.396 420.236 348.98 418.755Z" fill="#37254D"/>
<path fill-rule="evenodd" clip-rule="evenodd" d="M308.944 419.072C304.908 420.447 301.616 418.12 299.917 418.649C295.669 421.611 294.288 422.351 289.722 422.351C285.049 422.457 281.757 426.16 287.386 426.689C298.112 427.641 306.607 428.699 309.687 428.276C311.28 427.747 313.723 421.294 308.944 419.072Z" fill="#37254D"/>
<path fill-rule="evenodd" clip-rule="evenodd" d="M312.449 413.994C309.05 416.745 300.236 417.168 297.369 414.523C295.457 363.11 293.97 347.242 295.245 308.206C299.705 308.735 311.918 309.37 321.475 309.476C317.971 334.759 313.086 353.166 312.449 413.994Z" fill="#715198"/>
<path fill-rule="evenodd" clip-rule="evenodd" d="M350.998 413.888C347.069 415.793 340.909 418.543 335.387 417.274C322.537 366.072 319.458 352.003 312.979 312.65C318.289 312.332 329.546 310.005 340.591 308.206C341.653 334.336 338.467 352.532 350.998 413.888Z" fill="#67498B"/>
<path fill-rule="evenodd" clip-rule="evenodd" d="M306.077 243.676C292.483 251.504 289.298 256.053 288.342 268.536C287.28 281.759 289.298 301.013 291.103 313.073C291.846 318.045 293.97 323.651 294.926 323.863C295.138 318.785 295.138 319.526 296.2 319.949C304.59 325.873 340.378 317.304 340.485 307.36C340.485 300.59 336.343 300.061 346.219 296.57C356.096 293.079 353.016 275.306 348.768 260.708C346.325 252.562 339.954 243.464 327.635 242.512C325.617 257.005 311.918 257.428 306.077 243.676Z" fill="#5983B1"/>
<path fill-rule="evenodd" clip-rule="evenodd" d="M296.094 263.881C293.333 275.624 293.439 286.097 294.183 294.242C294.076 289.588 295.563 275.412 296.094 263.881Z" fill="#456F9B"/>
<path fill-rule="evenodd" clip-rule="evenodd" d="M286.112 281.336C288.661 281.759 291.209 282.183 293.758 282.606C296.519 282.183 299.174 281.759 301.935 281.336C301.829 280.278 301.51 279.115 300.767 278.057C296.307 278.057 291.74 278.057 287.28 278.057C286.537 279.115 286.218 280.278 286.112 281.336Z" fill="#D2BEEA"/>
<path fill-rule="evenodd" clip-rule="evenodd" d="M286.112 281.336L293.758 282.606L301.935 281.336C301.935 280.913 301.829 280.49 301.723 280.173C296.625 281.23 291.422 281.23 286.324 280.173C286.218 280.49 286.112 280.913 286.112 281.336Z" fill="#DCCAF1"/>
<path fill-rule="evenodd" clip-rule="evenodd" d="M288.342 304.292C290.891 305.879 297.262 305.879 299.811 304.292L302.148 282.077H285.899C286.749 289.482 287.599 296.887 288.342 304.292Z" fill="#C5B0DF"/>
<path fill-rule="evenodd" clip-rule="evenodd" d="M300.555 296.993L301.404 288.53C296.413 289.905 291.528 289.905 286.537 288.53L287.492 296.993C291.953 298.157 296.201 298.157 300.555 296.993Z" fill="#EDE2F9"/>
<path fill-rule="evenodd" clip-rule="evenodd" d="M294.076 277.105C290.36 277.105 287.28 277.634 287.28 278.163C287.28 278.797 290.36 279.221 294.076 279.221C297.793 279.221 300.873 278.692 300.873 278.163C300.767 277.528 297.793 277.105 294.076 277.105Z" fill="#C5B0DF"/>
<path fill-rule="evenodd" clip-rule="evenodd" d="M291.103 277.74C290.466 277.74 289.935 277.951 289.935 278.163C289.935 278.374 290.466 278.586 291.103 278.586C291.74 278.586 292.271 278.374 292.271 278.163C292.271 277.951 291.74 277.74 291.103 277.74Z" fill="#B39AD3"/>
<path fill-rule="evenodd" clip-rule="evenodd" d="M301.829 280.596C296.625 281.654 291.422 281.654 286.218 280.596C285.262 280.384 284.094 283.029 286.006 283.346C291.528 284.298 296.519 284.298 302.041 283.346C303.953 283.029 302.891 280.384 301.829 280.596Z" fill="#EDE2F9"/>
<path fill-rule="evenodd" clip-rule="evenodd" d="M311.599 297.733C310.218 297.839 309.263 297.733 307.882 298.157C305.121 299.638 303.634 300.59 299.174 300.907C297.793 301.013 295.351 300.907 294.076 300.907C287.598 300.801 291.315 292.021 292.696 292.232C294.501 291.809 297.899 291.809 300.023 290.434C300.979 289.799 301.404 288.107 301.616 287.26C303.953 287.26 303.316 290.54 304.378 291.28C306.289 292.656 309.05 292.127 310.643 292.232C312.661 292.127 313.298 297.628 311.599 297.733Z" fill="url(#paint11_linear)"/>
<path fill-rule="evenodd" clip-rule="evenodd" d="M307.776 289.588C307.033 292.867 307.776 296.252 309.263 299.638C315.741 300.061 330.608 300.59 337.83 299.743C355.777 297.733 354.715 283.769 340.06 285.356C333.051 286.097 316.059 288.424 307.776 289.588Z" fill="#5983B1"/>
<path fill-rule="evenodd" clip-rule="evenodd" d="M335.281 260.39C334.644 266.314 336.661 277.634 337.617 279.855C339.953 285.25 334.113 286.52 314.997 289.905C327.422 287.895 343.033 287.578 340.272 281.231C339.316 279.009 335.706 266.314 335.281 260.39Z" fill="#456F9B"/>
<path d="M204.258 150.968C225.387 164.847 253.814 158.896 267.752 137.677C281.69 116.458 275.861 88.0064 254.732 74.1284C233.603 60.2504 205.175 66.2012 191.237 87.4201C177.299 108.639 183.129 137.09 204.258 150.968Z" fill="#5984B2"/>
<path d="M250.933 105.444C255.351 98.8693 255.052 95.0324 253.173 92.7947C249.361 88.2572 240.049 89.6879 235.028 91.0289C224.505 88.5417 213.678 93.989 209.452 103.96C216.023 98.785 220.156 96.938 222.772 96.4005C217.534 99.7002 210.758 105.346 206.298 110.985C203.111 115.013 198.515 123.578 200.635 128.485C203.216 134.457 214.627 131.222 216.745 130.562C227.365 138.38 242.631 135.244 249.23 123.641L237.733 121.6C231.359 129.013 218.091 123.47 219.813 113.768L251.109 119.324C252.527 114.8 252.477 109.934 250.933 105.444ZM250.551 104.417C248.772 99.9722 245.584 96.167 241.44 93.6506C250.943 90.9779 256.357 94.8185 250.551 104.417ZM203.737 127.312C203.145 125.214 204.032 121.597 207.963 116.174C208.799 121.391 211.479 126.114 215.423 129.51C212.104 130.637 205.023 131.873 203.737 127.312ZM220.827 107.776C221.891 102.799 226.961 99.5635 232.316 100.514C237.671 101.465 241.318 106.248 240.604 111.287L220.827 107.776Z" fill="white"/>
<path fill-rule="evenodd" clip-rule="evenodd" d="M440.84 222.951C423.255 222.951 409 208.637 409 190.977C409 173.317 423.255 159 440.84 159C458.425 159 472.68 173.317 472.68 190.977C472.68 208.637 458.425 222.951 440.84 222.951Z" fill="#51B18B"/>
<path fill-rule="evenodd" clip-rule="evenodd" d="M443.104 188.632C443.104 183.652 437.96 184.083 436.268 189.114C433.017 198.783 443.104 198.752 443.104 188.632ZM457.41 199.057C454.349 205.317 448.248 207.45 441.69 207.368C416.707 207.053 420.251 174.585 441.799 174.585C452.113 174.585 456.445 181.455 456.252 188.088C455.941 198.761 444.871 202.803 441.771 198.514C434.977 203.04 429.053 195.885 431.245 188.335C433.294 181.278 440.767 179.132 444.201 183.132L444.5 181.791C446.214 181.791 447.928 181.791 449.642 181.791L446.817 195.544C446.667 197.217 452.553 193.648 452.553 187.595C452.553 181.618 447.574 178.491 442.156 178.323C425.088 177.792 421.952 203.509 441.85 203.509C446.121 203.509 450.321 202.583 453.083 199.057C454.525 199.057 455.967 199.057 457.41 199.057Z" fill="white"/>
<path d="M446.784 350.723C448.45 345.487 447.473 343.019 443.27 340.105C432.434 334.38 419.504 328.213 408.051 323.849C403.107 322.485 400.556 323.304 397.512 327.895C394.208 332.808 389.579 342.562 387.79 348.185C385.993 353.833 387.319 356.08 391.805 359.039C400.822 364.232 416.677 371.509 426.44 375.232C431.387 376.592 433.938 375.775 436.981 371.183C440.331 366.128 444.95 356.486 446.784 350.723ZM407.327 353.148L413.864 339.505L423.98 352.582L407.327 353.148Z" fill="#DB662D"/>
<path d="M123.503 202.468C133.3 190.633 131.444 173.195 119.358 163.519C107.272 153.844 89.5335 155.594 79.7374 167.43C69.9413 179.265 71.7974 196.703 83.883 206.379C95.9687 216.054 113.707 214.303 123.503 202.468Z" fill="#8B6CB0"/>
<path fill-rule="evenodd" clip-rule="evenodd" d="M112.459 193.627C111.903 194.298 111.115 194.686 110.293 194.768C109.461 194.848 108.607 194.622 107.923 194.075C107.234 193.522 106.835 192.746 106.749 191.938C106.663 191.134 106.89 190.292 107.449 189.616C108.005 188.944 108.795 188.559 109.614 188.476C110.443 188.396 111.298 188.619 111.984 189.169C112.674 189.721 113.073 190.502 113.159 191.305C113.245 192.114 113.018 192.951 112.459 193.627ZM89.2664 192.091C89.4123 193.107 88.6905 194.047 87.6566 194.186C86.6226 194.325 85.6635 193.612 85.5176 192.595C85.1389 189.958 85.4185 187.075 86.3478 184.215C87.2305 181.498 88.6974 178.79 90.7348 176.329C92.7998 173.834 95.2427 171.848 97.8156 170.44C100.526 168.958 103.386 168.118 106.121 167.988C107.165 167.94 108.057 168.734 108.111 169.76C108.164 170.786 107.36 171.659 106.316 171.707C104.149 171.81 101.859 172.487 99.6673 173.686C97.5204 174.861 95.4576 176.547 93.6839 178.69C91.9408 180.796 90.6928 183.085 89.9549 185.36C89.1993 187.686 88.9664 190.002 89.2664 192.091ZM96.566 191.861C96.7412 192.875 96.0446 193.835 95.0135 194.003C93.9828 194.171 93.0033 193.482 92.8283 192.468C92.4974 190.55 92.6457 188.459 93.2729 186.396C93.8649 184.443 94.8838 182.51 96.3215 180.773C97.7836 179.006 99.529 177.619 101.381 176.65L101.488 176.598C103.409 175.613 105.461 175.076 107.443 175.036C108.484 175.017 109.351 175.831 109.376 176.854C109.4 177.877 108.575 178.725 107.535 178.745C106.143 178.773 104.67 179.166 103.257 179.889L103.184 179.93C101.767 180.672 100.416 181.75 99.2706 183.134C98.1391 184.501 97.3462 185.993 96.8958 187.476C96.4394 188.978 96.3297 190.488 96.566 191.861ZM103.841 191.56C104.087 192.557 103.462 193.561 102.447 193.8C101.433 194.038 100.409 193.419 100.162 192.421C99.8647 191.204 99.8681 189.897 100.182 188.631C100.482 187.427 101.055 186.25 101.91 185.217C102.78 184.166 103.853 183.366 105.016 182.833C106.229 182.274 107.548 182.016 108.842 182.075C109.884 182.123 110.696 182.994 110.651 184.019C110.606 185.043 109.723 185.837 108.68 185.788C108.002 185.758 107.293 185.9 106.63 186.205C105.979 186.504 105.367 186.964 104.859 187.578C104.359 188.182 104.028 188.856 103.859 189.531C103.689 190.217 103.684 190.917 103.841 191.56Z" fill="white"/>
<path fill-rule="evenodd" clip-rule="evenodd" d="M297.101 25.0001H1149C1154.5 25.0001 1159 29.505 1159 35.0109V149.034L524.099 214.905C498 217.5 491.684 204 491.684 184.172C491.684 153.5 455.5 126 412.955 148.333C395.25 157.627 382.941 160.146 370.535 162.248C335.819 168.355 297 137.722 297 105.187V25.0001H297.101Z" fill="#DC662D"/>
<path d="M442.7 64C446.5 64 449.8 64.64 452.6 65.92C455.4 67.16 457.56 68.96 459.08 71.32C460.6 73.64 461.36 76.38 461.36 79.54C461.36 82.7 460.6 85.44 459.08 87.76C457.56 90.08 455.4 91.88 452.6 93.16C449.8 94.4 446.5 95.02 442.7 95.02H435.38V106H423.5V64H442.7ZM441.98 85.66C444.42 85.66 446.26 85.14 447.5 84.1C448.74 83.02 449.36 81.5 449.36 79.54C449.36 77.58 448.74 76.06 447.5 74.98C446.26 73.9 444.42 73.36 441.98 73.36H435.38V85.66H441.98ZM500.462 96.82V106H466.742V64H499.682V73.18H478.502V80.26H497.162V89.14H478.502V96.82H500.462ZM524.21 89.92H518.81V106H506.99V64H518.81V80.32H524.51L534.53 64H547.01L533.87 84.28L547.13 106H533.75L524.21 89.92ZM571.347 106.84C566.907 106.84 562.907 105.9 559.347 104.02C555.827 102.14 553.047 99.54 551.007 96.22C549.007 92.9 548.007 89.16 548.007 85C548.007 80.84 549.007 77.1 551.007 73.78C553.047 70.46 555.827 67.86 559.347 65.98C562.907 64.1 566.907 63.16 571.347 63.16C575.787 63.16 579.767 64.1 583.287 65.98C586.847 67.86 589.627 70.46 591.627 73.78C593.667 77.1 594.687 80.84 594.687 85C594.687 89.16 593.667 92.9 591.627 96.22C589.627 99.54 586.847 102.14 583.287 104.02C579.767 105.9 575.787 106.84 571.347 106.84ZM571.347 97C573.467 97 575.387 96.5 577.107 95.5C578.827 94.5 580.187 93.1 581.187 91.3C582.187 89.46 582.687 87.36 582.687 85C582.687 82.64 582.187 80.56 581.187 78.76C580.187 76.92 578.827 75.5 577.107 74.5C575.387 73.5 573.467 73 571.347 73C569.227 73 567.307 73.5 565.587 74.5C563.867 75.5 562.507 76.92 561.507 78.76C560.507 80.56 560.007 82.64 560.007 85C560.007 87.36 560.507 89.46 561.507 91.3C562.507 93.1 563.867 94.5 565.587 95.5C567.307 96.5 569.227 97 571.347 97ZM638.899 106L638.839 83.74L628.039 101.86H622.759L611.959 84.22V106H601.039V64H610.819L625.579 88.24L639.979 64H649.759L649.879 106H638.899ZM692.533 96.82V106H658.813V64H691.753V73.18H670.573V80.26H689.233V89.14H670.573V96.82H692.533ZM739.261 64V106H727.381V89.62H711.181V106H699.301V64H711.181V79.78H727.381V64L739.261 64ZM793.288 96.58V114.46H782.428V106H755.548V114.46H744.628V96.58H746.128C748.608 96.54 750.348 94.84 751.348 91.48C752.388 88.12 753.028 83.28 753.268 76.96L753.748 64H787.588V96.58H793.288ZM763.648 77.98C763.488 82.46 763.128 86.26 762.568 89.38C762.008 92.5 761.148 94.9 759.988 96.58H775.888V73.42H763.828L763.648 77.98ZM838.869 64L821.469 96.46C819.629 99.94 817.369 102.58 814.689 104.38C812.049 106.18 809.149 107.08 805.989 107.08C803.669 107.08 801.189 106.56 798.549 105.52L801.369 96.76C803.009 97.24 804.409 97.48 805.569 97.48C806.729 97.48 807.749 97.22 808.629 96.7C809.549 96.18 810.389 95.36 811.149 94.24L794.829 64H807.369L817.149 84.28L827.289 64H838.869ZM842.68 64H854.38V88.66L871.72 64H882.88V106H871.18V81.4L853.9 106H842.68V64ZM862.72 61.48C858.48 61.48 855.36 60.66 853.36 59.02C851.4 57.38 850.42 54.94 850.42 51.7H858.4C858.44 53.1 858.8 54.14 859.48 54.82C860.16 55.5 861.24 55.84 862.72 55.84C864.2 55.84 865.3 55.5 866.02 54.82C866.74 54.14 867.12 53.1 867.16 51.7H875.14C875.14 54.94 874.14 57.38 872.14 59.02C870.14 60.66 867 61.48 862.72 61.48ZM954.479 96.58V114.46H943.619V106H916.739V114.46H905.819V96.58H907.319C909.799 96.54 911.539 94.84 912.539 91.48C913.579 88.12 914.219 83.28 914.459 76.96L914.939 64H948.779V96.58H954.479ZM924.839 77.98C924.679 82.46 924.319 86.26 923.759 89.38C923.199 92.5 922.339 94.9 921.179 96.58H937.079V73.42H925.019L924.839 77.98ZM979.36 64C983.16 64 986.46 64.64 989.26 65.92C992.06 67.16 994.22 68.96 995.74 71.32C997.26 73.64 998.02 76.38 998.02 79.54C998.02 82.7 997.26 85.44 995.74 87.76C994.22 90.08 992.06 91.88 989.26 93.16C986.46 94.4 983.16 95.02 979.36 95.02H972.04V106H960.16V64H979.36ZM978.64 85.66C981.08 85.66 982.92 85.14 984.16 84.1C985.4 83.02 986.02 81.5 986.02 79.54C986.02 77.58 985.4 76.06 984.16 74.98C982.92 73.9 981.08 73.36 978.64 73.36H972.04V85.66H978.64ZM1042.36 64L1024.96 96.46C1023.12 99.94 1020.86 102.58 1018.18 104.38C1015.54 106.18 1012.64 107.08 1009.48 107.08C1007.16 107.08 1004.68 106.56 1002.04 105.52L1004.86 96.76C1006.5 97.24 1007.9 97.48 1009.06 97.48C1010.22 97.48 1011.24 97.22 1012.12 96.7C1013.04 96.18 1013.88 95.36 1014.64 94.24L998.325 64H1010.86L1020.64 84.28L1030.78 64H1042.36ZM1076.9 73.42L1057.88 73.42V106H1046.18V64H1076.96L1076.9 73.42ZM1122.17 64L1104.77 96.46C1102.93 99.94 1100.67 102.58 1097.99 104.38C1095.35 106.18 1092.45 107.08 1089.29 107.08C1086.97 107.08 1084.49 106.56 1081.85 105.52L1084.67 96.76C1086.31 97.24 1087.71 97.48 1088.87 97.48C1090.03 97.48 1091.05 97.22 1091.93 96.7C1092.85 96.18 1093.69 95.36 1094.45 94.24L1078.13 64H1090.67L1100.45 84.28L1110.59 64H1122.17Z" fill="white"/>
<path d="M621.592 293.966L633.141 403.876L602.224 407.123L593.199 321.237L572.901 323.37L570.376 299.347L621.592 293.966ZM683.147 327.98C698.449 326.372 710.074 328.326 718.02 333.841C726.071 339.345 730.647 347.331 731.747 357.798C732.461 364.602 731.352 371.069 728.417 377.198C725.576 383.211 720.746 388.322 713.926 392.531C707.199 396.624 698.579 399.223 688.065 400.328C680.362 401.137 672.612 400.999 664.815 399.913C657.122 398.816 650.388 396.825 644.612 393.939L653.24 369.38C657.92 371.851 662.945 373.599 668.314 374.622C673.788 375.635 679.18 375.862 684.489 375.304C689.798 374.746 693.909 373.309 696.823 370.992C699.83 368.56 701.141 365.512 700.756 361.848C700.371 358.184 698.518 355.574 695.197 354.018C691.876 352.462 686.26 352.1 678.349 352.931L648.681 356.048L647.399 291.255L717.039 283.939L719.564 307.962L675.531 312.588L675.808 328.751L683.147 327.98ZM792.905 389.314C783.536 390.298 774.972 388.922 767.212 385.187C759.452 381.451 753.04 375.511 747.974 367.365C743.001 359.103 739.893 349.058 738.65 337.23C737.407 325.401 738.365 314.982 741.523 305.972C744.774 296.847 749.806 289.651 756.62 284.384C763.434 279.118 771.525 275.992 780.894 275.008C790.158 274.035 798.67 275.416 806.43 279.151C814.19 282.887 820.556 288.886 825.529 297.147C830.595 305.293 833.749 315.28 834.992 327.109C836.235 338.937 835.231 349.414 831.98 358.539C828.822 367.549 823.836 374.688 817.022 379.954C810.209 385.221 802.169 388.341 792.905 389.314ZM790.232 363.878C795.437 363.331 799.285 360.387 801.775 355.045C804.359 349.588 805.074 341.364 803.919 330.373C802.764 319.382 800.361 311.538 796.71 306.842C793.153 302.03 788.771 299.897 783.566 300.444C778.258 301.002 774.311 304.009 771.727 309.467C769.236 314.808 768.568 322.974 769.723 333.965C770.878 344.956 773.234 352.858 776.792 357.67C780.443 362.366 784.923 364.435 790.232 363.878Z" fill="#DC662D"/>
<path d="M472.012 287.97C467.621 288.432 463.567 287.913 459.85 286.413C456.172 284.909 453.151 282.612 450.786 279.522C448.461 276.428 447.081 272.813 446.647 268.676C446.212 264.538 446.81 260.715 448.441 257.206C450.112 253.692 452.59 250.817 455.874 248.582C459.199 246.342 463.057 244.992 467.448 244.531C471.839 244.069 475.873 244.591 479.551 246.095C483.268 247.594 486.289 249.891 488.614 252.985C490.979 256.075 492.379 259.688 492.813 263.826C493.248 267.963 492.63 271.788 490.959 275.302C489.328 278.811 486.851 281.686 483.526 283.925C480.241 286.161 476.403 287.509 472.012 287.97ZM470.984 278.185C473.081 277.964 474.927 277.268 476.524 276.094C478.12 274.921 479.319 273.388 480.12 271.494C480.917 269.56 481.192 267.419 480.945 265.072C480.699 262.725 479.987 260.709 478.81 259.022C477.628 257.297 476.135 256.026 474.329 255.21C472.524 254.394 470.573 254.096 468.476 254.317C466.379 254.537 464.533 255.234 462.936 256.407C461.339 257.58 460.143 259.133 459.346 261.067C458.545 262.961 458.268 265.082 458.515 267.429C458.761 269.776 459.475 271.812 460.657 273.538C461.834 275.224 463.325 276.475 465.131 277.291C466.936 278.107 468.887 278.405 470.984 278.185ZM526.732 257.789L516.407 258.873L518.859 282.204L507.643 283.383L505.192 260.052L494.807 261.143L493.861 252.132L525.786 248.778L526.732 257.789ZM550.332 245.657C553.26 245.349 555.984 245.767 558.503 246.91C561.059 248.009 563.162 249.759 564.815 252.159C566.502 254.516 567.521 257.365 567.873 260.706C568.224 264.048 567.821 267.066 566.664 269.762C565.543 272.413 563.849 274.562 561.582 276.208C559.351 277.81 556.771 278.764 553.844 279.072C550.085 279.467 546.98 278.647 544.526 276.612L546.043 291.052L534.769 292.237L530.154 248.32L540.894 247.191L541.233 250.413C543.066 247.687 546.1 246.101 550.332 245.657ZM550.523 270.311C552.501 270.103 554.052 269.257 555.176 267.771C556.296 266.246 556.73 264.29 556.479 261.903C556.228 259.516 555.399 257.713 553.991 256.494C552.579 255.234 550.884 254.708 548.906 254.916C546.928 255.124 545.379 255.991 544.259 257.516C543.135 259.001 542.699 260.938 542.95 263.324C543.201 265.711 544.032 267.534 545.444 268.794C546.852 270.013 548.545 270.519 550.523 270.311ZM571.588 243.967L582.803 242.788L584.584 259.735L596.273 241.373L606.658 240.282L610.056 272.624L598.781 273.808L596.994 256.802L585.43 275.211L574.986 276.308L571.588 243.967ZM648.849 268.548L647.063 251.542L640.3 266.55L635.494 267.055L625.972 253.517L627.784 270.761L617.637 271.827L614.238 239.486L626.106 238.239L636.841 254.185L644.917 236.263L655.539 235.147L658.997 267.482L648.849 268.548ZM676.263 232.427C681.604 231.866 685.808 232.671 688.876 234.842C691.94 236.974 693.737 240.566 694.268 245.618L696.155 263.578L685.652 264.682L685.213 260.505C683.921 263.818 680.922 265.722 676.214 266.216C673.722 266.478 671.52 266.267 669.608 265.583C667.696 264.899 666.188 263.871 665.084 262.499C664.015 261.083 663.381 259.42 663.18 257.511C662.858 254.448 663.777 251.958 665.935 250.042C668.089 248.086 671.599 246.853 676.465 246.342L682.874 245.668C682.317 242.268 679.862 240.797 675.511 241.254C673.968 241.416 672.432 241.839 670.904 242.522C669.372 243.166 668.098 243.983 667.082 244.975L662.476 237.676C664.131 236.296 666.191 235.154 668.655 234.252C671.156 233.305 673.692 232.697 676.263 232.427ZM678.606 258.725C679.912 258.588 681.026 258.15 681.948 257.409C682.87 256.669 683.484 255.659 683.789 254.38L683.495 251.576L678.629 252.087C675.345 252.432 673.819 253.698 674.049 255.886C674.153 256.881 674.612 257.637 675.427 258.155C676.241 258.672 677.301 258.863 678.606 258.725ZM699.54 230.525L710.755 229.346L712.535 246.293L724.225 227.931L734.609 226.84L738.008 259.182L726.733 260.366L724.946 243.36L713.382 261.769L702.938 262.866L699.54 230.525ZM716.007 225.658C712.209 226.057 709.317 225.556 707.33 224.156C705.378 222.712 704.207 220.321 703.816 216.984L711.115 216.217C711.301 217.605 711.728 218.626 712.397 219.28C713.061 219.894 714.046 220.132 715.352 219.995C716.657 219.858 717.589 219.398 718.147 218.616C718.744 217.829 718.971 216.759 718.829 215.407L726.247 214.628C726.598 217.969 725.929 220.553 724.242 222.379C722.589 224.162 719.844 225.254 716.007 225.658Z" fill="#5F6061"/>
<path d="M403.777 92.7178C408.087 69.4205 392.783 47.0568 369.594 42.7671C346.405 38.4775 324.113 53.8862 319.804 77.1836C315.494 100.481 330.798 122.845 353.987 127.134C377.176 131.424 399.468 116.015 403.777 92.7178Z" fill="white"/>
<path fill-rule="evenodd" clip-rule="evenodd" d="M361.493 95.0033L385.093 89.7033L380.193 68.0033L361.493 72.2033V68.3033L383.393 63.4033L390.393 94.3033L368.493 99.2033L369.593 103.903L373.193 103.103C373.793 103.003 374.393 103.303 374.493 103.903L374.893 105.703C374.993 106.303 374.693 106.903 374.093 107.003L361.593 109.803V105.603L362.993 105.303L361.893 100.603L361.493 100.703V95.0033ZM342.693 99.2033L361.393 95.0033V100.803L339.993 105.603L332.993 74.7033L361.493 68.3033V72.2033L337.793 77.6033L342.693 99.2033ZM361.493 105.703V109.903L360.193 110.203C359.593 110.303 358.993 110.003 358.893 109.403L358.493 107.603C358.393 107.003 358.693 106.403 359.293 106.303L361.493 105.703Z" fill="#DC662D"/>
<path fill-rule="evenodd" clip-rule="evenodd" d="M1159 177V212.435L764.711 255.196L774 236.5L760.995 220.196L1159 177Z" fill="#5F6061"/>
<path d="M801.54 236.298L795.793 236.902L795.004 239.669L791.083 240.081L795.646 225.785L799.432 225.387L806.887 238.421L802.887 238.841L801.54 236.298ZM800.115 233.566L797.908 229.377L796.62 233.933L800.115 233.566ZM812.766 233.994L811.524 234.124L811.92 237.892L808.231 238.28L807.119 227.698L810.808 227.311L811.218 231.215L812.538 231.077L814.71 226.901L818.613 226.491L815.612 231.938L819.957 237.048L815.608 237.505L812.766 233.994ZM833.1 232.667L833.644 237.841L830.227 238.2L829.995 235.993L821.18 236.92L820.069 226.338L823.738 225.952L824.538 233.566L827.955 233.207L827.155 225.593L830.844 225.206L831.644 232.82L833.1 232.667ZM833.891 224.886L837.58 224.498L838.691 235.08L835.003 235.467L833.891 224.886ZM835.612 223.521C834.939 223.591 834.375 223.46 833.922 223.126C833.468 222.792 833.211 222.345 833.153 221.785C833.094 221.226 833.252 220.735 833.626 220.314C834.001 219.893 834.525 219.648 835.198 219.577C835.871 219.506 836.433 219.631 836.886 219.952C837.337 220.26 837.592 220.694 837.651 221.254C837.712 221.839 837.557 222.349 837.183 222.783C836.809 223.204 836.285 223.45 835.612 223.521ZM849.974 223.196L851.085 233.778L847.804 234.123L847.503 231.253L845.833 231.428L844.271 234.494L840.368 234.904L842.343 231.281C841.611 231.042 841.03 230.676 840.598 230.182C840.178 229.673 839.929 229.041 839.849 228.286C839.717 227.024 840.08 225.999 840.94 225.211C841.798 224.41 843.042 223.924 844.673 223.753L849.974 223.196ZM845.059 226.673C844.023 226.782 843.547 227.234 843.63 228.027C843.674 228.444 843.829 228.737 844.096 228.906C844.375 229.074 844.774 229.131 845.291 229.077L847.252 228.871L847 226.469L845.059 226.673ZM871.348 228.649L871.89 233.803L868.473 234.162L868.243 231.975L861.622 232.671L861.852 234.857L858.416 235.219L857.874 230.064L858.262 230.024C858.895 229.944 859.299 229.553 859.474 228.85C859.647 228.134 859.695 227.156 859.617 225.914L859.365 222.21L869.092 221.188L869.892 228.802L871.348 228.649ZM862.966 225.838C863.027 226.793 863.035 227.561 862.992 228.145C862.949 228.729 862.802 229.204 862.553 229.573L866.203 229.189L865.713 224.523L862.898 224.819L862.966 225.838ZM882.851 219.742L883.963 230.324L880.274 230.711L879.472 223.078L876.812 223.357L876.904 224.986C876.998 226.371 876.981 227.524 876.856 228.445C876.73 229.366 876.441 230.107 875.99 230.668C875.537 231.216 874.871 231.536 873.991 231.628C873.537 231.676 872.933 231.654 872.178 231.562L872.015 228.52C872.251 228.521 872.407 228.518 872.485 228.51C872.886 228.467 873.177 228.305 873.357 228.023C873.536 227.741 873.642 227.381 873.675 226.944C873.706 226.493 873.696 225.902 873.646 225.17L873.337 220.742L882.851 219.742ZM895.232 218.442L896.344 229.023L893.062 229.368L892.761 226.498L891.091 226.673L889.529 229.739L885.626 230.149L887.601 226.527C886.87 226.288 886.288 225.921 885.857 225.427C885.437 224.919 885.187 224.287 885.108 223.532C884.975 222.269 885.338 221.244 886.198 220.457C887.056 219.656 888.301 219.17 889.931 218.998L895.232 218.442ZM890.317 221.919C889.281 222.028 888.805 222.479 888.889 223.273C888.932 223.689 889.088 223.982 889.354 224.152C889.633 224.32 890.032 224.377 890.55 224.322L892.511 224.116L892.258 221.715L890.317 221.919ZM903.361 217.588L907.05 217.2L908.162 227.782L904.473 228.169L903.361 217.588ZM905.083 216.222C904.41 216.293 903.846 216.161 903.392 215.827C902.938 215.494 902.682 215.047 902.623 214.487C902.564 213.927 902.722 213.437 903.097 213.016C903.471 212.595 903.995 212.349 904.668 212.279C905.341 212.208 905.904 212.333 906.357 212.654C906.808 212.962 907.063 213.396 907.121 213.955C907.183 214.541 907.027 215.051 906.654 215.485C906.279 215.906 905.756 216.152 905.083 216.222ZM915.954 227.141C914.789 227.263 913.722 227.138 912.754 226.766C911.786 226.394 910.999 225.819 910.394 225.04C909.801 224.26 909.45 223.343 909.339 222.289C909.228 221.235 909.382 220.271 909.801 219.398C910.231 218.511 910.882 217.791 911.753 217.239C912.623 216.674 913.64 216.33 914.805 216.208C915.996 216.083 917.052 216.235 917.974 216.664C918.894 217.081 919.584 217.726 920.042 218.599L917.342 220.363C916.763 219.463 916.014 219.061 915.095 219.158C914.435 219.227 913.908 219.506 913.515 219.995C913.134 220.482 912.985 221.116 913.067 221.897C913.15 222.691 913.429 223.294 913.904 223.704C914.391 224.101 914.964 224.264 915.624 224.195C916.543 224.098 917.192 223.55 917.572 222.549L920.579 223.714C920.313 224.663 919.773 225.443 918.961 226.055C918.147 226.654 917.144 227.016 915.954 227.141ZM921.298 215.703L924.967 215.318L925.38 219.242L929.166 218.844L928.753 214.92L932.442 214.532L933.554 225.114L929.865 225.502L929.475 221.792L925.689 222.19L926.079 225.899L922.41 226.285L921.298 215.703ZM946.152 213.092L942.766 224.581C942.372 225.938 941.821 226.917 941.112 227.518C940.404 228.132 939.5 228.496 938.4 228.612C937.843 228.67 937.271 228.638 936.682 228.516C936.108 228.405 935.631 228.225 935.251 227.976L936.26 225.244C936.487 225.418 936.749 225.542 937.045 225.616C937.355 225.702 937.659 225.729 937.956 225.698C938.306 225.661 938.583 225.559 938.788 225.393C939.006 225.226 939.176 224.977 939.299 224.649L933.668 214.404L937.454 214.006L940.715 220.197L942.638 213.461L946.152 213.092ZM957.66 211.706C958.76 211.59 959.768 211.721 960.685 212.098C961.613 212.461 962.366 213.034 962.946 213.815C963.524 214.583 963.868 215.495 963.979 216.549C964.09 217.603 963.943 218.572 963.539 219.457C963.134 220.342 962.517 221.065 961.686 221.626C960.868 222.185 959.909 222.523 958.808 222.639C957.423 222.784 956.188 222.545 955.102 221.923C954.028 221.298 953.274 220.404 952.837 219.239L951.73 219.355L952.131 223.162L948.461 223.548L947.349 212.966L951.019 212.581L951.402 216.232L952.528 216.113C952.756 214.918 953.326 213.924 954.237 213.131C955.147 212.325 956.288 211.85 957.66 211.706ZM958.499 219.691C959.107 219.627 959.588 219.346 959.941 218.848C960.295 218.35 960.43 217.711 960.348 216.93C960.266 216.149 960.001 215.559 959.554 215.158C959.106 214.758 958.578 214.59 957.969 214.654C957.361 214.717 956.88 214.992 956.525 215.476C956.17 215.961 956.034 216.594 956.116 217.375C956.198 218.156 956.463 218.753 956.912 219.166C957.362 219.58 957.89 219.754 958.499 219.691ZM975.248 210.035L976.36 220.617L972.691 221.003L972.295 217.235C971.561 217.72 970.689 218.015 969.679 218.121C968.204 218.276 967.062 218.061 966.254 217.474C965.447 216.888 964.968 215.879 964.818 214.447L964.473 211.167L968.162 210.78L968.48 213.806C968.541 214.392 968.715 214.801 969.001 215.034C969.299 215.253 969.713 215.334 970.244 215.279C970.917 215.208 971.511 215.001 972.024 214.657L971.579 210.421L975.248 210.035ZM977.743 209.773L981.412 209.388L981.995 214.932L985.819 208.925L989.217 208.568L990.329 219.15L986.64 219.537L986.055 213.973L982.272 219.996L978.854 220.355L977.743 209.773ZM999.469 218.189L997.294 215.615L995.566 218.599L991.567 219.019L995.01 213.308L990.571 208.426L994.726 207.989L996.871 210.468L998.531 207.589L1002.43 207.179L999.092 212.741L1003.68 217.747L999.469 218.189ZM1013.74 205.814C1015.48 205.631 1016.86 205.894 1017.86 206.605C1018.86 207.302 1019.45 208.477 1019.63 210.13L1020.24 216.007L1016.81 216.368L1016.66 215.001C1016.24 216.085 1015.26 216.708 1013.72 216.87C1012.9 216.956 1012.18 216.886 1011.56 216.663C1010.93 216.439 1010.44 216.103 1010.08 215.654C1009.73 215.19 1009.52 214.646 1009.45 214.021C1009.35 213.019 1009.65 212.205 1010.36 211.578C1011.06 210.938 1012.21 210.534 1013.8 210.367L1015.9 210.147C1015.72 209.034 1014.91 208.553 1013.49 208.702C1012.98 208.755 1012.48 208.894 1011.98 209.117C1011.48 209.328 1011.06 209.595 1010.73 209.92L1009.22 207.532C1009.77 207.08 1010.44 206.707 1011.25 206.411C1012.06 206.102 1012.89 205.903 1013.74 205.814ZM1014.5 214.419C1014.93 214.374 1015.29 214.231 1015.6 213.988C1015.9 213.746 1016.1 213.416 1016.2 212.997L1016.1 212.08L1014.51 212.247C1013.44 212.36 1012.94 212.774 1013.01 213.49C1013.05 213.815 1013.2 214.063 1013.46 214.232C1013.73 214.402 1014.08 214.464 1014.5 214.419ZM1027.95 205.446C1028.98 205.338 1029.88 205.447 1030.68 205.772C1031.47 206.083 1032.1 206.59 1032.56 207.291C1033.04 207.977 1033.33 208.809 1033.43 209.785C1033.54 210.787 1033.37 211.699 1032.94 212.522C1032.51 213.33 1031.87 213.996 1031.01 214.521C1030.16 215.031 1029.17 215.345 1028.04 215.464C1026.19 215.658 1024.66 215.234 1023.44 214.191C1022.21 213.148 1021.48 211.469 1021.24 209.152C1020.78 204.805 1022.43 202.065 1026.18 200.934L1031.19 199.421L1032.02 202.472L1027.68 203.777C1026.58 204.104 1025.78 204.529 1025.3 205.053C1024.83 205.563 1024.59 206.26 1024.58 207.143C1025.43 206.158 1026.56 205.593 1027.95 205.446ZM1027.77 212.65C1028.43 212.581 1028.92 212.312 1029.25 211.843C1029.6 211.372 1029.74 210.818 1029.67 210.181C1029.6 209.504 1029.35 208.997 1028.92 208.66C1028.49 208.311 1027.95 208.17 1027.3 208.238C1026.64 208.307 1026.13 208.558 1025.77 208.991C1025.43 209.422 1025.29 209.976 1025.36 210.653C1025.43 211.304 1025.69 211.816 1026.13 212.191C1026.58 212.565 1027.12 212.718 1027.77 212.65ZM1040.84 214.02C1039.72 214.139 1038.68 214.011 1037.72 213.638C1036.77 213.264 1035.99 212.688 1035.38 211.91C1034.79 211.13 1034.44 210.213 1034.33 209.158C1034.22 208.117 1034.37 207.154 1034.79 206.268C1035.22 205.38 1035.86 204.662 1036.7 204.112C1037.56 203.549 1038.56 203.207 1039.69 203.087C1040.83 202.968 1041.88 203.095 1042.84 203.468C1043.79 203.828 1044.56 204.398 1045.15 205.178C1045.75 205.945 1046.1 206.856 1046.21 207.91C1046.32 208.964 1046.17 209.935 1045.75 210.821C1045.33 211.707 1044.69 212.432 1043.84 212.995C1042.98 213.559 1041.98 213.901 1040.84 214.02ZM1040.53 211.072C1041.18 211.004 1041.69 210.727 1042.06 210.241C1042.42 209.742 1042.56 209.096 1042.48 208.302C1042.4 207.521 1042.13 206.931 1041.67 206.532C1041.2 206.133 1040.65 205.967 1040 206.035C1039.36 206.103 1038.85 206.38 1038.48 206.866C1038.11 207.352 1037.97 207.986 1038.05 208.767C1038.14 209.561 1038.41 210.164 1038.87 210.576C1039.33 210.975 1039.89 211.14 1040.53 211.072ZM1047.38 202.457L1051.05 202.072L1051.47 205.996L1055.25 205.598L1054.84 201.674L1058.53 201.286L1059.64 211.868L1055.95 212.256L1055.56 208.546L1051.78 208.944L1052.17 212.653L1048.5 213.039L1047.38 202.457ZM1072.23 205.216C1072.24 205.242 1072.25 205.549 1072.27 206.139L1064.62 206.943C1064.83 207.473 1065.18 207.865 1065.65 208.118C1066.13 208.357 1066.71 208.441 1067.38 208.37C1067.89 208.317 1068.31 208.2 1068.66 208.019C1069.02 207.836 1069.37 207.562 1069.71 207.198L1071.87 209.024C1070.97 210.277 1069.53 211.007 1067.56 211.213C1066.33 211.342 1065.23 211.222 1064.25 210.851C1063.27 210.48 1062.47 209.906 1061.87 209.127C1061.28 208.347 1060.92 207.43 1060.81 206.376C1060.7 205.335 1060.85 204.378 1061.26 203.506C1061.67 202.62 1062.3 201.897 1063.13 201.336C1063.96 200.775 1064.93 200.437 1066.03 200.321C1067.07 200.211 1068.05 200.332 1068.95 200.685C1069.85 201.025 1070.59 201.585 1071.17 202.367C1071.76 203.134 1072.11 204.083 1072.23 205.216ZM1066.32 202.955C1065.75 203.014 1065.29 203.227 1064.94 203.594C1064.6 203.958 1064.4 204.426 1064.36 204.997L1068.67 204.544C1068.51 203.995 1068.21 203.578 1067.79 203.294C1067.38 203.008 1066.89 202.895 1066.32 202.955ZM1073.62 199.7L1077.29 199.315L1077.71 203.239L1081.49 202.841L1081.08 198.917L1084.77 198.53L1085.88 209.111L1082.19 209.499L1081.8 205.789L1078.02 206.187L1078.41 209.897L1074.74 210.282L1073.62 199.7ZM1096.96 200.229L1093.59 200.584L1094.39 208.218L1090.72 208.603L1089.92 200.969L1086.52 201.326L1086.21 198.378L1096.65 197.281L1096.96 200.229ZM1098.08 197.131L1101.77 196.743L1102.88 207.325L1099.2 207.712L1098.08 197.131ZM1099.8 195.766C1099.13 195.836 1098.57 195.705 1098.11 195.371C1097.66 195.037 1097.4 194.59 1097.35 194.03C1097.29 193.471 1097.44 192.98 1097.82 192.559C1098.19 192.138 1098.72 191.893 1099.39 191.822C1100.06 191.751 1100.63 191.876 1101.08 192.197C1101.53 192.505 1101.78 192.939 1101.84 193.499C1101.91 194.084 1101.75 194.594 1101.38 195.028C1101 195.449 1100.48 195.695 1099.8 195.766ZM1113.28 200.627C1114.52 200.904 1115.21 201.674 1115.35 202.936C1115.45 203.887 1115.16 204.674 1114.48 205.298C1113.79 205.909 1112.73 206.29 1111.3 206.441L1105.38 207.063L1104.26 196.481L1109.91 195.888C1111.29 195.744 1112.37 195.873 1113.17 196.276C1113.99 196.677 1114.44 197.314 1114.53 198.186C1114.59 198.693 1114.5 199.156 1114.29 199.574C1114.07 199.991 1113.73 200.343 1113.28 200.627ZM1108.01 200.391L1110.03 200.179C1110.89 200.089 1111.28 199.725 1111.21 199.087C1111.15 198.476 1110.69 198.215 1109.83 198.304L1107.82 198.517L1108.01 200.391ZM1110.72 204.074C1111.61 203.98 1112.02 203.608 1111.95 202.957C1111.88 202.307 1111.42 202.027 1110.55 202.118L1108.22 202.363L1108.42 204.315L1110.72 204.074Z" fill="white"/>
<path fill-rule="evenodd" clip-rule="evenodd" d="M165 102.001H152V102L29.0004 102V48.0001L152 48.0001H152H165L152 74.9981V74.9987L165 102.001Z" fill="#8B6CB0"/>
<path d="M59.2205 80.0009H52.7205L51.4805 83.0009H48.1605L54.4005 69.0009H57.6005L63.8605 83.0009H60.4605L59.2205 80.0009ZM58.2005 77.5409L55.9805 72.1809L53.7605 77.5409H58.2005ZM71.1371 77.3609H68.8971V83.0009H65.6771V69.0009H68.8971V74.6609H71.2171L74.8971 69.0009H78.3171L73.7371 75.7609L78.4571 83.0009H74.7771L71.1371 77.3609ZM94.6549 80.3609V85.9609H91.6749V83.0009H79.9749V69.0009H83.1949V80.3609H89.4349V69.0009H92.6549V80.3609H94.6549ZM96.7913 69.0009H100.011V83.0009H96.7913V69.0009ZM114.67 69.0009V83.0009H111.47V79.2809H108.51L106.03 83.0009H102.61L105.53 78.7809C104.584 78.3942 103.857 77.8142 103.35 77.0409C102.844 76.2542 102.59 75.3142 102.59 74.2209C102.59 73.1409 102.837 72.2142 103.33 71.4409C103.824 70.6542 104.524 70.0542 105.43 69.6409C106.337 69.2142 107.404 69.0009 108.63 69.0009H114.67ZM108.71 71.6409C107.79 71.6409 107.084 71.8542 106.59 72.2809C106.11 72.7075 105.87 73.3409 105.87 74.1809C105.87 74.9942 106.104 75.6209 106.57 76.0609C107.037 76.5009 107.724 76.7209 108.63 76.7209H111.47V71.6409H108.71ZM117.478 69.0009H121.198L120.578 78.1409H118.098L117.478 69.0009ZM119.338 83.1609C118.791 83.1609 118.331 82.9875 117.958 82.6409C117.598 82.2809 117.418 81.8475 117.418 81.3409C117.418 80.8342 117.598 80.4142 117.958 80.0809C118.318 79.7342 118.778 79.5609 119.338 79.5609C119.898 79.5609 120.358 79.7342 120.718 80.0809C121.078 80.4142 121.258 80.8342 121.258 81.3409C121.258 81.8475 121.071 82.2809 120.698 82.6409C120.338 82.9875 119.885 83.1609 119.338 83.1609Z" fill="white"/>
<g filter="url(#filter1_d)">
<rect x="867" y="370" width="270" height="60" rx="30" fill="#DC662D"/>
<path d="M959.627 404.02V408.682H957.467V406H947.801V408.682H945.623L945.641 404.02H946.181C946.973 403.984 947.525 403.402 947.837 402.274C948.161 401.134 948.359 399.508 948.431 397.396L948.575 393.4H957.809V404.02H959.627ZM950.483 397.612C950.423 399.244 950.291 400.606 950.087 401.698C949.883 402.778 949.559 403.552 949.115 404.02H955.505V395.38H950.573L950.483 397.612ZM970.403 401.248C970.403 401.404 970.391 401.626 970.367 401.914H962.825C962.957 402.622 963.299 403.186 963.851 403.606C964.415 404.014 965.111 404.218 965.939 404.218C966.995 404.218 967.865 403.87 968.549 403.174L969.755 404.56C969.323 405.076 968.777 405.466 968.117 405.73C967.457 405.994 966.713 406.126 965.885 406.126C964.829 406.126 963.899 405.916 963.095 405.496C962.291 405.076 961.667 404.494 961.223 403.75C960.791 402.994 960.575 402.142 960.575 401.194C960.575 400.258 960.785 399.418 961.205 398.674C961.637 397.918 962.231 397.33 962.987 396.91C963.743 396.49 964.595 396.28 965.543 396.28C966.479 396.28 967.313 396.49 968.045 396.91C968.789 397.318 969.365 397.9 969.773 398.656C970.193 399.4 970.403 400.264 970.403 401.248ZM965.543 398.08C964.823 398.08 964.211 398.296 963.707 398.728C963.215 399.148 962.915 399.712 962.807 400.42H968.261C968.165 399.724 967.871 399.16 967.379 398.728C966.887 398.296 966.275 398.08 965.543 398.08ZM980.126 398.296H976.76V406H974.51V398.296H971.126V396.388H980.126V398.296ZM985.34 396.28C986.756 396.28 987.836 396.622 988.58 397.306C989.336 397.978 989.714 398.998 989.714 400.366V406H987.59V404.83C987.314 405.25 986.918 405.574 986.402 405.802C985.898 406.018 985.286 406.126 984.566 406.126C983.846 406.126 983.216 406.006 982.676 405.766C982.136 405.514 981.716 405.172 981.416 404.74C981.128 404.296 980.984 403.798 980.984 403.246C980.984 402.382 981.302 401.692 981.938 401.176C982.586 400.648 983.6 400.384 984.98 400.384H987.464V400.24C987.464 399.568 987.26 399.052 986.852 398.692C986.456 398.332 985.862 398.152 985.07 398.152C984.53 398.152 983.996 398.236 983.468 398.404C982.952 398.572 982.514 398.806 982.154 399.106L981.272 397.468C981.776 397.084 982.382 396.79 983.09 396.586C983.798 396.382 984.548 396.28 985.34 396.28ZM985.034 404.488C985.598 404.488 986.096 404.362 986.528 404.11C986.972 403.846 987.284 403.474 987.464 402.994V401.878H985.142C983.846 401.878 983.198 402.304 983.198 403.156C983.198 403.564 983.36 403.888 983.684 404.128C984.008 404.368 984.458 404.488 985.034 404.488ZM1001.21 396.388V406H998.96V398.296H995.36L995.27 400.204C995.21 401.476 995.09 402.544 994.91 403.408C994.742 404.26 994.448 404.938 994.028 405.442C993.62 405.934 993.056 406.18 992.336 406.18C992 406.18 991.586 406.114 991.094 405.982L991.202 404.092C991.37 404.128 991.514 404.146 991.634 404.146C992.09 404.146 992.432 403.966 992.66 403.606C992.888 403.234 993.032 402.796 993.092 402.292C993.164 401.776 993.224 401.044 993.272 400.096L993.434 396.388H1001.21ZM1009.06 399.556C1010.29 399.556 1011.22 399.832 1011.87 400.384C1012.53 400.936 1012.86 401.716 1012.86 402.724C1012.86 403.78 1012.5 404.596 1011.78 405.172C1011.06 405.748 1010.05 406.03 1008.74 406.018L1004.24 406V396.388H1006.49V399.538L1009.06 399.556ZM1008.54 404.362C1009.2 404.374 1009.71 404.236 1010.05 403.948C1010.4 403.66 1010.58 403.24 1010.58 402.688C1010.58 402.148 1010.41 401.752 1010.07 401.5C1009.74 401.248 1009.23 401.116 1008.54 401.104L1006.49 401.086V404.344L1008.54 404.362ZM1014.84 396.388H1017.09V400.294H1021.93V396.388H1024.18V406H1021.93V402.202H1017.09V406H1014.84V396.388ZM1027.2 396.388H1029.45V406H1027.2V396.388ZM1028.33 394.804C1027.92 394.804 1027.58 394.678 1027.31 394.426C1027.03 394.162 1026.89 393.838 1026.89 393.454C1026.89 393.07 1027.03 392.752 1027.31 392.5C1027.58 392.236 1027.92 392.104 1028.33 392.104C1028.74 392.104 1029.08 392.23 1029.36 392.482C1029.63 392.722 1029.77 393.028 1029.77 393.4C1029.77 393.796 1029.63 394.132 1029.36 394.408C1029.09 394.672 1028.75 394.804 1028.33 394.804ZM1046.65 396.388V406H1032.49V396.388H1034.74V404.092H1038.46V396.388H1040.71V404.092H1044.4V396.388H1046.65ZM1058.68 401.248C1058.68 401.404 1058.67 401.626 1058.64 401.914H1051.1C1051.23 402.622 1051.58 403.186 1052.13 403.606C1052.69 404.014 1053.39 404.218 1054.22 404.218C1055.27 404.218 1056.14 403.87 1056.83 403.174L1058.03 404.56C1057.6 405.076 1057.05 405.466 1056.39 405.73C1055.73 405.994 1054.99 406.126 1054.16 406.126C1053.11 406.126 1052.18 405.916 1051.37 405.496C1050.57 405.076 1049.94 404.494 1049.5 403.75C1049.07 402.994 1048.85 402.142 1048.85 401.194C1048.85 400.258 1049.06 399.418 1049.48 398.674C1049.91 397.918 1050.51 397.33 1051.26 396.91C1052.02 396.49 1052.87 396.28 1053.82 396.28C1054.76 396.28 1055.59 396.49 1056.32 396.91C1057.07 397.318 1057.64 397.9 1058.05 398.656C1058.47 399.4 1058.68 400.264 1058.68 401.248ZM1053.82 398.08C1053.1 398.08 1052.49 398.296 1051.98 398.728C1051.49 399.148 1051.19 399.712 1051.08 400.42H1056.54C1056.44 399.724 1056.15 399.16 1055.66 398.728C1055.16 398.296 1054.55 398.08 1053.82 398.08Z" fill="white"/>
</g>
<path d="M878.348 276.475L862.622 278.127L865.074 301.458L853.859 302.636L850.46 270.295L877.401 267.465L878.348 276.475ZM901.989 264.339C904.917 264.031 907.641 264.449 910.16 265.592C912.716 266.691 914.819 268.44 916.472 270.841C918.159 273.197 919.178 276.046 919.529 279.388C919.881 282.729 919.478 285.748 918.321 288.443C917.2 291.095 915.506 293.244 913.239 294.89C911.008 296.491 908.428 297.446 905.501 297.754C901.742 298.149 898.637 297.329 896.183 295.294L897.7 309.734L886.426 310.918L881.811 267.001L892.551 265.873L892.89 269.095C894.723 266.369 897.757 264.783 901.989 264.339ZM902.18 288.993C904.158 288.785 905.709 287.938 906.833 286.453C907.953 284.928 908.387 282.972 908.136 280.585C907.885 278.198 907.056 276.395 905.648 275.175C904.236 273.916 902.541 273.39 900.563 273.598C898.585 273.806 897.036 274.672 895.916 276.198C894.792 277.683 894.356 279.619 894.607 282.006C894.857 284.393 895.689 286.216 897.101 287.475C898.509 288.695 900.202 289.201 902.18 288.993ZM923.245 262.648L934.46 261.47L935.72 273.464L947.291 272.248L946.031 260.255L957.306 259.07L960.704 291.411L949.43 292.596L948.238 281.258L936.667 282.474L937.858 293.811L926.643 294.99L923.245 262.648Z" fill="#5F6061"/>
</g>
<defs>
<filter id="filter0_d" x="0.000488281" y="0" width="1188" height="489" filterUnits="userSpaceOnUse" color-interpolation-filters="sRGB">
<feFlood flood-opacity="0" result="BackgroundImageFix"/>
<feColorMatrix in="SourceAlpha" type="matrix" values="0 0 0 0 0 0 0 0 0 0 0 0 0 0 0 0 0 0 127 0" result="hardAlpha"/>
<feOffset dy="4"/>
<feGaussianBlur stdDeviation="14.5"/>
<feColorMatrix type="matrix" values="0 0 0 0 0.901961 0 0 0 0 0.890196 0 0 0 0 0.890196 0 0 0 1 0"/>
<feBlend mode="normal" in2="BackgroundImageFix" result="effect1_dropShadow"/>
<feBlend mode="normal" in="SourceGraphic" in2="effect1_dropShadow" result="shape"/>
</filter>
<filter id="filter1_d" x="847" y="354" width="310" height="100" filterUnits="userSpaceOnUse" color-interpolation-filters="sRGB">
<feFlood flood-opacity="0" result="BackgroundImageFix"/>
<feColorMatrix in="SourceAlpha" type="matrix" values="0 0 0 0 0 0 0 0 0 0 0 0 0 0 0 0 0 0 127 0" result="hardAlpha"/>
<feOffset dy="4"/>
<feGaussianBlur stdDeviation="10"/>
<feColorMatrix type="matrix" values="0 0 0 0 0.862745 0 0 0 0 0.4 0 0 0 0 0.176471 0 0 0 0.5 0"/>
<feBlend mode="normal" in2="BackgroundImageFix" result="effect1_dropShadow"/>
<feBlend mode="normal" in="SourceGraphic" in2="effect1_dropShadow" result="shape"/>
</filter>
<linearGradient id="paint0_linear" x1="179.832" y1="235.785" x2="181.252" y2="221.734" gradientUnits="userSpaceOnUse">
<stop stop-color="#F58A76"/>
<stop offset="1" stop-color="#F8AA9B"/>
</linearGradient>
<linearGradient id="paint1_linear" x1="181.325" y1="217.946" x2="183.709" y2="194.378" gradientUnits="userSpaceOnUse">
<stop stop-color="#F9B2A5"/>
<stop offset="1" stop-color="#FBCDC3"/>
</linearGradient>
<linearGradient id="paint2_linear" x1="233.521" y1="282.211" x2="245.383" y2="286.143" gradientUnits="userSpaceOnUse">
<stop stop-color="#F9B2A5"/>
<stop offset="1" stop-color="#FBCDC3"/>
</linearGradient>
<linearGradient id="paint3_linear" x1="148.473" y1="404.902" x2="149.21" y2="401.525" gradientUnits="userSpaceOnUse">
<stop stop-color="#F9B2A5"/>
<stop offset="1" stop-color="#FBCDC3"/>
</linearGradient>
<linearGradient id="paint4_linear" x1="188.349" y1="406.239" x2="188.485" y2="401.816" gradientUnits="userSpaceOnUse">
<stop stop-color="#F9B2A5"/>
<stop offset="1" stop-color="#FBCDC3"/>
</linearGradient>
<linearGradient id="paint5_linear" x1="156.855" y1="297.838" x2="161.243" y2="309.647" gradientUnits="userSpaceOnUse">
<stop stop-color="#F9B2A5"/>
<stop offset="1" stop-color="#FBCDC3"/>
</linearGradient>
<linearGradient id="paint6_linear" x1="259.621" y1="289.536" x2="248.342" y2="286.914" gradientUnits="userSpaceOnUse">
<stop stop-color="#F9B2A5"/>
<stop offset="1" stop-color="#FBCDC3"/>
</linearGradient>
<linearGradient id="paint7_linear" x1="318.251" y1="255.156" x2="317.296" y2="241.041" gradientUnits="userSpaceOnUse">
<stop stop-color="#F58A76"/>
<stop offset="1" stop-color="#F8AA9B"/>
</linearGradient>
<linearGradient id="paint8_linear" x1="317.252" y1="238.002" x2="315.655" y2="214.397" gradientUnits="userSpaceOnUse">
<stop stop-color="#F9B2A5"/>
<stop offset="1" stop-color="#FBCDC3"/>
</linearGradient>
<linearGradient id="paint9_linear" x1="344.668" y1="419.569" x2="344.048" y2="416.123" gradientUnits="userSpaceOnUse">
<stop stop-color="#F9B2A5"/>
<stop offset="1" stop-color="#FBCDC3"/>
</linearGradient>
<linearGradient id="paint10_linear" x1="304.773" y1="419.538" x2="304.775" y2="415.119" gradientUnits="userSpaceOnUse">
<stop stop-color="#F9B2A5"/>
<stop offset="1" stop-color="#FBCDC3"/>
</linearGradient>
<linearGradient id="paint11_linear" x1="306.84" y1="292.892" x2="294.448" y2="295.339" gradientUnits="userSpaceOnUse">
<stop stop-color="#F9B2A5"/>
<stop offset="1" stop-color="#FBCDC3"/>
</linearGradient>
</defs>
</svg>
