<svg width="698" height="434" viewBox="0 0 698 434" fill="none" xmlns="http://www.w3.org/2000/svg">
<path fill-rule="evenodd" clip-rule="evenodd" d="M589.033 400.171C701.721 287.035 688.075 174.391 609.399 109.389C539.226 51.4167 449.076 33.885 395.649 76.9487C315.715 166.5 192 204.5 315.715 303.188C406.946 373.348 534.77 454.648 589.033 400.171Z" fill="#F9F7FC"/>
<path fill-rule="evenodd" clip-rule="evenodd" d="M6.10352e-05 428.999C186.333 429 372.667 429 559 429C549.76 409.128 534.627 400.543 510.711 405.416C512.65 383.142 491.835 366.016 470.771 369.219C474.629 350.714 465.304 334.407 449.561 329.282C454.988 319.25 453.103 305.891 445.779 300.684C448.031 292.356 432.121 249.536 393.437 269.04C380.272 266.888 365.919 277.999 368.178 294.423C344.754 287.443 318.807 302.309 317.87 324.782C291.959 312.205 258.15 322.205 249.69 349.39C217.371 327.473 173.235 335.785 155.998 371.677C130.909 358.155 97.6661 366.694 88.5417 394.175C67.3204 386.545 45.6522 394.957 36.4533 416.918C23.2128 409.759 6.45844 415.224 6.10352e-05 428.999Z" fill="#EEE3FA"/>
<path fill-rule="evenodd" clip-rule="evenodd" d="M375.31 94.4119C380.507 97.5546 387.269 95.8885 390.412 90.69C393.554 85.4924 391.889 78.7311 386.691 75.5886C381.492 72.4453 374.731 74.1112 371.588 79.3088C368.445 84.5073 370.111 91.2688 375.31 94.4119Z" fill="#EEE3FA"/>
<path fill-rule="evenodd" clip-rule="evenodd" d="M508.827 89.5564C513.552 92.4133 519.699 90.8986 522.556 86.1725C525.413 81.4477 523.899 75.301 519.174 72.4441C514.448 69.5867 508.301 71.1011 505.444 75.8263C502.587 80.5523 504.101 86.6989 508.827 89.5564Z" fill="#EEE3FA"/>
<path fill-rule="evenodd" clip-rule="evenodd" d="M558.344 341.701C562.597 344.272 568.129 342.909 570.701 338.655C573.272 334.403 571.909 328.871 567.656 326.3C563.403 323.728 557.871 325.091 555.3 329.344C552.728 333.597 554.091 339.129 558.344 341.701Z" fill="#EEE3FA"/>
<path fill-rule="evenodd" clip-rule="evenodd" d="M190.344 356.701C194.597 359.272 200.129 357.909 202.701 353.655C205.272 349.403 203.909 343.871 199.656 341.3C195.403 338.728 189.871 340.091 187.3 344.343C184.728 348.597 186.091 354.129 190.344 356.701Z" fill="#EEE3FA"/>
<path fill-rule="evenodd" clip-rule="evenodd" d="M564.62 211.917C568.164 214.06 572.774 212.924 574.917 209.38C577.06 205.836 575.924 201.226 572.38 199.083C568.836 196.94 564.226 198.076 562.083 201.62C559.94 205.164 561.076 209.774 564.62 211.917Z" fill="#EEE3FA"/>
<path fill-rule="evenodd" clip-rule="evenodd" d="M589.862 191.917C593.642 194.06 598.559 192.924 600.845 189.38C603.131 185.836 601.919 181.226 598.139 179.083C594.358 176.94 589.441 178.076 587.155 181.62C584.869 185.164 586.081 189.774 589.862 191.917Z" fill="#EEE3FA"/>
<path fill-rule="evenodd" clip-rule="evenodd" d="M276.103 237.773C280.119 240.201 285.344 238.914 287.773 234.897C290.201 230.881 288.914 225.656 284.898 223.228C280.88 220.799 275.656 222.086 273.228 226.102C270.798 230.12 272.086 235.344 276.103 237.773Z" fill="#EEE3FA"/>
<path fill-rule="evenodd" clip-rule="evenodd" d="M588.414 228.278C590.776 229.707 593.849 228.949 595.278 226.586C596.707 224.224 595.949 221.151 593.587 219.722C591.224 218.293 588.151 219.051 586.722 221.413C585.293 223.776 586.051 226.849 588.414 228.278Z" fill="#EEE3FA"/>
<path fill-rule="evenodd" clip-rule="evenodd" d="M229.655 242.35C232.254 243.636 235.634 242.954 237.206 240.828C238.777 238.701 237.944 235.936 235.345 234.65C232.746 233.364 229.366 234.046 227.794 236.172C226.223 238.298 227.056 241.065 229.655 242.35Z" fill="#EEE3FA"/>
<path fill-rule="evenodd" clip-rule="evenodd" d="M690.414 212.206C692.776 213.777 695.849 212.944 697.278 210.345C698.707 207.746 697.949 204.366 695.587 202.794C693.224 201.223 690.151 202.056 688.722 204.654C687.293 207.254 688.051 210.634 690.414 212.206Z" fill="#EEE3FA"/>
<path fill-rule="evenodd" clip-rule="evenodd" d="M497.655 61.1338C500.254 62.8479 503.634 61.9392 505.206 59.1036C506.777 56.2686 505.944 52.5806 503.346 50.8665C500.746 49.152 497.366 50.0607 495.794 52.8957C494.223 55.7314 495.056 59.4193 497.655 61.1338Z" fill="#EEE3FA"/>
<path fill-rule="evenodd" clip-rule="evenodd" d="M309.862 245.845C313.642 248.131 318.559 246.919 320.845 243.138C323.13 239.358 321.919 234.441 318.139 232.155C314.358 229.869 309.441 231.081 307.155 234.861C304.869 238.642 306.081 243.559 309.862 245.845Z" fill="#EEE3FA"/>
<path fill-rule="evenodd" clip-rule="evenodd" d="M353.414 54.206C355.776 55.7773 358.849 54.9443 360.278 52.3449C361.707 49.7462 360.949 46.3656 358.587 44.7943C356.224 43.2227 353.151 44.0557 351.722 46.6544C350.293 49.2538 351.051 52.6344 353.414 54.206Z" fill="#EEE3FA"/>
<path fill-rule="evenodd" clip-rule="evenodd" d="M389.379 60.0616C392.686 61.9186 396.989 60.9341 398.989 57.8623C400.989 54.791 399.929 50.7956 396.621 48.9386C393.313 47.0813 389.011 48.0658 387.011 51.1371C385.011 54.2089 386.071 58.2043 389.379 60.0616Z" fill="#EEE3FA"/>
<path fill-rule="evenodd" clip-rule="evenodd" d="M296.965 209.618C304.761 214.332 314.903 211.833 319.618 204.035C324.332 196.239 321.833 186.097 314.037 181.383C306.239 176.668 296.097 179.167 291.383 186.963C286.668 194.761 289.167 204.903 296.965 209.618Z" fill="#EEE3FA"/>
<path fill-rule="evenodd" clip-rule="evenodd" d="M232.31 406.556C237.507 409.413 244.269 407.899 247.412 403.173C250.554 398.448 248.889 392.301 243.691 389.444C238.492 386.587 231.731 388.101 228.588 392.826C225.445 397.552 227.111 403.699 232.31 406.556Z" fill="#C6B1E0"/>
<path fill-rule="evenodd" clip-rule="evenodd" d="M215.862 370.845C219.642 373.131 224.559 371.919 226.845 368.138C229.131 364.358 227.919 359.441 224.139 357.155C220.358 354.869 215.441 356.081 213.155 359.861C210.869 363.642 212.081 368.559 215.862 370.845Z" fill="#C6B1E0"/>
<path fill-rule="evenodd" clip-rule="evenodd" d="M196.414 396.35C198.776 397.636 201.849 396.954 203.278 394.828C204.707 392.701 203.949 389.936 201.587 388.65C199.224 387.364 196.151 388.045 194.722 390.172C193.293 392.299 194.051 395.064 196.414 396.35Z" fill="#C6B1E0"/>
<path fill-rule="evenodd" clip-rule="evenodd" d="M297.896 296.206C300.731 297.777 304.419 296.944 306.134 294.345C307.848 291.746 306.939 288.365 304.104 286.794C301.269 285.223 297.58 286.056 295.867 288.654C294.152 291.254 295.061 294.634 297.896 296.206Z" fill="#C6B1E0"/>
<path fill-rule="evenodd" clip-rule="evenodd" d="M426.62 398.917C430.164 401.06 434.774 399.924 436.917 396.38C439.06 392.836 437.924 388.226 434.38 386.083C430.836 383.94 426.226 385.076 424.083 388.62C421.94 392.164 423.076 396.774 426.62 398.917Z" fill="#C6B1E0"/>
<path d="M467.545 154.063C434.568 153.28 362.975 183.932 368.66 236.919C384.661 237.332 399.51 236.198 415.511 236.612C423.666 201.26 447.987 177.236 467.545 154.063Z" fill="#C6B1E0"/>
<path d="M514.493 182.449C530.507 211.285 536.624 288.921 487.06 308.504C479.26 294.528 473.366 280.852 465.565 266.875C493.082 243.23 503.058 210.533 514.493 182.449Z" fill="#C6B1E0"/>
<path fill-rule="evenodd" clip-rule="evenodd" d="M394.002 269.196L446.704 301.06L459.619 259L425.248 238.218L394.002 269.196Z" fill="#634687"/>
<path fill-rule="evenodd" clip-rule="evenodd" d="M432.372 292.394L446.704 301.06L459.619 259L452.38 254.623L432.372 292.394Z" fill="#6E4E94"/>
<path fill-rule="evenodd" clip-rule="evenodd" d="M394.002 269.196L408.334 277.861L432.487 242.595L425.248 238.218L394.002 269.196Z" fill="#583D7A"/>
<path d="M497.882 96.1141C438.231 148.301 420.349 210.655 420.372 210.593L486.348 250.482C517.614 215.606 541.189 176.079 552.215 128.964L497.882 96.1141Z" fill="#8B6CB0"/>
<path fill-rule="evenodd" clip-rule="evenodd" d="M420.67 210.101C417.549 218.476 414.405 227.512 411.809 236.206C437.946 252.008 441.508 254.162 467.645 269.964C474.138 263.627 480.68 256.646 486.646 249.99L420.67 210.101Z" fill="#715199"/>
<path d="M559.144 56.137C535.533 67.5337 515.138 81.2106 497.721 96.3523L552.067 129.21C557.384 106.753 560.02 82.3389 559.144 56.137Z" fill="#715199"/>
<path fill-rule="evenodd" clip-rule="evenodd" d="M459.632 220.166C467.21 224.748 477.067 222.319 481.648 214.742C486.23 207.165 483.801 197.308 476.223 192.727C468.646 188.145 458.789 190.574 454.208 198.151C449.626 205.728 452.055 215.585 459.632 220.166ZM501.937 150.2C509.515 154.782 519.372 152.353 523.953 144.776C528.535 137.199 526.106 127.342 518.528 122.761C510.951 118.179 501.094 120.608 496.513 128.185C491.931 135.762 494.36 145.619 501.937 150.2ZM480.783 185.185C488.361 189.767 498.218 187.338 502.799 179.761C507.381 172.184 504.952 162.327 497.375 157.746C489.797 153.165 479.94 155.593 475.359 163.17C470.777 170.747 473.206 180.604 480.783 185.185Z" fill="white"/>
<path fill-rule="evenodd" clip-rule="evenodd" d="M290.938 393.204C268.006 393.346 249.323 374.895 249.208 351.99C249.093 329.084 267.59 310.4 290.523 310.258C313.456 310.115 332.139 328.569 332.254 351.475C332.368 374.38 313.871 393.062 290.938 393.204Z" fill="#51B18B"/>
<path fill-rule="evenodd" clip-rule="evenodd" d="M293.668 348.672C293.636 342.213 286.931 342.814 284.757 349.353C280.58 361.92 293.734 361.798 293.668 348.672ZM312.392 362.078C308.441 370.222 300.499 373.038 291.946 372.984C259.364 372.779 263.775 330.639 291.876 330.464C305.326 330.381 311.019 339.257 310.811 347.861C310.475 361.706 296.065 367.039 291.995 361.5C283.163 367.426 275.392 358.193 278.201 348.383C280.827 339.214 290.559 336.37 295.063 341.53L295.445 339.788C297.68 339.774 299.915 339.76 302.151 339.747L298.555 357.608C298.371 359.778 306.023 355.103 305.984 347.251C305.945 339.499 299.432 335.484 292.365 335.309C270.103 334.759 266.181 368.14 292.13 367.979C297.699 367.944 303.171 366.709 306.749 362.113C308.63 362.101 310.511 362.089 312.392 362.078Z" fill="white"/>
<path d="M346.949 147.957C345.03 152.983 342.769 154.28 337.754 153.953C325.916 151.741 312.197 148.592 300.717 144.962C296.079 142.997 294.617 140.815 295.082 135.443C295.545 129.667 297.947 119.375 300.009 113.978C302.08 108.555 304.474 107.641 309.734 108.106C319.848 109.617 336.495 113.697 346.283 116.79C350.921 118.76 352.384 120.939 351.917 126.311C351.403 132.224 349.062 142.424 346.949 147.957ZM318.075 122.071L314.762 136.505L330.542 132.646L318.075 122.071Z" fill="#DB662D"/>
<path d="M463.178 410.512C452.854 397.829 454.81 379.142 467.548 368.774C480.285 358.405 498.981 360.282 509.306 372.965C519.63 385.647 517.674 404.334 504.936 414.703C492.199 425.071 473.503 423.195 463.178 410.512Z" fill="#8B6CB0"/>
<path fill-rule="evenodd" clip-rule="evenodd" d="M474.819 401.038C475.404 401.757 476.235 402.173 477.102 402.26C477.979 402.347 478.879 402.104 479.599 401.518C480.326 400.926 480.747 400.094 480.837 399.228C480.927 398.367 480.689 397.464 480.099 396.74C479.513 396.02 478.681 395.607 477.817 395.518C476.943 395.433 476.043 395.672 475.319 396.26C474.592 396.852 474.172 397.689 474.081 398.55C473.991 399.416 474.23 400.314 474.819 401.038ZM499.263 399.392C499.109 400.481 499.87 401.488 500.959 401.637C502.049 401.786 503.06 401.022 503.214 399.932C503.613 397.106 503.318 394.016 502.339 390.952C501.408 388.04 499.862 385.139 497.715 382.501C495.539 379.828 492.964 377.699 490.252 376.191C487.396 374.602 484.381 373.702 481.498 373.563C480.398 373.512 479.458 374.362 479.402 375.461C479.346 376.561 480.193 377.496 481.293 377.548C483.578 377.658 485.991 378.384 488.301 379.669C490.563 380.928 492.738 382.735 494.607 385.031C496.444 387.288 497.759 389.741 498.537 392.179C499.333 394.672 499.579 397.153 499.263 399.392ZM491.569 399.146C491.385 400.232 492.119 401.261 493.206 401.441C494.292 401.62 495.324 400.882 495.509 399.796C495.857 397.741 495.701 395.5 495.04 393.289C494.416 391.196 493.342 389.125 491.827 387.263C490.286 385.37 488.446 383.884 486.495 382.845L486.381 382.789C484.357 381.734 482.195 381.159 480.105 381.116C479.008 381.095 478.094 381.967 478.068 383.063C478.043 384.16 478.912 385.069 480.009 385.09C481.476 385.12 483.028 385.541 484.517 386.316L484.595 386.36C486.088 387.155 487.512 388.31 488.719 389.793C489.911 391.258 490.747 392.857 491.222 394.447C491.703 396.055 491.818 397.674 491.569 399.146ZM483.902 398.822C483.642 399.892 484.302 400.968 485.371 401.223C486.44 401.478 487.519 400.815 487.779 399.745C488.093 398.441 488.089 397.04 487.758 395.684C487.442 394.393 486.838 393.133 485.937 392.025C485.02 390.9 483.889 390.042 482.663 389.47C481.385 388.872 479.994 388.595 478.631 388.658C477.533 388.71 476.677 389.644 476.725 390.741C476.772 391.839 477.703 392.69 478.802 392.638C479.516 392.605 480.264 392.758 480.962 393.084C481.649 393.404 482.294 393.898 482.828 394.555C483.356 395.203 483.705 395.925 483.883 396.648C484.062 397.384 484.067 398.133 483.902 398.822Z" fill="white"/>
<path d="M609.732 334.891C634.99 351.481 668.971 344.367 685.633 319.003C702.294 293.638 695.325 259.628 670.068 243.038C644.811 226.448 610.829 233.562 594.168 258.927C577.507 284.291 584.475 318.302 609.732 334.891Z" fill="#5984B2"/>
<path d="M665.527 280.472C670.809 272.613 670.451 268.026 668.204 265.351C663.648 259.927 652.517 261.638 646.514 263.241C633.936 260.267 620.994 266.779 615.941 278.698C623.797 272.512 628.737 270.304 631.864 269.662C625.602 273.606 617.503 280.354 612.171 287.095C608.362 291.911 602.867 302.149 605.402 308.015C608.487 315.153 622.127 311.286 624.659 310.498C637.354 319.843 655.603 316.095 663.492 302.225L649.748 299.784C642.129 308.646 626.268 302.02 628.327 290.422L665.738 297.064C667.432 291.656 667.373 285.84 665.527 280.472ZM665.07 279.245C662.944 273.931 659.134 269.383 654.179 266.375C665.539 263.18 672.01 267.771 665.07 279.245ZM609.109 306.612C608.402 304.105 609.463 299.781 614.161 293.299C615.161 299.535 618.364 305.181 623.079 309.24C619.112 310.587 610.647 312.065 609.109 306.612ZM629.539 283.26C630.811 277.31 636.872 273.443 643.273 274.579C649.674 275.715 654.033 281.433 653.179 287.457L629.539 283.26Z" fill="white"/>
<path d="M422.946 90.4764C441.694 102.79 466.917 97.5101 479.284 78.6828C491.652 59.8554 486.479 34.6103 467.731 22.2964C448.983 9.98242 423.76 15.2626 411.393 34.09C399.026 52.9174 404.198 78.1625 422.946 90.4764Z" fill="#56AABF"/>
<path d="M424.197 58.0026L461.098 69.4754L466.955 50.6384L430.054 39.1657L424.197 58.0026ZM419.222 61.6992L427.577 34.8293L471.454 48.4713L463.099 75.3413L444.053 69.4194L442.793 73.4722L445.919 74.4444C446.432 74.6037 446.721 75.1535 446.561 75.6666L446.067 77.2552C445.907 77.7688 445.358 78.0571 444.845 77.8978L432.809 74.1555C432.296 73.9959 432.007 73.4469 432.166 72.9332L432.66 71.3444C432.82 70.8316 433.37 70.5425 433.883 70.7021L437.008 71.6737L438.268 67.6208L419.222 61.6992Z" fill="white"/>
</svg>
