<svg width="121" height="119" viewBox="0 0 121 119" fill="none" xmlns="http://www.w3.org/2000/svg"><path fill-rule="evenodd" clip-rule="evenodd" d="M117.4 91.7C138.9-.9 28.3-22.2 6.6 23.9c-6 12.8-2.1 27.1 1 31.2C24.2 76.8 5 77.5 5 95.8c0 26.9 102.4 34.7 112.4-4.1z" fill="#F8F6FB"/><path fill-rule="evenodd" clip-rule="evenodd" d="M103.8 37.5h3.9l-1.7 6.1 6.8-6.1h3.9c.8 0 1.4-.6 1.4-1.4v-7.5c0-.8-.6-1.4-1.4-1.4h-13c-.8 0-1.4.6-1.4 1.4v7.5c.1.8.8 1.4 1.5 1.4z" fill="#EDE2F9"/><path fill-rule="evenodd" clip-rule="evenodd" d="M104.5 35c-.3 0-.5-.3-.5-.6s.2-.6.5-.6h8c.3 0 .5.3.5.6s-.2.6-.5.6h-8zm0-4.3c-.3 0-.5-.3-.5-.6s.2-.6.5-.6h5.4c.3 0 .5.3.5.6s-.2.6-.5.6h-5.4zm0 2.1c-.3 0-.5-.3-.5-.6s.2-.6.5-.6h11.7c.3 0 .5.3.5.6s-.2.6-.5.6h-11.7z" fill="#fff"/><path fill-rule="evenodd" clip-rule="evenodd" d="M.3 58.9c.1-.6.4-1.1.9-1.4l7.3-4.3c.5-.3 1.1-.3 1.7-.1l-2.9 6.4-7-.6zm8.1-.1l5.5.2c0-.2-.1-.5-.2-.7L11.2 54c-.1-.1-.2-.3-.3-.4l-2.5 5.2zM3.6 65c-.2-.1-.4-.3-.5-.6L.6 60.1c-.1-.1-.2-.3-.2-.5l5.8.5L3.6 65zm9.4-4.2c.5-.3.8-.7.9-1.2l-5.8-.1-.4.8-.9-.1-2.7 5.1c.5.1 1 .1 1.5-.2l7.4-4.3zm4-51.4l-6.7 2.7c-.2.1-.4 0-.5-.2-.1-.2 0-.4.2-.5l6.7-2.7c.2-.1.4 0 .5.2.1.3 0 .5-.2.5zM3.9 11.8l.3.9s1.8-.7 2.3-.9c.4.6 5 8.3 5 8.3l8.6-3.4-.3-.9s-7.2 2.9-7.9 3.2c-.4-.6-5-8.3-5-8.3l-3 1.1zM14 20.5c.2.5 0 1.1-.6 1.4-.5.2-1.1 0-1.4-.6-.2-.5 0-1.1.6-1.4.6-.2 1.2 0 1.4.6zm6.7-2.7c.2.5 0 1.1-.6 1.4-.5.2-1.1 0-1.4-.6-.2-.5 0-1.1.6-1.4.6-.2 1.2 0 1.4.6zm-3.2-6c.2-.1.3-.3.2-.5-.1-.2-.3-.3-.5-.2l-5.8 2.3c-.2.1-.3.3-.2.5.1.2.3.3.5.2l5.8-2.3zm.4 2.3l-5 2c-.2.1-.4 0-.5-.2-.1-.2 0-.4.2-.5l5-2c.2-.1.4 0 .5.2.1.2 0 .4-.2.5zM7.8 10.6l4.4 7.3 7.3-2.9-1.8-8.3-9.9 3.9z" fill="#EDE2F9"/><path d="M94.4 33.3H30.8v61.3h63.6V33.3z" fill="#fff"/><path fill-rule="evenodd" clip-rule="evenodd" d="M30.8 33.3v-5.1c0-1.9 1.6-3.5 3.5-3.5H91c1.9 0 3.5 1.6 3.5 3.5v5.1H30.8z" fill="#8A6CAF"/><path fill-rule="evenodd" clip-rule="evenodd" d="M35.2 30c-.6 0-1.1-.5-1.1-1.1 0-.6.5-1.1 1.1-1.1.6 0 1.1.5 1.1 1.1 0 .7-.5 1.1-1.1 1.1zm6.8 0c-.6 0-1.1-.5-1.1-1.1 0-.6.5-1.1 1.1-1.1.6 0 1.1.5 1.1 1.1-.1.7-.6 1.1-1.1 1.1zm-3.4 0c-.6 0-1.1-.5-1.1-1.1 0-.6.5-1.1 1.1-1.1.6 0 1.1.5 1.1 1.1 0 .7-.5 1.1-1.1 1.1z" fill="#fff"/><path fill-rule="evenodd" clip-rule="evenodd" d="M68.5 52.4H56.8c-.8 0-1.5-.7-1.5-1.5V39.1c0-.8.7-1.5 1.5-1.5h11.7c.8 0 1.5.7 1.5 1.5v11.7c0 .9-.7 1.6-1.5 1.6zm19.5 0H76.2c-.8 0-1.5-.7-1.5-1.5V39.1c0-.8.7-1.5 1.5-1.5H88c.8 0 1.5.7 1.5 1.5v11.7c0 .9-.7 1.6-1.5 1.6zM68.5 71.3H56.8c-.8 0-1.5-.7-1.5-1.5V58.1c0-.8.7-1.5 1.5-1.5h11.7c.8 0 1.5.7 1.5 1.5v11.7c0 .8-.7 1.5-1.5 1.5zm19.5 0H76.2c-.8 0-1.5-.7-1.5-1.5V58.1c0-.8.7-1.5 1.5-1.5H88c.8 0 1.5.7 1.5 1.5v11.7c0 .8-.7 1.5-1.5 1.5zm-39 0H37.3c-.8 0-1.5-.7-1.5-1.5V58.1c0-.8.7-1.5 1.5-1.5H49c.8 0 1.5.7 1.5 1.5v11.7c.1.8-.6 1.5-1.5 1.5zm19.5 19H56.8c-.8 0-1.5-.7-1.5-1.5V77c0-.8.7-1.5 1.5-1.5h11.7c.8 0 1.5.7 1.5 1.5v11.7c0 .9-.7 1.6-1.5 1.6zm19.5 0H76.2c-.8 0-1.5-.7-1.5-1.5V77c0-.8.7-1.5 1.5-1.5H88c.8 0 1.5.7 1.5 1.5v11.7c0 .9-.7 1.6-1.5 1.6zm-39 0H37.3c-.8 0-1.5-.7-1.5-1.5V77c0-.8.7-1.5 1.5-1.5H49c.8 0 1.5.7 1.5 1.5v11.7c.1.9-.6 1.6-1.5 1.6zm0-37.9H37.3c-.8 0-1.5-.7-1.5-1.5V39.1c0-.8.7-1.5 1.5-1.5H49c.8 0 1.5.7 1.5 1.5v11.7c.1.9-.6 1.6-1.5 1.6z" fill="#EDE2F9"/><path fill-rule="evenodd" clip-rule="evenodd" d="M45.9 48.8c-1.8.3-3.6.3-5.4 0l-.4-5.2-1.3 1.1-1.5-1.6 2.5-2.2h1.6c.1.9.8 1.6 1.8 1.6.9 0 1.7-.7 1.8-1.6h1.6l2.5 2.2-1.5 1.6-1.3-1.1c-.2 1.7-.3 3.5-.4 5.2z" fill="#fff"/><path fill-rule="evenodd" clip-rule="evenodd" d="M85.3 49.1c-2.1.3-4.2.3-6.3 0l.1-5.7-1.3 1.1-1.5-1.6 2.5-2.2h1.6l1.8 2.1 1.8-2.1h1.6l2.5 2.2-1.5 1.6-1.3-1.1c-.1 1.9-.1 3.8 0 5.7z" fill="#C5B0DF"/><path fill-rule="evenodd" clip-rule="evenodd" d="M65.8 86.9c-2.1.3-4.2.3-6.3 0l.1-5.7-1.3 1.1-1.5-1.6 2.5-2.2h1.6l1.8 2.1 1.8-2.1h1.6l2.5 2.2-1.6 1.7-1.3-1.1c.1 1.9.1 3.7.1 5.6zM40.5 68.1l.1-2.4-.2-2.2-1.5 3-1.7-.9 2.3-4.3 2.3-1 .5-.7h1.8l.5.7 2.3 1 2.3 4.3-1.7.9-1.5-3-.2 2.2c0 .8.1 1.6.1 2.4-1.8.3-3.6.3-5.4 0zm19.4 0l.1-2.4-.2-2.2-1.5 3-1.7-.9 2.3-4.3 2.3-1 .5-.7h1.8l.5.7 2.3 1 2.3 4.3-1.7.9-1.5-3-.2 2.2c0 .8.1 1.6.1 2.4-1.8.3-3.6.3-5.4 0zM59.8 49c1.4-2.2-.5-3.4.1-5.7-.4.9-.5 1.1-.7 1.7-.5-.1-1-.1-1.5.1.2-1.1.6-2.1 1-2.8.5-.8 1.3-1.5 2.3-1.5.2 2 3 2 3.2 0 .9 0 1.8.7 2.3 1.5.4.7.8 1.7 1 2.8-.5-.2-1-.2-1.5-.1-.2-.6-.2-.8-.7-1.7.6 2.3-1.4 3.5.1 5.7-1.8.3-3.7.3-5.6 0zM40.3 86.8c1.4-2.2-.5-3.4.1-5.7-.4.9-.5 1.1-.7 1.7-.5-.1-1-.1-1.5.1.2-1.1.6-2.1 1-2.8.5-.8 1.3-1.5 2.3-1.5.2 2 3 2 3.2 0 .9 0 1.8.7 2.3 1.5.4.7.8 1.7 1 2.8-.5-.2-1-.2-1.5-.1-.2-.6-.2-.8-.7-1.7.6 2.3-1.4 3.5.1 5.7-1.8.4-3.7.4-5.6 0z" fill="#fff"/><path fill-rule="evenodd" clip-rule="evenodd" d="M59.1 53.5c0-1.9 1.6-3.5 3.5-3.5h35.9c1.9 0 3.5 1.6 3.5 3.5v44.6H59.1V53.5z" fill="#EDE2F9"/><path d="M103.3 59.7H60.4v39.5h42.9V59.7z" fill="#fff"/><path fill-rule="evenodd" clip-rule="evenodd" d="M60.4 59.7v-5.1c0-1.9 1.6-3.5 3.5-3.5h35.9c1.9 0 3.5 1.6 3.5 3.5v5.1H60.4z" fill="#8A6CAF"/><path fill-rule="evenodd" clip-rule="evenodd" d="M64.8 56.4c-.6 0-1.1-.5-1.1-1.1 0-.6.5-1.1 1.1-1.1.6 0 1.1.5 1.1 1.1-.1.7-.5 1.1-1.1 1.1zm6.7 0c-.6 0-1.1-.5-1.1-1.1 0-.6.5-1.1 1.1-1.1.6 0 1.1.5 1.1 1.1 0 .7-.5 1.1-1.1 1.1zm-3.4 0c-.6 0-1.1-.5-1.1-1.1 0-.6.5-1.1 1.1-1.1.6 0 1.1.5 1.1 1.1 0 .7-.5 1.1-1.1 1.1z" fill="#fff"/><path fill-rule="evenodd" clip-rule="evenodd" d="M63.9 84.1c-.4 0-.7-.4-.7-.9s.3-.9.7-.9h35.9c.4 0 .7.4.7.9s-.3.9-.7.9H63.9zm0 3c-.4 0-.7-.4-.7-.9s.3-.9.7-.9h33.9c.4 0 .7.4.7.9s-.3.9-.7.9H63.9zm0 3.1c-.4 0-.7-.4-.7-.9s.3-.9.7-.9H93c.4 0 .7.4.7.9s-.3.9-.7.9H63.9zm0-12.2c-.4 0-.7-.4-.7-.9s.3-.9.7-.9h25.3c.4 0 .7.4.7.9s-.3.9-.7.9H63.9zm0 3c-.4 0-.7-.4-.7-.9s.3-.9.7-.9H98c.4 0 .7.4.7.9s-.3.9-.7.9H63.9zm0 13.3c-.4 0-.7-.4-.7-.9s.3-.9.7-.9h35.9c.4 0 .7.4.7.9s-.3.9-.7.9H63.9zm0 3c-.4 0-.7-.4-.7-.9s.3-.9.7-.9h35.9c.4 0 .7.4.7.9s-.3.9-.7.9H63.9z" fill="#EDE2F9"/><path fill-rule="evenodd" clip-rule="evenodd" d="M99.3 73.7H64.4c-.7 0-1.2-.5-1.2-1.2v-9c0-.7.5-1.2 1.2-1.2h34.9c.7 0 1.2.5 1.2 1.2v9c0 .6-.6 1.2-1.2 1.2z" fill="#3A5897"/><path fill-rule="evenodd" clip-rule="evenodd" d="M71.9 71.7h-6.1c-.4 0-.8-.4-.8-.8v-6.1c0-.4.4-.8.8-.8h6.1c.4 0 .8.4.8.8v6.1c0 .4-.3.8-.8.8z" fill="#fff"/><path fill-rule="evenodd" clip-rule="evenodd" d="M68.1 67.4h.7v-.7c0-.3 0-.8.2-1 .2-.3.5-.5 1.1-.5.9 0 1.3.1 1.3.1l-.2 1s-.3-.1-.6-.1-.5.1-.5.4v.8h1.1l-.1 1h-1v3.5h-1.3v-3.5h-.7v-1z" fill="#3A5897"/><path fill-rule="evenodd" clip-rule="evenodd" d="M76 71.9c-.4 0-.7-.4-.7-.9s.3-.9.7-.9h5.6c.4 0 .7.4.7.9s-.3.9-.7.9H76zm0-6.1c-.4 0-.7-.4-.7-.9s.3-.9.7-.9h9c.4 0 .7.4.7.9s-.3.9-.7.9h-9zm0 3c-.4 0-.7-.4-.7-.9s.3-.9.7-.9h20.9c.4 0 .7.4.7.9s-.3.9-.7.9H76z" fill="#fff"/><path fill-rule="evenodd" clip-rule="evenodd" d="M60.2 94.8c-.1.2 1.1-1 1.5-1 1.7-.1 3.6-.2 5.2.4 3.3 1.3 4.3.7 2.3-2.5-.9-1.4-.1-3 .4-4.5 1.2-3.6-1.1-7-4.9-7.1-2.5-.1-6.8 1.4-5.3 6.3.7 2.2 1.1 3.7.7 4.6-1.4 3.2 1.4 1.7.1 3.8z" fill="#37254D"/><path fill-rule="evenodd" clip-rule="evenodd" d="M66.7 92.7l-1 2.5-1.6.4-1.8-.5-.7-2.4 1.7-.3v-1.5H65v1.5l1.7.3z" fill="url(#a)"/><path fill-rule="evenodd" clip-rule="evenodd" d="M61 84.7c1.9-2.6 4.1-2.8 6.6-.5 1.3 9.5-8.1 10.3-6.6.5z" fill="url(#b)"/><path fill-rule="evenodd" clip-rule="evenodd" d="M60.4 86.2c2.4-2.6 6.3.9 6.1-2.1.7.9 1.3 2.5 1 4.5.6-1.1.7-1.7.6-3.1-.2-2.7-1.6-3.6-3.3-3.8-3.7-.2-4.7 1.9-4.4 4.5z" fill="#37254D"/><path fill-rule="evenodd" clip-rule="evenodd" d="M61.8 92.6c.5 3.2 4.1 3.1 4.5 0 1.5-.1 3.7 1.2 4.7 2.6.9 1.2 4.3 6.2 2.5 8.8-.8.3-3.9.8-4.6 2.3-1.7 0-3.1 2.1-4.8 2.1-1.6 0-4.5-2.2-6.1-2.2-.8-1.5-2.4-1.4-3.2-1.7-1.6-1.9 1.9-8.1 2.7-9.2 1-1.4 3-2.4 4.3-2.7zm-3.5 6.8c-.4 1.5-.8 2.4-1.4 2.9-.6.6 2.4 4.9 2.2 2.4-.1-1.2.4-2.8-.8-5.3zm11.7-.3c-1.2 2.4-.7 4.1-.8 5.4-.2 2.5 2.7-1.8 2.2-2.5-.6-.5-1-1.3-1.4-2.9z" fill="#56A9BE"/><path fill-rule="evenodd" clip-rule="evenodd" d="M70.4 110.4H58.6c-1.6-1.3-4.5-3.9-4-5.6 1.9-1.4 5.9.6 9.7.4 4.4-.2 8.3-1.5 9.5-1.2.2 2.1-3.6 4.4-3.4 6.4z" fill="#AF96CE"/><path fill-rule="evenodd" clip-rule="evenodd" d="M67.8 112.5c2.3.5 2.3 1.1 3.8 2.2 2.9 2 1.5 2.1-1.3 1.8-1.7-.2-2.4-.9-3.7-2.2l1.2-1.8z" fill="#37254D"/><path fill-rule="evenodd" clip-rule="evenodd" d="M68.2 112.5c-.4.7-.9 1.5-1.3 2.2-17.9-4.3-14.4-12-11-10.2 4.9 2.7 7.9 4.8 12.3 8z" fill="#C5B0DF"/><path fill-rule="evenodd" clip-rule="evenodd" d="M68.2 112.5l-.2.5c-1.2.5-2.3.8-3.5 1.1-1.9-.5-3.3-1-4.9-1.8 1.4-1 2.6-2.1 4-3.1 1.4 1 2.9 2.1 4.6 3.3z" fill="#AF96CE"/><path fill-rule="evenodd" clip-rule="evenodd" d="M60.8 112.3c-2.3.5-2.3 1.1-3.8 2.2-2.9 2-1.5 2.1 1.3 1.8 1.7-.2 2.4-.9 3.7-2.2-.5-.6-.8-1.2-1.2-1.8z" fill="#37254D"/><path fill-rule="evenodd" clip-rule="evenodd" d="M60.4 112.3c.4.7.9 1.5 1.3 2.2 17.9-4.3 14.4-12 11-10.2-4.9 2.6-7.9 4.7-12.3 8z" fill="#C5B0DF"/><path fill-rule="evenodd" clip-rule="evenodd" d="M58.5 107.7c.7.6.9 1.9 2.2 1.8-.2-.9-.2-1.5-.3-1.9-.1-.6.3-.4.7 0 .4.4.6 1 .8.7.2-.3.2-.8-.3-1.4-.3-.4-1-1.2-1.5-1.2-.2 0-.4.4-.6.3-1.8-.6-1.5-2.6-2.6-3.9-1.3-.2-3 .8-2.3 2.1 1.6 1.2 2.6 2.2 3.9 3.5z" fill="url(#c)"/><path fill-rule="evenodd" clip-rule="evenodd" d="M69.8 107.4c-.7.6-.9 1.9-2.2 1.8.2-.9.2-1.5.3-1.9.1-.6-.3-.4-.7 0-.4.4-.6 1-.8.7-.2-.3-.2-.8.3-1.4.3-.4 1-1.2 1.5-1.2.2 0 .4.4.6.3 1.8-.6 1.5-2.6 2.6-3.9 1.3-.2 3 .8 2.3 2.1-1.7 1.1-2.7 2.1-3.9 3.5z" fill="url(#d)"/><path fill-rule="evenodd" clip-rule="evenodd" d="M67.4 111.8l-6.6.1c-.5 0-.9-.4-.9-.9l-.1-9.5c0-.5.4-.9.9-.9h6.7c.5 0 .9.4.9.9v9.4c0 .5-.4.9-.9.9z" fill="#fff"/><path fill-rule="evenodd" clip-rule="evenodd" d="M64.1 107.4c-.6 0-1.2-.5-1.2-1.2 0-.6.5-1.2 1.2-1.2.6 0 1.2.5 1.2 1.2-.1.7-.6 1.2-1.2 1.2z" fill="#EDE2F9"/><path fill-rule="evenodd" clip-rule="evenodd" d="M20 61.1l.1 2 2.5 2.1 2.8-2.3.2-1.8-1.2-.3v-1.6h-3.1v1.7l-1.3.2z" fill="url(#e)"/><path fill-rule="evenodd" clip-rule="evenodd" d="M22.8 60.5c2.1 0 3.8-2.2 3.8-5.2s1.1-5.7-3.8-5.4c-4.9.3-3.8 2.4-3.8 5.4.1 3 1.8 5.2 3.8 5.2z" fill="url(#f)"/><path fill-rule="evenodd" clip-rule="evenodd" d="M26.2 51c.3 1.4.4 2.2.4 3.9 1-1.4 1.4-2.1 1.4-3.7 0-2.7-.4-3.7-2.2-3.5-1.9.2-1.1-.9-3.2-1.1-2-.2-1.1 1.2-3.7.8-1.6-.2-2.9 2.2-1 4.8.3.5.3 1.2 1.1 2.5 0-2.2.2-3.3.8-3.7 2 .8 4.5.9 6.4 0z" fill="#37254D"/><path fill-rule="evenodd" clip-rule="evenodd" d="M21.2 56.7c.4 0 .8-.2 1-.4.2-.2.4-.5.4-.9h.6c0 .3.2.6.4.9.3.3.6.4 1 .4s.8-.2 1-.4c.3-.3.4-.6.4-1v-.1l.7-.2v-.3l-.7.1c-.1-.2-.2-.4-.4-.6-.3-.3-.6-.4-1-.4s-.8.2-1 .4c-.2.2-.4.5-.4.9h-.6c0-.3-.2-.6-.4-.9-.3-.3-.6-.4-1-.4s-.8.2-1 .4c-.2.2-.3.4-.4.6l-.8-.2v.3l.7.2v.1c0 .4.2.8.4 1 .3.4.7.5 1.1.5zm2.6-.6c-.2-.2-.3-.5-.3-.8 0-.3.1-.6.3-.8.2-.2.5-.3.8-.3.3 0 .6.1.8.3.2.2.3.5.3.8 0 .3-.1.6-.3.8-.2.2-.5.3-.8.3-.3 0-.6-.1-.8-.3zm-1.8 0c-.2.2-.5.3-.8.3-.3 0-.6-.1-.8-.3-.2-.2-.3-.5-.3-.8 0-.3.1-.6.3-.8.2-.2.5-.3.8-.3.3 0 .6.1.8.3.2.2.3.5.3.8 0 .3-.1.6-.3.8z" fill="#37254D"/><path fill-rule="evenodd" clip-rule="evenodd" d="M17.2 109.6l.5-2 2.1.3-.4 1.8c-.1.1-2-.1-2.2-.1z" fill="url(#g)"/><path fill-rule="evenodd" clip-rule="evenodd" d="M23 109l.5-1.8 1.9.3-.4 1.7c0-.1-1.8-.2-2-.2z" fill="url(#h)"/><path fill-rule="evenodd" clip-rule="evenodd" d="M17.3 109.1c1.1.5 2 0 2.5.1 1.1 1 1.4 1.2 2.7 1.4 1.3.2 2.1 1.3.5 1.3-3 0-5.3 0-6.2-.2-.3-.2-.8-2.1.5-2.6z" fill="#37254D"/><path fill-rule="evenodd" clip-rule="evenodd" d="M23.1 108.5c1 .5 1.9 0 2.4.1 1 .9 1.3 1.1 2.5 1.3 1.2.2 2 1.2.5 1.2-2.8 0-5 0-5.8-.2-.4-.1-.9-1.9.4-2.4z" fill="#37254D"/><path fill-rule="evenodd" clip-rule="evenodd" d="M22.8 107.2c.8.5 2.6 1 3.5.4C28.2 93.9 28 89.5 28.8 79c-1.2 0-3.1-.1-5.6-.3.1 6.9 1.2 12.1-.4 28.5z" fill="#56A9BE"/><path fill-rule="evenodd" clip-rule="evenodd" d="M16.7 107.8c1 .4 2.7 1 4.1.6 2.2-14 2-17.8 2.8-28.5-1.4 0-3.7-.9-6.6-1.1.4 7.1 1.6 12.3-.3 29z" fill="#4998AC"/><path fill-rule="evenodd" clip-rule="evenodd" d="M25.6 61.1c4.4 1.6 6.9 7 7.9 11.6.6 2.9-2.3 3.2-3.2 2-.2-.3-1-1.1-1.5-2.6.3 1.4.6 3.6 0 7-2.1 2-8.5 2.1-11.2.1-.7-.6-1.7.4-2.1.3-.8-4-1.4-7.4-1-10.6.4-3.4 1.7-7.2 5.6-7.8 1.4 2.8 4.5 2.7 5.5 0z" fill="#5983B1"/><path fill-rule="evenodd" clip-rule="evenodd" d="M21.4 84.5c.9 2.2 3.4 3.4 5.8 2.8 2.6-.7 4.1-3.4 3.4-6-.7-2.6-3.4-4.1-6-3.4-2.4.7-3.8 3-3.5 5.4l-1.3.4-.5-.4-3.7 1c-.3.1-.4.5-.3.9l.2.8c.1.4.5.7.7.6l3.7-1 .2-.6 1.3-.5z" fill="#8A6CAF"/><path fill-rule="evenodd" clip-rule="evenodd" d="M16.1 81.8c-.3.5-.3 2 0 2.9.3.9 1.9 2.4 2 .7 0-.3 0-.7-.1-1.2.1.2.5.2.5-.1.1-.3.1-.9 0-1.3 0-.3-.1-.6-.4-1-.3-.3-.1-1-.3-1.3-.3-.3-1.2-.1-1.6.1-.2.1.2.8-.1 1.2z" fill="url(#i)"/><path fill-rule="evenodd" clip-rule="evenodd" d="M18.5 81c-.9.3-1.8.3-2.9.2-.5-1.4-1-5.6-1.1-7.2-.3-3.8 3-3.6 3.4-.3.3 1.6.5 5.4.6 7.3z" fill="#5983B1"/><path fill-rule="evenodd" clip-rule="evenodd" d="M18.6 66.4c.3 2.2 0 3.7-.2 4.6-.5 2 .3 5.1-.1 7.8-.2-4.1-.9-5.6-.4-7.9.2-.9.8-2.3.7-4.5z" fill="#456F9B"/><path fill-rule="evenodd" clip-rule="evenodd" d="M22.9 83.5c-.4-1.6.5-3.3 2.1-3.7 1.6-.4 3.3.5 3.7 2.1.4 1.6-.5 3.3-2.1 3.7-1.6.4-3.2-.5-3.7-2.1zm58.2-6.6c-.4-.1-.8.1-.9.5-.1.3.1.7.4.9-.3 0-.5.2-.6.5-.1.3 0 .7.3.8-.2.1-.4.2-.4.5-.1.3 0 .6.2.8-.1.1-.2.2-.3.4-.1.4.1.8.5.9 2.5.8 5.1 1.6 7.6 2.4.2.1.5-.1.6-.3l1.3-4.1c.1-.2-.1-.5-.3-.6-.8-.3-1.6-.5-2.4-.8-.3-.5-.6-1.3-.7-1.5-.1-.2-.1-.5 0-.7.1-.4.2-.7.4-1.1-.1-.6-.9-1-1.7-.4-1 .8-1 2-1 2.8-1.1-.4-2.1-.7-3-1z" fill="#fff"/><path fill-rule="evenodd" clip-rule="evenodd" d="M81.1 76.9c-.4-.1-.8.1-.9.5-.1.3.1.7.4.9-.3 0-.5.2-.6.5-.1.3 0 .7.3.8-.2.1-.4.2-.4.5-.1.3 0 .6.2.8-.1.1-.2.2-.3.4-.1.4.1.8.5.9l.4.1c-.4-.3-.5-1 .2-1.2-.6-.5-.3-1.2.3-1.3-.6-.4-.3-1.2.3-1.2-.5-.4-.3-1.3.5-1.2l2.5.8c-.2-2 .6-3.5 1.7-3.1-.8-.9-2.5 0-2.4 2.7-.8-.2-1.7-.5-2.7-.9z" fill="#F8F6FB"/><path fill-rule="evenodd" clip-rule="evenodd" d="M81.1 76.7c-.2-.1-.5 0-.7.1-.2.1-.4.3-.5.5-.1.2-.1.4 0 .6 0 .1.1.2.1.2s-.1 0-.1.1c-.1.1-.2.3-.3.4-.1.2-.1.4 0 .6 0 .1.1.2.1.3l-.1.1c-.1.1-.2.2-.2.4-.1.2-.1.4 0 .6 0 .1.1.2.2.3v.1c-.1.1-.1.2-.1.3-.1.2 0 .5.1.7.1.2.3.4.5.5 1 .3 2.4.8 3.8 1.2 1.1.4 2.3.7 3.8 1.2.2.1.4 0 .5 0 .2-.1.3-.2.3-.4l1.3-4.1c.1-.2 0-.4 0-.5-.1-.2-.2-.3-.4-.3l-2.4-.8-.3-.6c-.2-.4-.3-.7-.3-.8 0-.1-.1-.2-.1-.3v-.3c.1-.4.2-.8.4-1.1v-.1c-.2-.9-1.3-1.1-2-.5-.5.4-.8 1-.9 1.5-.1.4-.2.8-.2 1.2l-2.5-1.1zm-.5.5c.1-.1.3-.1.4 0l1.4.5 1.4.5h.1c.1 0 .2-.1.2-.2 0-.4 0-.8.1-1.3s.4-.9.8-1.3c.5-.4 1.1-.4 1.3.2-.1.4-.2.7-.3 1.1 0 .1-.1.3-.1.4 0 .1 0 .3.1.4 0 .1.2.4.4.8.1.2.2.5.3.7l.1.1 2.4.8c.1 0 .1.1.2.1v.2l-1.3 4.1c0 .1-.1.1-.1.2h-.2c-1-.3-2.4-.8-3.8-1.2-1.1-.4-2.3-.7-3.8-1.2-.1 0-.2-.1-.3-.3-.1-.1-.1-.3 0-.4 0-.1 0-.1.1-.2l.1-.1c.1-.1.1-.2 0-.3-.1-.1-.2-.2-.2-.3v-.3c0-.1.1-.2.1-.2.1-.1.1-.1.2-.1 0 0 .1 0 .1-.1.1-.1 0-.2-.1-.3-.1-.1-.2-.2-.2-.3v-.3c0-.1.1-.2.2-.2.1-.1.2-.1.3-.1.1 0 .1 0 .1-.1.1-.1 0-.2-.1-.3-.1-.1-.2-.2-.2-.3 0-.1-.1-.2 0-.4s.2-.3.3-.3z" fill="#3A5897"/><path fill-rule="evenodd" clip-rule="evenodd" d="M89.4 79.6l-2.4-.8-1.6 5 2.4.8c.2.1.5-.1.6-.3l1.3-4.1c.1-.3-.1-.5-.3-.6z" fill="#5D71B7"/><path fill-rule="evenodd" clip-rule="evenodd" d="M89.4 79.4l-2.6-.8-1.7 5.3 2.6.8c.2.1.4 0 .5 0 .2-.1.3-.2.3-.4l1.3-4.1c.1-.2 0-.4 0-.5 0-.1-.2-.2-.4-.3zm-2.3-.3l2.2.7c.1 0 .1.1.2.1v.2l-1.3 4.1c0 .1-.1.1-.1.2h-.2l-2.2-.7 1.4-4.6z" fill="#3A5897"/><path fill-rule="evenodd" clip-rule="evenodd" d="M87.7 80.9c.3.1.6-.1.7-.4.1-.3-.1-.6-.4-.7-.3-.1-.6.1-.7.4-.1.2 0 .6.4.7z" fill="#fff"/><path fill-rule="evenodd" clip-rule="evenodd" d="M90.7 85.4c-.3-.1-.5-.2-.8-.3-.7 0-1.2.1-2.1-.3-.7-.3-1.1-.6-.9-1.6.1-.6.4-.9 1.2-.6.4.1.2 0 .3.1-.3-.6 0-.7.3-.5.5.2 1 .9 1.1 1.1.3.5.9.6 1.2.8.5.2 0 1.4-.3 1.3z" fill="url(#j)"/><path fill-rule="evenodd" clip-rule="evenodd" d="M105.4 75.3v2.2l-2.2.3-2.4-.5.3-2 .9-.2v-1.3h2.5v1.3l.9.2z" fill="url(#k)"/><path fill-rule="evenodd" clip-rule="evenodd" d="M103.1 74.8c-1.5 0-2.8-1.2-3.3-2.8-.8-.2-1.1-1.3-.2-1.4-.1-1.9-.7-3.6 3.4-3.4 4.2.2 3.5 1.5 3.4 3.4.9 0 .5 1.2-.2 1.5-.3 1.5-1.5 2.7-3.1 2.7z" fill="url(#l)"/><path fill-rule="evenodd" clip-rule="evenodd" d="M99.7 70.8c-.2-.4.1-.6-.6-1.5-1.1-1.3-.7-1.5-.3-2.9.7-2.4 2.5-1.5 2.9-1.4.9.4.8-1.5 2.8-1 1.9.5 3 1.8 3.4 2.9.5 1.4-1.2 2.2-1.2 2.9v1c-.1.1-.6-.9-1.5-1.4-.6-.3-3.1 1.2-4 .2-1.2-1.3-1-.5-1.1.5-.2.2-.3.8-.4.7z" fill="#37254D"/><path fill-rule="evenodd" clip-rule="evenodd" d="M96.4 83.6c-2.5-.1-2.7.6-5.8-.2-.4.7-.6 1.5-.5 2.1 1.3.3 3.5 1.2 5.4 1 2.9-.2 3-2.7.9-2.9zM31.9 71.9c3.5-.2 3.8.8 8.2-.3.5 1 .8 2 .7 2.9-1.8.4-4.9 1.6-7.5 1.4-4.1-.3-4.3-3.8-1.4-4z" fill="#5983B1"/><path fill-rule="evenodd" clip-rule="evenodd" d="M107.2 110.3l-.4-1.4-1.5.2.3 1.3c.1 0 1.4-.1 1.6-.1z" fill="url(#m)"/><path fill-rule="evenodd" clip-rule="evenodd" d="M103 109.8l-.3-1.3-1.4.2.3 1.2s1.3-.1 1.4-.1z" fill="url(#n)"/><path fill-rule="evenodd" clip-rule="evenodd" d="M107.1 109.9c-.8.4-1.5 0-1.8.1-.8.7-1 .9-1.9 1-.9.1-1.5.9-.4.9 2.1 0 3.9 0 4.5-.2.2 0 .6-1.4-.4-1.8z" fill="#37254D"/><path fill-rule="evenodd" clip-rule="evenodd" d="M102.9 109.5c-.7.4-1.4 0-1.7.1-.7.7-1 .8-1.8.9-.9.1-1.4.9-.3.9 2 0 3.6 0 4.2-.1.2-.2.6-1.5-.4-1.8z" fill="#37254D"/><path fill-rule="evenodd" clip-rule="evenodd" d="M103.2 108.6c-.5.3-1.9.7-2.5.3-1.4-9.9-1.2-13-1.8-20.6.8 0 2.2 0 4-.2-.1 4.9-.9 8.6.3 20.5z" fill="#715198"/><path fill-rule="evenodd" clip-rule="evenodd" d="M107.5 109c-.8.3-2 .7-3 .4-1.6-10.1-1.4-12.8-2-20.5 1 0 2.6-.6 4.7-.8-.2 5.1-1 8.8.3 20.9z" fill="#67498B"/><path fill-rule="evenodd" clip-rule="evenodd" d="M101.1 75.3c-2.3.8-4.2 2.1-5.2 6.5-.4 2-1.2 3.3 1.2 4.3.6-.6 1.4-1.8 1.8-2.8-.2 1-.5 2.6 0 5 1.5 1.4 6.1 1.5 8 0 .5-.4 1.2.3 1.5.2.6-2.9 1-5.3.7-7.6-.3-2.5-1.2-5.2-4-5.6-1 2-3.2 2-4 0z" fill="#5983B1"/><path fill-rule="evenodd" clip-rule="evenodd" d="M108 90.2c.2.4.2 1.5 0 2.1-.2.7-1.4 1.7-1.4.5v-.9c-.1.2-.3.2-.4-.1-.1-.2 0-.7 0-.9 0-.2 0-.4.3-.8.2-.2 0-.7.2-.9.2-.2.9-.1 1.2.1.2.1-.2.7.1.9z" fill="url(#o)"/><path fill-rule="evenodd" clip-rule="evenodd" d="M106.2 89.7c.6.2 1.3.2 2.1.1.3-1 .7-4 .8-5.2.2-2.7-2.2-2.6-2.5-.2-.1 1.1-.3 3.9-.4 5.3z" fill="#5983B1"/><path fill-rule="evenodd" clip-rule="evenodd" d="M106.2 79.2c-.2 1.6 0 2.7.1 3.3.3 1.5-.2 3.7.1 5.6.1-3 .7-4 .3-5.7-.2-.7-.6-1.7-.5-3.2z" fill="#456F9B"/><path fill-rule="evenodd" clip-rule="evenodd" d="M38 66c0 .4-.4.8-.9.7-.4 0-.8-.4-.7-.9.1-1.1.5-2.3 1.1-3.4.6-1 1.5-2 2.5-2.9 1.1-.8 2.3-1.4 3.4-1.8 1.2-.4 2.5-.4 3.6-.2.4.1.7.5.6.9-.1.4-.5.7-.9.6-.7 0-1.7 0-2.7.3-1 .3-2 .8-2.9 1.5-.9.7-1.6 1.5-2.1 2.4-.6 1-.9 1.9-1 2.8zm3 .6c0-.6.2-1.2.5-1.8.3-.6.8-1.1 1.4-1.6.6-.5 1.2-.8 1.9-1 .6-.2 1.3-.2 1.8-.1.4.1.8-.2.9-.6.1-.4-.2-.8-.6-.9-.8-.2-1.7-.1-2.6.1-.8.2-1.7.6-2.4 1.2s-1.3 1.3-1.8 2c-.4.8-.7 1.6-.7 2.5 0 .4.3.8.7.8.5.1.9-.2.9-.6zm3 .5c0-.3.1-.6.2-.8.1-.3.3-.5.6-.7.3-.2.6-.3.8-.4.3-.1.6-.1.9 0 .4.1.9-.1 1-.5.1-.4-.1-.9-.6-1-.5-.1-1.1-.2-1.6 0-.5.1-1 .3-1.5.7-.4.3-.8.8-1 1.3-.2.5-.4 1-.4 1.6 0 .4.4.8.8.8.5-.2.8-.6.8-1z" fill="#8A6CAF"/><path fill-rule="evenodd" clip-rule="evenodd" d="M33.8 71.2l16-.1c.7 0 .7 1.1 0 1.1l-16 .1c-.7 0-.7-1.1 0-1.1z" fill="#755798"/><path fill-rule="evenodd" clip-rule="evenodd" d="M53.6 58.2l-4.4 13.3c-.2.7.8 1 1 .3l4.4-13.3c.3-.7-.8-1-1-.3z" fill="#8A6CAF"/><path fill-rule="evenodd" clip-rule="evenodd" d="M41.3 74.2c.5.3 2 .3 2.9 0 2.2-.4 3.1-2 1.4-2.1-.8 0-2 .1-4.1 0-.1 0-.5.2-.9.3h-.3c.2.6.3 1.1.3 1.6.4.1.6.1.7.2z" fill="url(#p)"/><path fill-rule="evenodd" clip-rule="evenodd" d="M81.3 16.4c.3-.6.2-2.4-.2-3.3-.4-1-2.4-2.6-2.3-.7 0 .4.1.8.1 1.4-.2-.2-.5-.2-.6.1-.1.3 0 1.1.1 1.5.1.4.1.7.6 1.2.4.3.1 1.2.4 1.4.3.3 1.4.1 1.9-.2.1 0-.4-.9 0-1.4z" fill="url(#q)"/><path fill-rule="evenodd" clip-rule="evenodd" d="M78.8 26.1c0 .2-3.8-3.4-4.1-3.5-1.6-.8-.2.5-2 .4-3.7-.1-5.8-1.2-3.6-3.2 1.3-1.2 1.2-4.3 1.4-5.9.3-4 3.5-6.7 7.2-5.3 2.4.9 5.6 4.3 2.2 8.5-2.8 3.6-.3 5.1-1.1 9z" fill="#37254D"/><path fill-rule="evenodd" clip-rule="evenodd" d="M70.2 19.4l-1.6 1.8v2.6l5-.2 1.5-2.5-1.4-.7.6-1.3-1.7-.7-.7 1.1-1.7-.1z" fill="url(#r)"/><path fill-rule="evenodd" clip-rule="evenodd" d="M79.2 14.6c-.2-3.4-1.2-4.5-4.7-3.8-.8 1-1.4 1.9-1.8 2.8-.6-.4-1.4.7-.6 1.6-1.5 5.2 3.9 7.2 7.1-.6z" fill="url(#s)"/><path fill-rule="evenodd" clip-rule="evenodd" d="M79 15.7c-1.3-3.5-6.1-.2-5.2-4.5-1.1.6-2.2 2-2.8 4-.2-1.3 0-1.9.7-3.3 1.3-2.6 3-2.9 4.7-2.4 3.9 1.3 4 3.8 2.6 6.2z" fill="#37254D"/><path fill-rule="evenodd" clip-rule="evenodd" d="M78.5 38.2c.5.4-.1 1-.5.6l-1.1-1c0 .3-.4.6-.7.4 0 .3-.4.6-.6.4 0 .3-.4.6-.7.4-.6-.5-1-.9-1.5-1.6-.1-.3-.2-.9-.9-1.4l1.5-1.4c.3.5.7.8 1 .9.5 0 .8 0 1.2.3.4.3.3.5.7.9l1.6 1.5z" fill="url(#t)"/><path fill-rule="evenodd" clip-rule="evenodd" d="M69.5 27.6c2.2 2.8 1.5 3.6 4.9 6.5-.5 1-1.2 1.8-2 2.2-1.4-1.3-4.1-3-5.5-5.3-2.1-3.5.7-5.7 2.6-3.4zm9.3-1.6c0-3.5 1-3.8.1-8.2 1-.5 2.1-.7 2.9-.6.3 1.8 1.4 4.9 1.1 7.5-.5 4.2-4 4.2-4.1 1.3z" fill="#56A9BE"/><path fill-rule="evenodd" clip-rule="evenodd" d="M75.4 21.2c2.9 1.7 2.4 2.2 5.7 3.5 1.8.7.9 4-1.3 3.3-1.9-.6-4.5-1.6-6.2-2.6-3.7-2.1-.5-5.4 1.8-4.2z" fill="#56A9BE"/><path fill-rule="evenodd" clip-rule="evenodd" d="M52.9 12.2l-2.1 2.5-1.5-1.1 3.1-2.9c.2 0 .3 1.4.5 1.5z" fill="url(#u)"/><path fill-rule="evenodd" clip-rule="evenodd" d="M51.7 14.6c-.5-.8-1.2-1.4-2.2-1.8-1.4 1.1-5 4.9-6.3 6.5-2.9 3.6.1 5.4 2.8 2.3 1.3-1.6 4.3-5.2 5.7-7z" fill="#5983B1"/><path fill-rule="evenodd" clip-rule="evenodd" d="M51.9 13.4c.6-.9.1-2.2.3-2.6.9-.8 1.2-1.1 1.5-2.2.3-1.4 1.6-1.1 1.2.2-.7 2.5-.7 4.1-1 4.8-.3.4-1.8 1-2-.2z" fill="#37254D"/><path fill-rule="evenodd" clip-rule="evenodd" d="M71.6 21.4c-.5 3.5-1.6 4.1-1.7 7.9 0 2.1-3.6 2.3-3.7 0-.1-2.1-.4-5 .3-7.3 1.3-4.4 5.5-3.8 5.1-.6z" fill="#56A9BE"/><path fill-rule="evenodd" clip-rule="evenodd" d="M29.2 25.3l2.7-.4v2h-2.6s-.1-1.4-.1-1.6z" fill="url(#v)"/><path fill-rule="evenodd" clip-rule="evenodd" d="M30.9 25.2c-1.2.4-1.4 1.8-1.8 2-1.3.1-1.6.1-2.5.8-.9.7-2 .1-1-.9 1.9-1.8 3.3-2.9 3.9-3.3.3-.1 1.9.3 1.4 1.4z" fill="#37254D"/><path fill-rule="evenodd" clip-rule="evenodd" d="M44.1 20.3c3.2-.1 3.8-.3 6.1-.3 1.1 0 3-1.5 6-.4.8.3 1.7 1.1 3.1 1 2.4-.2 1.5 4.9-1.7 4.4-4.7-.2-9.5-.7-13.9-1.1-2.2-.2-2.6-3.5.4-3.6z" fill="#5983B1"/><path fill-rule="evenodd" clip-rule="evenodd" d="M32.1 27.7c3.4.2 6.6.2 8.8.3.5 0 1.7 0 2.1-.1 3.1-.4 6.1-.7 9-1.1 3.6-.4 5.1.6 9 .2.2-1.8 0-5.5-1.8-5.4-2.2.2-2.4-1.8-6.3-1.3-5.8.7-9.5 3-10.9 3.3-2 .4-4.5.5-9.7.7-1.1.1-1.7 3.3-.2 3.4z" fill="#4B75A2"/><path fill-rule="evenodd" clip-rule="evenodd" d="M58.1 20.4c1.9.3 4.5-.1 6.2-.6 2.9-.8 4.4-1.9 6.6-.6-.1 1.1-.5 2.1-1.1 3.2 2.1 0 3.2-1.7 4.9-1.6 1.2.4 1.7 1.7.5 3-.1.1-1.1 1-1.7 1.5-1 .9-3.9 1.8-6.1 1.5-4.5-.7-4 .5-7 .1-2.6-.1-5.2-7-2.3-6.5z" fill="#56A9BE"/><path fill-rule="evenodd" clip-rule="evenodd" d="M59.8 106.6c3.3 1.7 3.1 3.1.1 2.8 0-1.1-.1-1.8-.1-2.8zm8.6-.4c-3.3 1.7-3.1 3.1-.1 2.8.1-1 .1-1.7.1-2.8z" fill="#FACEC6"/><defs><linearGradient id="a" x1="64.138" y1="95.388" x2="64.138" y2="91.834" gradientUnits="userSpaceOnUse"><stop stop-color="#F18A77"/><stop offset="1" stop-color="#F6B0A2"/></linearGradient><linearGradient id="b" x1="64.247" y1="91.188" x2="64.246" y2="84.423" gradientUnits="userSpaceOnUse"><stop stop-color="#F7B9AD"/><stop offset="1" stop-color="#FAD4CC"/></linearGradient><linearGradient id="c" x1="55.879" y1="103.329" x2="60.464" y2="107.893" gradientUnits="userSpaceOnUse"><stop stop-color="#F7B9AD"/><stop offset="1" stop-color="#FAD4CC"/></linearGradient><linearGradient id="d" x1="72.365" y1="102.978" x2="67.78" y2="107.543" gradientUnits="userSpaceOnUse"><stop stop-color="#F7B9AD"/><stop offset="1" stop-color="#FAD4CC"/></linearGradient><linearGradient id="e" x1="22.821" y1="64.829" x2="22.82" y2="60.354" gradientUnits="userSpaceOnUse"><stop stop-color="#F18A77"/><stop offset="1" stop-color="#F6B0A2"/></linearGradient><linearGradient id="f" x1="22.844" y1="59.95" x2="22.842" y2="51.965" gradientUnits="userSpaceOnUse"><stop stop-color="#F7B9AD"/><stop offset="1" stop-color="#FAD4CC"/></linearGradient><linearGradient id="g" x1="18.472" y1="109.298" x2="18.584" y2="108.234" gradientUnits="userSpaceOnUse"><stop stop-color="#F7B9AD"/><stop offset="1" stop-color="#FAD4CC"/></linearGradient><linearGradient id="h" x1="24.159" y1="108.684" x2="24.265" y2="107.68" gradientUnits="userSpaceOnUse"><stop stop-color="#F7B9AD"/><stop offset="1" stop-color="#FAD4CC"/></linearGradient><linearGradient id="i" x1="16.68" y1="80.302" x2="17.41" y2="84.312" gradientUnits="userSpaceOnUse"><stop stop-color="#F7B9AD"/><stop offset="1" stop-color="#FAD4CC"/></linearGradient><linearGradient id="j" x1="90.406" y1="84.063" x2="87.929" y2="83.443" gradientUnits="userSpaceOnUse"><stop stop-color="#F7B9AD"/><stop offset="1" stop-color="#FAD4CC"/></linearGradient><linearGradient id="k" x1="103.073" y1="77.615" x2="103.073" y2="74.604" gradientUnits="userSpaceOnUse"><stop stop-color="#F18A77"/><stop offset="1" stop-color="#F6B0A2"/></linearGradient><linearGradient id="l" x1="103.132" y1="74.404" x2="103.133" y2="68.766" gradientUnits="userSpaceOnUse"><stop stop-color="#F7B9AD"/><stop offset="1" stop-color="#FAD4CC"/></linearGradient><linearGradient id="m" x1="106.275" y1="110.064" x2="106.194" y2="109.296" gradientUnits="userSpaceOnUse"><stop stop-color="#F7B9AD"/><stop offset="1" stop-color="#FAD4CC"/></linearGradient><linearGradient id="n" x1="102.176" y1="109.621" x2="102.1" y2="108.898" gradientUnits="userSpaceOnUse"><stop stop-color="#F7B9AD"/><stop offset="1" stop-color="#FAD4CC"/></linearGradient><linearGradient id="o" x1="107.567" y1="89.161" x2="107.041" y2="92.052" gradientUnits="userSpaceOnUse"><stop stop-color="#F7B9AD"/><stop offset="1" stop-color="#FAD4CC"/></linearGradient><linearGradient id="p" x1="40.039" y1="73.682" x2="44.528" y2="72.917" gradientUnits="userSpaceOnUse"><stop stop-color="#F7B9AD"/><stop offset="1" stop-color="#FAD4CC"/></linearGradient><linearGradient id="q" x1="80.672" y1="18.17" x2="79.58" y2="13.634" gradientUnits="userSpaceOnUse"><stop stop-color="#F7B9AD"/><stop offset="1" stop-color="#FAD4CC"/></linearGradient><linearGradient id="r" x1="70.487" y1="23.291" x2="72.376" y2="20.486" gradientUnits="userSpaceOnUse"><stop stop-color="#F18A77"/><stop offset="1" stop-color="#F6B0A2"/></linearGradient><linearGradient id="s" x1="73.227" y1="18.206" x2="76.372" y2="13.068" gradientUnits="userSpaceOnUse"><stop stop-color="#F7B9AD"/><stop offset="1" stop-color="#FAD4CC"/></linearGradient><linearGradient id="t" x1="74.499" y1="35.538" x2="76.742" y2="38.792" gradientUnits="userSpaceOnUse"><stop stop-color="#F7B9AD"/><stop offset="1" stop-color="#FAD4CC"/></linearGradient><linearGradient id="u" x1="52.278" y1="11.536" x2="50.947" y2="13.167" gradientUnits="userSpaceOnUse"><stop stop-color="#F7B9AD"/><stop offset="1" stop-color="#FAD4CC"/></linearGradient><linearGradient id="v" x1="29.745" y1="26.098" x2="31.461" y2="25.95" gradientUnits="userSpaceOnUse"><stop stop-color="#F7B9AD"/><stop offset="1" stop-color="#FAD4CC"/></linearGradient></defs></svg>